<svg width="15" height="15" viewBox="0 0 15 15" fill="none" xmlns="http://www.w3.org/2000/svg">
<path d="M8.22415 0.777843L9.91595 4.20588C10.0336 4.4443 10.2611 4.60951 10.5242 4.64768L14.3074 5.19743C14.9701 5.2938 15.2345 6.10794 14.7551 6.57509L12.0176 9.24342C11.8274 9.42897 11.7404 9.69649 11.7855 9.95838L12.4316 13.7262C12.5449 14.3861 11.8521 14.8892 11.2595 14.5779L7.8759 12.7991C7.64061 12.6755 7.35932 12.6755 7.12403 12.7991L3.74042 14.5779C3.14781 14.8895 2.45507 14.3861 2.56833 13.7262L3.21445 9.95838C3.25951 9.69649 3.17252 9.42897 2.98229 9.24342L0.244803 6.57509C-0.234546 6.10763 0.0298469 5.29349 0.69255 5.19743L4.47572 4.64768C4.73886 4.60951 4.96633 4.4443 5.08398 4.20588L6.77578 0.777843C7.07177 0.177405 7.92784 0.177405 8.22415 0.777843Z" fill="#ED8A19"/>
</svg>
