<svg width="50" height="50" viewBox="0 0 50 50" fill="none" xmlns="http://www.w3.org/2000/svg">
<path d="M42.578 48.5352H7.42188V39.6485C7.42188 36.4124 10.0452 33.7891 13.2812 33.7891H36.7187C39.9547 33.7891 42.578 36.4124 42.578 39.6485V48.5352Z" stroke="#FF8367" stroke-width="1.6" stroke-miterlimit="10"/>
<path d="M16.2109 13.2814C14.3769 11.9887 13.2812 10.7504 13.2812 8.88685C13.2812 4.84185 18.5279 1.465 25 1.465C31.472 1.465 36.7187 4.84185 36.7187 8.88685C36.7187 10.7504 35.623 11.9887 33.789 13.2814" stroke="#FF8367" stroke-width="1.6" stroke-miterlimit="10"/>
<path d="M33.789 14.7462C33.789 17.9823 29.8541 20.6056 25 20.6056C20.1459 20.6056 16.2109 17.9823 16.2109 14.7462" stroke="#FF8367" stroke-width="1.6" stroke-miterlimit="10"/>
<path d="M25 30.8594C20.146 30.8594 16.2109 26.9244 16.2109 22.0703V13.2813H33.789V22.0703C33.789 26.9244 29.8541 30.8594 25 30.8594Z" stroke="#FF8367" stroke-width="1.6" stroke-miterlimit="10"/>
<path d="M13.6484 48.5352C14.9493 43.4808 19.5376 39.6485 24.998 39.6485C30.4584 39.6485 35.0466 43.4808 36.3475 48.5352" stroke="#FF8367" stroke-width="1.6" stroke-miterlimit="10"/>
<path d="M13.2812 33.7891L27.9296 48.5352" stroke="#FF8367" stroke-width="1.6" stroke-miterlimit="10"/>
</svg>
