<svg width="50" height="46" viewBox="0 0 50 46" fill="none" xmlns="http://www.w3.org/2000/svg">
<path d="M32.9355 27.4033H27.6641C28.1396 26.1875 28.4033 24.9883 28.498 23.7979" stroke="#47A1E5" stroke-width="1.6" stroke-miterlimit="10" stroke-linecap="round" stroke-linejoin="round"/>
<path d="M26.0086 44.2217H21.8152C21.2469 44.2217 20.6971 44.0293 20.2469 43.6836C19.0584 42.7725 17.8006 42.5801 16.2723 42.4893V29.1211C19.867 25.0127 24.4227 24.627 24.1043 18.4893C24.0486 17.4268 24.8953 16.5352 25.9588 16.5352C26.7723 16.5352 27.4959 17.0635 27.7332 17.8418C28.0145 18.7637 28.2342 19.6836 28.3728 20.6055M33.9139 44.2217H29.201M12.5469 30.2361V32.1037" stroke="#47A1E5" stroke-width="1.6" stroke-miterlimit="10" stroke-linecap="round" stroke-linejoin="round"/>
<path d="M9.61624 36.3613V44.2217L16.2764 44.2177V25.8886L9.61624 25.8916V33.1689M27.6647 27.4037V29.1919C27.6647 31.6294 25.6887 33.6052 23.2513 33.6052M37.3021 31.6082H32.9367C31.7757 31.6082 30.8345 30.667 30.8345 29.5059C30.8345 28.3449 31.7757 27.4037 32.9367 27.4037H37.3021C38.4631 27.4037 39.4043 28.3449 39.4043 29.5059C39.4044 30.667 38.4632 31.6082 37.3021 31.6082ZM37.3021 40.0173H32.9367C31.7757 40.0173 30.8345 39.0761 30.8345 37.915C30.8345 36.754 31.7757 35.8128 32.9367 35.8128H37.3021C38.4631 35.8128 39.4043 36.754 39.4043 37.915C39.4044 39.0761 38.4632 40.0173 37.3021 40.0173ZM36.3256 44.2219H33.9133C32.7523 44.2219 31.8111 43.2806 31.8111 42.1196C31.8111 40.9586 32.7523 40.0174 33.9133 40.0174H36.3256C37.4866 40.0174 38.4279 40.9586 38.4279 42.1196C38.4279 43.2806 37.4866 44.2219 36.3256 44.2219ZM38.2786 35.8128H33.9133C32.7523 35.8128 31.8111 34.8716 31.8111 33.7105C31.8111 32.5495 32.7523 31.6083 33.9133 31.6083H38.2786C39.4397 31.6083 40.3809 32.5495 40.3809 33.7105C40.3809 34.8716 39.4397 35.8128 38.2786 35.8128ZM25.6117 2.15916L26.5388 4.03748C26.5878 4.13686 26.6603 4.22282 26.75 4.28796C26.8396 4.3531 26.9438 4.39547 27.0534 4.4114L29.1263 4.71257C29.6869 4.79402 29.9109 5.48308 29.5051 5.87849L28.0052 7.3406C27.9258 7.41796 27.8665 7.51346 27.8322 7.61887C27.798 7.72428 27.7899 7.83644 27.8086 7.94568L28.1627 10.0102C28.2585 10.5686 27.6724 10.9945 27.1709 10.7308L25.3169 9.75613C25.2188 9.70456 25.1096 9.67761 24.9988 9.67761C24.888 9.67761 24.7788 9.70456 24.6807 9.75613L22.8267 10.7308C22.3252 10.9945 21.7391 10.5686 21.8349 10.0102L22.189 7.94568C22.2077 7.83644 22.1996 7.72429 22.1654 7.61888C22.1311 7.51347 22.0718 7.41797 21.9924 7.3406L20.4925 5.87849C20.0868 5.48298 20.3107 4.79402 20.8713 4.71257L22.9442 4.4114C23.0538 4.39548 23.158 4.35313 23.2477 4.28798C23.3373 4.22284 23.4098 4.13687 23.4588 4.03748L24.3859 2.15916C24.6365 1.65105 25.361 1.65105 25.6117 2.15916ZM14.8315 6.06521L15.7585 7.94353C15.8076 8.04291 15.88 8.12888 15.9697 8.19402C16.0594 8.25916 16.1635 8.30152 16.2732 8.31746L18.346 8.61863C18.9067 8.70007 19.1306 9.38914 18.7248 9.78455L17.2249 11.2467C17.1456 11.324 17.0862 11.4195 17.0519 11.5249C17.0177 11.6303 17.0096 11.7425 17.0284 11.8517L17.3825 13.9163C17.4783 14.4747 16.8921 14.9006 16.3907 14.6369L14.5367 13.6622C14.4385 13.6106 14.3294 13.5837 14.2185 13.5837C14.1077 13.5837 13.9985 13.6106 13.9004 13.6622L12.0464 14.6369C11.545 14.9006 10.9588 14.4747 11.0546 13.9163L11.4087 11.8517C11.4275 11.7425 11.4194 11.6303 11.3851 11.5249C11.3509 11.4195 11.2915 11.324 11.2121 11.2467L9.71224 9.78455C9.30657 9.38904 9.5304 8.70007 10.091 8.61863L12.1639 8.31746C12.2736 8.30154 12.3777 8.25918 12.4674 8.19404C12.557 8.12889 12.6295 8.04292 12.6785 7.94353L13.6056 6.06521C13.8563 5.5572 14.5808 5.5572 14.8315 6.06521ZM6.05706 14.854L6.98411 16.7323C7.03315 16.8317 7.10563 16.9176 7.19528 16.9828C7.28494 17.0479 7.38909 17.0903 7.49876 17.1062L9.57161 17.4074C10.1323 17.4888 10.3562 18.1779 9.95042 18.5733L8.45052 20.0354C8.37114 20.1128 8.31177 20.2083 8.27752 20.3137C8.24327 20.4191 8.23518 20.5313 8.25394 20.6405L8.60804 22.7051C8.70384 23.2635 8.11771 23.6893 7.61624 23.4257L5.76224 22.451C5.66413 22.3994 5.55496 22.3724 5.44412 22.3724C5.33329 22.3724 5.22411 22.3994 5.12601 22.451L3.272 23.4257C2.77054 23.6893 2.1844 23.2635 2.28021 22.7051L2.63431 20.6405C2.65305 20.5313 2.64494 20.4191 2.6107 20.3137C2.57645 20.2083 2.51709 20.1128 2.43772 20.0354L0.937627 18.5734C0.531963 18.1779 0.755791 17.4889 1.31644 17.4075L3.38929 17.1063C3.49896 17.0904 3.60312 17.048 3.69278 16.9829C3.78244 16.9178 3.85491 16.8318 3.90394 16.7324L4.83099 14.8541C5.08187 14.346 5.80628 14.346 6.05706 14.854ZM45.1651 14.854L46.0921 16.7323C46.1412 16.8317 46.2136 16.9176 46.3033 16.9828C46.3929 17.0479 46.4971 17.0903 46.6068 17.1062L48.6796 17.4074C49.2403 17.4888 49.4642 18.1779 49.0584 18.5733L47.5585 20.0354C47.4791 20.1128 47.4198 20.2083 47.3855 20.3137C47.3513 20.4191 47.3432 20.5313 47.3619 20.6405L47.716 22.7051C47.8118 23.2635 47.2257 23.6893 46.7242 23.4257L44.8702 22.451C44.7721 22.3994 44.663 22.3724 44.5521 22.3724C44.4413 22.3724 44.3321 22.3994 44.234 22.451L42.38 23.4257C41.8785 23.6893 41.2924 23.2635 41.3882 22.7051L41.7423 20.6405C41.7611 20.5313 41.753 20.4191 41.7187 20.3137C41.6845 20.2083 41.6251 20.1128 41.5457 20.0354L40.0458 18.5733C39.6402 18.1778 39.864 17.4888 40.4246 17.4074L42.4975 17.1062C42.6072 17.0903 42.7113 17.0479 42.801 16.9828C42.8906 16.9177 42.9631 16.8317 43.0121 16.7323L43.9392 14.854C44.1899 14.346 44.9143 14.346 45.1651 14.854ZM36.4207 6.06521L37.3478 7.94353C37.3968 8.04291 37.4693 8.12888 37.559 8.19402C37.6486 8.25916 37.7528 8.30152 37.8624 8.31746L39.9353 8.61863C40.4959 8.70007 40.7199 9.38914 40.3141 9.78455L38.8142 11.2467C38.7348 11.324 38.6754 11.4195 38.6412 11.5249C38.6069 11.6303 38.5989 11.7425 38.6176 11.8517L38.9717 13.9163C39.0675 14.4747 38.4814 14.9006 37.9799 14.6369L36.1259 13.6622C36.0278 13.6106 35.9186 13.5837 35.8078 13.5837C35.697 13.5837 35.5878 13.6106 35.4897 13.6622L33.6357 14.6369C33.1342 14.9006 32.5481 14.4747 32.6439 13.9163L32.998 11.8517C33.0167 11.7425 33.0086 11.6303 32.9744 11.5249C32.9401 11.4195 32.8808 11.324 32.8014 11.2467L31.3015 9.78455C30.8958 9.38904 31.1197 8.70007 31.6803 8.61863L33.7532 8.31746C33.8628 8.30154 33.967 8.25918 34.0566 8.19404C34.1463 8.12889 34.2188 8.04292 34.2678 7.94353L35.1949 6.06521C35.4455 5.5572 36.17 5.5572 36.4207 6.06521Z" stroke="#47A1E5" stroke-width="1.6" stroke-miterlimit="10" stroke-linecap="round" stroke-linejoin="round"/>
</svg>
