<svg width="49" height="37" viewBox="0 0 49 37" fill="none" xmlns="http://www.w3.org/2000/svg">
<path d="M43.5199 13.3322C41.5576 10.1321 39.5964 6.93125 37.6363 3.72974C36.5405 1.94 34.7376 0.929847 32.6392 0.929847H17.0354C14.9372 0.929847 13.1346 1.93981 12.0387 3.72916C10.0891 6.91264 8.13798 10.0952 6.1875 13.2781" stroke="#199675" stroke-width="1.6" stroke-miterlimit="22.926" stroke-linecap="round" stroke-linejoin="round"/>
<path d="M46.4218 30.1289V33.1447C46.4218 34.4401 45.3619 35.5 44.0666 35.5H39.6951C38.3997 35.5 37.3398 34.4401 37.3398 33.1447V30.2266" stroke="#199675" stroke-width="1.6" stroke-miterlimit="22.926" stroke-linecap="round" stroke-linejoin="round"/>
<path d="M12.3398 30.1289V33.1447C12.3398 34.4401 11.2799 35.5 9.98455 35.5H5.61298C4.31767 35.5 3.25781 34.4401 3.25781 33.1447V30.1289" stroke="#199675" stroke-width="1.6" stroke-miterlimit="22.926" stroke-linecap="round" stroke-linejoin="round"/>
<path d="M7.66326 13.2344H42.0161C45.4108 13.2344 48.1796 15.9105 48.1796 19.1914V27.1992C48.1796 28.8128 46.8177 30.1289 45.1484 30.1289H4.53105C2.86162 30.1289 1.5 28.8128 1.5 27.1992V19.1914C1.5 15.9104 4.26855 13.2344 7.66326 13.2344Z" stroke="#199675" stroke-width="1.6" stroke-miterlimit="22.926" stroke-linecap="round" stroke-linejoin="round"/>
<path d="M4.41415 18.7616C7.36014 18.9557 9.7031 21.4197 9.7031 24.4133V24.6086H1.5V21.49C1.5 20.7055 1.79277 20.0302 2.36552 19.494C2.93828 18.9578 3.63134 18.71 4.41415 18.7616Z" stroke="#199675" stroke-width="1.6" stroke-miterlimit="22.926" stroke-linecap="round" stroke-linejoin="round"/>
<path d="M45.2654 18.7616C42.3195 18.9557 39.9766 21.4197 39.9766 24.4133V24.6086H48.1797V21.49C48.1797 20.7055 47.8868 20.0302 47.3141 19.494C46.7414 18.9578 46.0483 18.71 45.2654 18.7616Z" stroke="#199675" stroke-width="1.6" stroke-miterlimit="22.926" stroke-linecap="round" stroke-linejoin="round"/>
<path d="M13.5117 18.7031H36.1679C35.5154 20.1183 34.8645 21.5342 34.2152 22.9509C33.7269 24.0165 32.724 24.6602 31.5517 24.6602H18.1232C16.9515 24.6602 15.9489 24.0171 15.4603 22.952C14.8107 21.5358 14.1611 20.1194 13.5117 18.7031Z" stroke="#199675" stroke-width="1.6" stroke-miterlimit="22.926" stroke-linecap="round" stroke-linejoin="round"/>
</svg>
