<svg width="50" height="36" viewBox="0 0 50 36" fill="none" xmlns="http://www.w3.org/2000/svg">
<path d="M25.1811 10.1391C25.1811 14.9798 21.3403 18.9041 16.6022 18.9041C11.8643 18.9041 8.02344 14.9798 8.02344 10.1391C8.02344 5.29833 11.8643 1.37413 16.6022 1.37413C21.3403 1.37413 25.1811 5.29833 25.1811 10.1391Z" stroke="#ECB238" stroke-width="1.6" stroke-miterlimit="10"/>
<path d="M3.83734 34.5771C2.37572 34.5771 1.24946 33.2309 1.51039 31.7614C2.80863 24.4492 9.07238 18.9041 16.6038 18.9041C24.1352 18.9041 30.3989 24.4492 31.6972 31.7614C31.9581 33.2309 30.8319 34.5771 29.3702 34.5771H3.83734Z" stroke="#ECB238" stroke-width="1.6" stroke-miterlimit="10"/>
<path d="M43.4693 8.92053C43.4693 12.6678 40.4962 15.7056 36.8284 15.7056C33.1607 15.7056 30.1875 12.6678 30.1875 8.92053C30.1875 5.17337 33.1607 2.13559 36.8284 2.13559C40.4962 2.13559 43.4693 5.17337 43.4693 8.92053Z" stroke="#ECB238" stroke-width="1.6" stroke-miterlimit="10"/>
<path d="M26.2266 22.3704C28.1836 18.4165 32.1971 15.7055 36.83 15.7055C42.6601 15.7055 47.5089 19.998 48.5139 25.6584C48.7159 26.7958 47.844 27.838 46.7125 27.838H30.4577" stroke="#ECB238" stroke-width="1.6" stroke-miterlimit="10"/>
</svg>
