<svg width="67" height="24" viewBox="0 0 67 24" fill="none" xmlns="http://www.w3.org/2000/svg">
<path fill-rule="evenodd" clip-rule="evenodd" d="M1.83832 5.27295C0.918105 5.27295 0.171875 6.01448 0.171875 6.92674V16.6111C0.171875 17.5266 0.917743 18.2663 1.83796 18.2663C2.75745 18.2663 3.50368 17.5266 3.50368 16.6111V6.92674C3.50368 6.01411 2.75782 5.27295 1.83832 5.27295Z" fill="#1E64FF"/>
<mask id="mask0_8068_874" style="mask-type:luminance" maskUnits="userSpaceOnUse" x="0" y="0" width="4" height="4">
<path d="M0 0H3.68087V3.65989H0V0Z" fill="white"/>
</mask>
<g mask="url(#mask0_8068_874)">
<path fill-rule="evenodd" clip-rule="evenodd" d="M1.84007 0C0.823638 0 0 0.819297 0 1.83031C0 2.83914 0.824 3.65989 1.84007 3.65989C2.85578 3.65989 3.68087 2.83878 3.68087 1.83031C3.68087 0.819297 2.85615 0 1.84007 0Z" fill="#1E64FF"/>
</g>
<path fill-rule="evenodd" clip-rule="evenodd" d="M31.6576 16.6114C31.6576 15.6984 30.911 14.9547 29.9897 14.9547H25.3882L31.2691 7.99159C31.859 7.29166 31.7672 6.24556 31.0629 5.66066C30.7348 5.38575 30.3329 5.25951 29.9347 5.27326C29.9162 5.27109 22.5762 5.27326 22.5762 5.27326C21.6553 5.27326 20.9101 6.01478 20.9101 6.92668C20.9101 7.8422 21.6553 8.5859 22.5762 8.5859H26.4198L20.5404 15.5472C19.9483 16.2489 20.0413 17.2925 20.7452 17.8789C21.0573 18.1415 21.4382 18.2666 21.8166 18.2666H29.9897C30.911 18.2666 31.6576 17.5269 31.6576 16.6114ZM46.3412 8.36525C47.2539 8.36525 48.109 8.71684 48.7546 9.35925C49.405 10.0042 50.4602 10.0042 51.1116 9.35925C51.7598 8.71177 51.7598 7.66351 51.1116 7.01675C49.8369 5.74928 48.1426 5.05225 46.3409 5.05225C44.5413 5.05225 42.8477 5.74928 41.5745 7.01639C40.3005 8.2835 39.5984 9.96441 39.5984 11.7557C39.5984 13.5454 40.3001 15.23 41.5745 16.4935C42.8477 17.7606 44.5413 18.4594 46.3409 18.4594C48.1426 18.4594 49.8369 17.7606 51.112 16.4935C51.7598 15.8492 51.7598 14.8006 51.112 14.1539C50.4602 13.5057 49.4047 13.5057 48.7546 14.1539C48.109 14.7919 47.2539 15.1486 46.3409 15.1486C45.4304 15.1486 44.5739 14.7919 43.9304 14.1539C43.2854 13.5125 42.9309 12.6614 42.9309 11.7557C42.9309 10.8499 43.2854 9.99697 43.9304 9.35925C44.5742 8.71684 45.4308 8.36525 46.3412 8.36525ZM59.8103 15.1486C57.9304 15.1486 56.4014 13.6257 56.4014 11.7557C56.4014 9.88556 57.9304 8.36525 59.8103 8.36525C61.6919 8.36525 63.2231 9.88556 63.2231 11.7557C63.2231 13.6257 61.6919 15.1486 59.8103 15.1486ZM59.8103 5.05225C56.0936 5.05225 53.0685 8.05923 53.0685 11.7557C53.0685 15.4517 56.0936 18.4594 59.8103 18.4594C63.5288 18.4594 66.5542 15.4517 66.5542 11.7557C66.5542 8.05887 63.5291 5.05225 59.8103 5.05225ZM35.7497 5.27326C34.8309 5.27326 34.0858 6.01478 34.0858 6.92704V16.6114C34.0858 17.5269 34.8309 18.2666 35.7497 18.2666C36.6714 18.2666 37.4158 17.5269 37.4158 16.6114V6.92704C37.4158 6.01442 36.6714 5.27326 35.7497 5.27326Z" fill="#1E64FF"/>
<mask id="mask1_8068_874" style="mask-type:luminance" maskUnits="userSpaceOnUse" x="33" y="0" width="5" height="4">
<path d="M33.9082 0H37.5916V3.65989H33.9082V0Z" fill="white"/>
</mask>
<g mask="url(#mask1_8068_874)">
<path fill-rule="evenodd" clip-rule="evenodd" d="M35.7494 0C34.7329 0 33.9082 0.819297 33.9082 1.83031C33.9082 2.83914 34.7329 3.65989 35.7494 3.65989C36.7676 3.65989 37.5916 2.83878 37.5916 1.83031C37.5916 0.819297 36.7676 0 35.7494 0Z" fill="#1E64FF"/>
</g>
<path fill-rule="evenodd" clip-rule="evenodd" d="M18.0153 5.45963C17.1982 5.0375 16.1933 5.35364 15.769 6.16426L12.1956 13.0116L8.62179 6.16426C8.19858 5.354 7.19191 5.0375 6.3755 5.45963C5.55982 5.88248 5.24115 6.88227 5.66545 7.69434L10.3175 16.6086L8.16964 20.7322C7.74498 21.5443 8.06148 22.5444 8.87861 22.9655C9.14665 23.1065 9.43566 23.1644 9.71853 23.1507C10.2937 23.1268 10.8417 22.8067 11.1274 22.2619L18.7236 7.69434C19.1493 6.88227 18.8321 5.88212 18.0153 5.45963Z" fill="#1E64FF"/>
</svg>
