<svg width="77" height="21" viewBox="0 0 77 21" fill="none" xmlns="http://www.w3.org/2000/svg">
<g clip-path="url(#clip0_9625_2312)">
<path d="M72.7226 16.5372C71.979 16.5372 71.3065 16.3646 70.7054 16.0194C70.1146 15.6743 69.6511 15.1971 69.3148 14.588C68.9786 13.9688 68.8105 13.2785 68.8105 12.5171C68.8105 11.7862 68.9685 11.1161 69.2843 10.507C69.6103 9.88784 70.0636 9.40056 70.6444 9.04525C71.225 8.6798 71.8873 8.49707 72.6309 8.49707C73.3951 8.49707 74.0572 8.66457 74.6176 8.99958C75.1881 9.33458 75.6211 9.80156 75.9165 10.4005C76.212 10.9893 76.3597 11.6694 76.3597 12.441C76.3597 12.5324 76.3546 12.6237 76.3444 12.7151C76.3342 12.8064 76.3291 12.8572 76.3291 12.8673H70.4915C70.5425 13.5577 70.7921 14.0907 71.2403 14.4662C71.6886 14.8419 72.1979 15.0296 72.7685 15.0296C73.6447 15.0296 74.317 14.6236 74.7857 13.8114L76.2222 14.4967C75.8859 15.116 75.4173 15.6133 74.8162 15.989C74.2253 16.3545 73.5275 16.5372 72.7226 16.5372ZM74.6482 11.5883C74.6278 11.3446 74.5463 11.0959 74.4037 10.8421C74.261 10.5883 74.0369 10.3751 73.7312 10.2025C73.4358 10.0198 73.0639 9.92845 72.6157 9.92845C72.1165 9.92845 71.6835 10.0807 71.3167 10.3852C70.9602 10.6898 70.7157 11.0908 70.5832 11.5883H74.6482Z" fill="#5E5E5E"/>
<path d="M65.1211 16.5372C64.2551 16.5372 63.5369 16.3392 62.9663 15.9433C62.406 15.5372 62.0087 15.0296 61.7744 14.4205L63.272 13.781C63.4452 14.1972 63.6948 14.5119 64.0208 14.7251C64.3569 14.9383 64.7237 15.0449 65.1211 15.0449C65.5388 15.0449 65.8801 14.9688 66.1449 14.8165C66.4098 14.6541 66.5422 14.4459 66.5422 14.1922C66.5422 13.9485 66.4353 13.7506 66.2213 13.5982C66.0074 13.4359 65.6559 13.2937 65.1669 13.1719L64.1277 12.9283C63.5572 12.7963 63.0632 12.5527 62.6455 12.1974C62.238 11.8319 62.0342 11.3599 62.0342 10.7812C62.0342 10.0807 62.3245 9.52746 62.9053 9.12139C63.4859 8.70517 64.199 8.49707 65.0446 8.49707C65.7476 8.49707 66.369 8.64426 66.909 8.93866C67.4592 9.23306 67.8565 9.65944 68.101 10.2178L66.6186 10.8421C66.476 10.5274 66.257 10.2939 65.9615 10.1416C65.666 9.98936 65.3452 9.91322 64.9989 9.91322C64.6626 9.91322 64.3671 9.98936 64.1125 10.1416C63.8577 10.2837 63.7305 10.4766 63.7305 10.7203C63.7305 10.9335 63.817 11.106 63.9902 11.2381C64.1735 11.37 64.4588 11.4817 64.846 11.573L65.9768 11.8472C66.7409 12.0399 67.3114 12.3344 67.6884 12.7303C68.0653 13.1161 68.2538 13.5831 68.2538 14.1312C68.2538 14.5779 68.1163 14.9839 67.8412 15.3494C67.5763 15.7148 67.2045 16.0042 66.7256 16.2174C66.257 16.4306 65.7222 16.5372 65.1211 16.5372Z" fill="#5E5E5E"/>
<path d="M57.0793 16.5372C56.5394 16.5372 56.0504 16.4306 55.6123 16.2174C55.1844 15.9941 54.8431 15.6895 54.5884 15.3038C54.3439 14.9078 54.2217 14.4612 54.2217 13.9637C54.2217 13.1719 54.5171 12.5475 55.1079 12.0908C55.709 11.6339 56.468 11.4055 57.3849 11.4055C58.1898 11.4055 58.8775 11.5426 59.448 11.8166V11.4969C59.448 11.04 59.2646 10.6645 58.8978 10.3701C58.5413 10.0655 58.1083 9.91322 57.5989 9.91322C56.8247 9.91322 56.2032 10.2279 55.7345 10.8573L54.4509 9.97413C54.8075 9.49701 55.2506 9.13155 55.7804 8.87775C56.3203 8.62396 56.9265 8.49707 57.5989 8.49707C58.7094 8.49707 59.5651 8.77624 60.1662 9.33458C60.7775 9.88276 61.0831 10.6594 61.0831 11.6644V16.2935H59.448V15.3647H59.3563C59.1118 15.7098 58.8011 15.9941 58.4241 16.2174C58.0472 16.4306 57.5989 16.5372 57.0793 16.5372ZM57.3544 15.1514C57.7314 15.1514 58.0777 15.0602 58.3936 14.8774C58.7195 14.6845 58.9743 14.4358 59.1576 14.1312C59.3512 13.8165 59.448 13.4816 59.448 13.1262C58.9081 12.8318 58.3324 12.6846 57.7211 12.6846C57.1608 12.6846 56.7228 12.8064 56.407 13.0501C56.0912 13.2937 55.9333 13.6034 55.9333 13.9789C55.9333 14.3241 56.0707 14.6084 56.3458 14.8317C56.6311 15.0449 56.9673 15.1514 57.3544 15.1514Z" fill="#5E5E5E"/>
<path d="M50.0265 16.5371C49.4763 16.5371 48.9822 16.4204 48.5442 16.1869C48.1163 15.9534 47.7954 15.659 47.5814 15.3037H47.4897V16.2935H45.9004V5.39062H47.5814V8.66452L47.4897 9.71522H47.5814C47.7954 9.37006 48.1163 9.08075 48.5442 8.84726C48.9822 8.61377 49.4763 8.49703 50.0265 8.49703C50.6785 8.49703 51.2796 8.66961 51.8297 9.01476C52.3901 9.35991 52.8333 9.84212 53.1593 10.4613C53.4954 11.0704 53.6635 11.7557 53.6635 12.5171C53.6635 13.2784 53.4954 13.9637 53.1593 14.5727C52.8333 15.1818 52.3901 15.6641 51.8297 16.0194C51.2796 16.3646 50.6785 16.5371 50.0265 16.5371ZM49.7361 14.9992C50.1334 14.9992 50.5002 14.8977 50.8364 14.6946C51.1828 14.4916 51.4579 14.2022 51.6616 13.8267C51.8756 13.4409 51.9826 13.0044 51.9826 12.5171C51.9826 12.0298 51.8756 11.5983 51.6616 11.2228C51.4579 10.837 51.1828 10.5426 50.8364 10.3395C50.5002 10.1365 50.1334 10.035 49.7361 10.035C49.3388 10.035 48.9669 10.1365 48.6206 10.3395C48.2844 10.5426 48.0093 10.8319 47.7954 11.2075C47.5916 11.5832 47.4897 12.0196 47.4897 12.5171C47.4897 13.0145 47.5916 13.451 47.7954 13.8267C48.0093 14.2022 48.2844 14.4916 48.6206 14.6946C48.9669 14.8977 49.3388 14.9992 49.7361 14.9992Z" fill="#5E5E5E"/>
<path d="M41.2617 16.5372C40.5179 16.5372 39.8456 16.3646 39.2445 16.0194C38.6536 15.6743 38.19 15.1971 37.8539 14.588C37.5177 13.9688 37.3496 13.2785 37.3496 12.5171C37.3496 11.7862 37.5075 11.1161 37.8233 10.507C38.1493 9.88784 38.6027 9.40056 39.1833 9.04525C39.7641 8.6798 40.4263 8.49707 41.17 8.49707C41.934 8.49707 42.5963 8.66457 43.1566 8.99958C43.7271 9.33458 44.1602 9.80156 44.4555 10.4005C44.751 10.9893 44.8987 11.6694 44.8987 12.441C44.8987 12.5324 44.8937 12.6237 44.8835 12.7151C44.8732 12.8064 44.8682 12.8572 44.8682 12.8673H39.0306C39.0814 13.5577 39.331 14.0907 39.7794 14.4662C40.2276 14.8419 40.737 15.0296 41.3076 15.0296C42.1836 15.0296 42.8561 14.6236 43.3247 13.8114L44.7611 14.4967C44.425 15.116 43.9564 15.6133 43.3553 15.989C42.7644 16.3545 42.0666 16.5372 41.2617 16.5372ZM43.1872 11.5883C43.1668 11.3446 43.0853 11.0959 42.9426 10.8421C42.8001 10.5883 42.5759 10.3751 42.2703 10.2025C41.9749 10.0198 41.603 9.92845 41.1547 9.92845C40.6555 9.92845 40.2226 10.0807 39.8558 10.3852C39.4992 10.6898 39.2547 11.0908 39.1223 11.5883H43.1872Z" fill="#5E5E5E"/>
<path d="M32.6846 8.74062H34.2738V9.86745H34.3655C34.5286 9.48169 34.824 9.16191 35.2519 8.90811C35.6798 8.64418 36.1178 8.51221 36.5661 8.51221C36.9328 8.51221 37.2334 8.56297 37.4677 8.66448V10.4157C37.1213 10.2431 36.7342 10.1568 36.3063 10.1568C35.7561 10.1568 35.2926 10.37 34.9156 10.7963C34.5489 11.2126 34.3655 11.7252 34.3655 12.3343V16.2934H32.6846V8.74062Z" fill="#5E5E5E"/>
<path d="M30.2851 7.46167C29.9693 7.46167 29.6994 7.35508 29.4751 7.14189C29.2612 6.91855 29.1543 6.64954 29.1543 6.33484C29.1543 6.02013 29.2612 5.75619 29.4751 5.54301C29.6994 5.31968 29.9693 5.20801 30.2851 5.20801C30.601 5.20801 30.8658 5.31968 31.0798 5.54301C31.3039 5.75619 31.416 6.02013 31.416 6.33484C31.416 6.64954 31.3039 6.91855 31.0798 7.14189C30.8658 7.35508 30.601 7.46167 30.2851 7.46167ZM29.4446 8.74078H31.1256V16.2936H29.4446V8.74078Z" fill="#5E5E5E"/>
<path d="M21.7881 5.39062H28.4356V7.01996H23.4996V10.1568H27.9465V11.7709H23.4996V16.2935H21.7881V5.39062Z" fill="#5E5E5E"/>
<path d="M5.2666 19.5773C6.10708 19.9143 7.01891 20.1143 7.97632 20.1476C9.27205 20.1927 10.5042 19.9258 11.6057 19.4187C10.2848 18.9016 9.08852 18.1454 8.06753 17.2051C7.40571 18.261 6.42684 19.095 5.2666 19.5773Z" fill="#FF9100"/>
<path d="M8.06754 17.2049C5.73693 15.0571 4.32308 11.9484 4.44257 8.53868C4.44646 8.42796 4.45232 8.3173 4.45917 8.20668C4.04177 8.09911 3.60601 8.03347 3.15756 8.01786C2.51565 7.99552 1.89402 8.07485 1.30714 8.23953C0.684993 9.32549 0.309549 10.5715 0.262778 11.9061C0.142071 15.3505 2.23387 18.36 5.26662 19.5771C6.42686 19.0948 7.40569 18.2618 8.06754 17.2049Z" fill="#FFC400"/>
<path d="M8.06753 17.2048C8.60939 16.3407 8.93793 15.3277 8.97617 14.2363C9.07679 11.3654 7.13989 8.8957 4.45917 8.20654C4.45231 8.31717 4.44644 8.42782 4.44257 8.53855C4.32307 11.9483 5.73692 15.057 8.06753 17.2048Z" fill="#FF9100"/>
<path d="M8.67648 0.136719C7.14971 1.35551 5.94409 2.9626 5.21466 4.81392C4.79705 5.87433 4.53463 7.01339 4.45801 8.20741C7.13874 8.89657 9.07563 11.3663 8.97502 14.2372C8.93677 15.3286 8.60727 16.3406 8.06638 17.2057C9.08733 18.1469 10.2837 18.9022 11.6046 19.4193C14.2559 18.1981 16.137 15.5703 16.246 12.4621C16.3165 10.4482 15.54 8.65341 14.4428 7.13842C13.2841 5.53617 8.67648 0.136719 8.67648 0.136719Z" fill="#DD2C00"/>
</g>
<defs>
<clipPath id="clip0_9625_2312">
<rect width="77" height="21" fill="white"/>
</clipPath>
</defs>
</svg>
