<svg xmlns="http://www.w3.org/2000/svg" width="20" height="20" fill="none"><g stroke="#1F1F1F" stroke-width="1.2" clip-path="url(#a)"><path d="M1.725 3.834c.667-2.883 5.009-2.883 5.667 0 .392 1.692-.683 3.125-1.617 4.017a1.78 1.78 0 0 1-2.441 0c-.925-.892-2-2.325-1.609-4.017ZM12.558 13.832c.667-2.883 5.034-2.883 5.7 0 .392 1.692-.683 3.125-1.625 4.017a1.79 1.79 0 0 1-2.45 0c-.941-.892-2.016-2.325-1.625-4.017Z"/><path stroke-linecap="round" stroke-linejoin="round" d="M10 4.168h2.234c1.541 0 2.258 1.908 1.1 2.925l-6.659 5.825c-1.158 1.008-.441 2.917 1.092 2.917H10M4.572 4.585h.01M15.405 14.585h.01"/></g><defs><clipPath id="a"><path fill="#fff" d="M0 0h20v20H0z"/></clipPath></defs></svg>