<svg xmlns="http://www.w3.org/2000/svg" width="64" height="28" fill="none"><ellipse cx="31.5" cy="26.5" fill="#D9D9D9" rx="31.5" ry="1.5"/><path fill="#476B9E" d="M44.369 20.164h-41.6v1.2h41.6z"/><path fill="#162E4C" d="M29.57 22.82H18.308a.636.636 0 0 1-.636-.636v-2.705c0-.352.285-.636.636-.636H29.57c.351 0 .636.284.636.636v2.705a.636.636 0 0 1-.636.636"/><path fill="#162E4C" d="M17.673 21.952h-.801a.735.735 0 0 1-.734-.734v-.754h.172v.754c0 .31.252.562.562.562h.801zM30.207 21.98v-.173c.245 0 .444-.2.444-.444v-.899h.173v.899c0 .34-.277.616-.617.616"/><path fill="#2F4A7F" d="M45.239 20.464H1.667a.66.66 0 0 1-.658-.658V.846c0-.364.294-.659.658-.659h43.572c.363 0 .658.295.658.658v18.961a.66.66 0 0 1-.658.658"/><path fill="#486C9E" d="M45.391 17.725H1.576v.172h43.815z"/><path fill="#486C9E" d="M1.66.754h-.172V17.81h.173zM2.812.754H2.64V17.81h.172zM3.966.754h-.172V17.81h.172zM5.119.754h-.173V17.81h.173zM6.271.754H6.1V17.81h.172zM7.426.754h-.172V17.81h.172zM8.579.754h-.173V17.81h.173zM9.731.754h-.172V17.81h.172zM10.884.754h-.172V17.81h.172zM12.037.754h-.173V17.81h.173zM13.191.754h-.172V17.81h.172zM14.344.754h-.172V17.81h.172zM15.496.754h-.173V17.81h.172zM16.65.754h-.172V17.81h.172zM17.802.754h-.172V17.81h.172zM18.955.754h-.172V17.81h.172zM20.108.754h-.172V17.81h.172zM21.261.754h-.172V17.81h.172zM22.415.754h-.173V17.81h.173zM23.568.754h-.172V17.81h.172zM24.72.754h-.173V17.81h.172zM25.874.754H25.7V17.81h.172zM27.028.754h-.172V17.81h.172zM28.178.754h-.172V17.81h.172zM29.333.754h-.172V17.81h.172zM30.485.754h-.172V17.81h.172zM31.64.754h-.173V17.81h.172zM32.791.754h-.172V17.81h.172zM33.944.754h-.172V17.81h.172zM35.098.754h-.172V17.81h.172zM36.251.754h-.172V17.81h.172zM37.404.754h-.172V17.81h.172zM38.557.754h-.172V17.81h.172zM39.708.754h-.172V17.81h.172zM40.863.754h-.172V17.81h.172zM42.016.754h-.172V17.81h.172zM43.168.754h-.172V17.81h.172zM44.322.754h-.172V17.81h.172zM45.475.754h-.172V17.81h.172z"/><path fill="#486C9E" d="M44.245.668H2.715V.84h41.53zM44.245 19.862H2.715v.172h41.53zM1.66 1.896H1.49v16.912h.172zM45.475 1.896h-.172v16.912h.172z"/><path fill="#EFAC37" d="M.909.654v1.242h.667V.844c0-.05.041-.09.09-.09H2.72V.086H1.476A.57.57 0 0 0 .91.654"/><path fill="#EEAC42" d="M1.663 1.982h-.84V.654c0-.36.293-.654.653-.654h1.329v.84H1.667zM.995 1.81h.495V.845c0-.098.08-.177.177-.177h.966V.172H1.476a.48.48 0 0 0-.482.482z"/><path fill="#EFAC37" d="M45.49.086h-1.242v.668H45.3c.05 0 .09.04.09.09v1.053h.668V.654a.57.57 0 0 0-.567-.568"/><path fill="#EEAC42" d="M46.144 1.982h-.84V.845L44.162.84V0h1.329c.36 0 .653.293.653.654zm-.668-.172h.496V.654a.48.48 0 0 0-.481-.482h-1.157v.496h.966c.097 0 .176.08.176.176z"/><path fill="#EFAC37" d="M1.576 19.86V18.81H.908v1.242c0 .313.255.568.568.568h1.243v-.668H1.667a.09.09 0 0 1-.09-.09"/><path fill="#EEAC42" d="M2.804 20.705h-1.33a.654.654 0 0 1-.653-.654v-1.329h.84v1.138q.001.005.005.005h1.138zm-1.81-1.81v1.156c0 .266.216.482.481.482h1.157v-.496h-.966a.177.177 0 0 1-.176-.177v-.966z"/><path fill="#EFAC37" d="M45.39 19.86c0 .05-.04.09-.09.09h-1.052v.669h1.243a.57.57 0 0 0 .567-.568v-1.243h-.668z"/><path fill="#EEAC42" d="M45.49 20.705h-1.328v-.84l1.142-.005v-1.138h.84v1.329c0 .36-.293.654-.653.654m-1.156-.172h1.157a.48.48 0 0 0 .481-.482v-1.156h-.496v.965c0 .098-.079.177-.176.177h-.966z"/><path fill="#E8615B" d="M3.112 19.286H1.904v.323h1.208zM4.493 19.286H3.285v.323h1.208z"/><path fill="#fff" d="M3.285 19.286h-.173v.323h.173z"/><path fill="#E8615B" d="M13.248 19.286H12.04v.323h1.208zM14.629 19.286H13.42v.323h1.208z"/><path fill="#fff" d="M13.422 19.286h-.173v.323h.173z"/><path fill="#E8615B" d="M23.384 19.286h-1.208v.323h1.208zM24.766 19.286h-1.208v.323h1.208z"/><path fill="#fff" d="M23.557 19.286h-.172v.323h.172z"/><path fill="#E8615B" d="M33.517 19.286h-1.208v.323h1.208zM34.898 19.286H33.69v.323h1.208z"/><path fill="#fff" d="M33.69 19.286h-.172v.323h.172z"/><path fill="#E8615B" d="M43.649 19.286H42.44v.323h1.208zM45.028 19.286H43.82v.323h1.208z"/><path fill="#fff" d="M43.822 19.286h-.172v.323h.172zM60.505 10.362h-5.98a.673.673 0 0 0-.673.673v3.054c0 .372.302.673.674.673h3.969c.178 0 .35.071.476.198l.396.395a.67.67 0 0 0 .476.198h1.58a.674.674 0 0 0 .655-.83l-.918-3.844a.674.674 0 0 0-.655-.517"/><path fill="#D9EBFF" d="m55.837 9.733 2.714 6.06h2.012l-2.714-6.06zM59.476 9.733h-.54l2.714 6.06h.54z"/><path fill="#EFAC37" d="m62.902 14.287-1.325-5.048c-.315-1.185-1.168-1.688-2.461-1.733l-11.199-.39a.65.65 0 0 0-.674.652V24.2h15.411v-5.698h.35V15.08q0-.404-.102-.794m-1.478 1.266h-1.58a.67.67 0 0 1-.477-.198l-.395-.395a.67.67 0 0 0-.477-.198h-3.969a.673.673 0 0 1-.673-.673v-3.054c0-.372.301-.673.673-.673h5.98c.312 0 .583.214.655.517l.918 3.844a.674.674 0 0 1-.655.83"/><path fill="#162E4C" d="M47.244 8.551h-1.347v10.504h1.347z"/><path fill="#CE7602" d="M61.425 16.02h-1.58c-.305 0-.592-.118-.807-.333l-.396-.396a.2.2 0 0 0-.146-.06h-3.969c-.63 0-1.141-.513-1.141-1.142v-3.054c0-.629.512-1.141 1.141-1.141h5.98c.53 0 .986.36 1.11.876l.917 3.844c.082.342.004.697-.214.972a1.13 1.13 0 0 1-.895.435m-6.898-5.954a.97.97 0 0 0-.969.97v3.053a.97.97 0 0 0 .97.97h3.968c.101 0 .196.039.267.11l.396.396a.96.96 0 0 0 .686.284h1.58a.96.96 0 0 0 .76-.369.96.96 0 0 0 .182-.825l-.917-3.844a.966.966 0 0 0-.943-.744z"/><path fill="#162E4C" d="M56.146 10.362h-.615v4.4h.615z"/><path fill="#EFAC37" d="M48.986 7.154v-.602c0-.217.176-.393.393-.393h7.29c.722 0 1.307.585 1.307 1.307z"/><path fill="#CE7602" d="m48.991 7.068-.006.172 8.99.314.006-.173z"/><path fill="#162E4C" d="M62.812 24.201h-3.678v-3.834h3.678c.15 0 .273.122.273.273v3.288a.274.274 0 0 1-.273.273"/><path fill="#CE7602" d="M62.655 18.417H58.07v.172h4.585zM48.004 7.116h-.172v17.086h.172z"/><path fill="#fff" d="M62.342 19.877a.113.113 0 0 1-.113-.112v-.597a.113.113 0 0 1 .226 0v.597c0 .062-.051.112-.113.112"/><path fill="#CE7602" d="M50.833 6.333h-1.065v.172h1.065zM50.833 6.586h-1.065v.172h1.065zM50.833 6.838h-1.065v.173h1.065zM52.839 11.533h-4.921v.172h4.921zM52.839 13.42h-4.921v.171h4.921zM61.636 9.378H47.918v.172h13.718zM52.363 18.568h-3.13a.563.563 0 0 1-.563-.563v-1.609c0-.31.252-.562.562-.562h3.131c.31 0 .563.252.563.562v1.61c0 .31-.253.562-.563.562m-3.13-2.562a.39.39 0 0 0-.39.39v1.61c0 .214.174.39.39.39h3.13a.39.39 0 0 0 .39-.39v-1.61a.39.39 0 0 0-.39-.39z"/><path fill="#CE7602" d="M49.18 18.339a.278.278 0 1 1 .001-.557.278.278 0 0 1 0 .557m0-.384a.106.106 0 1 0 0 .212.106.106 0 0 0 0-.212"/><path fill="#162E4C" d="M56.866 18.235h-.179a.116.116 0 0 1-.115-.116v-.534c0-.064.051-.116.115-.116h.179c.064 0 .116.052.116.116v.534a.116.116 0 0 1-.116.116"/><path fill="#CE7602" d="M56.886 18.59h-.22a.417.417 0 0 1-.416-.417v-.642c0-.23.187-.416.416-.416h.22c.23 0 .416.186.416.416v.642c0 .23-.186.416-.416.416m-.22-1.303a.244.244 0 0 0-.244.244v.642c0 .135.11.244.244.244h.22c.135 0 .244-.11.244-.244v-.642a.244.244 0 0 0-.244-.244zM56.624 24.201q.084-.348.085-.722a3.133 3.133 0 1 0-6.182.722z"/><path fill="#CE7602" d="m57.312 24.22-.168-.036q.076-.368.077-.74a3.65 3.65 0 0 0-3.644-3.644 3.648 3.648 0 0 0-3.57 4.372l-.169.034a3.82 3.82 0 0 1 3.738-4.578 3.82 3.82 0 0 1 3.736 4.591"/><path fill="#CE7602" d="M55.925 15.144h-.172v5.334h.172z"/><path fill="#162E4C" d="M55.512 25.481a2.74 2.74 0 1 0-3.876-3.876 2.74 2.74 0 0 0 3.876 3.876"/><path fill="#162E4C" d="M53.577 26.364h-.009q-.116 0-.237-.01l.014-.16q.115.01.229.01zm.246-.011-.014-.159q.116-.01.23-.03l.028.157q-.121.021-.244.032m-.735-.031a3 3 0 0 1-.24-.053l.04-.154q.111.03.227.05zm1.218-.054-.04-.154a3 3 0 0 0 .22-.07l.055.15a3 3 0 0 1-.234.074m-1.693-.072a3 3 0 0 1-.228-.094l.067-.145q.105.05.215.089zm2.155-.097-.068-.144q.106-.05.206-.107l.08.137q-.106.062-.218.114m-2.601-.11q-.106-.063-.208-.133l.092-.13q.095.066.195.124zm3.026-.136-.091-.13q.094-.067.183-.142l.103.122a3 3 0 0 1-.195.15m-3.429-.146a3 3 0 0 1-.181-.166l.112-.113q.082.082.172.156zm3.805-.17-.113-.113q.082-.082.157-.171l.122.102a3 3 0 0 1-.166.182m-4.153-.177a3 3 0 0 1-.15-.195l.13-.092q.067.095.142.184zm4.469-.2-.13-.091q.066-.096.124-.196l.138.08q-.06.106-.132.207m-4.751-.202a3 3 0 0 1-.114-.218l.144-.067q.049.104.107.205zm4.997-.223-.145-.067a3 3 0 0 0 .09-.215l.149.055a3 3 0 0 1-.094.227m-5.206-.222a3 3 0 0 1-.075-.234l.154-.042q.03.113.07.221zm5.374-.24-.154-.041q.03-.112.05-.227l.157.028q-.021.12-.053.24m-5.502-.234a3 3 0 0 1-.032-.244l.158-.014q.01.116.03.23zm5.587-.25-.159-.014q.01-.115.01-.231v-.012h.16v.01q0 .124-.011.247m-5.63-.24v-.009q0-.117.01-.236l.159.013q-.01.112-.01.227zm5.47-.249a3 3 0 0 0-.031-.23l.157-.028q.021.12.033.244zm-5.272-.213-.157-.027q.022-.122.052-.24l.155.04q-.03.112-.05.227m5.19-.243a3 3 0 0 0-.07-.221l.149-.055q.042.115.075.234zm-5.071-.205-.15-.054q.042-.117.093-.227l.145.066q-.05.106-.088.215m4.91-.23a3 3 0 0 0-.107-.205l.137-.08q.063.105.115.217zm-4.715-.19-.138-.08q.06-.106.132-.207l.13.09q-.066.096-.124.197m4.482-.21a3 3 0 0 0-.142-.184l.122-.103q.08.094.15.195zm-4.217-.171-.122-.102q.08-.095.166-.182l.113.113a3 3 0 0 0-.157.171m3.918-.183a3 3 0 0 0-.172-.156l.102-.123q.095.079.182.166zm-3.591-.146-.103-.121q.095-.08.195-.15l.092.13a3 3 0 0 0-.184.141m3.235-.151a3 3 0 0 0-.197-.124l.08-.138q.106.061.208.131zm-2.856-.116-.08-.138q.106-.061.218-.114l.067.144q-.106.05-.205.108m2.453-.115a3 3 0 0 0-.214-.088l.053-.15q.115.042.228.094zm-2.034-.082-.055-.15q.116-.042.235-.074l.041.153q-.111.03-.22.07m1.598-.075a3 3 0 0 0-.226-.049l.026-.157q.121.02.24.052zm-1.15-.046-.028-.157a3 3 0 0 1 .243-.032l.014.158a3 3 0 0 0-.23.03m.693-.032a3 3 0 0 0-.223-.01h-.009v-.159h.009q.119 0 .236.01z"/><path fill="#fff" d="M53.573 24.71a1.166 1.166 0 1 0 0-2.333 1.166 1.166 0 0 0 0 2.333"/><path fill="#486C9E" d="M53.573 24.683c-.628 0-1.14-.511-1.14-1.14s.512-1.14 1.14-1.14a1.141 1.141 0 0 1 0 2.28m0-2.107a.969.969 0 0 0 0 1.935.969.969 0 0 0 0-1.935"/><path fill="#486C9E" d="M53.574 26.205a2.665 2.665 0 0 1-2.662-2.662 2.665 2.665 0 0 1 2.662-2.661 2.665 2.665 0 0 1 2.661 2.661 2.665 2.665 0 0 1-2.661 2.662m0-5.151a2.49 2.49 0 0 0-2.49 2.49 2.49 2.49 0 0 0 2.49 2.489 2.49 2.49 0 0 0 2.49-2.49 2.49 2.49 0 0 0-2.49-2.49"/><path fill="#162E4C" d="M53.895 23.544a.321.321 0 1 1-.642 0 .321.321 0 0 1 .642 0"/><path fill="#476B9E" d="M53.574 22.992a.15.15 0 1 0 0-.3.15.15 0 0 0 0 .3M53.574 24.395a.15.15 0 1 0 0-.3.15.15 0 0 0 0 .3M54.274 23.693a.15.15 0 1 1 0-.299.15.15 0 0 1 0 .3M52.873 23.693a.15.15 0 1 1 0-.299.15.15 0 0 1 0 .3M54.069 23.197a.15.15 0 1 0 0-.299.15.15 0 0 0 0 .3M53.183 24.145a.15.15 0 1 1-.212-.212.15.15 0 1 1 .212.212M53.963 24.145a.15.15 0 1 1 .21-.211.15.15 0 0 1-.21.211M52.971 23.154a.15.15 0 1 1 .212-.212.15.15 0 0 1-.212.212"/><path fill="#162E4C" d="M62.059 13.245a.143.143 0 0 1-.143-.143v-2.327c0-.079.064-.143.143-.143h.03c.255 0 .462.207.462.463v1.658c0 .272-.22.492-.492.492"/><path fill="#162E4C" d="M62.185 10.728h-.173v-.276a.386.386 0 0 0-.385-.385h-.393v-.172h.393c.308 0 .558.25.558.557z"/><path fill="#162E4C" d="M61.319 10.054h-.076a.06.06 0 0 1-.06-.061v-.025a.06.06 0 0 1 .06-.061h.076a.06.06 0 0 1 .06.06v.026a.06.06 0 0 1-.06.06M13.999 25.48a2.74 2.74 0 1 0-3.876-3.875 2.74 2.74 0 0 0 3.876 3.876"/><path fill="#162E4C" d="M12.064 26.363h-.009q-.117 0-.237-.01l.014-.159q.113.01.229.01zm.245-.01-.013-.16a3 3 0 0 0 .23-.03l.027.157q-.12.023-.244.033m-.734-.031a3 3 0 0 1-.24-.053l.04-.154q.111.03.227.05zm1.219-.055-.042-.154q.114-.03.221-.07l.055.15a3 3 0 0 1-.235.074m-1.694-.072a3 3 0 0 1-.228-.094l.067-.144q.105.048.215.089zm2.155-.096-.068-.144q.106-.05.206-.108l.08.138q-.106.062-.218.114m-2.601-.111q-.106-.06-.208-.132l.091-.13q.096.065.196.124zm3.026-.135-.092-.13q.096-.067.184-.142l.103.122a3 3 0 0 1-.195.15m-3.429-.147a3 3 0 0 1-.181-.166l.112-.112q.082.082.171.156zm3.805-.17-.113-.112q.081-.082.157-.171l.122.102a3 3 0 0 1-.166.182m-4.153-.177a3 3 0 0 1-.15-.194l.13-.092q.067.095.142.184zm4.469-.199-.13-.091a3 3 0 0 0 .124-.196l.138.08q-.06.106-.132.207m-4.752-.202a3 3 0 0 1-.114-.218l.145-.068q.048.105.107.206zm4.998-.223-.145-.068q.05-.105.09-.214l.149.054a3 3 0 0 1-.094.228m-5.206-.222a3 3 0 0 1-.075-.235l.154-.041q.03.113.07.221zm5.374-.24-.154-.041q.03-.113.05-.227l.157.028q-.021.12-.053.24m-5.502-.235a3 3 0 0 1-.032-.243l.158-.014q.01.116.03.23zm5.586-.25-.158-.013q.01-.116.01-.232v-.011h.159v.01q0 .124-.01.247m-5.63-.24v-.008q0-.117.01-.236l.16.013q-.01.112-.01.226zm5.47-.248a3 3 0 0 0-.03-.23l.157-.028q.021.12.033.243zm-5.271-.213-.157-.027q.02-.122.052-.24l.154.04a3 3 0 0 0-.05.227m5.19-.243a3 3 0 0 0-.07-.221l.149-.055q.042.115.075.234zm-5.072-.205-.15-.054q.043-.116.094-.228l.145.067q-.049.106-.089.215m4.912-.23a3 3 0 0 0-.108-.205l.137-.08q.063.106.115.217zm-4.716-.19-.138-.08q.06-.105.132-.208l.13.091q-.066.096-.124.196m4.482-.21a3 3 0 0 0-.142-.184l.122-.103q.08.095.15.194zm-4.217-.171-.122-.102q.079-.095.166-.182l.113.113a3 3 0 0 0-.157.17m3.918-.183a3 3 0 0 0-.172-.157l.102-.122q.095.079.182.165zm-3.591-.146-.103-.122q.095-.08.195-.15l.092.13a3 3 0 0 0-.184.142m3.234-.151a3 3 0 0 0-.196-.124l.08-.139q.106.062.207.132zm-2.855-.116-.08-.138q.106-.061.217-.114l.068.144q-.105.05-.205.108m2.453-.115a3 3 0 0 0-.215-.088l.055-.15q.114.041.227.093zm-2.034-.082-.055-.15q.116-.042.235-.075l.041.154q-.112.03-.22.07m1.598-.075a3 3 0 0 0-.227-.05l.027-.156q.122.02.24.052zm-1.15-.046-.028-.157q.12-.022.243-.033l.014.159a3 3 0 0 0-.23.03m.693-.032a3 3 0 0 0-.223-.01h-.009v-.16h.009q.119 0 .236.01z"/><path fill="#fff" d="M12.062 24.71a1.166 1.166 0 1 0 0-2.333 1.166 1.166 0 0 0 0 2.332"/><path fill="#486C9E" d="M12.062 24.683c-.628 0-1.14-.511-1.14-1.14s.512-1.14 1.14-1.14a1.141 1.141 0 0 1 0 2.28m0-2.107a.969.969 0 0 0 0 1.935.969.969 0 0 0 0-1.935"/><path fill="#486C9E" d="M12.062 26.205A2.665 2.665 0 0 1 9.4 23.543a2.665 2.665 0 0 1 2.662-2.662 2.665 2.665 0 0 1 2.661 2.662 2.665 2.665 0 0 1-2.661 2.662m0-5.152a2.49 2.49 0 0 0-2.49 2.49 2.49 2.49 0 0 0 2.49 2.49 2.49 2.49 0 0 0 2.49-2.49 2.49 2.49 0 0 0-2.49-2.49"/><path fill="#162E4C" d="M12.062 23.865a.321.321 0 1 0 0-.643.321.321 0 0 0 0 .642"/><path fill="#476B9E" d="M12.061 22.992a.15.15 0 1 0 0-.3.15.15 0 0 0 0 .3M12.061 24.394a.15.15 0 1 0 0-.3.15.15 0 0 0 0 .3M12.76 23.693a.15.15 0 1 0 0-.3.15.15 0 0 0 0 .3M11.359 23.693a.15.15 0 1 0 0-.3.15.15 0 0 0 0 .3M12.557 23.197a.15.15 0 1 0 0-.299.15.15 0 0 0 0 .3M11.672 24.145a.15.15 0 1 1-.212-.212.15.15 0 0 1 .212.212M12.451 24.145a.15.15 0 1 1 .212-.212.15.15 0 0 1-.212.212M11.46 23.153a.15.15 0 1 1 .211-.211.15.15 0 0 1-.21.211"/><path fill="#162E4C" d="M8.58 24.17a2.74 2.74 0 1 0-5.337-1.252 2.74 2.74 0 0 0 5.336 1.251"/><path fill="#162E4C" d="M5.914 26.363h-.008q-.117 0-.237-.01l.013-.159q.114.01.23.01zm.246-.01-.014-.16q.116-.009.23-.03l.028.157q-.121.023-.244.033m-.735-.031a3 3 0 0 1-.24-.053l.04-.154q.113.03.227.05zm1.219-.055-.041-.154q.112-.03.22-.07l.055.15a3 3 0 0 1-.234.074m-1.694-.072a3 3 0 0 1-.227-.094l.067-.144q.106.048.214.089zm2.155-.096-.067-.144q.106-.05.205-.108l.08.138q-.106.062-.218.114m-2.6-.111q-.108-.06-.208-.132l.091-.13q.095.065.196.124zm3.025-.135-.091-.13a3 3 0 0 0 .184-.142l.102.122a3 3 0 0 1-.195.15m-3.428-.147a3 3 0 0 1-.182-.166l.113-.112q.082.082.17.156zm3.804-.17-.112-.112q.082-.082.157-.171l.122.102a3 3 0 0 1-.167.182m-4.152-.177a3 3 0 0 1-.15-.194l.13-.092q.066.095.141.184zm4.468-.199-.13-.091a3 3 0 0 0 .125-.196l.138.08q-.062.106-.133.207m-4.751-.202a3 3 0 0 1-.114-.218l.144-.068q.05.105.108.206zm4.997-.223-.144-.068q.049-.105.089-.214l.15.054q-.042.115-.095.228m-5.206-.222a3 3 0 0 1-.074-.235l.154-.041q.03.113.07.221zm5.374-.24-.154-.041q.03-.113.05-.227l.157.028q-.021.12-.053.24m-5.501-.235a3 3 0 0 1-.033-.243l.159-.014q.01.116.03.23zm5.586-.25-.159-.013q.01-.116.01-.232v-.011h.16v.01q0 .124-.011.247m-5.63-.24v-.008q0-.117.01-.236l.159.013q-.01.112-.01.226zm5.47-.248a3 3 0 0 0-.03-.23l.156-.028q.023.12.033.243zm-5.272-.213-.157-.027q.021-.122.053-.24l.154.04q-.03.111-.05.227m5.19-.243a3 3 0 0 0-.07-.221l.15-.055q.042.115.074.234zm-5.071-.205-.15-.054q.042-.116.094-.228l.144.067q-.048.106-.088.215m4.911-.23a3 3 0 0 0-.108-.205l.138-.08q.062.106.114.217zm-4.716-.19-.138-.08q.06-.105.132-.208l.13.091q-.066.096-.124.196m4.483-.21a3 3 0 0 0-.142-.184l.121-.103q.08.095.15.194zm-4.217-.171-.123-.102q.08-.095.166-.182l.113.113a3 3 0 0 0-.156.17m3.917-.183a3 3 0 0 0-.172-.157l.102-.122q.095.079.182.165zm-3.59-.146-.103-.122q.094-.08.194-.15l.092.13a3 3 0 0 0-.183.142m3.234-.151a3 3 0 0 0-.196-.124l.08-.139q.106.062.207.132zm-2.856-.116-.08-.138q.106-.061.218-.114l.068.144q-.106.05-.206.108m2.454-.115a3 3 0 0 0-.215-.088l.054-.15q.115.041.228.093zm-2.034-.082-.055-.15a3 3 0 0 1 .234-.075l.042.154q-.114.03-.221.07m1.597-.075a3 3 0 0 0-.226-.05l.027-.156q.12.02.24.052zm-1.15-.046-.028-.157a3 3 0 0 1 .244-.033l.014.159a3 3 0 0 0-.23.03m.694-.032a3 3 0 0 0-.224-.01h-.008v-.16h.008q.12 0 .237.01z"/><path fill="#fff" d="M5.914 24.71a1.166 1.166 0 1 0 0-2.333 1.166 1.166 0 0 0 0 2.332"/><path fill="#486C9E" d="M5.913 24.683c-.629 0-1.14-.511-1.14-1.14s.511-1.14 1.14-1.14 1.14.512 1.14 1.14c0 .629-.512 1.14-1.14 1.14m0-2.107a.969.969 0 0 0 0 1.935.969.969 0 0 0 0-1.935"/><path fill="#486C9E" d="M5.912 26.205a2.665 2.665 0 0 1-2.662-2.662 2.665 2.665 0 0 1 2.662-2.662 2.665 2.665 0 0 1 2.662 2.662 2.665 2.665 0 0 1-2.662 2.662m0-5.152a2.49 2.49 0 0 0-2.49 2.49 2.49 2.49 0 0 0 2.49 2.49 2.49 2.49 0 0 0 2.49-2.49 2.49 2.49 0 0 0-2.49-2.49"/><path fill="#162E4C" d="M6.234 23.543a.321.321 0 1 1-.643 0 .321.321 0 0 1 .643 0"/><path fill="#476B9E" d="M5.913 22.992a.15.15 0 1 0 0-.3.15.15 0 0 0 0 .3M5.913 24.394a.15.15 0 1 0 0-.3.15.15 0 0 0 0 .3M6.613 23.693a.15.15 0 1 0 0-.3.15.15 0 0 0 0 .3M5.212 23.693a.15.15 0 1 0 0-.3.15.15 0 0 0 0 .3M6.514 23.153a.15.15 0 1 1-.212-.211.15.15 0 0 1 .212.211M5.522 24.144a.15.15 0 1 1-.211-.211.15.15 0 1 1 .211.211M6.302 24.144a.15.15 0 1 1 .211-.211.15.15 0 0 1-.211.211M5.31 23.153a.15.15 0 1 1 .212-.211.15.15 0 0 1-.211.211"/><path fill="#162E4C" d="M15.144 23.484h-.173a2.86 2.86 0 0 0-2.857-2.857H5.828a2.86 2.86 0 0 0-2.857 2.857h-.173c0-1.67 1.36-3.03 3.03-3.03h6.286c1.67 0 3.03 1.36 3.03 3.03M43.237 25.48a2.74 2.74 0 1 0-3.877-3.875 2.74 2.74 0 0 0 3.877 3.876"/><path fill="#162E4C" d="M41.302 26.363h-.009q-.116 0-.237-.01l.014-.159q.114.01.229.01zm.245-.01-.013-.16q.116-.009.23-.03l.027.157q-.12.023-.243.033m-.734-.031a3 3 0 0 1-.24-.053l.04-.154q.111.03.227.05zm1.218-.055-.041-.154q.113-.03.221-.07l.055.15a3 3 0 0 1-.235.074m-1.693-.072a3 3 0 0 1-.228-.094l.067-.144q.105.048.215.089zm2.155-.096-.068-.144q.106-.05.206-.108l.08.138q-.106.062-.218.114m-2.601-.111q-.106-.06-.208-.132l.092-.13q.094.065.195.124zm3.026-.135-.092-.13q.095-.067.184-.142l.103.122a3 3 0 0 1-.195.15m-3.429-.147a3 3 0 0 1-.182-.166l.113-.112q.082.082.171.156zm3.805-.17-.113-.112q.082-.082.157-.171l.122.102a3 3 0 0 1-.166.182m-4.153-.177a3 3 0 0 1-.15-.194l.13-.092q.066.095.142.184zm4.469-.199-.13-.091a3 3 0 0 0 .124-.196l.138.08q-.06.106-.132.207m-4.751-.202a3 3 0 0 1-.115-.218l.145-.068q.048.105.107.206zm4.997-.223-.145-.068a3 3 0 0 0 .09-.214l.149.054q-.042.115-.094.228m-5.206-.222a3 3 0 0 1-.075-.235l.154-.041q.03.113.07.221zm5.374-.24-.154-.041q.03-.113.05-.227l.157.028q-.021.12-.053.24m-5.502-.235a3 3 0 0 1-.032-.243l.158-.014q.01.116.03.23zm5.587-.25-.16-.013q.01-.116.01-.232v-.011h.16v.01q0 .124-.01.247m-5.63-.24v-.008q0-.117.01-.236l.158.013q-.009.112-.009.226zm5.47-.248a3 3 0 0 0-.031-.23l.157-.028q.021.12.032.243zm-5.272-.213-.157-.027q.02-.122.052-.24l.154.04q-.03.111-.05.227m5.19-.243a3 3 0 0 0-.07-.221l.149-.055q.042.115.075.234zm-5.072-.205-.15-.054a3 3 0 0 1 .094-.228l.145.067q-.049.106-.089.215m4.912-.23a3 3 0 0 0-.108-.205l.137-.08q.062.106.115.217zm-4.716-.19-.139-.08q.062-.105.132-.208l.131.091q-.066.096-.124.196m4.482-.21a3 3 0 0 0-.142-.184l.121-.103q.08.095.151.194zm-4.217-.171-.122-.102q.078-.095.166-.182l.113.113a3 3 0 0 0-.157.17m3.918-.183a3 3 0 0 0-.172-.157l.102-.122q.095.079.182.165zm-3.591-.146-.103-.122q.094-.08.195-.15l.092.13a3 3 0 0 0-.184.142m3.234-.151a3 3 0 0 0-.196-.124l.08-.139q.106.062.207.132zm-2.855-.116-.08-.138q.106-.061.217-.114l.068.144q-.106.05-.205.108m2.453-.115a3 3 0 0 0-.215-.088l.054-.15q.115.041.228.093zm-2.034-.082-.055-.15q.116-.042.235-.075l.041.154q-.111.03-.22.07m1.598-.075a3 3 0 0 0-.227-.05l.027-.156q.121.02.24.052zm-1.15-.046-.029-.157q.121-.022.244-.033l.014.159a3 3 0 0 0-.23.03m.693-.032a3 3 0 0 0-.223-.01h-.01v-.16h.01q.118 0 .236.01z"/><path fill="#fff" d="M41.3 24.71a1.166 1.166 0 1 0 0-2.333 1.166 1.166 0 0 0 0 2.332"/><path fill="#486C9E" d="M41.298 24.683c-.628 0-1.14-.511-1.14-1.14s.512-1.14 1.14-1.14 1.14.512 1.14 1.14c0 .629-.512 1.14-1.14 1.14m0-2.107a.969.969 0 0 0 0 1.935.969.969 0 0 0 0-1.935"/><path fill="#486C9E" d="M41.299 26.205a2.665 2.665 0 0 1-2.662-2.662 2.665 2.665 0 0 1 2.661-2.662 2.665 2.665 0 0 1 2.662 2.662 2.665 2.665 0 0 1-2.662 2.662m0-5.151a2.49 2.49 0 0 0-2.49 2.49 2.49 2.49 0 0 0 2.49 2.489 2.49 2.49 0 0 0 2.49-2.49 2.493 2.493 0 0 0-2.49-2.49"/><path fill="#162E4C" d="M41.62 23.543a.321.321 0 1 1-.642 0 .321.321 0 0 1 .642 0"/><path fill="#476B9E" d="M41.301 22.992a.15.15 0 1 0 0-.3.15.15 0 0 0 0 .3M41.301 24.394a.15.15 0 1 0 0-.3.15.15 0 0 0 0 .3M41.996 23.693a.15.15 0 1 1 0-.3.15.15 0 0 1 0 .3M40.596 23.693a.15.15 0 1 1 0-.3.15.15 0 0 1 0 .3M41.794 23.197a.15.15 0 1 0 0-.3.15.15 0 0 0 0 .3M40.909 24.145a.15.15 0 1 1-.212-.212.15.15 0 0 1 .212.212M41.689 24.145a.15.15 0 1 1 .21-.212.15.15 0 0 1-.21.212M40.697 23.153a.15.15 0 1 1 .212-.211.15.15 0 0 1-.212.211"/><path fill="#162E4C" d="M37.818 24.17a2.74 2.74 0 1 0-5.337-1.251 2.74 2.74 0 0 0 5.337 1.25"/><path fill="#162E4C" d="M35.152 26.363h-.008q-.117 0-.237-.01l.013-.159q.114.01.23.01zm.246-.01-.014-.16q.116-.009.23-.03l.028.157a3 3 0 0 1-.244.033m-.735-.031a3 3 0 0 1-.24-.053l.04-.154q.113.03.227.05zm1.219-.055-.041-.154q.111-.03.22-.07l.055.15a3 3 0 0 1-.234.074m-1.694-.072a3 3 0 0 1-.227-.094l.067-.144q.105.048.214.089zm2.155-.096-.067-.144q.105-.05.205-.108l.08.138q-.106.062-.218.114m-2.6-.111q-.108-.06-.208-.132l.091-.13q.095.065.196.124zm3.025-.135-.091-.13q.095-.067.184-.142l.102.122a3 3 0 0 1-.195.15m-3.428-.147a3 3 0 0 1-.182-.166l.112-.112q.083.082.172.156zm3.804-.17-.112-.112q.081-.082.157-.171l.122.102a3 3 0 0 1-.167.182m-4.152-.177a3 3 0 0 1-.15-.194l.13-.092q.066.095.141.184zm4.468-.199-.13-.091q.066-.096.125-.196l.138.08q-.062.106-.133.207m-4.751-.202a3 3 0 0 1-.114-.218l.144-.068q.05.105.108.206zm4.997-.223-.144-.068q.05-.105.089-.214l.15.054a3 3 0 0 1-.095.228m-5.206-.222a3 3 0 0 1-.074-.235l.154-.041q.03.113.07.221zm5.374-.24-.154-.041q.03-.113.05-.227l.157.028q-.021.12-.053.24m-5.502-.235a3 3 0 0 1-.032-.243l.159-.014q.01.116.03.23zm5.587-.25-.159-.013q.01-.116.01-.232v-.011h.16v.01q0 .124-.011.247m-5.63-.24v-.008q0-.117.01-.236l.159.013q-.01.112-.01.226zm5.47-.248a3 3 0 0 0-.03-.23l.156-.028q.023.12.033.243zm-5.272-.213-.157-.027q.021-.122.053-.24l.154.04q-.03.111-.05.227m5.19-.243a3 3 0 0 0-.07-.221l.15-.055q.042.115.074.234zm-5.071-.205-.15-.054a3 3 0 0 1 .094-.228l.144.067q-.048.106-.088.215m4.911-.23a3 3 0 0 0-.108-.205l.138-.08q.062.106.114.217zm-4.716-.19-.138-.08q.06-.105.132-.208l.13.091q-.066.096-.124.196m4.483-.21a3 3 0 0 0-.143-.184l.122-.103q.08.095.15.194zm-4.217-.171-.123-.102q.08-.095.166-.182l.113.113a3 3 0 0 0-.156.17m3.917-.183a3 3 0 0 0-.172-.157l.103-.122q.093.079.181.165zm-3.59-.146-.103-.122q.094-.08.194-.15l.092.13a3 3 0 0 0-.184.142m3.234-.151a3 3 0 0 0-.196-.124l.08-.139q.106.062.207.132zm-2.856-.116-.08-.138q.106-.061.218-.114l.068.144q-.106.05-.206.108m2.454-.115a3 3 0 0 0-.215-.088l.054-.15q.115.041.228.093zm-2.034-.082-.055-.15q.115-.042.234-.075l.042.154q-.114.03-.221.07m1.598-.075a3 3 0 0 0-.227-.05l.027-.156q.12.02.24.052zm-1.151-.046-.028-.157q.12-.022.243-.033l.015.159a3 3 0 0 0-.23.03m.694-.032a3 3 0 0 0-.224-.01h-.008v-.16h.008q.12 0 .237.01z"/><path fill="#fff" d="M35.15 24.71a1.166 1.166 0 1 0 0-2.333 1.166 1.166 0 0 0 0 2.333"/><path fill="#486C9E" d="M35.15 24.683a1.141 1.141 0 0 1 0-2.28 1.141 1.141 0 0 1 0 2.28m0-2.107a.969.969 0 0 0 0 1.935.969.969 0 0 0 0-1.935"/><path fill="#486C9E" d="M35.15 26.205a2.665 2.665 0 0 1-2.662-2.662 2.665 2.665 0 0 1 2.662-2.662 2.665 2.665 0 0 1 2.662 2.662 2.665 2.665 0 0 1-2.662 2.662m0-5.151a2.49 2.49 0 0 0-2.49 2.49 2.49 2.49 0 0 0 2.49 2.489 2.49 2.49 0 0 0 2.49-2.49 2.493 2.493 0 0 0-2.49-2.49"/><path fill="#162E4C" d="M35.15 23.865a.321.321 0 1 0 0-.643.321.321 0 0 0 0 .642"/><path fill="#476B9E" d="M35.3 22.842a.15.15 0 1 1-.299 0 .15.15 0 0 1 .3 0M35.3 24.244a.15.15 0 1 1-.299 0 .15.15 0 0 1 .3 0M35.852 23.693a.15.15 0 1 0 0-.3.15.15 0 0 0 0 .3M34.45 23.693a.15.15 0 1 0 0-.3.15.15 0 0 0 0 .3M35.75 23.153a.15.15 0 1 1-.21-.211.15.15 0 0 1 .21.211M34.76 24.145a.15.15 0 1 1-.211-.212.15.15 0 0 1 .212.212M35.54 24.145a.15.15 0 1 1 .21-.212.15.15 0 0 1-.21.212M34.549 23.153a.15.15 0 1 1 .211-.211.15.15 0 0 1-.211.211"/><path fill="#162E4C" d="M44.383 23.484h-.172a2.86 2.86 0 0 0-2.858-2.857h-6.287a2.86 2.86 0 0 0-2.857 2.857h-.172c0-1.67 1.36-3.03 3.03-3.03h6.286c1.67 0 3.03 1.36 3.03 3.03"/></svg>