<svg xmlns="http://www.w3.org/2000/svg" width="20" height="20" fill="none"><g stroke="#1F1F1F" stroke-linecap="round" stroke-linejoin="round" stroke-width="1.2" clip-path="url(#a)"><path d="M12.5 1.667V10c0 .917-.75 1.667-1.667 1.667H1.667V5A3.33 3.33 0 0 1 5 1.667z"/><path d="M18.333 11.667v2.5c0 1.383-1.116 2.5-2.5 2.5H15C15 15.75 14.25 15 13.333 15c-.916 0-1.666.75-1.666 1.667H8.333c0-.917-.75-1.667-1.666-1.667C5.75 15 5 15.75 5 16.667h-.833a2.497 2.497 0 0 1-2.5-2.5v-2.5h9.166c.917 0 1.667-.75 1.667-1.667V4.167h1.533c.6 0 1.15.325 1.45.842L16.908 7.5h-1.075a.836.836 0 0 0-.833.834v2.5c0 .458.375.833.833.833z"/><path d="M6.667 18.333a1.667 1.667 0 1 0 0-3.333 1.667 1.667 0 0 0 0 3.333M13.333 18.333a1.667 1.667 0 1 0 0-3.333 1.667 1.667 0 0 0 0 3.333M18.333 10v1.667h-2.5a.836.836 0 0 1-.833-.834v-2.5c0-.458.375-.833.833-.833h1.075z"/></g><defs><clipPath id="a"><path fill="#fff" d="M0 0h20v20H0z"/></clipPath></defs></svg>