<svg xmlns="http://www.w3.org/2000/svg" width="20" height="20" fill="none"><g stroke="#1F1F1F" stroke-linecap="round" stroke-linejoin="round" stroke-width="1.2" clip-path="url(#a)"><path d="M2.642 6.2 10 10.46l7.308-4.234M10 18.009V10.45"/><path d="m8.275 2.067-4.45 2.475C2.817 5.1 1.992 6.5 1.992 7.65v4.709c0 1.15.825 2.55 1.833 3.108l4.45 2.475c.95.525 2.508.525 3.458 0l4.45-2.475c1.009-.558 1.834-1.958 1.834-3.108V7.65c0-1.15-.825-2.55-1.834-3.108l-4.45-2.475c-.958-.533-2.508-.533-3.458 0"/><path d="M14.167 11.034v-3.05L6.258 3.417"/></g><defs><clipPath id="a"><path fill="#fff" d="M0 0h20v20H0z"/></clipPath></defs></svg>