<svg xmlns="http://www.w3.org/2000/svg" width="233" height="685" fill="none"><g clip-path="url(#a)"><path fill="url(#b)" d="M.353 643.536v-54.493c0-3.121 2.542-5.652 5.677-5.652h14.228c3.135 0 5.677 2.531 5.677 5.652v54.493c0 3.122-2.542 5.653-5.677 5.653H6.03c-3.135 0-5.677-2.531-5.677-5.653"/><path fill="url(#c)" d="M.353 564.331v-54.493c0-3.122 2.542-5.652 5.677-5.652h14.228c3.135 0 5.677 2.53 5.677 5.652v54.493c0 3.122-2.542 5.652-5.677 5.652H6.03c-3.135 0-5.677-2.53-5.677-5.652"/><path fill="url(#d)" d="M.353 391.995v-54.493c0-3.122 2.542-5.652 5.677-5.652h14.228c3.135 0 5.677 2.53 5.677 5.652v54.493c0 3.122-2.542 5.652-5.677 5.652H6.03c-3.135 0-5.677-2.53-5.677-5.652"/><path fill="url(#e)" d="M.353 312.789v-54.492c0-3.122 2.542-5.653 5.677-5.653h14.228c3.135 0 5.677 2.531 5.677 5.653v54.492c0 3.122-2.542 5.653-5.677 5.653H6.03c-3.135 0-5.677-2.531-5.677-5.653"/><path fill="url(#f)" d="M206.771 643.536v-54.493c0-3.121 2.542-5.652 5.678-5.652h14.227c3.135 0 5.677 2.531 5.677 5.652v54.493c0 3.122-2.542 5.653-5.677 5.653h-14.227c-3.136 0-5.678-2.531-5.678-5.653"/><path fill="url(#g)" d="M206.771 564.331v-54.493c0-3.122 2.542-5.652 5.678-5.652h14.227c3.135 0 5.677 2.53 5.677 5.652v54.493c0 3.122-2.542 5.652-5.677 5.652h-14.227c-3.136 0-5.678-2.53-5.678-5.652"/><path fill="url(#h)" d="M206.771 391.995v-54.493c0-3.122 2.542-5.652 5.678-5.652h14.227c3.135 0 5.677 2.53 5.677 5.652v54.493c0 3.122-2.542 5.652-5.677 5.652h-14.227c-3.136 0-5.678-2.53-5.678-5.652"/><path fill="url(#i)" d="M206.771 312.789v-54.492c0-3.122 2.542-5.653 5.678-5.653h14.227c3.135 0 5.677 2.531 5.677 5.653v54.492c0 3.122-2.542 5.653-5.677 5.653h-14.227c-3.136 0-5.678-2.531-5.678-5.653"/><path fill="url(#j)" d="M6.065 671.523v-458.24c0-7.424 6.044-13.443 13.5-13.443h191.88c7.456 0 13.5 6.019 13.5 13.443v458.24c0 7.424-6.044 13.442-13.5 13.442H19.565c-7.456 0-13.5-6.018-13.5-13.442"/><path fill="url(#k)" d="M19.565 671.558V213.283h191.88v458.275z"/><path fill="url(#l)" d="M194.725 671.558V213.283h12.496v458.275z" style="mix-blend-mode:multiply"/><path fill="url(#m)" d="M175.063 671.558V213.283h12.496v458.275z" style="mix-blend-mode:multiply"/><path fill="url(#n)" d="M155.435 671.558V213.283h12.497v458.275z" style="mix-blend-mode:multiply"/><path fill="url(#o)" d="M135.808 671.558V213.283h12.496v458.275z" style="mix-blend-mode:multiply"/><path fill="url(#p)" d="M116.145 671.558V213.283h12.497v458.275z" style="mix-blend-mode:multiply"/><path fill="url(#q)" d="M96.518 671.558V213.283h12.496v458.275z" style="mix-blend-mode:multiply"/><path fill="url(#r)" d="M76.855 671.558V213.283h12.497v458.275z" style="mix-blend-mode:multiply"/><path fill="url(#s)" d="M57.228 671.558V213.283h12.497v458.275z" style="mix-blend-mode:multiply"/><path fill="url(#t)" d="M37.6 671.558V213.283h12.497v458.275z" style="mix-blend-mode:multiply"/><path fill="url(#u)" d="M17.938 671.558V213.283h12.497v458.275z" style="mix-blend-mode:multiply"/><path fill="url(#v)" d="M205.525 82.721V42.153C205.525 13.235 181.986 0 152.943 0H78.067C49.06 0 25.52 13.235 25.52 42.153v40.568l11.666 36.363 155.774 1.448z"/><path fill="#F7941E" d="M192.994 37.293a1.696 1.696 0 0 1-1.35-1.654 12.8 12.8 0 0 0-3.462-8.582 1.687 1.687 0 0 1-.173-2.102 1.53 1.53 0 0 1 1.125-.495 1.53 1.53 0 0 1 1.125.494 15.65 15.65 0 0 1 4.189 10.513 1.48 1.48 0 0 1-.876 1.527 1.5 1.5 0 0 1-.613.127zM38.05 37.293a1.65 1.65 0 0 0 1.35-1.654 12.8 12.8 0 0 1 3.462-8.582 1.62 1.62 0 0 0 .173-2.103 1.52 1.52 0 0 0-1.74-.365c-.194.085-.367.21-.51.365a15.65 15.65 0 0 0-4.188 10.513 1.48 1.48 0 0 0 .875 1.527c.193.085.402.129.613.127z"/><path fill="url(#w)" d="M78.067 0h74.876c29.043 0 52.582 13.235 52.582 42.153v3.999c.255-4.081-.319-8.171-1.687-12.026a30.4 30.4 0 0 0-6.274-10.413c-9.278-11.822-25.755-17.44-44.621-17.44H78.067c-18.831 0-35.309 5.618-44.586 17.44a30.4 30.4 0 0 0-6.275 10.413 30.3 30.3 0 0 0-1.687 12.026v-3.999C25.52 13.235 49.06 0 78.067 0"/><path fill="url(#x)" d="m200.298 82.066-6.923-39.913c0-27.263-28.386-30.193-40.571-30.193H78.067c-12.185 0-40.536 2.93-40.536 30.193l-6.923 39.913 15.404 25.127 138.466 1.309z"/><path fill="#000" d="M43.035 118.257a344.15 344.15 0 0 1 144.974 0l1.489.344.207-1.516a128 128 0 0 0 1.108-18.302c0-4.791 0-9.755.693-15.028v-1.172l-1.108-.345a253.7 253.7 0 0 0-77.472-12.132 339.3 339.3 0 0 0-72.175 8.513l-1.108.242v1.137a257 257 0 0 0 1.73 37.052l.208 1.551z"/><path fill="url(#y)" d="M42.758 116.878a345.25 345.25 0 0 1 145.39 0c1.8-12.098.484-21.542 1.8-33.295C141.9 68.417 96.483 67.935 40.889 80.136a254 254 0 0 0 1.87 36.742"/><path fill="url(#z)" d="M197.148 195.153H34.104s-8.516-5.963-8.516-8.824v-46.048c0-10.167 11.666-21.197 11.666-21.197s10.385-9.789 78.337-9.513c45.798-.207 66.118 6.583 77.507 10.961 5.4 2.102 12.462 11.822 12.462 19.749v46.186c-.139 6.377-8.412 8.686-8.412 8.686"/><path fill="url(#A)" d="M188.875 195.153a118.3 118.3 0 0 0 5.607-38.638 169 169 0 0 0-5.4-37.018c-5.192-1.757-39.255-7.824-73.387-7.858-34.132-.035-68.194 5.515-73.421 7.307a161.5 161.5 0 0 0-5.54 37.569c0 25.264 5.574 38.638 5.574 38.638z"/><path fill="url(#B)" d="M32.581 92.682s-7.858 4.825-5.4 11.891 16.616 17.923 13.362 8.893c-3.254-9.031-6.162-18.406-7.962-20.784"/><path fill="url(#C)" d="M5.615 109.812c2.007-2.585 20.32-8.065 20.32-8.065 3.461-1.138 4.88 1.964 5.296 4.549l-26.136 7.79a4.7 4.7 0 0 1 .52-4.274"/><path fill="url(#D)" d="M31.37 106.297q.22 1.595.207 3.205l-25.962 6.17a8.6 8.6 0 0 1-.658-1.689z"/><path fill="url(#E)" d="M198.533 92.682s7.892 4.825 5.4 11.891-16.582 17.923-13.362 8.893c3.219-9.031 6.162-18.406 7.962-20.784"/><path fill="url(#F)" d="M225.36 109.812c-2.007-2.585-20.32-8.065-20.32-8.065-3.461-1.138-4.846 1.964-5.261 4.549l26.239 7.79a4.71 4.71 0 0 0-.658-4.274"/><path fill="url(#G)" d="M199.779 106.297a17.5 17.5 0 0 0-.208 3.205l25.79 6.17c.296-.53.517-1.099.657-1.689z"/><path fill="url(#H)" d="M159.831 111.984a346.5 346.5 0 0 0-90.972.31l-6.058-35.777a403.3 403.3 0 0 1 103.123-.345z" style="mix-blend-mode:screen"/><path fill="url(#I)" d="M82.463 6.239h66.118L144.531 0H86.548z"/><path fill="url(#J)" d="M41.2 24.472a5.41 5.41 0 0 0 3.74-1.413c5.192-4.998 11.284-6.653 18.38-8.548 1.766-.483 3.462-.965 5.435-1.517 4.293-1.275 6.37-3.24 6.162-5.825-.242-3.205-4.396-5.514-6.439-5.79a29 29 0 0 0-3.877-.276c-12.877 0-23.712 8.376-27.693 11.926a6.28 6.28 0 0 0-2.284 3.072 6.25 6.25 0 0 0-.07 3.821 7.4 7.4 0 0 0 2.647 3.255 7.43 7.43 0 0 0 4 1.295" style="mix-blend-mode:multiply"/><path fill="url(#K)" d="M68.236 3.412c2.146.31 9.416 4.93 0 7.756s-17.724 3.86-24.612 10.34c-2.977 2.86-11.25-1.93-5.4-6.894 5.85-4.963 17.308-12.89 30.012-11.202"/><path fill="url(#L)" d="M50.062 12.856c0 .483 1.143.862 2.527.862s2.527-.38 2.527-.862-1.107-.896-2.527-.896c-1.419 0-2.527.414-2.527.896" style="mix-blend-mode:screen"/><path fill="url(#M)" d="M46.532 13.718c0 .483 1.107.896 2.492.896s2.527-.413 2.527-.896c0-.482-1.108-.862-2.527-.862s-2.492.38-2.492.862" style="mix-blend-mode:screen"/><path fill="url(#N)" d="M44.004 15.476c0 .482 1.143.862 2.527.862s2.493-.38 2.493-.862c0-.483-1.108-.862-2.493-.862s-2.527.38-2.527.862" style="mix-blend-mode:screen"/><path fill="url(#O)" d="M54.078 11.96c0 .483 1.108.896 2.527.896s2.527-.413 2.527-.896c0-.482-1.142-.861-2.527-.861s-2.527.379-2.527.861" style="mix-blend-mode:screen"/><path fill="url(#P)" d="M57.193 11.099c0 .482 1.108.861 2.527.861s2.527-.379 2.527-.862c0-.482-1.142-.861-2.527-.861-1.384 0-2.527.448-2.527.861" style="mix-blend-mode:screen"/><path fill="url(#Q)" d="M188.286 24.472a5.4 5.4 0 0 1-3.738-1.413c-5.193-4.998-11.32-6.653-18.382-8.548-1.765-.483-3.461-.965-5.434-1.517-4.293-1.275-6.37-3.24-6.162-5.825.242-3.205 4.362-5.514 6.439-5.79 1.284-.178 2.58-.27 3.877-.276 12.877 0 23.712 8.376 27.693 11.926a6.27 6.27 0 0 1 2.284 3.072 6.25 6.25 0 0 1 .07 3.821 7.4 7.4 0 0 1-2.798 3.23 7.43 7.43 0 0 1-4.126 1.147z" style="mix-blend-mode:multiply"/><path fill="url(#R)" d="M161.389 3.412c-2.146.31-9.416 4.93 0 7.756s17.758 3.86 24.647 10.34c2.977 2.86 11.25-1.93 5.4-6.894-5.85-4.963-17.481-12.89-30.047-11.202"/><path fill="url(#S)" d="M179.39 12.856c0 .483-1.108.862-2.493.862s-2.527-.38-2.527-.862 1.108-.896 2.527-.896 2.493.414 2.493.896" style="mix-blend-mode:screen"/><path fill="url(#T)" d="M182.955 13.718c0 .483-1.108.896-2.527.896s-2.527-.413-2.527-.896c0-.482 1.143-.862 2.527-.862s2.527.38 2.527.862" style="mix-blend-mode:screen"/><path fill="url(#U)" d="M185.621 15.476c0 .482-1.108.862-2.527.862s-2.527-.38-2.527-.862c0-.483 1.142-.862 2.527-.862 1.384 0 2.527.38 2.527.862" style="mix-blend-mode:screen"/><path fill="url(#V)" d="M175.513 11.96c0 .483-1.143.896-2.527.896s-2.527-.413-2.527-.896c0-.482 1.142-.861 2.527-.861 1.384 0 2.527.379 2.527.861" style="mix-blend-mode:screen"/><path fill="url(#W)" d="M172.293 11.099c0 .482-1.107.861-2.527.861-1.419 0-2.527-.379-2.527-.862 0-.482 1.143-.861 2.527-.861s2.527.448 2.527.861" style="mix-blend-mode:screen"/><path fill="url(#X)" d="m29.016 129.493 4.846 7.48a163.8 163.8 0 0 0 0 49.356l-8.274-7.996v-37.914a22.44 22.44 0 0 1 3.427-10.926"/><path fill="url(#Y)" d="M25.588 178.333v-30.607a207 207 0 0 1 6.682 4.894 161 161 0 0 0 1.626 33.709z" style="mix-blend-mode:screen"/><path fill="url(#Z)" d="m201.994 129.493-4.846 7.48a163.8 163.8 0 0 1 0 49.356l8.308-7.996v-37.914a22.1 22.1 0 0 0-3.462-10.926"/><path fill="url(#aa)" d="M205.456 178.333v-30.607a208 208 0 0 0-6.715 4.894 158.6 158.6 0 0 1-1.627 33.709z" style="mix-blend-mode:screen"/><path fill="url(#ab)" d="M160.558 184.985c0 .512.205 1.003.568 1.365.364.362.857.565 1.371.565a1.934 1.934 0 0 0 1.973-1.93v-59.731a1.91 1.91 0 0 0-.58-1.377 1.93 1.93 0 0 0-1.393-.553c-.514 0-1.007.203-1.371.565a1.93 1.93 0 0 0-.568 1.365zm-9.554-59.731a1.96 1.96 0 0 1 .59-1.367 1.97 1.97 0 0 1 1.383-.563 1.97 1.97 0 0 1 1.974 1.93v59.731a1.972 1.972 0 0 1-1.974 1.93 1.97 1.97 0 0 1-1.383-.563 1.96 1.96 0 0 1-.59-1.367zm-9.381 0c0-.512.204-1.003.568-1.365a1.94 1.94 0 0 1 1.371-.565 1.944 1.944 0 0 1 1.822 1.183c.1.236.151.49.151.747v59.731a1.91 1.91 0 0 1-.58 1.377 1.94 1.94 0 0 1-1.393.553 1.94 1.94 0 0 1-1.371-.565 1.93 1.93 0 0 1-.568-1.365zm-9.416 0a1.965 1.965 0 0 1 1.974-1.93 1.97 1.97 0 0 1 1.383.563c.369.361.581.852.59 1.367v59.731a1.96 1.96 0 0 1-.59 1.367 1.97 1.97 0 0 1-1.383.563 1.965 1.965 0 0 1-1.974-1.93zm-9.381 0c0-.512.205-1.003.568-1.365a1.94 1.94 0 0 1 1.371-.565 1.934 1.934 0 0 1 1.973 1.93v59.731a1.91 1.91 0 0 1-.58 1.377 1.93 1.93 0 0 1-1.393.553 1.94 1.94 0 0 1-1.371-.565 1.93 1.93 0 0 1-.568-1.365zm-9.415 0a1.972 1.972 0 0 1 1.973-1.93 1.97 1.97 0 0 1 1.383.563c.369.361.581.852.59 1.367v59.731a1.96 1.96 0 0 1-.59 1.367 1.97 1.97 0 0 1-1.383.563 1.97 1.97 0 0 1-1.973-1.93zm-9.381 0c0-.512.204-1.003.567-1.365a1.94 1.94 0 0 1 1.371-.565 1.93 1.93 0 0 1 1.822 1.183c.1.236.151.49.151.747v59.731a1.91 1.91 0 0 1-.58 1.377 1.93 1.93 0 0 1-1.393.553 1.94 1.94 0 0 1-1.371-.565 1.93 1.93 0 0 1-.567-1.365zm-9.416 0a1.92 1.92 0 0 1 .58-1.377 1.94 1.94 0 0 1 1.393-.553c.514 0 1.007.203 1.37.565s.569.853.569 1.365v59.731c0 .512-.205 1.003-.568 1.365a1.94 1.94 0 0 1-1.371.565 1.938 1.938 0 0 1-1.973-1.93zm-9.381 0c0-.512.204-1.003.568-1.365a1.94 1.94 0 0 1 1.37-.565 1.938 1.938 0 0 1 1.973 1.93v59.731a1.92 1.92 0 0 1-.58 1.377 1.94 1.94 0 0 1-1.393.553 1.94 1.94 0 0 1-1.37-.565 1.93 1.93 0 0 1-.568-1.365zm-9.416 0a1.96 1.96 0 0 1 .59-1.367c.37-.361.866-.564 1.383-.563.514 0 1.007.203 1.371.565s.568.853.568 1.365v59.731c0 .512-.204 1.003-.568 1.365a1.94 1.94 0 0 1-1.37.565 1.97 1.97 0 0 1-1.384-.563 1.96 1.96 0 0 1-.59-1.367zm-9.381 0c0-.512.204-1.003.568-1.365a1.94 1.94 0 0 1 1.37-.565 1.973 1.973 0 0 1 1.974 1.93v59.731a1.96 1.96 0 0 1-.59 1.367c-.37.361-.866.564-1.383.563a1.94 1.94 0 0 1-1.371-.565 1.93 1.93 0 0 1-.568-1.365z" style="mix-blend-mode:multiply"/><path fill="#199675" d="M39.608 30.71a64 64 0 0 0-2.596 7.17c-.692 2.171-1.385 4.756-2.077 7.479s-1.28 5.721-1.87 8.686a120 120 0 0 0-1.384 8.754c-.346 2.827-.623 5.412-.762 7.721a64 64 0 0 0-.173 7.617 69 69 0 0 0 2.562-7.203c.692-2.172 1.42-4.722 2.077-7.445.658-2.723 1.28-5.722 1.87-8.686a120 120 0 0 0 1.384-8.755c.346-2.826.623-5.446.761-7.72a70 70 0 0 0 .208-7.618M191.679 30.71a64 64 0 0 0 .173 7.618c0 2.274.415 4.929.796 7.72.381 2.792.865 5.79 1.35 8.755.485 2.964 1.177 5.928 1.869 8.686.693 2.757 1.385 5.273 2.077 7.445a73 73 0 0 0 2.597 7.203c.094-2.54.036-5.084-.173-7.617 0-2.31-.416-4.929-.797-7.72-.38-2.792-.865-5.791-1.35-8.755-.484-2.965-1.211-5.929-1.904-8.686s-1.384-5.308-2.077-7.48a70 70 0 0 0-2.561-7.169" style="mix-blend-mode:screen"/><path fill="url(#ac)" d="M33.862 199.841v-4.722h163.286v4.722z"/><path fill="#000" d="M53.282 86.237a176.9 176.9 0 0 1 72.175-13.132v-2.999A180.5 180.5 0 0 0 52.174 83.48z"/><path fill="#000" d="M99.08 73.277c0 1.792 7.927 3.447 17.758 3.447s17.723-1.482 17.723-3.447-7.961-3.24-17.723-3.24-17.759 1.448-17.759 3.24"/><path fill="#199675" d="M25.52 173.197a1.663 1.663 0 0 1-1.697-1.654v-13.787c.01-.442.192-.863.509-1.172a1.7 1.7 0 0 1 1.187-.482zM205.49 173.198a1.68 1.68 0 0 0 1.22-.46 1.65 1.65 0 0 0 .511-1.195v-13.787a1.676 1.676 0 0 0-.521-1.184 1.7 1.7 0 0 0-1.21-.47z"/></g><defs><linearGradient id="b" x1="25.935" x2=".353" y1="616.273" y2="616.273" gradientUnits="userSpaceOnUse"><stop stop-color="#363B39"/><stop offset="1" stop-color="#1B1C1C"/></linearGradient><linearGradient id="c" x1="25.935" x2=".353" y1="537.067" y2="537.067" gradientUnits="userSpaceOnUse"><stop stop-color="#363B39"/><stop offset="1" stop-color="#1B1C1C"/></linearGradient><linearGradient id="d" x1="25.935" x2=".353" y1="364.731" y2="364.731" gradientUnits="userSpaceOnUse"><stop stop-color="#363B39"/><stop offset="1" stop-color="#1B1C1C"/></linearGradient><linearGradient id="e" x1="25.935" x2=".353" y1="285.526" y2="285.526" gradientUnits="userSpaceOnUse"><stop stop-color="#363B39"/><stop offset="1" stop-color="#1B1C1C"/></linearGradient><linearGradient id="f" x1="232.353" x2="206.771" y1="616.273" y2="616.273" gradientUnits="userSpaceOnUse"><stop stop-color="#363B39"/><stop offset="1" stop-color="#1B1C1C"/></linearGradient><linearGradient id="g" x1="232.353" x2="206.771" y1="537.067" y2="537.067" gradientUnits="userSpaceOnUse"><stop stop-color="#363B39"/><stop offset="1" stop-color="#1B1C1C"/></linearGradient><linearGradient id="h" x1="232.353" x2="206.771" y1="364.731" y2="364.731" gradientUnits="userSpaceOnUse"><stop stop-color="#363B39"/><stop offset="1" stop-color="#1B1C1C"/></linearGradient><linearGradient id="i" x1="232.353" x2="206.771" y1="285.526" y2="285.526" gradientUnits="userSpaceOnUse"><stop stop-color="#363B39"/><stop offset="1" stop-color="#1B1C1C"/></linearGradient><linearGradient id="j" x1="232.353" x2="2.949" y1="442.42" y2="442.42" gradientUnits="userSpaceOnUse"><stop stop-color="#115444"/><stop offset=".08" stop-color="#126A55"/><stop offset=".9" stop-color="#199675"/><stop offset="1" stop-color="#24A580"/></linearGradient><linearGradient id="k" x1="278.566" x2="-91.711" y1="280.08" y2="651.962" gradientUnits="userSpaceOnUse"><stop stop-color="#47C09A"/><stop offset=".17" stop-color="#24A580"/><stop offset=".51" stop-color="#199675"/><stop offset=".85" stop-color="#126A55"/><stop offset="1" stop-color="#115444"/></linearGradient><linearGradient id="l" x1="208.433" x2="193.375" y1="442.42" y2="442.42" gradientUnits="userSpaceOnUse"><stop stop-color="#fff"/><stop offset=".23" stop-color="#F5F5F5"/><stop offset=".61" stop-color="#DADADA"/><stop offset="1" stop-color="#B8B8B8"/></linearGradient><linearGradient id="m" x1="188.771" x2="173.747" y1="442.42" y2="442.42" gradientUnits="userSpaceOnUse"><stop stop-color="#fff"/><stop offset=".23" stop-color="#F5F5F5"/><stop offset=".61" stop-color="#DADADA"/><stop offset="1" stop-color="#B8B8B8"/></linearGradient><linearGradient id="n" x1="169.143" x2="154.085" y1="442.42" y2="442.42" gradientUnits="userSpaceOnUse"><stop stop-color="#fff"/><stop offset=".23" stop-color="#F5F5F5"/><stop offset=".61" stop-color="#DADADA"/><stop offset="1" stop-color="#B8B8B8"/></linearGradient><linearGradient id="o" x1="149.481" x2="134.458" y1="442.42" y2="442.42" gradientUnits="userSpaceOnUse"><stop stop-color="#EEFBF6"/><stop offset=".23" stop-color="#D6F5E6"/><stop offset=".61" stop-color="#B0EAD2"/><stop offset="1" stop-color="#7CD9B8"/></linearGradient><linearGradient id="p" x1="129.853" x2="114.83" y1="442.42" y2="442.42" gradientUnits="userSpaceOnUse"><stop stop-color="#fff"/><stop offset=".23" stop-color="#F5F5F5"/><stop offset=".61" stop-color="#DADADA"/><stop offset="1" stop-color="#B8B8B8"/></linearGradient><linearGradient id="q" x1="110.226" x2="95.168" y1="442.42" y2="442.42" gradientUnits="userSpaceOnUse"><stop stop-color="#fff"/><stop offset=".23" stop-color="#F5F5F5"/><stop offset=".61" stop-color="#DADADA"/><stop offset="1" stop-color="#B8B8B8"/></linearGradient><linearGradient id="r" x1="90.564" x2="75.54" y1="442.42" y2="442.42" gradientUnits="userSpaceOnUse"><stop stop-color="#fff"/><stop offset=".23" stop-color="#F5F5F5"/><stop offset=".61" stop-color="#DADADA"/><stop offset="1" stop-color="#B8B8B8"/></linearGradient><linearGradient id="s" x1="70.936" x2="55.878" y1="442.42" y2="442.42" gradientUnits="userSpaceOnUse"><stop stop-color="#fff"/><stop offset=".23" stop-color="#F5F5F5"/><stop offset=".61" stop-color="#DADADA"/><stop offset="1" stop-color="#B8B8B8"/></linearGradient><linearGradient id="t" x1="51.274" x2="36.25" y1="442.42" y2="442.42" gradientUnits="userSpaceOnUse"><stop stop-color="#EEFBF6"/><stop offset=".23" stop-color="#D6F5E6"/><stop offset=".61" stop-color="#B0EAD2"/><stop offset="1" stop-color="#7CD9B8"/></linearGradient><linearGradient id="u" x1="31.646" x2="16.588" y1="442.42" y2="442.42" gradientUnits="userSpaceOnUse"><stop stop-color="#fff"/><stop offset=".23" stop-color="#F5F5F5"/><stop offset=".61" stop-color="#DADADA"/><stop offset="1" stop-color="#B8B8B8"/></linearGradient><linearGradient id="v" x1="205.525" x2="25.519" y1="60.283" y2="60.283" gradientUnits="userSpaceOnUse"><stop stop-color="#199675"/><stop offset="1" stop-color="#24A580"/></linearGradient><linearGradient id="w" x1="205.525" x2="25.519" y1="23.093" y2="23.093" gradientUnits="userSpaceOnUse"><stop stop-color="#363B39"/><stop offset="1" stop-color="#0C0D0D"/></linearGradient><linearGradient id="y" x1="190.121" x2="41.028" y1="94.233" y2="94.233" gradientUnits="userSpaceOnUse"><stop stop-color="#363B39"/><stop offset="1" stop-color="#0C0D0D"/></linearGradient><linearGradient id="z" x1="115.522" x2="115.522" y1="109.571" y2="177.54" gradientUnits="userSpaceOnUse"><stop stop-color="#199675"/><stop offset="1" stop-color="#24A580"/></linearGradient><linearGradient id="A" x1="115.522" x2="115.522" y1="111.673" y2="177.954" gradientUnits="userSpaceOnUse"><stop stop-color="#126A55"/><stop offset="1" stop-color="#199675"/></linearGradient><linearGradient id="B" x1="35.419" x2="30.684" y1="94.724" y2="136.668" gradientUnits="userSpaceOnUse"><stop stop-color="#363B39"/><stop offset="1" stop-color="#1B1C1C"/></linearGradient><linearGradient id="D" x1="31.577" x2="4.888" y1="111.019" y2="111.019" gradientUnits="userSpaceOnUse"><stop stop-color="#363B39"/><stop offset="1" stop-color="#1B1C1C"/></linearGradient><linearGradient id="E" x1="194.292" x2="198.788" y1="94.468" y2="136.321" gradientUnits="userSpaceOnUse"><stop stop-color="#363B39"/><stop offset="1" stop-color="#1B1C1C"/></linearGradient><linearGradient id="G" x1="199.571" x2="226.261" y1="111.019" y2="111.019" gradientUnits="userSpaceOnUse"><stop stop-color="#363B39"/><stop offset="1" stop-color="#1B1C1C"/></linearGradient><linearGradient id="H" x1="165.924" x2="62.801" y1="92.682" y2="92.682" gradientUnits="userSpaceOnUse"><stop stop-color="#3B3B3B"/><stop offset="1"/></linearGradient><linearGradient id="I" x1="148.581" x2="82.463" y1="3.102" y2="3.102" gradientUnits="userSpaceOnUse"><stop stop-color="#199675"/><stop offset="1" stop-color="#115444"/></linearGradient><linearGradient id="J" x1="57.955" x2="46.507" y1="16.2" y2="5.879" gradientUnits="userSpaceOnUse"><stop stop-color="#fff"/><stop offset="1" stop-color="#363B39"/></linearGradient><linearGradient id="K" x1="72.944" x2="36.112" y1="12.891" y2="12.891" gradientUnits="userSpaceOnUse"><stop stop-color="#126A55"/><stop offset="1" stop-color="#199675"/></linearGradient><linearGradient id="L" x1="53.178" x2="51.419" y1="13.373" y2="11.78" gradientUnits="userSpaceOnUse"><stop stop-color="#fff"/></linearGradient><linearGradient id="M" x1="49.612" x2="47.854" y1="14.235" y2="12.677" gradientUnits="userSpaceOnUse"><stop stop-color="#fff"/><stop offset="1" stop-color="#363B39"/></linearGradient><linearGradient id="N" x1="47.085" x2="45.361" y1="15.993" y2="14.434" gradientUnits="userSpaceOnUse"><stop stop-color="#fff"/><stop offset="1" stop-color="#363B39"/></linearGradient><linearGradient id="O" x1="57.055" x2="55.331" y1="12.477" y2="10.919" gradientUnits="userSpaceOnUse"><stop stop-color="#fff"/><stop offset="1" stop-color="#363B39"/></linearGradient><linearGradient id="P" x1="60.274" x2="58.516" y1="11.616" y2="10.057" gradientUnits="userSpaceOnUse"><stop stop-color="#fff"/><stop offset="1" stop-color="#363B39"/></linearGradient><linearGradient id="Q" x1="171.532" x2="182.98" y1="16.2" y2="5.879" gradientUnits="userSpaceOnUse"><stop stop-color="#fff"/><stop offset="1" stop-color="#363B39"/></linearGradient><linearGradient id="R" x1="156.543" x2="193.375" y1="12.891" y2="12.891" gradientUnits="userSpaceOnUse"><stop stop-color="#126A55"/><stop offset="1" stop-color="#199675"/></linearGradient><linearGradient id="S" x1="176.309" x2="178.068" y1="13.373" y2="11.78" gradientUnits="userSpaceOnUse"><stop stop-color="#fff"/><stop offset="1" stop-color="#363B39"/></linearGradient><linearGradient id="T" x1="179.874" x2="181.633" y1="14.235" y2="12.677" gradientUnits="userSpaceOnUse"><stop stop-color="#fff"/><stop offset="1" stop-color="#363B39"/></linearGradient><linearGradient id="U" x1="182.401" x2="184.125" y1="15.993" y2="14.434" gradientUnits="userSpaceOnUse"><stop stop-color="#fff"/><stop offset="1" stop-color="#363B39"/></linearGradient><linearGradient id="V" x1="172.397" x2="174.156" y1="12.477" y2="10.919" gradientUnits="userSpaceOnUse"><stop stop-color="#fff"/><stop offset="1" stop-color="#363B39"/></linearGradient><linearGradient id="W" x1="169.212" x2="170.937" y1="11.616" y2="10.057" gradientUnits="userSpaceOnUse"><stop stop-color="#fff"/><stop offset="1" stop-color="#363B39"/></linearGradient><linearGradient id="X" x1="40.854" x2=".698" y1="139.73" y2="217.802" gradientUnits="userSpaceOnUse"><stop stop-color="#363B39"/><stop offset="1" stop-color="#1B1C1C"/></linearGradient><linearGradient id="Y" x1="35.662" x2="10.323" y1="155.585" y2="204.859" gradientUnits="userSpaceOnUse"><stop stop-color="#3B3B3B"/><stop offset="1"/></linearGradient><linearGradient id="Z" x1="190.19" x2="230.346" y1="139.73" y2="217.802" gradientUnits="userSpaceOnUse"><stop stop-color="#363B39"/><stop offset="1" stop-color="#1B1C1C"/></linearGradient><linearGradient id="aa" x1="218.541" x2="191.28" y1="153.999" y2="174.689" gradientUnits="userSpaceOnUse"><stop/><stop offset="1" stop-color="#3B3B3B"/></linearGradient><linearGradient id="ab" x1="115.522" x2="115.522" y1="122.634" y2="192.396" gradientUnits="userSpaceOnUse"><stop stop-color="#fff"/><stop offset="1" stop-color="#8F8F8F"/></linearGradient><linearGradient id="ac" x1="197.183" x2="33.862" y1="197.497" y2="197.497" gradientUnits="userSpaceOnUse"><stop stop-color="#363B39"/><stop offset="1" stop-color="#0C0D0D"/></linearGradient><radialGradient id="x" cx="0" cy="0" r="1" gradientTransform="matrix(-69.06 0 0 -68.7619 115.522 60.248)" gradientUnits="userSpaceOnUse"><stop stop-color="#126A55"/><stop offset="1" stop-color="#199675"/></radialGradient><radialGradient id="C" cx="0" cy="0" r="1" gradientTransform="matrix(-10.4404 0 0 -9.99547 16.235 107.744)" gradientUnits="userSpaceOnUse"><stop stop-color="#126A55"/><stop offset="1" stop-color="#199675"/></radialGradient><radialGradient id="F" cx="0" cy="0" r="1" gradientTransform="matrix(10.4404 0 0 9.99547 213.535 107.779)" gradientUnits="userSpaceOnUse"><stop stop-color="#126A55"/><stop offset="1" stop-color="#199675"/></radialGradient><clipPath id="a"><path fill="#fff" d="M.353 0v685h232V0z"/></clipPath></defs></svg>