<svg xmlns="http://www.w3.org/2000/svg" width="328" height="678" fill="none"><g clip-path="url(#a)"><path fill="#0F453A" d="M53.056 515.328h-19.56c-6.127 0-11.094 4.969-11.094 11.099v74.645c0 6.13 4.967 11.099 11.093 11.099h19.56c6.128 0 11.095-4.969 11.095-11.099v-74.645c0-6.13-4.967-11.099-11.094-11.099M293.45 515.328h-19.56c-6.127 0-11.094 4.969-11.094 11.099v74.645c0 6.13 4.967 11.099 11.094 11.099h19.56c6.127 0 11.094-4.969 11.094-11.099v-74.645c0-6.13-4.967-11.099-11.094-11.099"/><path fill="#199675" stroke="#0F453A" stroke-miterlimit="10" stroke-width=".39" d="M40.995 38.654C28.38 155.065 27.724 156.483 27.724 177.124v458.972a23.31 23.31 0 0 0 13.931 21.829 23.3 23.3 0 0 0 8.878 1.958h225.88a23.282 23.282 0 0 0 21.222-14.832 23.3 23.3 0 0 0 1.587-8.955c0-497.868.76-468.134-1.936-491.645L285.225 38.412a23.2 23.2 0 0 0-7.396-14.656 23.18 23.18 0 0 0-15.24-6.088H63.631c-5.69.11-11.14 2.309-15.315 6.178a23.2 23.2 0 0 0-7.321 14.808Z"/><path fill="#D0D2D3" stroke="#0F453A" stroke-miterlimit="10" stroke-width=".15" d="M43.69 102.478c5.46-5.22 26.888-58.776 27.648-64.654A14.66 14.66 0 0 0 68.4 28.04c-5.115 6.223-24.986 31.116-32.002 41.489-1.417 6.914-10.575 50.132 7.292 32.949ZM282.668 102.72c-5.426-5.22-26.853-58.776-27.648-64.688a14.53 14.53 0 0 1 3.18-9.958l2.212 2.766.553.726 1.969 2.524.553.726 6.048 8.021 2.281 2.974c.38.484.726.968 1.106 1.417l2.177 2.8c.415.554.83 1.073 1.279 1.591.449.519 1.59 2.006 2.419 3.043l1.175 1.486a342 342 0 0 0 3.871 4.668l.518.657.242.311.38.484.38.519.311.45.519.656.276.415.588.83.276.38.692 1.003.207.31.829 1.211v.207c.346.45.657.934 1.002 1.418 1.348 6.95 10.507 50.202-7.395 33.053Z"/><path fill="#9AD7F1" stroke="#0F453A" stroke-miterlimit="10" stroke-width=".39" d="m283.29 146.283 4.043 82.702a10.08 10.08 0 0 1-2.766 7.476 10.08 10.08 0 0 1-7.325 3.138H48.805a10.117 10.117 0 0 1-9.499-6.589 10.1 10.1 0 0 1-.627-4.025l4.113-82.736a10.167 10.167 0 0 1 10.126-9.612h220.281a10.098 10.098 0 0 1 10.091 9.646Z"/><path fill="#0F453A" fill-opacity=".2" d="M38.68 42.388v17.633l2.315-21.367a23.2 23.2 0 0 1 7.321-14.808 23.18 23.18 0 0 1 15.315-6.179h198.958a23.18 23.18 0 0 1 15.24 6.089 23.2 23.2 0 0 1 7.396 14.656l2.143 18.774V42.388a42.4 42.4 0 0 0-12.41-29.973A42.36 42.36 0 0 0 244.998 0H81.048A42.36 42.36 0 0 0 51.09 12.415a42.4 42.4 0 0 0-12.41 29.973"/><path fill="#D0D2D3" stroke="#0F453A" stroke-miterlimit="10" stroke-width=".11" d="M171.11 37.859c0 13.207-20.009 13.242-20.009 0s20.009-13.277 20.009 0Z"/><path fill="#0F453A" stroke="#0F453A" stroke-miterlimit="10" stroke-width=".16" d="M276.413 659.883H50.533a23.3 23.3 0 0 1-16.33-7.166 23.3 23.3 0 0 1-6.48-16.621v9.231a32.44 32.44 0 0 0 9.496 22.932 32.4 32.4 0 0 0 22.922 9.499h206.664a32.4 32.4 0 0 0 22.922-9.499 32.44 32.44 0 0 0 9.495-22.932v-9.231a23.303 23.303 0 0 1-22.809 23.787Z"/><path fill="#126A55" stroke="#0F453A" stroke-miterlimit="10" stroke-width=".15" d="M27.724 641.04v3.008c0 4.86 1.93 9.521 5.365 12.957a18.3 18.3 0 0 0 12.951 5.367h235.003c9.331 0 18.317-6.396 18.317-21.332z"/><path fill="#BFE7FA" d="m284.983 180.443-63.969-43.806H94.112l150.886 102.962c51.494 0 43.268 8.367 39.985-59.156M48.805 239.599h91.029l-98.32-67.316-2.835 56.702a10.13 10.13 0 0 0 6.136 9.799 10.1 10.1 0 0 0 3.99.815"/><path stroke="#0F453A" stroke-miterlimit="10" stroke-width=".15" d="m283.29 146.283 4.043 82.702a10.08 10.08 0 0 1-2.766 7.476 10.08 10.08 0 0 1-7.325 3.138H48.805a10.117 10.117 0 0 1-9.499-6.589 10.1 10.1 0 0 1-.627-4.025l4.113-82.736a10.167 10.167 0 0 1 10.126-9.612h220.281a10.098 10.098 0 0 1 10.091 9.646Z"/><path fill="#0F453A" d="M265.699 131.278a4.32 4.32 0 0 1 3.09 1.266c.405.406.725.888.943 1.418a4.3 4.3 0 0 1 .322 1.673 4.33 4.33 0 0 1-1.278 3.068 4.3 4.3 0 0 1-1.413.935 4.3 4.3 0 0 1-1.664.319c-221.974 0-213.576 2.005-213.576-4.322a4.36 4.36 0 0 1 4.354-4.357z"/><path stroke="#5F6A99" stroke-miterlimit="10" stroke-width=".39" d="M48.633 260.067c6.738 0 4.665-21.367 4.665 357.497a4.633 4.633 0 0 1-4.666 4.668 4.64 4.64 0 0 1-3.309-1.357 4.63 4.63 0 0 1-1.356-3.311c0-378.691-2.143-357.497 4.666-357.497ZM81.498 260.067c6.912 0 4.666-21.367 4.666 357.497a4.633 4.633 0 0 1-4.666 4.668 4.666 4.666 0 0 1-4.665-4.668c0-378.691-2.143-357.497 4.665-357.497ZM114.364 260.067a4.62 4.62 0 0 1 3.309 1.357 4.62 4.62 0 0 1 1.357 3.311c0 378.691 2.142 357.497-4.666 357.497-6.739 0-4.665 21.367-4.665-357.497a4.67 4.67 0 0 1 4.665-4.668ZM147.265 260.067a4.63 4.63 0 0 1 4.288 2.884c.231.566.347 1.172.343 1.784 0 378.691 2.177 357.497-4.631 357.497-6.912 0-4.666 21.367-4.666-357.497a4.62 4.62 0 0 1 1.356-3.311 4.64 4.64 0 0 1 3.31-1.357ZM180.13 260.067a4.665 4.665 0 0 1 4.666 4.668c0 378.691 2.142 357.497-4.666 357.497-6.912 0-4.665 21.367-4.665-357.497a4.62 4.62 0 0 1 1.356-3.311 4.64 4.64 0 0 1 3.309-1.357ZM212.996 260.067a4.665 4.665 0 0 1 4.666 4.668c0 378.691 2.142 357.497-4.666 357.497-6.912 0-4.665 21.367-4.665-357.497a4.62 4.62 0 0 1 1.356-3.311 4.64 4.64 0 0 1 3.309-1.357ZM245.862 260.067c6.912 0 4.666-21.367 4.666 357.497a4.64 4.64 0 0 1-1.357 3.311 4.64 4.64 0 0 1-3.309 1.357 4.666 4.666 0 0 1-4.665-4.668c0-378.691-2.143-357.497 4.665-357.497ZM278.728 260.067c6.912 0 4.666-21.367 4.666 357.497a4.64 4.64 0 0 1-1.357 3.311 4.64 4.64 0 0 1-3.309 1.357 4.666 4.666 0 0 1-4.665-4.668c0-378.691-2.143-357.497 4.665-357.497Z"/><path fill="#0F453A" d="M38.68 165.127a6.083 6.083 0 0 1-6.118 6.085c-24.675 0-32.209 1.797-32.209-6.085a6.1 6.1 0 0 1 1.77-4.326 6.1 6.1 0 0 1 4.313-1.794c24.71 0 32.243-1.798 32.243 6.12M327.353 165.127a6.12 6.12 0 0 1-6.117 6.085c-24.71 0-32.244 1.797-32.244-6.085a6.117 6.117 0 0 1 6.117-6.12c24.71 0 32.244-1.798 32.244 6.12"/><path stroke="#5F6A99" stroke-miterlimit="10" stroke-width=".39" d="M27.724 254.916h271.498"/></g><defs><clipPath id="a"><path fill="#fff" d="M.353 0h327v678h-327z"/></clipPath></defs></svg>