<svg xmlns="http://www.w3.org/2000/svg" width="342" height="709" fill="none"><path fill="#000" d="M342 289.569v-1.028a9 9 0 0 1 0-.94c0-.735-.176-1.498-.294-2.233v-.264a7 7 0 0 0-.176-.852v-.264a8 8 0 0 0-.205-.793v-.412l-.264-.822v-.264l-.382-1.058v-.176c-.147-.411-.323-.822-.499-1.234a1 1 0 0 1 0-.264c0-.294-.294-.617-.44-.94l-.176-.382-.441-.852a4 4 0 0 0-.293-.47c0-.293-.323-.558-.5-.881l-.293-.411a8 8 0 0 0-.617-.911 3 3 0 0 0-.205-.294l-.969-1.292a73.8 73.8 0 0 0-11.243-11.75 40 40 0 0 0-7.193-5.61v-49.495l.206-.882v-3.348c.147-.676.264-1.41.411-2.144v-3.819q.235-1.322.44-2.732v-4.553q.235-1.586.441-3.26v-5.376c.146-1.145.264-2.35.381-3.554v-6.051l.264-3.701v-29.198c0-1.292.001-2.585-.234-3.877v-.382c0-1.41-.235-2.938-.353-4.201a288 288 0 0 0-1.174-10.369 263 263 0 0 0-.939-6.462v-.294a70 70 0 0 0-.529-3.143v-.411c-.176-1.057-.381-2.085-.587-3.143v-.294c-.44-2.261-.88-4.464-1.38-6.609-.264-1.087-.499-2.144-.763-3.231v-.294c-.264-1.145-.558-2.261-.851-3.378-.851-3.348-1.82-6.668-2.936-9.84a.7.7 0 0 0 0-.206c-.323-1.116-.704-2.203-1.057-3.29-.235-.704-.469-1.439-.734-2.173-1.056-2.937-2.172-5.875-3.375-8.577-.265-.647-.558-1.263-.852-1.939v-.176c-.264-.617-.558-1.234-.851-1.85v-.148a137 137 0 0 0-2.936-5.874l-.998-1.792-.147-.294-.88-1.498-.206-.353c-.323-.528-.616-1.028-.939-1.498l-.147-.235c-.352-.587-.734-1.145-1.116-1.762a101 101 0 0 0-2.407-3.437l-.235-.352-.968-1.293-.235-.294-.91-1.175-.382-.44c-.323-.411-.616-.793-.939-1.146l-.353-.41c-.381-.47-.792-.941-1.203-1.382-.47-.499-.91-.998-1.409-1.498l-.206-.205-1.145-1.175-.323-.323a15 15 0 0 0-.998-.94 3.8 3.8 0 0 0 .91-1.675l-.968-.88-.529-.441-1.027-.882-.323-.293-1.409-1.087a19 19 0 0 0-1.556-1.146l-.323-.235-1.145-.793-.587-.411-1.086-.676-.617-.382-1.086-.616-.587-.324-1.145-.616h-.147l-.44-.206a16 16 0 0 0-1.762-.881 98 98 0 0 0-4.931-2.262l-.353-.147-.381-.176-4.756-2.027-.881-.352-4.785-1.91-.411-.176h-.234l-4.903-1.821-5.049-1.733h-.705l-4.902-1.586-.705-.206-5.049-1.527h-.235l-5.255-1.44-5.137-1.263h-.499a139 139 0 0 0-5.02-1.145h-.382a307 307 0 0 0-10.421-1.998l-5.079-.793h-.264c-1.703-.264-3.405-.47-5.049-.676a181 181 0 0 0-21.577-1.35h-2.231c-3.229 0-6.664 0-10.187.322l-4.873.353h-.235c-1.644 0-3.317.293-4.961.499-3.405.382-6.928.881-10.451 1.469l-5.137.881h-.411l-5.108.999h-.382l-5.284 1.175-6.37.323h-.206l-5.166 1.41h-.617l-5.02 1.468-.734.206-5.049 1.645h-.47c-1.79.588-3.522 1.175-5.166 1.792h-.177a147 147 0 0 0-5.078 1.88h-.176l-.587.235a163 163 0 0 0-4.844 1.91l-.705.293h-.176a185 185 0 0 0-4.844 2.056l-.41.176h-.294c-1.879.852-3.523 1.586-5.05 2.32l-1.702.823-.323.177h-.206l-1.115.587-.558.323-.91.529-.41.264h-.236l-.939.588-.558.352-.88.588-.646.47-.91.616-.529.382-.851.647-.617.499-.88.705h-.147l-.411.352-.91.794-.176.146-.352.294-.97.91-.264.236c-.91.88-1.82 1.791-2.7 2.702l-.206.206c-.323.382-.645.734-.998 1.087l-.293.323-.822.969-.382.44q-.42.45-.793.94l-.44.559a8.6 8.6 0 0 0-.763.97l-.44.557c-.265.323-.5.646-.764 1.028l-.382.5c-.264.352-.498.705-.763 1.028l-.381.558-.734 1.087v.176l-.235.352-.793 1.205v.44c-.323.47-.616.94-.88 1.38v.177a76 76 0 0 0-2.936 5.258v.206l-.793 1.468v.353l-.704 1.41-.235.47c-.206.44-.44.91-.646 1.38v.47l-.617 1.352-.234.528-.617 1.41v.323c-.205.5-.44.97-.645 1.498v.382c-.235.558-.44 1.087-.676 1.616v.323c-.235.617-.499 1.263-.734 1.91a176 176 0 0 0-2.495 7.049v.176c-.382 1.175-.763 2.35-1.116 3.555v.146a72 72 0 0 0-.968 3.35c-.998 3.641-1.938 7.372-2.936 11.161v2.908a99 99 0 0 0-.734 3.407q-.353 1.822-.704 3.702v.411a523 523 0 0 0-1.204 7.197v.411c-.734 4.847-1.35 9.84-1.82 14.687 0 1.439-.264 2.937-.352 4.435v.353c0 1.439-.206 2.937-.265 4.288 0 2.938-.234 5.875-.264 9.048v1.997a291.3 291.3 0 0 0 5.52 55.458v.705l.528 2.556v47.027a36 36 0 0 0-8.308 6.228 73.8 73.8 0 0 0-11.244 11.749l-.968 1.293-.206.293-.616.882-.294.47-.499.822-.264.499c-.176.265-.294.529-.44.794l-.177.381a7 7 0 0 0-.44.94v.235q-.31.613-.528 1.263v.235c0 .324-.235.647-.353 1.028v.265c0 .264 0 .529-.235.822v.441a7 7 0 0 0-.176.734v.412c0 .146 0 .558-.146.851v.294c0 .353 0 .735-.177 1.087-.176.353 0 .764 0 1.116v1.293a6 6 0 0 0 0 .734v2.086c.08 2 .446 3.978 1.087 5.874.198.569.542 1.075.998 1.469q.286.317.616.588a4.64 4.64 0 0 0 2.936.998q.514.045 1.027 0a101 101 0 0 0 19.757-6.638v13.659c.47 31.958 1.262 66.444 2.084 90.09v22.647c1.733 26.055-2.935 53.931-6.634 76.372l-.352 2.086a325 325 0 0 0-3.259 62.097v4.993q.021.264 0 .529v10.575l.206 1.057.176.822v.412l.234 1.145.265 1.175v.294l.205.969c0 .441.206.852.294 1.322s.205.881.323 1.351l.235.94v.411a258 258 0 0 0 8.513 28.347c2.73 9.957 12.388 42.885 25.1 59.335l.792.969.206.265.499.558.264.293v.147l.381.441.294.264.47.47.323.323.557.529.323.294.587.529.44.411.588.499.323.264h.176l.587.5.5.382.616.499.323.235.205.147.646.499.528.382.676.47.44.294.704.47.382.264h.147l.734.47.557.353.764.47.528.323.852.499.499.294.91.499h.176l.323.206.88.47.411.206.969.47.499.293 1.028.5.322.176 1.087.528.293.148 1.174.528h.382l1.262.558h.177l1.38.588 1.526.617a171 171 0 0 0 6.34 2.349 136 136 0 0 0 5.226 1.704h.294a244.7 244.7 0 0 0 70.778 9.694h.44a245.3 245.3 0 0 0 70.191-9.518h2.524l.94-.293h.44l1.116-.382h.968l.793-.294.734-.264h.264l.734-.265.528-.205.969-.382.734-.294.939-.352.646-.265.91-.382.588-.264h.146l.91-.382.705-.323.88-.382.412-.176h.528l.616-.294.705-.352h.176l2.906.235.675-.353.823-.411h.264l.411-.206.792-.411.499-.264.734-.411.675-.382.588-.323h.146l.617-.353.558-.323h.176l.616-.382.705-.411.616-.411.675-.411.588-.412.587-.382.587-.382.646-.47.411-.293.616-.441.529-.411.469-.353v-.147h.206l.323-.264.469-.382h.176l.353-.293.528-.47.411-.353.411-.352.352-.323.529-.5.323-.323.411-.411.264-.265 1.791-2.408q.109-.167.264-.294l.44-.558.206-.235.792-.999c8.983-11.749 16.469-31.489 21.166-46.176a251 251 0 0 0 16.704-55.193c0-.353 0-.676.205-1.029l.176-1.057c0-.323 0-.617.147-.911v-9.869a322 322 0 0 0-3.229-62.097l-.264-1.439-.352-2.233v-2.379c0-.47 0-.94-.235-1.439v-.176l-.147-.97-.323-1.88v-1.145l-.352-2.233v-.852l-.206-1.321v-.617l-.146-.881-.323-2.115v-.676c0-.969-.294-1.909-.411-2.937a270 270 0 0 1-3.259-55.811v-36.218c0-1.616 0-3.261.147-4.935v-10.81a4985 4985 0 0 0 1.292-67.56v-5.728a105 105 0 0 0 18.641 6.11q.514.045 1.027 0a4.52 4.52 0 0 0 2.936-.999l.587-.587a3.26 3.26 0 0 0 1.027-1.469 22 22 0 0 0 1.145-6.609v-1.145z"/><path fill="url(#a)" d="M182.155 670.872a78.6 78.6 0 0 0-11.302 7.52 77.3 77.3 0 0 0-11.273-7.52L35.374 612.125s10.627 41.711 25.1 60.451 58.272 32.782 110.174 32.782l.205-.353.235.353c51.902 0 95.701-14.041 110.174-32.782s25.1-60.451 25.1-60.451z"/><path fill="#199675" d="M107.679 693.872a64.4 64.4 0 0 0-2.554-10.222l-17.438-35.777s-3.875-6.815-8.983-15.245l-43.33-20.562s10.627 41.711 25.1 60.451c7.486 9.694 22.84 18.124 43.124 24.029 2.085-.059 4.316-.617 4.081-2.674M281.262 672.576c14.473-18.74 25.099-60.451 25.099-60.451l-41.744 19.768a948 948 0 0 0-9.423 15.98l-17.438 35.777a64 64 0 0 0-2.554 10.222c-.206 1.763 1.439 2.439 3.259 2.674 20.079-5.905 35.344-14.306 42.801-23.97"/><path fill="url(#b)" d="m105.125 683.65-3.347-6.903a7.82 7.82 0 0 0-4.726 7.755 10.67 10.67 0 0 1-4.08 8.607 162 162 0 0 0 10.626 3.495c2.084 0 4.315-.675 4.081-2.732a64.5 64.5 0 0 0-2.554-10.222m140.909.852a7.78 7.78 0 0 0-4.873-7.813l-3.376 6.961a64.4 64.4 0 0 0-2.554 10.222c-.205 1.763 1.439 2.439 3.259 2.674 3.934-1.175 7.691-2.409 11.273-3.76a10.58 10.58 0 0 1-3.817-8.284z"/><path fill="#DF0030" d="M43.447 632.128s12.33 46.822 57.861 55.341l4.257-3.407s-14.884-22.56-16.175-22.56-45.943-29.374-45.943-29.374"/><path fill="#900000" d="M100.839 685.53a68.4 68.4 0 0 1-25.035-10.464 68.4 68.4 0 0 1-19-19.38 91.3 91.3 0 0 1-10.04-19.181l18.142 11.75c17.614 11.514 22.194 14.158 23.485 14.687 1.498 1.38 8.308 11.191 14.679 20.562l-2.319 1.85z"/><path fill="#DF0030" d="M299.551 632.128s-12.33 46.822-57.861 55.341l-4.257-3.407s14.913-22.56 16.175-22.56 45.943-29.374 45.943-29.374"/><path fill="#900000" d="M242.189 685.53a68.4 68.4 0 0 0 25.035-10.464 68.4 68.4 0 0 0 18.999-19.38 90 90 0 0 0 10.04-19.181l-18.113 11.75c-17.76 11.514-22.193 14.158-23.661 14.687-1.468 1.38-8.308 11.191-14.531 20.562l2.319 1.85z"/><path fill="#199675" d="M316.9 499.093c-3.845-22.97-8.806-52.344-7.016-79.809 1.791-27.465 5.108-178.77 2.554-210.699a275.5 275.5 0 0 0 5.872-79.839c-3.817-40.213-17.203-86.83-49.906-102.163s-68.283-22.97-95.731-22.97h-2.231c-27.448 0-63.174 7.666-95.73 22.97s-45.943 61.95-49.76 102.163a275.4 275.4 0 0 0 5.725 79.839c-2.554 31.929.646 183.234 2.554 210.699s-3.17 56.839-7.016 79.809a319.3 319.3 0 0 0-3.17 61.304c.616 11.485 8.278 53.02 27.418 84.92s55.63 39.596 55.63 39.596l61.913-15.333-6.371-220.305 10.04-194.368 10.04 194.368-6.37 220.305 61.912 15.333s36.372-7.666 55.513-39.596 26.802-73.435 27.448-84.92a322.3 322.3 0 0 0-3.318-61.304"/><path fill="url(#c)" d="M34.523 163.232c6.37 19.151 10.216 95.142 10.216 95.142l26.802-125.78-1.292-28.727-7.661-32.576-24.249-1.234a212 212 0 0 0-13.386 58.748c-.587 5.875-.852 12.043-.91 17.918a39.04 39.04 0 0 1 10.48 16.509"/><path fill="url(#d)" d="M306.743 75.168c-1.409-3.202-2.29-5.14-2.29-5.14l-24.894 1.262-7.662 32.576-1.262 28.728 26.802 125.779s3.817-75.99 10.216-95.142a39.83 39.83 0 0 1 11.39-17.624c0-5.581-.322-11.251-.88-16.979a219.6 219.6 0 0 0-11.42-53.46"/><path fill="#199675" d="M296.204 234.17s2.936-110.123-9.57-155.154l-27.888-34.485-23.926-5.728-10.509 70.88 33.495 94.819L282.7 233.23z"/><path fill="#199675" d="M248.295 52.139s60.621 10.222 30.648 144.931z"/><path fill="#199675" d="M247.708 56.075s50.786 8.636 22.164 105.922zM46.03 234.17S43.096 124.047 55.6 79.016l27.742-34.485 23.955-5.728 10.539 70.88-33.495 94.819-24.895 28.728z"/><path fill="#199675" d="M93.94 52.139S33.32 62.36 63.292 197.07z"/><path fill="#199675" d="M94.527 56.075S43.741 64.71 72.363 161.997z"/><path fill="url(#e)" d="M42.185 536.78s0 .881-.176 2.556c-.44 10.692-.5 54.312 23.778 115.557 0 0 17.232 15.98 29.356 19.798a345.7 345.7 0 0 1-31.91-63.83z"/><path fill="url(#f)" d="M299.844 536.78v2.556c.47 10.692.499 54.312-23.749 115.557 0 0-17.232 15.98-29.356 19.798a347.7 347.7 0 0 0 31.91-63.83z"/><path fill="url(#g)" d="M42.567 500.445s0 10.515 16.263 76.607c16.263 66.091 44.974 99.607 44.974 99.607L91.415 360.595 56.951 279.2s-23.925 0-22.017 50.758c.94 25.085-.206 60.481-1.644 89.855 1.82 27.318-3.23 56.457-7.046 79.31a319.3 319.3 0 0 0-3.17 61.303c.616 11.485 8.278 53.02 27.419 84.92a78.8 78.8 0 0 0 13.621 16.861c-43.74-91.5-21.547-161.762-21.547-161.762"/><path fill="url(#h)" d="M292.652 645.317c19.14-31.9 26.803-73.435 27.448-84.92a322 322 0 0 0-3.2-61.304c-1.203-7.226-2.524-15.098-3.728-23.323l-1.732-2.144s-6.722-92.91-4.785-143.668-22.017-50.758-22.017-50.758l-34.464 81.395-12.447 316.064s28.71-33.516 44.973-99.607c16.264-66.092 16.293-76.607 16.293-76.607s22.575 71.555-22.78 164.259a79.8 79.8 0 0 0 16.439-19.387"/><path fill="url(#i)" d="M26.597 539.688c.94-50.758 13.298-74.698 11.39-109.183S33.23 349.11 33.23 349.11l-2.29.969c.705 31.842 1.586 59.042 2.29 69.205 1.938 27.465-3.17 56.839-7.016 79.809a319.3 319.3 0 0 0-3.17 61.304c.616 11.397 8.131 52.168 26.831 83.951-7.867-20.209-23.984-66.238-23.28-104.66M316.9 499.093c-3.845-22.97-8.806-52.344-7.016-79.809.705-10.163 1.586-37.363 2.29-69.175-1.468-.647-2.378-.999-2.378-.999s-2.935 46.998-4.726 81.395 10.421 58.425 11.39 109.183c.705 38.657-15.617 85.185-23.485 105.012 18.847-31.841 26.421-72.877 27.067-84.303a322.3 322.3 0 0 0-3.142-61.304"/><path fill="#199675" d="M103.451 670.226s-24.277-38.186-33.847-74.698-12.124-85.566-12.124-85.566L51.608 304.99l-7.016-53.637s0-28.727 12.124-21.707 52.313 93.997 52.313 93.997l11.742 332.543z"/><path fill="url(#j)" d="M91.944 640.206s-19.786-28.728-27.448-93.997l5.87 5.875 4.463-37.687s11.39 95.818 17.115 125.809"/><path fill="url(#k)" d="M110.438 359.773c-12.33-19.534-27.213-42.974-28.71-44.443-2.554-2.556-17.232-8.812-17.232-7.021 0 1.792 6.37 115.44 6.37 115.44A2001 2001 0 0 0 100.75 665.85q.078.178.206.323l18.494-44.061z"/><path fill="#199675" d="M238.93 670.226s24.249-38.186 33.819-74.698 12.124-85.566 12.124-85.566l5.871-204.972 7.016-53.637s0-28.727-12.124-21.707-52.342 93.997-52.342 93.997l-11.478 332.66z"/><path fill="url(#l)" d="M250.408 640.206s19.787-28.728 27.449-93.997l-5.872 5.875-4.432-37.657s-11.391 95.788-17.145 125.779"/><path fill="url(#m)" d="M231.944 359.773c12.329-19.534 27.213-42.974 28.681-44.443 2.554-2.556 17.232-8.812 17.232-7.021 0 1.792-6.371 115.558-6.371 115.558a2014 2014 0 0 1-29.884 242.1l-.206.323-18.523-44.061z"/><path fill="#000" d="M46.178 237.283c.264.294.792 0 .498-.382-3.14-3.29-6.487-6.433-9.922-9.429a91 91 0 0 0-6.693-5.346v.764c2.29 1.674 4.462 3.466 6.576 5.317 3.288 2.878 6.517 5.904 9.54 9.076m59.093 420.518-28.945-12.337a65.4 65.4 0 0 1 0-10.457 41.1 41.1 0 0 1 7.31-17.154 138 138 0 0 1 12.359-16.567c.264-.324-.235-.705-.5-.382-2.553 2.937-4.96 5.875-7.28 9.194a86.2 86.2 0 0 0-10.803 18.006 36.15 36.15 0 0 0-1.966 14.687c.218 6.198.806 12.378 1.76 18.506.617 4.112 1.293 8.225 2.085 12.308l.734.44a230 230 0 0 1-3.229-21.296c-.235-2.233-.47-4.465-.587-6.727l28.769 12.279a.325.325 0 0 0 .293-.5M50.052 421.458l-16.41 12.043v.794l16.792-12.308a.327.327 0 0 0-.382-.529M83.988 45.706c6.224-2.291 12.418-4.7 18.729-6.815.382 0 .001-.705-.264-.587-6.282 2.115-12.476 4.523-18.7 6.814a.372.372 0 0 0 .235.706zM253.08 609.951c-2.319-3.172-4.726-6.257-7.31-9.194-.264-.323-.763 0-.499.382a141.4 141.4 0 0 1 12.389 16.567 41.15 41.15 0 0 1 7.28 17.154c.338 3.476.397 6.973.176 10.457L236.2 657.654c-.381.177 0 .764.235.588l28.799-12.278c0 2.261-.353 4.494-.588 6.726a232 232 0 0 1-3.493 22.471q.381-.18.734-.411c.91-4.465 1.673-8.988 2.319-13.512a156 156 0 0 0 1.762-18.506 36.2 36.2 0 0 0-1.967-14.687 86 86 0 0 0-10.921-17.976zm59.945-389.147a76 76 0 0 0-8.484 6.786 156 156 0 0 0-9.922 9.429c-.264.294.235.675.529.382 2.935-3.173 6.223-6.198 9.54-9.077a82 82 0 0 1 8.161-6.433h.176zM238.608 39.009c6.282 2.115 12.505 4.523 18.729 6.815a.322.322 0 0 0 .364-.415.33.33 0 0 0-.129-.173c-6.224-2.291-12.418-4.7-18.73-6.815-.381-.117-.645.47-.234.588m52.635 382.449c-.323-.235-.704.264-.381.529l18.641 13.659v-.823a865 865 0 0 1-18.26-13.365"/><path fill="url(#n)" d="M290.744 224.652c-2.407-1.439-80.612 6.11-119.509 9.987-38.897-3.877-117.102-11.426-119.48-9.987-3.2 1.909-5.108 11.485-5.108 11.485s5.871 26.819 14.032 54.284c8.161 27.464 12.77 104.718 15.324 158.355s15.94 155.153 15.94 155.153l13.416 81.102c22.957 9.576 65.729 8.313 65.729 8.313l.147-1.117.176 1.117s42.743 1.263 65.729-8.313l13.386-81.102s13.416-101.516 15.94-155.153c2.525-53.637 7.046-130.891 15.324-158.355 8.279-27.465 14.033-54.284 14.033-54.284s-1.85-9.693-5.079-11.485"/><path fill="url(#o)" d="M105.36 684.913c22.956 9.576 65.728 8.313 65.728 8.313l.147-1.116.176 1.116s42.743 1.263 65.729-8.313l11.448-69.381H93.881z"/><path fill="url(#p)" d="M295.823 236.02s-1.908-9.576-5.079-11.485c-2.407-1.439-80.612 6.11-119.509 9.987-38.897-3.877-117.102-11.426-119.48-9.987-3.2 1.909-5.108 11.485-5.108 11.485s5.871 26.819 14.032 54.283c4.932 16.273 8.484 49.936 11.126 86.037 40.6-.441 147.075-1.498 198.947-.97 2.613-35.601 6.165-68.94 11.038-85.184 8.308-27.347 14.033-54.166 14.033-54.166"/><path fill="#000" d="M89.39 488.196a4707 4707 0 0 0-1.703-23.881 27093 27093 0 0 0-3.934-55.253l-4.403-61.979a16632 16632 0 0 0-3.112-44.061c-.205-2.556-.382-5.111-.558-7.637a.325.325 0 0 0-.323-.323.33.33 0 0 0-.228.094.33.33 0 0 0-.095.229q.88 11.984 1.703 23.91 1.996 27.612 3.934 55.253l4.403 61.979q1.585 22.03 3.141 44.061l.529 7.637c0 .411.675.323.646 0zM252.023 488.196c.558-7.961 1.145-15.921 1.703-23.881q1.996-27.612 3.934-55.253l4.403-61.979q1.527-22.03 3.141-44.061l.529-7.637c0-.086.034-.168.094-.229a.326.326 0 0 1 .457 0 .32.32 0 0 1 .094.229c-.557 7.989-1.144 15.95-1.702 23.91q-1.967 27.612-3.934 55.253l-4.403 61.979a32603 32603 0 0 0-3.141 44.061l-.529 7.637c0 .411-.675.323-.646 0z"/><path fill="url(#q)" d="M24.953 128.746a275.4 275.4 0 0 0 5.724 79.839c-1.203 15.01-1.115 56.427-.499 98.961 1.967-18.418 4.61-37.217 4.991-48.526a442.6 442.6 0 0 0-2.554-64.623c-2.554-20.562-6.4-45.97-6.4-45.97 0-30.637 12.77-90.678 44.68-112.385 28.74-19.563 79.791-30.314 89.596-32.312a244.2 244.2 0 0 0-85.78 22.648C42.186 41.917 28.77 88.533 24.954 128.746m293.21 0c-3.816-40.213-17.203-86.83-49.906-102.163a245.1 245.1 0 0 0-84.34-22.559c10.862 2.145 60.797 12.866 89.125 32.136 31.911 21.707 43.389 84.949 43.389 115.586 0 0-2.554 22.354-5.108 42.769a438.4 438.4 0 0 0-2.554 64.622c.323 9.723 2.319 25.027 4.139 40.86.499-39.743.499-77.195-.616-91.295a275.4 275.4 0 0 0 5.871-79.956"/><path fill="#000" d="M287.662 218.778h-.235l-116.544-30.52-116.574 30.52h-.235a.74.74 0 0 1-.47 0 .86.86 0 0 1-.41-.588c0-.294-4.932-29.374 13.65-91.941 16.47-55.487 29.591-89.208 36.901-94.966 3.904-2.937 25.599-18.476 67.108-18.476S234.087 28.2 238.02 31.283c7.31 5.875 20.403 39.479 36.872 94.966 18.582 62.479 13.709 91.647 13.651 91.941a.94.94 0 0 1-.412.588.7.7 0 0 1-.469 0"/><path fill="url(#r)" d="M274.041 126.426C255.311 63.418 243.393 36.6 237.463 31.9s-27.889-18.3-66.58-18.3-60.621 13.63-66.58 18.3c-5.96 4.67-17.849 31.518-36.578 94.526s-13.621 91.5-13.621 91.5l116.808-30.579 116.779 30.579s5.079-28.523-13.65-91.5"/><path fill="url(#s)" d="M268.375 126.426C250.761 63.418 239.429 36.6 233.793 31.9s-26.421-18.3-62.91-18.3c-36.578 0-57.274 13.63-62.911 18.3-5.636 4.67-16.88 31.518-34.581 94.526s-12.888 91.5-12.888 91.5l110.409-30.579 110.379 30.579s4.785-28.523-12.916-91.5"/><path fill="url(#t)" d="M59.417 207.292s23.485-53.637 111.025-53.637 112.963 54.93 112.963 54.93l-99.576 7.666-123.795-6.286z"/><path fill="#199675" d="M175.492 23.617a7.38 7.38 0 0 0-4.551-3.378h-.264a7.24 7.24 0 0 0-4.55 3.378v4.23h.499v-3.76a6.79 6.79 0 0 1 4.051-3.378 6.78 6.78 0 0 1 4.081 3.378v3.76h.499z"/><path fill="#B57300" d="M174.992 24.263a6.79 6.79 0 0 0-4.08-3.378 6.79 6.79 0 0 0-4.051 3.378v3.76h.293v-3.114a6.287 6.287 0 0 1 3.787-3.143 6.28 6.28 0 0 1 3.787 3.143v3.349h.294z"/><path fill="#EBDE50" d="M170.912 21.62a6.29 6.29 0 0 0-3.787 3.142v3.349c2.511.666 5.152.666 7.662 0v-3.202a6.28 6.28 0 0 0-3.875-3.29"/><path fill="#000" d="M82.608 41.388a178 178 0 0 1-16.704 8.489 128.7 128.7 0 0 0-21.606 11.426 692 692 0 0 0-5.342 10.722s-3.2 9.546 7.104 10.457c10.304.91 30.442-5.405 35.697-20.738 2.936-8.225 3.787-15.833 2.114-21.09z"/><path fill="#199675" d="M38.985 71.614a7.11 7.11 0 0 0 3.485 9.23 7.1 7.1 0 0 0 3.531.669c10.216.646 29.68-5.875 35.228-20.562s4.785-26.819-6.4-27.758-23.28 14.686-26.802 21.06c-3.523 6.375-9.042 17.36-9.042 17.36"/><path fill="#199675" d="M78.968 35.954c1.057 4.259-3.2 5.316-11.918 7.666-10.275 2.761-20.872 15.099-23.28 18.594-2.524 4.905-4.785 9.4-4.785 9.4a7.11 7.11 0 0 0 3.485 9.23 7.1 7.1 0 0 0 3.531.669c9.541.587 27.155-4.935 33.848-17.625.587-1.674 1.204-3.525 1.879-5.551 5.343-15.98-2.76-22.383-2.76-22.383"/><path fill="#000" d="M81.052 47.674a94 94 0 0 0-2.553 3.407c-.206.353.293.735.528.412a42 42 0 0 1 2.172-2.938 14.4 14.4 0 0 1 3.142-3.407 6 6 0 0 0 0-.734 13.7 13.7 0 0 0-3.289 3.26M71.63 37.658a2.03 2.03 0 0 1-2.026 2.026 2.025 2.025 0 0 1-2.026-2.026 2.027 2.027 0 0 1 3.458-1.434c.38.38.593.896.593 1.434"/><path fill="#199675" d="M70.866 37.452a1.41 1.41 0 0 1-1.41 1.439 1.467 1.467 0 0 1-1.037-2.507c.275-.276.648-.43 1.038-.43a1.41 1.41 0 0 1 1.409 1.498M80.465 59.57l.969-1.586c.763-5.58 0-12.866-9.276-13.512 0 0-8.807 12.572-9.336 12.984l-22.78 14.246a23.8 23.8 0 0 0-1.116 5.581 6.3 6.3 0 0 0 1.204 1.968 40.4 40.4 0 0 0 23.148-3.726A40.43 40.43 0 0 0 80.465 59.57"/><path fill="#199675" d="M46.001 81.513c9.835.617 28.212-5.287 34.406-18.8a31 31 0 0 0 1.027-4.729l-.968 1.587a40.43 40.43 0 0 1-17.188 15.955A40.4 40.4 0 0 1 40.13 79.25a8.42 8.42 0 0 0 5.871 2.262"/><path fill="#199675" d="M40.247 71.29s-3.493 7.99 13.416 4.789c16.91-3.202 27.448-16.596 25.834-25.85-1.615-9.252-17.614-6.08-26.803 5.406C43.506 67.12 40.247 71.29 40.247 71.29"/><path fill="#199675" d="M54.779 72.466c5.871 2.173 13.18-2.938 16.263-11.28A17.63 17.63 0 0 0 69.868 45a29.35 29.35 0 0 0-17.174 10.633 438 438 0 0 1-4.403 5.493c.088 5.376 2.437 9.84 6.488 11.339"/><path fill="#000" d="M39.954 71.174a4.03 4.03 0 0 0 .587 4.112 6.8 6.8 0 0 0 4.433 1.792c3.599.23 7.211-.147 10.685-1.117a36.42 36.42 0 0 0 18.113-10.34 20.24 20.24 0 0 0 6.194-14.275 7.043 7.043 0 0 0-7.192-6.756 23.48 23.48 0 0 0-14.678 5.405 41.8 41.8 0 0 0-7.192 7.402l-6.459 7.99c-1.497 1.88-2.935 3.789-4.491 5.698a.324.324 0 0 0 .499.412c1.937-2.527 3.934-5.023 5.871-7.52 5.108-6.433 9.834-13.16 17.614-16.773 4.315-2.056 12.505-4.083 14.913 1.763 2.201 5.316-1.674 11.75-5.02 15.686a36.7 36.7 0 0 1-27.448 11.75c-2.79 0-7.428-1.352-5.872-5.112.206-.264-.381-.5-.557-.117"/><path fill="#199675" d="M60.68 60.158c8.806-4.788 11.889-.382 12.3 4.2.41-5.14-1.938-12.014-12.3-6.462-13.093 7.05-12.77 17.889-12.77 17.889l.205.205a22.36 22.36 0 0 1 12.564-15.832"/><path fill="#199675" d="M53.663 76.079a36.7 36.7 0 0 0 18.993-9.752q.237-.987.323-1.998c-.41-4.582-3.375-8.988-12.3-4.2A22.34 22.34 0 0 0 48.115 75.96l.792.764a38 38 0 0 0 4.756-.646"/><path fill="#000" d="M42.508 68.735a2 2 0 0 1 0-.382l-2.32 2.937s-3.493 7.99 13.416 4.788a38.4 38.4 0 0 0 7.369-2.173c-2.437.617-20.256 4.64-18.465-5.17M259.069 41.388a174 174 0 0 0 16.674 8.489 129 129 0 0 1 21.635 11.426 875 875 0 0 1 5.314 10.722s3.229 9.546-7.104 10.457c-10.334.91-30.443-5.405-35.697-20.738-2.936-8.225-3.758-15.833-2.114-21.09z"/><path fill="#199675" d="M302.78 71.614a7.113 7.113 0 0 1-3.485 9.23 7.1 7.1 0 0 1-3.531.669c-10.187.646-29.65-5.875-35.228-20.562-5.577-14.687-4.785-26.819 6.371-27.758 11.155-.94 23.308 14.686 26.802 21.06 3.493 6.375 9.071 17.36 9.071 17.36"/><path fill="#199675" d="M262.709 35.954c-1.057 4.259 3.2 5.316 11.918 7.666 10.304 2.761 20.873 15.099 23.28 18.594 2.554 4.905 4.785 9.4 4.785 9.4a7.113 7.113 0 0 1-3.485 9.23 7.1 7.1 0 0 1-3.531.669c-9.541.587-27.155-4.935-33.848-17.625a385 385 0 0 1-1.879-5.551c-5.313-15.98 2.76-22.383 2.76-22.383"/><path fill="#000" d="M260.625 47.674a54 54 0 0 1 2.554 3.407c.234.353-.265.735-.499.412a76 76 0 0 0-2.173-2.938 15.2 15.2 0 0 0-3.17-3.407v-.734c1.285.876 2.4 1.981 3.288 3.26M270.048 37.658a2.03 2.03 0 0 0 1.25 1.872 2.027 2.027 0 1 0-1.25-1.872"/><path fill="#199675" d="M270.752 37.452a1.44 1.44 0 0 0 1.439 1.439 1.47 1.47 0 0 0 0-2.937 1.45 1.45 0 0 0-1.039.442q-.203.212-.307.487c-.069.181-.1.375-.093.569M261.241 59.57l-.998-1.586c-.763-5.58 0-12.866 9.276-13.512 0 0 8.807 12.572 9.365 12.984l22.751 14.246c.611 1.804.986 3.68 1.116 5.581a5.4 5.4 0 0 1-1.204 1.968 40.38 40.38 0 0 1-23.134-3.729 40.4 40.4 0 0 1-17.172-15.952"/><path fill="#199675" d="M295.676 81.513c-9.805.617-28.182-5.287-34.406-18.8a35 35 0 0 1-1.027-4.729l.998 1.587a40.4 40.4 0 0 0 17.173 15.951 40.37 40.37 0 0 0 23.133 3.73 8.42 8.42 0 0 1-5.871 2.261"/><path fill="#199675" d="M301.43 71.29s3.522 7.99-13.416 4.789c-16.939-3.202-27.419-16.596-25.834-25.85 1.586-9.252 17.614-6.08 26.803 5.406C298.171 67.12 301.43 71.29 301.43 71.29"/><path fill="#199675" d="M286.928 72.466c-5.872 2.173-13.211-2.938-16.293-11.28A17.639 17.639 0 0 1 271.839 45a29.1 29.1 0 0 1 17.144 10.633l4.403 5.493c-.088 5.376-2.348 9.84-6.458 11.339"/><path fill="#000" d="M301.723 71.173a3.88 3.88 0 0 1-.587 4.113 6.78 6.78 0 0 1-4.403 1.791 32.3 32.3 0 0 1-10.715-1.116 36.54 36.54 0 0 1-18.113-10.34 20.34 20.34 0 0 1-6.224-14.275 7.018 7.018 0 0 1 7.193-6.756 23.48 23.48 0 0 1 14.678 5.405 42 42 0 0 1 7.221 7.402c2.143 2.673 4.287 5.346 6.4 8.048 1.527 1.88 2.936 3.79 4.492 5.699.264.323-.235.734-.47.411-1.967-2.526-3.963-5.023-5.871-7.52-5.108-6.433-9.805-13.16-17.438-16.772-4.315-2.056-12.535-4.083-14.942 1.762-2.202 5.317 1.673 11.75 5.049 15.686a36.557 36.557 0 0 0 27.419 11.75c2.789 0 7.427-1.352 5.871-5.112-.323-.323.264-.558.44-.176"/><path fill="#199675" d="M280.998 60.158c-8.807-4.788-11.889-.382-12.271 4.2-.44-5.14 1.908-12.014 12.271-6.462 13.093 7.05 12.77 17.889 12.77 17.889l-.176.205a22.51 22.51 0 0 0-12.594-15.832"/><path fill="#199675" d="M288.102 76.079a36.8 36.8 0 0 1-18.993-9.752 13.5 13.5 0 0 1-.294-1.998c.382-4.582 3.376-8.988 12.271-4.2A22.49 22.49 0 0 1 293.68 75.96l-.793.764a38 38 0 0 1-4.785-.646"/><path fill="#000" d="M299.199 68.735v-.382l2.289 2.937s3.523 7.99-13.416 4.788a38 38 0 0 1-7.339-2.173c2.408.617 20.256 4.64 18.466-5.17"/><path fill="#929292" d="M31.646 256.611a28 28 0 0 1 6.547 3.525s3.346 4.142 1.76 14.364a7.022 7.022 0 0 1-5.871 4.465c-4.49.323-4.96-6.844-4.96-6.844z"/><path fill="#000" d="M19.375 263.808s7.633-7.99 11.743-7.344c4.11.647 5.108 16.274 3.493 20.562s-15.236-13.218-15.236-13.218"/><path fill="#199675" d="M4.521 296.061a23.51 23.51 0 0 1 4.902-21.943c8.807-11.279 16.792-16.155 20.197-15.304 3.406.852 6.811 16.391 4.257 25.321l-20.55 7.226z"/><path fill="#199675" d="M29.767 261.693c2.437.588 4.844 8.607 5.108 16.42.323-8.577-2.378-18.623-5.108-19.299-3.405-.851-11.273 4.025-20.197 15.304A24.95 24.95 0 0 0 3.7 291.361a25.36 25.36 0 0 1 5.871-14.364c8.778-11.221 16.645-16.156 20.197-15.304"/><path fill="#199675" d="M33.701 283.547a2.67 2.67 0 0 0-1.321-1.88 5.05 5.05 0 0 0-2.76-.676 32.8 32.8 0 0 0-11.742 3.584 43.2 43.2 0 0 0-8.807 5.17c-4.198 3.378-4.315 5.875-4.315 6.08a.97.97 0 0 0 .323.735.97.97 0 0 0 .558.176h.205c16.762-3.877 28.3-10.575 27.86-13.189"/><path fill="#199675" d="M5.578 295.825c18.523-4.23 27.448-10.839 27.242-12.131a1.82 1.82 0 0 0-.91-1.263c-5.49 4.582-17.878 7.196-22.34 8.019-3.992 3.202-3.992 5.375-3.992 5.375"/><path fill="#000" d="M18.025 285.398a42 42 0 0 0-8.572 5.052c4.462-.823 16.85-3.437 22.34-8.019-1.321-.882-4.962-1.028-13.768 2.967"/><path fill="#929292" d="M310.354 256.611a27.4 27.4 0 0 0-6.547 3.525s-3.346 4.142-1.761 14.364a7.023 7.023 0 0 0 5.871 4.465c4.492.323 4.962-6.844 4.962-6.844z"/><path fill="#000" d="M322.625 263.808s-7.633-7.99-11.743-7.344c-4.109.647-5.108 16.274-3.493 20.562s15.236-13.218 15.236-13.218"/><path fill="#199675" d="M337.479 296.061a23.51 23.51 0 0 0-4.902-21.943c-8.807-11.279-16.792-16.155-20.197-15.304-3.406.852-6.811 16.391-4.257 25.321l20.549 7.226z"/><path fill="#199675" d="M312.38 261.693c-2.437.588-4.844 8.607-5.138 16.42-.293-8.577 2.408-18.623 5.138-19.299 3.405-.851 11.273 4.025 20.197 15.304a24.95 24.95 0 0 1 5.871 17.243 25.36 25.36 0 0 0-5.871-14.364c-8.924-11.221-16.792-16.156-20.197-15.304"/><path fill="#199675" d="M308.299 283.547a2.58 2.58 0 0 1 1.321-1.88 5.05 5.05 0 0 1 2.76-.676 32.8 32.8 0 0 1 11.742 3.584 43.2 43.2 0 0 1 8.807 5.17c4.198 3.378 4.315 5.875 4.315 6.08a.96.96 0 0 1-.323.735 1.03 1.03 0 0 1-.557.176h-.206c-16.762-3.877-28.299-10.575-27.859-13.189"/><path fill="#199675" d="M336.422 295.825c-18.523-4.23-27.448-10.839-27.242-12.131a1.82 1.82 0 0 1 .91-1.263c5.489 4.582 17.848 7.196 22.311 8.019 3.992 3.202 4.021 5.375 4.021 5.375"/><path fill="#000" d="M323.858 285.398a40.8 40.8 0 0 1 8.543 5.052c-4.462-.823-16.822-3.437-22.311-8.019 1.497-.882 4.99-1.028 13.768 2.967M232.942 643.408a4.6 4.6 0 0 0-2.613-.646 40 40 0 0 0-6.488.91c-2.495.47-5.577 1.028-9.364 1.528-17.614 2.32-40.952 3.084-43.536 3.172-2.583.088-26.039-.852-43.564-3.172-3.817-.5-6.899-1.058-9.365-1.528a41 41 0 0 0-6.488-.91 4.7 4.7 0 0 0-2.642.646c-2.025 1.292-2.26 4.347-2.26 10.545a1.05 1.05 0 0 0 .323.764 33.2 33.2 0 0 0 17.613 7.608 426 426 0 0 0 46.119 4.23h.294a426 426 0 0 0 46.412-4.23 33.23 33.23 0 0 0 17.614-7.608q.148-.153.226-.351a1 1 0 0 0 .067-.413c-.029-6.315-.293-9.253-2.348-10.545"/><path fill="#199675" d="M232.531 644.289c.307 2.268.425 4.557.352 6.844a31.66 31.66 0 0 1-16.704 7.373 399 399 0 0 1-45.12 4.23h-.382a398 398 0 0 1-45.091-4.23 31.67 31.67 0 0 1-16.704-7.373 45.4 45.4 0 0 1 .323-6.844c-1.615 1.028-1.82 3.76-1.82 9.635a32.5 32.5 0 0 0 17.115 7.402 417 417 0 0 0 46.177 4.23h.294a418 418 0 0 0 46.206-4.23 32.5 32.5 0 0 0 17.086-7.402c.088-5.875-.118-8.607-1.732-9.635"/><path fill="#199675" d="M125.674 658.506a398 398 0 0 0 45.003 4.23h.294a398 398 0 0 0 45.12-4.23 31.66 31.66 0 0 0 16.704-7.373 41 41 0 0 0-.352-6.844c-2.231-1.439-7.163.47-17.966 1.909-17.761 2.35-41.569 2.938-43.653 3.144s-25.863-.794-43.623-3.144c-10.833-1.439-15.765-3.348-17.996-1.909a45.4 45.4 0 0 0-.323 6.844 31.66 31.66 0 0 0 16.792 7.373"/><path fill="#199675" d="m203.351 652.191-23.662-4.553a83 83 0 0 0-8.806 1.233 82 82 0 0 0-8.807-1.233c-.94.147-23.661 4.465-23.661 4.465s-.323 5.874 8.454 7.343a189 189 0 0 0 23.955 1.586c8.02-.021 16.031-.55 23.984-1.586 8.836-1.498 8.543-7.255 8.543-7.255"/><path fill="#000" d="m204.584 648.725-24.572-4.436a89 89 0 0 0-9.1 1.204 89 89 0 0 0-9.071-1.204l-24.571 4.436s-.323 5.874 8.807 7.314a204 204 0 0 0 24.864 1.586c8.323-.02 16.636-.55 24.894-1.586 9.072-1.587 8.749-7.314 8.749-7.314"/><path fill="#000" d="M235.261 631.276a4.85 4.85 0 0 0-2.701-.646 43.5 43.5 0 0 0-6.752.911 186 186 0 0 1-9.717 1.527c-18.171 2.321-42.508 3.084-45.179 3.173s-27.037-.852-45.238-3.173c-3.934-.499-7.134-1.057-9.717-1.527a44 44 0 0 0-6.722-.911 4.97 4.97 0 0 0-2.731.646c-2.113 1.293-2.348 4.348-2.348 10.516a1.1 1.1 0 0 0 .323.793 34.86 34.86 0 0 0 18.201 7.608 458 458 0 0 0 47.997 4.23H171a458 458 0 0 0 48.056-4.23 35.2 35.2 0 0 0 18.201-7.608 1.09 1.09 0 0 0 .323-.793c.088-6.168-.147-9.223-2.319-10.516"/><path fill="#199675" d="M234.879 632.158c.308 2.267.425 4.557.352 6.844a33.34 33.34 0 0 1-17.349 7.373 429 429 0 0 1-46.794 4.2h-.411a428 428 0 0 1-46.823-4.23 33.13 33.13 0 0 1-17.32-7.373 45.4 45.4 0 0 1 .323-6.844c-1.674.999-1.879 3.76-1.879 9.635a34.2 34.2 0 0 0 17.76 7.402 449 449 0 0 0 47.939 4.348H171a450 450 0 0 0 47.939-4.23 34.4 34.4 0 0 0 17.613-7.403c.235-5.992 0-8.724-1.673-9.722"/><path fill="#199675" d="M123.942 646.374a428 428 0 0 0 46.735 4.201H171a428 428 0 0 0 46.794-4.23 33.34 33.34 0 0 0 17.35-7.373 41 41 0 0 0-.353-6.844c-2.319-1.439-7.427.47-18.641 1.909-18.465 2.35-43.154 2.938-45.326 3.173s-26.861-.823-45.297-3.173c-11.214-1.439-16.351-3.348-18.67-1.909a45.4 45.4 0 0 0-.323 6.844 33.13 33.13 0 0 0 17.408 7.402"/><path fill="#199675" d="m204.584 640.059-24.572-4.465c-3.052.256-6.09.668-9.1 1.234a89 89 0 0 0-9.071-1.234l-24.571 4.465s-.323 5.875 8.807 7.344a204 204 0 0 0 24.864 1.586c8.323-.02 16.636-.55 24.894-1.586 9.072-1.586 8.749-7.344 8.749-7.344"/><path fill="#000" d="m205.905 636.593-25.481-4.435c-.881-.147-7.839.94-9.453 1.204a94 94 0 0 0-9.423-1.204l-25.511 4.435s-.323 5.875 9.1 7.314a220 220 0 0 0 25.834 1.587 220 220 0 0 0 25.833-1.587c9.394-1.586 9.101-7.314 9.101-7.314"/><path fill="#000" d="M236.905 621.73a5.9 5.9 0 0 0-2.936-.558c-2.305.107-4.6.372-6.869.793-2.642.411-5.872.94-9.981 1.381-18.642 2.114-43.565 2.79-46.295 2.937s-27.712-.764-46.354-2.937c-4.051-.441-7.309-.97-9.951-1.381a50 50 0 0 0-6.899-.793 5.86 5.86 0 0 0-2.789.558c-2.172 1.175-2.407 3.936-2.407 9.547a.94.94 0 0 0 .323.705 38 38 0 0 0 18.641 6.903c11.39 1.498 36.842 3.789 49.26 3.848h.323c12.388 0 37.84-2.35 49.259-3.848a38.15 38.15 0 0 0 18.641-6.903.94.94 0 0 0 .324-.705c.117-5.611-.118-8.372-2.29-9.547"/><path fill="#199675" d="M236.464 622.523a34 34 0 0 1 .353 6.198 36 36 0 0 1-17.614 6.697c-11.742 1.586-36.314 3.789-47.968 3.848h-.558c-11.742 0-36.255-2.262-47.968-3.848a35.8 35.8 0 0 1-17.761-6.697 34 34 0 0 1 .353-6.198c-1.732.94-1.938 3.407-1.938 8.812a37.15 37.15 0 0 0 18.172 6.697c12.095 1.528 37.4 3.731 49.142 3.731H171c11.948 0 37.106-2.262 49.142-3.848a37.17 37.17 0 0 0 18.172-6.697c.088-5.288-.118-7.755-1.85-8.695"/><path fill="#199675" d="M122.797 635.418c11.742 1.587 36.314 3.79 47.968 3.848h.323c11.742 0 36.225-2.261 47.968-3.848a36 36 0 0 0 17.614-6.697 34 34 0 0 0-.353-6.198c-2.377-1.292-7.603.441-19.11 1.733-18.906 2.144-44.211 2.937-46.442 2.937s-27.507-.734-46.412-2.937c-11.508-1.292-16.762-2.937-19.111-1.733a34 34 0 0 0-.352 6.198 35.8 35.8 0 0 0 17.907 6.697"/><path fill="#252525" d="M250.878 486.551H91.092s-8.513.852-8.073 12.778 11.92 103.866 11.92 103.866 8.806 11.75 75.973 11.75h.176c67.05 0 75.974-11.75 75.974-11.75s11.478-91.97 11.919-103.866c.44-11.897-8.103-12.778-8.103-12.778"/><path fill="url(#u)" d="M171.088 607.865h-.176c-47.821 0-64.408-6.168-69.193-8.812-2.29-18.535-11.126-90.031-11.478-100.107 0-3.583.88-4.964 1.615-5.287h158.288c.734.323 1.732 1.704 1.586 5.287-.353 10.281-9.6 85.185-11.479 100.107-4.755 2.526-21.371 8.812-69.163 8.812"/><path fill="#404040" d="M62.588 318.414 45.15 242.629s-5.108 65.563 2.554 180.063 19.14 117.496 19.14 117.496 4.257-28.522 1.703-108.978c-2.466-77.87-5.96-112.796-5.96-112.796"/><path fill="#757575" d="M47.704 422.692c7.662 114.558 19.14 117.496 19.14 117.496a309 309 0 0 0 2.085-31.607c-.94-2.32-16.528-43.062-16.528-217.631 0-6.404 0-12.426-.294-18.065l-6.957-30.256s-5.108 65.563 2.554 180.063"/><path fill="#000" d="M47.704 422.692c7.662 114.558 19.14 117.496 19.14 117.496s.47-2.937.969-9.987v-.441C44.856 416.083 49.935 285.192 49.935 285.192l11.743 28.258-16.293-70.821s-5.343 65.563 2.319 180.063"/><path fill="#404040" d="m296.909 242.629-17.614 75.785s-3.493 34.926-5.871 112.796c-2.554 80.456 1.702 108.978 1.702 108.978s11.508-2.938 19.141-117.496c7.632-114.559 2.642-180.063 2.642-180.063"/><path fill="#757575" d="M294.267 422.692c7.662-114.559 2.554-180.063 2.554-180.063l-6.048 26.437q-.381 10.135-.411 22.03c0 180.063-16.586 217.72-16.586 217.72l-.704.94c.733 21.737 2.055 30.579 2.055 30.579s11.507-3.143 19.14-117.643"/><path fill="#000" d="M294.267 422.692c7.662-114.559 2.554-180.063 2.554-180.063l-17.291 75.139 13.386-32.576s5.108 130.891-17.848 244.568c0 0-.323 1.087-.793 2.938.44 5.258.793 7.637.793 7.637s11.566-3.143 19.199-117.643"/><path fill="url(#v)" d="m278.121 291.596 15.852-63.859c-32.292-71.115-119.803-66.591-122.856-66.415s-90.681-4.7-122.855 66.415l15.734 63.859s1.703 11.044 14.033 6.785 57.362-11.456 93.088-11.485c35.727-.029 80.759 7.255 93.059 11.485 12.301 4.23 13.945-6.785 13.945-6.785"/><path fill="#252525" d="m48.144 227.737 15.735 63.859s1.703 11.044 14.033 6.785 57.361-11.456 93.088-11.485c35.727-.03 80.759 7.255 93.059 11.485 12.301 4.23 14.062-6.785 14.062-6.785l15.852-63.859a102.36 102.36 0 0 0-28.24-37.158l-7.692 16.713s28.74 10.869 24.278 33.222a497 497 0 0 1-13.416 49.143 356 356 0 0 0-97.639-13.395l-.352.265-.352-.265a356 356 0 0 0-97.64 13.395 492 492 0 0 1-13.385-49.143c-4.492-22.353 24.248-33.222 24.248-33.222l-7.604-16.479a102.46 102.46 0 0 0-28.035 36.924"/><path fill="#000" d="M171 161.322c-2.936-.176-90.681-4.7-122.856 66.415l1.087 4.435c3.962-3.877 25.892-24.057 63.702-35.924l1.732-.529 1.762-.529a200.4 200.4 0 0 1 109.792 0l1.762.529 1.731.529a166.4 166.4 0 0 1 63.028 35.249l.94-3.79c-31.999-71.085-119.627-66.561-122.68-66.385"/><path fill="url(#w)" d="M54.69 222.625c28.858-53.49 92.091-57.808 111.378-57.808h9.835c19.14 0 81.61 4.26 110.761 56.633a178.7 178.7 0 0 0-55.777-28.639l-1.497-.47h-.734l-1.439-.441a203.93 203.93 0 0 0-111.818 0l-1.468.441h-.792l-1.351.411a179 179 0 0 0-57.215 29.844z"/><defs><linearGradient id="a" x1="170.853" x2="170.853" y1="692.58" y2="710.469" gradientUnits="userSpaceOnUse"><stop stop-color="#004D40"/><stop offset="1" stop-color="#126A55"/></linearGradient><linearGradient id="b" x1="171.323" x2="171.323" y1="689.173" y2="696.839" gradientUnits="userSpaceOnUse"><stop stop-color="#004D40"/><stop offset="1" stop-color="#126A55"/></linearGradient><linearGradient id="c" x1="47.792" x2="47.792" y1="73.2" y2="174.1" gradientUnits="userSpaceOnUse"><stop stop-color="#126A55"/><stop offset=".46" stop-color="#126A55"/><stop offset="1" stop-color="#126A55"/></linearGradient><linearGradient id="d" x1="294.854" x2="294.854" y1="73.2" y2="174.099" gradientUnits="userSpaceOnUse"><stop stop-color="#126A55"/><stop offset=".46" stop-color="#126A55"/><stop offset="1" stop-color="#199675"/></linearGradient><linearGradient id="e" x1="41.774" x2="67.964" y1="616.237" y2="606.025" gradientUnits="userSpaceOnUse"><stop stop-color="#004D40"/><stop offset="1" stop-color="#126A55"/></linearGradient><linearGradient id="f" x1="300.109" x2="273.948" y1="616.237" y2="606.025" gradientUnits="userSpaceOnUse"><stop stop-color="#004D40"/><stop offset="1" stop-color="#126A55"/></linearGradient><linearGradient id="g" x1="63.263" x2="63.263" y1="711.027" y2="394.904" gradientUnits="userSpaceOnUse"><stop stop-color="#126A55"/><stop offset="1" stop-color="#199675"/></linearGradient><linearGradient id="h" x1="279.06" x2="279.06" y1="711.027" y2="394.904" gradientUnits="userSpaceOnUse"><stop stop-color="#126A55"/><stop offset="1" stop-color="#126A55" stop-opacity=".071"/></linearGradient><linearGradient id="i" x1="171.558" x2="171.558" y1="727.418" y2="359.655" gradientUnits="userSpaceOnUse"><stop stop-color="#004D40"/><stop offset="1" stop-color="#126A55"/></linearGradient><linearGradient id="j" x1="78.234" x2="78.234" y1="619.145" y2="545.71" gradientUnits="userSpaceOnUse"><stop stop-color="#004D40"/><stop offset="1" stop-color="#126A55"/></linearGradient><linearGradient id="k" x1="105.8" x2="95.248" y1="525.383" y2="444.93" gradientUnits="userSpaceOnUse"><stop stop-color="#004D40"/><stop offset="1" stop-color="#126A55"/></linearGradient><linearGradient id="l" x1="264.147" x2="264.147" y1="619.145" y2="545.71" gradientUnits="userSpaceOnUse"><stop stop-color="#004D40"/><stop offset="1" stop-color="#126A55"/></linearGradient><linearGradient id="m" x1="236.553" x2="247.104" y1="525.383" y2="444.959" gradientUnits="userSpaceOnUse"><stop stop-color="#004D40"/><stop offset="1" stop-color="#126A55"/></linearGradient><linearGradient id="n" x1="171.235" x2="171.235" y1="400.661" y2="530.935" gradientUnits="userSpaceOnUse"><stop stop-color="#004D40"/><stop offset="1" stop-color="#126A55"/></linearGradient><linearGradient id="o" x1="171.235" x2="171.235" y1="742.398" y2="630.013" gradientUnits="userSpaceOnUse"><stop stop-color="#004D40"/><stop offset="1" stop-color="#126A55"/></linearGradient><linearGradient id="p" x1="171.235" x2="171.235" y1="352.87" y2="253.909" gradientUnits="userSpaceOnUse"><stop stop-color="#004D40"/><stop offset="1" stop-color="#126A55"/></linearGradient><linearGradient id="q" x1="171.558" x2="171.558" y1="217.896" y2="168.107" gradientUnits="userSpaceOnUse"><stop stop-color="#004D40"/><stop offset="1" stop-color="#126A55"/></linearGradient><linearGradient id="r" x1="170.883" x2="170.883" y1="14.893" y2="214.959" gradientUnits="userSpaceOnUse"><stop stop-color="#004D40"/><stop offset="1" stop-color="#126A55"/></linearGradient><linearGradient id="s" x1="170.883" x2="170.883" y1="14.893" y2="214.959" gradientUnits="userSpaceOnUse"><stop stop-color="#004D40"/><stop offset="1" stop-color="#126A55"/></linearGradient><linearGradient id="t" x1="171.411" x2="171.411" y1="99.372" y2="168.342" gradientUnits="userSpaceOnUse"><stop stop-color="#004D40"/><stop offset="1" stop-color="#126A55"/></linearGradient><linearGradient id="u" x1="171" x2="171" y1="547.649" y2="593.531" gradientUnits="userSpaceOnUse"><stop stop-color="#666"/><stop offset="1" stop-color="#888"/></linearGradient><linearGradient id="v" x1="171" x2="171" y1="226.444" y2="281.99" gradientUnits="userSpaceOnUse"><stop stop-color="#666"/><stop offset="1" stop-color="#888"/></linearGradient><linearGradient id="w" x1="170.677" x2="170.677" y1="184.322" y2="162.614" gradientUnits="userSpaceOnUse"><stop/><stop offset="1" stop-color="#606060"/></linearGradient></defs></svg>