<svg xmlns="http://www.w3.org/2000/svg" width="327" height="684" fill="none"><g clip-path="url(#a)"><path fill="#0F453A" d="M165.607 136.353c-24.583 0-44.511-30.094-44.511-67.216C118.623 25.927 127.278 0 165.607 0c42.038.96 44.511 32.014 44.511 69.137s-19.929 67.216-44.511 67.216"/><path fill="#24A580" d="M185.53 26.824v13.412h-42.471V26.824z"/><path fill="#126A55" d="M190 40.235v6.706h-51.412v-6.706z"/><path fill="#24A580" d="M194.47 64.824v6.706h-60.352v-6.706z"/><path fill="#199675" d="M286.118 207.883 262.647 95C184.412 48.06 92.765 71.53 64.824 99.472L44.706 207.883z"/><path fill="#24A580" stroke="#0F453A" stroke-width="2" d="M147.25 82.27c31.878-2.992 69.254 2.007 103.708 21.984l20.512 95.923H59.327l17.596-92.201c12.29-11.773 38.483-22.717 70.327-25.706Z"/><path fill="#126A55" d="M290.428 312.941a10 10 0 0 1 9.989 9.531l16.503 351.059c.268 5.701-4.282 10.469-9.989 10.469H23.893c-5.707 0-10.257-4.768-9.989-10.469l16.503-351.059a10 10 0 0 1 9.988-9.531z"/><path fill="#0F453A" d="M276.43 178.824a10 10 0 0 1 9.995 9.683l15.013 474c.179 5.644-4.348 10.317-9.995 10.317H39.381c-5.647 0-10.174-4.673-9.995-10.317l15.013-474a10 10 0 0 1 9.995-9.683z"/><rect width="422.471" height="26.823" x="261.53" y="221.294" fill="#126A55" rx="13.412" transform="rotate(90 261.53 221.294)"/><rect width="422.471" height="26.823" x="205.647" y="221.294" fill="#126A55" rx="13.412" transform="rotate(90 205.647 221.294)"/><rect width="422.471" height="26.823" x="149.765" y="221.294" fill="#126A55" rx="13.412" transform="rotate(90 149.765 221.294)"/><rect width="422.471" height="26.823" x="93.882" y="221.294" fill="#126A55" rx="13.412" transform="rotate(90 93.882 221.294)"/><path fill="#199675" d="M308.302 456a5 5 0 0 1 4.986 4.626L325.95 629.45a5 5 0 0 1-4.986 5.374h-25.905V456zM18.05 456a5 5 0 0 0-4.985 4.626L.403 629.45a5 5 0 0 0 4.986 5.374h25.905V456z"/></g><defs><clipPath id="a"><path fill="#fff" d="M0 0h326.353v684H0z"/></clipPath></defs></svg>