<svg xmlns="http://www.w3.org/2000/svg" width="306" height="793" fill="none"><g clip-path="url(#a)"><path fill="#115444" d="M117.179 763c0 16.569 13.432 30 30 30h7.933c16.569 0 30-13.431 30-30V663h-67.933z"/><path fill="#126A55" d="M126.17 753.025c0 13.793 11.182 24.975 24.976 24.975s24.975-11.182 24.975-24.975V695H126.17z"/><path fill="#555" d="M225.073 750.5 207.09 576l-20.979 3.5c2.498 51 7.593 156.6 7.992 171 .4 14.4 9.824 19.333 14.486 20 15.584 1.6 17.483-12.667 16.484-20"/><path fill="#666" d="M220.914 748.525 205.297 596.5l-13.192 3.539c1.847 44.286 5.614 135.982 5.91 148.486.295 12.505 7.264 16.788 10.711 17.367 11.523 1.39 12.927-10.999 12.188-17.367"/><rect width="43.957" height="13" x="129.167" y="772" fill="#20333A" rx="6.5"/><path fill="#0F453A" d="M86.21 553v-45H216.08c-.166 8-.399 28.2 0 45 .4 16.8-24.142 98.333-36.464 137-9.49 21.667-33.666 52-54.446 0-20.779-52-34.632-113-38.961-137"/><path fill="url(#b)" d="M99.197 565.092V529H203.09c-.133 6.416-.319 22.618 0 36.092.32 13.474-19.313 78.868-29.17 109.88-7.592 17.377-26.932 41.706-43.555 0s-27.705-90.631-31.168-109.88"/><path fill="#0F453A" d="M102.693 565.092V529h95.906c-.133 6.416-.32 22.618 0 36.092l-2.997 10.408-87.913 1.5z"/><path fill="#115444" d="m65.23 400.5 25.975 5L203.594 416c5.827-6.167 20.879-17.9 34.466-15.5s12.654 20.666 10.489 29.5l-27.472 90.5c-4.996 12.666-26.175 38.2-70.93 39s-66.601-31.667-71.93-48c-6.16-18.667-19.78-61.1-24.974-81.5-5.195-20.4 5.827-28.167 11.988-29.5"/><path stroke="#199675" stroke-linecap="round" stroke-width="4" d="M48.747 204c-2.83-3.333-10.39-8-17.982 0A9940 9940 0 0 0 5.29 231M257.041 204c2.831-3.333 10.39-8 17.982 0 7.593 8 20.147 21.333 25.475 27"/><path fill="url(#c)" d="M223.02 285.86c-5.44 90.14-32.427 116.5-72.429 116.5-40.001 0-63.382-16.36-72.428-116.5-2.997-82.5 31.982-108.36 71.984-108.36s75.425 23 72.873 108.36"/><path fill="url(#d)" d="M207.692 286.778C203.387 358.133 182.029 379 150.371 379s-50.162-12.951-57.32-92.222C90.678 221.471 118.361 201 150.018 201s59.693 18.207 57.673 85.778"/><path fill="#115444" d="M135.161 15.984C135.161 7.156 142.318 0 151.146 0s15.984 7.156 15.984 15.984V62h-31.969z"/><path fill="#199675" d="M128.168 75.977c0-12.69 10.288-22.977 22.978-22.977s22.977 10.287 22.977 22.977V130h-45.955z"/><path fill="#535353" d="M125.171 196v26.5h54.946V196z"/><ellipse cx="152.145" cy="224.5" fill="#BBB" rx="27.972" ry="11.5"/><path fill="#0F453A" d="M105.191 147.999c7.193-22 33.966-25.166 46.454-24 34.766-2.4 47.12 15 48.952 24 9.59 29.6-9.99 49.667-20.98 56.001h-53.946c-10.989-7.5-29.471-28.501-20.48-56.001"/><path fill="#115444" d="M179.617 204h-53.946c-9.827-6.707-25.645-24.209-22.452-47.5 25.137 5.833 69.405 14 98.633-4 6.34 27.131-11.812 45.493-22.235 51.5"/><path stroke="#0F453A" stroke-width="5" d="m151.413 126.489.202.018.202-.014c33.773-2.331 44.797 14.471 46.33 22.005l.028.138.043.134q.71 2.19 1.2 4.299c5.876 25.149-10.502 42.395-20.483 48.431h-52.479c-9.465-6.741-23.704-23.187-20.761-44.661a46 46 0 0 1 1.872-8.063c3.287-10.052 11.044-15.896 19.735-19.12 8.733-3.24 18.159-3.723 24.111-3.167Z"/><path fill="#222" d="M150.646 301c-26.401 0-38.295 22.167-40.959 34-13.32 8.667-32.269 32.9-1.499 60.5 34.366 55.2 74.26 23 89.911 0 27.173-30.4 9.324-53-2.997-60.5-3.829-10.833-12.487-34-44.456-34"/><path fill="#111" d="M108.188 395.5c34.366 55.2 74.26 23 89.911 0 15.713-17.578 16.372-32.549 11.75-43.5l-6.255 8c-2.831 16.5-16.684 49.1-49.451 47.5-32.768-1.6-47.953-30.667-51.45-45l-8.77-9c-4.686 11.331-3.453 26.108 14.265 42"/><path fill="#115444" d="M79.716 192.5c-8.391 0-19.814 5-24.476 7.5l3.996 9c7.193-4.4 16.65-5.167 20.48-5h152.35c3.996 0 11.655 4.667 14.985 7l7.493-9.5c-5.595-3.6-22.645-7.5-30.47-9z"/><rect width="74.962" height="14.993" fill="#199675" rx="7.496" transform="rotate(-44.528 303.911 124.421)skewX(-.057)"/><rect width="74.962" height="14.993" fill="#199675" rx="7.496" transform="matrix(-.7129 -.70126 -.70056 .7136 306 249.568)"/><path fill="#EA9E7C" d="M48.747 241v18l-20.48 4.5V251l-13.323-11.336c-3.577-3.044-3.775-8.5-.427-11.795l17.581-17.3a8 8 0 0 1 11.271.048l6.933 6.939a4.13 4.13 0 0 0 3.464 1.174c6.552-.874 10.444 7.095 5.727 11.724zM255.543 241v18l20.479 4.5V251l13.323-11.336c3.578-3.044 3.775-8.5.427-11.795l-17.581-17.3a8 8 0 0 0-11.271.048l-6.932 6.939a4.13 4.13 0 0 1-3.465 1.174c-6.551-.874-10.444 7.095-5.726 11.724z"/><path fill="#199675" d="m27.268 259.5 23.477-6.5c-.833 21.167 8.791 76.4 55.944 140 5.162 9.167 21.979 28.1 45.955 30.5 23.976-2.4 40.294-21.333 45.455-30.5 47.154-63.6 57.776-118.833 56.944-140l23.477 6.5c0 87.6-39.961 147.833-59.941 167l-14.985 87c-41.559 31.6-84.916 13.167-101.4 0l-14.985-87c-19.98-19.167-59.941-79.4-59.941-167"/><path fill="#115444" d="m27.268 259.5 23.477-6.5c-.103 2.619-.038 5.806.243 9.5l-23.579 6a286 286 0 0 1-.141-9M278.52 259.5l-23.477-6.5c.103 2.619.038 5.806-.244 9.5l23.58 6q.14-4.45.141-9"/></g><defs><linearGradient id="b" x1="151.146" x2="151.146" y1="529" y2="698" gradientUnits="userSpaceOnUse"><stop stop-color="#115444"/><stop offset="1" stop-color="#0F453A"/></linearGradient><linearGradient id="c" x1="150.567" x2="150.567" y1="177.5" y2="402.36" gradientUnits="userSpaceOnUse"><stop stop-color="#115444"/><stop offset="1" stop-color="#126A55"/></linearGradient><linearGradient id="d" x1="150.352" x2="150.352" y1="201" y2="379" gradientUnits="userSpaceOnUse"><stop stop-color="#126A55"/><stop offset="1" stop-color="#199675"/></linearGradient><clipPath id="a"><path fill="#fff" d="M0 0h306v793H0z"/></clipPath></defs></svg>