<svg xmlns="http://www.w3.org/2000/svg" width="379" height="716" fill="none"><g clip-path="url(#a)"><path fill="#000" d="M371.43 252.4a36.6 36.6 0 0 0-16.446-11.165 195.7 195.7 0 0 1 4.624-33.978 2 2 0 0 0 0-.447c4.065-4.987 8.465-16.524 8.465-42.985 0-20.543-.559-69.147-5.78-77.186a42 42 0 0 0-4.363-5.359 171.2 171.2 0 0 0-43.035-57.424c-17.416-15.11-31.438-22.777-41.656-22.777a14.1 14.1 0 0 0-8.147 2.095 14.07 14.07 0 0 0-5.501 6.354h-3.357a254 254 0 0 0-38.597-7.444 240 240 0 0 0-29.2-1.823c-9.749.013-19.488.622-29.162 1.823a263 263 0 0 0-38.374 7.444h-1.976a14.04 14.04 0 0 0-5.512-6.427 14.1 14.1 0 0 0-8.212-2.096c-10.218 0-24.24 7.667-41.655 22.776a170.9 170.9 0 0 0-42.998 57.425 39.5 39.5 0 0 0-4.363 5.396c-5.221 8.001-5.78 56.606-5.78 77.149 0 26.461 4.4 37.998 8.465 42.985a1.9 1.9 0 0 0 0 .446 196.6 196.6 0 0 1 4.661 34.09 37.6 37.6 0 0 0-16.073 11.165 27.7 27.7 0 0 0-6.086 10.041A27.6 27.6 0 0 0 0 274.134q.053.73.186 1.451a3.5 3.5 0 0 0 0 .596q.219.74.523 1.451l.335.596v.26l.336.484.298.372.373.372.746.596a5.1 5.1 0 0 0 1.909.826 5.1 5.1 0 0 0 2.081-.008 174 174 0 0 0 16.968-4.8c0 16.933.298 49.981.298 84.033a41.75 41.75 0 0 0 0 17.343c0 60.067-1.006 78.154-1.678 82.843a121.6 121.6 0 0 0-.41 38.668 82.2 82.2 0 0 1-3.133 18.124c-1.752 1.786-2.871 3.014-2.908 3.052a3.94 3.94 0 0 0-1.044 2.158c-6.34 46.446 1.528 102.642 1.901 104.987a21.43 21.43 0 0 0 6.713 12.207c3.505 11.499 19.317 36.546 31.773 45.44l.746.41 4.661 3.721.261.67c0 .224.224.484.373.745l.224.409q.222.422.485.819v.223a20.7 20.7 0 0 0 2.797 3.275l1.044.893 1.044.819.336.26 1.118.745.336.223 1.268.782h.224a46 46 0 0 0 4.885 2.456c11.896 5.173 55.565 12.802 111.392 12.877h.596c55.939 0 99.458-7.704 111.355-12.877a43 43 0 0 0 4.363-2.122 31.5 31.5 0 0 0 6.19-4.465l.858-.894.261-.26.746-.893v-.261a9 9 0 0 0 .671-.893c.299-.447.56-.893.783-1.303l7.459-5.694c12.455-8.894 28.267-33.941 31.773-45.44a21.65 21.65 0 0 0 6.749-12.207c.336-2.345 8.205-58.541 1.865-104.987a3.94 3.94 0 0 0-1.044-2.158s-1.156-1.266-2.909-3.052a82.4 82.4 0 0 1-3.132-18.087 122 122 0 0 0 2.013-37.7c-.671-4.615-1.491-22.702-1.678-82.471a40.86 40.86 0 0 0 0-18.198c0-34.686.187-68.329.299-83.662 8.95 3.052 16.967 4.801 17.378 4.912q.54.059 1.081 0a4.97 4.97 0 0 0 2.909-.967l.746-.559.373-.334v-.224q.181-.213.335-.446.196-.244.336-.521a.8.8 0 0 0 0-.224 2.4 2.4 0 0 0 .298-.521q.326-.665.522-1.377v-.67q.132-.739.187-1.488a27.656 27.656 0 0 0-6.414-22.069"/><path fill="gray" d="M356.252 87.346s-.336-.968-1.082-2.68a166.15 166.15 0 0 0-42.811-57.908C280.138-1.192 265.222 1.6 262.425 13.733 259.628 25.865 302.066 77 302.066 77l35.502 12.058z"/><path fill="url(#b)" d="M354.387 206.14s9.771-3.275 9.771-42.389-1.902-70.041-5.109-75.028c-5.147-7.89-23.83-22.813-30.804-20.953-6.973 1.861-10.74 31.225-10.74 32.602s5.109 87.122 5.109 87.122l13.537 29.773z"/><path fill="url(#c)" d="m337.419 213.285 15.476-9.527q.232-.15.485-.261c.895-.632 7.981-6.624 7.981-39.746 0-43.506-2.35-69.892-4.662-73.502-4.773-7.443-20.995-19.836-27.148-19.836a1.5 1.5 0 0 0-.597 0s-2.834 1.079-5.93 14.105a138 138 0 0 0-2.722 15.816c0 2.531 3.356 57.202 5.072 86.416l12.045 26.461z"/><path fill="gray" d="M355.767 523.407s-5.146-20.022-4.214-24.228a118 118 0 0 0-.448-37.216c-2.796-19.129-1.417-194.752-1.417-194.752s.933-42.389 6.079-61.034c0 0 1.865-13.063-5.146-8.857a79 79 0 0 0-14.47 12.579l-3.244 22.329-2.797 253.07 6.041 34.499z"/><path fill="url(#d)" d="M350.173 638.479a18.23 18.23 0 0 0 6.526-10.718c.933-6.513 7.944-59.546 1.865-103.87 0 0-16.334-17.715-20.995-17.715s-17.752 24.674-17.752 24.674-3.244 68.478-1.864 70.711 7.943 42.016 7.943 42.016a55.3 55.3 0 0 0 9.323 5.583 136 136 0 0 0 14.954-10.681"/><path fill="url(#e)" d="M335.107 646.182c2.2-1.339 8.279-5.917 13.313-9.899a15.3 15.3 0 0 0 5.52-8.932c.335-2.307 7.98-56.941 1.976-102.233-7.645-8.224-15.7-15.333-18.199-16.114-2.424 1.414-9.173 11.462-15.14 22.627-1.156 24.935-2.722 65.091-1.976 69.111 1.491 3.982 5.034 24.116 7.868 41.235 2.499 1.712 5.258 3.498 6.638 4.205"/><path fill="gray" d="M333.839 645.699s11.188-13.286 16.11-11.165c4.923 2.121-15.401 37.737-30.132 48.381l-7.682-12.579zM22.3 87.346s.374-.968 1.082-2.68a166.15 166.15 0 0 1 42.812-57.908c32.22-27.95 47.174-25.158 49.971-13.025C118.962 25.865 76.486 77 76.486 77L40.984 89.058z"/><path fill="url(#f)" d="M24.203 206.14s-9.808-3.275-9.808-42.389 1.902-70.041 5.109-75.028c5.146-7.89 23.83-22.813 30.84-20.953 7.011 1.861 10.74 31.225 10.74 32.602s-5.146 87.122-5.146 87.122l-13.537 29.773z"/><path fill="url(#g)" d="m41.133 213.285-15.476-9.527a2 2 0 0 0-.485-.261c-.895-.632-7.98-6.624-7.98-39.746 0-43.506 2.35-69.892 4.661-73.502 4.774-7.443 20.996-19.836 27.149-19.836.197-.041.4-.041.596 0 0 0 2.835 1.079 5.93 14.105a138 138 0 0 1 2.722 15.816c0 2.531-3.319 57.202-5.071 86.416l-12.046 26.461z"/><path fill="gray" d="M22.786 523.407s5.146-20.022 4.214-24.228a119.3 119.3 0 0 1 .447-37.216c2.797-19.129 1.417-194.752 1.417-194.752s-.932-42.389-6.079-61.034c0 0-1.864-13.063 5.147-8.857a79 79 0 0 1 14.47 12.579l3.244 22.329 2.834 253.07-6.079 34.499z"/><path fill="url(#h)" d="M28.38 638.479a18.23 18.23 0 0 1-6.527-10.718c-.932-6.513-7.943-59.546-1.864-103.87 0 0 16.333-17.715 20.995-17.715s17.751 24.674 17.751 24.674 3.282 68.478 1.865 70.711-7.943 42.016-7.943 42.016a55.3 55.3 0 0 1-9.323 5.583 136.5 136.5 0 0 1-14.955-10.681"/><path fill="url(#i)" d="M43.445 646.182c-2.2-1.339-8.279-5.917-13.313-9.899a15.3 15.3 0 0 1-5.52-8.932c-.335-2.307-7.98-56.941-1.976-102.233 7.645-8.224 15.7-15.333 18.199-16.114 2.424 1.414 9.174 11.462 15.14 22.627 1.157 24.935 2.723 65.091 1.977 69.111-1.492 3.982-5.035 24.116-7.869 41.235-2.498 1.712-5.258 3.498-6.638 4.205"/><path fill="gray" d="M44.713 645.699s-11.187-13.286-16.11-11.165 15.439 37.737 30.132 48.381l7.682-12.579z"/><path fill="url(#j)" d="m315.492 114.811 6.004-59.248s-31.997-41.458-64.217-42.389l-59.444 8.895-8.615 5.21-8.651-5.21-59.295-8.857C89.091 14.141 56.386 55.6 56.386 55.6l6.563 59.173-9.36 79.68 10.59 12.616 92.448-18.608 32.444-25.344 32.444 25.344 92.41 18.608 10.74-12.579z"/><path fill="url(#k)" d="m227.146 155.489-6.638-72.683-.373-30.778a199 199 0 0 0-14.693-13.956 107 107 0 0 0-11.896-3.163l-4.587.595-4.512-.595a108 108 0 0 0-11.934 3.163 200 200 0 0 0-14.693 13.956l-.41 30.778-6.675 72.683 13.649-.372s-.336-31.448 3.505-70.934c3.841-39.487 20.996-38.072 20.996-38.072s17.191-1.414 21.032 38.072 3.506 70.934 3.506 70.934z"/><path fill="#115444" d="M94.685 36.546a68.2 68.2 0 0 1 20.063-19.092 49.9 49.9 0 0 0-23.345 16.3c-10.74 13.064 3.282 2.792 3.282 2.792"/><path fill="#404040" d="M341.298 388.201c3.729 2.009 3.729-2.122 3.729-4.503 7.458-1.712 6.601-25.568-.448-32.49-2.685-2.605-5.146 0-4.848 3.089a34.6 34.6 0 0 0 3.506 8.001 12.6 12.6 0 0 1 1.984 4.866 12.56 12.56 0 0 1-2.492 9.968 12.6 12.6 0 0 1-4.042 3.365z"/><path fill="#DBDBDB" d="M342.938 358.465a25.46 25.46 0 0 1 3.357 12.244 13.46 13.46 0 0 1-3.729 9.193l-.448 7.108s2.312.819 2.2-3.722c0 0 5.035-2.307 5.259-11.983.223-10.607-2.35-16.896-6.676-19.464z"/><path fill="#199675" d="m311.539 689.018 9.099-6.996s23.233-40.529 23.233-76.852-2.089-81.875-2.797-122.292c-.709-40.416.708-103.423.708-140.453s-2.796-129.996-2.796-129.996l-23.122 2.084-24.501 58.02-14.021 287.197z"/><path fill="#115444" d="M336.748 491.252c0-27.912 2.797-149.311-2.088-278.451l4.176-.372s2.797 93.04 2.797 129.996-1.379 99.925-.708 140.453c.447 25.307 1.454 52.55 2.126 78.154l-4.215-.744s-2.088-41.087-2.088-69.036"/><path fill="url(#l)" d="m320.638 682.022-9.099 6.996-20.959-78.935 27.932-41.347a72.1 72.1 0 0 0 24.389-12.951c.485 17.342.821 34.127.821 49.311.149 36.397-23.084 76.926-23.084 76.926"/><path fill="#000" d="m337.457 520.281-1.418 10.83-5.929 10.829 2.797-17.454z"/><path fill="#DBDBDB" d="M323.658 221.994a82.3 82.3 0 0 1 14.917-10.272 70.24 70.24 0 0 0 2.797-32.601c-2.051-9.825-19.877 6.699-19.877 6.699l-8.428 15.37z"/><path fill="gray" d="m323.658 218.719 13.09-9.304s5.109-13.063 3.729-20.99c0 0-7.458 16.784-17.266 19.575-6.004 1.712.447 10.719.447 10.719"/><path fill="#DBDBDB" d="M328.954 207.182c1.268 1.042 3.729 0 5.743-2.307s2.387-5.062 1.081-6.104c-1.305-1.042-3.729 0-5.705 2.345-1.977 2.344-2.574 5.061-1.119 6.066"/><path fill="#404040" d="M37.367 388.201c-3.73 2.009-3.73-2.122-3.916-4.503-7.458-1.712-6.563-25.568.485-32.49 2.685-2.605 5.109 0 4.848 3.089a34.6 34.6 0 0 1-3.506 8.001 12.552 12.552 0 0 0 .508 14.834 12.6 12.6 0 0 0 4.042 3.365z"/><path fill="#DBDBDB" d="M35.726 358.465a25.05 25.05 0 0 0-3.356 12.244 13.46 13.46 0 0 0 3.729 9.193l.447 7.108s-2.312.819-2.2-3.722c0 0-5.034-2.307-5.258-11.983-.224-10.607 2.35-16.896 6.638-19.464z"/><path fill="#199675" d="m67.126 689.018-9.1-6.996s-23.12-40.529-23.12-76.852 2.125-81.875 2.834-122.292c.708-40.416-.709-103.423-.709-140.453s2.797-129.996 2.797-129.996l23.121 2.084 24.501 58.02 14.022 287.197z"/><path fill="#115444" d="M41.805 491.252c0-27.912-2.797-149.311 2.088-278.451l-4.177-.372s-2.797 93.04-2.797 129.996 1.38 99.925.709 140.453c-.448 25.307-1.455 52.55-2.126 78.154l4.214-.744s2.088-41.087 2.088-69.036"/><path fill="url(#m)" d="m58.027 682.022 9.099 6.996 20.958-78.935-27.97-41.347a72.2 72.2 0 0 1-24.35-12.951c-.486 17.342-.859 34.127-.859 49.311 0 36.397 23.122 76.926 23.122 76.926"/><path fill="#000" d="m41.245 520.281 1.417 10.83 5.93 10.829-2.797-17.454z"/><path fill="#DBDBDB" d="M55.006 221.994a83.8 83.8 0 0 0-14.917-10.272 69.7 69.7 0 0 1-2.797-32.601c2.088-9.825 20.063 6.513 20.063 6.513l8.428 15.37z"/><path fill="gray" d="m55.006 218.719-13.202-9.304s-5.109-13.063-3.729-20.99c0 0 7.459 16.784 17.267 19.575 6.115 1.712-.336 10.719-.336 10.719"/><path fill="#DBDBDB" d="M49.897 207.182c-1.268 1.042-3.73 0-5.743-2.307s-2.387-5.062-1.082-6.104c1.306-1.042 3.73 0 5.706 2.345 1.977 2.344 2.387 5.061 1.119 6.066"/><path fill="url(#n)" d="M323.36 203.349c-43.408-55.229-133.058-53.815-133.058-53.815h-2.014S98.787 148.12 55.23 203.349c0 0-26.627 183.103 8.838 439.968l46.913 30.368 57.766-5.21 20.548-76.479 20.548 76.479 57.765 5.21 46.914-30.368c35.427-256.865 8.838-439.968 8.838-439.968"/><path fill="#000" d="M322.018 204.056s.223-.633.559-1.675c-43.706-54.224-132.275-52.847-132.275-52.847h-2.014S98.787 148.12 55.23 203.349c36.615-32.97 84.214-51.16 133.53-51.029s96.819 18.573 133.258 51.736M335.816 239.15c.187-.189.442-.296.708-.297.219.002.43.081.597.223l7.831 6.327.932-.521a8.5 8.5 0 0 1 3.506-.67c5.78 0 13.612 4.428 19.019 10.755a23.552 23.552 0 0 1 6.377 18.831q.042.484 0 .968v.335a4.4 4.4 0 0 1-.298.819q.01.13 0 .26l-.187.298v.261l-.261.26-.447.335a.83.83 0 0 1-.56.223h-.223c-.97-.223-23.196-5.136-34.682-12.988l-5.445.223a1 1 0 0 1-.585-.259 1 1 0 0 1-.31-.56c-.074-.707-3.468-17.528 4.028-24.823"/><path fill="#202020" d="M338.091 263.973h-5.408s-3.505-16.933 3.729-23.93l8.391 6.811z"/><path fill="#fff" d="M372.064 277.074s-23.122-5.062-34.496-12.952c0 0 .523-14.477 8.727-18.31s30.132 11.165 27.521 27.949a4.027 4.027 0 0 1-1.752 3.313"/><path fill="#000" d="M372.064 277.074s-23.122-5.062-34.496-12.952c0 0 0-1.004.224-2.53a148.2 148.2 0 0 1 35.95 12.951 4.17 4.17 0 0 1-1.678 2.531M43.147 239.15a1 1 0 0 0-.709-.297.86.86 0 0 0-.596.223l-7.832 6.327-.932-.521a8.5 8.5 0 0 0-3.505-.67c-5.78 0-13.612 4.429-19.02 10.755a23.6 23.6 0 0 0-5.272 8.713 23.55 23.55 0 0 0-1.104 10.119 5.5 5.5 0 0 0 0 .967v.335c.055.287.156.564.298.819a1.6 1.6 0 0 0 0 .26v.298l.187.261.26.26.448.335a.81.81 0 0 0 .56.223h.223c.97-.223 23.196-5.135 34.682-12.988l4.4-.26a1.01 1.01 0 0 0 .895-.819c1.12-.224 4.513-17.045-2.983-24.34"/><path fill="#202020" d="m40.872 263.974 5.258-.335s3.506-16.933-3.729-23.93l-8.39 6.811z"/><path fill="#fff" d="M6.9 277.074s23.12-5.062 34.494-12.952c0 0-.522-14.477-8.763-18.31-8.242-3.833-30.095 11.165-27.485 27.949a4.01 4.01 0 0 0 1.753 3.313"/><path fill="#000" d="M6.9 277.074s23.12-5.062 34.494-12.952c0 0 0-1.004-.224-2.53a148.2 148.2 0 0 0-35.949 12.951 4.17 4.17 0 0 0 1.678 2.531"/><path fill="#202020" d="M322.726 224.301s-40.201-53.963-133.058-54.484h-1.38c-92.857.521-133.058 54.484-133.058 54.484s-4.886 46.111-4.886 179.605a1677 1677 0 0 0 16.782 238.183s24.5 20.953 26.626 22.33 53.216 10.494 53.216 10.494l41.991-35.69 42.028 35.69s51.128-9.006 53.216-10.346 26.627-22.329 26.627-22.329a1677 1677 0 0 0 16.781-238.183c0-133.643-4.885-179.754-4.885-179.754"/><path fill="#000" d="M93.752 664.567c2.089 1.415 53.216 10.495 53.216 10.495l41.991-35.69 42.028 35.69s51.128-9.155 53.216-10.495 26.627-22.329 26.627-22.329 4.736-29.475 9.174-77.075l-237.477-5.396-24.612 4.689c4.437 48.009 9.21 77.782 9.21 77.782s24.502 20.915 26.627 22.329"/><path fill="url(#o)" d="M313.441 214.402c-16.633-15.594-56.312-44.213-123.773-44.659h-1.38c-67.126.372-106.767 28.693-123.549 44.361 24.538 22.665 71.079 37.998 124.481 37.998s99.608-15.147 124.221-37.7"/><path fill="url(#p)" d="M327.052 329.883H50.904c-.336 20.953-.56 45.478-.56 74.023 0 61.295 3.543 116.561 7.459 158.392a171 171 0 0 1 21.778-4.95l217.414 1.042 23.195 5.955c3.73-42.092 7.459-98.139 7.459-160.439-.038-28.545-.261-53.07-.597-74.023"/><path fill="gray" d="M78.35 547.858a40.84 40.84 0 0 1-21.144 8.82c.373 4.131.709 8.113 1.082 11.984 7.458-1.824 23.867-6.364 24.948-11.723a7.7 7.7 0 0 0-.697-5.476 7.7 7.7 0 0 0-4.188-3.605M62.167 216.635a80 80 0 0 0-6.936 7.443s-.634 5.955-1.455 19.725c2.872 14.03 10.256 46.036 22.375 70.412 16.11 32.155 33.563 33.495 33.563 33.495l-28.714-50.316s-17.528-50.242-18.833-80.722zm20.362 198.399c-13.687-6.066-26.105-21.66-32.184-29.773v22.664a119.4 119.4 0 0 0 29.387 18.348s21.741-2.791 2.797-11.202zm213.609 132.787a7.72 7.72 0 0 0-4.211 3.595 7.7 7.7 0 0 0-.712 5.485c1.306 6.55 25.21 11.835 28.38 12.505.372-4.131.783-8.448 1.156-12.877-12.605 1.452-24.613-8.671-24.613-8.671zm25.881-310.978s.372-4.95.783-11.686v-.893a88 88 0 0 0-10.367-10.904c0 29.996-19.057 84.294-19.057 84.294l-28.715 50.316s17.528-1.414 33.563-33.494 23.793-77.596 23.793-77.596zm5.556 143.356c-1.044 1.601-17.378 26.722-35.651 34.835-18.907 8.411 2.797 11.165 2.797 11.165a115 115 0 0 0 32.891-21.623v-.744q0-12.282-.037-23.595z"/><path fill="#000" d="M317.766 566.912c-13.35-3.089-23.867-7.443-24.463-10.383a5.5 5.5 0 0 1 2.573-6.215 40.5 40.5 0 0 0 22.375 8.485c-.261 2.754-.522 5.471-.746 8.113zm-257.576-.856-.672-7.443a43.2 43.2 0 0 0 19.131-8.262 5.47 5.47 0 0 1 2.356 2.667 5.46 5.46 0 0 1 .217 3.548c-.447 2.159-7.197 5.955-21.032 9.527zm19.839-142.053a118 118 0 0 1-27.596-17.157v-15.408c6.936 8.783 17.639 20.358 29.237 25.494 5.668 2.493 6.414 3.982 6.489 4.242a16.36 16.36 0 0 1-8.13 2.866zm214.392 0a16.37 16.37 0 0 1-8.129-2.866c0-.261.857-1.749 6.489-4.243 13.947-6.178 26.552-21.585 32.705-30.07v16.859a115.9 115.9 0 0 1-31.102 20.32zm-189.033-79.68c-6.005-2.717-16.931-10.272-27.261-30.927-12.157-24.264-19.578-56.568-22.375-69.631.67-11.165 1.193-16.97 1.342-18.608a231 231 0 0 1 3.133-3.722c2.685 30.555 18.087 74.879 18.646 76.852q-.032.186 0 .372l26.104 45.701zm163.675 0 26.104-45.701a4 4 0 0 0 .187-.373c.708-2.121 17.266-49.72 19.019-80.2a85 85 0 0 1 6.377 6.959c-.373 6.066-.709 10.681-.783 11.388-.411 2.382-8.167 46.111-23.606 76.889-10.33 20.655-21.257 28.21-27.261 30.926z"/><path fill="#000" d="M316.014 648.974a19.4 19.4 0 0 0-.299-3.275 6.59 6.59 0 0 0-2.521-3.966 6.6 6.6 0 0 0-4.527-1.282h-4.289l-.745.224h-.187l-.82.26-.895.298a41.5 41.5 0 0 0-5.408 2.419 103 103 0 0 1-15.103 5.098c1.082-1.116 2.424-2.642 3.916-4.465a84 84 0 0 0 2.349-3.052l.671-.968.597-.893.559-.856v-.186l.523-.856v-.223q.221-.421.484-.819l.261-.447q.238-.334.411-.707l.261-.446q.238-.374.41-.782l.224-.409.372-.745.299-.67.373-.707q.096-.312.261-.595v-.707q.096-.313.261-.596v-.186l.224-.521q.118-.252.186-.521v-.967l.261-.67v-.41q.015-.204 0-.409.156-.401.261-.819v-.595c0-.521.299-1.042.41-1.563 4.326-17.231 9.137-89.021 9.137-164.458 0-76.033-2.088-139.188-2.088-139.784v-2.642a1.7 1.7 0 0 1 0-.409 4 4 0 0 0 0-.559 29 29 0 0 0-.821-4.056 8 8 0 0 0-.261-.893c0-.298 0-.596-.298-.931 0-.297-.224-.632-.373-.967 0-.335-.261-.67-.41-1.042a39 39 0 0 0-3.729-7.444l-.821-1.228-.858-1.153-.932-1.117v-.223l-1.007-1.154-1.156-1.228a57 57 0 0 0-5.929-5.173 64 64 0 0 0-6.676-4.354c-28.715-16.375-55.043-23.112-90.843-23.186h-.672c-35.8 0-62.128 6.811-90.843 23.186-1.268.707-2.536 1.488-3.73 2.381l-1.864 1.303-1.716 1.265-1.528 1.266-1.492 1.302-1.417 1.34a40.02 40.02 0 0 0-11.598 20.618 7 7 0 0 0 0 .856v3.721c0 .596-2.089 63.751-2.089 139.784 0 75.437 4.811 147.227 9.137 164.458 0 .595.298 1.191.485 1.786v.558c0 .41.224.782.373 1.191v.633c0 .372.26.707.373 1.079q.155.307.26.633l.448 1.116v.41c0 .111.485 1.079.746 1.6l.709 1.451v.521l.559 1.005v.558l.522.931.336.521c0 .335.373.67.597 1.005v.223c.596.893 1.156 1.786 1.752 2.642v.186l.634.931.261.372.671.856c.224.335.485.633.746.968l1.753 2.121a86 86 0 0 0 2.685 3.014 105 105 0 0 1-14.917-5.061c-.447-.223-1.753-.93-3.543-1.675l-.895-.372-1.044-.409-2.163-.67h-.298l-.783-.186h-3.655a6.65 6.65 0 0 0-4.52 1.292 6.62 6.62 0 0 0-2.528 3.955 19 19 0 0 0-.298 3.722v1.451l3.095 30.592v1.712a7 7 0 0 0 0 .856v.558q-.03.373 0 .744v1.266c0 .186 0 .409.186.595q.06.309.187.596l.223.632q.132.252.224.521l.299.596v.298l.373.632c.65.991 1.413 1.903 2.274 2.717l.82.782.896.707.26.186 1.008.707.298.186 1.082.67h.223a42 42 0 0 0 4.475 2.233c11.636 5.024 54.559 12.504 109.826 12.542h.596c55.23 0 98.153-7.444 109.788-12.542a49 49 0 0 0 3.991-1.936 27.2 27.2 0 0 0 5.407-3.721q.365-.326.671-.707l.224-.224a5.4 5.4 0 0 0 .597-.707q.293-.33.522-.707.47-.72.858-1.488v-.186a2.5 2.5 0 0 1 0-.484v-.67q.015-.279 0-.558s0-.41.186-.596v-1.6a6 6 0 0 0 0-.819 1 1 0 0 0 0-.298v-1.265l2.983-31.522q.051-.949 0-1.898v-.186z"/><path fill="#199675" d="M303.111 317.937s.708-19.538-23.793-33.494-50.121-22.963-90.321-23.074h-.709c-40.201 0-65.97 9.192-90.359 23.074-24.389 13.881-23.792 33.494-23.792 33.494s-2.089 62.895-2.089 139.784 4.886 147.45 9.1 164.234a66.97 66.97 0 0 0 18.198 29.326l22.375 23.781 66.865-8.448 66.865 8.448 22.375-23.781a66.96 66.96 0 0 0 18.236-29.326c4.177-16.784 9.1-87.383 9.1-164.234s-2.051-139.784-2.051-139.784"/><path fill="url(#q)" d="M74.137 317.937s-2.089 62.895-2.089 139.784 4.886 147.45 9.1 164.234a61.8 61.8 0 0 0 12.865 23.856V286.75c-20.473 13.733-19.876 31.187-19.876 31.187"/><path fill="url(#r)" d="M305.236 457.72c0-76.888-2.125-139.783-2.125-139.783s.559-15.854-17.229-29.252v353.553a59.2 59.2 0 0 0 10.255-20.395c4.177-16.672 9.099-87.271 9.099-164.123"/><path fill="#199675" d="M314.82 651.021a9.8 9.8 0 0 0 0-1.824 15 15 0 0 0-.261-3.089 5.62 5.62 0 0 0-2.189-3.377 5.64 5.64 0 0 0-3.889-1.052 32.4 32.4 0 0 0-12.046 3.722c-29.833 13.175-88.308 14.03-88.867 14.03h-37.926c-.597 0-58.884-.855-88.904-14.03a32.4 32.4 0 0 0-12.046-3.722 5.64 5.64 0 0 0-3.89 1.052 5.62 5.62 0 0 0-2.189 3.377 17 17 0 0 0-.26 3.312v.224a8.6 8.6 0 0 0 0 1.377l3.132 30.703c-.932 7.443 3.356 12.765 13.35 17.082 11.524 4.987 54.298 12.393 109.416 12.467h.596c55.081 0 97.855-7.443 109.378-12.467 9.547-4.131 13.873-9.267 13.463-16.077z"/><path stroke="#000" d="M99.278 651.405c30.665 7.452 69.875 8.026 70.364 8.026h37.926c.457 0 39.505-.57 70.063-7.946"/><path fill="url(#s)" d="M77.27 643.578a23.9 23.9 0 0 0-8.578-2.196 5.64 5.64 0 0 0-3.89 1.052 5.62 5.62 0 0 0-2.189 3.377 17 17 0 0 0-.26 3.312v.223a8.6 8.6 0 0 0 0 1.377l3.132 30.703c-.82 6.476 2.461 11.537 10.218 15.594l5.631-14.7z"/><path fill="url(#t)" d="m311.837 682.506 2.983-31.597a9.8 9.8 0 0 0 0-1.824 14.8 14.8 0 0 0-.261-3.088 5.62 5.62 0 0 0-2.189-3.377 5.64 5.64 0 0 0-3.889-1.052 22.4 22.4 0 0 0-7.459 1.786l-4.288 39.152 5.482 14.291c6.861-3.908 9.956-8.56 9.621-14.291"/><path fill="url(#u)" d="M308.816 680.98c-1.044-5.583-13.649 1.414-13.649 1.414-30.094 13.621-87.86 14.328-87.86 14.328h-37.292s-57.803-.707-87.898-14.328c0 0-12.604-6.997-13.649-1.414-1.044 5.582 1.045 10.495 11.561 14.886 10.516 4.392 51.873 12.17 108.147 12.244h.597c56.386 0 97.817-7.703 108.147-12.244s12.94-9.267 11.896-14.886"/><path fill="url(#v)" d="M104.231 595.383s-5.593-256.456-4.885-268.365c0 0 9.099 88.053 4.885 268.365"/><path fill="url(#w)" d="M274.06 595.383s5.594-256.456 4.885-268.365c0 0-9.099 88.053-4.885 268.365"/><path fill="#404040" d="M99.197 599.142a3.71 3.71 0 0 1-1.024 2.752 3.722 3.722 0 0 1-2.705 1.155 3.722 3.722 0 0 1-3.916-3.721L87.6 325.417c0-.987.393-1.933 1.093-2.631a3.732 3.732 0 0 1 6.366 2.631z"/><path fill="gray" d="M95.393 600.965a1.79 1.79 0 0 1-1.752-1.712l-3.916-273.91a1.6 1.6 0 0 1 .485-1.265 1.674 1.674 0 0 1 1.23-.521 1.79 1.79 0 0 1 1.79 1.712l3.916 273.91a1.71 1.71 0 0 1-1.041 1.649 1.7 1.7 0 0 1-.674.137z"/><path fill="#404040" d="M278.759 599.142a3.72 3.72 0 0 0 3.729 3.907 3.72 3.72 0 0 0 2.758-1.022 3.71 3.71 0 0 0 1.158-2.699l3.953-273.911c0-.987-.393-1.933-1.092-2.631a3.734 3.734 0 0 0-5.274 0 3.72 3.72 0 0 0-1.093 2.631z"/><path fill="gray" d="M282.563 600.965c.458 0 .898-.179 1.226-.499s.517-.755.526-1.213l3.916-273.91a1.6 1.6 0 0 0-.485-1.266 1.64 1.64 0 0 0-1.23-.521 1.753 1.753 0 0 0-1.753 1.712l-3.953 273.911c-.01.231.027.461.108.678a1.73 1.73 0 0 0 .933.971c.213.091.443.137.674.137z"/><path fill="#199675" d="M327.052 63.23s10.479 11.537 12.605 52.102a491 491 0 0 1 0 63.268s-8.764 17.491-17.155 25.53a145 145 0 0 0-17.154-18.869s-3.729-12.579-7.72-51.023-14.693-93.3-14.693-93.3l23.457 14.886z"/><path fill="#199675" d="M310.942 148.604s-4.214-74.432-3.17-75.14 9.808-5.917 18.907 9.453c7.794 13.138 8.428 83.811 8.428 103.982a88.5 88.5 0 0 1-12.605 17.268 186 186 0 0 0-13.35-15.444c-.597-5.918-1.007-11.165-1.007-11.835 0-1.861 2.797-28.284 2.797-28.284"/><path fill="url(#x)" d="M305.348 185.187s-3.729-12.579-7.72-51.023-14.693-93.3-14.693-93.3l23.457 14.886h.299c3.99 5.62 5.556 11.909 9.733 25.753 10.255 33.979 6.078 122.292 6.078 122.292a145 145 0 0 0-17.154-18.608"/><path fill="url(#y)" d="M310.308 63.007c1.79 4.429 3.393 10.123 6.004 18.608 10.255 33.978 6.079 122.292 6.079 122.292l-1.865-2.382c0-9.788-.709-114.179-14.469-129.698-11.859-13.36-.858-10.904 4.251-8.82"/><path fill="#199675" d="M49.972 63.23s-10.48 11.537-12.605 52.103a491 491 0 0 0 0 63.267s8.763 17.492 17.154 25.53a145 145 0 0 1 17.155-18.868s3.729-12.579 7.719-51.024 14.618-93.375 14.618-93.375L70.557 55.75z"/><path fill="#199675" d="M66.082 148.604s4.214-74.432 3.17-75.14-9.808-5.917-18.908 9.453c-7.794 13.026-8.54 83.699-8.54 103.87a88.6 88.6 0 0 0 12.605 17.269 186 186 0 0 1 13.5-15.445c.597-5.917 1.007-11.165 1.007-11.835-.037-1.749-2.834-28.172-2.834-28.172"/><path fill="url(#z)" d="M71.638 185.187s3.73-12.579 7.72-51.023 14.655-93.3 14.655-93.3L70.557 55.75h-.299c-3.99 5.62-5.556 11.909-9.733 25.753-10.255 33.979-6.078 122.292-6.078 122.292a145.3 145.3 0 0 1 17.191-18.608"/><path fill="url(#A)" d="M66.604 63.007c-1.79 4.429-3.394 10.123-6.004 18.608-10.256 33.978-6.079 122.292-6.079 122.292l1.865-2.382c0-9.788.708-114.179 14.47-129.698 11.97-13.36.969-10.904-4.252-8.82"/><path fill="#115444" d="M274.06 79.01c-1.454-17.901-11.188-57.053-17.229-64.905a1.9 1.9 0 0 0-1.044-.745 258.5 258.5 0 0 0-67.126-9.415 259 259 0 0 0-67.126 9.416 1.9 1.9 0 0 0-1.044.744c-5.93 7.852-15.775 47.004-17.229 64.905a16.86 16.86 0 0 0 3.207 13.174 10.873 10.873 0 0 0 8.167 3.312c.953.002 1.903-.097 2.834-.297l41.506-8.374a2.1 2.1 0 0 0 1.283-.809c.311-.42.452-.942.395-1.461a.7.7 0 0 0 0-.26c0-2.383 1.865-18.125 2.35-19.948a36.5 36.5 0 0 1 5.184-12.505 21.45 21.45 0 0 1 6.105-5.74 21.5 21.5 0 0 1 7.842-2.969 37 37 0 0 1 5.967-.52 25.43 25.43 0 0 1 15.916 4.91 25.34 25.34 0 0 1 9.442 13.697 55 55 0 0 1 2.349 10.346c0 .633.336 5.099.523 8.076 0 1.377 0 2.68.223 3.722 0 1.972.001 3.163 1.791 3.461l41.543 8.41c.923.164 1.859.252 2.797.261a10.87 10.87 0 0 0 8.167-3.312 16.879 16.879 0 0 0 3.207-13.174"/><path fill="#199675" d="M149.094 67.25a36.9 36.9 0 0 1 2.685-13.994C133.357 66.58 113.741 81.131 112.66 83.03a17.86 17.86 0 0 1-8.578 6.03 10.3 10.3 0 0 0 1.977 3.2 10.872 10.872 0 0 0 8.167 3.312c.953.002 1.903-.098 2.834-.298l38.56-7.778a30.1 30.1 0 0 1-6.526-20.245M224.536 48.567s-6.638-8.411-8.055-10.495a9 9 0 0 0-3.729-1.898l1.901 1.637a34.03 34.03 0 0 1 10.33 19.539 41.15 41.15 0 0 1-3.095 21.362 60 60 0 0 1-3.99 8.076l41.543 8.41c.924.164 1.859.251 2.797.261a10.87 10.87 0 0 0 8.167-3.312 11.1 11.1 0 0 0 1.939-3.015c-12.753-8.448-47.808-40.565-47.808-40.565"/><path fill="url(#B)" d="M271.971 77.074c-1.417-17.23-11.187-56.345-16.818-63.825a255 255 0 0 0-66.641-9.304 255 255 0 0 0-66.641 9.304c-5.594 7.443-15.402 46.594-16.819 63.825s11.672 13.994 11.672 13.994l41.544-8.374c-.41 0 1.827-18.98 2.349-20.99a39.5 39.5 0 0 1 6.004-13.249 23.7 23.7 0 0 1 15.327-9.527c15.663-2.53 28.454 4.13 33.563 19.613a63 63 0 0 1 2.424 10.718c0 1.265.783 13.398.858 13.435l41.543 8.374s13.015 3.275 11.635-13.994"/><path fill="#115444" d="M188.512 3.945a255 255 0 0 0-66.641 9.304 47 47 0 0 0-4.96 11.165 449.8 449.8 0 0 1 142.381-2.345 38.2 38.2 0 0 0-4.139-8.895 255 255 0 0 0-66.641-9.23"/><path fill="#199675" d="M256.794 23.409c-1.38 12.207-7.459 31.968-10.33 34.239s-9.808.52-9.808.52c-5.072-9.601-6.638-38.779-6.638-38.779 9.435-1.749 26.776 4.02 26.776 4.02"/><path fill="url(#C)" d="M247.433 20.84c5.296 1.192 9.361 2.569 9.361 2.569-1.38 12.207-7.459 31.968-10.33 34.239l-.522.334c.484-3.758 3.58-28.47 1.491-37.141"/><path fill="#199675" d="M230.018 19.39a31 31 0 0 1 9.286 0 272 272 0 0 0 1.603 39.374 25.4 25.4 0 0 1-4.251-.595c-5.072-9.602-6.638-38.78-6.638-38.78"/><path fill="url(#D)" d="M256.98 20.432s-7.16-3.499-26.962-4.02v3.126c19.802.521 26.962 4.02 26.962 4.02z"/><path fill="#199675" d="M195 17.268a28.3 28.3 0 0 1 5.259-1.228c.895 0 7.011.893 7.011.893l13.537 1.414s-.485 25.754-5.669 38.742a35.2 35.2 0 0 0-4.587-8.783 23.83 23.83 0 0 0-15.289-9.527A99.7 99.7 0 0 1 195 17.27"/><path fill="url(#E)" d="M220.807 18.348s-.485 25.753-5.669 38.742a35.2 35.2 0 0 0-4.587-8.784l-.223-.26a165.4 165.4 0 0 0 3.393-30.517z"/><path fill="#199675" d="M195 17.268a28.3 28.3 0 0 1 5.259-1.228c.373 0 1.827.26 3.319.447a91.4 91.4 0 0 0 0 25.604 23.3 23.3 0 0 0-8.466-3.163 99.7 99.7 0 0 1-.112-21.66"/><path fill="url(#F)" d="M195 14.291c8.657-.156 17.316.254 25.919 1.228v3.164A199 199 0 0 0 195 17.454z"/><path fill="#199675" d="M120.118 23.409c1.38 12.207 7.458 31.968 10.33 34.239s9.808.52 9.808.52c5.071-9.601 6.638-38.779 6.638-38.779-9.398-1.749-26.776 4.02-26.776 4.02"/><path fill="#199675" d="M129.553 20.84c-5.296 1.192-9.36 2.569-9.36 2.569 1.379 12.207 7.458 31.968 10.33 34.239l.522.334c-.523-3.758-3.469-28.47-1.492-37.141"/><path fill="url(#G)" d="M146.968 19.39a31 31 0 0 0-9.285 0 272 272 0 0 1-1.604 39.374 25.3 25.3 0 0 0 4.251-.595c5.072-9.602 6.638-38.78 6.638-38.78"/><path fill="url(#H)" d="M120.118 20.432s7.16-3.499 26.962-4.02v3.126c-19.802.521-26.962 4.02-26.962 4.02z"/><path fill="#199675" d="M181.986 17.268a28.3 28.3 0 0 0-5.259-1.228c-.857 0-7.011.893-7.011.893l-13.462 1.563s.485 25.754 5.668 38.742a35.2 35.2 0 0 1 4.587-8.783 23.76 23.76 0 0 1 15.29-9.527 99.7 99.7 0 0 0 .187-21.66"/><path fill="#199675" d="M156.254 18.348s.485 25.753 5.668 38.742a35.2 35.2 0 0 1 4.587-8.784l.224-.26a165.4 165.4 0 0 1-3.393-30.517z"/><path fill="url(#I)" d="M181.986 17.268a28.3 28.3 0 0 0-5.259-1.228c-.41 0-1.827.26-3.319.447a91.4 91.4 0 0 1 0 25.604 23.3 23.3 0 0 1 8.466-3.163 99.7 99.7 0 0 0 .112-21.66"/><path fill="url(#J)" d="M181.986 14.291a199 199 0 0 0-25.918 1.228v3.164a199 199 0 0 1 25.918-1.229z"/><path fill="#D5D5D5" d="M184.261 7.183a13.232 13.232 0 0 0-10.33 5.769l10.516-1.229s7.496-5.434-.186-4.54m9.248 0c-7.72-.856-.186 4.54-.186 4.54l10.516 1.228a13.35 13.35 0 0 0-10.33-5.768"/><path fill="#909090" d="M195.411 9.602c0 2.27-2.984 4.13-6.713 4.13s-6.675-1.86-6.675-4.13 2.983-4.131 6.675-4.131 6.713 1.712 6.713 4.13"/><path fill="#404040" d="M193.546 9.602c0 1.637-2.163 2.977-4.848 2.977s-4.81-1.34-4.81-2.977c0-1.638 2.163-2.977 4.81-2.977 2.648 0 4.848 1.34 4.848 2.977M148.721 77.893a6.53 6.53 0 0 1-3.884-1.299 6.5 6.5 0 0 1-2.344-3.353 21.85 21.85 0 0 1-.634-9.304c.485-10.086 5.296-12.765 8.055-12.765a6.72 6.72 0 0 1 4.811 2.158 14.16 14.16 0 0 1 2.872 10.756c-.523 12.318-6.415 13.658-8.913 13.658z"/><path fill="#404040" d="M145.738 71.79c.15.683.525 1.297 1.066 1.742a3.14 3.14 0 0 0 1.917.714c2.461 0 5.072-2.27 5.407-10.309.336-8.038-2.796-9.267-4.176-9.267s-4.214 2.084-4.55 9.416.336 7.704.336 7.704"/><path fill="#000" d="M145.402 71.827a3.46 3.46 0 0 0 3.729 2.754 4.762 4.762 0 0 0 3.729-2.754 19.76 19.76 0 0 0 1.716-10.272 9.07 9.07 0 0 0-2.35-6.401c-3.02-2.68-5.593 1.489-6.377 4.02a31.9 31.9 0 0 0-.783 10.643c0 .484 0 1.898.522 2.233s.821-.298.448-.52a7 7 0 0 1-.261-1.527c-.212-2.743-.124-5.5.261-8.224.261-2.159 1.715-7.965 5.072-6.513a5.51 5.51 0 0 1 2.573 4.02 23.6 23.6 0 0 1-.261 9.005 7.7 7.7 0 0 1-2.797 5.062 2.88 2.88 0 0 1-3.753-.442 2.87 2.87 0 0 1-.648-1.196c-.223-.41-.932-.335-.82.112"/><path fill="#909090" d="M145.999 56.01a.67.67 0 0 1-.672.67.67.67 0 0 1-.634-.67.67.67 0 0 1 .634-.633.67.67 0 0 1 .672.633M155.322 56.01a.67.67 0 0 1-.672.67.67.67 0 0 1-.634-.67.67.67 0 0 1 .634-.633.67.67 0 0 1 .672.633M144.134 63.826a.67.67 0 0 1-.671.67.673.673 0 0 1-.671-.67.67.67 0 0 1 .671-.67.67.67 0 0 1 .671.67M156.552 63.826a.66.66 0 0 1-.414.618.7.7 0 0 1-.257.051.674.674 0 0 1-.634-.67.67.67 0 0 1 .634-.632.67.67 0 0 1 .671.633M144.395 72.05a.67.67 0 0 1-.414.62.674.674 0 0 1-.915-.49.67.67 0 0 1 .285-.687.671.671 0 0 1 1.044.557M154.986 72.05a.67.67 0 0 1-.414.62.674.674 0 0 1-.916-.49.68.68 0 0 1 .286-.687.671.671 0 0 1 1.044.557"/><path fill="#199675" d="M120.938 131.373a20.8 20.8 0 0 1-5.892-.745 6.286 6.286 0 0 1-3.729-3.2c-.858-1.712-4.736-11.388 2.685-34.76a6.25 6.25 0 0 1 3.244-3.722 96.35 96.35 0 0 1 38.933-7.852 6.32 6.32 0 0 1 4.483 1.868 6.3 6.3 0 0 1 1.82 4.496c0 4.13-.709 25.195-9.249 33.159-7.458 7.034-23.531 10.793-32.183 10.793z"/><path fill="url(#K)" d="M120.715 121.585c4.549-1.414 0-26.572 0-26.572a40.6 40.6 0 0 1-5.445-4.727 5.9 5.9 0 0 0-1.38 2.382c-7.458 23.372-3.543 33.048-2.685 34.76a6.44 6.44 0 0 0 1.827 2.158c1.007-1.861 3.991-7.034 7.683-8.001"/><path fill="#115444" d="M160.543 82.918a52 52 0 0 0-6.862 7.926 66 66 0 0 1-8.465 9.379l3.505 14.328a29 29 0 0 1 5.184 5.21c7.794-8.485 8.428-28.395 8.465-32.378a6.278 6.278 0 0 0-1.827-4.466"/><path fill="#252525" d="M119.894 94.566a90.6 90.6 0 0 1 36.174-7.22s-.224 22.107-7.235 28.657-25.694 10.457-31.997 8.596c0 0-3.953-7.927 3.058-30.033"/><path fill="#909090" d="M155.322 96.092c-.522-1.08-1.082-2.159-1.604-3.2.522-1.08 1.082-2.16 1.604-3.201l.596 1.228v-3.722h-1.902l.373.745a131 131 0 0 1-1.603 3.237l-1.566-3.237q.182-.3.298-.633h-2.126l.261.52c-.522 1.08-1.044 2.16-1.603 3.239l-1.566-3.238v-.298l-1.791.186-1.566 3.238c-.522-1.005-.969-1.972-1.454-2.94l-2.014.298a80 80 0 0 1-1.268 2.568l-1.044-2.122-2.909.596-.783 1.526-.597-1.191-1.379.335 1.193 2.419-1.566 3.238-1.604-3.238 1.119-2.196-1.827.521-1.343.41.597 1.227-1.567 3.238c-.522-1.079-1.044-2.158-1.603-3.237q.151-.232.261-.484l-1.902.67-1.492 3.051-1.007-2.084-1.305.596a78 78 0 0 1 1.529 3.051l-1.566 3.201a67 67 0 0 1-1.156-2.307l-.56 2.046c.299.633.634 1.229.933 1.824-.56 1.079-1.082 2.159-1.604 3.201l-.335-.67a72 72 0 0 0-1.082 6.699c.485-.931.932-1.898 1.417-2.866.522 1.079 1.082 2.121 1.604 3.201l-1.604 3.2-1.491-2.977c0 .967-.001 1.861-.187 2.717l.895 1.86c-.298.596-.597 1.229-.932 1.861-.336.633 0 1.898.261 2.643l1.454-2.94c.522 1.079 1.082 2.121 1.604 3.2-.56 1.079-1.082 2.159-1.604 3.238q.698.18 1.417.223l.97-1.898c.298.67.634 1.34.969 2.01h2.835c.298-.633.596-1.265.932-1.898.261.558.522 1.154.82 1.712l1.455-.224c-.485-1.004-1.007-2.009-1.529-3.051.559-1.08 1.081-2.122 1.603-3.201l1.567 3.201c-.485 1.005-.97 2.047-1.492 3.051l1.715-.297.56-1.191c.186.335.335.67.485 1.005l1.417-.298-1.119-2.27c.522-1.08 1.081-2.122 1.603-3.201l1.567 3.201c-.299.67-.634 1.34-.97 2.009 1.044-.26 2.089-.521 3.133-.856-.224-.372-.411-.781-.597-1.153.522-1.08 1.081-2.122 1.604-3.201l1.566 3.201-.187.372 1.902-.67 1.455-2.903c.298.633.596 1.266.932 1.898l1.268-.595-1.417-2.866 1.566-3.238 1.604 3.238-1.343 2.642a27 27 0 0 0 3.245-1.935l-.336-.707 1.566-3.238 1.007 2.047q.528-.559.97-1.191c-.411-.781-.784-1.6-1.194-2.419l1.567-3.163 1.305 2.642c.224-.558.485-1.116.708-1.749l-1.23-2.456 1.566-3.201.858 1.712c.186-.707.335-1.414.484-2.158l-.559-1.117 1.231-2.493c.261-1.489.447-2.94.559-4.28q.009.357.075.707m-4.736-6.401 1.566 3.2-1.566 3.2-1.604-3.2c.522-1.079.97-2.158 1.604-3.2m-.634 7.964a85 85 0 0 1-1.604 3.201l-1.566-3.201 1.566-3.2c.41 1.079.932 2.046 1.604 3.2m-2.35 4.801-1.566 3.126a85 85 0 0 1-1.604-3.201l1.567-3.126zm-1.603-12.765 1.603 3.2a86 86 0 0 0-1.603 3.2 84 84 0 0 0-1.604-3.2zm-.783 7.964-1.567 3.163-1.566-3.2 1.566-3.164zm-10.256 4.726c.522-1.042 1.082-2.121 1.604-3.2l1.566 3.2-1.566 3.201c-.671-1.042-1.231-2.121-1.753-3.201zm.821 4.801-1.604 3.201-1.566-3.201 1.566-3.2c.41 1.042.858 2.121 1.454 3.2zm2.983-3.238c.522 1.043 1.081 2.122 1.604 3.201l-1.604 3.201-1.566-3.201zm.783-1.6c.522-1.042 1.082-2.121 1.604-3.2l1.566 3.2-1.566 3.201zm1.566-12.69 1.604 3.2-1.566 3.163-1.604-3.237zm-.745 7.927c-.523 1.079-1.082 2.12-1.604 3.2l-1.566-3.2 1.566-3.201c.522 1.08 1.081 2.121 1.604 3.238zm-3.953-8.002 1.566 3.2-1.566 3.239-1.604-3.238a125 125 0 0 0 1.604-3.164zm-2.387 4.801a86 86 0 0 1 1.603 3.2l-1.603 3.201-1.566-3.2zm-.783 7.964-1.566 3.201c-.523-1.042-1.082-2.122-1.604-3.201l1.604-3.2zm-2.35 4.801c-.522 1.042-1.044 2.121-1.603 3.201l-1.566-3.201 1.566-3.201c.559 1.08 1.081 2.159 1.603 3.238zm-1.603-12.765c.559 1.042 1.081 2.121 1.603 3.2a129 129 0 0 1-1.603 3.201l-1.716-3.163zm-.783 7.964-1.567 3.201c-.522-1.042-1.044-2.122-1.603-3.201l1.603-3.2zm-5.52 4.801a87 87 0 0 1 1.604-3.201l1.566 3.201-1.566 3.201zm.821 4.764c-.56 1.079-1.082 2.158-1.604 3.2l-1.603-3.2c.559-1.08 1.081-2.122 1.603-3.201a52 52 0 0 0 1.641 3.238zm.783-17.529 1.566 3.2-1.566 3.201-1.604-3.2zm-2.387 4.764a84 84 0 0 0 1.604 3.2c-.56 1.079-1.082 2.159-1.604 3.201l-1.603-3.201c.559-1.005 1.081-2.121 1.603-3.163zm-3.953 8.001a87 87 0 0 1 1.604-3.201l1.566 3.201-1.566 3.201c-.559-1.042-1.082-2.122-1.604-3.164zm0 9.565c.522-1.08 1.045-2.159 1.604-3.238l1.566 3.238-1.566 3.2a258 258 0 0 1-1.604-3.163zm3.953 7.964-1.603-3.201a129 129 0 0 0 1.603-3.2l1.604 3.2c-.56 1.08-1.082 2.159-1.604 3.238zm2.387-4.764-1.604-3.2c.522-1.08 1.045-2.159 1.604-3.238l1.566 3.238zm.746-8.001c.559-1.08 1.081-2.122 1.603-3.201l1.567 3.201-1.567 3.2c-.522-1.005-1.044-2.084-1.603-3.163zm3.953 8.001-1.566-3.2 1.566-3.238a130 130 0 0 1 1.603 3.238c-.522 1.079-1.044 2.121-1.603 3.237zm.783-8.001c.522-1.08 1.081-2.122 1.604-3.201l1.566 3.201-1.566 3.2c-.373-1.005-1.082-2.084-1.604-3.163zm3.953 8.001-1.566-3.2 1.566-3.238a130 130 0 0 1 1.603 3.238zm.783-8.001c.522-1.08 1.082-2.122 1.604-3.201l1.566 3.201-1.566 3.2a125 125 0 0 1-1.604-3.163zm3.953 8.038-1.566-3.2 1.566-3.238 1.604 3.238c-.523 1.042-1.082 2.084-1.604 3.2m2.387-4.8-1.604-3.201c.522-1.079 1.082-2.121 1.604-3.201l1.566 3.201zm2.349-4.764-1.566-3.201 1.566-3.2c.522 1.042 1.082 2.121 1.604 3.2zm2.387 4.764c-.56-1.043-1.082-2.122-1.604-3.201a128 128 0 0 1 1.604-3.201l1.566 3.201zm2.349-4.764-1.566-3.201a124 124 0 0 1 1.529-3.163 127 127 0 0 1 1.603 3.201zm2.35-4.727-1.604-3.2c.522-1.079 1.082-2.159 1.604-3.2l1.566 3.2zm2.349-4.8-1.566-3.201 1.566-3.2 1.604 3.2c-.522 1.08-.858 2.159-1.604 3.201"/><path fill="#1F1F1F" d="M95.729 31.969a1.08 1.08 0 0 0-.522-.745c-.16-.039-.326-.039-.485 0a.93.93 0 0 0-.447 0l-3.506 1.861a231.6 231.6 0 0 0-35.912 23.41 25.4 25.4 0 0 0-7.593 10.85 25.37 25.37 0 0 0-1.096 13.19 30.2 30.2 0 0 0 1.864 6.811 1 1 0 0 0 .933.596c9.92-.596 17.75-9.9 28.565-22.851l5.818-6.885a58 58 0 0 0 10.665-16.859 21.1 21.1 0 0 0 1.716-9.378"/><path fill="#DBDBDB" d="M82.826 57.574a56.9 56.9 0 0 0 10.442-16.599C80.96 45.813 60.6 72.683 56.647 78.191a59.6 59.6 0 0 1-7.459 8.783c10.89-.67 19.728-13.398 33.638-29.4"/><path fill="gray" d="M47.324 80.424c.317 2.25.918 4.451 1.79 6.55a59.6 59.6 0 0 0 7.458-8.783c3.953-5.47 24.315-32.34 36.621-37.216a20.06 20.06 0 0 0 1.678-8.857s-1.342.67-3.505 1.86C48.629 60.477 47.324 80.425 47.324 80.425"/><path fill="#DBDBDB" d="M47.175 80.387s1.305-19.948 43.93-46.446A226 226 0 0 0 55.342 57.2a24.4 24.4 0 0 0-7.22 10.492 24.37 24.37 0 0 0-.947 12.694"/><path fill="#404040" d="M56.46 78.786a283 283 0 0 1 24.203-29.028 41.4 41.4 0 0 0 3.953-7.853s-18.012 8.15-25.545 15.333-12.083 23.186-2.61 21.548"/><path fill="#BFBFBF" d="M63.397 67.063c-2.61 4.206-6.265 6.7-8.205 5.508-1.939-1.19-1.38-5.545 1.231-9.788 2.61-4.242 6.265-6.699 8.204-5.508s1.38 5.732-1.23 9.788"/><path fill="gray" d="M73.205 54.41c-1.716 1.637-3.73 2.345-4.476 1.563-.745-.782 0-2.717 1.79-4.354s3.73-2.345 4.475-1.6c.746.744-.037 2.753-1.79 4.39"/><path fill="#404040" d="M229.16 77.893a6.57 6.57 0 0 0 3.844-1.246 6.55 6.55 0 0 0 2.384-3.257 22.7 22.7 0 0 0 .597-9.304c-.448-10.086-5.259-12.765-8.056-12.765a6.72 6.72 0 0 0-4.81 2.158 14.162 14.162 0 0 0-2.872 10.756c.56 12.17 6.415 13.658 8.913 13.658"/><path fill="#404040" d="M231.994 71.79a3.12 3.12 0 0 1-1.066 1.742 3.14 3.14 0 0 1-1.917.714c-2.424 0-5.072-2.27-5.407-10.309-.336-8.038 2.796-9.267 4.176-9.267s4.214 2.084 4.55 9.416-.336 7.704-.336 7.704"/><path fill="#000" d="M232.479 71.827a3.42 3.42 0 0 1-1.327 2.101 3.44 3.44 0 0 1-2.402.653 4.762 4.762 0 0 1-3.729-2.754 19.73 19.73 0 0 1-1.679-10.272 8.89 8.89 0 0 1 2.313-6.401c3.02-2.68 5.593 1.489 6.377 4.02a31.9 31.9 0 0 1 .783 10.643c0 .484 0 1.898-.522 2.233s-.821-.298-.448-.52q.214-.75.261-1.527c.212-2.743.125-5.5-.261-8.224-.261-2.159-1.678-7.965-5.072-6.513a5.505 5.505 0 0 0-2.237 4.02 23.6 23.6 0 0 0 .261 9.005 7.7 7.7 0 0 0 2.797 5.062 2.88 2.88 0 0 0 3.753-.442c.308-.341.531-.751.647-1.196 0-.41.597-.335.485.112"/><path fill="#909090" d="M231.994 56.01a.67.67 0 0 0 .672.67.67.67 0 0 0 .634-.67.67.67 0 0 0-.634-.633.67.67 0 0 0-.672.633M222.559 56.01a.67.67 0 0 0 .672.67.67.67 0 0 0 .634-.67.67.67 0 0 0-.634-.633.67.67 0 0 0-.672.633M233.747 63.826a.67.67 0 0 0 .672.67.67.67 0 1 0-.672-.67M221.329 63.826a.67.67 0 0 0 .671.67.673.673 0 0 0 .671-.67.67.67 0 0 0-.671-.67.67.67 0 0 0-.671.67M233.523 72.05a.63.63 0 0 0 .172.472.64.64 0 0 0 .462.198.673.673 0 0 0 .672-.67.67.67 0 0 0-.923-.618.64.64 0 0 0-.345.365.6.6 0 0 0-.038.253M222.895 72.05a.67.67 0 0 0 .415.62.67.67 0 1 0-.415-.62"/><path fill="#199675" d="M256.943 131.373c1.99.035 3.974-.216 5.892-.745a6.2 6.2 0 0 0 3.729-3.2c.858-1.712 4.736-11.388-2.648-34.76a6.41 6.41 0 0 0-3.281-3.722 96.35 96.35 0 0 0-38.933-7.852 6.3 6.3 0 0 0-4.483 1.868 6.3 6.3 0 0 0-1.361 2.066 6.3 6.3 0 0 0-.459 2.43c0 4.13.709 25.195 9.249 33.159 7.458 7.034 23.531 10.793 32.183 10.793z"/><path fill="url(#L)" d="M257.167 121.585c-4.55-1.414 0-26.572 0-26.572a38 38 0 0 0 5.444-4.727 6.4 6.4 0 0 1 1.417 2.382c7.459 23.372 3.506 33.048 2.648 34.76a6 6 0 0 1-1.827 2.158c-1.007-1.861-3.99-7.034-7.682-8.001"/><path fill="#115444" d="M217.339 82.918a50 50 0 0 1 6.899 7.964 66 66 0 0 0 8.428 9.341l-3.506 14.328a29 29 0 0 0-5.183 5.21c-7.794-8.485-8.428-28.395-8.466-32.378a6.29 6.29 0 0 1 1.828-4.465"/><path fill="#252525" d="M258.099 94.566a90.6 90.6 0 0 0-36.173-7.22s.223 22.107 7.234 28.657 25.695 10.457 31.997 8.596c-.112 0 3.841-7.927-3.058-30.033"/><path fill="#909090" d="M222.373 95.683c0 1.34.336 2.79.559 4.28l1.231 2.493-.559 1.116c0 .745.298 1.452.485 2.159.298-.558.559-1.154.857-1.712l1.567 3.201-1.194 2.456c.224.633.448 1.191.671 1.749.448-.893.895-1.749 1.306-2.642l1.566 3.163c-.41.819-.783 1.638-1.193 2.419q.44.632.969 1.191l1.007-2.047c.522 1.079 1.044 2.159 1.604 3.238q-.221.335-.373.707a26.6 26.6 0 0 0 3.244 1.935l-1.342-2.642c.559-1.079 1.081-2.159 1.603-3.238.522 1.079 1.044 2.159 1.604 3.238l-1.455 2.866 1.268.595c.336-.633.634-1.265.933-1.898l1.454 2.903 1.902.67v-.372l1.566-3.201c.56 1.079 1.082 2.121 1.604 3.201-.187.372-.373.781-.597 1.153 1.044.335 2.088.596 3.133.856l-.97-2.009 1.566-3.201c.56 1.079 1.082 2.121 1.604 3.201l-1.119 2.27 1.417.298c0-.335.298-.67.485-1.005l.559 1.191 1.716.297-1.492-3.051 1.566-3.201 1.604 3.201-1.529 3.051 1.454.224c.299-.559.56-1.154.858-1.712l.895 1.898h2.834l1.007-2.01c.298.633.597 1.265.932 1.898a8.5 8.5 0 0 0 1.455-.223l-1.641-3.238 1.603-3.201 1.455 2.94c0-.744 0-1.637.261-2.642s-.634-1.265-.932-1.861l.895-1.861c0-.855 0-1.749-.187-2.716l-1.492 2.977-1.603-3.201 1.603-3.2 1.418 2.865a73 73 0 0 0-1.082-6.698l-.336.669-1.603-3.2c.336-.596.634-1.191.932-1.824l-.559-2.047-1.119 2.308-1.604-3.2 1.53-3.053a10 10 0 0 0-1.306-.595l-1.007 2.084c-.484-1.042-1.006-2.047-1.491-3.052l-1.902-.67.261.484-1.604 3.238-1.566-3.238.597-1.228-1.343-.41-1.79-.52c.336.744.709 1.489 1.082 2.196-.522 1.079-1.044 2.158-1.604 3.237l-1.566-3.237c.41-.782.783-1.6 1.193-2.42l-1.38-.334-.596 1.19c-.261-.52-.522-1.004-.746-1.525l-2.946-.596-1.044 2.121-1.268-2.567-1.977-.298-1.454 2.94a128 128 0 0 1-1.604-3.238l-1.79-.186q.01.15 0 .298l-1.566 3.238-1.604-3.238.261-.521h-2.125q.114.332.298.632l-1.566 3.238-1.604-3.238q.221-.355.373-.744h-1.902v3.722c.224-.41.411-.819.597-1.228.559 1.042 1.081 2.12 1.604 3.2l-1.604 3.2a1.4 1.4 0 0 0-.112-.706m6.526-2.792-1.603 3.201-1.567-3.2 1.567-3.201zm.783 1.563 1.567 3.201-1.567 3.201-1.603-3.2zm2.35 4.801 1.566 3.127c-.522 1.079-1.044 2.158-1.604 3.2-.484-1.042-1.006-2.084-1.528-3.126zm1.603-6.364c-.522 1.042-1.081 2.122-1.603 3.201l-1.566-3.2 1.566-3.201zm.784 1.563 1.566 3.164a126 126 0 0 0-1.604 3.2l-1.566-3.163zm7.048 11.165-1.567-3.2 1.567-3.2c.559 1.078 1.081 2.158 1.603 3.2-.522 1.042-1.044 2.121-1.603 3.163zm2.386-1.6 1.567 3.201-1.567 3.2-1.603-3.2zm-3.169 3.201-1.567 3.2-1.603-3.2 1.603-3.201zm-3.953-1.601-1.567-3.2 1.567-3.2 1.603 3.2c-.522 1.042-1.044 2.121-1.603 3.163zm1.603-12.84a131 131 0 0 1-1.603 3.239c-.522-1.08-1.007-2.122-1.529-3.164l1.566-3.2zm.783 1.601 1.567 3.2-1.567 3.201-1.603-3.2zm4.065-1.6a131 131 0 0 1-1.603 3.238l-1.567-3.238 1.567-3.2c.447 1.116.969 2.195 1.603 3.2m2.349 4.8-1.566 3.201-1.603-3.2 1.603-3.2zm.784 1.564c.559 1.079 1.081 2.158 1.603 3.2a85 85 0 0 1-1.603 3.201l-1.567-3.201zm2.386 4.801 1.567 3.2-1.567 3.201-1.603-3.201c.41-1.042.969-2.121 1.491-3.2zm1.567-6.364-1.567 3.2c-.522-1.079-1.081-2.121-1.603-3.2.522-1.08 1.081-2.159 1.603-3.2zm.783 1.563 1.603 3.2-1.603 3.201-1.567-3.201zm2.386 11.165-1.603-3.201c.522-1.079 1.044-2.159 1.603-3.201l1.567 3.201zm2.35-1.638 1.603 3.201-1.603 3.2-1.566-3.2zm-.783-11.165-1.567 3.201-1.603-3.2c.522-1.08 1.044-2.16 1.603-3.201zm2.386 4.764-1.603 3.2-1.566-3.2 1.566-3.2c.41 1.153.932 2.269 1.492 3.312zm.784 8.001-1.604-3.2c.522-1.079 1.044-2.159 1.604-3.201l1.566 3.201zm0 9.565-1.604-3.201a128 128 0 0 1 1.604-3.237l1.566 3.237zm-3.953 1.563 1.566-3.201 1.603 3.201-1.603 3.201zm-2.387-4.764a131 131 0 0 1 1.603-3.237l1.567 3.237-1.567 3.201zm-.783-1.6-1.567-3.201 1.567-3.2 1.603 3.2zm-3.953 1.6 1.603-3.237 1.567 3.237-1.567 3.201zm-.783-1.6-1.567-3.201 1.567-3.2a129 129 0 0 1 1.603 3.2c-.634 1.191-1.007 2.271-1.715 3.275zm-3.953 1.6 1.603-3.237 1.566 3.237-1.566 3.201zm-.783-1.6-1.567-3.201 1.567-3.2a129 129 0 0 1 1.603 3.2c-.634 1.191-1.156 2.271-1.715 3.275zm-3.953 1.6 1.603-3.237 1.566 3.237-1.566 3.201zm-2.35-4.801 1.566-3.2 1.604 3.2a84 84 0 0 1-1.604 3.201zm-2.387-4.763 1.604-3.201c.522 1.042 1.044 2.122 1.603 3.201a86 86 0 0 0-1.603 3.2c-.634-.967-1.156-2.047-1.715-3.089zm-2.349 4.763 1.566-3.2 1.604 3.2a84 84 0 0 1-1.604 3.201zm-2.275-4.614 1.604-3.201 1.566 3.163c-.559 1.042-1.081 2.122-1.604 3.201zm-2.349-4.764 1.566-3.2 1.604 3.2-1.604 3.201zm-2.387-4.8c.522-1.043 1.081-2.122 1.604-3.202l1.566 3.201-1.566 3.201z"/><path fill="#1F1F1F" d="M282.152 31.969c.069-.307.257-.575.523-.745.159-.035.325-.035.484 0a.94.94 0 0 1 .448 0l3.505 1.861a233.4 233.4 0 0 1 35.95 23.41 25.5 25.5 0 0 1 7.561 10.86 25.45 25.45 0 0 1 1.091 13.18 30.2 30.2 0 0 1-1.865 6.811 1 1 0 0 1-.895.596c-9.882-.596-17.714-9.9-28.566-22.85-1.864-2.197-3.729-4.504-5.817-6.886a57.9 57.9 0 0 1-10.591-16.859 20.84 20.84 0 0 1-1.828-9.378"/><path fill="#DBDBDB" d="M295.391 57.574a56.9 56.9 0 0 1-10.442-16.599c12.307 4.838 32.668 31.708 36.621 37.216a58 58 0 0 0 7.459 8.783c-11.263-.67-20.026-13.398-33.638-29.4"/><path fill="gray" d="M330.558 80.424a28 28 0 0 1-1.753 6.55 58 58 0 0 1-7.458-8.783c-3.953-5.47-24.315-32.34-36.621-37.216a19.6 19.6 0 0 1-1.641-8.857l3.468 1.86c42.737 26.498 44.005 46.446 44.005 46.446"/><path fill="#DBDBDB" d="M330.707 80.387s-1.268-19.948-43.93-46.446A226 226 0 0 1 322.54 57.2a24.38 24.38 0 0 1 8.167 23.186"/><path fill="#404040" d="M321.495 78.786a283 283 0 0 0-24.202-29.028 39.8 39.8 0 0 1-3.729-7.853s17.974 8.15 25.507 15.333 11.822 23.186 2.424 21.548"/><path fill="#BFBFBF" d="M314.485 67.063c2.61 4.206 6.265 6.7 8.204 5.508 1.939-1.19 1.38-5.545-1.231-9.788-2.61-4.242-6.265-6.699-8.204-5.508s-1.343 5.732 1.231 9.788"/><path fill="gray" d="M304.677 54.41c1.715 1.637 3.729 2.345 4.475 1.563s0-2.717-1.79-4.354-3.729-2.345-4.475-1.6c-.746.744-.038 2.753 1.79 4.39"/></g><defs><linearGradient id="j" x1="189.22" x2="189.22" y1="264.904" y2="-32.713" gradientUnits="userSpaceOnUse"><stop stop-color="#115444"/><stop offset="1" stop-color="#199675"/></linearGradient><linearGradient id="k" x1="188.997" x2="188.997" y1="235.541" y2="55.266" gradientUnits="userSpaceOnUse"><stop stop-color="#115444"/><stop offset="1" stop-color="#199675"/></linearGradient><linearGradient id="l" x1="299.381" x2="333.017" y1="618.978" y2="623.2" gradientUnits="userSpaceOnUse"><stop stop-color="gray"/><stop offset="1"/></linearGradient><linearGradient id="m" x1="82.602" x2="38.485" y1="622.439" y2="622.439" gradientUnits="userSpaceOnUse"><stop stop-color="gray"/><stop offset="1"/></linearGradient><linearGradient id="n" x1="189.295" x2="189.295" y1="346.668" y2="43.729" gradientUnits="userSpaceOnUse"><stop stop-color="gray"/><stop offset="1"/></linearGradient><linearGradient id="p" x1="188.959" x2="188.959" y1="352.957" y2="626.533" gradientUnits="userSpaceOnUse"><stop stop-color="#202020"/><stop offset="1" stop-color="gray"/></linearGradient><linearGradient id="q" x1="89.949" x2="65.82" y1="466.28" y2="466.28" gradientUnits="userSpaceOnUse"><stop stop-color="#136A54"/><stop offset="1" stop-color="#199675"/></linearGradient><linearGradient id="r" x1="282.19" x2="310.532" y1="465.536" y2="465.536" gradientUnits="userSpaceOnUse"><stop stop-color="#136A54"/><stop offset="1" stop-color="#199675"/></linearGradient><linearGradient id="s" x1="76.673" x2="59.407" y1="668.773" y2="670.641" gradientUnits="userSpaceOnUse"><stop stop-color="#199675"/><stop offset="1" stop-color="#115444"/></linearGradient><linearGradient id="t" x1="299.307" x2="322.652" y1="668.81" y2="669.744" gradientUnits="userSpaceOnUse"><stop stop-color="#199675"/><stop offset="1" stop-color="#115444"/></linearGradient><linearGradient id="u" x1="188.698" x2="188.698" y1="715.591" y2="692.889" gradientUnits="userSpaceOnUse"><stop stop-color="#fff"/><stop offset="1" stop-color="gray"/></linearGradient><linearGradient id="x" x1="303.148" x2="303.148" y1="-103.423" y2="318.458" gradientUnits="userSpaceOnUse"><stop stop-color="#115444"/><stop offset="1" stop-color="#199675"/></linearGradient><linearGradient id="y" x1="312.061" x2="312.061" y1="60.774" y2="249.459" gradientUnits="userSpaceOnUse"><stop stop-color="#115444"/><stop offset="1" stop-color="#199675"/></linearGradient><linearGradient id="z" x1="73.876" x2="73.876" y1="-103.423" y2="318.458" gradientUnits="userSpaceOnUse"><stop stop-color="#115444"/><stop offset="1" stop-color="#199675"/></linearGradient><linearGradient id="A" x1="64.963" x2="64.963" y1="60.774" y2="249.459" gradientUnits="userSpaceOnUse"><stop stop-color="#115444"/><stop offset="1" stop-color="#199675"/></linearGradient><linearGradient id="B" x1="188.474" x2="188.474" y1="117.379" y2="-16.785" gradientUnits="userSpaceOnUse"><stop stop-color="#115444"/><stop offset="1" stop-color="#199675"/></linearGradient><linearGradient id="C" x1="251.386" x2="251.386" y1="-16.078" y2="86.639" gradientUnits="userSpaceOnUse"><stop stop-color="#115444"/><stop offset="1" stop-color="#199675"/></linearGradient><linearGradient id="E" x1="215.511" x2="215.511" y1="-16.077" y2="86.639" gradientUnits="userSpaceOnUse"><stop stop-color="#115444"/><stop offset="1" stop-color="#199675"/></linearGradient><linearGradient id="G" x1="141.524" x2="141.524" y1="-16.078" y2="86.639" gradientUnits="userSpaceOnUse"><stop stop-color="#115444"/><stop offset="1" stop-color="#199675"/></linearGradient><linearGradient id="I" x1="177.921" x2="177.921" y1="-16.077" y2="86.639" gradientUnits="userSpaceOnUse"><stop stop-color="#115444"/><stop offset="1" stop-color="#199675"/></linearGradient><linearGradient id="K" x1="116.09" x2="116.09" y1="75.809" y2="118.087" gradientUnits="userSpaceOnUse"><stop stop-color="#115444"/><stop offset="1" stop-color="#199675"/></linearGradient><linearGradient id="L" x1="261.791" x2="261.791" y1="75.809" y2="118.087" gradientUnits="userSpaceOnUse"><stop stop-color="#115444"/><stop offset="1" stop-color="#199675"/></linearGradient><radialGradient id="b" cx="0" cy="0" r="1" gradientTransform="matrix(-64.712 0 0 -64.5799 362.163 94.36)" gradientUnits="userSpaceOnUse"><stop stop-color="#515151"/><stop offset="1" stop-color="#202020"/></radialGradient><radialGradient id="c" cx="0" cy="0" r="1" gradientTransform="matrix(-64.712 0 0 -64.5799 362.163 94.36)" gradientUnits="userSpaceOnUse"><stop stop-color="gray"/><stop offset="1" stop-color="#202020"/></radialGradient><radialGradient id="d" cx="0" cy="0" r="1" gradientTransform="matrix(-47.7068 0 0 -47.6094 362.163 545.493)" gradientUnits="userSpaceOnUse"><stop stop-color="#515151"/><stop offset="1" stop-color="#202020"/></radialGradient><radialGradient id="e" cx="0" cy="0" r="1" gradientTransform="matrix(-45.0637 0 0 -44.9719 360.49 545.578)" gradientUnits="userSpaceOnUse"><stop stop-color="gray"/><stop offset="1" stop-color="#202020"/></radialGradient><radialGradient id="f" cx="0" cy="0" r="1" gradientTransform="matrix(64.712 0 0 64.5799 36.782 94.36)" gradientUnits="userSpaceOnUse"><stop stop-color="#515151"/><stop offset="1" stop-color="#202020"/></radialGradient><radialGradient id="g" cx="0" cy="0" r="1" gradientTransform="matrix(64.712 0 0 64.5799 36.782 94.36)" gradientUnits="userSpaceOnUse"><stop stop-color="gray"/><stop offset="1" stop-color="#202020"/></radialGradient><radialGradient id="h" cx="0" cy="0" r="1" gradientTransform="matrix(47.7068 0 0 47.6094 36.782 545.493)" gradientUnits="userSpaceOnUse"><stop stop-color="#515151"/><stop offset="1" stop-color="#202020"/></radialGradient><radialGradient id="i" cx="0" cy="0" r="1" gradientTransform="matrix(45.0638 0 0 44.9719 38.454 545.578)" gradientUnits="userSpaceOnUse"><stop stop-color="gray"/><stop offset="1" stop-color="#202020"/></radialGradient><radialGradient id="o" cx="0" cy="0" r="1" gradientTransform="matrix(143.166 0 0 76.421 190.628 118.235)" gradientUnits="userSpaceOnUse"><stop stop-color="gray"/><stop offset="1" stop-color="#202020"/></radialGradient><radialGradient id="v" cx="0" cy="0" r="1" gradientTransform="matrix(96.221 0 0 96.0249 113.482 431.649)" gradientUnits="userSpaceOnUse"><stop stop-color="#A0A0A0"/><stop offset="1" stop-color="#F4F3F3"/></radialGradient><radialGradient id="w" cx="0" cy="0" r="1" gradientTransform="matrix(-96.221 0 0 -96.0249 281.285 431.649)" gradientUnits="userSpaceOnUse"><stop stop-color="#A0A0A0"/><stop offset="1" stop-color="#F4F3F3"/></radialGradient><radialGradient id="D" cx="0" cy="0" r="1" gradientTransform="matrix(-9.98354 0 0 -9.96312 250.294 -14.803)" gradientUnits="userSpaceOnUse"><stop offset=".01" stop-color="#E8E8E8"/><stop offset=".22" stop-color="#E5E5E5"/><stop offset=".4" stop-color="#DADADA"/><stop offset=".57" stop-color="#C8C8C8"/><stop offset=".73" stop-color="#AEAEAE"/><stop offset=".89" stop-color="#8E8E8E"/><stop offset=".99" stop-color="#757575"/></radialGradient><radialGradient id="F" cx="0" cy="0" r="1" gradientTransform="matrix(-9.40253 0 0 -9.38329 214.335 -18.36)" gradientUnits="userSpaceOnUse"><stop offset=".01" stop-color="#E8E8E8"/><stop offset=".22" stop-color="#E5E5E5"/><stop offset=".4" stop-color="#DADADA"/><stop offset=".57" stop-color="#C8C8C8"/><stop offset=".73" stop-color="#AEAEAE"/><stop offset=".89" stop-color="#8E8E8E"/><stop offset=".99" stop-color="#757575"/></radialGradient><radialGradient id="H" cx="0" cy="0" r="1" gradientTransform="matrix(9.98349 0 0 9.96312 145.006 -14.803)" gradientUnits="userSpaceOnUse"><stop offset=".01" stop-color="#E8E8E8"/><stop offset=".22" stop-color="#E5E5E5"/><stop offset=".4" stop-color="#DADADA"/><stop offset=".57" stop-color="#C8C8C8"/><stop offset=".73" stop-color="#AEAEAE"/><stop offset=".89" stop-color="#8E8E8E"/><stop offset=".99" stop-color="#757575"/></radialGradient><radialGradient id="J" cx="0" cy="0" r="1" gradientTransform="matrix(9.40244 0 0 9.38329 180.972 -18.36)" gradientUnits="userSpaceOnUse"><stop offset=".01" stop-color="#E8E8E8"/><stop offset=".22" stop-color="#E5E5E5"/><stop offset=".4" stop-color="#DADADA"/><stop offset=".57" stop-color="#C8C8C8"/><stop offset=".73" stop-color="#AEAEAE"/><stop offset=".89" stop-color="#8E8E8E"/><stop offset=".99" stop-color="#757575"/></radialGradient><clipPath id="a"><path fill="#fff" d="M0 0h379v716H0z"/></clipPath></defs></svg>