<svg xmlns="http://www.w3.org/2000/svg" width="54" height="27" fill="none"><path fill="url(#a)" d="m1.425 21.16 1.206-.367v-1.41h.325v1.315l.784-.225v-.438h.338v.864l-1.122.237v.817H.978v-.746zm1.206.627v-.604l-.893.166v.438zm-1.206 0v-.544H.978v.544z"/><path fill="url(#b)" d="M.896 21.136H.607v.77h.29v-.77"/><path fill="#AE1815" d="M.594 21.136h.072v.77H.594z"/><path fill="url(#c)" d="M15.862 19.052a3.35 3.35 0 0 0-1.84.54 3.26 3.26 0 0 0-1.222 1.454 3.2 3.2 0 0 0-.193 1.876c.126.63.44 1.21.902 1.664.461.455 1.05.765 1.691.891a3.36 3.36 0 0 0 1.912-.182 3.3 3.3 0 0 0 1.485-1.195 3.2 3.2 0 0 0-.406-4.094 3.34 3.34 0 0 0-2.33-.954"/><path fill="url(#d)" d="M18.77 21.953h.435l-.072-.426-.434.107v-.119l.373-.154-.156-.402-.398.177a1 1 0 0 1-.06-.118l.397-.19-.217-.367-.374.237-.072-.107.362-.248-.29-.332-.313.296-.097-.094.314-.308-.302-.32-.265.343-.096-.07.24-.356-.385-.225-.193.39h-.12l.18-.402-.41-.142-.157.462h-.12l.12-.51-.434-.07v.426h-.12v-.438h-.447v.438h-.133v-.426l-.434.07.109.427h-.12l-.133-.414-.41.142.18.402h-.108l-.205-.39-.374.225.241.355-.108.07-.254-.343-.337.273.301.308-.084.094-.326-.296-.277.332.35.249-.073.106-.374-.237-.217.367.398.19q.003.06 0 .118l-.41-.177-.145.402.422.13v.119l-.434-.107-.072.427h.434v.13h-.446v.438h.446v.119h-.434l.072.426.338.012v.118l-.422.13.145.403.397-.178v.119l-.398.19.218.378.373-.237.073.095-.35.26.277.332.386-.26.097.094-.302.308.338.284.253-.355.121.024-.241.367.374.213.193-.39h.12l-.18.39.41.154.132-.415h.12l-.108.427.434.07v-.425h.133v.426h.446v-.427h.12v.427l.46.012-.11-.427h.121l.133.415.41-.154-.169-.39h.109l.193.39.386-.213-.242-.367s.06 0 .097-.071l.265.355.338-.284-.326-.439h.109l.313.308.29-.331-.362-.26.072-.095.374.236.217-.378-.398-.19a1 1 0 0 0 .06-.118l.399.177.132-.45-.422-.13v-.118l.422.165.073-.426h-.434a.4.4 0 0 1 0-.118h.434v-.521h-.434a.5.5 0 0 1 .06-.119"/><path fill="url(#e)" d="M15.864 20a2.37 2.37 0 0 0-1.304.38 2.3 2.3 0 0 0-.867 1.03c-.179.419-.227.881-.138 1.328.09.446.311.856.638 1.179.327.322.743.542 1.198.632s.925.045 1.353-.129a2.33 2.33 0 0 0 1.052-.846 2.27 2.27 0 0 0-.286-2.898A2.36 2.36 0 0 0 15.864 20"/><path fill="url(#f)" d="M7.142 20.32h6.115c.213 0 .386.169.386.378v1.492c0 .21-.173.38-.386.38H7.142a.38.38 0 0 1-.386-.38v-1.492c0-.209.173-.379.386-.379"/><path fill="url(#g)" d="m21.774 21.713-.053-.22 4.235-.993.053.22z"/><path fill="url(#h)" d="m15.803 23.208-.096-.426a.1.1 0 0 1 .014-.083.1.1 0 0 1 .07-.047l5.765-1.362a.12.12 0 0 1 .09.013q.042.024.055.07l.097.426a.1.1 0 0 1-.014.083.1.1 0 0 1-.07.047l-5.766 1.362a.14.14 0 0 1-.087-.016.13.13 0 0 1-.058-.067"/><path fill="url(#i)" d="M17.89 18.863h22.507v2.06H17.89z"/><path fill="url(#j)" d="M17.89 20.414h22.507v.497H17.89z"/><path fill="url(#k)" d="M2.03 19.076h15.86v1.302H2.03z"/><path fill="url(#l)" d="M2.03 20.059h15.86v.32H2.03z"/><path fill="url(#m)" d="M18.336 20.899a3.8 3.8 0 0 0-1.42-1.34 3.9 3.9 0 0 0-1.909-.472 4 4 0 0 0-1.91.488 3.9 3.9 0 0 0-1.43 1.336c2.243-.036 4.28-.048 6.669-.012" style="mix-blend-mode:multiply"/><path fill="url(#n)" d="M19.412 23.552a4.05 4.05 0 0 0-.134-1.83 4.1 4.1 0 0 0-.93-1.59 4.2 4.2 0 0 0-1.54-1.038 4.3 4.3 0 0 0-1.846-.279 4.24 4.24 0 0 0-1.828.27 4.2 4.2 0 0 0-1.53 1.02 4.1 4.1 0 0 0-.93 1.567 4 4 0 0 0-.15 1.809h.723s-.374-3.896 3.715-3.896 3.727 4.062 3.727 4.062z"/><path fill="url(#o)" d="M14.863 19.289a3.8 3.8 0 0 0-1.62.275c-.513.209-.971.528-1.342.933a3.64 3.64 0 0 0-.803 1.409 3.6 3.6 0 0 0-.107 1.61h.254s-.374-3.931 3.715-3.931 3.726 4.062 3.726 4.062H19s.229-4.358-4.137-4.358" style="mix-blend-mode:multiply"/><path fill="#7F7F83" d="M15.453 19.371c0 .32 1.712.214 2.593 1.599.88 1.385.458 2.167.892 2.167s.398-1.646-.374-2.759c-.916-1.35-3.039-1.551-3.111-1.007" style="mix-blend-mode:overlay"/><path fill="#87878A" d="M15.635 19.42c0 .307 1.592.236 2.412 1.515s.47 2.025.88 2.025.35-1.54-.373-2.581c-.869-1.256-2.834-1.457-2.919-.96" style="mix-blend-mode:overlay"/><path fill="#8E8E90" d="M15.828 19.478c0 .273 1.46.237 2.22 1.433s.47 1.906.856 1.906.313-1.456-.374-2.368c-.808-1.22-2.618-1.444-2.702-.97" style="mix-blend-mode:overlay"/><path fill="#969697" d="M16.019 19.585c0 .26 1.327.26 2.038 1.35.712 1.09.47 1.788.82 1.788s.266-1.35-.361-2.262c-.628-.912-2.413-1.361-2.497-.876" style="mix-blend-mode:overlay"/><path fill="#9E9E9E" d="M16.213 19.585c-.06.237 1.206.272 1.845 1.267.64.995.483 1.67.796 1.67s.23-1.256-.362-2.108c-.59-.853-2.195-1.22-2.28-.829" style="mix-blend-mode:overlay"/><path fill="#A5A5A4" d="M16.394 19.585c0 .213 1.073.296 1.677 1.184.602.888.47 1.563.771 1.551.302-.011.181-1.184-.361-1.93-.543-.746-1.99-1.101-2.087-.805" style="mix-blend-mode:overlay"/><path fill="#ADADAB" d="M16.589 19.68c0 .201.953.308 1.495 1.113s.47 1.433.736 1.433.145-1.054-.362-1.776c-.506-.723-1.797-1.066-1.87-.77" style="mix-blend-mode:overlay"/><path fill="#B4B4B1" d="M16.78 19.739c-.06.166.82.32 1.302 1.03s.47 1.315.712 1.303c.24-.012.108-.96-.35-1.61-.458-.652-1.568-.983-1.665-.723" style="mix-blend-mode:overlay"/><path fill="#BCBCB8" d="M16.972 19.786c-.072.154.688.344 1.122.948.434.603.47 1.184.688 1.184s.06-.865-.362-1.457-1.351-.876-1.448-.675" style="mix-blend-mode:overlay"/><path fill="#C4C4BF" d="M17.168 19.845c-.085.13.554.344.94.865.386.52.459 1.077.651 1.066.194-.012 0-.758-.35-1.291-.349-.533-1.145-.83-1.241-.64" style="mix-blend-mode:overlay"/><path fill="#CBCBC5" d="M17.345 19.893c-.072.107.446.367.76.781s.47.96.627.948 0-.651-.35-1.113-.928-.758-1.037-.616" style="mix-blend-mode:overlay"/><path fill="#D3D3CC" d="M17.54 19.94c-.085.095.313.391.578.71.266.32.458.842.591.83s-.06-.557-.338-.96c-.277-.402-.723-.674-.832-.58" style="mix-blend-mode:overlay"/><path fill="url(#p)" d="M14.97 19.976a3.3 3.3 0 0 0-1.824.538c-.54.353-.961.857-1.209 1.445a3.15 3.15 0 0 0-.182 1.862c.128.624.443 1.197.905 1.645a3.3 3.3 0 0 0 1.686.87c.637.12 1.297.05 1.893-.2a3.25 3.25 0 0 0 1.46-1.202c.353-.534.537-1.16.527-1.797a3.17 3.17 0 0 0-.966-2.238 3.3 3.3 0 0 0-2.29-.924"/><path fill="url(#q)" d="M17.865 22.865h.422l-.072-.414-.422.095v-.119l.422-.118-.145-.403-.398.166v-.107l.386-.19-.217-.366-.362.236-.072-.106.35-.249-.278-.331-.314.296-.084-.083.193-.403-.338-.284-.253.355a.6.6 0 0 0-.108-.07l.24-.356-.373-.213-.193.379-.109-.06.17-.39-.411-.142-.12.414h-.121l.096-.414-.422-.071v.414h-.12v-.426h-.435v.426h-.12v-.414l-.434.07.024.427h-.12L13.992 20l-.398.142.17.39-.11.06-.192-.38-.386.214.241.355-.096.071-.266-.355-.325.284.301.308-.096.083-.314-.296-.277.331.35.25-.073.106-.362-.237-.217.367.386.19v.106l-.398-.166-.145.403.41.118a.4.4 0 0 0 0 .119l-.434-.095-.072.414h.434q.009.06 0 .119h-.434v.426h.434q.009.06 0 .118h-.434l.072.427.434-.107a.4.4 0 0 0 0 .119l-.41.13.145.39.386-.082v.106l-.386.19.217.379.362-.237.072.095-.35.26.278.32.313-.296.097.083-.302.32.326.272.314-.308.096.07-.241.356.386.213.193-.379h.108l-.168.391.398.142.132-.402h.12l-.108.426.434.07v-.425h.121v.426h.434v-.426h.12v.426l.423-.071-.096-.426h.12l.12.402.41-.142-.168-.39h.109l.192.378.374-.213-.24-.355.132-.071.253.343.362-.343-.302-.32a.6.6 0 0 0 .085-.083l.314.296.277-.32-.35-.26s0-.06.073-.095l.361.237.217-.379-.386-.19v-.106l.399.166.144-.39-.422-.131v-.119l.422.107.073-.426h-.423v-.119h.435v-.426h-.435z"/><path fill="url(#r)" d="M14.969 21.148c-.41 0-.81.12-1.15.344s-.604.542-.76.914a2 2 0 0 0-.11 1.175c.082.394.282.754.574 1.036a2.098 2.098 0 0 0 2.26.416c.376-.159.696-.424.918-.762a2 2 0 0 0-.287-2.543 2.08 2.08 0 0 0-1.446-.58"/><path fill="url(#s)" d="M14.973 22.57a.64.64 0 0 0-.353.098.606.606 0 0 0-.103.952.63.63 0 0 0 .69.131.62.62 0 0 0 .28-.231.6.6 0 0 0 .1-.347.6.6 0 0 0-.18-.427.62.62 0 0 0-.434-.177"/><path fill="url(#t)" d="M14.97 22.746a.44.44 0 0 0-.23.097.43.43 0 0 0-.136.451.43.43 0 0 0 .37.3.44.44 0 0 0 .424-.217.42.42 0 0 0-.103-.536.44.44 0 0 0-.326-.095"/><path fill="url(#u)" d="M14.958 22.865a.33.33 0 0 0-.19.11.316.316 0 0 0 .19.518.33.33 0 0 0 .27-.067.32.32 0 0 0 .118-.247.31.31 0 0 0-.119-.247.33.33 0 0 0-.27-.067"/><path fill="url(#v)" d="M14.959 22.178a.15.15 0 0 0-.103.042.14.14 0 0 0 0 .2.146.146 0 0 0 .205 0 .14.14 0 0 0 0-.2.15.15 0 0 0-.102-.042"/><path fill="url(#w)" d="M14.96 22.225a.1.1 0 0 0-.065.03.1.1 0 0 0-.031.065q0 .04.028.067a.097.097 0 0 0 .136 0 .1.1 0 0 0 .029-.067.1.1 0 0 0-.032-.064.1.1 0 0 0-.065-.03"/><path fill="url(#x)" d="M14.959 23.883a.15.15 0 0 0-.103.042.14.14 0 0 0 0 .2.146.146 0 0 0 .205 0 .14.14 0 0 0 0-.2.15.15 0 0 0-.102-.042"/><path fill="url(#y)" d="M14.96 23.93a.1.1 0 0 0-.066.031.1.1 0 0 0-.031.064c0 .025.01.05.028.067a.1.1 0 0 0 .068.028.09.09 0 0 0 .073-.024.08.08 0 0 0 .024-.07q0-.04-.029-.068a.1.1 0 0 0-.068-.028"/><path fill="url(#z)" d="M14.078 22.676a.15.15 0 0 0 0 .201.147.147 0 0 0 .193-.059.13.13 0 0 0 .041-.095.13.13 0 0 0-.041-.095.17.17 0 0 0-.193.048"/><path fill="url(#A)" d="M14.127 22.7a.1.1 0 0 0-.01.072.095.095 0 0 0 .082.07.1.1 0 0 0 .097-.048.105.105 0 0 0 0-.13.11.11 0 0 0-.094-.023.11.11 0 0 0-.075.059"/><path fill="url(#B)" d="M15.584 23.528a.164.164 0 0 0 0 .201.16.16 0 0 0 .205 0 .14.14 0 0 0-.045-.223.15.15 0 0 0-.16.022"/><path fill="url(#C)" d="M15.634 23.552a.08.08 0 0 0-.032.065.08.08 0 0 0 .032.065.086.086 0 0 0 .12 0 .094.094 0 0 0 0-.13.1.1 0 0 0-.12 0"/><path fill="url(#D)" d="M14.14 23.48a.14.14 0 0 0 0 .19.16.16 0 0 0 .204 0 .14.14 0 0 0 .043-.1.14.14 0 0 0-.043-.1.13.13 0 0 0-.105-.043.14.14 0 0 0-.1.054"/><path fill="url(#E)" d="M14.162 23.516a.094.094 0 0 0 0 .13q.02.021.049.027a.1.1 0 0 0 .1-.039.094.094 0 0 0-.044-.141.1.1 0 0 0-.105.023"/><path fill="url(#F)" d="M15.632 22.628a.14.14 0 0 0 0 .19.147.147 0 0 0 .193.06.153.153 0 0 0 0-.202.147.147 0 0 0-.193-.047"/><path fill="url(#G)" d="M15.66 22.664a.106.106 0 0 0 0 .13.11.11 0 0 0 .133 0 .1.1 0 0 0 .048-.095.1.1 0 0 0-.07-.08.1.1 0 0 0-.075.01z"/><path fill="url(#H)" d="M35.729 22.58h4.668v-1.657h-5.959z"/><path fill="url(#I)" d="M26.38 19.62h8.286c.107 0 .193.086.193.19v2.51c0 .105-.086.19-.193.19h-8.285a.19.19 0 0 1-.193-.19v-2.51c0-.104.086-.19.193-.19"/><path fill="url(#J)" d="M26.188 20.935h8.671v.13h-8.671z"/><path fill="url(#K)" d="M26.188 21.065h8.671v.13h-8.671z"/><path fill="url(#L)" d="M34.666 19.656h-.168v2.89h.168q.08-.001.137-.056a.2.2 0 0 0 .056-.134V19.81a.2.2 0 0 0-.068-.111.2.2 0 0 0-.125-.043" style="mix-blend-mode:soft-light"/><path fill="url(#M)" d="M26.427 22.545h.169v-2.89h-.17c-.05 0-.1.02-.136.056a.2.2 0 0 0-.056.134v2.475a.19.19 0 0 0 .11.208.2.2 0 0 0 .083.017" style="mix-blend-mode:soft-light"/><path fill="url(#N)" d="M34.171 19.62h.23v2.89h-.23z"/><path fill="url(#O)" d="M26.658 19.62h.229v2.89h-.23z"/><path fill="url(#P)" d="M34.04 19.62h.132v2.89h-.133z" style="mix-blend-mode:multiply"/><path fill="url(#Q)" d="M26.524 19.62h.132v2.89h-.132z" style="mix-blend-mode:multiply"/><path fill="url(#R)" d="M34.533 22.51H34.4v-2.89h.133z" style="mix-blend-mode:multiply"/><path fill="url(#S)" d="M27.008 22.51h-.133v-2.89h.133z" style="mix-blend-mode:multiply"/><path fill="url(#T)" d="M.485.71h38.788v17.951H.485z"/><path fill="url(#U)" d="M7.88 19.087h.35v1.421h-.35z"/><path fill="url(#V)" d="M2.959 19.087h.35v1.421h-.35z"/><path fill="#B1740F" d="M1.836 20.153h6.887v.557H1.836z"/><path fill="#922415" d="M7.637 20.722h.664l.422-.569h-.664zM6.178 20.722h.675l.422-.569h-.663zM4.733 20.722h.663l.434-.569h-.675zM3.284 20.722h.663l.422-.569h-.663zM1.826 20.722h.676l.422-.569h-.676z"/><path fill="url(#W)" d="M1.848 20.153h6.875v.332H1.848z" style="mix-blend-mode:soft-light"/><path fill="url(#X)" d="M34.098 19.087h.386v1.575h-.386z"/><path fill="url(#Y)" d="M27.673 19.087h.386v1.575h-.386z"/><path fill="url(#Z)" d="M20.675 19.087h.386v1.575h-.386z"/><path fill="#B1740F" d="M20.002 20.284H35.56v.58H20.002z"/><path fill="#922415" d="M34.234 20.864h.808l.518-.58h-.808zM32.448 20.864h.82l.52-.58h-.821zM30.673 20.864h.82l.519-.58h-.82zM28.888 20.864h.82l.519-.58h-.808zM27.114 20.864h.82l.52-.58h-.821zM25.341 20.864h.808l.519-.58h-.808zM23.558 20.864h.82l.518-.58h-.82zM21.786 20.864h.82l.519-.58h-.82zM20.013 20.864h.808l.519-.58h-.808z"/><path fill="url(#aa)" d="M20.002 20.284H35.56v.343H20.002z" style="mix-blend-mode:soft-light"/><path fill="url(#ab)" d="M2.041 18.768h37.365v1.125H2.041z" style="mix-blend-mode:multiply"/><path fill="url(#ac)" d="M39.406 18.768v1.67a.2.2 0 0 1-.063.139.22.22 0 0 1-.142.062h-2.11a.23.23 0 0 1-.17-.083l-.892-1.279H.305v-.509zm-2.677 1.184.265.39a.23.23 0 0 0 .169.084h.59a.2.2 0 0 0 .146-.06.2.2 0 0 0 .06-.142v-.438a.2.2 0 0 0-.06-.142.2.2 0 0 0-.145-.059h-.868a.22.22 0 0 0-.15.058.2.2 0 0 0-.068.143q.016.066.06.119z"/><path fill="url(#ad)" d="M43.59 17.785c-.715 0-1.415.208-2.01.599a3.57 3.57 0 0 0-1.332 1.594 3.5 3.5 0 0 0-.206 2.052c.14.69.484 1.322.99 1.82.506.496 1.15.834 1.853.971a3.7 3.7 0 0 0 2.09-.202 3.6 3.6 0 0 0 1.624-1.308c.398-.584.61-1.271.61-1.974a3.52 3.52 0 0 0-1.06-2.512 3.65 3.65 0 0 0-2.558-1.04"/><path fill="url(#ae)" d="m46.81 21.006.483-.06-.084-.461-.47.106v-.13l.47-.13-.17-.45-.446.19a.4.4 0 0 0 0-.119l.435-.213-.242-.415-.398.26-.084-.106.398-.284-.314-.367-.35.332a1 1 0 0 1-.096-.095l.326-.343-.362-.308-.29.378-.12-.07.108-.403-.422-.237-.217.426-.12-.059.193-.426-.459-.166-.132.45h-.133l.108-.462-.47-.083-.06.462h-.133v-.485h-.482v.485h-.085v-.462l-.482.083.12.462h-.132l-.145-.45-.446.166.193.426-.133.06-.217-.427-.41.237.265.402-.108.072-.29-.38-.374.309.338.343a1 1 0 0 0-.096.095l-.35-.332-.314.367.386.284-.084.107-.398-.26-.242.414.435.213-.06.118-.447-.19-.157.45.459.131v.13l-.47-.106-.085.462.482.059a.5.5 0 0 1 0 .13h-.482v.474h.482a.5.5 0 0 1 0 .13h-.482l.084.462.47-.107v.13l-.458.13.157.45.446-.189s0 .083.06.119l-.434.213.242.414.398-.225.084.107-.386.284.314.367.35-.331a1 1 0 0 0 .096.094l-.338.344.374.308.29-.391.108.083-.265.402.41.237.217-.426h.133l-.193.426.446.166.145-.45h.132l-.12.462.482.083v-.462h.145v.485h.482v-.485h.133l.06.462.47-.083-.108-.462h.133l.133.45.458-.166-.193-.426h.12l.218.426.361-.32-.265-.402.109-.083.29.39.36-.307-.325-.344.097-.094.35.331.313-.367-.398-.284.133-.024.398.26.241-.414-.434-.213a.6.6 0 0 0 0-.118l.446.19.169-.45-.47-.131v-.13l.47.106.084-.461h-.482a.4.4 0 0 0 0-.13h.482v-.474h-.482a.44.44 0 0 0 .12-.166"/><path fill="url(#af)" d="M43.591 18.827c-.508 0-1.005.148-1.427.425a2.53 2.53 0 0 0-.946 1.132c-.195.46-.246.968-.146 1.457.099.49.343.939.703 1.291.359.353.817.593 1.315.69a2.6 2.6 0 0 0 1.484-.143c.47-.19.87-.514 1.153-.929a2.49 2.49 0 0 0-.32-3.184 2.6 2.6 0 0 0-1.816-.74"/><path fill="url(#ag)" d="M49.9 22.782h-9.503V17.43H49.9z"/><path fill="url(#ah)" d="m52.385 14.92-3.16-.072-6.537-1.42a.76.76 0 0 1-.431-.27.74.74 0 0 1-.16-.477l.108-4.736 6.163.817z" style="mix-blend-mode:soft-light"/><path fill="url(#ai)" d="M47.634 20.296a2.38 2.38 0 0 0-.871-1.065 2.44 2.44 0 0 0-1.325-.416h-5.33v-6.891l.277-4.855a.21.21 0 0 1 .072-.16.22.22 0 0 1 .17-.053c1.205 0 7.163.32 8.381.888.93.438 1.954 2.084 2.678 3.185a17.6 17.6 0 0 1 1.882 3.458c.203 1.03.304 2.077.301 3.126 0 1.042-.325 4.156-.325 4.156h-5.368z"/><g style="mix-blend-mode:soft-light"><path fill="gray" d="M48.994 7.814c-.845-.556-7.527-.923-7.973-.77-.446.155-.157 5.46.097 5.98.253.522 7.61 2.025 8.285 2.144.676.118 3.004.13 3.233-.26.229-.391-1.327-5.542-3.643-7.094"/><path fill="#8C8C8C" d="M48.97 7.826c-.833-.544-7.466-.935-7.889-.757-.422.177-.144 5.376.109 5.92.253.545 7.514 1.99 8.19 2.096s2.966.142 3.183-.249c.218-.39-1.302-5.494-3.594-7.01"/><path fill="#979797" d="M48.947 7.838c-.82-.545-7.406-.948-7.816-.758s-.12 5.305.121 5.802 7.43 1.966 8.093 2.06 2.93.143 3.148-.248-1.279-5.376-3.546-6.856"/><path fill="#A3A3A3" d="M48.92 7.838c-.807-.52-7.344-.947-7.742-.746-.398.202-.097 5.246.144 5.72.242.473 7.333 1.918 7.985 2.036.651.119 2.894.13 3.111-.237s-1.266-5.316-3.497-6.773"/><path fill="#AEAEAE" d="M48.896 7.85c-.808-.521-7.236-.947-7.658-.734s-.085 5.163.157 5.636c.24.474 7.236 1.871 7.875 1.978s2.859.13 3.076-.237-1.242-5.222-3.45-6.643"/><path fill="#BABABA" d="M48.873 7.85c-.796-.498-7.237-.948-7.587-.723s-.06 5.092.17 5.554c.228.462 7.151 1.835 7.766 1.942s2.823.13 3.028-.237-1.194-5.14-3.377-6.536"/><path fill="#C5C5C5" d="M48.85 7.861c-.784-.497-7.164-.959-7.514-.71s0 5.009.193 5.459 7.055 1.812 7.695 1.906c.639.095 2.786.13 2.99-.225.206-.355-1.217-5.056-3.364-6.43"/><path fill="#D1D1D1" d="M48.825 7.874a27 27 0 0 0-7.43-.71c-.422.319 0 4.937.205 5.387s6.96 1.764 7.623 1.859 2.75.118 2.955-.225-1.23-4.973-3.353-6.311"/><path fill="#DCDCDC" d="M48.8 7.873a26.5 26.5 0 0 0-7.358-.699c-.41.356 0 4.867.217 5.305.217.439 6.875 1.73 7.49 1.824s2.702.118 2.907-.225-1.158-4.89-3.257-6.205"/><path fill="#E8E8E8" d="M48.776 7.885a26 26 0 0 0-7.236-.687c-.398.38 0 4.737.241 5.21.241.474 6.778 1.694 7.381 1.789s2.678.118 2.87-.213c.194-.332-1.181-4.82-3.256-6.099"/><path fill="#F3F3F3" d="M48.75 7.886a25.4 25.4 0 0 0-7.236-.675c-.398.414 0 4.736.253 5.139s6.682 1.646 7.236 1.74c.555.095 2.642.107 2.835-.212.193-.32-1.05-4.737-3.088-5.992"/><path fill="#fff" d="M48.73 7.897a24.5 24.5 0 0 0-7.128-.663c-.398.427.06 4.642.265 5.045s6.597 1.61 7.236 1.705c.64.095 2.606.106 2.799-.213.193-.32-1.158-4.654-3.172-5.874"/></g><path fill="url(#aj)" d="M44.402 20.023a3.3 3.3 0 0 0-1.81.54 3.2 3.2 0 0 0-1.2 1.437 3.14 3.14 0 0 0-.183 1.849c.126.62.438 1.19.894 1.636.457.447 1.038.75 1.67.873a3.3 3.3 0 0 0 1.883-.187 3.24 3.24 0 0 0 1.46-1.183 3.16 3.16 0 0 0 .294-3.001 3.2 3.2 0 0 0-.706-1.035 3.3 3.3 0 0 0-1.057-.69 3.3 3.3 0 0 0-1.245-.239"/><path fill="url(#ak)" d="M47.246 22.9h.434l-.073-.414-.422.095v-.118l.422-.119-.193-.39-.398.177v-.106l.386-.202-.217-.367-.362.237-.072-.095.35-.26-.278-.32-.313.296-.085-.095.29-.308-.326-.272-.265.344-.097-.072.242-.355-.374-.213-.193.379h-.12l.18-.39-.41-.143-.12.403h-.121l.096-.415-.422-.083v.427h-.12v-.427h-.435v.427h-.12v-.427l-.434.083.108.415h-.12l-.121-.403-.41.142.169.391h-.109L43 20.343l-.374.213.241.355-.108.072-.254-.344-.337.273.301.307-.084.095-.314-.296-.277.32.35.26s-.06.06-.073.095l-.361-.237-.218.367.386.202a.4.4 0 0 0 0 .106l-.41-.178-.144.403.422.118v.119l-.422-.095-.073.415h.434a.5.5 0 0 0 0 .13h-.434v.426h.434a.4.4 0 0 0 0 .119h-.434l.073.426.422-.107v.119l-.422.13.144.39.254-.224v.106l-.386.19.217.379.362-.237s0 .06.072.095l-.35.248.35.403.313-.296q.039.045.085.083l-.302.32.338.272.241-.38.097.072-.23.355.375.213.192-.39h.11l-.17.39.41.142.12-.402h.121l-.108.414.434.083v-.426h.12v.438h.435v-.438h.12v.426l.423-.083-.097-.414h.12l.121.402.41-.142-.168-.39h.108l.193.39.374-.213-.241-.355.145-.071.265.343.326-.272-.29-.32.084-.083.35.332.278-.332-.35-.248.072-.13.362.236.217-.379-.386-.19v-.106l.398.166.157-.39-.422-.131v-.118l.422.106.072-.426h-.434a.4.4 0 0 0 0-.119h.434v-.426h-.434a.5.5 0 0 0 .048-.118"/><path fill="url(#al)" d="M44.365 25.245c-1.139 0-2.062-.907-2.062-2.025s.923-2.025 2.062-2.025c1.14 0 2.063.907 2.063 2.025s-.924 2.025-2.063 2.025"/><path fill="url(#am)" d="M44.363 23.824a.61.61 0 0 1-.615-.604.61.61 0 0 1 .615-.604c.34 0 .615.27.615.604a.61.61 0 0 1-.615.604"/><path fill="url(#an)" d="M44.363 23.647a.43.43 0 0 1-.434-.427.43.43 0 0 1 .434-.426c.24 0 .434.19.434.426a.43.43 0 0 1-.434.427"/><path fill="url(#ao)" d="M44.4 22.9a.33.33 0 0 0-.19.11.316.316 0 0 0 0 .407.327.327 0 0 0 .459.044.32.32 0 0 0 .118-.247.32.32 0 0 0-.118-.247.33.33 0 0 0-.27-.067"/><path fill="url(#ap)" d="M44.4 22.225a.15.15 0 0 0-.102.042.14.14 0 0 0 0 .2.146.146 0 0 0 .204 0 .14.14 0 0 0 0-.2.15.15 0 0 0-.102-.042"/><path fill="url(#aq)" d="M44.399 22.273q-.04 0-.069.027a.1.1 0 0 0-.028.067.1.1 0 0 0 .031.064.1.1 0 0 0 .066.031q.04 0 .068-.028a.1.1 0 0 0 .028-.067.08.08 0 0 0-.024-.071.09.09 0 0 0-.072-.023"/><path fill="url(#ar)" d="M44.4 23.919a.16.16 0 0 0-.1.044.15.15 0 0 0-.045.098c0 .038.015.074.042.1a.15.15 0 0 0 .103.042.15.15 0 0 0 .11-.037.14.14 0 0 0 .047-.105.15.15 0 0 0-.05-.101.16.16 0 0 0-.107-.041"/><path fill="url(#as)" d="M44.365 24.168a.096.096 0 0 1-.097-.095c0-.053.043-.095.096-.095s.097.042.097.095a.096.096 0 0 1-.096.095"/><path fill="url(#at)" d="M43.495 22.723a.13.13 0 0 0-.041.094.13.13 0 0 0 .041.095.17.17 0 0 0 .205 0 .15.15 0 0 0 .01-.112.16.16 0 0 0-.07-.09.15.15 0 0 0-.145.013"/><path fill="url(#au)" d="M43.534 22.747a.105.105 0 0 0 0 .13.11.11 0 0 0 .133 0 .095.095 0 0 0-.072-.142.1.1 0 0 0-.097.047z"/><path fill="url(#av)" d="M44.99 23.564a.164.164 0 0 0 0 .201.16.16 0 0 0 .206-.059.14.14 0 0 0 0-.19.146.146 0 0 0-.206.048"/><path fill="url(#aw)" d="M45.039 23.587a.082.082 0 0 0 0 .13.08.08 0 0 0 .06.025.09.09 0 0 0 .06-.025.082.082 0 0 0 0-.13.09.09 0 0 0-.093-.018.1.1 0 0 0-.027.018"/><path fill="url(#ax)" d="M43.545 23.517a.13.13 0 0 0-.042.094.13.13 0 0 0 .042.095.14.14 0 0 0 .084.068.15.15 0 0 0 .109-.009.152.152 0 0 0 .06-.201.17.17 0 0 0-.188-.08.2.2 0 0 0-.065.032"/><path fill="url(#ay)" d="M43.568 23.564a.08.08 0 0 0 0 .118.085.085 0 0 0 .103.023.1.1 0 0 0 .03-.023.094.094 0 0 0 0-.13.1.1 0 0 0-.133.012"/><path fill="url(#az)" d="M45.038 22.664a.15.15 0 0 0 0 .19.14.14 0 0 0 .085.068.15.15 0 0 0 .108-.01.15.15 0 0 0 0-.2.17.17 0 0 0-.193-.048"/><path fill="url(#aA)" d="M45.064 22.711a.094.094 0 0 0 0 .119.11.11 0 0 0 .132 0 .094.094 0 0 0 0-.13.097.097 0 0 0-.132.011"/><path fill="url(#aB)" d="M53.892 20.769c0-.284-2.256-.296-2.316-.249.285.433.47.922.543 1.433q.115.676.157 1.362s1.206 0 1.459-.32c.154-.732.207-1.48.157-2.226"/><path fill="#7F7F83" d="M52.397 20.64a7.7 7.7 0 0 0 .325 2.119c.157.225.748.107.869.118.26-.671.355-1.393.277-2.107-.036-.178-1.435-.296-1.471-.13" style="mix-blend-mode:overlay"/><path fill="#868688" d="M52.445 20.65c.015.664.124 1.321.325 1.955.145.213.7.13.808.142a4.04 4.04 0 0 0 .266-1.978c-.036-.166-1.363-.284-1.4-.118" style="mix-blend-mode:overlay"/><path fill="#8C8C8E" d="M52.493 20.663c.041.611.158 1.216.35 1.8.144.2.663.142.76.153.22-.59.295-1.223.216-1.847-.036-.154-1.29-.272-1.327-.106" style="mix-blend-mode:overlay"/><path fill="#939393" d="M52.54 20.675c.03.555.132 1.104.302 1.634.12.19.603.165.7.165.225-.539.312-1.125.252-1.705-.036-.142-1.218-.248-1.254-.094" style="mix-blend-mode:overlay"/><path fill="#999998" d="M52.602 20.674c.01.506.091 1.008.24 1.492.11.166.556.178.64.178a3.4 3.4 0 0 0 .29-1.575c-.037-.13-1.146-.237-1.17-.095" style="mix-blend-mode:overlay"/><path fill="#A0A09E" d="M52.651 20.686c.041.453.143.9.302 1.326.096.154.494.202.579.202.192-.457.266-.953.217-1.445-.036-.118-1.074-.225-1.098-.083" style="mix-blend-mode:overlay"/><path fill="#A6A6A3" d="M52.696 20.698q.075.61.29 1.184a.9.9 0 0 0 .53.213c.175-.42.245-.874.206-1.326-.037-.106-1.001-.213-1.026-.07" style="mix-blend-mode:overlay"/><path fill="#ADADA9" d="M52.745 20.77q.093.516.289 1.006c.132.12.294.202.47.237.159-.375.225-.78.193-1.184-.036-.154-.928-.25-.953-.06" style="mix-blend-mode:overlay"/><path fill="#B3B3AE" d="M52.842 20.77c.056.293.15.58.277.852a.96.96 0 0 0 .41.248c.14-.35.189-.728.145-1.1-.036-.084-.832-.179-.832 0" style="mix-blend-mode:overlay"/><path fill="#BABAB3" d="M52.844 20.769q.091.367.277.699a.84.84 0 0 0 .35.26c.136-.301.198-.63.18-.959-.036-.071-.808-.166-.808 0" style="mix-blend-mode:overlay"/><path fill="#C0C0B9" d="M52.84 20.77q.109.283.264.544a.9.9 0 0 0 .302.272c.128-.255.202-.533.217-.817-.036 0-.784-.142-.784 0" style="mix-blend-mode:overlay"/><path fill="#C7C7BE" d="M52.95 20.77c0 .058.23.307.266.378q.094.169.24.296c.084-.216.133-.444.146-.675-.037 0-.652-.13-.652 0" style="mix-blend-mode:overlay"/><path fill="url(#aC)" d="M53.483 22.415q-.602.045-1.206 0v.888s1.206 0 1.46-.32c.09-.222.134-.459.132-.698a3 3 0 0 1-.386.13" style="mix-blend-mode:multiply"/><path fill="url(#aD)" d="M53.89 20.769c0-.284-2.255-.296-2.315-.249l.06.249a8.3 8.3 0 0 1 1.87 0c.156 0 .386.083.386 0" style="mix-blend-mode:overlay"/><path fill="url(#aE)" d="M52.37 20.533h.157v2.735h-.156z" style="mix-blend-mode:hard-light"/><path fill="url(#aF)" d="M48.222 23.28h4.15v-2.985h-4.753l.603 2.073z"/><path fill="url(#aG)" d="M51.647 20.295h.724v2.984h-.724z" style="mix-blend-mode:multiply"/><path fill="url(#aH)" d="M49.21 23.28h-.964l.048-1.291-.663-1.694h1.58z" style="mix-blend-mode:multiply"/><path fill="#fff" d="M52.385 22.604h-3.92v-.236h3.353c.16 0 .316.05.446.142z" style="mix-blend-mode:soft-light"/><path fill="url(#aI)" d="m48.018 20.295.447 1.658c.096.331.145.674.144 1.019v.343h-.386V22.9a3.8 3.8 0 0 0-.144-1.041l-.459-1.564z"/><path fill="#232628" d="M52.925 14.067a16.7 16.7 0 0 0-2.075-3.955c-.748-1.184-1.483-1.8-1.29-1.93.792.838 1.488 1.76 2.074 2.747a20 20 0 0 1 1.81 3.244v.143s-.399-.024-.52-.25"/><path fill="#637771" d="M49.644 8.206a16.5 16.5 0 0 1 1.99 2.723 20 20 0 0 1 1.81 3.245.76.76 0 0 1-.495-.285 20 20 0 0 0-2.135-4.002c-.494-.852-1.05-1.385-1.17-1.681"/><path fill="url(#aJ)" d="M43.59 15.062a.54.54 0 0 1-.543-.533c0-.294.243-.533.543-.533s.543.239.543.533a.54.54 0 0 1-.543.533"/><path fill="url(#aK)" d="M42.493 14.706h2.062a.18.18 0 0 0 .128-.052.176.176 0 0 0 0-.25.18.18 0 0 0-.128-.053h-2.062a.18.18 0 0 0-.128.052.175.175 0 0 0 0 .251c.034.034.08.052.128.052"/><path fill="#fff" d="M51.683 19.585h-.88a.12.12 0 0 1-.121-.119v-.343a.12.12 0 0 1 .12-.118h.88a.12.12 0 0 1 .121.118v.343a.12.12 0 0 1-.12.119" style="mix-blend-mode:multiply"/><path fill="#F1F1F1" d="M50.814 19.016h.88c.06 0 .109.048.109.107v.343a.11.11 0 0 1-.109.107h-.88a.11.11 0 0 1-.109-.107v-.343c0-.059.049-.107.109-.107" style="mix-blend-mode:multiply"/><path fill="#E4E4E4" d="M50.84 19.016h.844c.06 0 .109.048.109.107v.331a.11.11 0 0 1-.109.107h-.844a.11.11 0 0 1-.108-.107v-.331c0-.059.048-.107.108-.107" style="mix-blend-mode:multiply"/><path fill="#D6D6D6" d="M50.853 19.029h.82c.06 0 .108.047.108.106v.308a.107.107 0 0 1-.108.107h-.82a.11.11 0 0 1-.109-.107v-.308c0-.059.049-.106.109-.106" style="mix-blend-mode:multiply"/><path fill="#C8C8C8" d="M50.865 19.029h.808c.053 0 .096.042.096.094v.308a.096.096 0 0 1-.096.095h-.808a.096.096 0 0 1-.096-.095v-.308c0-.052.043-.094.096-.094" style="mix-blend-mode:multiply"/><path fill="#BBB" d="M50.877 19.04h.784c.054 0 .097.043.097.095v.296a.096.096 0 0 1-.097.095h-.784a.096.096 0 0 1-.096-.095v-.296c0-.052.043-.095.096-.095" style="mix-blend-mode:multiply"/><path fill="#ADADAD" d="M50.902 19.04h.748c.053 0 .096.043.096.095v.272a.096.096 0 0 1-.096.095h-.748a.096.096 0 0 1-.097-.095v-.272c0-.052.044-.095.097-.095" style="mix-blend-mode:multiply"/><path fill="#A0A0A0" d="M50.899 19.053h.723c.054 0 .097.042.097.094v.249a.096.096 0 0 1-.097.095H50.9a.096.096 0 0 1-.097-.095v-.249c0-.052.043-.094.097-.094" style="mix-blend-mode:multiply"/><path fill="#929292" d="M50.913 19.053h.712c.046 0 .084.037.084.082v.261a.084.084 0 0 1-.084.083h-.712a.084.084 0 0 1-.084-.083v-.26c0-.046.037-.083.084-.083" style="mix-blend-mode:multiply"/><path fill="#848484" d="M50.925 19.064h.688c.047 0 .084.037.084.083v.237a.084.084 0 0 1-.084.083h-.688a.084.084 0 0 1-.084-.083v-.237c0-.046.038-.083.084-.083" style="mix-blend-mode:multiply"/><path fill="#777" d="M50.95 19.064h.651c.047 0 .084.037.084.083v.213a.084.084 0 0 1-.084.083h-.651a.084.084 0 0 1-.085-.083v-.213c0-.046.038-.083.085-.083" style="mix-blend-mode:multiply"/><path fill="#696969" d="M51.599 19.431h-.652a.07.07 0 0 1-.072-.07v-.226c0-.04.032-.07.072-.07h.652c.04 0 .072.03.072.07v.225c0 .04-.032.071-.072.071" style="mix-blend-mode:multiply"/><path fill="#B74700" d="M51.647 19.502h-.832a.096.096 0 0 1-.096-.094v-.296c0-.053.043-.095.096-.095h.832c.054 0 .097.042.097.095v.296a.096.096 0 0 1-.097.094"/><path fill="#B94A00" d="M50.83 19.016h.831c.054 0 .097.043.097.095v.284a.096.096 0 0 1-.097.095h-.832a.096.096 0 0 1-.096-.095v-.284c0-.052.043-.095.096-.095"/><path fill="#BB4D00" d="M50.841 19.029h.82c.054 0 .097.042.097.094v.273a.096.096 0 0 1-.097.095h-.82a.096.096 0 0 1-.096-.095v-.273c0-.052.043-.094.096-.094"/><path fill="#BC5000" d="M50.83 19.029h.82c.053 0 .096.042.096.094v.25a.096.096 0 0 1-.096.094h-.82a.096.096 0 0 1-.097-.095v-.249c0-.052.043-.094.097-.094"/><path fill="#BE5300" d="M50.842 19.029h.808c.053 0 .096.042.096.094v.237a.096.096 0 0 1-.096.095h-.808a.096.096 0 0 1-.097-.095v-.237c0-.052.043-.094.097-.094"/><path fill="#C05600" d="M50.83 19.029h.832c.046 0 .084.037.084.083v.248a.084.084 0 0 1-.084.083h-.832a.084.084 0 0 1-.085-.083v-.248c0-.046.038-.083.085-.083"/><path fill="#C25900" d="M50.842 19.029h.82c.046 0 .084.037.084.083v.236a.084.084 0 0 1-.084.083h-.82a.084.084 0 0 1-.085-.083v-.236c0-.046.038-.083.085-.083"/><path fill="#C45C00" d="M50.826 19.029h.82c.047 0 .084.037.084.083v.213a.084.084 0 0 1-.084.083h-.82a.084.084 0 0 1-.084-.083v-.213c0-.046.037-.083.084-.083"/><path fill="#C55F00" d="M50.838 19.029h.808c.047 0 .084.037.084.083v.2a.084.084 0 0 1-.084.084h-.808a.084.084 0 0 1-.084-.083v-.201c0-.046.037-.083.084-.083"/><path fill="#C76200" d="M50.838 19.029h.808c.047 0 .084.037.084.083v.19a.084.084 0 0 1-.084.082h-.808a.084.084 0 0 1-.084-.083v-.19c0-.045.037-.082.084-.082"/><path fill="#C96500" d="M50.85 19.029h.796c.047 0 .084.037.084.083v.177a.084.084 0 0 1-.084.083h-.796a.084.084 0 0 1-.084-.083v-.177c0-.046.037-.083.084-.083"/><path fill="#CB6800" d="M50.826 19.04h.82c.04 0 .073.032.073.071v.178c0 .04-.033.07-.073.07h-.82a.07.07 0 0 1-.072-.07v-.178c0-.039.032-.07.072-.07"/><path fill="#CD6B00" d="M50.838 19.04h.808c.04 0 .073.032.073.071v.166c0 .04-.033.071-.073.071h-.808a.07.07 0 0 1-.072-.071v-.166c0-.039.032-.07.072-.07"/><path fill="#CF6E00" d="M50.838 19.04h.808c.04 0 .073.032.073.071v.154c0 .04-.033.071-.073.071h-.808a.07.07 0 0 1-.072-.07v-.155c0-.039.032-.07.072-.07"/><path fill="#D07100" d="M50.84 19.04h.797c.04 0 .072.032.072.071v.142c0 .04-.032.071-.072.071h-.796a.07.07 0 0 1-.073-.07v-.143c0-.039.033-.07.073-.07"/><path fill="#D27400" d="M50.853 19.04h.784c.04 0 .072.032.072.071v.119c0 .039-.032.07-.072.07h-.784a.07.07 0 0 1-.073-.07v-.119c0-.039.033-.07.073-.07"/><path fill="#D47700" d="M50.853 19.04h.784c.04 0 .072.032.072.071v.107c0 .039-.032.07-.072.07h-.784a.07.07 0 0 1-.073-.07v-.107c0-.039.033-.07.073-.07"/><path fill="#D67A00" d="M50.853 19.04h.796a.06.06 0 0 1 .06.06v.118a.06.06 0 0 1-.06.059h-.796a.06.06 0 0 1-.06-.06V19.1a.06.06 0 0 1 .06-.059"/><path fill="#D87D00" d="M50.84 19.04h.797a.06.06 0 0 1 .06.06v.106a.06.06 0 0 1-.06.06h-.796a.06.06 0 0 1-.06-.06v-.107a.06.06 0 0 1 .06-.059"/><path fill="#D98000" d="M50.853 19.04h.784a.06.06 0 0 1 .06.06v.082a.06.06 0 0 1-.06.06h-.784a.06.06 0 0 1-.06-.06V19.1a.06.06 0 0 1 .06-.059"/><path fill="#DB8300" d="M50.853 19.04h.784a.06.06 0 0 1 .06.06v.07a.06.06 0 0 1-.06.06h-.784a.06.06 0 0 1-.06-.06v-.07a.06.06 0 0 1 .06-.06"/><path fill="#DD8600" d="M51.623 19.23h-.772a.06.06 0 0 1-.06-.06v-.059a.06.06 0 0 1 .06-.059h.772a.06.06 0 0 1 .06.06v.059a.06.06 0 0 1-.06.059"/><path fill="#fff" d="M50.817 19.1q.435.045.868 0s0-.084-.084-.096a3 3 0 0 0-.784.095" opacity=".5"/><path fill="url(#aL)" d="M53.964 17.916v-.13l-.856-.084c-.073 0-.133.119-.145.284v.64c0 .107 0 .19.072.201l.88.142s.073 0 .085-.118z"/><path fill="url(#aM)" d="M53.555 18.401v.414s.072-.177.096-.414 0-.403 0-.403-.072.142-.096.403" style="mix-blend-mode:soft-light"/><path fill="url(#aN)" d="M53.652 17.963s-.072.177-.096.402 0 .415 0 .415l-.446-.249v-.58z" style="mix-blend-mode:soft-light"/><path fill="url(#aO)" d="M53.72 18.4v.427c0 .012.085-.19.097-.414.012-.225 0-.427 0-.427s-.072.202-.097.415" style="mix-blend-mode:soft-light"/><path fill="#C45C00" d="M52.842 18.626v-.651c0-.154.085-.284.157-.272h.193s.06 0 0 .13v1.006h-.217s-.133-.106-.133-.213"/><path fill="url(#aP)" d="M53.025 17.761c0 .166.723.071.808.19q.05.46 0 .923a4 4 0 0 0 0-1.018 4 4 0 0 0-.808-.095" style="mix-blend-mode:soft-light"/><path fill="url(#aQ)" d="M53.131 18.01v.237s.06-.119.06-.249v-.237c0 .012-.048.107-.06.25" style="mix-blend-mode:soft-light"/><path fill="url(#aR)" d="M53.105 18.543v.237s0-.107.072-.237 0-.249 0-.249-.06.107-.072.25" style="mix-blend-mode:soft-light"/><path fill="url(#aS)" d="M53.083 18.152q.325-.02.651 0s0 .71.073.734v-1.018a.144.144 0 0 0-.096-.13l-.821-.072a.27.27 0 0 0-.084.13.3.3 0 0 1 0 .096v.059a.19.19 0 0 0 .075.184.2.2 0 0 0 .202.017" style="mix-blend-mode:soft-light"/><path fill="url(#aT)" d="m53.89 18.887-.88-.308s-.084-.107-.072-.225v-.178c0-.166 0-.32.084-.379a.8.8 0 0 1 .314-.07h-.326a.27.27 0 0 0-.084.13.3.3 0 0 1 0 .094v.64c0 .106 0 .19.072.2l.88.143s0 .012.013-.047" style="mix-blend-mode:multiply"/><path fill="url(#aU)" d="M42.736 18.815a7.1 7.1 0 0 0-1.543 1.528c-.19.318-.322.667-.386 1.03-.145.995-.145 2.51-.218 2.877-.052.346-.157.681-.313.995a1 1 0 0 1-.386.32s.12-1.184.133-1.93c0-1.042.084-4.82.084-4.82z"/><path fill="url(#aV)" d="M42.723 18.815h-2.63v.284h2.268z" style="mix-blend-mode:multiply"/><path fill="url(#aW)" d="M49.007 7.744c.236.121.452.277.64.462h-9.324l.06-1.184a.21.21 0 0 1 .073-.16.22.22 0 0 1 .169-.054c1.242.095 7.164.368 8.382.936" style="mix-blend-mode:soft-light"/><path fill="#232628" d="M51.323 12.48c-.073-.142-1.653-3.552-2.895-3.943a32 32 0 0 0-5.295-.592.67.67 0 0 0-.492.178.65.65 0 0 0-.207.474v3.15a.73.73 0 0 0 .13.407c.084.12.203.213.34.267l6.368 2.369q.134.016.266 0h2.412a.11.11 0 0 0 .084-.048.1.1 0 0 0 .013-.094z"/><path fill="url(#aX)" d="M51.793 14.517a25 25 0 0 0-1.085-2.795c-.398-.675-1.64-2.806-2.413-3.007a31 31 0 0 0-5.234-.592.44.44 0 0 0-.307.124.42.42 0 0 0-.127.302v3.22c0 .081.026.16.073.226a.4.4 0 0 0 .192.142l4.692.568a1.33 1.33 0 0 1 .94.569l.809 1.184a.3.3 0 0 0 .156 0z"/><path fill="#A8B3AF" d="M48.944 10.882a3 3 0 0 0-1.03-1.178 3.1 3.1 0 0 0-1.491-.516l-3.763-.26v-.32c0-.113.046-.221.127-.301a.44.44 0 0 1 .307-.125c1.759.049 3.51.247 5.234.592.712.201 1.954 2.368 2.413 3.008q.625 1.366 1.085 2.794H49.56a.3.3 0 0 1-.157 0l-.302-.45h1.014A.28.28 0 0 0 50.35 14a.27.27 0 0 0 .016-.265z" style="mix-blend-mode:multiply"/><path fill="#232628" d="m47.79 12.729 1.58 1.764-.833-5.814-.23-.07.41 4.297a.13.13 0 0 1-.053.115.13.13 0 0 1-.127.016z"/><path fill="#282B2D" d="M51.84 16.364c.373 0 .494-.166.494-.26v-.746a.12.12 0 0 0-.04-.089.12.12 0 0 0-.093-.03h-.7a.14.14 0 0 0-.106.038.13.13 0 0 0-.038.104v.71c0 .095.157.273.483.273"/><path fill="#26292B" d="M52.322 15.357a.1.1 0 0 0-.036-.08.11.11 0 0 0-.084-.026h-.7a.13.13 0 0 0-.126.088.1.1 0 0 0-.006.054v.698a.23.23 0 0 0 .096.143.6.6 0 0 0 .386.118c.35 0 .47-.154.47-.249z"/><path fill="#24282A" d="M52.313 15.369s0-.107-.121-.118h-.688a.15.15 0 0 0-.094.045.14.14 0 0 0-.038.097v.698c0 .119 0 .083.096.13.109.077.24.115.374.107.338 0 .458-.142.458-.237z"/><path fill="#232628" d="M52.3 15.37a.1.1 0 0 0-.035-.08.1.1 0 0 0-.085-.027h-.675c-.06 0-.12 0-.12.142v.687a.24.24 0 0 0 .084.13.75.75 0 0 0 .373.095c.326 0 .447-.142.447-.225z"/><path fill="#212426" d="M52.288 15.381a.1.1 0 0 0-.027-.08.1.1 0 0 0-.081-.026h-.676s-.108 0-.108.13v.687a.18.18 0 0 0 .084.118c.11.064.235.097.362.095.314 0 .434-.13.434-.225z"/><path fill="#1F2224" d="M52.277 15.381s0-.083-.108-.107h-.664a.13.13 0 0 0-.075.054.13.13 0 0 0-.021.088v.675a.4.4 0 0 0 .096.119.8.8 0 0 0 .35.083c.302 0 .422-.13.422-.213z"/><path fill="#1D2123" d="M52.277 15.393c0-.059 0-.083-.108-.106h-.664a.12.12 0 0 0-.074.046.12.12 0 0 0-.022.084v.675c0 .095 0 .071.096.107q.162.07.338.07c.29 0 .422-.118.422-.2z"/><path fill="#1B1F21" d="M52.264 15.393s0-.083-.109-.095h-.639s-.084 0-.084.13v.664c0 .094 0 .059.096.094a.8.8 0 0 0 .326.072c.277 0 .41-.119.41-.19z"/><path fill="#1A1D1F" d="M52.25 15.393s0-.07-.108-.083h-.64s-.072 0-.072.13q-.02.332 0 .664s0 .059.096.094q.157.024.314 0c.265 0 .398-.106.398-.19z"/><path fill="#181B1D" d="M52.236 15.405s0-.071-.096-.095h-.627a.17.17 0 0 0-.073.13v.652c0 .083.06 0 .109.083q.15.021.301 0c.254 0 .386-.095.386-.166z"/><path fill="#161A1C" d="m52.227 15.405-.097-.083h-.615s-.06 0-.06.13v.64a.15.15 0 0 0 .108.07 1 1 0 0 0 .29 0c.24 0 .374-.094.374-.165z"/><path fill="#14181A" d="M52.215 15.417a.1.1 0 0 0-.028-.056.1.1 0 0 0-.057-.027h-.603s-.06.06-.06.13a5 5 0 0 0 0 .64c.027.035.066.06.109.07h.29c.216 0 .349-.082.349-.153z"/><path fill="#121618" d="m52.202 15.417-.085-.083h-.591v.13q-.028.316 0 .628a.16.16 0 0 0 .109.06h.277c.205 0 .338-.084.338-.155z"/><path fill="#101416" d="M52.19 15.429s0-.06-.072-.083h-.591v.118a4.5 4.5 0 0 0 0 .628h.374c.193 0 .326-.072.326-.13z"/><path fill="#0F1215" d="M52.18 15.429a.08.08 0 0 0-.073-.071.6.6 0 0 0-.229 0h-.35a.2.2 0 0 0 0 .13 5 5 0 0 0 0 .616h.339c.18 0 .313-.06.313-.13z"/><path fill="#0D1113" d="m52.168 15.44-.072-.082a1 1 0 0 0-.217 0h-.242a.2.2 0 0 0-.108 0 .2.2 0 0 0 0 .118 3 3 0 0 0 0 .616q.054.015.108 0h.23c.18 0 .301-.059.301-.118z"/><path fill="#0B0F11" d="M51.637 16.128h.241c.169 0 .302 0 .302-.119v-.568s-.133-.107-.302-.107h-.35q-.054.362 0 .722.042.054.109.072"/><path fill="#fff" d="M51.78 15.642s.229.485.446.473c.217-.011 0-.805 0-.828a1.2 1.2 0 0 0-.627 0c-.073.023.205.39.18.355" opacity=".06" style="mix-blend-mode:soft-light"/><path fill="#fff" d="M51.792 15.618s.217.462.434.45 0-.746 0-.77a1.15 1.15 0 0 0-.603 0c-.06.012.193.367.169.32" opacity=".13" style="mix-blend-mode:soft-light"/><path fill="#fff" d="M51.805 15.606s.206.426.41.415c.205-.012 0-.699 0-.723a1.1 1.1 0 0 0-.554 0c-.024.024.169.344.144.308" opacity=".19" style="mix-blend-mode:soft-light"/><path fill="#fff" d="M51.831 15.583s.181.402.374.39c.193-.011 0-.639 0-.663a1.1 1.1 0 0 0-.518 0c-.049.012.156.308.144.273" opacity=".25" style="mix-blend-mode:soft-light"/><path fill="#fff" d="M51.841 15.57s.17.368.35.356c.181-.012 0-.592 0-.616 0-.023-.41 0-.482 0s.144.284.132.26" opacity=".31" style="mix-blend-mode:soft-light"/><path fill="#fff" d="M51.853 15.547s.157.344.326.332 0-.533 0-.557c0-.023-.374 0-.446 0s.132.249.12.225" opacity=".38" style="mix-blend-mode:soft-light"/><path fill="#fff" d="M51.865 15.535s.156.308.301.296c.145-.011.06-.485 0-.509a.85.85 0 0 0-.422 0c-.012 0 .133.237.12.213" opacity=".44" style="mix-blend-mode:soft-light"/><path fill="#fff" d="M51.879 15.512s.144.284.29.272c.144-.012 0-.426 0-.45s-.314 0-.375 0c-.06 0 .109.202.085.178" opacity=".5" style="mix-blend-mode:soft-light"/><path fill="#fff" d="M51.9 15.5s.121.248.254.236c.132-.011.06-.379 0-.402a.8.8 0 0 0-.338 0c-.024 0 .096.178.084.166" opacity=".56" style="mix-blend-mode:soft-light"/><path fill="#fff" d="M51.914 15.488s.109.213.23.201c.12-.012.06-.32 0-.343-.061-.024-.242 0-.302 0s.084.142.072.142" opacity=".63" style="mix-blend-mode:soft-light"/><path fill="#fff" d="M51.926 15.464s.097.19.205.178c.109-.012.072-.273.06-.296-.012-.024-.205 0-.265 0s.012.118 0 .118" opacity=".69" style="mix-blend-mode:soft-light"/><path fill="#fff" d="M51.937 15.453s.085.154.181.142.072-.225 0-.237-.169 0-.23 0c-.06 0 .061.095.05.095" opacity=".75" style="mix-blend-mode:soft-light"/><path fill="#fff" d="M51.95 15.43s.072.13.157.117c.084-.011.072-.165.072-.189s-.145 0-.193 0-.024.071-.036.071" opacity=".81" style="mix-blend-mode:soft-light"/><path fill="#fff" d="M51.962 15.417s.072.095.132.083.085-.119.073-.13-.097 0-.145 0-.048.035-.06.047" opacity=".88" style="mix-blend-mode:soft-light"/><path fill="#fff" d="M51.987 15.393s0 .071.109.071a.11.11 0 0 0 .072-.095h-.12z" opacity=".94" style="mix-blend-mode:soft-light"/><path fill="#fff" d="M52 15.381h.084c-.085 0-.085-.023-.085 0" style="mix-blend-mode:soft-light"/><path fill="#282B2D" d="M50.428 13.664h.724a.38.38 0 0 0 .345-.227.4.4 0 0 0 .028-.14v-2.676a.4.4 0 0 0-.12-.285.41.41 0 0 0-.29-.118h-.687a.2.2 0 0 0-.114.034.18.18 0 0 0-.067.096 4.5 4.5 0 0 0-.217 1.492c.003.556.075 1.109.217 1.646a.2.2 0 0 0 .059.12.2.2 0 0 0 .122.058"/><path fill="#26292B" d="M50.433 13.664h.724c.102 0 .2-.04.273-.11a.38.38 0 0 0 .113-.268V10.68a.4.4 0 0 0-.123-.281.43.43 0 0 0-.287-.121h-.7a.22.22 0 0 0-.193.13 5 5 0 0 0-.205 1.492c.005.547.078 1.092.217 1.622a.2.2 0 0 0 .067.101c.032.026.073.04.114.041"/><path fill="#24282A" d="M50.43 13.593h.663c.102 0 .2-.04.272-.11a.38.38 0 0 0 .113-.269v-2.557a.4.4 0 0 0-.12-.285.41.41 0 0 0-.29-.118h-.639a.2.2 0 0 0-.113.034.18.18 0 0 0-.068.096 5 5 0 0 0-.205 1.469c0 .539.07 1.076.205 1.598a.2.2 0 0 0 .067.1c.032.027.073.041.114.042"/><path fill="#232628" d="M50.432 13.57h.64c.101 0 .2-.04.272-.111a.38.38 0 0 0 .113-.268v-2.51a.4.4 0 0 0-.12-.285.41.41 0 0 0-.29-.118h-.615a.2.2 0 0 0-.114.034.18.18 0 0 0-.067.096c-.136.47-.2.957-.193 1.445.002.535.07 1.068.205 1.587a.2.2 0 0 0 .064.09q.047.035.105.04"/><path fill="#212426" d="M50.429 13.546h.627c.099 0 .194-.04.264-.108a.36.36 0 0 0 .11-.26v-2.486a.39.39 0 0 0-.117-.277.4.4 0 0 0-.281-.114h-.603a.18.18 0 0 0-.181.118c-.136.47-.201.957-.193 1.445a7 7 0 0 0 .193 1.551q.016.06.067.096a.2.2 0 0 0 .114.035"/><path fill="#1F2224" d="M50.429 13.534h.603a.4.4 0 0 0 .27-.114.4.4 0 0 0 .116-.265v-2.44a.4.4 0 0 0-.12-.284.4.4 0 0 0-.29-.118h-.579q-.062 0-.112.037a.2.2 0 0 0-.069.093 5.5 5.5 0 0 0-.18 1.421 6 6 0 0 0 .192 1.528.2.2 0 0 0 .062.097q.046.039.107.045"/><path fill="#1D2123" d="M50.43 13.51h.567c.102 0 .2-.04.273-.11a.38.38 0 0 0 .113-.269v-2.368a.4.4 0 0 0-.12-.285.41.41 0 0 0-.29-.118h-.543a.18.18 0 0 0-.169.13 5.3 5.3 0 0 0-.18 1.398c.001.51.062 1.019.18 1.516a.19.19 0 0 0 .169.106"/><path fill="#1B1F21" d="M50.433 13.487h.542c.103 0 .2-.04.273-.111a.38.38 0 0 0 .113-.268V10.74a.39.39 0 0 0-.116-.277.4.4 0 0 0-.282-.114h-.53a.16.16 0 0 0-.108.028.15.15 0 0 0-.061.09 4.9 4.9 0 0 0-.181 1.397 6.5 6.5 0 0 0 .197 1.539.15.15 0 0 0 .092.077q.03.009.06.007"/><path fill="#1A1D1F" d="M50.43 13.475h.518c.102 0 .2-.04.273-.111a.38.38 0 0 0 .113-.268v-2.368a.4.4 0 0 0-.116-.28.41.41 0 0 0-.282-.123h-.507a.2.2 0 0 0-.106.038.18.18 0 0 0-.062.092q-.176.676-.17 1.374c.001.494.058.986.17 1.468q.004.069.051.12c.031.032.073.052.117.058"/><path fill="#181B1D" d="M50.428 13.451h.483c.103 0 .203-.04.277-.11a.4.4 0 0 0 .12-.269v-2.285a.4.4 0 0 0-.124-.277.42.42 0 0 0-.285-.114h-.47a.16.16 0 0 0-.104.037.15.15 0 0 0-.054.094 5.2 5.2 0 0 0-.169 1.35q0 .731.17 1.444a.17.17 0 0 0 .055.091.17.17 0 0 0 .101.04"/><path fill="#161A1C" d="M50.429 13.427h.47c.103 0 .2-.04.273-.11a.38.38 0 0 0 .113-.268V10.81a.39.39 0 0 0-.116-.277.4.4 0 0 0-.282-.114h-.458a.17.17 0 0 0-.169.118 5.5 5.5 0 0 0-.157 1.35q.007.713.157 1.41.014.057.06.094.049.036.109.035"/><path fill="#14181A" d="M50.432 13.403h.446c.102 0 .2-.04.273-.11a.38.38 0 0 0 .113-.268v-2.191a.39.39 0 0 0-.117-.277.4.4 0 0 0-.281-.114h-.434a.16.16 0 0 0-.1.032.15.15 0 0 0-.057.087c-.11.433-.162.879-.157 1.326q-.003.707.157 1.397a.15.15 0 0 0 .057.086.16.16 0 0 0 .1.032"/><path fill="#121618" d="M50.428 13.392h.483a.4.4 0 0 0 .277-.115.38.38 0 0 0 .109-.276v-2.155a.39.39 0 0 0-.117-.276.4.4 0 0 0-.281-.115h-.47a.17.17 0 0 0-.102.04.17.17 0 0 0-.055.09 6 6 0 0 0-.145 1.303q.001.694.145 1.374.016.054.057.089a.2.2 0 0 0 .1.041"/><path fill="#101416" d="M50.501 13.368h.386c.104 0 .203-.04.277-.11a.4.4 0 0 0 .121-.269v-2.12a.39.39 0 0 0-.116-.275.4.4 0 0 0-.282-.115h-.386a.15.15 0 0 0-.102.029.14.14 0 0 0-.055.09A6 6 0 0 0 50.2 11.9q.003.683.144 1.35a.14.14 0 0 0 .055.09q.047.033.102.028"/><path fill="#0F1215" d="M50.504 13.345h.362a.39.39 0 0 0 .367-.231.4.4 0 0 0 .03-.148v-2.084a.37.37 0 0 0-.246-.354.4.4 0 0 0-.151-.025h-.362a.17.17 0 0 0-.157.118c-.09.42-.134.85-.133 1.28 0 .444.044.889.133 1.325a.17.17 0 0 0 .157.119"/><path fill="#0D1113" d="M50.505 13.332h.35a.4.4 0 0 0 .273-.118.39.39 0 0 0 .112-.272v-2.037a.39.39 0 0 0-.116-.276.4.4 0 0 0-.282-.115h-.337a.16.16 0 0 0-.093.036.15.15 0 0 0-.052.083 6.3 6.3 0 0 0 0 2.57.15.15 0 0 0 .049.09q.04.035.096.04"/><path fill="#0B0F11" d="M50.511 13.309h.314a.39.39 0 0 0 .36-.242.4.4 0 0 0 .026-.149v-1.99a.37.37 0 0 0-.109-.275.39.39 0 0 0-.277-.115h-.314a.16.16 0 0 0-.1.032.15.15 0 0 0-.057.086 7.3 7.3 0 0 0-.12 1.256q.005.643.12 1.278a.15.15 0 0 0 .057.087.16.16 0 0 0 .1.032"/><path fill="#fff" d="M50.816 11.604c0-.119.301 1.74.603 1.67.11-.963.081-1.935-.084-2.89-.133-.118-.64-.177-.748 0 .019.415.096.825.229 1.22" opacity=".06" style="mix-blend-mode:soft-light"/><path fill="#fff" d="M50.828 11.533c0-.107.277 1.634.566 1.563a8.9 8.9 0 0 0-.072-2.7c-.12-.107-.59-.166-.7 0-.108.166.242 1.279.206 1.137" opacity=".13" style="mix-blend-mode:soft-light"/><path fill="#fff" d="M50.84 11.462c0-.095.265 1.527.53 1.468a8.1 8.1 0 0 0 0-2.522c-.108-.107-.554-.166-.663 0s.169 1.184.133 1.054" opacity=".19" style="mix-blend-mode:soft-light"/><path fill="#fff" d="M50.853 11.403c0-.083.253 1.409.507 1.35.13-.785.13-1.584 0-2.369-.097-.094-.519-.154-.615 0-.097.154.132 1.125.108 1.019" opacity=".25" style="mix-blend-mode:soft-light"/><path fill="#fff" d="M50.864 11.296c0-.071.241 1.302.47 1.255a6.7 6.7 0 0 0 0-2.143.63.63 0 0 0-.579-.071c-.12.13.133 1.09.109.959" opacity=".31" style="mix-blend-mode:soft-light"/><path fill="#fff" d="M50.888 11.296s.205 1.184.434 1.184a6.3 6.3 0 0 0 0-1.953.57.57 0 0 0-.53-.071c-.122.011.108.9.096.84" opacity=".38" style="mix-blend-mode:soft-light"/><path fill="#fff" d="M50.9 11.2s.194 1.09.399 1.043a5.5 5.5 0 0 0 0-1.776.57.57 0 0 0-.495-.071c-.096.083.109.9.097.805" opacity=".44" style="mix-blend-mode:soft-light"/><path fill="#fff" d="M50.913 11.13s.181.983.362.948a4.4 4.4 0 0 0 0-1.599.46.46 0 0 0-.446-.071c-.073.071.096.782.084.722" opacity=".5" style="mix-blend-mode:soft-light"/><path fill="#fff" d="M50.927 11.071s.169.864.338.829a3.9 3.9 0 0 0 0-1.397.4.4 0 0 0-.398-.083c-.073.059.072.687.06.651" opacity=".56" style="mix-blend-mode:soft-light"/><path fill="#fff" d="M50.936 11s.144.758.301.734a3.2 3.2 0 0 0 0-1.184.34.34 0 0 0-.362-.083c-.048.012.073.557.06.533" opacity=".63" style="mix-blend-mode:soft-light"/><path fill="#fff" d="M50.946 10.929s.132.651.277.627c.145-.023.085-.947 0-1.03a.3.3 0 0 0-.313-.083c-.049.036.048.498.036.486" opacity=".69" style="mix-blend-mode:soft-light"/><path fill="#fff" d="M50.962 10.87s.12.545.241.521.097-.782 0-.853a.3.3 0 0 0-.277-.094c-.012.035.048.414.036.426" opacity=".75" style="mix-blend-mode:soft-light"/><path fill="#fff" d="M50.974 10.799s.096.438.205.426.096-.604.072-.675a.23.23 0 0 0-.229-.095c-.072.024-.036.332-.048.344" opacity=".81" style="mix-blend-mode:soft-light"/><path fill="#fff" d="M50.985 10.728s.084.331.181.32.096-.415.084-.474a.19.19 0 0 0-.193-.107c-.072.024-.06.237-.072.26" opacity=".88" style="mix-blend-mode:soft-light"/><path fill="#fff" d="M50.997 10.669s.072.213.145.213c.072 0 .108-.237.096-.296a.13.13 0 0 0-.051-.082.14.14 0 0 0-.094-.025c-.072.012-.084.142-.096.19" opacity=".94" style="mix-blend-mode:soft-light"/><path fill="#fff" d="M51.023 10.597a.105.105 0 0 0 .067.099.11.11 0 0 0 .118-.023.105.105 0 0 0-.016-.164.11.11 0 0 0-.137.013.1.1 0 0 0-.032.075" style="mix-blend-mode:soft-light"/><defs><linearGradient id="a" x1="4.066" x2=".966" y1="20.639" y2="20.639" gradientUnits="userSpaceOnUse"><stop offset=".01"/><stop offset=".04" stop-color="#1D2022"/><stop offset=".1" stop-color="#000102"/><stop offset=".91" stop-color="#25282A"/><stop offset=".99" stop-color="#6B6B6B"/></linearGradient><linearGradient id="b" x1=".824" x2=".824" y1="21.894" y2="21.148" gradientUnits="userSpaceOnUse"><stop stop-color="#303030"/><stop offset=".02" stop-color="#464646"/><stop offset=".06" stop-color="#787878"/><stop offset=".09" stop-color="#969696"/><stop offset=".1" stop-color="#A2A2A2"/><stop offset=".14" stop-color="#7D7D7C"/><stop offset=".17" stop-color="#5F5F5D"/><stop offset=".21" stop-color="#4D4D4B"/><stop offset=".23" stop-color="#464644"/><stop offset=".24" stop-color="#484846"/><stop offset=".37" stop-color="#555"/><stop offset=".47" stop-color="#5A5A5A"/><stop offset=".79" stop-color="#D3D3D2"/><stop offset=".83" stop-color="#C6C6C5"/><stop offset=".89" stop-color="#A3A3A2"/><stop offset=".97" stop-color="#6C6C6A"/><stop offset="1" stop-color="#555553"/></linearGradient><linearGradient id="f" x1="10.193" x2="10.193" y1="20.308" y2="22.569" gradientUnits="userSpaceOnUse"><stop offset=".01"/><stop offset=".04" stop-color="#1D2022"/><stop offset=".1" stop-color="#000102"/><stop offset=".91" stop-color="#25282A"/><stop offset=".99" stop-color="#6B6B6B"/></linearGradient><linearGradient id="g" x1="2.481" x2="2.533" y1="26.677" y2="26.897" gradientUnits="userSpaceOnUse"><stop stop-color="#555553"/><stop offset=".03" stop-color="#6C6C6A"/><stop offset=".11" stop-color="#A3A3A2"/><stop offset=".17" stop-color="#C6C6C5"/><stop offset=".21" stop-color="#D3D3D2"/><stop offset=".53" stop-color="#5A5A5A"/><stop offset=".63" stop-color="#555"/><stop offset=".76" stop-color="#484846"/><stop offset=".77" stop-color="#464644"/><stop offset=".79" stop-color="#4D4D4B"/><stop offset=".83" stop-color="#5F5F5D"/><stop offset=".86" stop-color="#7D7D7C"/><stop offset=".9" stop-color="#A2A2A2"/><stop offset=".91" stop-color="#969696"/><stop offset=".94" stop-color="#787878"/><stop offset=".98" stop-color="#464646"/><stop offset="1" stop-color="#303030"/></linearGradient><linearGradient id="h" x1="11.299" x2="11.452" y1="18.878" y2="19.522" gradientUnits="userSpaceOnUse"><stop stop-color="#555553"/><stop offset=".03" stop-color="#5D5D5B"/><stop offset=".08" stop-color="#747472"/><stop offset=".15" stop-color="#999998"/><stop offset=".16" stop-color="#A3A3A2"/><stop offset=".53" stop-color="#323232"/><stop offset=".65" stop-color="#373737"/><stop offset=".79" stop-color="#464644"/><stop offset=".81" stop-color="#4D4D4B"/><stop offset=".84" stop-color="#5F5F5D"/><stop offset=".87" stop-color="#7D7D7C"/><stop offset=".9" stop-color="#A2A2A2"/><stop offset=".91" stop-color="#969696"/><stop offset=".93" stop-color="#787878"/><stop offset=".96" stop-color="#464646"/><stop offset="1"/></linearGradient><linearGradient id="i" x1="29.144" x2="29.144" y1="18.851" y2="20.923" gradientUnits="userSpaceOnUse"><stop offset=".01"/><stop offset=".04" stop-color="#3C3C3B"/><stop offset=".1" stop-color="#1D1D1B"/><stop offset=".91" stop-color="#444443"/><stop offset=".95" stop-color="#9D9D9C"/><stop offset=".99" stop-color="#6B6B6B"/></linearGradient><linearGradient id="j" x1="29.144" x2="29.144" y1="20.414" y2="20.923" gradientUnits="userSpaceOnUse"><stop offset=".01" stop-color="#6B6B6B"/><stop offset=".05" stop-color="#9D9D9C"/><stop offset=".09" stop-color="#444443"/><stop offset=".9" stop-color="#1D1D1B"/><stop offset=".96" stop-color="#3C3C3B"/><stop offset=".99"/></linearGradient><linearGradient id="k" x1="9.967" x2="9.967" y1="19.064" y2="20.378" gradientUnits="userSpaceOnUse"><stop offset=".01"/><stop offset=".04" stop-color="#3C3C3B"/><stop offset=".1" stop-color="#1D1D1B"/><stop offset=".91" stop-color="#444443"/><stop offset=".95" stop-color="#9D9D9C"/><stop offset=".99" stop-color="#6B6B6B"/></linearGradient><linearGradient id="l" x1="9.967" x2="9.967" y1="20.059" y2="20.366" gradientUnits="userSpaceOnUse"><stop offset=".01" stop-color="#6B6B6B"/><stop offset=".05" stop-color="#9D9D9C"/><stop offset=".09" stop-color="#444443"/><stop offset=".9" stop-color="#1D1D1B"/><stop offset=".96" stop-color="#3C3C3B"/><stop offset=".99"/></linearGradient><linearGradient id="m" x1="15.007" x2="15.007" y1="19.502" y2="20.852" gradientUnits="userSpaceOnUse"><stop offset=".01" stop-color="#7C7E7F"/><stop offset="1" stop-color="#A9A9A7"/></linearGradient><linearGradient id="n" x1="10.511" x2="19.424" y1="21.219" y2="21.219" gradientUnits="userSpaceOnUse"><stop stop-color="#5A5A57"/><stop offset=".03" stop-color="#70726F"/><stop offset=".11" stop-color="#A7ADAB"/><stop offset=".14" stop-color="#BDC4C3"/><stop offset=".15" stop-color="#BEC5C4"/><stop offset=".23" stop-color="#D1D3D2"/><stop offset=".29" stop-color="#D8D8D7"/><stop offset=".53" stop-color="#D8D8D7"/><stop offset=".57" stop-color="#D8D8D7"/><stop offset=".71" stop-color="#D4D7D6"/><stop offset=".75" stop-color="#D1D6D5"/><stop offset=".8" stop-color="#C6CBC9"/><stop offset=".88" stop-color="#A9ACAA"/><stop offset=".99" stop-color="#777774"/></linearGradient><linearGradient id="o" x1="10.979" x2="19" y1="21.444" y2="21.444" gradientUnits="userSpaceOnUse"><stop stop-color="#E5E5E4"/><stop offset=".51" stop-color="#E7E7E6"/><stop offset=".79" stop-color="#EAEAEA"/><stop offset="1" stop-color="#F0F2F2"/></linearGradient><linearGradient id="t" x1="14.668" x2="15.371" y1="22.971" y2="23.469" gradientUnits="userSpaceOnUse"><stop stop-color="#666"/><stop offset=".53" stop-color="#0B0B0B"/></linearGradient><linearGradient id="v" x1="14.862" x2="15.101" y1="22.261" y2="22.419" gradientUnits="userSpaceOnUse"><stop stop-color="#434343"/><stop offset=".53" stop-color="#121212"/></linearGradient><linearGradient id="w" x1="14.9" x2="15.055" y1="22.285" y2="22.394" gradientUnits="userSpaceOnUse"><stop offset=".47" stop-color="#121212"/><stop offset="1" stop-color="#484848"/></linearGradient><linearGradient id="x" x1="14.862" x2="15.101" y1="23.954" y2="24.124" gradientUnits="userSpaceOnUse"><stop stop-color="#434343"/><stop offset=".53" stop-color="#121212"/></linearGradient><linearGradient id="y" x1="14.899" x2="15.054" y1="23.978" y2="24.087" gradientUnits="userSpaceOnUse"><stop offset=".47" stop-color="#121212"/><stop offset="1" stop-color="#484848"/></linearGradient><linearGradient id="z" x1="14.114" x2="14.34" y1="22.688" y2="22.857" gradientUnits="userSpaceOnUse"><stop stop-color="#434343"/><stop offset=".53" stop-color="#121212"/></linearGradient><linearGradient id="A" x1="14.139" x2="14.294" y1="22.711" y2="22.821" gradientUnits="userSpaceOnUse"><stop offset=".47" stop-color="#121212"/><stop offset="1" stop-color="#484848"/></linearGradient><linearGradient id="B" x1="15.608" x2="15.847" y1="23.528" y2="23.698" gradientUnits="userSpaceOnUse"><stop stop-color="#434343"/><stop offset=".53" stop-color="#121212"/></linearGradient><linearGradient id="C" x1="15.646" x2="15.801" y1="23.552" y2="23.661" gradientUnits="userSpaceOnUse"><stop offset=".47" stop-color="#121212"/><stop offset="1" stop-color="#484848"/></linearGradient><linearGradient id="D" x1="14.115" x2="14.354" y1="23.54" y2="23.698" gradientUnits="userSpaceOnUse"><stop stop-color="#434343"/><stop offset=".53" stop-color="#121212"/></linearGradient><linearGradient id="E" x1="14.137" x2="14.305" y1="23.563" y2="23.673" gradientUnits="userSpaceOnUse"><stop offset=".47" stop-color="#121212"/><stop offset="1" stop-color="#484848"/></linearGradient><linearGradient id="F" x1="15.608" x2="15.846" y1="22.676" y2="22.846" gradientUnits="userSpaceOnUse"><stop stop-color="#434343"/><stop offset=".53" stop-color="#121212"/></linearGradient><linearGradient id="G" x1="15.648" x2="15.803" y1="22.7" y2="22.809" gradientUnits="userSpaceOnUse"><stop offset=".47" stop-color="#121212"/><stop offset="1" stop-color="#484848"/></linearGradient><linearGradient id="H" x1="37.417" x2="37.417" y1="20.899" y2="22.545" gradientUnits="userSpaceOnUse"><stop offset=".01"/><stop offset=".04" stop-color="#1D2022"/><stop offset=".1" stop-color="#000102"/><stop offset=".91" stop-color="#25282A"/><stop offset=".99" stop-color="#6B6B6B"/></linearGradient><linearGradient id="I" x1="30.529" x2="30.529" y1="19.609" y2="22.51" gradientUnits="userSpaceOnUse"><stop stop-color="#444443"/><stop offset=".07" stop-color="#80807F"/><stop offset=".09" stop-color="#6F6F6E"/><stop offset=".14" stop-color="#585857"/><stop offset=".19" stop-color="#494948"/><stop offset=".22" stop-color="#444443"/><stop offset=".9" stop-color="#1D1D1B"/><stop offset=".96" stop-color="#3C3C3B"/><stop offset=".99"/></linearGradient><linearGradient id="J" x1="30.529" x2="30.529" y1="20.935" y2="21.065" gradientUnits="userSpaceOnUse"><stop stop-color="#444443"/><stop offset=".07" stop-color="#80807F"/><stop offset=".09" stop-color="#6F6F6E"/><stop offset=".14" stop-color="#585857"/><stop offset=".19" stop-color="#494948"/><stop offset=".22" stop-color="#444443"/><stop offset=".9" stop-color="#1D1D1B"/><stop offset=".96" stop-color="#3C3C3B"/><stop offset=".99"/></linearGradient><linearGradient id="K" x1="30.529" x2="30.529" y1="21.065" y2="21.195" gradientUnits="userSpaceOnUse"><stop stop-color="#444443"/><stop offset=".07" stop-color="#80807F"/><stop offset=".09" stop-color="#6F6F6E"/><stop offset=".14" stop-color="#585857"/><stop offset=".19" stop-color="#494948"/><stop offset=".22" stop-color="#444443"/><stop offset=".9" stop-color="#1D1D1B"/><stop offset=".96" stop-color="#3C3C3B"/><stop offset=".99"/></linearGradient><linearGradient id="L" x1="34.835" x2="34.498" y1="21.065" y2="21.065" gradientUnits="userSpaceOnUse"><stop stop-color="#E5E5E4"/><stop offset=".1" stop-color="#E7E7E6"/><stop offset=".27" stop-color="#C5C5C4"/><stop offset=".46" stop-color="#A7A7A7"/><stop offset=".65" stop-color="#919191"/><stop offset=".83" stop-color="#848484"/><stop offset="1" stop-color="gray"/></linearGradient><linearGradient id="M" x1="26.21" x2="26.547" y1="21.065" y2="21.065" gradientUnits="userSpaceOnUse"><stop stop-color="#E5E5E4"/><stop offset=".1" stop-color="#E7E7E6"/><stop offset=".27" stop-color="#C5C5C4"/><stop offset=".46" stop-color="#A7A7A7"/><stop offset=".65" stop-color="#919191"/><stop offset=".83" stop-color="#848484"/><stop offset="1" stop-color="gray"/></linearGradient><linearGradient id="N" x1="34.292" x2="34.292" y1="19.609" y2="22.51" gradientUnits="userSpaceOnUse"><stop stop-color="#444443"/><stop offset=".07" stop-color="#80807F"/><stop offset=".09" stop-color="#6F6F6E"/><stop offset=".14" stop-color="#585857"/><stop offset=".19" stop-color="#494948"/><stop offset=".22" stop-color="#444443"/><stop offset=".9" stop-color="#1D1D1B"/><stop offset=".96" stop-color="#3C3C3B"/><stop offset=".99"/></linearGradient><linearGradient id="O" x1="26.766" x2="26.766" y1="19.609" y2="22.51" gradientUnits="userSpaceOnUse"><stop stop-color="#444443"/><stop offset=".07" stop-color="#80807F"/><stop offset=".09" stop-color="#6F6F6E"/><stop offset=".14" stop-color="#585857"/><stop offset=".19" stop-color="#494948"/><stop offset=".22" stop-color="#444443"/><stop offset=".9" stop-color="#1D1D1B"/><stop offset=".96" stop-color="#3C3C3B"/><stop offset=".99"/></linearGradient><linearGradient id="P" x1="34.172" x2="34.039" y1="21.065" y2="21.065" gradientUnits="userSpaceOnUse"><stop offset=".06" stop-color="#93A49E"/><stop offset=".1" stop-color="#A6B4AF"/><stop offset=".17" stop-color="#C2CBC8"/><stop offset=".25" stop-color="#D8DFDC"/><stop offset=".34" stop-color="#EAEDEC"/><stop offset=".45" stop-color="#F6F7F7"/><stop offset=".61" stop-color="#FDFDFD"/><stop offset="1" stop-color="#fff"/></linearGradient><linearGradient id="Q" x1="26.656" x2="26.512" y1="21.065" y2="21.065" gradientUnits="userSpaceOnUse"><stop offset=".06" stop-color="#93A49E"/><stop offset=".1" stop-color="#A6B4AF"/><stop offset=".17" stop-color="#C2CBC8"/><stop offset=".25" stop-color="#D8DFDC"/><stop offset=".34" stop-color="#EAEDEC"/><stop offset=".45" stop-color="#F6F7F7"/><stop offset=".61" stop-color="#FDFDFD"/><stop offset="1" stop-color="#fff"/></linearGradient><linearGradient id="R" x1="34.4" x2="34.533" y1="21.065" y2="21.065" gradientUnits="userSpaceOnUse"><stop offset=".06" stop-color="#93A49E"/><stop offset=".1" stop-color="#A6B4AF"/><stop offset=".17" stop-color="#C2CBC8"/><stop offset=".25" stop-color="#D8DFDC"/><stop offset=".34" stop-color="#EAEDEC"/><stop offset=".45" stop-color="#F6F7F7"/><stop offset=".61" stop-color="#FDFDFD"/><stop offset="1" stop-color="#fff"/></linearGradient><linearGradient id="S" x1="26.887" x2="27.02" y1="21.065" y2="21.065" gradientUnits="userSpaceOnUse"><stop offset=".06" stop-color="#93A49E"/><stop offset=".1" stop-color="#A6B4AF"/><stop offset=".17" stop-color="#C2CBC8"/><stop offset=".25" stop-color="#D8DFDC"/><stop offset=".34" stop-color="#EAEDEC"/><stop offset=".45" stop-color="#F6F7F7"/><stop offset=".61" stop-color="#FDFDFD"/><stop offset="1" stop-color="#fff"/></linearGradient><linearGradient id="T" x1="19.88" x2="19.88" y1=".592" y2="18.685" gradientUnits="userSpaceOnUse"><stop offset=".01" stop-color="#E4E6E5"/><stop offset=".02" stop-color="#EAEDEC"/><stop offset=".03" stop-color="#ECEFEE"/><stop offset=".17" stop-color="#E4E5E4"/><stop offset=".38" stop-color="#DEDEDD"/><stop offset=".91" stop-color="#DCDCDB"/><stop offset=".95" stop-color="#DADAD9"/><stop offset=".96" stop-color="#D3D4D2"/><stop offset=".98" stop-color="#BEC1BD"/><stop offset=".99" stop-color="#B7BBB7"/></linearGradient><linearGradient id="U" x1="8.218" x2="7.869" y1="19.81" y2="19.81" gradientUnits="userSpaceOnUse"><stop offset=".01" stop-color="#B7BBB7"/><stop offset=".02" stop-color="#C8CAC7"/><stop offset=".04" stop-color="#D3D4D2"/><stop offset=".05" stop-color="#DADAD9"/><stop offset=".09" stop-color="#DCDCDB"/><stop offset=".62" stop-color="#DEDEDD"/><stop offset=".83" stop-color="#E4E5E4"/><stop offset=".97" stop-color="#ECEFEE"/><stop offset=".98" stop-color="#EAEDEC"/><stop offset=".99" stop-color="#CACAC9"/></linearGradient><linearGradient id="V" x1="3.297" x2="2.947" y1="19.81" y2="19.81" gradientUnits="userSpaceOnUse"><stop offset=".01" stop-color="#B7BBB7"/><stop offset=".02" stop-color="#C8CAC7"/><stop offset=".04" stop-color="#D3D4D2"/><stop offset=".05" stop-color="#DADAD9"/><stop offset=".09" stop-color="#DCDCDB"/><stop offset=".62" stop-color="#DEDEDD"/><stop offset=".83" stop-color="#E4E5E4"/><stop offset=".97" stop-color="#ECEFEE"/><stop offset=".98" stop-color="#EAEDEC"/><stop offset=".99" stop-color="#CACAC9"/></linearGradient><linearGradient id="W" x1="5.285" x2="5.285" y1="20.13" y2="20.473" gradientUnits="userSpaceOnUse"><stop stop-color="#fff"/><stop offset=".17" stop-color="#DFDFDF"/><stop offset=".43" stop-color="#B6B6B6"/><stop offset=".66" stop-color="#989898"/><stop offset=".86" stop-color="#868686"/><stop offset="1" stop-color="gray"/></linearGradient><linearGradient id="X" x1="34.472" x2="34.086" y1="19.881" y2="19.881" gradientUnits="userSpaceOnUse"><stop offset=".01" stop-color="#B7BBB7"/><stop offset=".02" stop-color="#C8CAC7"/><stop offset=".04" stop-color="#D3D4D2"/><stop offset=".05" stop-color="#DADAD9"/><stop offset=".09" stop-color="#DCDCDB"/><stop offset=".62" stop-color="#DEDEDD"/><stop offset=".83" stop-color="#E4E5E4"/><stop offset=".97" stop-color="#ECEFEE"/><stop offset=".98" stop-color="#EAEDEC"/><stop offset=".99" stop-color="#CACAC9"/></linearGradient><linearGradient id="Y" x1="28.047" x2="27.661" y1="19.881" y2="19.881" gradientUnits="userSpaceOnUse"><stop offset=".01" stop-color="#B7BBB7"/><stop offset=".02" stop-color="#C8CAC7"/><stop offset=".04" stop-color="#D3D4D2"/><stop offset=".05" stop-color="#DADAD9"/><stop offset=".09" stop-color="#DCDCDB"/><stop offset=".62" stop-color="#DEDEDD"/><stop offset=".83" stop-color="#E4E5E4"/><stop offset=".97" stop-color="#ECEFEE"/><stop offset=".98" stop-color="#EAEDEC"/><stop offset=".99" stop-color="#CACAC9"/></linearGradient><linearGradient id="Z" x1="21.049" x2="20.663" y1="19.881" y2="19.881" gradientUnits="userSpaceOnUse"><stop offset=".01" stop-color="#B7BBB7"/><stop offset=".02" stop-color="#C8CAC7"/><stop offset=".04" stop-color="#D3D4D2"/><stop offset=".05" stop-color="#DADAD9"/><stop offset=".09" stop-color="#DCDCDB"/><stop offset=".62" stop-color="#DEDEDD"/><stop offset=".83" stop-color="#E4E5E4"/><stop offset=".97" stop-color="#ECEFEE"/><stop offset=".98" stop-color="#EAEDEC"/><stop offset=".99" stop-color="#CACAC9"/></linearGradient><linearGradient id="aa" x1="27.781" x2="27.781" y1="20.26" y2="20.615" gradientUnits="userSpaceOnUse"><stop stop-color="#fff"/><stop offset=".17" stop-color="#DFDFDF"/><stop offset=".43" stop-color="#B6B6B6"/><stop offset=".66" stop-color="#989898"/><stop offset=".86" stop-color="#868686"/><stop offset="1" stop-color="gray"/></linearGradient><linearGradient id="ab" x1="20.712" x2="20.712" y1="18.756" y2="19.893" gradientUnits="userSpaceOnUse"><stop stop-color="#565656"/><stop offset=".12" stop-color="#5C5C5C"/><stop offset=".28" stop-color="#6E6E6E"/><stop offset=".48" stop-color="#8C8C8C"/><stop offset=".69" stop-color="#B5B5B5"/><stop offset=".92" stop-color="#EAEAEA"/><stop offset="1" stop-color="#fff"/></linearGradient><linearGradient id="ac" x1="19.855" x2="19.855" y1="18.827" y2="20.722" gradientUnits="userSpaceOnUse"><stop offset=".01" stop-color="#858C85"/><stop offset=".02" stop-color="#979C97"/><stop offset=".04" stop-color="#B5B8B4"/><stop offset=".06" stop-color="#CBCCCA"/><stop offset=".07" stop-color="#D8D8D7"/><stop offset=".09" stop-color="#DCDCDB"/><stop offset=".62" stop-color="#DEDEDD"/><stop offset=".83" stop-color="#E4E5E4"/><stop offset=".97" stop-color="#ECEFEE"/><stop offset=".98" stop-color="#EAEDEC"/><stop offset=".99" stop-color="#CACAC9"/></linearGradient><linearGradient id="ai" x1="53.869" x2="40.108" y1="14.268" y2="14.268" gradientUnits="userSpaceOnUse"><stop stop-color="#BDC1BE"/><stop offset=".01" stop-color="#D2D6D3"/><stop offset=".02" stop-color="#E1E4E2"/><stop offset=".04" stop-color="#E9ECEB"/><stop offset=".06" stop-color="#ECEFEE"/><stop offset=".19" stop-color="#E4E5E4"/><stop offset=".39" stop-color="#DEDEDD"/><stop offset=".91" stop-color="#DCDCDB"/><stop offset=".95" stop-color="#DADAD9"/><stop offset=".96" stop-color="#D3D4D2"/><stop offset=".98" stop-color="#BEC1BD"/><stop offset=".99" stop-color="#B7BBB7"/></linearGradient><linearGradient id="an" x1="44.085" x2="44.789" y1="23.019" y2="23.505" gradientUnits="userSpaceOnUse"><stop stop-color="#666"/><stop offset=".53" stop-color="#0B0B0B"/></linearGradient><linearGradient id="ap" x1="44.267" x2="44.506" y1="22.296" y2="22.466" gradientUnits="userSpaceOnUse"><stop stop-color="#434343"/><stop offset=".53" stop-color="#121212"/></linearGradient><linearGradient id="aq" x1="44.302" x2="44.457" y1="22.32" y2="22.429" gradientUnits="userSpaceOnUse"><stop offset=".47" stop-color="#121212"/><stop offset="1" stop-color="#484848"/></linearGradient><linearGradient id="ar" x1="44.267" x2="44.506" y1="24.002" y2="24.16" gradientUnits="userSpaceOnUse"><stop stop-color="#434343"/><stop offset=".53" stop-color="#121212"/></linearGradient><linearGradient id="as" x1="44.304" x2="44.459" y1="24.014" y2="24.135" gradientUnits="userSpaceOnUse"><stop offset=".47" stop-color="#121212"/><stop offset="1" stop-color="#484848"/></linearGradient><linearGradient id="at" x1="43.519" x2="43.758" y1="22.723" y2="22.892" gradientUnits="userSpaceOnUse"><stop stop-color="#434343"/><stop offset=".53" stop-color="#121212"/></linearGradient><linearGradient id="au" x1="43.558" x2="43.713" y1="22.747" y2="22.856" gradientUnits="userSpaceOnUse"><stop offset=".47" stop-color="#121212"/><stop offset="1" stop-color="#484848"/></linearGradient><linearGradient id="av" x1="45.015" x2="45.253" y1="23.564" y2="23.734" gradientUnits="userSpaceOnUse"><stop stop-color="#434343"/><stop offset=".53" stop-color="#121212"/></linearGradient><linearGradient id="aw" x1="45.051" x2="45.205" y1="23.587" y2="23.708" gradientUnits="userSpaceOnUse"><stop offset=".47" stop-color="#121212"/><stop offset="1" stop-color="#484848"/></linearGradient><linearGradient id="ax" x1="43.52" x2="43.759" y1="23.576" y2="23.746" gradientUnits="userSpaceOnUse"><stop stop-color="#434343"/><stop offset=".53" stop-color="#121212"/></linearGradient><linearGradient id="ay" x1="43.555" x2="43.71" y1="23.599" y2="23.708" gradientUnits="userSpaceOnUse"><stop offset=".47" stop-color="#121212"/><stop offset="1" stop-color="#484848"/></linearGradient><linearGradient id="az" x1="45.014" x2="45.253" y1="22.723" y2="22.893" gradientUnits="userSpaceOnUse"><stop stop-color="#434343"/><stop offset=".53" stop-color="#121212"/></linearGradient><linearGradient id="aA" x1="45.051" x2="45.206" y1="22.747" y2="22.856" gradientUnits="userSpaceOnUse"><stop offset=".47" stop-color="#121212"/><stop offset="1" stop-color="#484848"/></linearGradient><linearGradient id="aB" x1="58.309" x2="60.652" y1="18.932" y2="19.012" gradientUnits="userSpaceOnUse"><stop/><stop offset=".2" stop-color="#0C0F10"/><stop offset=".56" stop-color="#1D2527"/><stop offset=".64" stop-color="#2E3536"/><stop offset=".79" stop-color="#5C5E5D"/><stop offset=".85" stop-color="#727271"/><stop offset=".91" stop-color="#707170"/><stop offset=".92" stop-color="#6B706F"/><stop offset=".95" stop-color="#616563"/><stop offset=".99" stop-color="#464644"/></linearGradient><linearGradient id="aC" x1="59.796" x2="59.846" y1="20.361" y2="19.51" gradientUnits="userSpaceOnUse"><stop stop-color="#5A5A57"/><stop offset=".01" stop-color="#5C5C59"/><stop offset=".19" stop-color="#8E8E8B"/><stop offset=".37" stop-color="#B6B6B5"/><stop offset=".54" stop-color="#D6D6D5"/><stop offset=".71" stop-color="#EDEDEC"/><stop offset=".86" stop-color="#FAFAFA"/><stop offset="1" stop-color="#fff"/></linearGradient><linearGradient id="aD" x1="58.348" x2="60.66" y1="17.726" y2="17.805" gradientUnits="userSpaceOnUse"><stop stop-color="#959393"/><stop offset=".19" stop-color="#999797"/><stop offset=".39" stop-color="#A6A4A4"/><stop offset=".6" stop-color="#BBBABA"/><stop offset=".81" stop-color="#D8D8D7"/><stop offset=".9" stop-color="#E7E7E6"/><stop offset="1" stop-color="#E5E5E4"/></linearGradient><linearGradient id="aE" x1="52.371" x2="52.527" y1="21.906" y2="21.906" gradientUnits="userSpaceOnUse"><stop stop-color="#B1AEAE"/><stop offset=".12" stop-color="#A7A5A5"/><stop offset=".42" stop-color="#919090"/><stop offset=".72" stop-color="#848484"/><stop offset="1" stop-color="gray"/></linearGradient><linearGradient id="aF" x1="49.995" x2="49.995" y1="20.284" y2="23.279" gradientUnits="userSpaceOnUse"><stop offset=".01" stop-color="#464644"/><stop offset=".02" stop-color="#616563"/><stop offset=".03" stop-color="#6B706F"/><stop offset=".07" stop-color="#363838"/><stop offset=".09" stop-color="#202121"/><stop offset=".76" stop-color="#191A1A"/><stop offset=".77" stop-color="#141414"/><stop offset=".81" stop-color="#080909"/><stop offset=".86" stop-color="#020202"/><stop offset="1"/></linearGradient><linearGradient id="aG" x1="52.371" x2="51.647" y1="21.787" y2="21.787" gradientUnits="userSpaceOnUse"><stop stop-color="#5A5A57"/><stop offset=".01" stop-color="#5C5C59"/><stop offset=".19" stop-color="#8E8E8B"/><stop offset=".37" stop-color="#B6B6B5"/><stop offset=".54" stop-color="#D6D6D5"/><stop offset=".71" stop-color="#EDEDEC"/><stop offset=".86" stop-color="#FAFAFA"/><stop offset="1" stop-color="#fff"/></linearGradient><linearGradient id="aH" x1="49.211" x2="47.631" y1="21.787" y2="21.787" gradientUnits="userSpaceOnUse"><stop stop-color="#fff"/><stop offset=".26" stop-color="#C6C6C6"/><stop offset=".5" stop-color="#989897"/><stop offset=".71" stop-color="#777776"/><stop offset=".88" stop-color="#626261"/><stop offset="1" stop-color="#5B5B5A"/></linearGradient><linearGradient id="aI" x1="48.573" x2="47.636" y1="21.645" y2="21.939" gradientUnits="userSpaceOnUse"><stop offset=".01" stop-color="#464644"/><stop offset=".05" stop-color="#616563"/><stop offset=".08" stop-color="#6B706F"/><stop offset=".09" stop-color="#707170"/><stop offset=".15" stop-color="#727271"/><stop offset=".21" stop-color="#5C5E5D"/><stop offset=".36" stop-color="#2E3536"/><stop offset=".44" stop-color="#1D2527"/><stop offset=".8" stop-color="#0C0F10"/><stop offset="1"/></linearGradient><linearGradient id="aK" x1="43.518" x2="43.518" y1="14.694" y2="14.351" gradientUnits="userSpaceOnUse"><stop stop-color="#303030"/><stop offset=".03" stop-color="#292929"/><stop offset=".17" stop-color="#0B0B0B"/><stop offset=".26"/><stop offset=".42" stop-color="#060606"/><stop offset=".65" stop-color="#171716"/><stop offset=".8" stop-color="#282826"/><stop offset=".93" stop-color="#2B2B29"/><stop offset=".98" stop-color="#363635"/><stop offset="1" stop-color="#3C3C3B"/></linearGradient><linearGradient id="aL" x1="105.233" x2="106.282" y1="26.232" y2="26.317" gradientUnits="userSpaceOnUse"><stop stop-color="#5A5A57"/><stop offset=".14" stop-color="#636360"/><stop offset=".37" stop-color="#7C7C7A"/><stop offset=".67" stop-color="#A4A4A3"/><stop offset=".99" stop-color="#D9D9D8"/></linearGradient><linearGradient id="aM" x1="54.493" x2="54.372" y1="17.129" y2="17.119" gradientUnits="userSpaceOnUse"><stop stop-color="#1D1D1B"/><stop offset="1" stop-color="#fff"/></linearGradient><linearGradient id="aN" x1="54.492" x2="53.962" y1="17.152" y2="16.865" gradientUnits="userSpaceOnUse"><stop stop-color="#1D1D1B"/><stop offset="1" stop-color="#fff"/></linearGradient><linearGradient id="aO" x1="110.512" x2="110.899" y1="27.493" y2="26.945" gradientUnits="userSpaceOnUse"><stop stop-color="#B5BFBF"/><stop offset="1" stop-color="#fff"/></linearGradient><linearGradient id="aP" x1="109.92" x2="110.86" y1="27.052" y2="27.129" gradientUnits="userSpaceOnUse"><stop stop-color="#878787"/><stop offset="1" stop-color="#fff"/></linearGradient><linearGradient id="aQ" x1="68.042" x2="68.138" y1="-12.363" y2="-12.359" gradientUnits="userSpaceOnUse"><stop stop-color="#fff"/><stop offset="1" stop-color="#6B6B6A"/></linearGradient><linearGradient id="aR" x1="105.452" x2="105.549" y1="26.476" y2="26.484" gradientUnits="userSpaceOnUse"><stop stop-color="#fff"/><stop offset="1" stop-color="#6B6B6A"/></linearGradient><linearGradient id="aS" x1="105.234" x2="106.283" y1="26.208" y2="26.293" gradientUnits="userSpaceOnUse"><stop stop-color="#1D1D1B"/><stop offset="1" stop-color="#fff"/></linearGradient><linearGradient id="aT" x1="105.232" x2="106.281" y1="26.232" y2="26.317" gradientUnits="userSpaceOnUse"><stop stop-color="#D2D2D1"/><stop offset=".27" stop-color="#D5D5D4"/><stop offset=".99" stop-color="#D9D9D8"/></linearGradient><linearGradient id="aU" x1="43.605" x2="37.99" y1="19.49" y2="23.865" gradientUnits="userSpaceOnUse"><stop offset=".01" stop-color="#464644"/><stop offset=".05" stop-color="#616563"/><stop offset=".08" stop-color="#6B706F"/><stop offset=".09" stop-color="#707170"/><stop offset=".15" stop-color="#727271"/><stop offset=".21" stop-color="#5C5E5D"/><stop offset=".36" stop-color="#2E3536"/><stop offset=".44" stop-color="#1D2527"/><stop offset=".8" stop-color="#0C0F10"/><stop offset="1"/></linearGradient><linearGradient id="aV" x1="41.408" x2="41.408" y1="18.815" y2="19.099" gradientUnits="userSpaceOnUse"><stop stop-color="#7A7A7A"/><stop offset=".06" stop-color="#868686"/><stop offset=".38" stop-color="#BABABA"/><stop offset=".65" stop-color="#DFDFDF"/><stop offset=".86" stop-color="#F7F7F7"/><stop offset="1" stop-color="#fff"/></linearGradient><linearGradient id="aW" x1="45.063" x2="44.97" y1="7.187" y2="8.123" gradientUnits="userSpaceOnUse"><stop stop-color="#fff"/><stop offset=".12" stop-color="#FAFAFA"/><stop offset=".26" stop-color="#EBEBEB"/><stop offset=".3" stop-color="#E7E7E6"/><stop offset=".36" stop-color="#D8D8D7"/><stop offset=".53" stop-color="#BBBABA"/><stop offset=".7" stop-color="#A6A4A4"/><stop offset=".85" stop-color="#999797"/><stop offset="1" stop-color="#959393"/></linearGradient><linearGradient id="aX" x1="51.793" x2="42.663" y1="11.32" y2="11.32" gradientUnits="userSpaceOnUse"><stop stop-color="#637771"/><stop offset="1" stop-color="#93A19D"/></linearGradient><radialGradient id="c" cx="0" cy="0" r="1" gradientTransform="matrix(3.29263 0 0 3.23267 15.862 22.296)" gradientUnits="userSpaceOnUse"><stop offset=".96" stop-color="#050503"/><stop offset=".99" stop-color="#030302"/><stop offset="1"/></radialGradient><radialGradient id="d" cx="0" cy="0" r="1" gradientTransform="matrix(3.365 0 0 3.30372 15.864 22.297)" gradientUnits="userSpaceOnUse"><stop/><stop offset=".66"/><stop offset=".7"/><stop offset=".79" stop-color="#020200"/><stop offset=".87" stop-color="#050503"/><stop offset=".96" stop-color="#10100F"/><stop offset="1" stop-color="#161615"/></radialGradient><radialGradient id="e" cx="0" cy="0" r="1" gradientTransform="matrix(2.33982 0 0 2.29721 15.864 22.297)" gradientUnits="userSpaceOnUse"><stop offset=".01" stop-color="#D9D9D8"/><stop offset=".14" stop-color="#D6D6D4"/><stop offset=".25" stop-color="#CBCBCA"/><stop offset=".36" stop-color="#B9B9B8"/><stop offset=".47" stop-color="#A0A09E"/><stop offset=".56" stop-color="#828280"/><stop offset=".59" stop-color="#80807E"/><stop offset=".61" stop-color="#787876"/><stop offset=".62" stop-color="#595957"/><stop offset=".63" stop-color="#4F4F4D"/><stop offset=".65" stop-color="#545452"/><stop offset=".71" stop-color="#60605F"/><stop offset=".78" stop-color="#646463"/><stop offset=".8" stop-color="#111"/><stop offset=".92" stop-color="#0C0C0A"/><stop offset=".93" stop-color="#131311"/><stop offset=".94" stop-color="#3C3C3B"/><stop offset=".96" stop-color="#303030"/><stop offset=".99" stop-color="#121212"/><stop offset="1"/></radialGradient><radialGradient id="p" cx="0" cy="0" r="1" gradientTransform="matrix(3.25645 0 0 3.19715 14.97 23.173)" gradientUnits="userSpaceOnUse"><stop offset=".72" stop-color="#3C3C3B"/><stop offset="1"/></radialGradient><radialGradient id="q" cx="0" cy="0" r="1" gradientTransform="matrix(3.32882 0 0 3.26819 14.97 23.173)" gradientUnits="userSpaceOnUse"><stop/><stop offset=".59"/><stop offset=".62"/><stop offset=".76" stop-color="#282826"/><stop offset=".87" stop-color="#2B2B29"/><stop offset=".96" stop-color="#363635"/><stop offset="1" stop-color="#3C3C3B"/></radialGradient><radialGradient id="r" cx="0" cy="0" r="1" gradientTransform="matrix(2.06242 0 0 2.02486 14.969 23.173)" gradientUnits="userSpaceOnUse"><stop offset=".01" stop-color="#020200"/><stop offset=".65" stop-color="#020200"/><stop offset=".69" stop-color="#0A0A08"/><stop offset=".71" stop-color="#21211F"/><stop offset=".73" stop-color="#575756"/><stop offset=".76" stop-color="#111"/><stop offset=".92" stop-color="#0C0C0A"/><stop offset=".93" stop-color="#131311"/><stop offset=".94" stop-color="#3C3C3B"/><stop offset=".96" stop-color="#303030"/><stop offset=".99" stop-color="#121212"/><stop offset="1"/></radialGradient><radialGradient id="s" cx="0" cy="0" r="1" gradientTransform="matrix(.62717 0 0 .61575 14.973 23.173)" gradientUnits="userSpaceOnUse"><stop offset=".92" stop-color="#121212"/><stop offset=".97" stop-color="#303030"/><stop offset=".99"/></radialGradient><radialGradient id="u" cx="0" cy="0" r="1" gradientTransform="matrix(.31359 0 0 .30787 14.958 23.173)" gradientUnits="userSpaceOnUse"><stop offset=".01" stop-color="#020200"/><stop offset=".65" stop-color="#020200"/><stop offset=".69" stop-color="#0A0A08"/><stop offset=".71" stop-color="#21211F"/><stop offset=".73" stop-color="#575756"/><stop offset=".76" stop-color="#111"/><stop offset=".92" stop-color="#0C0C0A"/><stop offset=".93" stop-color="#131311"/><stop offset=".94" stop-color="#3C3C3B"/><stop offset=".96" stop-color="#303030"/><stop offset=".99" stop-color="#121212"/><stop offset="1"/></radialGradient><radialGradient id="ad" cx="0" cy="0" r="1" gradientTransform="matrix(3.61828 0 0 3.55239 43.603 21.35)" gradientUnits="userSpaceOnUse"><stop offset=".96" stop-color="#050503"/><stop offset=".99" stop-color="#030302"/><stop offset="1"/></radialGradient><radialGradient id="ae" cx="0" cy="0" r="1" gradientTransform="matrix(3.69064 0 0 3.62343 43.602 21.35)" gradientUnits="userSpaceOnUse"><stop/><stop offset=".66"/><stop offset=".7"/><stop offset=".79" stop-color="#020200"/><stop offset=".87" stop-color="#050503"/><stop offset=".96" stop-color="#10100F"/><stop offset="1" stop-color="#161615"/></radialGradient><radialGradient id="af" cx="0" cy="0" r="1" gradientTransform="matrix(2.56898 0 0 2.52219 43.603 21.349)" gradientUnits="userSpaceOnUse"><stop offset=".01" stop-color="#D9D9D8"/><stop offset=".14" stop-color="#D6D6D4"/><stop offset=".25" stop-color="#CBCBCA"/><stop offset=".36" stop-color="#B9B9B8"/><stop offset=".47" stop-color="#A0A09E"/><stop offset=".56" stop-color="#828280"/><stop offset=".59" stop-color="#80807E"/><stop offset=".61" stop-color="#787876"/><stop offset=".62" stop-color="#595957"/><stop offset=".63" stop-color="#4F4F4D"/><stop offset=".65" stop-color="#545452"/><stop offset=".71" stop-color="#60605F"/><stop offset=".78" stop-color="#646463"/><stop offset=".8" stop-color="#111"/><stop offset=".92" stop-color="#0C0C0A"/><stop offset=".93" stop-color="#131311"/><stop offset=".94" stop-color="#3C3C3B"/><stop offset=".96" stop-color="#303030"/><stop offset=".99" stop-color="#121212"/><stop offset="1"/></radialGradient><radialGradient id="ag" cx="0" cy="0" r="1" gradientTransform="matrix(-3.79919 0 0 -3.73001 44.944 22.391)" gradientUnits="userSpaceOnUse"><stop/><stop offset=".39" stop-color="#020202"/><stop offset=".53" stop-color="#090908"/><stop offset=".63" stop-color="#141414"/><stop offset=".66" stop-color="#191918"/><stop offset="1"/></radialGradient><radialGradient id="ah" cx="0" cy="0" r="1" gradientTransform="matrix(-4.42636 0 0 -4.34575 44.256 13.735)" gradientUnits="userSpaceOnUse"><stop stop-color="#E5E5E4"/><stop offset=".1" stop-color="#E7E7E6"/><stop offset=".19" stop-color="#D8D8D7"/><stop offset=".4" stop-color="#BBBABA"/><stop offset=".61" stop-color="#A6A4A4"/><stop offset=".81" stop-color="#999797"/><stop offset="1" stop-color="#959393"/></radialGradient><radialGradient id="aj" cx="0" cy="0" r="1" gradientTransform="matrix(3.25645 0 0 3.19715 44.378 23.209)" gradientUnits="userSpaceOnUse"><stop offset=".72" stop-color="#3C3C3B"/><stop offset="1"/></radialGradient><radialGradient id="ak" cx="0" cy="0" r="1" gradientTransform="matrix(3.31676 0 0 3.25635 44.375 23.209)" gradientUnits="userSpaceOnUse"><stop/><stop offset=".59"/><stop offset=".62"/><stop offset=".76" stop-color="#282826"/><stop offset=".87" stop-color="#2B2B29"/><stop offset=".96" stop-color="#363635"/><stop offset="1" stop-color="#3C3C3B"/></radialGradient><radialGradient id="al" cx="0" cy="0" r="1" gradientTransform="matrix(2.06242 0 0 2.02486 44.377 23.208)" gradientUnits="userSpaceOnUse"><stop offset=".01" stop-color="#020200"/><stop offset=".65" stop-color="#020200"/><stop offset=".69" stop-color="#0A0A08"/><stop offset=".71" stop-color="#21211F"/><stop offset=".73" stop-color="#575756"/><stop offset=".76" stop-color="#111"/><stop offset=".92" stop-color="#0C0C0A"/><stop offset=".93" stop-color="#131311"/><stop offset=".94" stop-color="#3C3C3B"/><stop offset=".96" stop-color="#303030"/><stop offset=".99" stop-color="#121212"/><stop offset="1"/></radialGradient><radialGradient id="am" cx="0" cy="0" r="1" gradientTransform="matrix(.6151 0 0 .6039 44.376 23.208)" gradientUnits="userSpaceOnUse"><stop offset=".92" stop-color="#121212"/><stop offset=".97" stop-color="#303030"/><stop offset=".99"/></radialGradient><radialGradient id="ao" cx="0" cy="0" r="1" gradientTransform="matrix(.31358 0 0 .30787 44.363 23.208)" gradientUnits="userSpaceOnUse"><stop offset=".01" stop-color="#020200"/><stop offset=".65" stop-color="#020200"/><stop offset=".69" stop-color="#0A0A08"/><stop offset=".71" stop-color="#21211F"/><stop offset=".73" stop-color="#575756"/><stop offset=".76" stop-color="#111"/><stop offset=".92" stop-color="#0C0C0A"/><stop offset=".93" stop-color="#131311"/><stop offset=".94" stop-color="#3C3C3B"/><stop offset=".96" stop-color="#303030"/><stop offset=".99" stop-color="#121212"/><stop offset="1"/></radialGradient><radialGradient id="aJ" cx="0" cy="0" r="1" gradientTransform="matrix(-.8925 0 0 -.87626 43.397 14.517)" gradientUnits="userSpaceOnUse"><stop stop-color="#3C3C3B"/><stop offset=".64"/><stop offset="1"/></radialGradient></defs></svg>