<svg width="327" height="684" viewBox="0 0 327 684" fill="none" xmlns="http://www.w3.org/2000/svg">
<g clip-path="url(#clip0_5191_5530)">
<path d="M165.607 136.353C141.024 136.353 121.096 106.259 121.096 69.1366C118.623 25.9263 127.278 -9.17403e-05 165.607 -1.94543e-06C207.645 0.960483 210.118 32.014 210.118 69.1366C210.118 106.259 190.189 136.353 165.607 136.353Z" fill="#0F453A"/>
<rect x="185.53" y="26.8237" width="13.4118" height="42.4706" transform="rotate(90 185.53 26.8237)" fill="#24A580"/>
<rect x="190" y="40.2354" width="6.70588" height="51.4118" transform="rotate(90 190 40.2354)" fill="#126A55"/>
<rect x="194.471" y="64.8237" width="6.70588" height="60.3529" transform="rotate(90 194.471 64.8237)" fill="#24A580"/>
<path d="M286.118 207.883L262.647 95.0002C184.412 48.0587 92.7647 71.5301 64.8236 99.4716L44.7059 207.883L286.118 207.883Z" fill="#199675"/>
<path d="M147.25 82.2698C179.128 79.2779 216.504 84.277 250.958 104.254L271.47 200.177L59.3267 200.177L76.9229 107.976C89.2127 96.2031 115.406 85.2587 147.25 82.2698Z" fill="#24A580" stroke="#0F453A" stroke-width="2"/>
<path d="M290.428 312.941C295.769 312.941 300.166 317.137 300.417 322.472L316.92 673.531C317.188 679.232 312.638 684 306.931 684L23.893 684C18.1858 684 13.636 679.232 13.904 673.531L30.4065 322.472C30.6573 317.137 35.0552 312.941 40.3955 312.941L290.428 312.941Z" fill="#126A55"/>
<path d="M276.43 178.824C281.829 178.824 286.254 183.11 286.425 188.507L301.438 662.507C301.617 668.151 297.09 672.824 291.443 672.824L39.3807 672.824C33.7338 672.824 29.207 668.151 29.3858 662.507L44.3994 188.507C44.5703 183.11 48.9948 178.824 54.3943 178.824L276.43 178.824Z" fill="#0F453A"/>
<rect x="261.53" y="221.294" width="422.471" height="26.8235" rx="13.4118" transform="rotate(90 261.53 221.294)" fill="#126A55"/>
<rect x="205.647" y="221.294" width="422.471" height="26.8235" rx="13.4118" transform="rotate(90 205.647 221.294)" fill="#126A55"/>
<rect x="149.765" y="221.294" width="422.471" height="26.8235" rx="13.4118" transform="rotate(90 149.765 221.294)" fill="#126A55"/>
<rect x="93.8823" y="221.294" width="422.471" height="26.8235" rx="13.4118" transform="rotate(90 93.8823 221.294)" fill="#126A55"/>
<path d="M308.302 456C310.919 456 313.093 458.017 313.288 460.626L325.95 629.45C326.168 632.35 323.873 634.824 320.964 634.824L295.059 634.824L295.059 456L308.302 456Z" fill="#199675"/>
<path d="M18.0508 456C15.4345 456 13.2605 458.017 13.0648 460.626L0.403039 629.45C0.185493 632.35 2.48028 634.824 5.38903 634.824L31.2941 634.824L31.2941 456L18.0508 456Z" fill="#199675"/>
</g>
<defs>
<clipPath id="clip0_5191_5530">
<rect width="326.353" height="684" fill="white"/>
</clipPath>
</defs>
</svg>
