<svg width="379" height="716" viewBox="0 0 379 716" fill="none" xmlns="http://www.w3.org/2000/svg">
<g clip-path="url(#clip0_5191_5230)">
<path d="M371.43 252.4C367.085 247.235 361.393 243.371 354.984 241.235C355.528 229.796 357.075 218.426 359.608 207.257C359.626 207.108 359.626 206.958 359.608 206.81C363.673 201.823 368.073 190.286 368.073 163.825C368.073 143.282 367.514 94.6779 362.293 86.6392C360.989 84.736 359.53 82.9436 357.93 81.2801C347.808 59.3215 333.141 39.7507 314.895 23.8557C297.479 8.74601 283.457 1.0795 273.239 1.0795C270.373 0.933589 267.531 1.66428 265.092 3.17392C262.653 4.68356 260.733 6.9002 259.591 9.52754H257.167H256.234C243.581 6.05467 230.676 3.56614 217.637 2.08433C207.95 0.883725 198.199 0.274729 188.437 0.260742C178.688 0.273645 168.949 0.882647 159.275 2.08433C146.316 3.61109 133.489 6.09904 120.901 9.52754H118.925C117.793 6.87063 115.869 4.62656 113.413 3.10138C110.957 1.5762 108.089 0.844147 105.201 1.00507C94.983 1.00507 80.9611 8.67157 63.5457 23.7813C45.3062 39.6739 30.6512 59.2458 20.5479 81.2057C18.9377 82.8733 17.4778 84.679 16.1848 86.602C10.9639 94.6035 10.4044 143.208 10.4044 163.751C10.4044 190.212 14.805 201.749 18.8698 206.736C18.8518 206.884 18.8518 207.034 18.8698 207.182C21.4172 218.388 22.9769 229.795 23.5313 241.272C17.2793 243.511 11.7335 247.363 7.45841 252.437C4.73394 255.312 2.65849 258.736 1.37192 262.478C0.0853482 266.221 -0.382459 270.195 -1.74642e-05 274.134C0.0345974 274.621 0.0968053 275.105 0.186398 275.585C0.16944 275.783 0.16944 275.983 0.186398 276.181C0.331881 276.674 0.506264 277.159 0.708542 277.632L1.04416 278.228V278.488L1.37977 278.972L1.67806 279.344L2.051 279.716L2.79689 280.312C3.36916 280.716 4.01919 280.998 4.706 281.138C5.3928 281.279 6.10137 281.277 6.78707 281.13C12.5208 279.818 18.1842 278.215 23.7551 276.33C23.7551 293.263 24.0533 326.311 24.0533 360.363C22.8394 366.081 22.8394 371.989 24.0533 377.706C24.0533 437.773 23.0465 455.86 22.3753 460.549C20.1775 473.334 20.039 486.388 21.965 499.217C21.6021 505.356 20.5514 511.435 18.8325 517.341C17.0797 519.127 15.961 520.355 15.9237 520.393C15.3597 520.987 14.9948 521.741 14.8795 522.551C8.53985 568.997 16.4085 625.193 16.7814 627.538C17.5955 632.239 19.9577 636.534 23.494 639.745C26.9994 651.244 42.8113 676.291 55.2668 685.185L56.0127 685.595L60.6742 689.316L60.9353 689.986C60.9353 690.21 61.1591 690.47 61.3083 690.731L61.532 691.14C61.6797 691.421 61.8415 691.694 62.0168 691.959V692.182C62.8325 693.368 63.7699 694.465 64.8137 695.457L65.8579 696.35L66.9021 697.169L67.2377 697.429L68.3564 698.174L68.692 698.397L69.96 699.179H70.1837C71.7618 700.093 73.3932 700.914 75.0691 701.635C86.9653 706.808 130.634 714.437 186.461 714.512H187.057C242.996 714.512 286.515 706.808 298.412 701.635C299.905 701.01 301.362 700.302 302.775 699.513C305.012 698.281 307.091 696.781 308.965 695.048L309.823 694.154L310.084 693.894L310.83 693.001V692.74C311.071 692.456 311.296 692.158 311.501 691.847C311.8 691.4 312.061 690.954 312.284 690.544L319.743 684.85C332.198 675.956 348.01 650.909 351.516 639.41C355.052 636.194 357.425 631.903 358.265 627.203C358.601 624.858 366.47 568.662 360.13 522.216C360.015 521.406 359.65 520.652 359.086 520.058C359.086 520.058 357.93 518.792 356.177 517.006C354.463 511.112 353.412 505.045 353.045 498.919C355.669 486.532 356.348 473.814 355.058 461.219C354.387 456.604 353.567 438.517 353.38 378.748C354.748 372.759 354.748 366.539 353.38 360.55C353.38 325.864 353.567 292.221 353.679 276.888C362.629 279.94 370.646 281.689 371.057 281.8C371.416 281.839 371.779 281.839 372.138 281.8C373.186 281.792 374.204 281.454 375.047 280.833L375.793 280.274L376.166 279.94V279.716C376.286 279.574 376.399 279.425 376.501 279.27C376.631 279.108 376.744 278.933 376.837 278.749C376.848 278.675 376.848 278.599 376.837 278.525C376.958 278.365 377.058 278.19 377.135 278.004C377.352 277.562 377.527 277.101 377.657 276.627C377.657 276.367 377.657 276.143 377.657 275.957C377.745 275.465 377.807 274.968 377.844 274.469C378.42 270.546 378.146 266.546 377.039 262.739C375.933 258.931 374.02 255.406 371.43 252.4Z" fill="black"/>
<path d="M356.252 87.3459C356.252 87.3459 355.916 86.3783 355.17 84.6664C345.311 62.474 330.697 42.7076 312.359 26.7582C280.138 -1.19109 265.222 1.60012 262.425 13.7326C259.628 25.865 302.066 76.9999 302.066 76.9999L337.568 89.0579L356.252 87.3459Z" fill="#808080"/>
<path d="M354.387 206.14C354.387 206.14 364.158 202.865 364.158 163.751C364.158 124.637 362.256 93.71 359.049 88.723C353.902 80.8332 335.219 65.9096 328.245 67.7704C321.272 69.6312 317.505 98.9947 317.505 100.372C317.505 101.749 322.614 187.494 322.614 187.494L336.151 217.267L354.387 206.14Z" fill="url(#paint0_radial_5191_5230)"/>
<path d="M337.419 213.285L352.895 203.758C353.049 203.658 353.212 203.57 353.38 203.497C354.275 202.865 361.361 196.873 361.361 163.751C361.361 120.245 359.011 93.8588 356.699 90.2489C351.926 82.8056 335.704 70.4127 329.551 70.4127C329.354 70.3715 329.151 70.3715 328.954 70.4127C328.954 70.4127 326.12 71.492 323.024 84.5176C321.811 89.7329 320.903 95.0141 320.302 100.334C320.302 102.865 323.658 157.536 325.374 186.75L337.419 213.211V213.285Z" fill="url(#paint1_radial_5191_5230)"/>
<path d="M355.767 523.407C355.767 523.407 350.621 503.385 351.553 499.179C353.372 486.828 353.221 474.267 351.105 461.963C348.309 442.834 349.688 267.211 349.688 267.211C349.688 267.211 350.621 224.822 355.767 206.177C355.767 206.177 357.632 193.114 350.621 197.32C345.304 200.912 340.445 205.136 336.151 209.899L332.907 232.228L330.11 485.298L336.151 519.797L355.767 523.407Z" fill="#808080"/>
<path d="M350.173 638.479C353.55 635.789 355.862 631.991 356.699 627.761C357.632 621.248 364.643 568.215 358.564 523.891C358.564 523.891 342.23 506.176 337.569 506.176C332.907 506.176 319.817 530.85 319.817 530.85C319.817 530.85 316.573 599.328 317.953 601.561C319.333 603.794 325.896 643.577 325.896 643.577C328.812 645.74 331.935 647.609 335.219 649.16C340.439 645.939 345.435 642.371 350.173 638.479Z" fill="url(#paint2_radial_5191_5230)"/>
<path d="M335.107 646.182C337.307 644.843 343.386 640.265 348.42 636.283C351.258 634.048 353.213 630.885 353.94 627.351C354.275 625.044 361.92 570.41 355.916 525.118C348.271 516.894 340.216 509.785 337.717 509.004C335.293 510.418 328.544 520.466 322.577 531.631C321.421 556.566 319.855 596.722 320.601 600.742C322.092 604.724 325.635 624.858 328.469 641.977C330.968 643.689 333.727 645.475 335.107 646.182Z" fill="url(#paint3_radial_5191_5230)"/>
<path d="M333.839 645.699C333.839 645.699 345.027 632.413 349.949 634.534C354.872 636.655 334.548 672.271 319.817 682.915L312.135 670.336L333.839 645.699Z" fill="#808080"/>
<path d="M22.3007 87.3459C22.3007 87.3459 22.6736 86.3783 23.3822 84.6664C33.2417 62.474 47.855 42.7076 66.1936 26.7582C98.414 -1.19109 113.368 1.60012 116.165 13.7326C118.962 25.865 76.4861 76.9999 76.4861 76.9999L40.9841 89.0579L22.3007 87.3459Z" fill="#808080"/>
<path d="M24.2026 206.14C24.2026 206.14 14.3948 202.865 14.3948 163.751C14.3948 124.637 16.2967 93.71 19.5038 88.723C24.6501 80.8332 43.3335 65.9096 50.3445 67.7704C57.3554 69.6312 61.0846 98.9947 61.0846 100.372C61.0846 101.749 55.9383 187.494 55.9383 187.494L42.4012 217.267L24.2026 206.14Z" fill="url(#paint4_radial_5191_5230)"/>
<path d="M41.1333 213.285L25.657 203.758C25.5077 203.65 25.3446 203.562 25.1722 203.497C24.2772 202.865 17.1917 196.873 17.1917 163.751C17.1917 120.245 19.5411 93.8588 21.8532 90.2489C26.6266 82.8056 42.8486 70.4127 49.0018 70.4127C49.1986 70.3715 49.4018 70.3715 49.5985 70.4127C49.5985 70.4127 52.4327 71.492 55.528 84.5176C56.7409 89.7329 57.6499 95.0141 58.2503 100.334C58.2503 102.865 54.9313 157.536 53.1785 186.75L41.1333 213.211V213.285Z" fill="url(#paint5_radial_5191_5230)"/>
<path d="M22.7855 523.407C22.7855 523.407 27.9318 503.385 26.9995 499.179C25.2013 486.826 25.3523 474.269 27.447 461.963C30.2439 442.834 28.8641 267.211 28.8641 267.211C28.8641 267.211 27.9318 224.822 22.7855 206.177C22.7855 206.177 20.9209 193.114 27.9318 197.32C33.2482 200.912 38.107 205.136 42.4012 209.899L45.6456 232.228L48.4798 485.298L42.4012 519.797L22.7855 523.407Z" fill="#808080"/>
<path d="M28.3793 638.479C25.0025 635.789 22.6903 631.991 21.8532 627.761C20.9209 621.248 13.9099 568.215 19.9886 523.891C19.9886 523.891 36.3225 506.176 40.984 506.176C45.6456 506.176 58.7351 530.85 58.7351 530.85C58.7351 530.85 62.0168 599.328 60.5997 601.561C59.1826 603.794 52.6565 643.577 52.6565 643.577C49.7402 645.74 46.6175 647.609 43.3335 649.16C38.1139 645.939 33.1178 642.371 28.3793 638.479Z" fill="url(#paint6_radial_5191_5230)"/>
<path d="M43.4453 646.182C41.2451 644.843 35.1664 640.265 30.132 636.283C27.2944 634.048 25.3396 630.885 24.6128 627.351C24.2772 625.044 16.6322 570.41 22.6362 525.118C30.2811 516.894 38.3362 509.785 40.8348 509.004C43.2588 510.418 50.0087 520.466 55.9754 531.631C57.1315 556.566 58.6977 596.722 57.9519 600.742C56.4602 604.724 52.9175 624.858 50.0833 641.977C47.5847 643.689 44.8251 645.475 43.4453 646.182Z" fill="url(#paint7_radial_5191_5230)"/>
<path d="M44.7133 645.699C44.7133 645.699 33.5256 632.413 28.603 634.534C23.6805 636.655 44.042 672.271 58.7351 682.915L66.4173 670.336L44.7133 645.699Z" fill="#808080"/>
<path d="M315.492 114.811L321.496 55.5634C321.496 55.5634 289.499 14.1047 257.279 13.1743L197.835 22.069L189.22 27.2792L180.569 22.069L121.274 13.2115C89.091 14.1419 56.3858 55.6006 56.3858 55.6006L62.9492 114.774L53.5889 194.454L64.1798 207.07L156.627 188.462L189.071 163.118L221.515 188.462L313.925 207.07L324.665 194.491L315.492 114.811Z" fill="url(#paint8_linear_5191_5230)"/>
<path d="M227.146 155.489L220.508 82.8058L220.135 52.0281C215.478 47.1304 210.574 42.4723 205.442 38.0721C201.541 36.7913 197.569 35.7351 193.546 34.9087L188.959 35.5041L184.447 34.9087C180.412 35.7342 176.427 36.7904 172.513 38.0721C167.382 42.4723 162.478 47.1304 157.82 52.0281L157.41 82.8058L150.735 155.489L164.384 155.117C164.384 155.117 164.048 123.669 167.889 84.1828C171.73 44.6965 188.885 46.1107 188.885 46.1107C188.885 46.1107 206.076 44.6965 209.917 84.1828C213.759 123.669 213.423 155.117 213.423 155.117L227.146 155.489Z" fill="url(#paint9_linear_5191_5230)"/>
<path d="M94.6847 36.5459C99.9931 28.8792 106.822 22.3812 114.748 17.4541C105.544 20.5079 97.4317 26.1724 91.403 33.7547C80.6629 46.8176 94.6847 36.5459 94.6847 36.5459Z" fill="#115444"/>
<path d="M341.298 388.201C345.027 390.21 345.027 386.079 345.027 383.698C352.485 381.986 351.628 358.13 344.579 351.208C341.894 348.603 339.433 351.208 339.731 354.297C340.557 357.101 341.735 359.79 343.237 362.298C344.234 363.763 344.91 365.421 345.221 367.164C345.532 368.907 345.471 370.695 345.041 372.413C344.612 374.131 343.824 375.739 342.729 377.132C341.634 378.525 340.257 379.672 338.687 380.497L341.298 388.201Z" fill="#404040"/>
<path d="M342.938 358.465C345.074 362.199 346.228 366.411 346.295 370.709C346.268 374.135 344.935 377.422 342.566 379.902L342.118 387.01C342.118 387.01 344.43 387.829 344.318 383.288C344.318 383.288 349.353 380.981 349.577 371.305C349.8 360.698 347.227 354.409 342.901 351.841L342.938 358.465Z" fill="#DBDBDB"/>
<path d="M311.539 689.018L320.638 682.022C320.638 682.022 343.871 641.493 343.871 605.17C343.871 568.847 341.782 523.295 341.074 482.878C340.365 442.462 341.782 379.455 341.782 342.425C341.782 305.395 338.986 212.429 338.986 212.429L315.864 214.513L291.363 272.533L277.342 559.73L311.539 689.018Z" fill="#199675"/>
<path d="M336.748 491.252C336.748 463.34 339.545 341.941 334.66 212.801L338.836 212.429C338.836 212.429 341.633 305.469 341.633 342.425C341.633 379.381 340.254 442.35 340.925 482.878C341.372 508.185 342.379 535.428 343.051 561.032L338.836 560.288C338.836 560.288 336.748 519.201 336.748 491.252Z" fill="#115444"/>
<path d="M320.638 682.022L311.539 689.018L290.58 610.083L318.512 568.736C327.403 566.028 335.684 561.631 342.901 555.785C343.386 573.127 343.722 589.912 343.722 605.096C343.871 641.493 320.638 682.022 320.638 682.022Z" fill="url(#paint10_linear_5191_5230)"/>
<path d="M337.457 520.281L336.039 531.111L330.11 541.94L332.907 524.486L337.457 520.281Z" fill="black"/>
<path d="M323.658 221.994C328.237 218.032 333.239 214.588 338.575 211.722C342.061 201.225 343.019 190.056 341.372 179.121C339.321 169.296 321.495 185.82 321.495 185.82L313.067 201.19L323.658 221.994Z" fill="#DBDBDB"/>
<path d="M323.658 218.719L336.748 209.415C336.748 209.415 341.857 196.352 340.477 188.425C340.477 188.425 333.019 205.209 323.211 208C317.207 209.712 323.658 218.719 323.658 218.719Z" fill="#808080"/>
<path d="M328.954 207.182C330.222 208.224 332.683 207.182 334.697 204.875C336.711 202.567 337.084 199.813 335.778 198.771C334.473 197.729 332.049 198.771 330.073 201.116C328.096 203.46 327.499 206.177 328.954 207.182Z" fill="#DBDBDB"/>
<path d="M37.3667 388.201C33.6375 390.21 33.6375 386.079 33.4511 383.698C25.9926 381.986 26.8877 358.13 33.9359 351.208C36.6209 348.603 39.0449 351.208 38.7838 354.297C37.9585 357.101 36.7807 359.79 35.2783 362.298C34.2812 363.763 33.6051 365.421 33.2941 367.164C32.9832 368.907 33.0445 370.695 33.4739 372.413C33.9034 374.131 34.6913 375.739 35.7863 377.132C36.8812 378.525 38.2585 379.672 39.828 380.497L37.3667 388.201Z" fill="#404040"/>
<path d="M35.7258 358.465C33.5736 362.192 32.4179 366.408 32.3696 370.709C32.3962 374.135 33.7297 377.422 36.0988 379.902L36.5463 387.01C36.5463 387.01 34.2342 387.829 34.346 383.288C34.346 383.288 29.3116 380.981 29.0878 371.305C28.8641 360.698 31.4372 354.409 35.7258 351.841V358.465Z" fill="#DBDBDB"/>
<path d="M67.1259 689.018L58.0266 682.022C58.0266 682.022 34.9054 641.493 34.9054 605.17C34.9054 568.847 37.0311 523.295 37.7396 482.878C38.4482 442.462 37.0311 379.455 37.0311 342.425C37.0311 305.395 39.828 212.429 39.828 212.429L62.9492 214.513L87.45 272.533L101.472 559.73L67.1259 689.018Z" fill="#199675"/>
<path d="M41.8045 491.252C41.8045 463.34 39.0075 341.941 43.8928 212.801L39.7161 212.429C39.7161 212.429 36.9192 305.469 36.9192 342.425C36.9192 379.381 38.299 442.35 37.6278 482.878C37.1802 508.185 36.1733 535.428 35.5021 561.032L39.7161 560.288C39.7161 560.288 41.8045 519.201 41.8045 491.252Z" fill="#115444"/>
<path d="M58.0266 682.022L67.1259 689.018L88.084 610.083L60.1149 568.736C51.2377 566.024 42.969 561.626 35.7632 555.785C35.2784 573.127 34.9054 589.912 34.9054 605.096C34.9054 641.493 58.0266 682.022 58.0266 682.022Z" fill="url(#paint11_linear_5191_5230)"/>
<path d="M41.2451 520.281L42.6622 531.111L48.5917 541.94L45.7948 524.486L41.2451 520.281Z" fill="black"/>
<path d="M55.0059 221.994C50.4205 218.042 45.419 214.598 40.0891 211.722C36.5836 201.229 35.625 190.056 37.2921 179.121C39.3805 169.296 57.3553 185.634 57.3553 185.634L65.7833 201.004L55.0059 221.994Z" fill="#DBDBDB"/>
<path d="M55.0059 218.719L41.8044 209.415C41.8044 209.415 36.6954 196.352 38.0752 188.425C38.0752 188.425 45.5337 205.209 55.3415 208C61.4574 209.712 55.0059 218.719 55.0059 218.719Z" fill="#808080"/>
<path d="M49.8969 207.182C48.629 208.224 46.1677 207.182 44.1539 204.875C42.1401 202.567 41.7672 199.813 43.0724 198.771C44.3776 197.729 46.8016 198.771 48.7781 201.116C50.7546 203.46 51.1649 206.177 49.8969 207.182Z" fill="#DBDBDB"/>
<path d="M323.36 203.349C279.952 148.12 190.302 149.534 190.302 149.534H188.288C188.288 149.534 98.7868 148.12 55.2296 203.349C55.2296 203.349 28.603 386.452 64.0678 643.317L110.981 673.685L168.747 668.475L189.295 591.996L209.843 668.475L267.608 673.685L314.522 643.317C349.949 386.452 323.36 203.349 323.36 203.349Z" fill="url(#paint12_linear_5191_5230)"/>
<path d="M322.018 204.056C322.018 204.056 322.241 203.423 322.577 202.381C278.871 148.157 190.302 149.534 190.302 149.534H188.288C188.288 149.534 98.787 148.12 55.2297 203.349C91.8448 170.379 139.444 152.189 188.76 152.32C238.076 152.45 285.579 170.893 322.018 204.056Z" fill="black"/>
<path d="M335.816 239.15C336.003 238.961 336.258 238.854 336.524 238.853C336.743 238.855 336.954 238.934 337.121 239.076L344.952 245.403L345.884 244.882C346.992 244.413 348.187 244.185 349.39 244.212C355.17 244.212 363.002 248.64 368.409 254.967C370.781 257.454 372.58 260.427 373.682 263.68C374.783 266.932 375.16 270.386 374.786 273.798C374.814 274.12 374.814 274.444 374.786 274.766V275.101C374.714 275.383 374.614 275.657 374.488 275.92C374.495 276.006 374.495 276.094 374.488 276.18L374.301 276.478V276.739L374.04 276.999L373.593 277.334C373.441 277.476 373.241 277.556 373.033 277.557H372.81C371.84 277.334 349.614 272.421 338.128 264.569L332.683 264.792C332.465 264.771 332.26 264.68 332.098 264.533C331.937 264.385 331.828 264.188 331.788 263.973C331.714 263.266 328.32 246.445 335.816 239.15Z" fill="black"/>
<path d="M338.091 263.973H332.683C332.683 263.973 329.178 247.04 336.412 240.043L344.803 246.854L338.091 263.973Z" fill="#202020"/>
<path d="M372.064 277.074C372.064 277.074 348.942 272.012 337.568 264.122C337.568 264.122 338.091 249.645 346.295 245.812C354.499 241.979 376.427 256.977 373.816 273.761C373.816 274.414 373.656 275.057 373.35 275.634C373.045 276.211 372.603 276.705 372.064 277.074Z" fill="white"/>
<path d="M372.064 277.074C372.064 277.074 348.942 272.012 337.568 264.122C337.568 264.122 337.568 263.118 337.792 261.592C350.286 264.34 362.37 268.693 373.742 274.543C373.521 275.567 372.922 276.471 372.064 277.074Z" fill="black"/>
<path d="M43.1469 239.15C42.9595 238.962 42.7048 238.855 42.4385 238.853C42.2182 238.848 42.0045 238.928 41.8418 239.076L34.0104 245.403L33.0781 244.882C31.9703 244.413 30.7754 244.185 29.5726 244.212C23.7923 244.212 15.961 248.641 10.5536 254.967C8.18185 257.454 6.38247 260.428 5.28107 263.68C4.17966 266.933 3.80279 270.386 4.17669 273.799C4.14843 274.121 4.14843 274.444 4.17669 274.766V275.101C4.23197 275.388 4.33263 275.665 4.47497 275.92C4.46788 276.007 4.46788 276.094 4.47497 276.18V276.478L4.6615 276.739L4.92246 276.999L5.37006 277.334C5.5214 277.477 5.72133 277.557 5.92942 277.557H6.15317C7.12276 277.334 29.3488 272.422 40.8348 264.569L45.2354 264.309C45.4535 264.288 45.6589 264.197 45.8204 264.049C45.982 263.901 46.0908 263.705 46.1303 263.49C47.2491 263.266 50.6426 246.445 43.1469 239.15Z" fill="black"/>
<path d="M40.8722 263.974L46.1304 263.639C46.1304 263.639 49.6359 246.706 42.4012 239.709L34.0105 246.52L40.8722 263.974Z" fill="#202020"/>
<path d="M6.8991 277.074C6.8991 277.074 30.0202 272.012 41.3943 264.122C41.3943 264.122 40.8722 249.645 32.6307 245.812C24.3891 241.979 2.53592 256.977 5.14637 273.761C5.14711 274.414 5.30703 275.057 5.6124 275.634C5.91778 276.211 6.35945 276.705 6.8991 277.074Z" fill="white"/>
<path d="M6.89914 277.074C6.89914 277.074 30.0203 272.012 41.3944 264.122C41.3944 264.122 41.3943 263.118 41.1705 261.592C28.6767 264.34 16.5928 268.693 5.22095 274.543C5.44182 275.567 6.04099 276.471 6.89914 277.074Z" fill="black"/>
<path d="M322.726 224.301C322.726 224.301 282.525 170.338 189.668 169.817H188.288C95.4306 170.338 55.2297 224.301 55.2297 224.301C55.2297 224.301 50.3444 270.412 50.3444 403.906C50.2718 483.597 55.8798 563.192 67.1259 642.089C67.1259 642.089 91.6268 663.042 93.7524 664.419C95.8781 665.796 146.968 674.913 146.968 674.913L188.959 639.223L230.987 674.913C230.987 674.913 282.115 665.907 284.203 664.567C286.292 663.228 310.83 642.238 310.83 642.238C322.076 563.341 327.684 483.746 327.611 404.055C327.611 270.412 322.726 224.301 322.726 224.301Z" fill="#202020"/>
<path d="M93.7524 664.567C95.8407 665.982 146.968 675.062 146.968 675.062L188.959 639.372L230.987 675.062C230.987 675.062 282.115 665.907 284.203 664.567C286.292 663.228 310.83 642.238 310.83 642.238C310.83 642.238 315.566 612.763 320.004 565.163L82.5275 559.767L57.9147 564.456C62.3524 612.465 67.1258 642.238 67.1258 642.238C67.1258 642.238 91.6267 663.153 93.7524 664.567Z" fill="black"/>
<path d="M313.441 214.402C296.808 198.808 257.129 170.189 189.668 169.743H188.288C121.162 170.115 81.5206 198.436 64.7391 214.104C89.2774 236.769 135.818 252.102 189.22 252.102C242.623 252.102 288.828 236.955 313.441 214.402Z" fill="url(#paint13_radial_5191_5230)"/>
<path d="M327.052 329.883H50.9037C50.5681 350.836 50.3444 375.361 50.3444 403.906C50.3444 465.201 53.8871 520.467 57.8028 562.298C64.9465 560.176 72.2215 558.522 79.5814 557.348L296.995 558.39L320.19 564.345C323.92 522.253 327.649 466.206 327.649 403.906C327.611 375.361 327.388 350.836 327.052 329.883Z" fill="url(#paint14_linear_5191_5230)"/>
<path d="M78.3507 547.858C72.2917 552.754 64.954 555.815 57.2061 556.678C57.579 560.809 57.9147 564.791 58.2876 568.662C65.746 566.838 82.1545 562.298 83.2359 556.939C83.6894 555.09 83.4411 553.14 82.5391 551.463C81.6371 549.786 80.1451 548.502 78.3507 547.858ZM62.1659 216.635C59.6971 218.966 57.3803 221.452 55.2296 224.078C55.2296 224.078 54.5956 230.033 53.7752 243.803C56.6467 257.833 64.0305 289.839 76.1505 314.215C92.2607 346.37 109.713 347.71 109.713 347.71L80.9985 297.394C80.9985 297.394 63.4711 247.152 62.1659 216.672V216.635ZM82.5275 415.034C68.8413 408.968 56.423 393.374 50.3444 385.261V407.925C59.1928 415.436 69.0926 421.617 79.7306 426.273C79.7306 426.273 101.472 423.482 82.5275 415.071V415.034ZM296.137 547.821C294.336 548.458 292.835 549.739 291.926 551.416C291.016 553.094 290.763 555.048 291.214 556.901C292.52 563.451 316.424 568.736 319.594 569.406C319.966 565.275 320.377 560.958 320.75 556.529C308.145 557.981 296.137 547.858 296.137 547.858V547.821ZM322.018 236.843C322.018 236.843 322.39 231.893 322.801 225.157C322.801 224.562 322.801 224.264 322.801 224.264C319.664 220.34 316.196 216.692 312.434 213.36C312.434 243.356 293.377 297.654 293.377 297.654L264.662 347.97C264.662 347.97 282.19 346.556 298.225 314.476C314.261 282.396 322.018 236.88 322.018 236.88V236.843ZM327.574 380.199C326.53 381.8 310.196 406.921 291.923 415.034C273.016 423.445 294.72 426.199 294.72 426.199C306.849 420.934 317.976 413.619 327.611 404.576V403.832C327.611 395.644 327.599 387.779 327.574 380.237V380.199Z" fill="#808080"/>
<path d="M317.766 566.912C304.416 563.823 293.899 559.469 293.303 556.529C292.984 555.355 293.063 554.108 293.528 552.984C293.994 551.86 294.819 550.921 295.876 550.314C302.306 555.33 310.106 558.287 318.251 558.799C317.99 561.553 317.729 564.27 317.505 566.912H317.766ZM60.1895 566.056C59.9657 563.575 59.742 561.094 59.5182 558.613C66.4755 557.459 73.0439 554.623 78.6491 550.351C79.7101 550.953 80.5394 551.892 81.0055 553.018C81.4716 554.143 81.5479 555.392 81.2223 556.566C80.7748 558.725 74.0248 562.521 60.1895 566.093V566.056ZM80.0289 424.003C70.0802 419.583 60.7932 413.809 52.4327 406.846V391.438C59.3691 400.221 70.0719 411.796 81.6698 416.932C87.3382 419.425 88.084 420.914 88.1586 421.174C85.7547 422.839 82.9471 423.828 80.0289 424.04V424.003ZM294.421 424.003C291.503 423.791 288.696 422.801 286.292 421.137C286.292 420.876 287.149 419.388 292.781 416.894C306.728 410.716 319.333 395.309 325.486 386.824C325.486 392.518 325.486 397.988 325.486 403.683C316.282 412.082 305.78 418.944 294.384 424.003H294.421ZM105.388 344.323C99.3835 341.606 88.4569 334.051 78.127 313.396C65.9697 289.132 58.5486 256.828 55.7517 243.765C56.4229 232.6 56.9451 226.795 57.0943 225.157C57.6163 224.524 58.6605 223.259 60.2268 221.435C62.9118 251.99 78.3135 296.314 78.8729 298.287C78.852 298.41 78.852 298.536 78.8729 298.659L104.977 344.36L105.388 344.323ZM269.063 344.323L295.167 298.622C295.237 298.501 295.299 298.377 295.354 298.249C296.062 296.128 312.62 248.529 314.373 218.049C316.626 220.249 318.755 222.573 320.75 225.008C320.377 231.074 320.041 235.689 319.967 236.396C319.556 238.778 311.8 282.507 296.361 313.285C286.031 333.94 275.104 341.495 269.1 344.211L269.063 344.323Z" fill="black"/>
<path d="M316.014 648.974C316.007 647.876 315.907 646.78 315.715 645.699C315.392 644.113 314.494 642.701 313.194 641.733C311.894 640.765 310.283 640.309 308.667 640.451H307.287H306.691H306.355H305.684H305.348H304.639H304.378L303.633 640.675H303.446L302.626 640.935L301.731 641.233C299.873 641.909 298.066 642.718 296.323 643.652C291.428 645.738 286.379 647.443 281.22 648.75C282.302 647.634 283.644 646.108 285.136 644.285C285.956 643.28 286.739 642.238 287.485 641.233L288.156 640.265L288.753 639.372L289.312 638.516V638.33L289.835 637.474V637.251C289.982 636.97 290.144 636.697 290.319 636.432L290.58 635.985C290.739 635.763 290.876 635.526 290.991 635.278L291.252 634.832C291.41 634.583 291.548 634.322 291.662 634.05L291.886 633.641L292.258 632.896L292.557 632.226L292.93 631.519C292.994 631.312 293.081 631.112 293.191 630.924V630.663V630.217C293.255 630.009 293.342 629.809 293.452 629.621V629.435L293.676 628.914C293.754 628.747 293.817 628.572 293.862 628.393V628.095V627.872C293.862 627.872 293.862 627.574 293.862 627.426L294.123 626.756V626.532V626.346C294.133 626.21 294.133 626.073 294.123 625.937C294.227 625.67 294.314 625.396 294.384 625.118V624.895V624.523C294.384 624.002 294.683 623.481 294.794 622.96C299.12 605.729 303.931 533.939 303.931 458.502C303.931 382.469 301.843 319.314 301.843 318.718V316.076C301.826 315.94 301.826 315.803 301.843 315.667C301.857 315.481 301.857 315.294 301.843 315.108C301.666 313.738 301.392 312.383 301.022 311.052C300.952 310.749 300.865 310.451 300.761 310.159C300.761 309.861 300.761 309.563 300.463 309.228C300.463 308.931 300.239 308.596 300.09 308.261C300.09 307.926 299.829 307.591 299.68 307.219C298.706 304.612 297.456 302.116 295.951 299.775L295.13 298.547L294.272 297.394L293.34 296.277V296.054L292.333 294.9L291.177 293.672C289.322 291.814 287.341 290.085 285.248 288.499C283.115 286.911 280.885 285.457 278.572 284.145C249.857 267.77 223.529 261.033 187.729 260.959H187.057C151.257 260.959 124.929 267.77 96.2137 284.145C94.9458 284.852 93.6778 285.633 92.4845 286.526L90.6199 287.829L88.9045 289.094L87.3755 290.36L85.8838 291.662L84.4667 293.002C78.6094 298.553 74.5672 305.739 72.8688 313.62C72.851 313.905 72.851 314.191 72.8688 314.476V315.22V315.853C72.8688 315.853 72.8688 316.225 72.8688 316.411V318.197C72.8688 318.793 70.7804 381.948 70.7804 457.981C70.7804 533.418 75.5912 605.208 79.9171 622.439C79.9171 623.034 80.2154 623.63 80.4019 624.225V624.56V624.783C80.4019 625.193 80.6257 625.565 80.7748 625.974V626.421V626.607C80.7748 626.979 81.0358 627.314 81.1477 627.686C81.2505 627.89 81.3378 628.102 81.4087 628.319L81.8562 629.435C81.8562 629.435 81.8562 629.733 81.8562 629.845C81.8562 629.956 82.3411 630.924 82.6021 631.445L83.3107 632.896V633.194V633.417L83.87 634.422V634.757V634.98L84.3922 635.911L84.7278 636.432C84.7278 636.767 85.1007 637.102 85.3245 637.437V637.66C85.9211 638.553 86.4805 639.446 87.0772 640.302V640.488L87.7111 641.419L87.9722 641.791L88.6434 642.647C88.8672 642.982 89.1283 643.28 89.3893 643.615L91.142 645.736C92.1614 646.927 93.0564 647.932 93.8271 648.75C88.7346 647.439 83.7483 645.747 78.9102 643.689C78.4627 643.466 77.1574 642.759 75.3674 642.014L74.4724 641.642L73.4283 641.233L71.2653 640.563H70.967L70.1838 640.377H69.8109H69.0277H68.6921H67.9463H66.5292C64.9152 640.243 63.3077 640.702 62.0095 641.669C60.7113 642.635 59.812 644.042 59.4809 645.624C59.2587 646.852 59.1588 648.099 59.1826 649.346C59.1826 649.83 59.1826 650.351 59.1826 650.797L62.2778 681.389V682.617V683.101C62.2601 683.386 62.2601 683.672 62.2778 683.957V684.515C62.2576 684.763 62.2576 685.012 62.2778 685.259V685.855V686.525C62.2778 686.711 62.2779 686.934 62.4644 687.12C62.504 687.325 62.5665 687.525 62.6508 687.716L62.8745 688.348C62.9623 688.516 63.0371 688.69 63.0983 688.869L63.3967 689.465C63.3967 689.465 63.3967 689.465 63.3967 689.763L63.7696 690.395C64.4191 691.386 65.1826 692.298 66.0444 693.112L66.8648 693.894L67.7598 694.601L68.0209 694.787L69.0277 695.494L69.3261 695.68L70.4076 696.35H70.6314C72.077 697.183 73.5713 697.928 75.1063 698.583C86.7415 703.607 129.665 711.087 184.932 711.125H185.528C240.758 711.125 283.681 703.681 295.316 698.583C296.696 697.987 298.001 697.355 299.307 696.647C301.253 695.629 303.069 694.38 304.714 692.926C304.957 692.709 305.181 692.472 305.385 692.219L305.609 691.995C305.828 691.777 306.027 691.541 306.206 691.288C306.401 691.069 306.575 690.832 306.728 690.581C307.041 690.102 307.328 689.605 307.586 689.093V688.907C307.57 688.746 307.57 688.584 307.586 688.423V688.237V687.753C307.596 687.567 307.596 687.381 307.586 687.195C307.586 687.195 307.586 686.785 307.772 686.599V686.041V685.371C307.772 685.371 307.772 685.111 307.772 684.999C307.79 684.726 307.79 684.453 307.772 684.18C307.788 684.082 307.788 683.981 307.772 683.882C307.772 683.436 307.772 683.026 307.772 682.617L310.755 651.095C310.789 650.463 310.789 649.829 310.755 649.197V649.011L316.014 648.974Z" fill="black"/>
<path d="M303.111 317.937C303.111 317.937 303.819 298.399 279.318 284.443C254.817 270.487 229.197 261.48 188.997 261.369H188.288C148.087 261.369 122.318 270.561 97.9291 284.443C73.54 298.324 74.1368 317.937 74.1368 317.937C74.1368 317.937 72.0483 380.832 72.0483 457.721C72.0483 534.609 76.9336 605.171 81.1476 621.955C84.5446 633.148 90.8188 643.259 99.3462 651.281L121.721 675.062L188.586 666.614L255.451 675.062L277.826 651.281C286.367 643.263 292.655 633.152 296.062 621.955C300.239 605.171 305.162 534.572 305.162 457.721C305.162 380.869 303.111 317.937 303.111 317.937Z" fill="#199675"/>
<path d="M74.1368 317.937C74.1368 317.937 72.0483 380.832 72.0483 457.721C72.0483 534.609 76.9336 605.171 81.1476 621.955C83.616 630.759 88.0101 638.906 94.0135 645.811V286.75C73.5401 300.483 74.1368 317.937 74.1368 317.937Z" fill="url(#paint15_linear_5191_5230)"/>
<path d="M305.236 457.72C305.236 380.832 303.111 317.937 303.111 317.937C303.111 317.937 303.67 302.083 285.882 288.685V642.238C290.592 636.167 294.075 629.24 296.137 621.843C300.314 605.171 305.236 534.572 305.236 457.72Z" fill="url(#paint16_linear_5191_5230)"/>
<path d="M314.82 651.021C314.877 650.414 314.877 649.804 314.82 649.197C314.841 648.161 314.754 647.126 314.559 646.108C314.272 644.752 313.492 643.549 312.37 642.731C311.248 641.914 309.863 641.539 308.481 641.679C304.259 642.118 300.166 643.383 296.435 645.401C266.602 658.576 208.127 659.431 207.568 659.431H169.642C169.045 659.431 110.758 658.576 80.7375 645.401C77.0064 643.383 72.9132 642.118 68.6921 641.679C67.3099 641.539 65.9246 641.914 64.8025 642.731C63.6804 643.549 62.9008 644.752 62.6135 646.108C62.4183 647.201 62.331 648.31 62.3525 649.42V649.644C62.3156 650.102 62.3156 650.562 62.3525 651.021L65.485 681.724C64.5527 689.167 68.8413 694.489 78.8356 698.806C90.3588 703.793 133.133 711.199 188.251 711.273H188.847C243.928 711.273 286.702 703.83 298.225 698.806C307.772 694.675 312.098 689.539 311.688 682.729L314.82 651.021Z" fill="#199675"/>
<path d="M99.2776 651.405C129.943 658.857 169.153 659.431 169.642 659.431H207.568C208.025 659.431 247.073 658.861 277.631 651.485" stroke="black"/>
<path d="M77.2694 643.578C74.5723 642.319 71.6632 641.574 68.6921 641.382C67.3099 641.242 65.9246 641.616 64.8025 642.434C63.6804 643.251 62.9008 644.454 62.6135 645.811C62.4183 646.903 62.331 648.013 62.3525 649.123V649.346C62.3156 649.804 62.3156 650.265 62.3525 650.723L65.485 681.426C64.6646 687.902 67.9463 692.963 75.703 697.02L81.3342 682.32L77.2694 643.578Z" fill="url(#paint17_linear_5191_5230)"/>
<path d="M311.837 682.506L314.82 650.909C314.877 650.303 314.877 649.692 314.82 649.085C314.841 648.05 314.754 647.014 314.559 645.997C314.272 644.64 313.492 643.437 312.37 642.62C311.248 641.802 309.863 641.428 308.481 641.568C305.91 641.73 303.387 642.335 301.022 643.354L296.734 682.506L302.216 696.797C309.077 692.889 312.172 688.237 311.837 682.506Z" fill="url(#paint18_linear_5191_5230)"/>
<path d="M308.816 680.98C307.772 675.397 295.167 682.394 295.167 682.394C265.073 696.015 207.307 696.722 207.307 696.722H170.015C170.015 696.722 112.212 696.015 82.1173 682.394C82.1173 682.394 69.5126 675.397 68.4684 680.98C67.4242 686.562 69.5126 691.475 80.029 695.866C90.5454 700.258 131.902 708.036 188.176 708.11H188.773C245.159 708.11 286.59 700.407 296.92 695.866C307.25 691.326 309.86 686.599 308.816 680.98Z" fill="url(#paint19_linear_5191_5230)"/>
<path d="M104.231 595.383C104.231 595.383 98.6377 338.927 99.3462 327.018C99.3462 327.018 108.445 415.071 104.231 595.383Z" fill="url(#paint20_radial_5191_5230)"/>
<path d="M274.06 595.383C274.06 595.383 279.654 338.927 278.945 327.018C278.945 327.018 269.846 415.071 274.06 595.383Z" fill="url(#paint21_radial_5191_5230)"/>
<path d="M99.1972 599.142C99.2224 599.646 99.1447 600.15 98.9686 600.623C98.7926 601.096 98.5219 601.529 98.173 601.894C97.8242 602.26 97.4045 602.551 96.9395 602.749C96.4744 602.948 95.9738 603.05 95.4679 603.049C94.9628 603.075 94.4576 602.997 93.9835 602.821C93.5093 602.646 93.0758 602.375 92.7095 602.027C92.3432 601.679 92.0517 601.26 91.8528 600.796C91.6538 600.332 91.5516 599.832 91.5522 599.328L87.5992 325.417C87.5992 324.43 87.9922 323.484 88.6916 322.786C89.3909 322.088 90.3394 321.696 91.3285 321.696C92.3175 321.696 93.2661 322.088 93.9655 322.786C94.6648 323.484 95.0577 324.43 95.0577 325.417L99.1972 599.142Z" fill="#404040"/>
<path d="M95.3933 600.965C94.9377 600.956 94.5028 600.774 94.1771 600.456C93.8514 600.138 93.6595 599.708 93.6406 599.253L89.725 325.343C89.7081 325.11 89.7428 324.875 89.8266 324.657C89.9104 324.438 90.0412 324.24 90.2098 324.078C90.3682 323.911 90.5591 323.779 90.7708 323.69C90.9825 323.6 91.2104 323.555 91.4404 323.557C91.9025 323.556 92.3468 323.734 92.6804 324.053C93.014 324.372 93.2112 324.808 93.2304 325.269L97.1461 599.179C97.1561 599.41 97.1192 599.641 97.0375 599.857C96.9558 600.073 96.8311 600.271 96.6708 600.438C96.5105 600.605 96.318 600.738 96.1048 600.828C95.8917 600.919 95.6623 600.966 95.4307 600.965H95.3933Z" fill="#808080"/>
<path d="M278.759 599.142C278.734 599.646 278.811 600.15 278.987 600.623C279.163 601.096 279.434 601.529 279.783 601.894C280.132 602.26 280.551 602.551 281.017 602.749C281.482 602.948 281.982 603.05 282.488 603.049C282.993 603.075 283.498 602.997 283.973 602.821C284.447 602.646 284.88 602.375 285.246 602.027C285.613 601.679 285.904 601.26 286.103 600.796C286.302 600.332 286.405 599.832 286.404 599.328L290.357 325.417C290.357 324.43 289.964 323.484 289.265 322.786C288.565 322.088 287.617 321.696 286.628 321.696C285.639 321.696 284.69 322.088 283.991 322.786C283.291 323.484 282.898 324.43 282.898 325.417L278.759 599.142Z" fill="#404040"/>
<path d="M282.563 600.965C283.021 600.965 283.461 600.786 283.789 600.466C284.117 600.146 284.306 599.711 284.315 599.253L288.231 325.343C288.248 325.109 288.213 324.875 288.129 324.656C288.046 324.438 287.915 324.24 287.746 324.077C287.589 323.909 287.399 323.776 287.187 323.686C286.975 323.596 286.746 323.552 286.516 323.556C286.057 323.556 285.617 323.735 285.289 324.056C284.962 324.376 284.773 324.811 284.763 325.268L280.81 599.179C280.8 599.41 280.837 599.64 280.918 599.857C281 600.073 281.125 600.271 281.285 600.438C281.446 600.605 281.638 600.737 281.851 600.828C282.064 600.919 282.294 600.965 282.525 600.965H282.563Z" fill="#808080"/>
<path d="M327.052 63.2299C327.052 63.2299 337.531 74.7669 339.657 115.332C341.016 136.4 341.016 157.532 339.657 178.6C339.657 178.6 330.893 196.091 322.502 204.13C317.35 197.351 311.609 191.037 305.348 185.261C305.348 185.261 301.619 172.682 297.628 134.238C293.638 95.794 282.935 40.9375 282.935 40.9375L306.392 55.8239L327.052 63.2299Z" fill="#199675"/>
<path d="M310.942 148.604C310.942 148.604 306.728 74.1716 307.772 73.4645C308.816 72.7574 317.58 67.5471 326.679 82.9174C334.473 96.0546 335.107 166.728 335.107 186.899C331.619 193.142 327.387 198.94 322.502 204.167C318.339 198.779 313.882 193.623 309.152 188.723C308.555 182.805 308.145 177.558 308.145 176.888C308.145 175.027 310.942 148.604 310.942 148.604Z" fill="#199675"/>
<path d="M305.348 185.187C305.348 185.187 301.619 172.608 297.628 134.164C293.638 95.7198 282.935 40.8633 282.935 40.8633L306.392 55.7497H306.691C310.681 61.3693 312.247 67.6589 316.424 81.5032C326.679 115.482 322.502 203.795 322.502 203.795C317.338 197.106 311.598 190.88 305.348 185.187Z" fill="url(#paint22_linear_5191_5230)"/>
<path d="M310.308 63.0068C312.098 67.4355 313.701 73.1296 316.312 81.6148C326.567 115.593 322.391 203.907 322.391 203.907L320.526 201.525C320.526 191.737 319.817 87.3461 306.057 71.827C294.198 58.4664 305.199 60.9227 310.308 63.0068Z" fill="url(#paint23_linear_5191_5230)"/>
<path d="M49.9715 63.2301C49.9715 63.2301 39.4924 74.7671 37.3668 115.333C36.0075 136.4 36.0075 157.533 37.3668 178.6C37.3668 178.6 46.1304 196.092 54.5212 204.13C59.674 197.351 65.4143 191.037 71.6756 185.262C71.6756 185.262 75.4047 172.683 79.395 134.238C83.3852 95.7942 94.0135 40.8633 94.0135 40.8633L70.5568 55.7497L49.9715 63.2301Z" fill="#199675"/>
<path d="M66.0817 148.604C66.0817 148.604 70.2956 74.1716 69.2514 73.4645C68.2072 72.7574 59.4437 67.5471 50.3444 82.9174C42.5503 95.943 41.8044 166.616 41.8044 186.787C45.2925 193.03 49.5249 198.828 54.4092 204.056C58.6206 198.663 63.1274 193.507 67.9089 188.611C68.5056 182.694 68.9158 177.446 68.9158 176.776C68.8785 175.027 66.0817 148.604 66.0817 148.604Z" fill="#199675"/>
<path d="M71.6382 185.187C71.6382 185.187 75.3674 172.608 79.3577 134.164C83.3479 95.7198 94.0135 40.8633 94.0135 40.8633L70.5567 55.7497H70.2584C66.2681 61.3693 64.7018 67.6589 60.5251 81.5032C50.2697 115.482 54.4465 203.795 54.4465 203.795C59.6232 197.105 65.3756 190.878 71.6382 185.187Z" fill="url(#paint24_linear_5191_5230)"/>
<path d="M66.6038 63.0068C64.8138 67.4355 63.2103 73.1296 60.5998 81.6148C50.3445 115.593 54.5212 203.907 54.5212 203.907L56.3858 201.525C56.3858 191.737 57.0944 87.3461 70.8552 71.827C82.826 58.4664 71.8247 60.9227 66.6038 63.0068Z" fill="url(#paint25_linear_5191_5230)"/>
<path d="M274.06 79.0096C272.606 61.1087 262.872 21.9574 256.831 14.1048C256.58 13.7435 256.211 13.4804 255.787 13.3605C233.924 7.28972 211.354 4.12385 188.661 3.94482C165.968 4.12817 143.399 7.29397 121.535 13.3605C121.111 13.4804 120.742 13.7435 120.491 14.1048C114.561 21.9574 104.716 61.1087 103.262 79.0096C102.856 81.3076 102.931 83.6646 103.483 85.932C104.035 88.1994 105.052 90.3282 106.469 92.1841C107.522 93.2757 108.793 94.1346 110.2 94.7051C111.607 95.2757 113.118 95.5452 114.636 95.4964C115.589 95.4983 116.539 95.3985 117.47 95.1986L158.976 86.825C159.49 86.7254 159.948 86.4368 160.259 86.0164C160.57 85.5959 160.711 85.0743 160.654 84.5548C160.67 84.4687 160.67 84.3805 160.654 84.2943C160.654 81.9125 162.519 66.1701 163.004 64.3465C163.936 59.8924 165.694 55.6513 168.188 51.8419C169.825 49.5469 171.899 47.5965 174.293 46.1022C176.686 44.6079 179.351 43.5991 182.135 43.1334C184.106 42.7985 186.102 42.6243 188.102 42.6123C193.809 42.4166 199.417 44.1466 204.018 47.523C208.619 50.8993 211.946 55.7249 213.46 61.2204C214.575 64.5856 215.361 68.0504 215.809 71.5664C215.809 72.1991 216.145 76.665 216.332 79.6423C216.332 81.0193 216.332 82.3219 216.555 83.3639C216.555 85.3364 216.556 86.5273 218.346 86.825L259.889 95.2359C260.812 95.3994 261.748 95.4865 262.686 95.4964C264.203 95.5452 265.715 95.2757 267.121 94.7051C268.528 94.1346 269.799 93.2757 270.853 92.1841C272.27 90.3282 273.287 88.1994 273.839 85.932C274.39 83.6646 274.466 81.3076 274.06 79.0096Z" fill="#115444"/>
<path d="M149.094 67.2496C149.072 62.4556 149.984 57.7031 151.779 53.2563C133.357 66.5797 113.741 81.1312 112.66 83.0292C110.47 85.8503 107.482 87.9506 104.082 89.0582C104.539 90.2369 105.209 91.3218 106.059 92.2588C107.112 93.3504 108.383 94.2093 109.79 94.7798C111.197 95.3504 112.708 95.6199 114.226 95.571C115.179 95.573 116.129 95.4732 117.06 95.2733L155.62 87.4951C151.052 81.762 148.732 74.5652 149.094 67.2496Z" fill="#199675"/>
<path d="M224.536 48.5668C224.536 48.5668 217.898 40.1559 216.481 38.0718C215.405 37.155 214.127 36.5047 212.752 36.1738L214.653 37.8113C220.177 42.9976 223.811 49.8723 224.983 57.3498C225.871 64.6184 224.802 71.9917 221.888 78.7118C220.762 81.4996 219.428 84.1991 217.898 86.7877L259.441 95.1985C260.365 95.362 261.3 95.4492 262.238 95.459C263.756 95.5079 265.267 95.2383 266.674 94.6678C268.081 94.0973 269.352 93.2384 270.405 92.1468C271.21 91.2527 271.865 90.2347 272.344 89.1323C259.591 80.6842 224.536 48.5668 224.536 48.5668Z" fill="#199675"/>
<path d="M271.971 77.0744C270.554 59.8434 260.784 20.7293 255.153 13.2488C233.45 7.21737 211.04 4.08869 188.512 3.94482C165.983 4.08869 143.574 7.21737 121.871 13.2488C116.277 20.6921 106.469 59.8434 105.052 77.0744C103.635 94.3054 116.724 91.0676 116.724 91.0676L158.268 82.694C157.858 82.694 160.095 63.7138 160.617 61.7042C161.78 56.9553 163.816 52.463 166.621 48.4552C170.269 43.3839 175.779 39.9588 181.948 38.9279C197.611 36.3972 210.402 43.0589 215.511 58.5408C216.631 62.036 217.442 65.6225 217.935 69.259C217.935 70.5244 218.718 82.6568 218.793 82.694L260.336 91.0676C260.336 91.0676 273.351 94.3427 271.971 77.0744Z" fill="url(#paint26_linear_5191_5230)"/>
<path d="M188.512 3.94482C165.983 4.08869 143.574 7.21737 121.871 13.2488C119.739 16.7397 118.071 20.4929 116.911 24.4137C163.944 16.076 212.009 15.2845 259.292 22.0691C258.301 18.9392 256.909 15.9498 255.153 13.1744C233.446 7.1681 211.037 4.06445 188.512 3.94482Z" fill="#115444"/>
<path d="M256.794 23.4087C255.414 35.6156 249.335 55.3773 246.464 57.6475C243.592 59.9177 236.656 58.1685 236.656 58.1685C231.584 48.5668 230.018 19.3893 230.018 19.3893C239.453 17.6402 256.794 23.4087 256.794 23.4087Z" fill="#199675"/>
<path d="M247.433 20.8408C252.729 22.0317 256.794 23.4087 256.794 23.4087C255.414 35.6156 249.335 55.3773 246.464 57.6475L245.942 57.9825C246.426 54.2236 249.522 29.5122 247.433 20.8408Z" fill="url(#paint27_linear_5191_5230)"/>
<path d="M230.018 19.3895C233.095 18.9229 236.226 18.9229 239.304 19.3895C238.885 32.5358 239.42 45.6951 240.907 58.7641C239.476 58.6862 238.054 58.487 236.656 58.1686C231.584 48.5669 230.018 19.3895 230.018 19.3895Z" fill="#199675"/>
<path d="M256.98 20.4315C256.98 20.4315 249.82 16.9331 230.018 16.4121V19.5383C249.82 20.0593 256.98 23.5576 256.98 23.5576V20.4315Z" fill="url(#paint28_radial_5191_5230)"/>
<path d="M195 17.2682C196.71 16.692 198.471 16.2808 200.259 16.04C201.154 16.04 207.27 16.9332 207.27 16.9332L220.807 18.3474C220.807 18.3474 220.322 44.101 215.138 57.0894C214.031 53.9608 212.487 51.004 210.551 48.3064C206.901 43.2552 201.412 39.8344 195.262 38.7791C194.399 31.6391 194.311 24.4269 195 17.2682Z" fill="#199675"/>
<path d="M220.807 18.3476C220.807 18.3476 220.322 44.1011 215.138 57.0895C214.031 53.961 212.487 51.0041 210.551 48.3065L210.328 48.046C212.403 38.0004 213.539 27.7841 213.721 17.5288L220.807 18.3476Z" fill="url(#paint29_linear_5191_5230)"/>
<path d="M195 17.2682C196.71 16.692 198.471 16.2808 200.259 16.04C200.632 16.04 202.086 16.3005 203.578 16.4866C202.376 24.9794 202.376 33.5985 203.578 42.0913C200.991 40.4939 198.114 39.4191 195.112 38.9279C194.288 31.7334 194.251 24.4708 195 17.2682Z" fill="#199675"/>
<path d="M195 14.2911C203.657 14.135 212.316 14.5452 220.919 15.5192V18.6826C212.316 17.7086 203.657 17.2983 195 17.4544V14.2911Z" fill="url(#paint30_radial_5191_5230)"/>
<path d="M120.118 23.4087C121.498 35.6156 127.576 55.3773 130.448 57.6475C133.319 59.9177 140.256 58.1685 140.256 58.1685C145.327 48.5668 146.894 19.3893 146.894 19.3893C137.496 17.6402 120.118 23.4087 120.118 23.4087Z" fill="#199675"/>
<path d="M129.553 20.8408C124.257 22.0317 120.193 23.4087 120.193 23.4087C121.572 35.6156 127.651 55.3773 130.523 57.6475L131.045 57.9825C130.522 54.2236 127.576 29.5122 129.553 20.8408Z" fill="#199675"/>
<path d="M146.968 19.3895C143.891 18.9229 140.76 18.9229 137.683 19.3895C138.102 32.5358 137.566 45.6951 136.079 58.7641C137.51 58.6862 138.933 58.487 140.33 58.1686C145.402 48.5669 146.968 19.3895 146.968 19.3895Z" fill="url(#paint31_linear_5191_5230)"/>
<path d="M120.118 20.4315C120.118 20.4315 127.278 16.9331 147.08 16.4121V19.5383C127.278 20.0593 120.118 23.5576 120.118 23.5576V20.4315Z" fill="url(#paint32_radial_5191_5230)"/>
<path d="M181.986 17.2682C180.276 16.692 178.515 16.2808 176.727 16.04C175.87 16.04 169.716 16.9332 169.716 16.9332L156.254 18.4963C156.254 18.4963 156.739 44.2498 161.922 57.2382C163.029 54.1097 164.574 51.1528 166.509 48.4552C170.154 43.3981 175.646 39.9757 181.799 38.9279C182.648 31.7361 182.711 24.4735 181.986 17.2682Z" fill="#199675"/>
<path d="M156.254 18.3476C156.254 18.3476 156.739 44.1011 161.922 57.0895C163.029 53.961 164.574 51.0041 166.509 48.3065L166.733 48.046C164.658 38.0004 163.522 27.7841 163.34 17.5288L156.254 18.3476Z" fill="#199675"/>
<path d="M181.986 17.2682C180.276 16.692 178.515 16.2808 176.727 16.04C176.317 16.04 174.9 16.3005 173.408 16.4866C174.61 24.9794 174.61 33.5985 173.408 42.0913C175.995 40.4939 178.872 39.4191 181.874 38.9279C182.698 31.7334 182.735 24.4708 181.986 17.2682Z" fill="url(#paint33_linear_5191_5230)"/>
<path d="M181.986 14.2911C173.329 14.135 164.671 14.5452 156.068 15.5192V18.6826C164.671 17.7086 173.329 17.2983 181.986 17.4544V14.2911Z" fill="url(#paint34_radial_5191_5230)"/>
<path d="M184.261 7.18268C182.208 7.27834 180.206 7.84937 178.413 8.85057C176.621 9.85178 175.086 11.2557 173.931 12.9512L184.447 11.723C184.447 11.723 191.943 6.28949 184.261 7.18268ZM193.509 7.18268C185.789 6.32671 193.323 11.723 193.323 11.723L203.839 12.9512C202.677 11.2618 201.141 9.86242 199.35 8.86195C197.558 7.86148 195.559 7.28683 193.509 7.18268Z" fill="#D5D5D5"/>
<path d="M195.411 9.60168C195.411 11.8719 192.427 13.7327 188.698 13.7327C184.969 13.7327 182.023 11.8719 182.023 9.60168C182.023 7.3315 185.006 5.4707 188.698 5.4707C192.39 5.4707 195.411 7.18264 195.411 9.60168Z" fill="#909090"/>
<path d="M193.546 9.60179C193.546 11.2393 191.383 12.5791 188.698 12.5791C186.013 12.5791 183.888 11.2393 183.888 9.60179C183.888 7.96429 186.051 6.62451 188.698 6.62451C191.346 6.62451 193.546 7.96429 193.546 9.60179Z" fill="#404040"/>
<path d="M148.721 77.893C147.32 77.8874 145.958 77.432 144.837 76.5943C143.715 75.7565 142.893 74.5808 142.493 73.241C141.615 70.2211 141.398 67.0478 141.859 63.937C142.344 53.8514 147.155 51.1719 149.914 51.1719C150.821 51.1888 151.714 51.3889 152.541 51.7598C153.368 52.1308 154.111 52.6651 154.725 53.3304C155.906 54.8372 156.769 56.5668 157.262 58.4152C157.756 60.2636 157.87 62.1925 157.597 64.0859C157.074 76.4044 151.182 77.7442 148.684 77.7442L148.721 77.893Z" fill="#404040"/>
<path d="M145.738 71.7898C145.888 72.4734 146.263 73.087 146.804 73.5323C147.345 73.9776 148.02 74.229 148.721 74.2461C151.182 74.2461 153.793 71.9759 154.128 63.9372C154.464 55.8985 151.332 54.6704 149.952 54.6704C148.572 54.6704 145.738 56.7545 145.402 64.0861C145.066 71.4177 145.738 71.7898 145.738 71.7898Z" fill="#404040"/>
<path d="M145.402 71.8268C145.573 72.6644 146.049 73.4092 146.737 73.9177C147.426 74.4262 148.279 74.6624 149.131 74.5808C149.936 74.4761 150.701 74.1683 151.354 73.6864C152.006 73.2045 152.525 72.5645 152.86 71.8268C154.34 68.6171 154.933 65.0705 154.576 61.5552C154.655 59.198 153.813 56.9023 152.226 55.154C149.206 52.4745 146.633 56.6427 145.849 59.1734C144.991 62.6522 144.727 66.2505 145.066 69.8172C145.066 70.301 145.066 71.7152 145.588 72.0501C146.11 72.3851 146.409 71.7524 146.036 71.5291C145.894 71.0314 145.806 70.5198 145.775 70.0033C145.563 67.2603 145.651 64.5025 146.036 61.7785C146.297 59.62 147.751 53.8143 151.108 55.2657C151.811 55.7004 152.407 56.2873 152.853 56.983C153.298 57.6787 153.581 58.4654 153.681 59.285C154.172 62.2761 154.084 65.3336 153.42 68.2913C153.181 70.2768 152.178 72.0918 150.623 73.3527C150.243 73.6124 149.806 73.7771 149.349 73.833C148.892 73.8888 148.428 73.8342 147.997 73.6736C147.565 73.5131 147.179 73.2513 146.87 72.9105C146.561 72.5696 146.339 72.1597 146.222 71.7152C145.999 71.3058 145.29 71.3802 145.402 71.8268Z" fill="black"/>
<path d="M145.999 56.0101C145.999 56.1878 145.928 56.3582 145.802 56.4838C145.676 56.6094 145.506 56.68 145.327 56.68C145.156 56.6705 144.995 56.5957 144.877 56.4711C144.759 56.3465 144.693 56.1815 144.693 56.0101C144.702 55.8452 144.772 55.6894 144.889 55.5727C145.006 55.4559 145.162 55.3864 145.327 55.3774C145.499 55.3772 145.665 55.4426 145.789 55.5603C145.914 55.678 145.989 55.839 145.999 56.0101Z" fill="#909090"/>
<path d="M155.322 56.0101C155.322 56.1878 155.251 56.3582 155.125 56.4838C154.999 56.6094 154.829 56.68 154.65 56.68C154.479 56.6705 154.318 56.5957 154.2 56.4711C154.082 56.3465 154.016 56.1815 154.016 56.0101C154.025 55.8452 154.095 55.6894 154.212 55.5727C154.329 55.4559 154.485 55.3864 154.65 55.3774C154.822 55.3772 154.988 55.4426 155.112 55.5603C155.237 55.678 155.312 55.839 155.322 56.0101Z" fill="#909090"/>
<path d="M144.134 63.8257C144.134 64.0033 144.063 64.1737 143.937 64.2993C143.812 64.425 143.641 64.4955 143.463 64.4955C143.285 64.4955 143.114 64.425 142.988 64.2993C142.862 64.1737 142.792 64.0033 142.792 63.8257C142.792 63.648 142.862 63.4776 142.988 63.352C143.114 63.2263 143.285 63.1558 143.463 63.1558C143.641 63.1558 143.812 63.2263 143.937 63.352C144.063 63.4776 144.134 63.648 144.134 63.8257Z" fill="#909090"/>
<path d="M156.552 63.8256C156.552 63.9135 156.535 64.0006 156.501 64.0819C156.467 64.1632 156.418 64.237 156.356 64.2992C156.293 64.3614 156.219 64.4108 156.138 64.4444C156.057 64.4781 155.969 64.4954 155.881 64.4954C155.71 64.4859 155.548 64.4112 155.43 64.2866C155.312 64.1619 155.247 63.997 155.247 63.8256C155.256 63.6607 155.326 63.5049 155.443 63.3881C155.56 63.2713 155.716 63.2018 155.881 63.1929C156.053 63.1926 156.218 63.2581 156.343 63.3757C156.468 63.4934 156.543 63.6544 156.552 63.8256Z" fill="#909090"/>
<path d="M144.395 72.0503C144.395 72.1828 144.356 72.3123 144.282 72.4224C144.208 72.5326 144.103 72.6185 143.981 72.6692C143.858 72.7199 143.723 72.7331 143.593 72.7073C143.463 72.6814 143.343 72.6176 143.249 72.5239C143.155 72.4303 143.091 72.3109 143.066 72.1809C143.04 72.051 143.053 71.9163 143.104 71.7939C143.154 71.6715 143.241 71.5669 143.351 71.4933C143.461 71.4197 143.591 71.3804 143.724 71.3804C143.902 71.3804 144.073 71.4509 144.198 71.5766C144.324 71.7022 144.395 71.8726 144.395 72.0503Z" fill="#909090"/>
<path d="M154.986 72.0503C154.986 72.1828 154.947 72.3123 154.873 72.4224C154.799 72.5326 154.694 72.6185 154.572 72.6692C154.449 72.7199 154.314 72.7331 154.184 72.7073C154.054 72.6814 153.934 72.6176 153.84 72.5239C153.746 72.4303 153.682 72.3109 153.656 72.1809C153.631 72.051 153.644 71.9163 153.695 71.7939C153.745 71.6715 153.832 71.5669 153.942 71.4933C154.052 71.4197 154.182 71.3804 154.315 71.3804C154.493 71.3804 154.664 71.4509 154.789 71.5766C154.915 71.7022 154.986 71.8726 154.986 72.0503Z" fill="#909090"/>
<path d="M120.938 131.373C118.949 131.408 116.964 131.157 115.046 130.628C114.241 130.372 113.496 129.956 112.856 129.406C112.215 128.856 111.692 128.184 111.317 127.428C110.459 125.716 106.581 116.04 114.002 92.6681C114.262 91.8606 114.683 91.1142 115.241 90.4744C115.799 89.8346 116.481 89.3148 117.246 88.9465C129.535 83.6539 142.796 80.9794 156.179 81.0939C157.013 81.0938 157.839 81.2589 158.609 81.5796C159.378 81.9004 160.076 82.3703 160.662 82.9622C161.249 83.5542 161.711 84.2564 162.024 85.028C162.336 85.7997 162.492 86.6256 162.482 87.4578C162.482 91.5888 161.773 112.653 153.233 120.617C145.775 127.651 129.702 131.41 121.05 131.41L120.938 131.373Z" fill="#199675"/>
<path d="M120.715 121.585C125.264 120.171 120.715 95.0126 120.715 95.0126C118.763 93.6014 116.941 92.0197 115.27 90.2861C114.628 90.96 114.155 91.7763 113.89 92.668C106.432 116.04 110.347 125.716 111.205 127.428C111.646 128.273 112.271 129.011 113.032 129.586C114.039 127.725 117.023 122.552 120.715 121.585Z" fill="url(#paint35_linear_5191_5230)"/>
<path d="M160.543 82.9175C157.994 85.3231 155.695 87.9788 153.681 90.8445C151.166 94.2339 148.332 97.3744 145.216 100.223L148.721 114.551C150.664 116.061 152.406 117.812 153.905 119.761C161.699 111.276 162.333 91.3655 162.37 87.3834C162.375 86.5556 162.216 85.735 161.902 84.9687C161.589 84.2023 161.127 83.5052 160.543 82.9175Z" fill="#115444"/>
<path d="M119.894 94.5661C131.326 89.7037 143.641 87.2459 156.068 87.3462C156.068 87.3462 155.844 109.453 148.833 116.003C141.822 122.553 123.139 126.46 116.836 124.599C116.836 124.599 112.883 116.672 119.894 94.5661Z" fill="#252525"/>
<path d="M155.322 96.0919C154.8 95.0126 154.24 93.9334 153.718 92.8913C154.24 91.8121 154.8 90.7328 155.322 89.6907L155.918 90.9189C155.918 88.7231 155.918 87.1973 155.918 87.1973H154.016L154.389 87.9416C153.867 89.0209 153.345 90.1001 152.786 91.1794L151.22 87.9416C151.341 87.7418 151.441 87.5297 151.518 87.3089H149.392L149.653 87.8299C149.131 88.9092 148.609 89.9885 148.05 91.0677L146.484 87.8299V87.5322L144.693 87.7183L143.127 90.9561C142.605 89.9512 142.158 88.9836 141.673 88.016L139.659 88.3137C139.249 89.1697 138.839 90.0257 138.391 90.8817L137.347 88.7603L134.438 89.3558L133.655 90.8817L133.058 89.6907L131.679 90.0257L132.872 92.4447L131.306 95.6825L129.702 92.4447L130.821 90.249L128.994 90.77L127.651 91.1794L128.248 92.4075L126.681 95.6453C126.159 94.5661 125.637 93.4868 125.078 92.4075C125.179 92.2543 125.266 92.0924 125.339 91.9237L123.437 92.5936L121.945 95.6453L120.938 93.5612L119.633 94.1567C120.155 95.1615 120.677 96.1663 121.162 97.2084L119.596 100.409C119.186 99.6274 118.813 98.8831 118.44 98.1016L117.88 100.148C118.179 100.781 118.514 101.377 118.813 101.972C118.253 103.051 117.731 104.131 117.209 105.173L116.874 104.503C116.351 106.996 116.016 109.229 115.792 111.202C116.277 110.271 116.724 109.304 117.209 108.336C117.731 109.415 118.291 110.457 118.813 111.537L117.209 114.737L115.718 111.76C115.718 112.727 115.717 113.621 115.531 114.477L116.426 116.337C116.128 116.933 115.829 117.566 115.494 118.198C115.158 118.831 115.494 120.096 115.755 120.841L117.209 117.901C117.731 118.98 118.291 120.022 118.813 121.101C118.253 122.18 117.731 123.26 117.209 124.339C117.673 124.459 118.148 124.533 118.626 124.562L119.596 122.664C119.894 123.334 120.23 124.004 120.565 124.674H123.4C123.698 124.041 123.996 123.409 124.332 122.776C124.593 123.334 124.854 123.93 125.152 124.488L126.607 124.264C126.122 123.26 125.6 122.255 125.078 121.213C125.637 120.133 126.159 119.091 126.681 118.012L128.248 121.213C127.763 122.218 127.278 123.26 126.756 124.264L128.471 123.967L129.031 122.776C129.217 123.111 129.366 123.446 129.516 123.781L130.933 123.483L129.814 121.213C130.336 120.133 130.895 119.091 131.417 118.012L132.984 121.213C132.685 121.883 132.35 122.553 132.014 123.222C133.058 122.962 134.103 122.701 135.147 122.366C134.923 121.994 134.736 121.585 134.55 121.213C135.072 120.133 135.631 119.091 136.154 118.012L137.72 121.213L137.533 121.585L139.435 120.915L140.89 118.012C141.188 118.645 141.486 119.278 141.822 119.91L143.09 119.315L141.673 116.449L143.239 113.211L144.843 116.449L143.5 119.091C144.626 118.524 145.71 117.877 146.745 117.156L146.409 116.449L147.975 113.211L148.982 115.258C149.334 114.886 149.658 114.488 149.952 114.067C149.541 113.286 149.168 112.467 148.758 111.648L150.325 108.485L151.63 111.127C151.854 110.569 152.115 110.011 152.338 109.378L151.108 106.922L152.674 103.721L153.532 105.433C153.718 104.726 153.867 104.019 154.016 103.275L153.457 102.158L154.688 99.6646C154.949 98.176 155.135 96.7246 155.247 95.3848C155.253 95.6221 155.278 95.8586 155.322 96.0919ZM150.586 89.6907L152.152 92.8913L150.586 96.0919L148.982 92.8913C149.504 91.8121 149.952 90.7328 150.586 89.6907ZM149.952 97.655C149.43 98.7343 148.908 99.8135 148.348 100.856L146.782 97.655L148.348 94.4544C148.758 95.5337 149.28 96.5013 149.952 97.655ZM147.602 102.456L146.036 105.582C145.477 104.54 144.954 103.461 144.432 102.381L145.999 99.2553L147.602 102.456ZM145.999 89.6907L147.602 92.8913C147.043 93.9334 146.521 95.0126 145.999 96.0919C145.477 95.0126 144.955 93.9334 144.395 92.8913L145.999 89.6907ZM145.216 97.655L143.649 100.818L142.083 97.6178L143.649 94.4544L145.216 97.655ZM134.96 102.381C135.482 101.339 136.042 100.26 136.564 99.1808L138.13 102.381L136.564 105.582C135.893 104.54 135.333 103.461 134.811 102.381H134.96ZM135.781 107.182L134.177 110.383L132.611 107.182L134.177 103.982C134.587 105.024 135.035 106.103 135.631 107.182H135.781ZM138.764 103.944C139.286 104.987 139.845 106.066 140.368 107.145L138.764 110.346L137.198 107.145L138.764 103.944ZM139.547 102.344C140.069 101.302 140.629 100.223 141.151 99.1436L142.717 102.344L141.151 105.545L139.547 102.344ZM141.113 89.6535L142.717 92.8541L141.151 96.0175L139.547 92.7797L141.113 89.6535ZM140.368 97.5806C139.845 98.6598 139.286 99.7019 138.764 100.781L137.198 97.5806L138.764 94.38C139.286 95.4592 139.845 96.5013 140.368 97.6178V97.5806ZM136.415 89.5791L137.981 92.7797L136.415 96.0175L134.811 92.7797C135.333 91.7748 135.893 90.6956 136.415 89.6163V89.5791ZM134.028 94.38C134.587 95.422 135.109 96.5013 135.631 97.5806L134.028 100.781L132.462 97.5806L134.028 94.38ZM133.245 102.344L131.679 105.545C131.156 104.503 130.597 103.423 130.075 102.344L131.679 99.1436L133.245 102.344ZM130.895 107.145C130.373 108.187 129.851 109.266 129.292 110.346L127.726 107.145L129.292 103.944C129.851 105.024 130.373 106.103 130.895 107.182V107.145ZM129.292 94.38C129.851 95.422 130.373 96.5013 130.895 97.5806C130.373 98.6598 129.851 99.7019 129.292 100.781L127.576 97.6178L129.292 94.38ZM128.509 102.344L126.942 105.545C126.42 104.503 125.898 103.423 125.339 102.344L126.942 99.1436L128.509 102.344ZM122.989 107.145C123.511 106.066 124.034 104.987 124.593 103.944L126.159 107.145L124.593 110.346L122.989 107.145ZM123.81 111.909C123.25 112.988 122.728 114.067 122.206 115.109L120.603 111.909C121.162 110.829 121.684 109.787 122.206 108.708C122.728 109.825 123.25 110.867 123.847 111.946L123.81 111.909ZM124.593 94.38L126.159 97.5806L124.593 100.781L122.989 97.5806L124.593 94.38ZM122.206 99.1436C122.728 100.223 123.25 101.302 123.81 102.344C123.25 103.423 122.728 104.503 122.206 105.545L120.603 102.344C121.162 101.339 121.684 100.223 122.206 99.1808V99.1436ZM118.253 107.145C118.775 106.066 119.298 104.987 119.857 103.944L121.423 107.145L119.857 110.346C119.298 109.304 118.775 108.224 118.253 107.182V107.145ZM118.253 116.71C118.775 115.63 119.298 114.551 119.857 113.472L121.423 116.71L119.857 119.91C119.298 118.831 118.775 117.789 118.253 116.747V116.71ZM122.206 124.674L120.603 121.473C121.162 120.394 121.684 119.352 122.206 118.273L123.81 121.473C123.25 122.553 122.728 123.632 122.206 124.711V124.674ZM124.593 119.91L122.989 116.71C123.511 115.63 124.034 114.551 124.593 113.472L126.159 116.71L124.593 119.91ZM125.339 111.909C125.898 110.829 126.42 109.787 126.942 108.708L128.509 111.909L126.942 115.109C126.42 114.104 125.898 113.025 125.339 111.946V111.909ZM129.292 119.91L127.726 116.71L129.292 113.472C129.851 114.551 130.373 115.63 130.895 116.71C130.373 117.789 129.851 118.831 129.292 119.947V119.91ZM130.075 111.909C130.597 110.829 131.156 109.787 131.679 108.708L133.245 111.909L131.679 115.109C131.306 114.104 130.597 113.025 130.075 111.946V111.909ZM134.028 119.91L132.462 116.71L134.028 113.472C134.587 114.551 135.109 115.63 135.631 116.71L134.028 119.91ZM134.811 111.909C135.333 110.829 135.893 109.787 136.415 108.708L137.981 111.909L136.415 115.109C135.893 114.104 135.333 113.025 134.811 111.946V111.909ZM138.764 119.947L137.198 116.747L138.764 113.509L140.368 116.747C139.845 117.789 139.286 118.831 138.764 119.947ZM141.151 115.147L139.547 111.946C140.069 110.867 140.629 109.825 141.151 108.745L142.717 111.946L141.151 115.147ZM143.5 110.383L141.934 107.182L143.5 103.982C144.022 105.024 144.582 106.103 145.104 107.182L143.5 110.383ZM145.887 115.147C145.327 114.104 144.805 113.025 144.283 111.946C144.805 110.867 145.327 109.825 145.887 108.745L147.453 111.946L145.887 115.147ZM148.236 110.383L146.67 107.182C147.155 106.14 147.677 105.061 148.199 104.019C148.758 105.098 149.28 106.14 149.802 107.22L148.236 110.383ZM150.586 105.656L148.982 102.456C149.504 101.377 150.064 100.297 150.586 99.2553L152.152 102.456L150.586 105.656ZM152.935 100.856L151.369 97.655L152.935 94.4544L154.539 97.655C154.017 98.7343 153.681 99.8135 152.935 100.856Z" fill="#909090"/>
<path d="M95.7289 31.9687C95.7013 31.8142 95.6404 31.6676 95.5502 31.539C95.46 31.4105 95.3428 31.3031 95.2068 31.2244C95.0476 31.185 94.8812 31.185 94.722 31.2244C94.5751 31.1881 94.4215 31.1881 94.2745 31.2244L90.7691 33.0852C78.0984 39.7626 66.076 47.5992 54.8567 56.4941C51.4101 59.3788 48.7904 63.123 47.2642 67.3458C45.738 71.5687 45.3597 76.1195 46.1677 80.5357C46.5208 82.8707 47.1466 85.1564 48.0323 87.3462C48.1124 87.5255 48.2433 87.6774 48.409 87.7833C48.5747 87.8891 48.7679 87.9442 48.9646 87.9417C58.8843 87.3462 66.7156 78.0422 77.5303 65.091L83.348 58.206C87.8507 53.2422 91.459 47.5385 94.0135 41.3472C95.2947 38.3925 95.8814 35.1845 95.7289 31.9687Z" fill="#1F1F1F"/>
<path d="M82.8258 57.5735C87.2415 52.6845 90.7744 47.0686 93.2676 40.9751C80.9612 45.8132 60.5997 72.6832 56.6468 78.1912C54.4507 81.3524 51.9529 84.2938 49.1884 86.9742C60.0777 86.3043 68.9159 73.5764 82.8258 57.5735Z" fill="#DBDBDB"/>
<path d="M47.3237 80.4241C47.6409 82.6741 48.2423 84.875 49.1137 86.9742C51.8783 84.2938 54.3761 81.3524 56.5721 78.1912C60.5251 72.7204 80.8866 45.8504 93.193 40.9751C94.4173 38.1875 94.9911 35.1589 94.8712 32.1177C94.8712 32.1177 93.5287 32.7876 91.3657 33.9785C48.6289 60.4763 47.3237 80.4241 47.3237 80.4241Z" fill="#808080"/>
<path d="M47.1745 80.3866C47.1745 80.3866 48.4797 60.4388 91.1046 33.9409C78.475 40.551 66.5006 48.339 55.3415 57.201C52.0475 59.9998 49.5561 63.6204 48.1214 67.6934C46.6867 71.7665 46.3599 76.1464 47.1745 80.3866Z" fill="#DBDBDB"/>
<path d="M56.4603 78.7864C63.8709 68.583 71.9565 58.8852 80.663 49.7579C82.2562 47.2878 83.5813 44.6554 84.6159 41.9053C84.6159 41.9053 66.6038 50.0556 59.0708 57.2383C51.5378 64.421 46.9881 80.4239 56.4603 78.7864Z" fill="#404040"/>
<path d="M63.3967 67.0632C60.7863 71.2686 57.1316 73.7621 55.1924 72.5712C53.2532 71.3803 53.8126 67.026 56.4231 62.7834C59.0335 58.5407 62.6881 56.0845 64.6273 57.2754C66.5665 58.4663 66.0072 63.0067 63.3967 67.0632Z" fill="#BFBFBF"/>
<path d="M73.2045 54.4099C71.489 56.0474 69.4752 56.7545 68.7294 55.973C67.9835 55.1914 68.7294 53.2562 70.5194 51.6187C72.3094 49.9812 74.2486 49.2741 74.9944 50.0184C75.7403 50.7627 74.9572 52.7724 73.2045 54.4099Z" fill="#808080"/>
<path d="M229.16 77.8931C230.541 77.8916 231.886 77.4556 233.004 76.6471C234.122 75.8387 234.956 74.6989 235.388 73.3899C236.227 70.3628 236.431 67.1951 235.985 64.0859C235.537 54.0004 230.726 51.3208 227.929 51.3208C227.023 51.3378 226.13 51.5378 225.303 51.9088C224.476 52.2797 223.733 52.814 223.119 53.4793C221.938 54.9861 221.075 56.7157 220.581 58.5641C220.088 60.4125 219.974 62.3414 220.247 64.2348C220.807 76.4044 226.662 77.8931 229.16 77.8931Z" fill="#404040"/>
<path d="M231.994 71.7898C231.844 72.4734 231.469 73.087 230.928 73.5323C230.387 73.9776 229.712 74.229 229.011 74.2461C226.587 74.2461 223.939 71.9759 223.604 63.9372C223.268 55.8985 226.4 54.6704 227.78 54.6704C229.16 54.6704 231.994 56.7545 232.33 64.0861C232.666 71.4177 231.994 71.7898 231.994 71.7898Z" fill="#404040"/>
<path d="M232.479 71.8268C232.316 72.6684 231.842 73.4183 231.152 73.9282C230.461 74.4381 229.604 74.671 228.75 74.5808C227.945 74.4761 227.18 74.1683 226.527 73.6864C225.875 73.2045 225.356 72.5645 225.021 71.8268C223.552 68.6141 222.972 65.0672 223.342 61.5552C223.233 59.2 224.064 56.8976 225.655 55.154C228.675 52.4745 231.248 56.6427 232.032 59.1734C232.89 62.6522 233.154 66.2505 232.815 69.8172C232.815 70.301 232.815 71.7152 232.293 72.0501C231.771 72.3851 231.472 71.7524 231.845 71.5291C231.987 71.0314 232.075 70.5198 232.106 70.0033C232.318 67.2603 232.231 64.5025 231.845 61.7785C231.584 59.62 230.167 53.8143 226.773 55.2657C226.132 55.7352 225.601 56.3375 225.214 57.0312C224.828 57.7249 224.597 58.4938 224.536 59.285C224.044 62.2761 224.133 65.3336 224.797 68.2913C225.036 70.2768 226.039 72.0918 227.594 73.3527C227.974 73.6124 228.411 73.7771 228.868 73.833C229.325 73.8888 229.788 73.8342 230.22 73.6736C230.651 73.5131 231.038 73.2513 231.347 72.9105C231.655 72.5696 231.878 72.1597 231.994 71.7152C231.994 71.3058 232.591 71.3802 232.479 71.8268Z" fill="black"/>
<path d="M231.994 56.0101C231.994 56.1878 232.065 56.3582 232.191 56.4838C232.317 56.6094 232.488 56.68 232.666 56.68C232.837 56.6705 232.998 56.5957 233.116 56.4711C233.234 56.3465 233.3 56.1815 233.3 56.0101C233.291 55.8452 233.221 55.6894 233.104 55.5727C232.987 55.4559 232.831 55.3864 232.666 55.3774C232.494 55.3772 232.329 55.4426 232.204 55.5603C232.079 55.678 232.004 55.839 231.994 56.0101Z" fill="#909090"/>
<path d="M222.559 56.0101C222.559 56.1878 222.63 56.3582 222.756 56.4838C222.882 56.6094 223.053 56.68 223.231 56.68C223.402 56.6705 223.564 56.5957 223.681 56.4711C223.799 56.3465 223.865 56.1815 223.865 56.0101C223.856 55.8452 223.786 55.6894 223.669 55.5727C223.552 55.4559 223.396 55.3864 223.231 55.3774C223.059 55.3772 222.894 55.4426 222.769 55.5603C222.644 55.678 222.569 55.839 222.559 56.0101Z" fill="#909090"/>
<path d="M233.747 63.8257C233.747 64.0033 233.818 64.1737 233.944 64.2993C234.07 64.425 234.241 64.4955 234.419 64.4955C234.597 64.4955 234.767 64.425 234.893 64.2993C235.019 64.1737 235.09 64.0033 235.09 63.8257C235.09 63.648 235.019 63.4776 234.893 63.352C234.767 63.2263 234.597 63.1558 234.419 63.1558C234.241 63.1558 234.07 63.2263 233.944 63.352C233.818 63.4776 233.747 63.648 233.747 63.8257Z" fill="#909090"/>
<path d="M221.329 63.8257C221.329 64.0033 221.4 64.1737 221.526 64.2993C221.651 64.425 221.822 64.4955 222 64.4955C222.178 64.4955 222.349 64.425 222.475 64.2993C222.601 64.1737 222.671 64.0033 222.671 63.8257C222.671 63.648 222.601 63.4776 222.475 63.352C222.349 63.2263 222.178 63.1558 222 63.1558C221.822 63.1558 221.651 63.2263 221.526 63.352C221.4 63.4776 221.329 63.648 221.329 63.8257Z" fill="#909090"/>
<path d="M233.523 72.0503C233.518 72.1364 233.531 72.2227 233.561 72.3038C233.59 72.3849 233.636 72.4591 233.695 72.5219C233.755 72.5846 233.826 72.6346 233.906 72.6687C233.985 72.7028 234.071 72.7203 234.157 72.7202C234.335 72.7202 234.506 72.6496 234.632 72.5239C234.758 72.3983 234.829 72.2279 234.829 72.0503C234.829 71.8726 234.758 71.7022 234.632 71.5766C234.506 71.4509 234.335 71.3804 234.157 71.3804C234.071 71.3802 233.985 71.3977 233.906 71.4318C233.826 71.4659 233.755 71.5159 233.695 71.5786C233.636 71.6414 233.59 71.7156 233.561 71.7967C233.531 71.8778 233.518 71.9641 233.523 72.0503Z" fill="#909090"/>
<path d="M222.895 72.0503C222.895 72.1828 222.935 72.3123 223.008 72.4224C223.082 72.5326 223.187 72.6185 223.31 72.6692C223.432 72.7199 223.567 72.7331 223.697 72.7073C223.828 72.6814 223.947 72.6176 224.041 72.5239C224.135 72.4303 224.199 72.3109 224.225 72.1809C224.251 72.051 224.237 71.9163 224.187 71.7939C224.136 71.6715 224.05 71.5669 223.939 71.4933C223.829 71.4197 223.699 71.3804 223.566 71.3804C223.388 71.3804 223.218 71.4509 223.092 71.5766C222.966 71.7022 222.895 71.8726 222.895 72.0503Z" fill="#909090"/>
<path d="M256.943 131.373C258.933 131.408 260.917 131.157 262.835 130.628C263.643 130.378 264.39 129.964 265.032 129.414C265.673 128.863 266.195 128.187 266.564 127.428C267.422 125.716 271.3 116.04 263.916 92.6681C263.645 91.8611 263.215 91.1164 262.651 90.4773C262.088 89.8383 261.402 89.3179 260.635 88.9465C248.346 83.6539 235.086 80.9794 221.702 81.0939C220.868 81.0938 220.042 81.2589 219.273 81.5796C218.503 81.9004 217.805 82.3703 217.219 82.9622C216.632 83.5542 216.17 84.2564 215.858 85.028C215.545 85.7997 215.389 86.6256 215.399 87.4578C215.399 91.5888 216.108 112.653 224.648 120.617C232.106 127.651 248.179 131.41 256.831 131.41L256.943 131.373Z" fill="#199675"/>
<path d="M257.167 121.585C252.617 120.171 257.167 95.0126 257.167 95.0126C259.127 93.612 260.95 92.0294 262.611 90.2861C263.251 90.9681 263.735 91.7808 264.028 92.668C271.487 116.04 267.534 125.716 266.676 127.428C266.247 128.282 265.621 129.021 264.849 129.586C263.842 127.725 260.859 122.552 257.167 121.585Z" fill="url(#paint36_linear_5191_5230)"/>
<path d="M217.339 82.9175C219.913 85.3223 222.226 87.9918 224.238 90.8817C226.742 94.2565 229.564 97.3844 232.666 100.223L229.16 114.551C227.218 116.061 225.476 117.812 223.977 119.761C216.183 111.276 215.549 91.3655 215.511 87.3834C215.507 86.5556 215.665 85.735 215.979 84.9687C216.293 84.2023 216.755 83.5052 217.339 82.9175Z" fill="#115444"/>
<path d="M258.099 94.5661C246.667 89.7037 234.352 87.2459 221.926 87.3462C221.926 87.3462 222.149 109.453 229.16 116.003C236.171 122.553 254.855 126.46 261.157 124.599C261.045 124.599 264.998 116.672 258.099 94.5661Z" fill="#252525"/>
<path d="M222.373 95.6826C222.373 97.0224 222.709 98.4739 222.932 99.9625L224.163 102.456L223.604 103.572C223.604 104.317 223.902 105.024 224.089 105.731C224.387 105.173 224.648 104.577 224.946 104.019L226.513 107.22L225.319 109.676C225.543 110.309 225.767 110.867 225.99 111.425C226.438 110.532 226.885 109.676 227.296 108.783L228.862 111.946C228.452 112.765 228.079 113.584 227.669 114.365C227.962 114.785 228.286 115.184 228.638 115.556L229.645 113.509C230.167 114.588 230.689 115.668 231.249 116.747C231.102 116.97 230.977 117.207 230.876 117.454C231.91 118.175 232.994 118.822 234.12 119.389L232.778 116.747C233.337 115.668 233.859 114.588 234.381 113.509C234.903 114.588 235.425 115.668 235.985 116.747L234.53 119.613L235.798 120.208C236.134 119.575 236.432 118.943 236.731 118.31L238.185 121.213L240.087 121.883V121.511L241.653 118.31C242.213 119.389 242.735 120.431 243.257 121.511C243.07 121.883 242.884 122.292 242.66 122.664C243.704 122.999 244.748 123.26 245.793 123.52L244.823 121.511L246.389 118.31C246.949 119.389 247.471 120.431 247.993 121.511L246.874 123.781L248.291 124.079C248.291 123.744 248.589 123.409 248.776 123.074L249.335 124.265L251.051 124.562L249.559 121.511L251.125 118.31L252.729 121.511L251.2 124.562L252.654 124.786C252.953 124.227 253.214 123.632 253.512 123.074L254.407 124.972H257.241L258.248 122.962C258.546 123.595 258.845 124.227 259.18 124.86C259.671 124.828 260.157 124.753 260.635 124.637L258.994 121.399L260.597 118.198L262.052 121.138C262.052 120.394 262.052 119.501 262.313 118.496C262.574 117.491 261.679 117.231 261.381 116.635L262.276 114.774C262.276 113.919 262.276 113.025 262.089 112.058L260.597 115.035L258.994 111.834L260.597 108.634L262.015 111.499C261.791 109.527 261.455 107.294 260.933 104.801L260.597 105.47L258.994 102.27C259.33 101.674 259.628 101.079 259.926 100.446L259.367 98.3994L258.248 100.707L256.644 97.5062L258.174 94.4545C257.753 94.2256 257.317 94.0267 256.868 93.8591L255.861 95.9432C255.377 94.9011 254.855 93.8963 254.37 92.8914L252.468 92.2215L252.729 92.7054L251.125 95.9432L249.559 92.7054L250.156 91.4772L248.813 91.0679L247.023 90.5468C247.359 91.2912 247.732 92.0355 248.105 92.7426C247.583 93.8218 247.061 94.9011 246.501 95.9804L244.935 92.7426C245.345 91.961 245.718 91.1423 246.128 90.3235L244.748 89.9886L244.152 91.1795C243.891 90.6585 243.63 90.1747 243.406 89.6536L240.46 89.0582L239.416 91.1795L238.148 88.6116L236.171 88.3139L234.717 91.2539C234.157 90.1747 233.635 89.0954 233.113 88.0161L231.323 87.83C231.33 87.9292 231.33 88.0287 231.323 88.1278L229.757 91.3656L228.153 88.1278L228.414 87.6068H226.289C226.365 87.8276 226.465 88.0396 226.587 88.2394L225.021 91.4772L223.417 88.2394C223.564 88.003 223.689 87.7539 223.79 87.4951H221.888C221.888 87.4951 221.888 88.8721 221.888 91.2167C222.112 90.8073 222.299 90.398 222.485 89.9886C223.044 91.0306 223.566 92.1099 224.089 93.1892L222.485 96.3898C222.511 96.1483 222.472 95.9044 222.373 95.6826ZM228.899 92.8914L227.296 96.092L225.729 92.8914L227.296 89.6909L228.899 92.8914ZM229.682 94.4545L231.249 97.6551L229.682 100.856L228.079 97.6551L229.682 94.4545ZM232.032 99.2554L233.598 102.382C233.076 103.461 232.554 104.54 231.994 105.582C231.51 104.54 230.988 103.498 230.466 102.456L232.032 99.2554ZM233.635 92.8914C233.113 93.9335 232.554 95.0128 232.032 96.092L230.466 92.8914L232.032 89.6909L233.635 92.8914ZM234.419 94.4545L235.985 97.6179C235.425 98.6971 234.903 99.7392 234.381 100.818L232.815 97.6551L234.419 94.4545ZM241.467 105.619L239.9 102.419L241.467 99.2182C242.026 100.297 242.548 101.377 243.07 102.419C242.548 103.461 242.026 104.54 241.467 105.582V105.619ZM243.853 104.019L245.42 107.22L243.853 110.42L242.25 107.22L243.853 104.019ZM240.684 107.22L239.117 110.42L237.514 107.22L239.117 104.019L240.684 107.22ZM236.731 105.619L235.164 102.419L236.731 99.2182L238.334 102.419C237.812 103.461 237.29 104.54 236.731 105.582V105.619ZM238.334 92.7798C237.812 93.8591 237.29 94.9383 236.731 96.0176C236.209 94.9383 235.724 93.8963 235.202 92.8542L236.768 89.6536L238.334 92.7798ZM239.117 94.3801L240.684 97.5807L239.117 100.781L237.514 97.5807L239.117 94.3801ZM243.182 92.7798C242.66 93.8591 242.138 94.9383 241.579 96.0176L240.012 92.7798L241.579 89.5792C242.026 90.6957 242.548 91.775 243.182 92.7798ZM245.531 97.5807L243.965 100.781L242.362 97.5807L243.965 94.3801L245.531 97.5807ZM246.315 99.1437C246.874 100.223 247.396 101.302 247.918 102.344C247.396 103.424 246.874 104.503 246.315 105.545L244.748 102.344L246.315 99.1437ZM248.701 103.945L250.268 107.145L248.701 110.346L247.098 107.145C247.508 106.103 248.067 105.024 248.589 103.945H248.701ZM250.268 97.5807L248.701 100.781C248.179 99.702 247.62 98.6599 247.098 97.5807C247.62 96.5014 248.179 95.4221 248.701 94.3801L250.268 97.5807ZM251.051 99.1437L252.654 102.344L251.051 105.545L249.484 102.344L251.051 99.1437ZM253.437 110.309L251.834 107.108C252.356 106.029 252.878 104.949 253.437 103.907L255.004 107.108L253.437 110.309ZM255.787 108.671L257.39 111.872L255.787 115.072L254.221 111.872L255.787 108.671ZM255.004 97.5062L253.437 100.707L251.834 97.5062C252.356 96.427 252.878 95.3477 253.437 94.3057L255.004 97.5062ZM257.39 102.27L255.787 105.47L254.221 102.27L255.787 99.0693C256.197 100.223 256.719 101.339 257.279 102.382L257.39 102.27ZM258.174 110.271L256.57 107.071C257.092 105.992 257.614 104.912 258.174 103.87L259.74 107.071L258.174 110.271ZM258.174 119.836L256.57 116.635C257.092 115.556 257.614 114.477 258.174 113.398L259.74 116.635L258.174 119.836ZM254.221 121.399L255.787 118.198L257.39 121.399L255.787 124.6L254.221 121.399ZM251.834 116.635C252.356 115.556 252.878 114.477 253.437 113.398L255.004 116.635L253.437 119.836L251.834 116.635ZM251.051 115.035L249.484 111.834L251.051 108.634L252.654 111.834L251.051 115.035ZM247.098 116.635L248.701 113.398L250.268 116.635L248.701 119.836L247.098 116.635ZM246.315 115.035L244.748 111.834L246.315 108.634C246.874 109.713 247.396 110.755 247.918 111.834C247.284 113.025 246.911 114.105 246.203 115.109L246.315 115.035ZM242.362 116.635L243.965 113.398L245.531 116.635L243.965 119.836L242.362 116.635ZM241.579 115.035L240.012 111.834L241.579 108.634C242.138 109.713 242.66 110.755 243.182 111.834C242.548 113.025 242.026 114.105 241.467 115.109L241.579 115.035ZM237.626 116.635L239.229 113.398L240.795 116.635L239.229 119.836L237.626 116.635ZM235.276 111.834L236.842 108.634L238.446 111.834C237.924 112.914 237.402 113.993 236.842 115.035L235.276 111.834ZM232.889 107.071L234.493 103.87C235.015 104.912 235.537 105.992 236.096 107.071C235.537 108.113 235.015 109.192 234.493 110.271C233.859 109.304 233.337 108.224 232.778 107.182L232.889 107.071ZM230.54 111.834L232.106 108.634L233.71 111.834C233.188 112.914 232.666 113.993 232.106 115.035L230.54 111.834ZM228.265 107.22L229.869 104.019L231.435 107.182C230.876 108.224 230.354 109.304 229.831 110.383L228.265 107.22ZM225.916 102.456L227.482 99.2554L229.086 102.456L227.482 105.657L225.916 102.456ZM223.529 97.6551C224.051 96.6131 224.61 95.5338 225.133 94.4545L226.699 97.6551L225.133 100.856L223.529 97.6551Z" fill="#909090"/>
<path d="M282.152 31.9688C282.221 31.6616 282.409 31.394 282.675 31.2245C282.834 31.1891 283 31.1891 283.159 31.2245C283.306 31.1882 283.46 31.1882 283.607 31.2245L287.112 33.0853C299.791 39.7697 311.825 47.6058 323.062 56.4942C326.496 59.3878 329.104 63.1343 330.623 67.3555C332.142 71.5767 332.518 76.1231 331.714 80.5358C331.361 82.8708 330.735 85.1565 329.849 87.3463C329.772 87.5198 329.646 87.6679 329.488 87.7733C329.329 87.8787 329.144 87.9371 328.954 87.9418C319.072 87.3463 311.24 78.0423 300.388 65.0911C298.524 62.8953 296.659 60.5879 294.571 58.2061C290.092 53.2389 286.508 47.5349 283.98 41.3472C282.652 38.4041 282.027 35.1939 282.152 31.9688Z" fill="#1F1F1F"/>
<path d="M295.391 57.5735C290.975 52.6845 287.442 47.0686 284.949 40.9751C297.256 45.8132 317.617 72.6832 321.57 78.1912C323.759 81.3582 326.257 84.3003 329.029 86.9742C317.766 86.3043 309.003 73.5764 295.391 57.5735Z" fill="#DBDBDB"/>
<path d="M330.558 80.4241C330.24 82.6701 329.652 84.8694 328.805 86.9742C326.033 84.3003 323.535 81.3582 321.347 78.1912C317.394 72.7204 297.032 45.8504 284.726 40.9751C283.498 38.1897 282.936 35.1572 283.085 32.1177L286.553 33.9785C329.29 60.4763 330.558 80.4241 330.558 80.4241Z" fill="#808080"/>
<path d="M330.707 80.3866C330.707 80.3866 329.439 60.4388 286.777 33.9409C299.406 40.551 311.381 48.339 322.54 57.201C325.834 59.9998 328.325 63.6204 329.76 67.6934C331.194 71.7665 331.521 76.1464 330.707 80.3866Z" fill="#DBDBDB"/>
<path d="M321.495 78.7864C314.085 68.583 305.999 58.8852 297.293 49.7579C295.767 47.2839 294.516 44.6507 293.564 41.9053C293.564 41.9053 311.538 50.0556 319.071 57.2383C326.604 64.421 330.893 80.4239 321.495 78.7864Z" fill="#404040"/>
<path d="M314.485 67.0632C317.095 71.2686 320.75 73.7621 322.689 72.5712C324.628 71.3803 324.069 67.026 321.458 62.7834C318.848 58.5407 315.193 56.0845 313.254 57.2754C311.315 58.4663 311.911 63.0067 314.485 67.0632Z" fill="#BFBFBF"/>
<path d="M304.677 54.4099C306.392 56.0474 308.406 56.7545 309.152 55.973C309.898 55.1914 309.152 53.2562 307.362 51.6187C305.572 49.9812 303.633 49.2741 302.887 50.0184C302.141 50.7627 302.849 52.7724 304.677 54.4099Z" fill="#808080"/>
</g>
<defs>
<radialGradient id="paint0_radial_5191_5230" cx="0" cy="0" r="1" gradientUnits="userSpaceOnUse" gradientTransform="translate(362.163 94.3598) rotate(180) scale(64.712 64.5799)">
<stop stop-color="#515151"/>
<stop offset="1" stop-color="#202020"/>
</radialGradient>
<radialGradient id="paint1_radial_5191_5230" cx="0" cy="0" r="1" gradientUnits="userSpaceOnUse" gradientTransform="translate(362.163 94.3598) rotate(180) scale(64.712 64.5799)">
<stop stop-color="#808080"/>
<stop offset="1" stop-color="#202020"/>
</radialGradient>
<radialGradient id="paint2_radial_5191_5230" cx="0" cy="0" r="1" gradientUnits="userSpaceOnUse" gradientTransform="translate(362.163 545.493) rotate(180) scale(47.7068 47.6094)">
<stop stop-color="#515151"/>
<stop offset="1" stop-color="#202020"/>
</radialGradient>
<radialGradient id="paint3_radial_5191_5230" cx="0" cy="0" r="1" gradientUnits="userSpaceOnUse" gradientTransform="translate(360.49 545.578) rotate(180) scale(45.0637 44.9719)">
<stop stop-color="#808080"/>
<stop offset="1" stop-color="#202020"/>
</radialGradient>
<radialGradient id="paint4_radial_5191_5230" cx="0" cy="0" r="1" gradientUnits="userSpaceOnUse" gradientTransform="translate(36.7817 94.3598) scale(64.712 64.5799)">
<stop stop-color="#515151"/>
<stop offset="1" stop-color="#202020"/>
</radialGradient>
<radialGradient id="paint5_radial_5191_5230" cx="0" cy="0" r="1" gradientUnits="userSpaceOnUse" gradientTransform="translate(36.7816 94.3598) scale(64.712 64.5799)">
<stop stop-color="#808080"/>
<stop offset="1" stop-color="#202020"/>
</radialGradient>
<radialGradient id="paint6_radial_5191_5230" cx="0" cy="0" r="1" gradientUnits="userSpaceOnUse" gradientTransform="translate(36.7816 545.493) scale(47.7068 47.6094)">
<stop stop-color="#515151"/>
<stop offset="1" stop-color="#202020"/>
</radialGradient>
<radialGradient id="paint7_radial_5191_5230" cx="0" cy="0" r="1" gradientUnits="userSpaceOnUse" gradientTransform="translate(38.4537 545.578) scale(45.0638 44.9719)">
<stop stop-color="#808080"/>
<stop offset="1" stop-color="#202020"/>
</radialGradient>
<linearGradient id="paint8_linear_5191_5230" x1="189.22" y1="264.904" x2="189.22" y2="-32.7131" gradientUnits="userSpaceOnUse">
<stop stop-color="#115444"/>
<stop offset="1" stop-color="#199675"/>
</linearGradient>
<linearGradient id="paint9_linear_5191_5230" x1="188.997" y1="235.541" x2="188.997" y2="55.2659" gradientUnits="userSpaceOnUse">
<stop stop-color="#115444"/>
<stop offset="1" stop-color="#199675"/>
</linearGradient>
<linearGradient id="paint10_linear_5191_5230" x1="299.381" y1="618.978" x2="333.017" y2="623.2" gradientUnits="userSpaceOnUse">
<stop stop-color="#808080"/>
<stop offset="1"/>
</linearGradient>
<linearGradient id="paint11_linear_5191_5230" x1="82.6021" y1="622.439" x2="38.4854" y2="622.439" gradientUnits="userSpaceOnUse">
<stop stop-color="#808080"/>
<stop offset="1"/>
</linearGradient>
<linearGradient id="paint12_linear_5191_5230" x1="189.295" y1="346.668" x2="189.295" y2="43.7288" gradientUnits="userSpaceOnUse">
<stop stop-color="#808080"/>
<stop offset="1"/>
</linearGradient>
<radialGradient id="paint13_radial_5191_5230" cx="0" cy="0" r="1" gradientUnits="userSpaceOnUse" gradientTransform="translate(190.628 118.235) scale(143.166 76.421)">
<stop stop-color="#808080"/>
<stop offset="1" stop-color="#202020"/>
</radialGradient>
<linearGradient id="paint14_linear_5191_5230" x1="188.959" y1="352.957" x2="188.959" y2="626.533" gradientUnits="userSpaceOnUse">
<stop stop-color="#202020"/>
<stop offset="1" stop-color="#808080"/>
</linearGradient>
<linearGradient id="paint15_linear_5191_5230" x1="89.9486" y1="466.28" x2="65.8205" y2="466.28" gradientUnits="userSpaceOnUse">
<stop stop-color="#136A54"/>
<stop offset="1" stop-color="#199675"/>
</linearGradient>
<linearGradient id="paint16_linear_5191_5230" x1="282.19" y1="465.536" x2="310.532" y2="465.536" gradientUnits="userSpaceOnUse">
<stop stop-color="#136A54"/>
<stop offset="1" stop-color="#199675"/>
</linearGradient>
<linearGradient id="paint17_linear_5191_5230" x1="76.6727" y1="668.773" x2="59.4072" y2="670.641" gradientUnits="userSpaceOnUse">
<stop stop-color="#199675"/>
<stop offset="1" stop-color="#115444"/>
</linearGradient>
<linearGradient id="paint18_linear_5191_5230" x1="299.307" y1="668.81" x2="322.652" y2="669.744" gradientUnits="userSpaceOnUse">
<stop stop-color="#199675"/>
<stop offset="1" stop-color="#115444"/>
</linearGradient>
<linearGradient id="paint19_linear_5191_5230" x1="188.698" y1="715.591" x2="188.698" y2="692.889" gradientUnits="userSpaceOnUse">
<stop stop-color="white"/>
<stop offset="1" stop-color="#808080"/>
</linearGradient>
<radialGradient id="paint20_radial_5191_5230" cx="0" cy="0" r="1" gradientUnits="userSpaceOnUse" gradientTransform="translate(113.482 431.649) scale(96.221 96.0249)">
<stop stop-color="#A0A0A0"/>
<stop offset="1" stop-color="#F4F3F3"/>
</radialGradient>
<radialGradient id="paint21_radial_5191_5230" cx="0" cy="0" r="1" gradientUnits="userSpaceOnUse" gradientTransform="translate(281.285 431.649) rotate(180) scale(96.221 96.0249)">
<stop stop-color="#A0A0A0"/>
<stop offset="1" stop-color="#F4F3F3"/>
</radialGradient>
<linearGradient id="paint22_linear_5191_5230" x1="303.148" y1="-103.423" x2="303.148" y2="318.458" gradientUnits="userSpaceOnUse">
<stop stop-color="#115444"/>
<stop offset="1" stop-color="#199675"/>
</linearGradient>
<linearGradient id="paint23_linear_5191_5230" x1="312.061" y1="60.7738" x2="312.061" y2="249.459" gradientUnits="userSpaceOnUse">
<stop stop-color="#115444"/>
<stop offset="1" stop-color="#199675"/>
</linearGradient>
<linearGradient id="paint24_linear_5191_5230" x1="73.8757" y1="-103.423" x2="73.8757" y2="318.458" gradientUnits="userSpaceOnUse">
<stop stop-color="#115444"/>
<stop offset="1" stop-color="#199675"/>
</linearGradient>
<linearGradient id="paint25_linear_5191_5230" x1="64.963" y1="60.7738" x2="64.963" y2="249.459" gradientUnits="userSpaceOnUse">
<stop stop-color="#115444"/>
<stop offset="1" stop-color="#199675"/>
</linearGradient>
<linearGradient id="paint26_linear_5191_5230" x1="188.474" y1="117.379" x2="188.474" y2="-16.7845" gradientUnits="userSpaceOnUse">
<stop stop-color="#115444"/>
<stop offset="1" stop-color="#199675"/>
</linearGradient>
<linearGradient id="paint27_linear_5191_5230" x1="251.386" y1="-16.0775" x2="251.386" y2="86.6389" gradientUnits="userSpaceOnUse">
<stop stop-color="#115444"/>
<stop offset="1" stop-color="#199675"/>
</linearGradient>
<radialGradient id="paint28_radial_5191_5230" cx="0" cy="0" r="1" gradientUnits="userSpaceOnUse" gradientTransform="translate(250.294 -14.8033) rotate(180) scale(9.98354 9.96312)">
<stop offset="0.01" stop-color="#E8E8E8"/>
<stop offset="0.22" stop-color="#E5E5E5"/>
<stop offset="0.4" stop-color="#DADADA"/>
<stop offset="0.57" stop-color="#C8C8C8"/>
<stop offset="0.73" stop-color="#AEAEAE"/>
<stop offset="0.89" stop-color="#8E8E8E"/>
<stop offset="0.99" stop-color="#757575"/>
</radialGradient>
<linearGradient id="paint29_linear_5191_5230" x1="215.511" y1="-16.0773" x2="215.511" y2="86.6391" gradientUnits="userSpaceOnUse">
<stop stop-color="#115444"/>
<stop offset="1" stop-color="#199675"/>
</linearGradient>
<radialGradient id="paint30_radial_5191_5230" cx="0" cy="0" r="1" gradientUnits="userSpaceOnUse" gradientTransform="translate(214.335 -18.3597) rotate(180) scale(9.40253 9.38329)">
<stop offset="0.01" stop-color="#E8E8E8"/>
<stop offset="0.22" stop-color="#E5E5E5"/>
<stop offset="0.4" stop-color="#DADADA"/>
<stop offset="0.57" stop-color="#C8C8C8"/>
<stop offset="0.73" stop-color="#AEAEAE"/>
<stop offset="0.89" stop-color="#8E8E8E"/>
<stop offset="0.99" stop-color="#757575"/>
</radialGradient>
<linearGradient id="paint31_linear_5191_5230" x1="141.524" y1="-16.0775" x2="141.524" y2="86.6389" gradientUnits="userSpaceOnUse">
<stop stop-color="#115444"/>
<stop offset="1" stop-color="#199675"/>
</linearGradient>
<radialGradient id="paint32_radial_5191_5230" cx="0" cy="0" r="1" gradientUnits="userSpaceOnUse" gradientTransform="translate(145.006 -14.8033) scale(9.98349 9.96312)">
<stop offset="0.01" stop-color="#E8E8E8"/>
<stop offset="0.22" stop-color="#E5E5E5"/>
<stop offset="0.4" stop-color="#DADADA"/>
<stop offset="0.57" stop-color="#C8C8C8"/>
<stop offset="0.73" stop-color="#AEAEAE"/>
<stop offset="0.89" stop-color="#8E8E8E"/>
<stop offset="0.99" stop-color="#757575"/>
</radialGradient>
<linearGradient id="paint33_linear_5191_5230" x1="177.921" y1="-16.0774" x2="177.921" y2="86.6389" gradientUnits="userSpaceOnUse">
<stop stop-color="#115444"/>
<stop offset="1" stop-color="#199675"/>
</linearGradient>
<radialGradient id="paint34_radial_5191_5230" cx="0" cy="0" r="1" gradientUnits="userSpaceOnUse" gradientTransform="translate(180.972 -18.3597) scale(9.40244 9.38329)">
<stop offset="0.01" stop-color="#E8E8E8"/>
<stop offset="0.22" stop-color="#E5E5E5"/>
<stop offset="0.4" stop-color="#DADADA"/>
<stop offset="0.57" stop-color="#C8C8C8"/>
<stop offset="0.73" stop-color="#AEAEAE"/>
<stop offset="0.89" stop-color="#8E8E8E"/>
<stop offset="0.99" stop-color="#757575"/>
</radialGradient>
<linearGradient id="paint35_linear_5191_5230" x1="116.09" y1="75.8091" x2="116.09" y2="118.087" gradientUnits="userSpaceOnUse">
<stop stop-color="#115444"/>
<stop offset="1" stop-color="#199675"/>
</linearGradient>
<linearGradient id="paint36_linear_5191_5230" x1="261.791" y1="75.8091" x2="261.791" y2="118.087" gradientUnits="userSpaceOnUse">
<stop stop-color="#115444"/>
<stop offset="1" stop-color="#199675"/>
</linearGradient>
<clipPath id="clip0_5191_5230">
<rect width="379" height="716" fill="white"/>
</clipPath>
</defs>
</svg>
