<svg width="54" height="44" viewBox="0 0 54 44" fill="none" xmlns="http://www.w3.org/2000/svg">
<g clip-path="url(#clip0_3784_3039)">
<path fill-rule="evenodd" clip-rule="evenodd" d="M19.6793 6.915C19.4107 6.98956 18.8696 6.90116 18.5625 6.94769C22.762 6.98026 29.6458 7.35659 33.7756 6.94292L32.7109 6.93373C32.2821 5.93956 31.6329 2.62194 31.2864 2.12951L31.1482 1.93453C30.8622 1.59996 30.2083 1.70222 29.7323 1.70222C27.6063 1.69756 25.3811 1.72526 23.2683 1.70222C22.7403 1.69269 22.1818 1.72526 21.658 1.70222C20.926 1.72072 20.9219 2.6174 20.7615 2.93811C20.6492 3.16566 20.7876 2.92859 20.6576 3.29561C20.515 3.69997 20.4584 4.16437 20.32 4.59676C20.2897 4.69414 20.2594 4.76858 20.2422 4.87992C20.216 4.97298 19.6793 6.91057 19.6793 6.915Z" fill="#199675"/>
<path fill-rule="evenodd" clip-rule="evenodd" d="M20.4823 4.87549H20.781V5.55836H20.292L20.478 4.88003L20.4823 4.87549ZM32.7088 6.2276C32.6436 6.0232 32.5829 5.791 32.5179 5.54916H32.2798V6.2276H32.7088ZM20.1445 6.08347L20.1058 6.2276H20.1445V6.08347ZM31.0029 5.54916H31.6395V6.2276H31.0029V5.54916ZM29.7258 5.54916H30.3621V6.2276H29.7258V5.54916ZM28.4485 5.54916H29.0848V6.2276H28.4485V5.54916ZM27.1711 5.54916H27.8079V6.2276H27.1711V5.54916ZM25.8941 5.54916H26.5304V6.2276H25.8941V5.54916ZM24.6169 5.54916H25.2535V6.2276H24.6169V5.54916ZM23.3397 5.54916H23.9762V6.2276H23.3397V5.54916ZM22.0626 5.54916H22.699V6.2276H22.0626V5.54916ZM20.7897 5.54916H21.4217V6.2276H20.7897V5.54916ZM31.6395 4.87549H32.2754V5.55836H31.6395V4.87549ZM30.3621 4.87549H30.9983V5.55836H30.3621V4.87549ZM29.0848 4.87549H29.7212V5.55836H29.0848V4.87549ZM27.8079 4.87549H28.444V5.55836H27.8079V4.87549ZM26.5304 4.87549H27.1675V5.55836H26.5304V4.87549ZM25.2535 4.87549H25.8896V5.55836H25.2535V4.87549ZM23.9762 4.87549H24.6124V5.55836H23.9762V4.87549ZM22.699 4.87549H23.3356V5.55836H22.699V4.87549ZM21.4261 4.87549H22.0582V5.55836H21.4261V4.87549Z" fill="white"/>
<path fill-rule="evenodd" clip-rule="evenodd" d="M4.85313 13.3875C3.8617 13.3127 2.34197 13.7777 1.87461 14.5163C-0.104006 17.6105 4.91377 17.1739 6.32947 17.2484C5.4116 18.08 1.92657 22.0012 1.71407 22.9353C1.48029 23.9763 1.48029 32.2741 1.4585 34.0581C1.42409 36.6368 0.865726 42.7186 2.96552 43.5456C3.57151 43.7828 6.92678 43.8062 7.65437 43.6339C9.38588 43.2248 9.01356 41.5288 9.09156 39.5175C15.1832 39.062 37.6442 39.062 43.7099 39.5175C43.7835 41.3896 43.4366 43.072 44.9479 43.5829C45.6795 43.8294 49.1864 43.8012 49.8356 43.5456C52.4378 42.5232 51.0872 32.3577 51.1432 28.8917C51.2336 22.833 51.0565 21.1234 46.4757 17.2484C47.974 17.1694 52.4765 17.7546 51.0391 14.7022C50.6063 13.7869 47.853 12.6348 46.8353 13.9031C44.7749 16.491 44.9954 13.7125 43.1165 10.8041C40.9257 6.10228 40.3761 6.18127 33.5052 6.2555C31.2452 6.14826 28.7989 6.05564 26.5349 6.05099C24.1882 6.04168 15.1397 6.34379 13.1871 6.83157C11.2779 6.87355 8.77131 12.17 7.8836 14.0471C6.49404 16.9834 6.74941 13.5359 4.85313 13.3875ZM7.8836 17.2484C13.6633 17.3551 20.1125 16.751 26.1563 16.7467C32.4167 16.7373 38.8425 17.1972 44.9902 17.2484L41.6099 9.84243C40.9991 8.77371 40.9866 8.36037 39.6705 8.12795C34.8342 7.27758 18.3867 7.3939 13.3821 8.09538C11.5506 8.35572 11.5637 9.12688 10.1306 11.8636C9.2648 13.5127 8.51139 15.5524 7.8836 17.2484ZM16.9538 30.7733C16.9538 32.5945 18.3436 34.0812 20.0409 34.0812H32.7737C34.471 34.0812 35.8559 32.5945 35.8559 30.7733V28.4921C35.8559 26.6753 34.4666 25.1839 32.7737 25.1839H20.0409C18.3436 25.1839 16.9538 26.6753 16.9538 28.4921V30.7733ZM13.0313 30.7827C13.737 30.425 14.4557 29.5515 14.7201 28.8264C12.815 27.6232 5.74941 27.0888 3.58019 27.5488C2.60188 33.7145 11.04 31.8004 13.0313 30.7827ZM38.0941 28.8263C38.3543 29.5514 39.0725 30.4249 39.778 30.7825C41.7703 31.8004 50.2079 33.7144 49.2297 27.5487C47.0649 27.0887 39.9952 27.6231 38.0941 28.8263Z" fill="#199675"/>
<path d="M15.808 14.985V11.232H14.512V10.26H18.1975V11.232H16.8947V14.985H15.808Z" fill="white"/>
<path d="M20.928 14.985L20.766 14.4113H19.092L18.93 14.985H17.7757L19.3755 10.26H20.4757L22.0822 14.985H20.928ZM19.335 13.554H20.523L19.929 11.4548L19.335 13.554Z" fill="white"/>
<path d="M22.3639 14.985L23.8759 12.6225L22.3639 10.26H23.5654L24.5037 11.8058L25.4419 10.26H26.6434L25.1314 12.6225L26.6434 14.985H25.4419L24.5037 13.446L23.5654 14.985H22.3639Z" fill="white"/>
<path d="M27.1848 14.985V10.26H28.2783V14.985H27.1848Z" fill="white"/>
<path d="M29.1953 14.985V10.26H30.9773C31.7108 10.26 32.2958 10.4872 32.7323 10.9417C33.1688 11.3962 33.3871 11.9565 33.3871 12.6225C33.3871 13.2885 33.1688 13.8487 32.7323 14.3032C32.3003 14.7577 31.7153 14.985 30.9773 14.985H29.1953ZM30.2888 14.067H30.8761C31.3171 14.067 31.6568 13.9275 31.8953 13.6485C32.1383 13.365 32.2598 13.023 32.2598 12.6225C32.2598 12.222 32.1383 11.8822 31.8953 11.6032C31.6568 11.3197 31.3171 11.178 30.8761 11.178H30.2888V14.067Z" fill="white"/>
<path d="M38.124 14.3977C37.665 14.8792 37.053 15.12 36.288 15.12C35.523 15.12 34.911 14.8792 34.452 14.3977C33.993 13.9117 33.7635 13.32 33.7635 12.6225C33.7635 11.925 33.993 11.3355 34.452 10.854C34.911 10.368 35.523 10.125 36.288 10.125C37.053 10.125 37.665 10.368 38.124 10.854C38.583 11.3355 38.8125 11.925 38.8125 12.6225C38.8125 13.32 38.583 13.9117 38.124 14.3977ZM36.288 14.1413C36.72 14.1413 37.0575 13.9972 37.3005 13.7092C37.548 13.4167 37.6718 13.0545 37.6718 12.6225C37.6718 12.1905 37.548 11.8305 37.3005 11.5425C37.0575 11.25 36.72 11.1037 36.288 11.1037C35.8515 11.1037 35.5095 11.25 35.262 11.5425C35.019 11.8305 34.8998 12.1905 34.9043 12.6225C34.8998 13.0545 35.019 13.4167 35.262 13.7092C35.5095 13.9972 35.8515 14.1413 36.288 14.1413Z" fill="white"/>
</g>
<defs>
<clipPath id="clip0_3784_3039">
<rect width="54" height="43.875" fill="white"/>
</clipPath>
</defs>
</svg>
