<svg width="271" height="202" viewBox="0 0 271 202" fill="none" xmlns="http://www.w3.org/2000/svg">
<path d="M270.492 177.564H0.235352V177.699H270.492V177.564Z" fill="#EBEBEB"/>
<path d="M232.499 181.245H179.746V181.38H232.499V181.245Z" fill="#EBEBEB"/>
<path d="M181.667 184.368H156.443V184.503H181.667V184.368Z" fill="#EBEBEB"/>
<path d="M243.413 186.264H233.039V186.399H243.413V186.264Z" fill="#EBEBEB"/>
<path d="M118.608 184.435H68.5957V184.57H118.608V184.435Z" fill="#EBEBEB"/>
<path d="M63.7842 184.435H53.0264V184.57H63.7842V184.435Z" fill="#EBEBEB"/>
<path d="M49.235 182.153H31.4727V182.288H49.235V182.153Z" fill="#EBEBEB"/>
<path d="M128.345 153.458H23.9729C22.2719 153.458 20.8877 152.074 20.8877 150.373V3.66044C20.8877 1.95945 22.2719 0.575195 23.9729 0.575195H128.345C130.046 0.575195 131.43 1.95945 131.43 3.66044V150.373C131.43 152.074 130.046 153.458 128.345 153.458ZM23.9729 0.710864C22.346 0.710864 21.0228 2.03404 21.0228 3.66098V150.373C21.0228 152 22.346 153.324 23.9729 153.324H128.345C129.972 153.324 131.295 152 131.295 150.373V3.66044C131.295 2.03404 129.972 0.710323 128.345 0.710323L23.9729 0.710864Z" fill="#EBEBEB"/>
<path d="M245.255 153.458H140.884C139.183 153.458 137.799 152.074 137.799 150.373V3.66044C137.799 1.95945 139.183 0.575195 140.884 0.575195H245.255C246.957 0.575195 248.341 1.95945 248.341 3.66044V150.373C248.341 152.074 246.957 153.458 245.255 153.458ZM140.884 0.710864C139.257 0.710864 137.934 2.03404 137.934 3.66098V150.373C137.934 152 139.257 153.324 140.884 153.324H245.255C246.882 153.324 248.206 152 248.206 150.373V3.66044C248.206 2.03404 246.882 0.710323 245.255 0.710323L140.884 0.710864Z" fill="#EBEBEB"/>
<path d="M211.615 172.59H48.3592L38.624 61.8467H201.88L211.615 172.59Z" fill="#F0F0F0"/>
<path d="M45.4745 176.117L48.3592 172.59L38.624 61.8467L35.7441 65.4287L45.4745 176.117Z" fill="#E0E0E0"/>
<path d="M50.5169 168.385L41.5492 66.3734C41.4546 65.2984 42.3016 64.3735 43.381 64.3735H197.891C198.844 64.3735 199.639 65.1016 199.723 66.0513L208.691 168.063C208.785 169.138 207.939 170.063 206.859 170.063H52.3487C51.3957 170.063 50.6006 169.334 50.5169 168.385Z" fill="#FAFAFA"/>
<path d="M71.3062 172.59H46.7091L44.9697 177.564H69.5668L71.3062 172.59Z" fill="#E0E0E0"/>
<path d="M71.3048 172.59H233.039L231.299 177.564H69.5654L71.3048 172.59Z" fill="#F5F5F5"/>
<path d="M137.905 172.59H168.908L168.574 175.847H137.571L137.905 172.59Z" fill="#E0E0E0"/>
<path d="M184.883 54.5789H224.054C227.299 76.0675 212.288 93.7498 190.8 93.7498C183.924 93.7498 176.895 91.9396 170.422 88.502L184.883 54.5789Z" fill="#E0E0E0"/>
<path d="M184.884 54.5788L205.53 24.5723C210.467 28.2488 214.684 32.841 217.884 38.0245C221.084 43.2081 223.19 48.8591 224.054 54.5788H184.884Z" fill="#EBEBEB"/>
<path d="M184.884 54.5789L178.967 15.408C183.536 15.408 188.191 16.2074 192.721 17.77C197.251 19.3326 201.586 21.6347 205.529 24.5718L184.884 54.5789Z" fill="#E6E6E6"/>
<path d="M184.884 54.5789L170.422 88.5015C157.263 81.5132 147.824 68.5555 145.713 54.5789C142.467 33.0903 157.478 15.408 178.967 15.408L184.884 54.5789Z" fill="#F0F0F0"/>
<path d="M136.529 124.481H171.276C171.735 127.518 171.793 130.541 171.451 133.474C171.108 136.407 170.366 139.225 169.245 141.854L136.529 124.481Z" fill="#EBEBEB"/>
<path d="M136.529 124.481L137.394 90.2625C145.652 91.6808 153.578 95.8903 159.773 102.147C165.968 108.403 170.042 116.315 171.276 124.482H136.529V124.481Z" fill="#E0E0E0"/>
<path d="M136.529 124.481L105.673 136.365C103.711 132.557 102.395 128.535 101.782 124.481C98.9029 105.42 112.219 89.7344 131.281 89.7344C133.303 89.7344 135.349 89.9111 137.394 90.2625L136.529 124.481Z" fill="#F0F0F0"/>
<path d="M136.529 124.481L169.245 141.855C164.667 152.592 154.176 159.228 141.777 159.228C127.204 159.228 112.725 150.06 105.673 136.365L136.529 124.481Z" fill="white"/>
<path d="M135.363 201.975C193.242 201.975 240.162 199.235 240.162 195.855C240.162 192.475 193.242 189.734 135.363 189.734C77.4838 189.734 30.5635 192.475 30.5635 195.855C30.5635 199.235 77.4838 201.975 135.363 201.975Z" fill="#F5F5F5"/>
<path d="M130.275 100.264H81.5888C78.4992 100.264 75.7653 97.7365 75.5134 94.6469L73.0762 64.7101C72.8249 61.6205 75.1469 59.0925 78.2365 59.0925H126.923C130.013 59.0925 132.747 61.6205 132.998 64.7101L135.435 94.6469C135.688 97.7365 133.365 100.264 130.275 100.264Z" fill="white"/>
<path d="M130.275 100.498H81.5883C78.3717 100.498 75.5416 97.882 75.28 94.6659L72.8428 64.7291C72.7158 63.1648 73.2109 61.6909 74.2373 60.5769C75.2594 59.4683 76.6799 58.858 78.2366 58.858H126.923C130.14 58.858 132.969 61.4747 133.232 64.6907L135.669 94.6275C135.796 96.1912 135.301 97.6652 134.274 98.7792C133.252 99.8878 131.832 100.498 130.275 100.498ZM78.2366 59.3267C76.8118 59.3267 75.5135 59.8839 74.5816 60.8947C73.6449 61.9114 73.193 63.2594 73.3092 64.6912L75.7464 94.6281C75.9891 97.6069 78.6095 100.031 81.5883 100.031H130.275C131.7 100.031 132.998 99.4732 133.93 98.4625C134.867 97.4458 135.319 96.0977 135.202 94.6665L132.765 64.7296C132.522 61.7503 129.902 59.3267 126.923 59.3267H78.2366Z" fill="#199675"/>
<path d="M117.064 91.524C115.155 93.6028 112.687 95.0957 109.907 95.8589L109.102 93.5509C115.096 91.9126 119.154 86.3226 118.613 79.6797C118.29 75.7145 116.392 72.1239 113.582 69.5256L115.135 67.8354C122.163 74.334 123.033 85.0265 117.064 91.524Z" fill="#E0E0E0"/>
<path d="M115.133 67.8359L113.581 69.5261C110.771 66.9279 107.05 65.322 103.085 65.322C99.1195 65.322 95.6602 66.9322 93.2782 69.5304L91.4453 67.8359C94.3311 64.6945 98.452 62.9297 102.89 62.9297C107.333 62.9297 111.737 64.6945 115.133 67.8359Z" fill="#263238"/>
<path d="M109.907 95.8588C104.26 97.4036 97.9461 95.7464 93.375 91.5239C86.3526 85.0259 85.4824 74.334 91.4464 67.8359L93.2793 69.5304C90.8924 72.1287 89.579 75.7144 89.9016 79.6796C90.547 87.6052 97.4975 94.033 105.424 94.033C106.706 94.033 107.942 93.8643 109.101 93.5508L109.907 95.8588Z" fill="#199675"/>
<path d="M63.9553 10.7021H60.0518V11.1697H63.9553V10.7021Z" fill="#199675"/>
<path d="M56.2681 10.7021H47.3799V11.1697H56.2681V10.7021Z" fill="#199675"/>
<path d="M97.6055 53.7303H48.9189C45.8293 53.7303 43.0954 51.2023 42.8435 48.1127L40.4063 18.1759C40.155 15.0863 42.477 12.5583 45.5666 12.5583H94.2533C97.3429 12.5583 100.077 15.0863 100.328 18.1759L102.765 48.1127C103.017 51.2023 100.695 53.7303 97.6055 53.7303Z" fill="white"/>
<path d="M97.6072 53.9643H48.9199C45.7033 53.9643 42.8732 51.3477 42.6116 48.1316L40.175 18.1948C40.0474 16.6311 40.5425 15.1566 41.5695 14.0431C42.5916 12.934 44.0121 12.3237 45.5687 12.3237H94.2554C97.472 12.3237 100.302 14.9403 100.564 18.1564L103.001 48.0933C103.128 49.6575 102.633 51.1315 101.606 52.2455C100.584 53.3541 99.1638 53.9643 97.6072 53.9643ZM45.5682 12.7918C44.1434 12.7918 42.8456 13.3491 41.9133 14.3604C40.9766 15.3765 40.5247 16.7246 40.6414 18.1564L43.0786 48.0933C43.3213 51.0726 45.9417 53.4962 48.9205 53.4962H97.6077C99.0319 53.4962 100.33 52.9395 101.263 51.9282C102.199 50.9115 102.651 49.5634 102.534 48.1311L100.097 18.1942C99.8546 15.2149 97.2337 12.7913 94.2554 12.7913L45.5682 12.7918Z" fill="#199675"/>
<path d="M44.8101 21.1481H70.6099L70.4023 18.5996H44.6025L44.8101 21.1481Z" fill="#E0E0E0"/>
<path d="M96.4097 21.1481H70.6099L70.4023 18.5996H96.2021L96.4097 21.1481Z" fill="#199675"/>
<path d="M45.3501 27.7834H52.7103L52.5027 25.2344H45.1426L45.3501 27.7834Z" fill="#E0E0E0"/>
<path d="M96.9508 27.7834H52.7115L52.5039 25.2344H96.7433L96.9508 27.7834Z" fill="#199675"/>
<path d="M45.8902 34.4183H68.8555L68.6479 31.8698H45.6826L45.8902 34.4183Z" fill="#E0E0E0"/>
<path d="M97.4907 34.4183H68.856L68.6484 31.8698H97.2832L97.4907 34.4183Z" fill="#199675"/>
<path d="M46.4302 41.0536H85.6239L85.4163 38.5045H46.2227L46.4302 41.0536Z" fill="#E0E0E0"/>
<path d="M98.0294 41.0536H85.6236L85.416 38.5045H97.8219L98.0294 41.0536Z" fill="#199675"/>
<path d="M46.9702 47.6883H65.098L64.8904 45.1398H46.7627L46.9702 47.6883Z" fill="#E0E0E0"/>
<path d="M98.57 47.6883H65.0982L64.8906 45.1398H98.3624L98.57 47.6883Z" fill="#199675"/>
<path d="M164.164 53.7302H115.477C112.387 53.7302 109.653 51.2022 109.402 48.1126L106.965 18.1758C106.714 15.0862 109.036 12.5582 112.125 12.5582H160.812C163.901 12.5582 166.635 15.0862 166.887 18.1758L169.324 48.1126C169.576 51.2022 167.253 53.7302 164.164 53.7302Z" fill="white"/>
<path d="M164.164 53.9643H115.477C112.26 53.9643 109.43 51.3477 109.169 48.1316L106.731 18.1948C106.604 16.6311 107.1 15.1566 108.126 14.0426C109.148 12.934 110.568 12.3237 112.125 12.3237H160.812C164.029 12.3237 166.858 14.9403 167.12 18.1564L169.557 48.0933C169.685 49.657 169.19 51.1315 168.163 52.2449C167.141 53.3541 165.721 53.9643 164.164 53.9643ZM112.125 12.7918C110.7 12.7918 109.402 13.3485 108.47 14.3598C107.533 15.3765 107.081 16.7246 107.197 18.1564L109.635 48.0933C109.877 51.0726 112.498 53.4962 115.476 53.4962H164.163C165.588 53.4962 166.886 52.9389 167.818 51.9276C168.755 50.9115 169.207 49.5634 169.09 48.1316L166.653 18.1948C166.41 15.2155 163.79 12.7918 160.811 12.7918H112.125Z" fill="#199675"/>
<path d="M139.757 47.6884H138.898L136.529 18.5996H137.389L139.757 47.6884Z" fill="#E0E0E0"/>
<path d="M141.054 35.601H135.631L134.706 24.2356H140.128L141.054 35.601Z" fill="#199675"/>
<path d="M129.084 47.6884H128.224L125.856 18.5996H126.716L129.084 47.6884Z" fill="#E0E0E0"/>
<path d="M130.587 38.1252H125.165L124.354 28.163H129.776L130.587 38.1252Z" fill="#199675"/>
<path d="M118.414 47.6884H117.555L115.187 18.5996H116.045L118.414 47.6884Z" fill="#E0E0E0"/>
<path d="M119.249 29.9288H113.826L113.27 23.0891H118.692L119.249 29.9288Z" fill="#263238"/>
<path d="M150.428 47.6884H149.568L147.2 18.5996H148.06L150.428 47.6884Z" fill="#E0E0E0"/>
<path d="M152.25 42.0525H146.827L145.377 24.2356H150.799L152.25 42.0525Z" fill="#263238"/>
<path d="M161.098 47.6884H160.239L157.871 18.5996H158.731L161.098 47.6884Z" fill="#E0E0E0"/>
<path d="M163.096 44.1875H157.673L156.512 29.9185H161.934L163.096 44.1875Z" fill="#199675"/>
<path d="M112.062 146.416H63.3753C60.2858 146.416 57.5519 143.888 57.3005 140.799L54.8634 110.862C54.612 107.772 56.9341 105.245 60.0236 105.245H108.71C111.8 105.245 114.534 107.772 114.785 110.862L117.222 140.799C117.474 143.888 115.152 146.416 112.062 146.416Z" fill="white"/>
<path d="M112.061 146.65H63.3744C60.1578 146.65 57.3277 144.034 57.0661 140.818L54.6289 110.881C54.5019 109.317 54.997 107.843 56.0234 106.729C57.0456 105.62 58.466 105.01 60.0227 105.01H108.709C111.926 105.01 114.756 107.627 115.018 110.843L117.455 140.779C117.582 142.343 117.087 143.817 116.061 144.931C115.039 146.04 113.618 146.65 112.061 146.65ZM60.0227 105.478C58.5979 105.478 57.2996 106.035 56.3678 107.046C55.431 108.063 54.9792 109.411 55.0954 110.843L57.5326 140.779C57.7752 143.758 60.3962 146.182 63.3744 146.182H112.061C113.486 146.182 114.784 145.625 115.716 144.613C116.653 143.597 117.105 142.249 116.988 140.818L114.551 110.881C114.308 107.902 111.688 105.478 108.709 105.478H60.0227Z" fill="#199675"/>
<path d="M66.6104 125.116L77.1039 137.24L89.1374 118.678L96.5791 128.27L98.3947 125.469L110.558 140.048L63.8408 140.03L66.6104 125.116Z" fill="#199675"/>
<path d="M101.641 125.868L96.7639 136.311L81.2085 111.613L73.8834 127.298L71.5365 123.571L63.8418 140.047L110.557 140.024L101.641 125.868Z" fill="#E0E0E0"/>
<path d="M201.782 56.8469C203.084 59.2906 204.203 61.7056 205.257 64.2211C206.284 66.7377 207.233 69.2944 207.975 71.9959C208.165 72.6661 208.329 73.3574 208.486 74.052C208.548 74.2876 208.701 75.04 208.7 75.5178C208.725 76.0486 208.683 76.527 208.618 76.9842C208.325 78.7814 207.695 80.1587 207.01 81.4602C205.61 84.0369 203.921 86.1719 201.957 88.1885C201.368 88.7934 200.4 88.8063 199.795 88.2172C199.301 87.7361 199.202 87.0027 199.503 86.4205L199.542 86.3476C200.701 84.1104 201.848 81.7499 202.623 79.5101C202.996 78.4004 203.292 77.2648 203.291 76.4286C203.284 76.2291 203.278 76.0454 203.248 75.9178C203.236 75.8513 203.223 75.7913 203.202 75.7584L203.102 75.4405C202.922 74.8584 202.737 74.2757 202.521 73.6887C201.702 71.3418 200.69 68.9852 199.639 66.6475C198.591 64.3168 197.465 61.9466 196.351 59.6938L196.328 59.6478C195.578 58.1301 196.2 56.2913 197.718 55.5405C199.206 54.8043 201.005 55.3929 201.782 56.8469Z" fill="#199675"/>
<path d="M200.092 86.1173L197.513 86.9297L200.549 90.4847C200.549 90.4847 201.721 89.4534 202.143 87.9605C202.285 87.4567 202.077 86.9178 201.652 86.6113L201.222 86.3C200.896 86.0638 200.476 85.9962 200.092 86.1173Z" fill="#7F3E3B"/>
<path d="M193.957 89.1209L197.21 91.7024L200.547 90.4841L197.511 86.9297L193.957 89.1209Z" fill="#7F3E3B"/>
<path d="M182.849 38.7684C182.784 39.0884 182.562 39.3127 182.353 39.2706C182.144 39.2279 182.027 38.9344 182.092 38.6144C182.157 38.2944 182.379 38.0701 182.589 38.1123C182.798 38.1555 182.915 38.449 182.849 38.7684Z" fill="#263238"/>
<path d="M182.592 39.3191C182.592 39.3191 181.49 41.0163 180.509 41.7438C180.967 42.387 181.978 42.3411 181.978 42.3411L182.592 39.3191Z" fill="#630F0F"/>
<path d="M184.381 37.2307C184.427 37.2307 184.474 37.2139 184.511 37.1799C184.589 37.108 184.594 36.9869 184.521 36.9091C183.802 36.1302 182.928 36.2686 182.891 36.2751C182.787 36.2929 182.716 36.3918 182.734 36.4961C182.752 36.6004 182.852 36.6696 182.955 36.6529C182.983 36.6485 183.666 36.548 184.24 37.1691C184.278 37.2101 184.329 37.2307 184.381 37.2307Z" fill="#263238"/>
<path d="M191.729 44.5886C191.148 47.5485 190.799 51.6488 192.869 53.6238C192.869 53.6238 192.06 56.6258 186.56 56.6258C180.513 56.6258 183.651 53.9908 183.651 53.9908C186.164 53.2109 186.143 50.3473 185.568 48.0479L191.729 44.5886Z" fill="#7F3E3B"/>
<path d="M182.592 53.5287C182.592 53.5287 183.473 51.4391 184.374 51.0791C185.275 50.7186 191.011 49.7759 192.332 50.6078C193.653 51.4396 194.545 54.1125 194.545 54.1125L182.592 53.5287Z" fill="#199675"/>
<path d="M188.653 191.931C188.134 191.931 187.633 191.86 187.464 191.626C187.406 191.545 187.36 191.406 187.473 191.208C187.536 191.096 187.638 191.021 187.776 190.983C188.45 190.8 189.863 191.606 189.923 191.641C189.958 191.661 189.977 191.7 189.97 191.739C189.964 191.778 189.934 191.81 189.895 191.817C189.636 191.869 189.137 191.931 188.653 191.931ZM188.011 191.146C187.944 191.146 187.882 191.153 187.826 191.169C187.737 191.192 187.676 191.237 187.639 191.303C187.571 191.422 187.595 191.481 187.62 191.515C187.808 191.776 188.831 191.782 189.583 191.676C189.208 191.483 188.484 191.146 188.011 191.146Z" fill="#199675"/>
<path d="M189.874 191.819C189.861 191.819 189.848 191.817 189.835 191.811C189.346 191.592 188.379 190.717 188.453 190.259C188.471 190.152 188.547 190.018 188.81 189.991C189.007 189.971 189.185 190.027 189.341 190.156C189.856 190.578 189.965 191.668 189.969 191.715C189.973 191.749 189.957 191.782 189.93 191.802C189.914 191.813 189.894 191.819 189.874 191.819ZM188.887 190.179C188.868 190.179 188.849 190.181 188.83 190.182C188.658 190.199 188.647 190.268 188.643 190.29C188.599 190.564 189.256 191.252 189.754 191.551C189.702 191.233 189.558 190.581 189.22 190.304C189.119 190.22 189.009 190.179 188.887 190.179Z" fill="#199675"/>
<path d="M194.323 191.724H190.277L189.874 182.354H193.92L194.323 191.724Z" fill="#7F3E3B"/>
<path d="M190.304 191.255H194.722C194.887 191.255 195.03 191.37 195.066 191.531L195.865 195.127C195.948 195.5 195.665 195.853 195.283 195.847C193.689 195.82 191.387 195.726 189.384 195.726C187.042 195.726 186.758 195.854 184.011 195.854C182.35 195.854 181.889 194.174 182.585 194.023C185.75 193.33 186.595 193.256 189.33 191.57C189.626 191.387 189.954 191.255 190.304 191.255Z" fill="#263238"/>
<path d="M200.112 53.6378C203.904 54.507 206.406 64.74 206.406 64.74L200.075 69.496C200.075 69.496 196.621 67.3561 195.377 62.5141C194.074 57.4404 196.236 52.7492 200.112 53.6378Z" fill="#263238"/>
<path opacity="0.2" d="M196.864 60.7565C198.923 62.7942 200.255 66.0108 200.414 69.2377L200.078 69.4966C200.078 69.4966 196.622 67.3534 195.377 62.5131C195.3 62.2104 195.234 61.9072 195.179 61.6099L196.864 60.7565Z" fill="black"/>
<path d="M213.744 68.8649L183.029 81.1396L192.158 103.983L222.873 91.7078L213.744 68.8649Z" fill="#199675"/>
<path opacity="0.5" d="M213.294 69.0447L183.03 81.1392L192.159 103.982L222.423 91.8876L213.294 69.0447Z" fill="white"/>
<g opacity="0.5">
<path d="M188.573 81.2677L185.708 82.4128L186.52 84.4436L189.385 83.2985L188.573 81.2677Z" fill="#199675"/>
<path d="M193.304 79.3771L190.438 80.5222L191.25 82.553L194.115 81.4079L193.304 79.3771Z" fill="#199675"/>
<path d="M198.035 77.4863L195.17 78.6315L195.981 80.6622L198.847 79.5171L198.035 77.4863Z" fill="#199675"/>
<path d="M202.767 75.5957L199.901 76.7408L200.713 78.7716L203.578 77.6265L202.767 75.5957Z" fill="#199675"/>
<path d="M207.497 73.7048L204.632 74.85L205.443 76.8807L208.309 75.7356L207.497 73.7048Z" fill="#199675"/>
<path d="M212.229 71.8175L209.363 72.9626L210.175 74.9934L213.04 73.8483L212.229 71.8175Z" fill="#199675"/>
<path d="M189.914 84.6198L187.049 85.7649L187.861 87.7962L190.726 86.651L189.914 84.6198Z" fill="#199675"/>
<path d="M194.645 82.7306L191.779 83.8757L192.591 85.907L195.457 84.7619L194.645 82.7306Z" fill="#199675"/>
<path d="M199.375 80.8399L196.51 81.985L197.322 84.0163L200.187 82.8711L199.375 80.8399Z" fill="#199675"/>
<path d="M204.108 78.9491L201.242 80.0942L202.054 82.125L204.919 80.9799L204.108 78.9491Z" fill="#199675"/>
<path d="M208.838 77.0585L205.973 78.2036L206.784 80.2349L209.65 79.0897L208.838 77.0585Z" fill="#199675"/>
<path d="M213.57 75.1677L210.704 76.3129L211.516 78.3436L214.381 77.1985L213.57 75.1677Z" fill="#199675"/>
<path d="M191.254 87.9751L188.389 89.1202L189.2 91.151L192.066 90.0059L191.254 87.9751Z" fill="#199675"/>
<path d="M195.986 86.083L193.12 87.2281L193.932 89.2589L196.797 88.1138L195.986 86.083Z" fill="#199675"/>
<path d="M200.716 84.1936L197.851 85.3387L198.662 87.3695L201.528 86.2244L200.716 84.1936Z" fill="#199675"/>
<path d="M205.447 82.3029L202.582 83.448L203.394 85.4788L206.259 84.3336L205.447 82.3029Z" fill="#199675"/>
<path d="M210.179 80.4155L207.313 81.5607L208.125 83.5914L210.991 82.4463L210.179 80.4155Z" fill="#199675"/>
<path d="M214.909 78.5249L212.044 79.67L212.856 81.7013L215.721 80.5562L214.909 78.5249Z" fill="#199675"/>
<path d="M192.593 91.3285L189.728 92.4736L190.539 94.5049L193.405 93.3598L192.593 91.3285Z" fill="#199675"/>
<path d="M197.326 89.4379L194.461 90.583L195.273 92.6143L198.138 91.4691L197.326 89.4379Z" fill="#199675"/>
<path d="M202.057 87.5457L199.191 88.6908L200.003 90.7216L202.868 89.5764L202.057 87.5457Z" fill="#199675"/>
<path d="M206.787 85.6565L203.922 86.8016L204.734 88.8329L207.599 87.6878L206.787 85.6565Z" fill="#199675"/>
<path d="M211.518 83.7658L208.652 84.9109L209.464 86.9417L212.329 85.7965L211.518 83.7658Z" fill="#199675"/>
<path d="M216.25 81.8751L213.385 83.0203L214.196 85.051L217.062 83.9059L216.25 81.8751Z" fill="#199675"/>
<path d="M193.935 94.6809L191.069 95.826L191.881 97.8568L194.746 96.7117L193.935 94.6809Z" fill="#199675"/>
<path d="M198.665 92.7916L195.8 93.9368L196.611 95.9675L199.477 94.8224L198.665 92.7916Z" fill="#199675"/>
<path d="M203.398 90.901L200.532 92.0461L201.344 94.0769L204.209 92.9318L203.398 90.901Z" fill="#199675"/>
<path d="M208.127 89.012L205.262 90.1571L206.073 92.1879L208.939 91.0427L208.127 89.012Z" fill="#199675"/>
<path d="M212.859 87.1229L209.993 88.2681L210.805 90.2993L213.67 89.1542L212.859 87.1229Z" fill="#199675"/>
<path d="M217.59 85.2283L214.725 86.3734L215.536 88.4047L218.402 87.2596L217.59 85.2283Z" fill="#199675"/>
<path d="M195.275 98.0359L192.409 99.181L193.221 101.212L196.086 100.067L195.275 98.0359Z" fill="#199675"/>
<path d="M200.005 96.1452L197.14 97.2903L197.951 99.3216L200.817 98.1764L200.005 96.1452Z" fill="#199675"/>
<path d="M204.736 94.2544L201.87 95.3995L202.682 97.4308L205.547 96.2857L204.736 94.2544Z" fill="#199675"/>
<path d="M209.468 92.3638L206.603 93.5089L207.414 95.5397L210.28 94.3945L209.468 92.3638Z" fill="#199675"/>
<path d="M214.199 90.4714L211.334 91.6166L212.146 93.6473L215.011 92.5022L214.199 90.4714Z" fill="#199675"/>
<path d="M218.931 88.5822L216.065 89.7273L216.877 91.7581L219.742 90.6129L218.931 88.5822Z" fill="#199675"/>
</g>
<path d="M211.203 76.1112C211.027 75.6718 211.241 75.1729 211.681 74.9972C212.12 74.8215 212.619 75.0356 212.795 75.475C212.97 75.9145 212.756 76.4134 212.317 76.589C211.878 76.7647 211.379 76.5512 211.203 76.1112Z" fill="white"/>
<path d="M210.492 88.063C210.316 87.6236 210.53 87.1247 210.97 86.949C211.409 86.7733 211.908 86.9874 212.084 87.4268C212.26 87.8662 212.046 88.3651 211.606 88.5408C211.167 88.7165 210.668 88.5024 210.492 88.063Z" fill="white"/>
<path d="M199.689 88.4906C199.514 88.0512 199.728 87.5523 200.167 87.3766C200.607 87.2009 201.105 87.415 201.281 87.8544C201.457 88.2939 201.243 88.7928 200.803 88.9684C200.364 89.1446 199.865 88.9306 199.689 88.4906Z" fill="white"/>
<path d="M192.908 98.9797C192.732 98.5403 192.946 98.0414 193.386 97.8657C193.825 97.6901 194.324 97.9041 194.5 98.3435C194.676 98.783 194.462 99.2819 194.022 99.4575C193.583 99.6332 193.084 99.4192 192.908 98.9797Z" fill="white"/>
<path d="M193.703 98.9792C193.645 98.9792 193.585 98.9629 193.531 98.9278C193.383 98.8327 193.341 98.6359 193.437 98.4884L200.219 87.9997C200.275 87.9132 200.37 87.8586 200.473 87.8549L210.988 87.4381L211.681 75.7739C211.692 75.5993 211.846 75.4685 212.017 75.4755C212.192 75.4863 212.326 75.6366 212.315 75.8117L211.605 87.763C211.596 87.9262 211.464 88.0548 211.3 88.0613L200.663 88.4829L193.97 98.8332C193.91 98.9278 193.808 98.9792 193.703 98.9792Z" fill="white"/>
<path d="M176.153 57.6944C175.326 62.065 174.808 71.0408 177.209 88.815H198.848C198.458 85.7324 196.91 69.2895 200.114 53.6379C200.114 53.6379 196.405 52.8936 192.87 52.7233C190.106 52.5898 186.102 52.5017 183.672 52.7239C182.657 52.8163 181.661 52.9628 180.774 53.1201C178.434 53.5335 176.594 55.3594 176.153 57.6944Z" fill="#263238"/>
<path opacity="0.2" d="M179.556 64.4248L175.492 64.7491C175.346 70.0083 175.708 77.6836 177.211 88.8127H177.405C179.843 80.7969 183.075 69.3381 179.556 64.4248Z" fill="black"/>
<path opacity="0.2" d="M189.875 182.357L190.082 187.186H194.129L193.922 182.357H189.875Z" fill="black"/>
<path d="M193.654 40.2586C192.615 44.1368 192.203 46.4599 189.81 48.0723C186.21 50.4981 181.728 47.7139 181.588 43.6033C181.461 39.9035 183.182 34.1827 187.344 33.4011C191.445 32.6309 194.693 36.3805 193.654 40.2586Z" fill="#7F3E3B"/>
<path d="M184.573 40.284L182.471 40.8305L184.427 35.7572C184.215 35.3702 183.658 33.6071 184.247 31.8439C184.402 31.3791 184.829 31.0645 185.319 31.0548C189.676 30.9699 194.23 33.4163 196.526 35.2654C196.968 35.6216 197.076 36.2491 196.781 36.7334C196.278 37.556 195.627 38.1857 194.807 39.0203C194.764 40.4408 192.445 46.8594 191.161 47.5799C189.877 48.3004 187.422 48.0079 186.769 46.8366C186.116 45.6664 183.908 44.1125 184.573 40.284Z" fill="#263238"/>
<path d="M186.518 40.3646C186.282 41.3894 185.637 42.2824 184.951 42.8223C183.92 43.6342 183.113 42.885 183.156 41.6916C183.194 40.6176 183.776 38.9014 184.929 38.5523C186.064 38.208 186.788 39.1928 186.518 40.3646Z" fill="#7F3E3B"/>
<path d="M223.512 190.535C223.509 190.015 223.577 189.514 223.809 189.344C223.89 189.285 224.029 189.238 224.228 189.349C224.34 189.412 224.416 189.514 224.454 189.652C224.642 190.324 223.845 191.743 223.811 191.803C223.791 191.837 223.752 191.856 223.712 191.85C223.673 191.845 223.642 191.814 223.633 191.775C223.58 191.517 223.515 191.019 223.512 190.535ZM224.292 189.888C224.292 189.821 224.285 189.759 224.269 189.704C224.244 189.615 224.2 189.554 224.134 189.517C224.015 189.449 223.956 189.475 223.922 189.499C223.662 189.689 223.662 190.712 223.773 191.463C223.964 191.087 224.295 190.361 224.292 189.888Z" fill="#199675"/>
<path d="M223.632 191.756C223.632 191.743 223.635 191.73 223.64 191.717C223.856 191.227 224.725 190.254 225.183 190.325C225.29 190.342 225.424 190.417 225.453 190.681C225.474 190.877 225.42 191.055 225.292 191.213C224.872 191.73 223.783 191.846 223.737 191.851C223.703 191.855 223.67 191.84 223.65 191.812C223.638 191.795 223.632 191.776 223.632 191.756ZM225.266 190.758C225.266 190.74 225.265 190.72 225.263 190.701C225.244 190.529 225.176 190.518 225.153 190.515C224.879 190.472 224.195 191.134 223.899 191.634C224.217 191.58 224.868 191.432 225.143 191.092C225.226 190.99 225.266 190.88 225.266 190.758Z" fill="#199675"/>
<path d="M223.693 191.783L219.745 192.062L217.527 182.618L221.475 182.339L223.693 191.783Z" fill="#7F3E3B"/>
<path d="M223.68 190.876L219.279 190.486C219.114 190.471 218.962 190.573 218.912 190.731L217.799 194.243C217.684 194.606 217.934 194.984 218.315 195.011C219.905 195.124 222.207 195.234 224.202 195.411C226.535 195.617 225.024 195.612 227.76 195.854C229.415 196 230.022 194.369 229.343 194.156C226.251 193.187 225.692 192.518 224.623 191.275C224.395 191.011 224.028 190.907 223.68 190.876Z" fill="#263238"/>
<path opacity="0.2" d="M217.529 182.621L218.671 187.489L222.621 187.209L221.479 182.341L217.529 182.621Z" fill="black"/>
<path d="M184.886 88.8145C184.886 88.8145 194.192 119.89 197.723 131.425C201.589 144.058 216.301 185.965 216.301 185.965L223.435 184.397C223.435 184.397 213.357 148.391 209.179 130.774C205.968 117.243 198.849 88.8145 198.849 88.8145H184.886Z" fill="#199675"/>
<path d="M215.047 183.759C215.015 183.763 215.749 186.546 215.749 186.546L224.329 185.624L224.29 183.074L215.047 183.759Z" fill="#263238"/>
<path opacity="0.3" d="M190.039 103.217C195.188 103.896 197.239 121.841 198.01 132.373C197.913 132.039 197.81 131.723 197.72 131.424C195.793 125.126 192.144 112.989 189.227 103.274C189.468 103.194 189.743 103.177 190.039 103.217Z" fill="black"/>
<path d="M177.208 88.8145C177.208 88.8145 180.329 119.079 181.674 131.4C183.072 144.216 188.322 186.251 188.322 186.251H195.176C195.176 186.251 194.345 144.983 194.069 132.38C193.768 118.64 191.432 88.8145 191.432 88.8145H177.208Z" fill="#199675"/>
<path d="M187.257 183.521C187.225 183.521 187.643 186.367 187.643 186.367H195.98L196.205 183.827L187.257 183.521Z" fill="#263238"/>
<path d="M147.941 117.289C151.513 122.955 159.003 124.652 164.669 121.08C170.335 117.508 172.032 110.019 168.46 104.353C164.888 98.6875 157.399 96.9886 151.733 100.56C146.067 104.132 144.369 111.623 147.941 117.289ZM166.837 105.376C169.843 110.145 168.415 116.449 163.646 119.456C158.876 122.464 152.571 121.034 149.565 116.265C146.557 111.495 147.987 105.191 152.757 102.183C157.526 99.1772 163.83 100.606 166.837 105.376Z" fill="#263238"/>
<path opacity="0.2" d="M167.324 112.889C166.182 117.928 161.171 121.086 156.133 119.944C151.093 118.802 147.934 113.791 149.076 108.752C150.218 103.713 155.229 100.553 160.269 101.695C165.308 102.838 168.467 107.849 167.324 112.889Z" fill="#199675"/>
<path d="M168.794 102.882L169.931 104.686C170.103 104.96 170.022 105.322 169.748 105.494C169.474 105.667 169.112 105.585 168.939 105.311L167.802 103.507C167.63 103.233 167.712 102.871 167.986 102.699C168.259 102.526 168.621 102.608 168.794 102.882Z" fill="#263238"/>
<path d="M176.149 97.7556C174.834 98.6529 173.531 99.5669 172.242 100.506C170.955 101.446 169.678 102.404 168.439 103.42C168.161 103.648 168.061 104.044 168.22 104.385C168.409 104.788 168.889 104.962 169.292 104.773C170.744 104.094 172.158 103.355 173.561 102.599C174.964 101.841 176.35 101.058 177.727 100.259C178.898 99.5782 180.06 98.8821 181.215 98.1767C181.548 97.9735 181.65 97.5356 181.442 97.2059L180.505 95.7206C180.297 95.3909 179.859 95.2941 179.532 95.5066C178.398 96.2444 177.269 96.9924 176.149 97.7556Z" fill="#263238"/>
<path d="M182.175 59.2085C181.514 62.4532 180.804 65.6865 180.066 68.9123L177.825 78.5632C177.1 81.709 176.479 84.9002 175.91 88.1357L174.209 97.8676L174.205 97.8897C174.06 98.72 173.27 99.2751 172.439 99.1302C171.716 99.0037 171.201 98.3859 171.177 97.68C171.06 94.3018 171.112 90.9609 171.302 87.5984C171.503 84.2467 171.813 80.8641 172.365 77.5005C172.892 74.1931 173.484 70.9236 174.118 67.6572C174.749 64.3926 175.435 61.1414 176.184 57.9042C176.566 56.2541 178.212 55.226 179.862 55.6071C181.484 55.9822 182.504 57.5864 182.175 59.2085Z" fill="#199675"/>
<path d="M173.744 96.9887C173.471 96.6995 173.059 96.579 172.672 96.6714L171.793 96.8811C171.343 96.9887 171.005 97.3627 170.945 97.8216L170.691 99.7729C170.618 100.332 170.737 100.899 171.029 101.382L172.235 103.379C172.553 103.799 173.085 103.998 173.6 103.888L174.859 103.621C175.647 103.454 176.118 102.641 175.869 101.874L175.54 100.857C175.54 100.857 175.52 98.867 173.744 96.9887Z" fill="#7F3E3B"/>
<path d="M186.386 57.3323C188.353 62.5504 181.549 69.9917 181.549 69.9917L172.94 67.1442C172.94 67.1442 173.599 60.0246 176.587 56.0108C180.278 51.0526 184.888 53.3606 186.386 57.3323Z" fill="#263238"/>
</svg>
