<svg width="144" height="28" viewBox="0 0 144 28" fill="none" xmlns="http://www.w3.org/2000/svg">
<g clip-path="url(#clip0_9955_15678)">
<mask id="mask0_9955_15678" style="mask-type:luminance" maskUnits="userSpaceOnUse" x="0" y="0" width="144" height="28">
<path d="M144 0H0V28H144V0Z" fill="white"/>
</mask>
<g mask="url(#mask0_9955_15678)">
<path d="M13.9616 6.77901V27.5791H5.8105V6.77901H0V0.226379H19.7721V6.77901H13.9616Z" fill="#199675"/>
<path d="M36.178 27.5791L34.5971 22.1887H27.0824L25.3988 27.5791H18.418L27.0824 0.226379H36.178L44.9451 27.5791H36.178ZM28.5402 16.2172H33.0983L30.8192 8.28191L28.5402 16.2172Z" fill="#199675"/>
<path d="M71.512 0.226379L63.3814 12.9308L72.8055 27.5791H62.8065L57.6325 18.9825L52.4174 27.5791H44.5332L53.5672 13.4118L44.9027 0.226379H54.9223L59.275 7.58056L63.792 0.226379H71.512Z" fill="#199675"/>
<path d="M83.2766 0.226379V27.5791H74.6738V0.226379H83.2766Z" fill="#199675"/>
<path d="M88.1836 27.5785V0.225769H99.0244C103.732 0.225769 107.257 1.5884 109.598 4.31366C111.938 7.03891 113.109 10.1916 113.109 13.7719C113.109 17.8598 111.849 21.1862 109.331 23.7511C106.826 26.3027 103.568 27.5785 99.5582 27.5785H88.1836ZM96.7864 21.2864H99.0244C100.447 21.2864 101.645 20.6117 102.617 19.2625C103.602 17.9132 104.095 16.0763 104.095 13.7518C104.095 11.7613 103.657 10.0447 102.781 8.60192C101.919 7.15914 100.666 6.43775 99.0244 6.43775H96.7864V21.2864Z" fill="#1F1F1F"/>
<mask id="mask1_9955_15678" style="mask-type:luminance" maskUnits="userSpaceOnUse" x="115" y="0" width="29" height="28">
<path d="M144 0H115.65V28H144V0Z" fill="white"/>
</mask>
<g mask="url(#mask1_9955_15678)">
<path d="M140.892 4.69209C140.889 4.68955 140.884 4.69209 140.887 4.69464C141.493 7.97275 141 9.64613 140.681 10.3175C140.472 10.76 140.04 11.0576 139.557 11.0754C139.542 11.0754 139.527 11.0754 139.51 11.0754C137.577 11.0754 135.669 10.6278 133.935 9.77075C132.656 9.13751 131.246 8.56276 129.828 8.57547C128.411 8.56276 127.001 9.13751 125.722 9.77075C123.985 10.6303 122.08 11.0754 120.147 11.0754C120.132 11.0754 120.115 11.0754 120.1 11.0754C119.615 11.0601 119.185 10.76 118.976 10.3175C118.657 9.64359 118.164 7.97275 118.77 4.69464C118.77 4.69209 118.765 4.68955 118.765 4.69209C116.8 7.16403 115.634 10.3099 115.651 13.7304C115.664 16.2837 116.332 18.6743 117.493 20.7419C118.783 23.0409 121.303 24.3353 123.895 24.0276C123.907 24.0251 123.92 24.0251 123.932 24.0225C121.183 22.4178 119.132 19.7297 118.353 16.5304C118.139 15.653 118.79 14.8011 119.685 14.8011H121.165C122.294 14.8011 123.372 15.269 124.148 16.0981L125.297 17.3239C126.815 18.9413 127.675 21.0852 127.662 23.3155C127.647 25.5738 123.686 25.5128 121.278 25.1008C121.276 25.1008 121.273 25.1059 121.276 25.1059C123.651 26.9242 126.612 28 129.826 28C133.045 28 136.009 26.9217 138.386 25.0983C135.978 25.5128 132.002 25.5789 131.99 23.3155C131.975 21.0852 132.837 18.9413 134.355 17.3239L135.503 16.0981C136.28 15.2716 137.358 14.8011 138.487 14.8011H139.967C140.862 14.8011 141.513 15.6505 141.299 16.5304C140.52 19.7246 138.472 22.4127 135.73 24.0174C135.727 24.02 135.727 24.0225 135.732 24.0225C135.742 24.0225 135.752 24.0251 135.762 24.0251C138.354 24.3328 140.872 23.0383 142.161 20.7444C143.322 18.6768 143.991 16.2837 144.003 13.7304C144.018 10.3099 142.852 7.16403 140.892 4.69209ZM129.826 15.9735C128.562 15.9735 127.536 14.9359 127.536 13.6567C127.536 12.3775 128.562 11.3399 129.826 11.3399C131.09 11.3399 132.116 12.3775 132.116 13.6567C132.116 14.9359 131.09 15.9735 129.826 15.9735Z" fill="#199675"/>
<path d="M119.439 8.3237C121.585 4.81671 125.415 2.47956 129.786 2.46431C129.799 2.46431 129.814 2.46431 129.826 2.46431C129.839 2.46431 129.854 2.46431 129.866 2.46431C134.235 2.47956 138.062 4.81417 140.209 8.31608C140.211 8.31862 140.214 8.31862 140.214 8.31353C140.216 8.28301 140.219 8.2525 140.221 8.21944C140.45 5.55168 139.06 3.01108 136.728 1.74714C134.674 0.633242 132.322 0 129.826 0C127.331 0 124.978 0.633242 122.922 1.74714C120.59 3.01108 119.2 5.55168 119.429 8.21944C119.431 8.25504 119.436 8.2881 119.439 8.3237Z" fill="#1F1F1F"/>
</g>
</g>
</g>
<defs>
<clipPath id="clip0_9955_15678">
<rect width="144" height="28" fill="white"/>
</clipPath>
</defs>
</svg>
