<svg version="1.2" xmlns="http://www.w3.org/2000/svg" viewBox="0 0 2560 1440" width="2560" height="1440">
	<title>6604812-ai</title>
	<defs>
		<clipPath clipPathUnits="userSpaceOnUse" id="cp1">
			<path d="m2560 1440.5h-2560v-1440h2560z"/>
		</clipPath>
	</defs>
	<style>
		tspan { white-space:pre } 
		.s0 { fill: #ffffff } 
		.s1 { fill: #9097a3 } 
		.s2 { fill: #999ea6 } 
		.s3 { fill: #000205 } 
		.s4 { fill: #ffc500 } 
		.s5 { fill: #000000 } 
		.s6 { fill: #343c45 } 
		.s7 { fill: #f52711 } 
		.s8 { fill: #61a601 } 
		.s9 { opacity: .1;fill: #2b3944 } 
		.s10 { fill: #495d69 } 
		.s11 { fill: #1d2930 } 
		.s12 { fill: none;stroke: #ffc500;stroke-miterlimit:10;stroke-width: 10 } 
		.s13 { fill: none;stroke: #ffc500;stroke-miterlimit:10;stroke-width: 10;stroke-dasharray: 60.5347,60.5347 } 
		.s14 { fill: #375a64 } 
		.s15 { fill: #199675 } 
		.s16 { fill: #595959 } 
		.s17 { fill: #2b3944 } 
	</style>
	<g id="BACKGROUND">
		<g id="&lt;Group&gt;">
			<path id="&lt;Path&gt;" class="s0" d="m2560 1440.5h-2560v-1440h2560z"/>
		</g>
	</g>
	<g id="OBJECTS">
		<g id="&lt;Clip Group&gt;" clip-path="url(#cp1)">
			<g id="&lt;Group&gt;">
				<path id="&lt;Path&gt;" class="s1" d="m2446.7 1308.7q-0.4 0.3-1 0.4l-50.8 13.5c-2.5 0.7-1.3 2.2 1.8 2.2h104.7c3 0 4.3-1.5 1.8-2.2l-51.8-14.4c-1.6-0.4-3.8-0.2-4.7 0.5z"/>
				<path id="&lt;Path&gt;" class="s2" d="m2455 1310.2h-9.2v-267.8h9.2z"/>
				<g id="&lt;Group&gt;">
					<g id="&lt;Group&gt;">
						<path id="&lt;Path&gt;" class="s3" d="m2480.3 1055.4h-59.9c-5.9 0-10.7-4.8-10.7-10.7v-175.9c0-6 4.8-10.8 10.7-10.8h59.9c6 0 10.8 4.8 10.8 10.8v175.9c0 5.9-4.8 10.7-10.8 10.7z"/>
					</g>
					<g id="&lt;Group&gt;">
						<g id="&lt;Group&gt;">
							<path id="&lt;Path&gt;" class="s4" d="m2450.4 979.5c-13 0-23.4-10.5-23.4-23.4 0-12.9 10.4-23.4 23.4-23.4 12.9 0 23.4 10.5 23.4 23.4 0 12.9-10.5 23.4-23.4 23.4z"/>
							<g id="&lt;Group&gt;" style="opacity: .2">
								<path id="&lt;Path&gt;" class="s0" d="m2451.9 973.5h-3.1c-7.7 0-14.4-3.8-18.6-9.5 3.3 7.9 11.1 13.5 20.2 13.5 9.1 0 16.9-5.6 20.2-13.5-4.2 5.7-11 9.5-18.7 9.5z"/>
							</g>
							<g id="&lt;Group&gt;" style="opacity: .2">
								<path id="&lt;Path&gt;" class="s5" d="m2450.4 932.7c-13 0-23.4 10.5-23.4 23.4q0 1.4 0.1 2.8c1.4-11.6 11.3-20.6 23.3-20.6 11.9 0 21.8 9 23.2 20.6q0.1-1.4 0.2-2.8c0-12.9-10.5-23.4-23.4-23.4z"/>
							</g>
							<path id="&lt;Path&gt;" class="s6" d="m2473.6 958.9c-0.1-3.4-0.8-6.6-2-9.5-1.2-2.9-2.9-5.5-5.1-7.7-4.3-4.3-10.2-6.8-16.1-6.8-6 0-11.9 2.5-16.2 6.8-2.2 2.2-3.9 4.8-5.1 7.7-1.2 2.9-1.9 6.1-2 9.5q-0.3-1.2-0.5-2.5c-0.1-0.8-0.1-1.7-0.1-2.5-0.1-0.9 0-1.7 0.1-2.6 0.1-0.8 0.2-1.7 0.4-2.5 0.8-3.4 2.4-6.6 4.6-9.4 2.2-2.8 5.1-5 8.3-6.6q0.3-0.1 0.6-0.3l0.6-0.2 1.3-0.5c0.4-0.2 0.9-0.3 1.3-0.4l1.3-0.3c0.9-0.2 1.8-0.3 2.7-0.5q1.3-0.1 2.7-0.1 1.3 0 2.7 0.1c0.8 0.2 1.7 0.3 2.6 0.5l1.3 0.3c0.5 0.1 0.9 0.2 1.3 0.4l1.3 0.5q0.6 0.2 1.2 0.5c3.3 1.6 6.1 3.9 8.3 6.6 2.3 2.8 3.9 6 4.6 9.4 0.2 0.8 0.3 1.7 0.4 2.5 0.1 0.9 0.2 1.7 0.2 2.6-0.1 0.8-0.1 1.7-0.2 2.5q-0.2 1.3-0.5 2.5z"/>
						</g>
						<g id="&lt;Group&gt;">
							<g id="&lt;Group&gt;">
								<path id="&lt;Path&gt;" class="s7" d="m2450.4 923.6c-13 0-23.4-10.5-23.4-23.4 0-12.9 10.4-23.4 23.4-23.4 12.9 0 23.4 10.5 23.4 23.4 0 12.9-10.5 23.4-23.4 23.4z"/>
							</g>
							<g id="&lt;Group&gt;" style="opacity: .2">
								<path id="&lt;Path&gt;" class="s0" d="m2451.9 917.6h-3.1c-7.7 0-14.4-3.7-18.6-9.5 3.3 7.9 11.1 13.5 20.2 13.5 9.1 0 16.9-5.6 20.2-13.5-4.2 5.8-11 9.5-18.7 9.5z"/>
							</g>
							<g id="&lt;Group&gt;" style="opacity: .2">
								<path id="&lt;Path&gt;" class="s5" d="m2450.4 876.8c-13 0-23.4 10.5-23.4 23.4q0 1.4 0.1 2.8c1.4-11.6 11.3-20.6 23.3-20.6 11.9 0 21.8 9 23.2 20.6q0.1-1.4 0.2-2.8c0-12.9-10.5-23.4-23.4-23.4z"/>
							</g>
							<path id="&lt;Path&gt;" class="s6" d="m2473.6 903c-0.1-3.3-0.8-6.5-2-9.4-1.2-2.9-2.9-5.6-5.1-7.7-4.3-4.4-10.2-6.9-16.1-6.8-6-0.1-11.9 2.4-16.2 6.8-2.2 2.1-3.9 4.8-5.1 7.7-1.2 2.9-1.9 6.1-2 9.4q-0.3-1.2-0.5-2.5c-0.1-0.8-0.1-1.6-0.1-2.5-0.1-0.8 0-1.7 0.1-2.5 0.1-0.9 0.2-1.7 0.4-2.6 0.8-3.4 2.4-6.6 4.6-9.3 2.2-2.8 5.1-5.1 8.3-6.6q0.3-0.2 0.6-0.3l0.6-0.3 1.3-0.4c0.4-0.2 0.9-0.3 1.3-0.4l1.3-0.4c0.9-0.2 1.8-0.3 2.7-0.4q1.3-0.1 2.7-0.2 1.3 0.1 2.7 0.2c0.8 0.1 1.7 0.2 2.6 0.4l1.3 0.4c0.5 0.1 0.9 0.2 1.3 0.4l1.3 0.4q0.6 0.3 1.2 0.6c3.3 1.5 6.1 3.8 8.3 6.6 2.3 2.7 3.9 5.9 4.6 9.3 0.2 0.9 0.3 1.7 0.4 2.6 0.1 0.8 0.2 1.7 0.2 2.5-0.1 0.9-0.1 1.7-0.2 2.5q-0.2 1.3-0.5 2.5z"/>
						</g>
						<g id="&lt;Group&gt;">
							<g id="&lt;Group&gt;">
								<path id="&lt;Path&gt;" class="s8" d="m2450.4 1035.3c-13 0-23.4-10.5-23.4-23.4 0-12.9 10.4-23.4 23.4-23.4 12.9 0 23.4 10.5 23.4 23.4 0 12.9-10.5 23.4-23.4 23.4z"/>
							</g>
							<g id="&lt;Group&gt;" style="opacity: .2">
								<path id="&lt;Path&gt;" class="s0" d="m2451.9 1029.3h-3.1c-7.7 0-14.4-3.7-18.6-9.5 3.3 7.9 11.1 13.5 20.2 13.5 9.1 0 16.9-5.6 20.2-13.5-4.2 5.8-11 9.5-18.7 9.5z"/>
							</g>
							<g id="&lt;Group&gt;" style="opacity: .2">
								<path id="&lt;Path&gt;" class="s5" d="m2450.4 988.5c-13 0-23.4 10.5-23.4 23.4q0 1.4 0.1 2.8c1.4-11.6 11.3-20.6 23.3-20.6 11.9 0 21.8 9 23.2 20.6q0.1-1.4 0.2-2.8c0-12.9-10.5-23.4-23.4-23.4z"/>
							</g>
							<path id="&lt;Path&gt;" class="s6" d="m2473.6 1014.7c-0.1-3.3-0.8-6.5-2-9.4-1.2-2.9-2.9-5.6-5.1-7.7-4.3-4.4-10.2-6.9-16.1-6.8-6-0.1-11.9 2.4-16.2 6.8-2.2 2.1-3.9 4.8-5.1 7.7-1.2 2.9-1.9 6.1-2 9.4q-0.3-1.2-0.5-2.5c-0.1-0.8-0.1-1.6-0.1-2.5-0.1-0.8 0-1.7 0.1-2.5 0.1-0.9 0.2-1.7 0.4-2.6 0.8-3.4 2.4-6.6 4.6-9.3 2.2-2.8 5.1-5.1 8.3-6.6q0.3-0.2 0.6-0.3l0.6-0.3 1.3-0.4c0.4-0.2 0.9-0.3 1.3-0.4l1.3-0.4c0.9-0.2 1.8-0.3 2.7-0.4q1.3-0.1 2.7-0.2 1.3 0.1 2.7 0.2c0.8 0.1 1.7 0.2 2.6 0.4l1.3 0.4c0.5 0.1 0.9 0.2 1.3 0.4l1.3 0.4q0.6 0.3 1.2 0.6c3.3 1.5 6.1 3.8 8.3 6.6 2.3 2.7 3.9 5.9 4.6 9.3 0.2 0.9 0.3 1.7 0.4 2.6 0.1 0.8 0.2 1.7 0.2 2.5-0.1 0.9-0.1 1.7-0.2 2.5q-0.2 1.3-0.5 2.5z"/>
						</g>
					</g>
				</g>
			</g>
			<path id="&lt;Path&gt;" class="s9" d="m2527.2 1211l-16.5-109.9h-43.8v-119h5.4v-10.8h-21.3v-46.3h-2.6v46.3h-14.7v-37.9h-2.6v37.9h-88.7v10.8h6.1v228.9h-101.3v-95.6h-57.7v-265.8h5.3v-13h-11.5v-16.7h-13.3v-6.3-19.1-16.5h-15.9v-29.6h-2-1.9v29.6h-8.6l-5.2 16.5h-34.9v25.4h-91.4v16.7h-11.5v13h5.3v173h-76.4v169.9l-84.9-37.6v-164.9h13.7v-12.1h-24v-32.9h-103.1v32.9h-33.7v-32.9h-17.3v32.9h-17.3v-32.9h-19v32.9h-39.9v12.1h6.1v221h-37.2v-414.1h3.5v-5.2h6.1v-14.3h-113.8v-15.9h3.7v-4.6h-62v4.6h3.7v15.9h-28.2v14.3h6.1v5.2h3.9v414.1h-30.8v-142.1h-156.4v142.1h-25.4v-458.6h-18.7v12l-34.7 8.5v-7.8h-18.8v12.4l-34.6 8.5v-9h-18.8v13.6l-34.7 8.4v-7.3h-18.8v11.9l-34.6 8.5v-6.3h-18.8v405.2h-26.4v-191.5h-97.9v150.1h-100.4v-128h-12.3v-42h7.3v-4.3h-32.4v-13.2h-3.5v13.2h-10.4v-67.8h-2.6v67.8h-13.5v4.3h7.9v42h-66.2v97.6h-64.4l-19.5 71.8h-81.8v-353.4h-89.4v-14.5h5.1v-5.1h-67.8v5.1h5.3v14.5 23.4 278h-42.1v-105h15v-9.5h-106.2v-63.5h-20.2v-13h-45.2v13h-36.8v226.6h-120.6v-168.1h-101.6v132.8h-21.9v133.6h21.9 29.7 15.8 56.1 120.6 36.8 45.2 20.2 79.2 12 42.1 70.8 34.8 41.2 165.7 38.3 64.6 22.8 102.1 27.4 95.2 9.4 9.4 34.6 18.8 34.7 15.7 3.1 34.6 18.8 29.8 4.9 9.4 9.3 25.4 129.3 18.4 8.7 38.9 68.4 62.6 29.4 45.7 113.4 119.9 1.2 84.9 47.4 29 18.3 141.9 25.4 30.4 27.3 101.3 75.3 15.4 27.7 168.5v-61.4-33.5z"/>
			<g id="&lt;Group&gt;">
				<g id="&lt;Group&gt;">
					<path id="&lt;Path&gt;" class="s10" d="m2560 1326.3h-2560v-18.6h2560z"/>
				</g>
				<g id="&lt;Group&gt;">
					<path id="&lt;Path&gt;" class="s11" d="m2560 1440h-2560v-113.7h2560z"/>
				</g>
				<g id="&lt;Group&gt;">
					<g id="&lt;Group&gt;">
						<path id="&lt;Path&gt;" class="s12" d="m18.4 1388.4h29.8"/>
						<path id="&lt;Path&gt;" class="s13" d="m108.8 1388.4h2391.1"/>
						<path id="&lt;Path&gt;" class="s12" d="m2530.1 1388.4h29.9"/>
					</g>
				</g>
			</g>
			<g id="&lt;Group&gt;">
				<g id="&lt;Group&gt;">
					<path id="&lt;Path&gt;" class="s4" d="m41.6 1341h85.9l-15.2-15.4-23.7-90.5h-8l-24.3 92.4z"/>
				</g>
				<path id="&lt;Path&gt;" class="s0" d="m74.5 1258.3l20.6 1.7 4.8 18.3-30.5-0.7z"/>
				<path id="&lt;Path&gt;" class="s0" d="m62.2 1305.1h44.7l5.4 20.5-56 1.9z"/>
			</g>
			<g id="&lt;Group&gt;">
				<g id="&lt;Group&gt;">
					<path id="&lt;Path&gt;" class="s14" d="m2223.8 1177.6h93c0 0 9.2 3.3 23.3 19.8l11.3 14.9c0 0 8.8 11.2-1.7 12h-169.5c0 0-8.9-3.6 0-12z"/>
					<g id="&lt;Group&gt;" style="opacity: .1">
						<path id="&lt;Path&gt;" class="s0" d="m2247.6 1177.6l-54.5 54.5q-6.6-0.4-12.9-0.9l53.5-53.5c4.4 0 9.1-0.1 13.9-0.1z"/>
						<path id="&lt;Path&gt;" class="s0" d="m2337.4 1177.6l-54.5 54.5q-6.6-0.4-12.9-0.9l53.5-53.5c4.4 0 9.1-0.1 13.9-0.1z"/>
						<path id="&lt;Path&gt;" class="s0" d="m2257.8 1178.4l-54 54.1q-1.9-0.1-3.8-0.2l55-55q1.3 0.5 2.8 1.1z"/>
						<path id="&lt;Path&gt;" class="s0" d="m2288 1178.4l-54 54.1q-1.9-0.1-3.8-0.2l55-55q1.3 0.5 2.8 1.1z"/>
					</g>
					<g id="&lt;Group&gt;">
						<path id="&lt;Path&gt;" class="s5" d="m2130.2 1262.1c-23.6 0.2-42.6 19.5-42.4 43.2 0.1 23.3 19.5 42.4 42.9 42.3 23.7-0.2 42.7-19.5 42.5-43.2-0.1-23.4-19.6-42.5-43-42.3z"/>
						<g id="&lt;Group&gt;">
							<path id="&lt;Path&gt;" class="s11" d="m2155.7 1304.8c0 14-11.3 25.2-25.2 25.2-13.9 0-25.2-11.2-25.2-25.2 0-13.9 11.3-25.2 25.2-25.2 13.9 0 25.2 11.3 25.2 25.2z"/>
						</g>
						<g id="&lt;Group&gt;">
							<path id="&lt;Path&gt;" class="s0" d="m2147.3 1304.8c0 9.3-7.5 16.8-16.8 16.8-9.3 0-16.8-7.5-16.8-16.8 0-9.2 7.5-16.7 16.8-16.7 9.3 0 16.8 7.5 16.8 16.7z"/>
						</g>
					</g>
					<g id="&lt;Group&gt;">
						<path id="&lt;Path&gt;" class="s5" d="m2342.2 1262.1c-23.7 0.2-42.6 19.5-42.5 43.2 0.1 23.3 19.5 42.4 43 42.3 23.6-0.2 42.6-19.5 42.5-43.2-0.2-23.4-19.6-42.5-43-42.3z"/>
						<g id="&lt;Group&gt;">
							<path id="&lt;Path&gt;" class="s11" d="m2367.6 1304.8c0 14-11.3 25.2-25.2 25.2-13.9 0-25.2-11.2-25.2-25.2 0-13.9 11.3-25.2 25.2-25.2 13.9 0 25.2 11.3 25.2 25.2z"/>
						</g>
						<g id="&lt;Group&gt;">
							<path id="&lt;Path&gt;" class="s0" d="m2359.2 1304.8c0 9.3-7.5 16.8-16.8 16.8-9.2 0-16.7-7.5-16.7-16.8 0-9.2 7.5-16.7 16.7-16.7 9.3 0 16.8 7.5 16.8 16.7z"/>
						</g>
					</g>
					<path id="&lt;Compound Path&gt;" fill-rule="evenodd" class="s15" d="m2427.6 1272.9q0 4.3-0.1 8.5c-0.5 19.7-19.4 34.6-38.8 30.8 4.9-30.2-17.7-54.3-44.5-55.5-27.3-1.2-53.6 22.8-48.5 55.6h-118.8c4.9-30.9-18.6-55.5-46.1-55.6-28.1-0.2-51.7 24.8-46.7 55.8-1.1 0-2.2 0.1-3.2 0-13.2-1.3-23.6-12.3-23.9-25.6-0.2-8.8-0.1-17.6 0-26.5 0.1-13.4 8.8-23.9 22-26.4 19.2-3.5 38.5-7.2 57.8-10.4 7.6-1.2 13.9-3.9 19.8-9 15.9-13.8 32.4-27 48.5-40.5 7-5.9 14.9-8.7 24-8.6 27 0.1 53.9 0.2 80.9-0.1 12.4-0.1 22.1 4.3 30.1 13.9 11 13.4 22.5 26.5 33.7 39.8 1.6 1.8 3.1 2.4 5.4 2.4q11.2-0.2 22.4-0.1c12.4 0.3 22.8 9.1 25.3 20.8q0.5 2.4 0.6 5c0.1 8.6 0.2 17.2 0.1 25.7zm-150.1-82.3c0-6-3.5-9.6-9.6-9.6-13.6-0.1-27.2-0.1-40.8 0.1-2.3 0-4.9 1-6.7 2.3-12.5 9.7-24.9 19.5-37.3 29.3-2 1.5-3.5 3.2-2.6 5.9 0.9 2.8 3.2 3 5.7 3 13.5-0.1 27.2-0.1 40.8-0.1v-0.1c13.4 0 26.9 0.1 40.4 0 6.8 0 10.1-3.4 10.1-10.2 0.1-6.9 0.1-13.7 0-20.6zm70.8 22.8c-8-9.7-16.1-19.3-24.5-28.7-1.8-1.9-4.9-3-7.6-3.6-3-0.6-6.1-0.2-9.2-0.1-5.2 0.2-8.7 3.7-8.8 8.9-0.1 7.6-0.2 15.2 0 22.7 0.1 5.2 3.7 8.7 9 8.8 6.3 0.1 12.7 0 19 0 6.2 0 12.3 0.2 18.4-0.1 1.7-0.1 4.1-1.3 4.9-2.7 0.7-1.2-0.1-3.9-1.2-5.2z"/>
					<path id="&lt;Path&gt;" class="s14" d="m2272.4 1242.2h-27.2c-1.6 0-2.9-1.3-2.9-2.9v-0.6c0-1.6 1.3-2.9 2.9-2.9h27.2c1.6 0 2.9 1.3 2.9 2.9v0.6c0 1.6-1.3 2.9-2.9 2.9z"/>
					<path id="&lt;Path&gt;" class="s0" d="m2427.6 1272.9l-5.9 1.4-11.9-32.1h17.1q0.5 2.4 0.6 5c0.1 8.6 0.2 17.2 0.1 25.7z"/>
					<g id="&lt;Group&gt;">
						<path id="&lt;Path&gt;" class="s16" d="m2078.7 1255.9c-5.2 6.9-13 9.7-17.3 6.4-4.4-3.3-3.7-11.6 1.5-18.4 5.3-6.9 13-9.7 17.4-6.4 4.4 3.4 3.6 11.6-1.6 18.4z"/>
						<path id="&lt;Path&gt;" class="s0" d="m2077.1 1254.3c-5.2 6.9-13 9.7-17.4 6.4-4.3-3.4-3.6-11.6 1.6-18.4 5.3-6.9 13-9.7 17.4-6.4 4.3 3.3 3.6 11.6-1.6 18.4z"/>
					</g>
				</g>
			</g>
			<g id="&lt;Group&gt;" style="opacity: .1">
				<g id="&lt;Group&gt;">
					<path id="&lt;Path&gt;" class="s17" d="m2746.1 653.9c1.4-3.4 2.3-7.1 2.3-11 0-15.1-12.2-27.3-27.2-27.3-4.1 0-8 1-11.5 2.6-2.8-4.3-7.7-7.1-13.2-7.1-2.4 0-4.7 0.6-6.8 1.6 0.1-0.5 0.2-1 0.2-1.6 0-6.4-4.9-11.6-11.1-12.3 1.2-2.2 1.9-4.8 1.9-7.5 0-8.7-7.1-15.8-15.9-15.8-3.5 0-6.7 1.2-9.4 3.1-3.4-12.4-14.7-21.5-28.2-21.5-9.6 0-18 4.7-23.4 11.8-2.8-9.6-11.7-16.5-22.2-16.5-10.7 0-19.7 7.3-22.3 17.2-2.2-1.4-4.8-2.3-7.6-2.3-2.2 0-4.3 0.6-6.1 1.6-0.1-5.8-4.4-10.6-9.9-11.6-2.4-6.8-9-11.7-16.7-11.7-9.7 0-17.7 7.9-17.7 17.6q0 0.1 0 0.2c-0.3-0.1-0.6-0.2-1-0.2-7.7 0-13.9 6.3-13.9 14 0 1.4 0.2 2.6 0.6 3.9-0.4-0.1-0.9-0.2-1.3-0.2-6 0-10.9 4.9-10.9 10.9 0 2.7 1 5 2.5 6.9-0.3 0-0.5-0.1-0.8-0.1-4.7 0-8.5 3.8-8.5 8.5q0 0.9 0.2 1.6c-4.3-3.7-9.9-6-16-6-10.1 0-18.7 6.1-22.4 14.8-2.3-1.2-5-1.9-7.7-1.9-9.6 0-17.4 7.8-17.4 17.4q0 0 0 0c-9 0.1-16.3 7.5-16.3 16.5 0 1.5 0.2 3 0.6 4.4z"/>
					<path id="&lt;Path&gt;" class="s17" d="m213.8 340.3c-1.6-11.9-10.3-21.6-21.8-24.4-5-15.4-19.4-26.5-36.4-26.5-8.8 0-16.8 3-23.3 7.9-0.6-21.4-18.2-38.6-39.7-38.6-16.3 0-30.3 9.8-36.5 23.8-6.5-6.1-15.3-9.8-24.9-9.8-19.3 0-35.1 14.9-36.5 33.9-4.3-1.9-9-3-13.9-3-9.1 0-17.3 3.5-23.5 9.3-5.4-7.4-14.1-12.1-23.9-12.1-11.6 0-21.6 6.6-26.5 16.3q-1.6-0.3-3.3-0.3c-11.9 0-21.5 9.6-21.5 21.5q0 1 0.1 2z"/>
					<path id="&lt;Path&gt;" class="s17" d="m1564.8 122.5c-1.5-11.9-10.3-21.5-21.7-24.4-5-15.4-19.4-26.5-36.5-26.5-8.8 0-16.8 3-23.3 7.9-0.6-21.4-18.1-38.6-39.7-38.6-16.3 0-30.3 9.8-36.4 23.8-6.6-6.1-15.3-9.8-25-9.8-19.3 0-35.1 14.9-36.5 33.9-4.2-1.9-8.9-2.9-13.9-2.9-9 0-17.3 3.5-23.5 9.2-5.4-7.3-14.1-12.1-23.9-12.1-11.6 0-21.6 6.6-26.5 16.3q-1.6-0.3-3.3-0.3c-11.9 0-21.5 9.7-21.5 21.5q0 1 0.1 2z"/>
				</g>
			</g>
		</g>
	</g>
	<g id="TEXTS">
		<g id="&lt;Group&gt;">
			<g id="&lt;Group&gt;">
			</g>
		</g>
		<g id="&lt;Group&gt;">
			<g id="&lt;Group&gt;">
			</g>
		</g>
		<g id="&lt;Group&gt;">
			<g id="&lt;Group&gt;">
			</g>
		</g>
		<g id="&lt;Group&gt;">
			<g id="&lt;Group&gt;">
				<g id="&lt;Group&gt;">
					<g id="&lt;Group&gt;">
						<g id="&lt;Group&gt;">
							<g id="&lt;Group&gt;">
							</g>
						</g>
					</g>
				</g>
			</g>
			<g id="&lt;Group&gt;">
				<g id="&lt;Group&gt;">
					<g id="&lt;Group&gt;">
						<g id="&lt;Group&gt;">
							<g id="&lt;Group&gt;">
							</g>
						</g>
					</g>
				</g>
			</g>
		</g>
	</g>
</svg>