<svg width="342" height="709" viewBox="0 0 342 709" fill="none" xmlns="http://www.w3.org/2000/svg">
<path d="M342 289.569C342 289.304 342 289.04 342 288.717V288.541C341.983 288.228 341.983 287.914 342 287.601C342 286.866 341.824 286.103 341.706 285.368V285.104C341.665 284.817 341.606 284.532 341.53 284.252V283.988C341.476 283.72 341.407 283.455 341.325 283.195V282.783L341.061 281.961V281.697L340.679 280.639V280.463C340.532 280.052 340.356 279.641 340.18 279.229C340.169 279.141 340.169 279.053 340.18 278.965C340.18 278.671 339.886 278.348 339.74 278.025L339.564 277.643L339.123 276.791C339.036 276.628 338.938 276.471 338.83 276.321C338.83 276.028 338.507 275.763 338.33 275.44L338.037 275.029C337.852 274.712 337.646 274.408 337.42 274.118C337.359 274.016 337.29 273.917 337.215 273.824L336.246 272.532C332.942 268.213 329.172 264.272 325.003 260.782C322.826 258.645 320.413 256.762 317.81 255.172V245.008C317.81 243.099 317.81 241.219 317.81 239.428V225.24V223.33V220.599V218.983V216.486V214.9V214.724C317.81 214.166 317.81 213.608 317.81 213.079V212.668C317.81 212.286 317.81 211.904 317.81 211.493V211.052C317.81 210.758 317.81 210.494 317.81 210.23V209.613C317.81 209.348 317.81 209.084 317.81 208.849C317.81 208.849 317.81 208.702 317.81 208.614V208.438V208.174V207.939V207.733V207.028V206.793V206.147V205.882V205.677L318.016 204.795V204.355V204.091V203.797V203.532V203.209V202.563V202.269V202.093V201.652V201.447C318.163 200.771 318.28 200.037 318.427 199.303V199.068V198.421V198.157V197.716V197.511V197.217V196.923V196.512V196.248C318.427 196.013 318.427 195.748 318.427 195.484C318.584 194.603 318.73 193.692 318.867 192.752V192.282V191.695V191.401V190.579V190.255V189.404V188.787V188.199C319.024 187.142 319.171 186.055 319.308 184.939V184.674V183.764V183.382V183V182.471V182.06V181.12V180.768V179.74V179.563C319.454 178.418 319.572 177.213 319.689 176.009V175.715V174.687V174.247V173.218V172.749V172.308V171.779V171.338V170.281V169.958L319.953 166.257V165.816V165.141V164.23V163.231V162.644V161.645V159.471C319.953 158.267 319.953 157.063 319.953 155.859V145.842V141.7V141.465C319.953 140.143 319.953 138.822 319.953 137.47V137.059C319.953 135.767 319.954 134.474 319.719 133.182V132.8C319.719 131.39 319.484 129.862 319.366 128.599C319.043 125.104 318.632 121.638 318.192 118.23C317.899 116.086 317.605 113.942 317.253 111.768V111.474C317.106 110.446 316.93 109.418 316.724 108.331V107.92C316.548 106.863 316.343 105.835 316.137 104.777V104.483C315.697 102.222 315.257 100.019 314.757 97.8743C314.493 96.7874 314.258 95.7299 313.994 94.643V94.3494C313.73 93.2038 313.436 92.0875 313.143 90.9713C312.292 87.6227 311.323 84.3035 310.207 81.1311C310.217 81.0629 310.217 80.9936 310.207 80.9254C309.884 79.8092 309.503 78.7224 309.15 77.6356C308.915 76.9306 308.681 76.1963 308.416 75.4619C307.36 72.5245 306.244 69.587 305.041 66.8846C304.776 66.2383 304.483 65.6216 304.189 64.946V64.7697C303.925 64.1529 303.631 63.536 303.338 62.9192V62.7723C302.369 60.7161 301.371 58.7187 300.402 56.8975L299.404 55.1058L299.257 54.8119L298.377 53.3138L298.171 52.9613C297.848 52.4326 297.555 51.9332 297.232 51.4632L297.085 51.2284C296.733 50.6409 296.351 50.0827 295.969 49.4658C295.177 48.2909 294.384 47.1453 293.562 46.0291L293.327 45.6766L292.359 44.3842L292.124 44.0905L291.214 42.9155L290.832 42.4748C290.509 42.0636 290.216 41.6818 289.893 41.3293L289.54 40.9181C289.159 40.4481 288.748 39.978 288.337 39.5374C287.867 39.038 287.427 38.5387 286.928 38.0393L286.722 37.8338L285.577 36.6588L285.254 36.3357C284.932 36.0126 284.609 35.6895 284.256 35.3957C284.697 34.9243 285.01 34.348 285.166 33.7214L284.198 32.8402L283.669 32.3995L282.642 31.5184L282.319 31.2247L280.91 30.1379C280.411 29.7302 279.891 29.3478 279.354 28.9922L279.031 28.7572L277.886 27.964L277.299 27.5529L276.213 26.8772L275.596 26.4953L274.51 25.8786L273.923 25.5554L272.778 24.9386H272.631L272.191 24.733C271.622 24.4042 271.034 24.11 270.429 23.8518C268.991 23.1468 267.494 22.4418 265.498 21.5899L265.145 21.4431L264.764 21.2669L260.008 19.2401L259.127 18.8876L254.342 16.9782L253.931 16.802H253.697L248.794 14.9808L243.745 13.2478H243.422H243.04L238.138 11.6615L237.433 11.4559L232.384 9.92855H232.149L226.894 8.48907L221.757 7.22601H221.258C219.614 6.81477 217.911 6.43305 216.238 6.08056H215.856C212.334 5.34621 208.84 4.67045 205.435 4.08297L200.356 3.29H200.092C198.389 3.02563 196.687 2.81989 195.043 2.61427C187.884 1.7351 180.679 1.28401 173.466 1.26318H171.235C168.006 1.26318 164.571 1.26314 161.048 1.58625L156.175 1.93873H155.94C154.296 1.93873 152.623 2.23242 150.979 2.43804C147.574 2.8199 144.051 3.31926 140.528 3.90673L135.391 4.7881H134.98L129.872 5.78671H129.49L124.206 6.96174L117.836 7.28482H117.63L112.464 8.69471H112.111H111.847L106.827 10.1634L106.093 10.369L101.044 12.014H100.839H100.574C98.7837 12.6015 97.0516 13.1889 95.4077 13.8058H95.2315C93.6169 14.3639 91.973 14.9808 90.153 15.6857H89.9768L89.3897 15.9208C87.8338 16.5083 86.2485 17.1252 84.5458 17.8302L83.8413 18.1238H83.6652C82.0212 18.7994 80.4067 19.4751 78.8215 20.18L78.4105 20.3563H78.1168C76.238 21.2081 74.5941 21.9424 73.0676 22.6768L71.3649 23.4993L71.042 23.6756H70.8365L69.721 24.2631L69.1632 24.5861L68.2531 25.1148L67.8421 25.3791H67.6074L66.668 25.9666L66.1102 26.3191L65.2295 26.9066L64.5836 27.3767L63.6736 27.9934L63.1452 28.3753L62.2939 29.0216L61.6774 29.5209L60.7967 30.2259H60.65L60.239 30.5784L59.3289 31.3715L59.1528 31.5184L58.8005 31.812L57.8317 32.7226L57.5674 32.9577C56.6574 33.8389 55.7474 34.7494 54.8667 35.66L54.6612 35.8657C54.3383 36.2475 54.0155 36.6 53.6632 36.9525L53.3695 37.2757L52.5476 38.2449L52.166 38.6856C51.8861 38.9854 51.6215 39.2991 51.3733 39.6256L50.9331 40.1837C50.6557 40.488 50.4005 40.812 50.1698 41.1531L49.7294 41.711C49.4652 42.0342 49.2303 42.3574 48.9661 42.7392L48.5844 43.2385C48.3202 43.591 48.0855 43.9436 47.8213 44.2667L47.4397 44.8249L46.7058 45.9117V46.0879L46.4709 46.4404L45.6782 47.6446V47.8209V48.0853C45.3553 48.5553 45.0618 49.0252 44.7976 49.4658V49.6421C43.7701 51.3164 42.772 53.1083 41.8619 54.9001V55.1058L41.0693 56.5745V56.9269L40.3647 58.3368L40.13 58.8067C39.9245 59.2473 39.6896 59.7174 39.4841 60.1874V60.4224V60.6573L38.8675 62.0086L38.6328 62.5373L38.0163 63.9472V64.2704C37.8108 64.7698 37.576 65.2396 37.3705 65.7683V65.9446V66.1502C37.1357 66.7083 36.9301 67.2372 36.6952 67.7659V68.089C36.4604 68.7059 36.1961 69.352 35.9613 69.9982C35.11 72.2306 34.2881 74.5806 33.4661 77.048V77.2243C33.0845 78.3992 32.7028 79.5743 32.3505 80.7786V80.9254C31.9983 82.0416 31.6753 83.1579 31.3817 84.2741C30.3836 87.9165 29.4442 91.6469 28.4461 95.4362V95.7005V98.3442C28.1819 99.4604 27.9471 100.577 27.7122 101.751C27.4774 102.966 27.2425 104.199 27.0077 105.453V105.658V105.864C26.5967 108.243 26.1858 110.652 25.8042 113.061V113.472C25.0703 118.319 24.4538 123.312 23.9841 128.159C23.9841 129.598 23.7197 131.096 23.6316 132.594V132.947C23.6316 134.386 23.4263 135.884 23.3675 137.235C23.3675 140.173 23.1326 143.11 23.1033 146.283V148.28C23.166 166.9 25.0142 185.471 28.6222 203.738V204.091V204.443L29.1506 206.999V207.263V207.439V207.733V208.056V208.232V208.702C29.1506 208.937 29.1506 209.143 29.1506 209.378V209.554V210.847V211.082V212.433V212.903V214.371V214.577V216.075V216.281C29.1506 216.81 29.1506 217.368 29.1506 217.984V220.334V222.126V254.026C26.095 255.689 23.2967 257.787 20.8429 260.254C16.674 263.744 12.9032 267.684 9.59946 272.003L8.63066 273.296L8.42514 273.589L7.80878 274.471L7.51511 274.941L7.0161 275.763L6.75182 276.262C6.57568 276.527 6.45836 276.791 6.31158 277.056L6.13545 277.437C5.96479 277.739 5.81751 278.053 5.69504 278.377V278.612C5.48891 279.02 5.31234 279.442 5.16665 279.875V280.11C5.16665 280.434 4.93181 280.757 4.81439 281.138V281.403C4.81439 281.667 4.81434 281.932 4.57949 282.225V282.666C4.50696 282.907 4.44816 283.152 4.40336 283.4C4.40336 283.4 4.40336 283.665 4.40336 283.812C4.40336 283.958 4.40339 284.37 4.25661 284.663V284.957C4.25661 285.31 4.25662 285.692 4.08048 286.044C3.90434 286.397 4.08048 286.808 4.08048 287.16V287.366C4.08048 287.659 4.08048 287.924 4.08048 288.188V288.453C4.06644 288.697 4.06644 288.942 4.08048 289.187V290.391C4.08048 290.685 4.08048 290.979 4.08048 291.273C4.16051 293.273 4.52626 295.251 5.16665 297.147C5.36499 297.716 5.70927 298.222 6.16484 298.616C6.35585 298.827 6.56177 299.023 6.7812 299.204C7.61627 299.864 8.65276 300.216 9.71683 300.202C10.0587 300.232 10.4026 300.232 10.7444 300.202C17.541 298.676 24.1617 296.452 30.5011 293.564V307.223C30.9708 339.181 31.7635 373.667 32.5854 397.313V399.369C32.5854 400.044 32.5854 400.72 32.5854 401.396C32.5854 402.071 32.5854 402.659 32.5854 403.217V405.273V406.33V407.094V408.739V410.972V411.97V412.822V413.468V414.731C32.5854 415.113 32.5854 415.495 32.5854 415.818V416.112V416.699V417.199V418.198V418.521V419.431V419.96C34.3175 446.015 29.6498 473.891 25.9509 496.332L25.5986 498.418C22.5307 518.965 21.4394 539.759 22.34 560.515V562.688V563.893V564.274V565.156V565.508C22.3544 565.684 22.3544 565.861 22.34 566.037V566.36V566.742V567.241V567.887V568.181V568.857V569.151V569.562V570.12V570.854V571.148V571.706V572.235V573.087V573.292V573.909V574.203V574.438V574.702V575.436V576.23V576.435V576.612L22.5455 577.669L22.7216 578.491V578.903L22.9565 580.048L23.2208 581.223V581.517L23.4263 582.486C23.4263 582.927 23.6317 583.338 23.7198 583.808C23.8079 584.278 23.9253 584.689 24.0427 585.159L24.2776 586.099V586.51C26.5703 596.115 29.4128 605.579 32.791 614.857C35.5211 624.814 45.1792 657.742 57.8905 674.192L58.683 675.161L58.8885 675.426L59.3877 675.984L59.6518 676.277V676.424L60.0334 676.865L60.3269 677.129L60.7967 677.599L61.1196 677.922L61.6774 678.451L62.0003 678.745L62.5874 679.274L63.0278 679.685L63.615 680.184L63.9379 680.448H64.114L64.7012 680.948L65.2002 681.33L65.8167 681.829L66.1396 682.064L66.3451 682.211L66.9908 682.71L67.5192 683.092L68.1946 683.562L68.6348 683.856L69.3393 684.326L69.721 684.59H69.8677L70.6016 685.06L71.1594 685.413L71.9227 685.883L72.4511 686.206L73.3025 686.705L73.8015 686.999L74.7115 687.498H74.8877L75.2106 687.704L76.0914 688.174L76.5022 688.38L77.471 688.85L77.97 689.143L78.9976 689.643L79.3205 689.819L80.4067 690.347L80.7002 690.495L81.8745 691.023H82.0212H82.2561L83.5184 691.581H83.6945L85.0744 692.169L86.6008 692.786C88.6264 693.579 90.7401 694.372 92.9418 695.135C94.6445 695.723 96.4058 696.31 98.1672 696.839H98.4608C121.453 703.515 145.299 706.781 169.239 706.533H169.679C193.413 706.773 217.056 703.567 239.87 697.015H240.193H240.574H241.073H241.308H241.66H242.101H242.394L243.334 696.722H243.569H243.774L244.89 696.34H245.242H245.624H245.858L246.651 696.046L247.385 695.782H247.649L248.383 695.517L248.911 695.312L249.88 694.93L250.614 694.636L251.553 694.284L252.199 694.019L253.109 693.637L253.697 693.373H253.843L254.753 692.991L255.458 692.668L256.338 692.286L256.75 692.11H257.072H257.278L257.894 691.816L258.599 691.464H258.775L261.681 691.699L262.356 691.346L263.179 690.935H263.443L263.854 690.729L264.646 690.318L265.145 690.054L265.879 689.643L266.554 689.261L267.142 688.938H267.288L267.905 688.585L268.463 688.262H268.639L269.255 687.88L269.96 687.469L270.576 687.058L271.251 686.647L271.839 686.235L272.426 685.853L273.013 685.471L273.659 685.001L274.07 684.708L274.686 684.267L275.215 683.856L275.684 683.503V683.356H275.89L276.213 683.092L276.682 682.71H276.858L277.211 682.417L277.739 681.947L278.15 681.594L278.561 681.242L278.913 680.919L279.442 680.419L279.765 680.096L280.176 679.685L280.44 679.42L282.231 677.012C282.303 676.901 282.392 676.802 282.495 676.718L282.935 676.16L283.141 675.925L283.933 674.926C292.916 663.177 300.402 643.437 305.099 628.75C312.77 611.056 318.375 592.536 321.803 573.557C321.803 573.204 321.803 572.881 322.008 572.528L322.184 571.471C322.184 571.148 322.184 570.854 322.331 570.56V570.237V569.562V569.385V569.092V568.622V568.328V568.152V567.623V567.359V566.948V565.391V565.068V564.539V564.098V561.66V560.691C323.259 539.936 322.178 519.14 319.102 498.594L318.838 497.155L318.486 494.922V494.57V493.924V492.984V492.543C318.486 492.073 318.486 491.603 318.251 491.104V490.928L318.104 489.958L317.781 488.078V487.373V486.933L317.429 484.7V484.201V483.848L317.223 482.527V481.91L317.077 481.029L316.754 478.914V478.385V478.238C316.754 477.269 316.46 476.329 316.343 475.301C313.327 456.86 312.235 438.156 313.084 419.49V418.521V417.728V417.522V416.406V413.468V412.088V410.619V409.708V407.153V401.278V399.339V397.166V395.932V395.021V393.2V392.084V390.792V390.586V388.53V388.295C313.084 386.767 313.084 385.357 313.084 383.595V383.272C313.084 381.656 313.084 380.011 313.231 378.337V377.162V373.05V372.844V367.527C313.789 346.055 314.258 322.086 314.523 299.967V295.796C314.523 295.267 314.523 294.739 314.523 294.239C320.533 296.852 326.773 298.898 333.164 300.349C333.506 300.379 333.849 300.379 334.191 300.349C335.257 300.373 336.297 300.019 337.127 299.35L337.714 298.763C338.187 298.379 338.543 297.87 338.741 297.294C339.457 295.162 339.843 292.934 339.886 290.685V289.54L342 289.569Z" fill="black"/>
<path d="M182.155 670.872C178.178 673.048 174.397 675.564 170.853 678.392C167.323 675.56 163.551 673.044 159.58 670.872L35.3743 612.125C35.3743 612.125 46.0014 653.836 60.474 672.576C74.9466 691.317 118.746 705.358 170.648 705.358L170.853 705.005L171.088 705.358C222.99 705.358 266.789 691.317 281.262 672.576C295.735 653.836 306.362 612.125 306.362 612.125L182.155 670.872Z" fill="url(#paint0_linear_5191_5384)"/>
<path d="M107.679 693.872C107.109 690.401 106.254 686.982 105.125 683.65L87.6871 647.873C87.6871 647.873 83.8121 641.058 78.7041 632.628L35.3743 612.066C35.3743 612.066 46.0014 653.777 60.474 672.517C67.9598 682.211 83.3131 690.641 103.598 696.546C105.683 696.487 107.914 695.929 107.679 693.872Z" fill="#199675"/>
<path d="M281.262 672.576C295.735 653.836 306.361 612.125 306.361 612.125L264.617 631.893C259.304 640.706 255.194 647.873 255.194 647.873L237.756 683.65C236.626 686.982 235.772 690.401 235.202 693.872C234.996 695.635 236.641 696.311 238.461 696.546C258.54 690.641 273.805 682.24 281.262 672.576Z" fill="#199675"/>
<path d="M105.125 683.65L101.778 676.747C100.281 677.386 99.0204 678.477 98.173 679.867C97.3256 681.257 96.9335 682.878 97.0516 684.502C97.0848 686.155 96.7334 687.793 96.0252 689.287C95.3171 690.78 94.2716 692.089 92.9712 693.109C96.3178 694.342 99.8699 695.517 103.598 696.604C105.682 696.604 107.913 695.929 107.679 693.872C107.108 690.401 106.254 686.982 105.125 683.65ZM246.034 684.502C246.159 682.85 245.753 681.202 244.877 679.797C244 678.392 242.699 677.303 241.161 676.689L237.785 683.65C236.656 686.982 235.801 690.401 235.231 693.872C235.026 695.635 236.67 696.311 238.49 696.546C242.424 695.371 246.181 694.137 249.763 692.786C248.549 691.777 247.576 690.51 246.916 689.077C246.256 687.643 245.924 686.08 245.946 684.502H246.034Z" fill="url(#paint1_linear_5191_5384)"/>
<path d="M43.447 632.128C43.447 632.128 55.7767 678.95 101.308 687.469L105.565 684.062C105.565 684.062 90.6813 661.502 89.3896 661.502C88.0979 661.502 43.447 632.128 43.447 632.128Z" fill="#DF0030"/>
<path d="M100.839 685.53C91.8792 683.75 83.3668 680.192 75.8038 675.066C68.2409 669.94 61.7808 663.351 56.8044 655.686C52.7092 649.714 49.3387 643.275 46.7644 636.505L64.9065 648.255C82.5203 659.769 87.0998 662.413 88.3915 662.942C89.8887 664.322 96.6993 674.133 103.07 683.504L100.751 685.354L100.839 685.53Z" fill="#900000"/>
<path d="M299.551 632.128C299.551 632.128 287.221 678.95 241.69 687.469L237.433 684.062C237.433 684.062 252.346 661.502 253.608 661.502C254.871 661.502 299.551 632.128 299.551 632.128Z" fill="#DF0030"/>
<path d="M242.189 685.53C251.148 683.75 259.661 680.192 267.224 675.066C274.787 669.94 281.247 663.351 286.223 655.686C290.33 649.721 293.701 643.28 296.263 636.505L278.15 648.255C260.39 659.769 255.957 662.413 254.489 662.942C253.021 664.322 246.181 674.133 239.958 683.504L242.277 685.354L242.189 685.53Z" fill="#900000"/>
<path d="M316.9 499.093C313.055 476.123 308.094 446.749 309.884 419.284C311.675 391.819 314.992 240.514 312.438 208.585C318.273 182.4 320.251 155.503 318.31 128.746C314.493 88.5329 301.107 41.9165 268.404 26.5833C235.701 11.2501 200.121 3.61279 172.673 3.61279H170.442C142.994 3.61279 107.268 11.2794 74.7116 26.5833C42.1556 41.8871 28.7691 88.5329 24.9528 128.746C22.9626 155.496 24.8912 182.393 30.6773 208.585C28.1233 240.514 31.3231 391.819 33.2313 419.284C35.1394 446.749 30.0607 476.123 26.2151 499.093C23.1921 519.378 22.1305 539.908 23.0447 560.397C23.6612 571.882 31.3231 613.417 50.4633 645.317C69.6036 677.217 106.093 684.913 106.093 684.913L168.006 669.58L161.635 449.275L171.675 254.907L181.715 449.275L175.345 669.58L237.257 684.913C237.257 684.913 273.629 677.247 292.77 645.317C311.91 613.388 319.572 571.882 320.218 560.397C321.065 539.903 319.954 519.375 316.9 499.093Z" fill="#199675"/>
<path d="M34.5229 163.232C40.8932 182.383 44.7388 258.374 44.7388 258.374L71.5411 132.594L70.2494 103.867L62.5875 71.2908L38.3392 70.0571C31.1035 88.9019 26.5958 108.684 24.9528 128.805C24.3656 134.68 24.1014 140.848 24.0427 146.723C28.8794 151.247 32.486 156.928 34.5229 163.232Z" fill="url(#paint2_linear_5191_5384)"/>
<path d="M306.743 75.1678C305.334 71.966 304.453 70.0273 304.453 70.0273L279.559 71.2904L271.897 103.866L270.635 132.594L297.437 258.373C297.437 258.373 301.254 182.383 307.653 163.231C309.807 156.443 313.74 150.357 319.043 145.607C319.043 140.026 318.721 134.356 318.163 128.628C316.598 110.402 312.762 92.442 306.743 75.1678Z" fill="url(#paint3_linear_5191_5384)"/>
<path d="M296.204 234.17C296.204 234.17 299.14 124.047 286.634 79.0162L258.746 44.5312L234.82 38.8032L224.311 109.683L257.806 204.502L282.7 233.23L296.204 234.17Z" fill="#199675"/>
<path d="M248.295 52.1387C248.295 52.1387 308.916 62.3607 278.943 197.07L248.295 52.1387Z" fill="#199675"/>
<path d="M247.708 56.0747C247.708 56.0747 298.494 64.7107 269.872 161.997L247.708 56.0747Z" fill="#199675"/>
<path d="M46.0306 234.17C46.0306 234.17 43.095 124.047 55.6008 79.0162L83.3424 44.5312L107.297 38.8032L117.836 109.683L84.3406 204.502L59.4464 233.23L46.0306 234.17Z" fill="#199675"/>
<path d="M93.9399 52.1387C93.9399 52.1387 33.3192 62.3607 63.292 197.07L93.9399 52.1387Z" fill="#199675"/>
<path d="M94.5271 56.0747C94.5271 56.0747 43.7408 64.7107 72.3631 161.997L94.5271 56.0747Z" fill="#199675"/>
<path d="M42.1847 536.78C42.1847 536.78 42.1847 537.661 42.0086 539.336C41.5683 550.028 41.5097 593.648 65.7873 654.893C65.7873 654.893 83.0193 670.873 95.1435 674.691C82.3342 654.573 71.6405 633.183 63.2333 610.861L42.1847 536.78Z" fill="url(#paint4_linear_5191_5384)"/>
<path d="M299.844 536.78C299.844 536.78 299.844 537.661 299.844 539.336C300.314 550.028 300.343 593.648 276.095 654.893C276.095 654.893 258.863 670.873 246.739 674.691C259.536 654.566 270.229 633.177 278.649 610.861L299.844 536.78Z" fill="url(#paint5_linear_5191_5384)"/>
<path d="M42.5666 500.445C42.5666 500.445 42.5667 510.96 58.83 577.052C75.0934 643.143 103.804 676.659 103.804 676.659L91.4154 360.595L56.9512 279.2C56.9512 279.2 33.0259 279.2 34.934 329.958C35.8734 355.043 34.7285 390.439 33.2901 419.813C35.1102 447.131 30.0608 476.27 26.2445 499.123C23.2216 519.408 22.1598 539.937 23.074 560.426C23.6905 571.911 31.3525 613.446 50.4928 645.346C54.2353 651.568 58.8191 657.242 64.1141 662.207C20.3733 570.707 42.5666 500.445 42.5666 500.445Z" fill="url(#paint6_linear_5191_5384)"/>
<path d="M292.652 645.317C311.792 613.417 319.455 571.882 320.1 560.397C320.987 539.907 319.915 519.379 316.9 499.093C315.697 491.867 314.376 483.995 313.172 475.77L311.44 473.626C311.44 473.626 304.718 380.716 306.655 329.958C308.593 279.2 284.638 279.2 284.638 279.2L250.174 360.595L237.727 676.659C237.727 676.659 266.437 643.143 282.7 577.052C298.964 510.96 298.993 500.445 298.993 500.445C298.993 500.445 321.568 572 276.213 664.704C282.693 659.163 288.243 652.617 292.652 645.317Z" fill="url(#paint7_linear_5191_5384)"/>
<path d="M26.5967 539.688C27.5361 488.93 39.8951 464.99 37.9869 430.505C36.0788 396.02 33.2313 349.11 33.2313 349.11L30.9416 350.079C31.6461 381.921 32.5267 409.121 33.2313 419.284C35.1688 446.749 30.0607 476.123 26.2151 499.093C23.1921 519.379 22.1305 539.908 23.0447 560.397C23.6612 571.794 31.1763 612.565 49.8762 644.348C42.0087 624.139 25.8922 578.11 26.5967 539.688ZM316.9 499.093C313.055 476.123 308.094 446.749 309.884 419.284C310.589 409.121 311.47 381.921 312.174 350.109C310.706 349.462 309.796 349.11 309.796 349.11C309.796 349.11 306.861 396.108 305.07 430.505C303.279 464.902 315.491 488.93 316.46 539.688C317.165 578.345 300.843 624.873 292.975 644.7C311.822 612.859 319.396 571.823 320.042 560.397C320.947 539.909 319.896 519.381 316.9 499.093Z" fill="url(#paint8_linear_5191_5384)"/>
<path d="M103.451 670.226C103.451 670.226 79.1737 632.04 69.6036 595.528C60.0335 559.017 57.4795 509.962 57.4795 509.962L51.6082 304.99L44.592 251.353C44.592 251.353 44.5921 222.626 56.7162 229.646C68.8403 236.666 109.029 323.643 109.029 323.643L120.771 656.186L103.451 670.226Z" fill="#199675"/>
<path d="M91.9436 640.206C91.9436 640.206 72.1576 611.478 64.4956 546.209L70.3668 552.084L74.8289 514.397C74.8289 514.397 86.2191 610.215 91.9436 640.206Z" fill="url(#paint9_linear_5191_5384)"/>
<path d="M110.438 359.773C98.1084 340.239 83.2249 316.799 81.7277 315.33C79.1737 312.774 64.4956 306.518 64.4956 308.309C64.4956 310.101 70.8659 423.749 70.8659 423.749C75.8942 504.983 85.8743 585.833 100.75 665.85C100.801 665.968 100.871 666.077 100.956 666.173L119.45 622.112L110.438 359.773Z" fill="url(#paint10_linear_5191_5384)"/>
<path d="M238.93 670.226C238.93 670.226 263.179 632.04 272.749 595.528C282.319 559.017 284.873 509.962 284.873 509.962L290.744 304.99L297.76 251.353C297.76 251.353 297.76 222.626 285.636 229.646C273.512 236.666 233.294 323.643 233.294 323.643L221.816 656.303L238.93 670.226Z" fill="#199675"/>
<path d="M250.408 640.206C250.408 640.206 270.195 611.478 277.857 546.209L271.985 552.084L267.553 514.427C267.553 514.427 256.162 610.215 250.408 640.206Z" fill="url(#paint11_linear_5191_5384)"/>
<path d="M231.944 359.773C244.273 340.239 259.157 316.799 260.625 315.33C263.179 312.774 277.857 306.518 277.857 308.309C277.857 310.101 271.486 423.867 271.486 423.867C266.425 505.097 256.445 585.946 241.602 665.967L241.396 666.29L222.873 622.229L231.944 359.773Z" fill="url(#paint12_linear_5191_5384)"/>
<path d="M46.1775 237.283C46.4417 237.577 46.9701 237.283 46.6765 236.901C43.5354 233.611 40.1888 230.468 36.7541 227.472C34.6111 225.592 32.3799 223.801 30.0608 222.126V222.89C32.3506 224.564 34.5231 226.356 36.6367 228.207C39.9246 231.085 43.1538 234.111 46.1775 237.283ZM105.271 657.801L76.3262 645.464C76.0472 641.984 76.0472 638.487 76.3262 635.007C77.4178 628.804 79.9186 622.935 83.6359 617.853C87.336 612.029 91.4673 606.491 95.9949 601.286C96.2591 600.962 95.7601 600.581 95.4959 600.904C92.9419 603.841 90.5346 606.779 88.2155 610.098C83.894 615.637 80.2661 621.684 77.4124 628.104C75.7497 632.811 75.08 637.812 75.4456 642.791C75.6643 648.989 76.2524 655.169 77.2069 661.297C77.8234 665.409 78.4986 669.522 79.2912 673.605L80.0251 674.045C78.616 666.995 77.5397 659.897 76.796 652.749C76.5612 650.516 76.3263 648.284 76.2089 646.022L104.978 658.301C105.038 658.305 105.098 658.292 105.151 658.264C105.205 658.236 105.249 658.194 105.28 658.142C105.31 658.09 105.326 658.031 105.324 657.971C105.323 657.91 105.304 657.852 105.271 657.801ZM50.0524 421.458L33.6423 433.501V434.295L50.434 421.987C50.5041 421.936 50.5512 421.86 50.565 421.774C50.5788 421.689 50.5581 421.602 50.5075 421.532C50.4569 421.461 50.3805 421.414 50.2952 421.401C50.2098 421.387 50.1224 421.407 50.0524 421.458ZM83.9882 45.706C90.2117 43.4149 96.4059 41.0062 102.717 38.8913C103.099 38.8913 102.718 38.1862 102.453 38.3037C96.1711 40.4187 89.977 42.8274 83.7534 45.1185C83.66 45.1497 83.5826 45.2167 83.5386 45.3048C83.4946 45.3929 83.4874 45.4949 83.5185 45.5884C83.5497 45.6819 83.6166 45.7593 83.7047 45.8034C83.7928 45.8475 83.8947 45.8546 83.9882 45.8235V45.706ZM253.08 609.951C250.761 606.779 248.354 603.694 245.77 600.757C245.506 600.434 245.007 600.757 245.271 601.139C249.799 606.351 253.94 611.888 257.66 617.706C261.366 622.791 263.857 628.66 264.94 634.86C265.278 638.336 265.337 641.833 265.116 645.317L236.2 657.654C235.819 657.831 236.2 658.418 236.435 658.242L265.234 645.964C265.234 648.225 264.881 650.458 264.646 652.69C263.854 660.21 262.68 667.759 261.153 675.161C261.407 675.042 261.652 674.904 261.887 674.75C262.797 670.285 263.56 665.762 264.206 661.238C265.16 655.11 265.749 648.931 265.968 642.732C266.333 637.753 265.663 632.753 264.001 628.045C261.109 621.629 257.441 615.591 253.08 610.069V609.951ZM313.025 220.804C310.039 222.861 307.204 225.128 304.541 227.59C301.097 230.586 297.79 233.729 294.619 237.019C294.355 237.313 294.854 237.694 295.148 237.401C298.083 234.228 301.371 231.203 304.688 228.324C307.27 226.009 309.996 223.86 312.849 221.891H313.025V220.804ZM238.608 39.0087C244.89 41.1236 251.113 43.5323 257.337 45.8235C257.41 45.8365 257.485 45.8239 257.55 45.7878C257.615 45.7517 257.665 45.6943 257.693 45.6254C257.721 45.5564 257.724 45.4801 257.701 45.4091C257.679 45.3382 257.633 45.277 257.572 45.236C251.348 42.9448 245.154 40.5361 238.842 38.4212C238.461 38.3037 238.197 38.8912 238.608 39.0087ZM291.243 421.458C290.92 421.223 290.539 421.722 290.862 421.987L309.503 435.646V434.823C303.397 430.476 297.31 426.021 291.243 421.458Z" fill="black"/>
<path d="M290.744 224.652C288.337 223.213 210.132 230.762 171.235 234.639C132.338 230.762 54.1328 223.213 51.7549 224.652C48.5551 226.561 46.647 236.137 46.647 236.137C46.647 236.137 52.5183 262.956 60.6793 290.421C68.8404 317.885 73.4492 395.139 76.0032 448.776C78.5572 502.413 91.9436 603.929 91.9436 603.929L105.359 685.031C128.316 694.607 171.088 693.344 171.088 693.344L171.235 692.227L171.411 693.344C171.411 693.344 214.154 694.607 237.14 685.031L250.526 603.929C250.526 603.929 263.942 502.413 266.466 448.776C268.991 395.139 273.512 317.885 281.79 290.421C290.069 262.956 295.823 236.137 295.823 236.137C295.823 236.137 293.973 226.444 290.744 224.652Z" fill="url(#paint13_linear_5191_5384)"/>
<path d="M105.36 684.913C128.316 694.489 171.088 693.226 171.088 693.226L171.235 692.11L171.411 693.226C171.411 693.226 214.154 694.489 237.14 684.913L248.588 615.532H93.8813L105.36 684.913Z" fill="url(#paint14_linear_5191_5384)"/>
<path d="M295.823 236.02C295.823 236.02 293.915 226.444 290.744 224.535C288.337 223.096 210.132 230.645 171.235 234.522C132.338 230.645 54.1328 223.096 51.7549 224.535C48.5551 226.444 46.647 236.02 46.647 236.02C46.647 236.02 52.5183 262.839 60.6793 290.303C65.6112 306.576 69.1632 340.239 71.8053 376.34C112.405 375.899 218.88 374.842 270.752 375.37C273.365 339.769 276.917 306.43 281.79 290.186C290.098 262.839 295.823 236.02 295.823 236.02Z" fill="url(#paint15_linear_5191_5384)"/>
<path d="M89.3897 488.196C88.8417 480.225 88.2741 472.265 87.6869 464.315C86.3953 445.907 85.0841 427.489 83.7533 409.062L79.3499 347.083C78.3322 332.396 77.295 317.709 76.2381 303.022C76.0326 300.466 75.8565 297.911 75.6804 295.385C75.6804 295.299 75.6463 295.217 75.5857 295.156C75.5252 295.096 75.4431 295.062 75.3575 295.062C75.2718 295.062 75.1896 295.096 75.129 295.156C75.0685 295.217 75.0344 295.299 75.0344 295.385C75.6215 303.374 76.1892 311.345 76.7371 319.295C78.068 337.703 79.3793 356.12 80.6709 374.548L85.0744 436.527C86.1312 451.214 87.1781 465.901 88.2153 480.588L88.7439 488.225C88.7439 488.636 89.419 488.548 89.3897 488.225V488.196Z" fill="black"/>
<path d="M252.023 488.196C252.581 480.235 253.168 472.275 253.726 464.315C255.057 445.907 256.368 427.489 257.66 409.062L262.063 347.083C263.081 332.396 264.128 317.709 265.204 303.022L265.733 295.385C265.733 295.299 265.767 295.217 265.827 295.156C265.888 295.096 265.97 295.062 266.056 295.062C266.141 295.062 266.223 295.096 266.284 295.156C266.345 295.217 266.378 295.299 266.378 295.385C265.821 303.374 265.234 311.335 264.676 319.295C263.365 337.703 262.053 356.12 260.742 374.548L256.339 436.527C255.282 451.214 254.235 465.901 253.198 480.588L252.669 488.225C252.669 488.636 251.994 488.548 252.023 488.225V488.196Z" fill="black"/>
<path d="M24.9529 128.746C22.9627 155.496 24.8913 182.393 30.6774 208.585C29.4738 223.595 29.5619 265.012 30.1784 307.546C32.1452 289.128 34.7873 270.329 35.169 259.02C35.8946 237.446 35.0409 215.847 32.6148 194.397C30.0608 173.835 26.2152 148.427 26.2152 148.427C26.2152 117.79 38.9852 57.7492 70.8954 36.0419C99.6352 16.4788 150.686 5.7279 160.491 3.73047C130.756 5.97744 101.684 13.6532 74.7117 26.3779C42.185 41.9167 28.7692 88.5332 24.9529 128.746ZM318.163 128.746C314.347 88.5332 300.96 41.9167 268.257 26.5835C241.719 14.0764 213.153 6.43563 183.917 4.02432C194.779 6.16862 244.714 16.8901 273.042 36.1595C304.953 57.8669 316.431 121.109 316.431 151.746C316.431 151.746 313.877 174.1 311.323 194.515C308.882 215.963 308.028 237.563 308.769 259.137C309.092 268.86 311.088 284.164 312.908 299.997C313.407 260.254 313.407 222.802 312.292 208.702C318.138 182.48 320.116 155.542 318.163 128.746Z" fill="url(#paint16_linear_5191_5384)"/>
<path d="M287.662 218.778H287.427L170.883 188.258L54.3091 218.778H54.0744C53.922 218.829 53.7569 218.829 53.6046 218.778C53.4975 218.715 53.4054 218.631 53.3344 218.529C53.2634 218.428 53.2153 218.312 53.1935 218.19C53.1935 217.896 48.2618 188.816 66.8443 126.249C83.3131 70.762 96.4354 37.0406 103.745 31.2833C107.649 28.3459 129.344 12.8071 170.853 12.8071C212.363 12.8071 234.087 28.199 238.02 31.2833C245.33 37.1581 258.423 70.762 274.892 126.249C293.474 188.728 288.601 217.896 288.543 218.19C288.488 218.433 288.341 218.644 288.131 218.778C287.98 218.831 287.814 218.831 287.662 218.778Z" fill="black"/>
<path d="M274.041 126.426C255.311 63.4183 243.393 36.5999 237.463 31.9C231.533 27.2002 209.574 13.6001 170.883 13.6001C132.191 13.6001 110.262 27.2296 104.303 31.9C98.3435 36.5705 86.4542 63.4183 67.7249 126.426C48.9956 189.433 54.1036 217.926 54.1036 217.926L170.912 187.347L287.691 217.926C287.691 217.926 292.77 189.403 274.041 126.426Z" fill="url(#paint17_linear_5191_5384)"/>
<path d="M268.375 126.426C250.761 63.4183 239.429 36.5999 233.793 31.9C228.157 27.2002 207.372 13.6001 170.883 13.6001C134.305 13.6001 113.609 27.2296 107.972 31.9C102.336 36.5705 91.0923 63.4183 73.3905 126.426C55.6887 189.433 60.5031 217.926 60.5031 217.926L170.912 187.347L281.291 217.926C281.291 217.926 286.076 189.403 268.375 126.426Z" fill="url(#paint18_linear_5191_5384)"/>
<path d="M59.417 207.292C59.417 207.292 82.902 153.655 170.442 153.655C257.982 153.655 283.405 208.585 283.405 208.585L183.829 216.251L60.0335 209.965L59.417 207.292Z" fill="url(#paint19_linear_5191_5384)"/>
<path d="M175.492 23.6168C174.993 22.7812 174.335 22.0526 173.554 21.4728C172.773 20.893 171.885 20.4735 170.941 20.2388H170.677C169.731 20.4674 168.84 20.8844 168.059 21.4647C167.277 22.0451 166.62 22.777 166.127 23.6168V27.8467H166.626V24.0868C167.042 23.2815 167.614 22.5679 168.31 21.9877C169.006 21.4075 169.811 20.9727 170.677 20.7089C171.549 20.9692 172.36 21.4025 173.061 21.9829C173.762 22.5632 174.339 23.2786 174.758 24.0868V27.8467H175.257L175.492 23.6168Z" fill="#199675"/>
<path d="M174.992 24.2628C174.573 23.4547 173.996 22.7391 173.295 22.1588C172.594 21.5784 171.784 21.1451 170.912 20.8848C170.046 21.1486 169.241 21.5834 168.545 22.1636C167.849 22.7438 167.276 23.4576 166.861 24.2628V28.0226H167.154V24.909C167.542 24.1571 168.077 23.4911 168.727 22.951C169.378 22.411 170.131 22.0079 170.941 21.7659C171.752 22.0079 172.504 22.411 173.155 22.951C173.806 23.4911 174.341 24.1571 174.728 24.909V28.2577H175.022L174.992 24.2628Z" fill="#B57300"/>
<path d="M170.912 21.6191C170.102 21.8611 169.349 22.2641 168.698 22.8042C168.047 23.3443 167.512 24.0103 167.125 24.7622V28.1109C169.636 28.7772 172.277 28.7772 174.787 28.1109V24.909C174.406 24.1208 173.864 23.4211 173.197 22.8546C172.529 22.2881 171.751 21.8672 170.912 21.6191Z" fill="#EBDE50"/>
<path d="M82.6082 41.3877C77.1928 44.5082 71.6172 47.3418 65.9045 49.8768C58.3565 52.9911 51.1218 56.8172 44.2984 61.3033C41.5389 66.7081 38.9556 72.0247 38.9556 72.0247C38.9556 72.0247 35.7557 81.5713 46.0597 82.4819C56.3637 83.3924 76.5022 77.077 81.757 61.7438C84.6926 53.5191 85.5438 45.9113 83.8705 40.6533L82.6082 41.3877Z" fill="black"/>
<path d="M38.9852 71.6137C38.5043 72.7331 38.319 73.9574 38.4472 75.1691C38.5753 76.3808 39.0125 77.5393 39.717 78.5332C40.4214 79.5271 41.3696 80.3231 42.47 80.8449C43.5705 81.3666 44.7865 81.5967 46.0014 81.5127C56.2174 82.1589 75.6806 75.6379 81.2289 60.9509C86.7772 46.2639 86.0138 34.1324 74.8291 33.1925C63.6443 32.2525 51.5496 47.8794 48.0268 54.2536C44.5041 60.6277 38.9852 71.6137 38.9852 71.6137Z" fill="#199675"/>
<path d="M78.9684 35.9536C80.0252 40.2128 75.7686 41.2703 67.0498 43.6202C56.7751 46.3813 46.1775 58.7185 43.7703 62.214C41.2457 67.1194 38.9852 71.6137 38.9852 71.6137C38.5043 72.7331 38.319 73.9573 38.4472 75.1691C38.5753 76.3808 39.0125 77.5393 39.717 78.5332C40.4214 79.5271 41.3696 80.3231 42.47 80.8449C43.5705 81.3666 44.7865 81.5967 46.0014 81.5127C55.5422 82.1002 73.1558 76.5779 79.849 63.8883C80.4362 62.214 81.0527 60.3634 81.7279 58.3366C87.0707 42.3571 78.9684 35.9536 78.9684 35.9536Z" fill="#199675"/>
<path d="M81.0524 47.674C80.1718 48.7903 79.3204 49.9358 78.4985 51.0813C78.293 51.4338 78.7922 51.8157 79.027 51.4926C79.7022 50.4939 80.4361 49.4952 81.1994 48.5552C82.0551 47.2568 83.116 46.1061 84.3405 45.1479C84.3558 44.9034 84.3558 44.6581 84.3405 44.4136C83.0681 45.3065 81.9562 46.409 81.0524 47.674Z" fill="black"/>
<path d="M71.6293 37.6577C71.6293 37.9238 71.5768 38.1874 71.475 38.4333C71.3732 38.6792 71.2241 38.9025 71.036 39.0907C70.848 39.2789 70.6246 39.4283 70.3788 39.5301C70.1331 39.632 69.8697 39.6845 69.6037 39.6845C69.0665 39.6845 68.5512 39.4708 68.1714 39.0907C67.7915 38.7106 67.5781 38.1952 67.5781 37.6577C67.5781 37.1201 67.7915 36.6046 68.1714 36.2245C68.5512 35.8444 69.0665 35.6309 69.6037 35.6309C70.1409 35.6309 70.6562 35.8444 71.036 36.2245C71.4159 36.6046 71.6293 37.1201 71.6293 37.6577Z" fill="black"/>
<path d="M70.8659 37.4517C70.8698 37.6393 70.8362 37.8259 70.7671 38.0003C70.6981 38.1748 70.5949 38.3337 70.4636 38.4677C70.3324 38.6018 70.1759 38.7082 70.003 38.7809C69.8301 38.8536 69.6444 38.8911 69.4568 38.891C69.0675 38.891 68.6941 38.7362 68.4189 38.4607C68.1436 38.1853 67.989 37.8118 67.989 37.4223C67.989 37.0328 68.1436 36.6592 68.4189 36.3837C68.6941 36.1083 69.0675 35.9536 69.4568 35.9536C69.6495 35.9532 69.8401 35.9924 70.0171 36.0687C70.1941 36.145 70.3536 36.2568 70.4857 36.3972C70.6177 36.5376 70.7197 36.7036 70.7851 36.885C70.8505 37.0664 70.8779 37.2593 70.8659 37.4517Z" fill="#199675"/>
<path d="M80.4654 59.5704L81.434 57.9843C82.1973 52.4033 81.4341 45.1184 72.1575 44.4722C72.1575 44.4722 63.3507 57.0444 62.8223 57.4556L40.0418 71.7019C39.4479 73.5108 39.0733 75.3847 38.9263 77.283C39.2039 78.0072 39.6119 78.6742 40.13 79.251C48.0443 80.3246 56.0989 79.0281 63.2776 75.5255C70.4562 72.0229 76.4372 66.471 80.4654 59.5704Z" fill="#199675"/>
<path d="M46.0014 81.513C55.8357 82.1298 74.2126 76.2256 80.4068 62.7135C80.8729 61.1666 81.2164 59.5853 81.4342 57.9844L80.4655 59.5705C76.4373 66.4711 70.4564 72.0229 63.2777 75.5256C56.0991 79.0282 48.0444 80.3246 40.1301 79.2511C41.7219 80.7353 43.8258 81.5459 46.0014 81.513Z" fill="#199675"/>
<path d="M40.2474 71.2907C40.2474 71.2907 36.754 79.2805 53.6632 76.0787C70.5724 72.877 81.1112 59.4825 79.4966 50.2296C77.882 40.9768 61.8829 44.1493 52.6944 55.6345C43.5059 67.1198 40.2474 71.2907 40.2474 71.2907Z" fill="#199675"/>
<path d="M54.7788 72.4656C60.65 74.6393 67.9597 69.5281 71.0421 61.1859C72.1566 58.5913 72.6317 55.7668 72.4273 52.9501C72.2229 50.1334 71.3451 47.4073 69.8678 45.001C63.0666 46.4016 56.982 50.1692 52.6944 55.6343C51.0505 57.7199 49.5827 59.5411 48.291 61.1273C48.3791 66.5027 50.7276 70.9675 54.7788 72.4656Z" fill="#199675"/>
<path d="M39.9536 71.1735C39.6685 71.8475 39.5725 72.5866 39.6759 73.3113C39.7794 74.0359 40.0784 74.7187 40.5408 75.2859C41.7535 76.3995 43.3282 77.036 44.9736 77.0777C48.5729 77.3086 52.1854 76.9312 55.6593 75.9614C62.5748 74.3545 68.8703 70.7606 73.7721 65.6217C75.6949 63.7689 77.2323 61.5536 78.2954 59.1035C79.3585 56.6533 79.9263 54.0168 79.9662 51.346C79.8898 49.502 79.0938 47.7615 77.7491 46.4983C76.4043 45.2351 74.6181 44.55 72.7741 44.59C67.4079 44.6606 62.2278 46.568 58.0959 49.9948C55.4024 52.1557 52.9866 54.6421 50.9036 57.3971L44.4452 65.3869C42.9481 67.2668 41.5095 69.1759 39.9536 71.0853C39.8991 71.1515 39.8732 71.2367 39.8814 71.3221C39.8897 71.4075 39.9315 71.4861 39.9977 71.5406C40.0639 71.5952 40.1491 71.6212 40.2344 71.6129C40.3197 71.6046 40.3983 71.5628 40.4528 71.4965C42.3903 68.9704 44.3866 66.4736 46.3241 63.9768C51.4321 57.5439 56.1584 50.8174 63.9378 47.2044C68.2532 45.1482 76.4434 43.1213 78.8506 48.9667C81.0524 54.2834 77.1775 60.7164 73.8308 64.6525C70.3341 68.4263 66.0836 71.4225 61.355 73.4466C56.6264 75.4708 51.5252 76.4777 46.3827 76.4021C43.5938 76.4021 38.9555 75.0508 40.5114 71.2909C40.7169 71.0265 40.1298 70.7916 39.9536 71.1735Z" fill="black"/>
<path d="M60.6795 60.1578C69.4863 55.3698 72.5686 59.7759 72.9796 64.3583C73.3905 59.2178 71.0422 52.3443 60.6795 57.8959C47.5866 64.9457 47.9094 75.7848 47.9094 75.7848L48.1149 75.9904C48.8188 72.5492 50.3232 69.3223 52.5062 66.5715C54.6891 63.8208 57.4893 61.6235 60.6795 60.1578Z" fill="#199675"/>
<path d="M53.6631 76.0787C60.8203 74.7833 67.4312 71.3889 72.6565 66.3265C72.8139 65.6697 72.9218 65.0021 72.9794 64.3291C72.5684 59.7468 69.6036 55.3407 60.6793 60.1287C57.4891 61.5944 54.689 63.7916 52.506 66.5424C50.323 69.2932 48.8186 72.5201 48.1147 75.9613L48.9074 76.725C50.5048 76.6108 52.0932 76.3948 53.6631 76.0787Z" fill="#199675"/>
<path d="M42.5078 68.7349C42.4958 68.6079 42.4958 68.48 42.5078 68.353L40.1885 71.2904C40.1885 71.2904 36.6952 79.2802 53.6043 76.0784C56.127 75.6023 58.5955 74.8741 60.9728 73.9048C58.5362 74.5216 40.7171 78.5458 42.5078 68.7349Z" fill="black"/>
<path d="M259.069 41.3877C264.471 44.5139 270.037 47.3477 275.743 49.8768C283.3 52.991 290.545 56.8171 297.378 61.3033C300.109 66.7081 302.692 72.0247 302.692 72.0247C302.692 72.0247 305.921 81.5713 295.588 82.4819C285.254 83.3924 265.145 77.077 259.891 61.7438C256.955 53.5191 256.133 45.9113 257.777 40.6533L259.069 41.3877Z" fill="black"/>
<path d="M302.78 71.6137C303.261 72.7331 303.446 73.9574 303.318 75.1691C303.19 76.3808 302.752 77.5393 302.048 78.5332C301.344 79.5271 300.396 80.3231 299.295 80.8449C298.195 81.3666 296.979 81.5967 295.764 81.5127C285.577 82.1589 266.114 75.6379 260.536 60.9509C254.959 46.2639 255.751 34.1324 266.907 33.1925C278.062 32.2525 290.215 47.8794 293.709 54.2536C297.202 60.6277 302.78 71.6137 302.78 71.6137Z" fill="#199675"/>
<path d="M262.709 35.9536C261.652 40.2128 265.909 41.2703 274.627 43.6202C284.931 46.3813 295.5 58.7185 297.907 62.214C300.461 67.1194 302.692 71.6137 302.692 71.6137C303.173 72.7331 303.358 73.9573 303.23 75.1691C303.102 76.3808 302.665 77.5393 301.96 78.5332C301.256 79.5271 300.308 80.3231 299.207 80.8449C298.107 81.3666 296.891 81.5967 295.676 81.5127C286.135 82.1002 268.521 76.5779 261.828 63.8883C261.241 62.214 260.624 60.3634 259.949 58.3366C254.636 42.3571 262.709 35.9536 262.709 35.9536Z" fill="#199675"/>
<path d="M260.625 47.674C261.535 48.7903 262.386 49.9358 263.179 51.0813C263.413 51.4338 262.914 51.8157 262.68 51.4926C261.975 50.4939 261.241 49.4952 260.507 48.5552C259.632 47.2628 258.563 46.1136 257.337 45.1479C257.337 44.8836 257.337 44.6486 257.337 44.4136C258.622 45.2904 259.737 46.3954 260.625 47.674Z" fill="black"/>
<path d="M270.048 37.6577C270.048 38.0585 270.167 38.4503 270.389 38.7836C270.612 39.1169 270.928 39.3767 271.298 39.5301C271.668 39.6835 272.076 39.7236 272.469 39.6454C272.862 39.5672 273.222 39.3741 273.506 39.0907C273.789 38.8072 273.982 38.4462 274.06 38.053C274.138 37.6598 274.098 37.2523 273.945 36.8819C273.792 36.5116 273.532 36.1951 273.199 35.9724C272.866 35.7497 272.474 35.6309 272.073 35.6309C271.536 35.6309 271.021 35.8444 270.641 36.2245C270.261 36.6046 270.048 37.1201 270.048 37.6577Z" fill="black"/>
<path d="M270.752 37.4517C270.752 37.8334 270.904 38.1994 271.174 38.4693C271.443 38.7393 271.809 38.891 272.191 38.891C272.58 38.891 272.953 38.7362 273.229 38.4607C273.504 38.1853 273.659 37.8118 273.659 37.4223C273.659 37.0328 273.504 36.6592 273.229 36.3837C272.953 36.1083 272.58 35.9536 272.191 35.9536C271.997 35.9535 271.805 35.9926 271.626 36.0685C271.448 36.1445 271.287 36.2558 271.152 36.3957C271.018 36.5357 270.913 36.7014 270.845 36.8828C270.776 37.0643 270.745 37.2578 270.752 37.4517Z" fill="#199675"/>
<path d="M261.241 59.5704L260.243 57.9843C259.48 52.4033 260.243 45.1184 269.519 44.4722C269.519 44.4722 278.326 57.0444 278.884 57.4556L301.635 71.7019C302.246 73.5064 302.621 75.3824 302.751 77.283C302.496 78.0181 302.085 78.6894 301.547 79.2511C293.637 80.3224 285.587 79.0248 278.413 75.5221C271.24 72.0194 265.264 66.4686 261.241 59.5704Z" fill="#199675"/>
<path d="M295.676 81.513C285.871 82.1298 267.494 76.2256 261.27 62.7135C260.818 61.163 260.475 59.5828 260.243 57.9844L261.241 59.5705C265.264 66.4687 271.24 72.0195 278.414 75.5222C285.587 79.0249 293.637 80.3225 301.547 79.2511C299.955 80.7353 297.851 81.5459 295.676 81.513Z" fill="#199675"/>
<path d="M301.43 71.2907C301.43 71.2907 304.952 79.2805 288.014 76.0787C271.075 72.877 260.595 59.4825 262.18 50.2296C263.766 40.9768 279.794 44.1493 288.983 55.6345C298.171 67.1198 301.43 71.2907 301.43 71.2907Z" fill="#199675"/>
<path d="M286.928 72.4656C281.056 74.6393 273.717 69.5281 270.635 61.1859C269.525 58.589 269.055 55.7632 269.264 52.9465C269.474 50.1298 270.357 47.4048 271.839 45.001C278.638 46.3863 284.718 50.1576 288.983 55.6343L293.386 61.1273C293.298 66.5027 291.038 70.9675 286.928 72.4656Z" fill="#199675"/>
<path d="M301.723 71.1732C302.025 71.8438 302.13 72.5866 302.026 73.3147C301.923 74.0429 301.614 74.7264 301.136 75.2856C299.933 76.3949 298.369 77.0313 296.733 77.0774C293.124 77.3083 289.502 76.9309 286.018 75.9611C279.105 74.3477 272.811 70.7549 267.905 65.6214C265.981 63.7681 264.44 61.5533 263.372 59.1037C262.305 56.6541 261.73 54.0178 261.681 51.3457C261.75 49.4991 262.544 47.7542 263.89 46.4894C265.237 45.2247 267.028 44.5421 268.874 44.5897C274.24 44.6603 279.42 46.5677 283.552 49.9945C286.254 52.1549 288.68 54.6412 290.773 57.3968C292.916 60.0698 295.06 62.7428 297.173 65.4452C298.7 67.3251 300.109 69.2345 301.665 71.1438C301.929 71.4669 301.43 71.8782 301.195 71.555C299.228 69.0289 297.232 66.5321 295.324 64.0353C290.216 57.6024 285.519 50.8757 277.886 47.2627C273.571 45.2065 265.351 43.1798 262.944 49.0252C260.742 54.3419 264.617 60.7747 267.993 64.7109C271.482 68.4868 275.727 71.4848 280.451 73.5092C285.175 75.5337 290.273 76.5393 295.412 76.4604C298.201 76.4604 302.839 75.1093 301.283 71.3494C300.96 71.0263 301.547 70.7913 301.723 71.1732Z" fill="black"/>
<path d="M280.998 60.1578C272.191 55.3698 269.109 59.7759 268.727 64.3583C268.287 59.2178 270.635 52.3443 280.998 57.8959C294.091 64.9457 293.768 75.7848 293.768 75.7848L293.592 75.9904C292.874 72.5507 291.361 69.327 289.174 66.5776C286.987 63.8282 284.187 61.6295 280.998 60.1578Z" fill="#199675"/>
<path d="M288.102 76.0787C280.947 74.7766 274.338 71.3831 269.109 66.3265C268.961 65.6689 268.863 65.0013 268.815 64.3291C269.197 59.7468 272.191 55.3407 281.086 60.1287C284.275 61.6004 287.075 63.7991 289.262 66.5485C291.449 69.2979 292.962 72.5216 293.68 75.9613L292.887 76.725C291.28 76.6109 289.682 76.395 288.102 76.0787Z" fill="#199675"/>
<path d="M299.199 68.7349C299.199 68.7349 299.199 68.4999 299.199 68.353L301.488 71.2904C301.488 71.2904 305.011 79.2802 288.072 76.0784C285.559 75.6018 283.101 74.8736 280.733 73.9048C283.141 74.5216 300.989 78.5458 299.199 68.7349Z" fill="black"/>
<path d="M31.6462 256.611C33.9756 257.489 36.1772 258.675 38.1926 260.136C38.1926 260.136 41.5391 264.278 39.9539 274.5C39.4858 275.716 38.6887 276.778 37.6518 277.567C36.6149 278.355 35.379 278.839 34.0826 278.965C29.5911 279.288 29.1216 272.121 29.1216 272.121L31.6462 256.611Z" fill="#929292"/>
<path d="M19.3752 263.808C19.3752 263.808 27.0079 255.818 31.1177 256.464C35.2276 257.111 36.2257 272.738 34.6111 277.026C32.9965 281.315 19.3752 263.808 19.3752 263.808Z" fill="black"/>
<path d="M4.52096 296.061C3.44035 292.285 3.32285 288.298 4.17927 284.465C5.03569 280.632 6.83867 277.074 9.4234 274.118C18.2303 262.839 26.2152 257.963 29.6205 258.814C33.0258 259.666 36.4312 275.205 33.8772 284.135L13.3278 291.361L4.52096 296.061Z" fill="#199675"/>
<path d="M29.7672 261.693C32.2038 262.281 34.611 270.3 34.8752 278.113C35.1981 269.536 32.4974 259.49 29.7672 258.814C26.3619 257.963 18.4944 262.839 9.57014 274.118C5.51021 278.92 3.4131 285.078 3.69889 291.361C4.10715 286.077 6.16048 281.053 9.57014 276.997C18.3476 265.776 26.2151 260.841 29.7672 261.693Z" fill="#199675"/>
<path d="M33.7011 283.547C33.6344 283.155 33.4813 282.783 33.2528 282.458C33.0242 282.133 32.726 281.862 32.38 281.667C31.5437 281.182 30.586 280.948 29.6205 280.991C25.5159 281.436 21.5321 282.652 17.878 284.575C14.7486 285.944 11.7924 287.68 9.07114 289.745C4.8732 293.123 4.75569 295.62 4.75569 295.825C4.75401 295.964 4.78205 296.101 4.83775 296.228C4.89345 296.354 4.97565 296.467 5.07874 296.56C5.24207 296.675 5.43689 296.736 5.63652 296.736H5.84185C22.6043 292.859 34.1414 286.161 33.7011 283.547Z" fill="#199675"/>
<path d="M5.57764 295.825C24.1014 291.595 33.0256 284.986 32.8201 283.694C32.7712 283.429 32.6643 283.178 32.5069 282.96C32.3496 282.742 32.1457 282.561 31.9101 282.431C26.4205 287.013 14.0322 289.627 9.57004 290.45C5.57759 293.652 5.57764 295.825 5.57764 295.825Z" fill="#199675"/>
<path d="M18.0246 285.398C14.9776 286.736 12.1002 288.432 9.45264 290.45C13.9148 289.627 26.3031 287.013 31.7927 282.431C30.4717 281.549 26.8315 281.403 18.0246 285.398Z" fill="black"/>
<path d="M310.354 256.611C308.022 257.483 305.819 258.669 303.807 260.136C303.807 260.136 300.461 264.278 302.046 274.5C302.514 275.716 303.311 276.778 304.348 277.567C305.385 278.355 306.621 278.839 307.917 278.965C312.409 279.288 312.879 272.121 312.879 272.121L310.354 256.611Z" fill="#929292"/>
<path d="M322.625 263.808C322.625 263.808 314.992 255.818 310.882 256.464C306.773 257.111 305.774 272.738 307.389 277.026C309.004 281.315 322.625 263.808 322.625 263.808Z" fill="black"/>
<path d="M337.479 296.061C338.56 292.285 338.677 288.298 337.821 284.465C336.964 280.632 335.161 277.074 332.577 274.118C323.77 262.839 315.785 257.963 312.38 258.814C308.974 259.666 305.569 275.205 308.123 284.135L328.672 291.361L337.479 296.061Z" fill="#199675"/>
<path d="M312.38 261.693C309.943 262.281 307.536 270.3 307.242 278.113C306.949 269.536 309.65 259.49 312.38 258.814C315.785 257.963 323.653 262.839 332.577 274.118C336.637 278.92 338.734 285.078 338.448 291.361C338.04 286.077 335.986 281.053 332.577 276.997C323.653 265.776 315.785 260.841 312.38 261.693Z" fill="#199675"/>
<path d="M308.299 283.547C308.359 283.153 308.51 282.778 308.739 282.452C308.968 282.126 309.27 281.857 309.62 281.667C310.456 281.182 311.414 280.948 312.38 280.991C316.484 281.436 320.468 282.652 324.122 284.575C327.251 285.944 330.208 287.68 332.929 289.745C337.127 293.123 337.244 295.62 337.244 295.825C337.246 295.964 337.218 296.101 337.162 296.228C337.107 296.354 337.024 296.467 336.921 296.56C336.756 296.671 336.563 296.732 336.364 296.736H336.158C319.396 292.859 307.859 286.161 308.299 283.547Z" fill="#199675"/>
<path d="M336.422 295.825C317.899 291.595 308.974 284.986 309.18 283.694C309.229 283.429 309.336 283.178 309.493 282.96C309.65 282.742 309.854 282.561 310.09 282.431C315.579 287.013 327.938 289.627 332.401 290.45C336.393 293.652 336.422 295.825 336.422 295.825Z" fill="#199675"/>
<path d="M323.858 285.398C326.9 286.728 329.769 288.425 332.401 290.45C327.939 289.627 315.579 287.013 310.09 282.431C311.587 281.549 315.08 281.403 323.858 285.398Z" fill="black"/>
<path d="M232.942 643.408C232.155 642.936 231.245 642.711 230.329 642.762C228.145 642.888 225.975 643.193 223.841 643.672C221.346 644.142 218.264 644.7 214.477 645.2C196.863 647.52 173.525 648.284 170.941 648.372C168.358 648.46 144.902 647.52 127.377 645.2C123.56 644.7 120.478 644.142 118.012 643.672C115.877 643.197 113.708 642.892 111.524 642.762C110.599 642.712 109.68 642.937 108.882 643.408C106.857 644.7 106.622 647.755 106.622 653.953C106.621 654.096 106.65 654.237 106.705 654.368C106.761 654.499 106.842 654.618 106.945 654.717C111.941 658.93 118.067 661.577 124.558 662.325C139.843 664.571 155.239 665.983 170.677 666.555H170.971C186.507 665.994 202.001 664.582 217.383 662.325C223.874 661.577 230 658.93 234.997 654.717C235.095 654.616 235.172 654.497 235.223 654.366C235.273 654.234 235.296 654.094 235.29 653.953C235.261 647.638 234.997 644.7 232.942 643.408Z" fill="black"/>
<path d="M232.531 644.289C232.838 646.557 232.956 648.846 232.883 651.133C228.159 655.178 222.35 657.742 216.179 658.506C201.231 660.771 186.167 662.183 171.059 662.736H170.677C155.579 662.182 140.524 660.77 125.586 658.506C119.416 657.742 113.606 655.178 108.882 651.133C108.817 648.847 108.925 646.559 109.205 644.289C107.59 645.317 107.385 648.049 107.385 653.924C112.246 658.01 118.195 660.583 124.5 661.326C139.802 663.591 155.218 665.004 170.677 665.556H170.971C186.439 665.004 201.865 663.591 217.177 661.326C223.472 660.577 229.41 658.004 234.263 653.924C234.351 648.049 234.145 645.317 232.531 644.289Z" fill="#199675"/>
<path d="M125.674 658.506C140.583 660.767 155.608 662.179 170.677 662.736H170.971C186.079 662.184 201.143 660.771 216.091 658.506C222.262 657.742 228.071 655.178 232.795 651.133C232.868 648.846 232.75 646.557 232.443 644.289C230.212 642.85 225.28 644.759 214.477 646.198C196.716 648.548 172.908 649.136 170.824 649.342C168.74 649.547 144.961 648.548 127.201 646.198C116.368 644.759 111.436 642.85 109.205 644.289C108.925 646.559 108.817 648.847 108.882 651.133C113.631 655.194 119.473 657.759 125.674 658.506Z" fill="#199675"/>
<path d="M203.351 652.191L179.689 647.638C176.734 647.892 173.794 648.304 170.883 648.871C167.971 648.301 165.032 647.889 162.076 647.638C161.136 647.785 138.415 652.103 138.415 652.103C138.415 652.103 138.092 657.977 146.869 659.446C154.813 660.481 162.813 661.01 170.824 661.032C178.844 661.011 186.855 660.482 194.808 659.446C203.644 657.948 203.351 652.191 203.351 652.191Z" fill="#199675"/>
<path d="M204.584 648.725L180.012 644.289C176.96 644.533 173.923 644.935 170.912 645.493C167.911 644.936 164.883 644.534 161.841 644.289L137.27 648.725C137.27 648.725 136.947 654.599 146.077 656.039C154.325 657.074 162.629 657.604 170.941 657.625C179.264 657.605 187.577 657.075 195.835 656.039C204.907 654.452 204.584 648.725 204.584 648.725Z" fill="black"/>
<path d="M235.261 631.276C234.443 630.802 233.504 630.577 232.56 630.63C230.289 630.757 228.032 631.061 225.808 631.541C223.254 632.011 219.937 632.569 216.091 633.068C197.92 635.389 173.583 636.152 170.912 636.241C168.241 636.329 143.875 635.389 125.674 633.068C121.74 632.569 118.54 632.011 115.957 631.541C113.743 631.064 111.496 630.759 109.235 630.63C108.281 630.578 107.333 630.803 106.504 631.276C104.391 632.569 104.156 635.624 104.156 641.792C104.153 641.939 104.181 642.086 104.236 642.222C104.292 642.358 104.374 642.482 104.479 642.585C109.688 646.821 116.008 649.463 122.68 650.193C138.594 652.444 154.615 653.856 170.677 654.423H171C187.082 653.858 203.123 652.446 219.056 650.193C225.723 649.443 232.038 646.804 237.257 642.585C237.362 642.482 237.444 642.358 237.5 642.222C237.555 642.086 237.583 641.939 237.58 641.792C237.668 635.624 237.433 632.569 235.261 631.276Z" fill="black"/>
<path d="M234.879 632.158C235.187 634.425 235.304 636.715 235.231 639.002C230.277 643.078 224.253 645.638 217.882 646.375C202.372 648.629 186.751 650.032 171.088 650.575H170.677C155.004 650.023 139.372 648.611 123.854 646.345C117.49 645.614 111.474 643.053 106.534 638.972C106.469 636.686 106.577 634.398 106.857 632.128C105.183 633.127 104.978 635.888 104.978 641.763C110.069 645.879 116.233 648.448 122.738 649.165C138.629 651.471 154.631 652.922 170.677 653.513H171C187.043 652.96 203.046 651.548 218.939 649.283C225.391 648.528 231.497 645.962 236.552 641.88C236.787 635.888 236.552 633.156 234.879 632.158Z" fill="#199675"/>
<path d="M123.942 646.374C139.432 648.628 155.034 650.03 170.677 650.575H171C186.664 650.022 202.285 648.61 217.794 646.345C224.165 645.608 230.189 643.048 235.144 638.972C235.217 636.685 235.099 634.396 234.791 632.128C232.472 630.689 227.364 632.598 216.15 634.037C197.685 636.387 172.996 636.975 170.824 637.21C168.652 637.445 143.963 636.387 125.527 634.037C114.313 632.598 109.176 630.689 106.857 632.128C106.577 634.398 106.469 636.686 106.534 638.972C111.495 643.079 117.544 645.651 123.942 646.374Z" fill="#199675"/>
<path d="M204.584 640.059L180.012 635.594C176.96 635.85 173.922 636.262 170.912 636.828C167.911 636.262 164.884 635.85 161.841 635.594L137.27 640.059C137.27 640.059 136.947 645.934 146.077 647.403C154.325 648.438 162.629 648.968 170.941 648.989C179.264 648.969 187.577 648.439 195.835 647.403C204.907 645.817 204.584 640.059 204.584 640.059Z" fill="#199675"/>
<path d="M205.905 636.593L180.424 632.158C179.543 632.011 172.585 633.098 170.971 633.362C167.852 632.802 164.707 632.4 161.548 632.158L136.037 636.593C136.037 636.593 135.714 642.468 145.137 643.907C153.71 644.943 162.336 645.473 170.971 645.494C179.606 645.473 188.232 644.943 196.804 643.907C206.198 642.321 205.905 636.593 205.905 636.593Z" fill="black"/>
<path d="M236.905 621.73C235.991 621.294 234.979 621.102 233.969 621.172C231.664 621.279 229.369 621.544 227.1 621.965C224.458 622.376 221.228 622.905 217.119 623.346C198.477 625.46 173.554 626.136 170.824 626.283C168.094 626.43 143.112 625.519 124.47 623.346C120.419 622.905 117.161 622.376 114.519 621.965C112.24 621.542 109.935 621.277 107.62 621.172C106.659 621.126 105.701 621.318 104.831 621.73C102.659 622.905 102.424 625.666 102.424 631.277C102.424 631.41 102.454 631.542 102.509 631.664C102.565 631.786 102.646 631.894 102.747 631.982C108.238 635.897 114.672 638.28 121.388 638.885C132.778 640.383 158.23 642.674 170.648 642.733H170.971C183.359 642.733 208.811 640.383 220.23 638.885C226.944 638.272 233.376 635.89 238.871 631.982C238.972 631.894 239.053 631.786 239.109 631.664C239.165 631.542 239.194 631.41 239.195 631.277C239.312 625.666 239.077 622.905 236.905 621.73Z" fill="black"/>
<path d="M236.464 622.523C236.771 624.574 236.889 626.648 236.817 628.721C231.644 632.479 225.564 634.79 219.203 635.418C207.461 637.004 182.889 639.207 171.235 639.266H170.677C158.935 639.266 134.422 637.004 122.709 635.418C116.295 634.825 110.159 632.511 104.948 628.721C104.876 626.648 104.994 624.574 105.301 622.523C103.569 623.463 103.363 625.93 103.363 631.335C108.723 635.135 114.993 637.446 121.535 638.032C133.63 639.56 158.935 641.763 170.677 641.763H171C182.948 641.763 208.106 639.501 220.142 637.915C226.684 637.328 232.954 635.017 238.314 631.218C238.402 625.93 238.196 623.463 236.464 622.523Z" fill="#199675"/>
<path d="M122.797 635.418C134.539 637.005 159.111 639.208 170.765 639.266H171.088C182.83 639.266 207.313 637.005 219.056 635.418C225.417 634.791 231.497 632.479 236.67 628.721C236.742 626.649 236.624 624.574 236.317 622.523C233.94 621.231 228.714 622.964 217.207 624.256C198.301 626.4 172.996 627.193 170.765 627.193C168.534 627.193 143.258 626.459 124.353 624.256C112.845 622.964 107.591 621.319 105.242 622.523C104.935 624.574 104.817 626.649 104.89 628.721C110.142 632.536 116.332 634.851 122.797 635.418Z" fill="#199675"/>
<path d="M250.878 486.551H91.0924C91.0924 486.551 82.5791 487.403 83.0194 499.329C83.4598 511.254 94.9381 603.195 94.9381 603.195C94.9381 603.195 103.745 614.945 170.912 614.945H171.088C238.138 614.945 247.062 603.195 247.062 603.195C247.062 603.195 258.54 511.225 258.981 499.329C259.421 487.432 250.878 486.551 250.878 486.551Z" fill="#252525"/>
<path d="M171.088 607.865H170.912C123.091 607.865 106.504 601.697 101.719 599.053C99.4296 580.518 90.5932 509.022 90.241 498.946C90.241 495.363 91.1218 493.982 91.8557 493.659H250.144C250.878 493.982 251.876 495.363 251.73 498.946C251.377 509.227 242.13 584.131 240.251 599.053C235.496 601.579 218.88 607.865 171.088 607.865Z" fill="url(#paint20_linear_5191_5384)"/>
<path d="M62.5875 318.414L45.1499 242.629C45.1499 242.629 40.0419 308.192 47.7038 422.692C55.3658 537.192 66.8441 540.188 66.8441 540.188C66.8441 540.188 71.1008 511.666 68.5469 431.21C66.0809 353.34 62.5875 318.414 62.5875 318.414Z" fill="#404040"/>
<path d="M47.7038 422.692C55.3658 537.25 66.8441 540.188 66.8441 540.188C68.0781 529.695 68.7738 519.146 68.9285 508.581C67.9891 506.261 52.4009 465.519 52.4009 290.95C52.4009 284.546 52.4008 278.524 52.1073 272.885L45.1499 242.629C45.1499 242.629 40.0419 308.192 47.7038 422.692Z" fill="#757575"/>
<path d="M47.7039 422.692C55.3658 537.25 66.8442 540.188 66.8442 540.188C66.8442 540.188 67.3139 537.251 67.813 530.201V529.76C44.8564 416.083 49.935 285.192 49.935 285.192L61.6775 313.45L45.3848 242.629C45.3848 242.629 40.0419 308.192 47.7039 422.692Z" fill="black"/>
<path d="M296.909 242.629L279.295 318.414C279.295 318.414 275.802 353.34 273.424 431.21C270.87 511.666 275.126 540.188 275.126 540.188C275.126 540.188 286.634 537.25 294.267 422.692C301.899 308.133 296.909 242.629 296.909 242.629Z" fill="#404040"/>
<path d="M294.267 422.692C301.929 308.133 296.821 242.629 296.821 242.629L290.773 269.066C290.519 275.822 290.382 283.166 290.362 291.096C290.362 471.159 273.776 508.816 273.776 508.816L273.072 509.756C273.805 531.493 275.127 540.335 275.127 540.335C275.127 540.335 286.634 537.192 294.267 422.692Z" fill="#757575"/>
<path d="M294.267 422.692C301.929 308.133 296.821 242.629 296.821 242.629L279.53 317.768L292.916 285.192C292.916 285.192 298.024 416.083 275.068 529.76C275.068 529.76 274.745 530.847 274.275 532.698C274.715 537.956 275.068 540.335 275.068 540.335C275.068 540.335 286.634 537.192 294.267 422.692Z" fill="black"/>
<path d="M278.121 291.596L293.973 227.737C261.681 156.622 174.17 161.146 171.117 161.322C168.064 161.498 80.4359 156.622 48.2615 227.737L63.9964 291.596C63.9964 291.596 65.6991 302.64 78.0287 298.381C90.3583 294.122 135.391 286.925 171.117 286.896C206.844 286.867 251.876 294.151 264.176 298.381C276.477 302.611 278.121 291.596 278.121 291.596Z" fill="url(#paint21_linear_5191_5384)"/>
<path d="M48.1443 227.737L63.8792 291.596C63.8792 291.596 65.5819 302.64 77.9115 298.381C90.2412 294.122 135.273 286.925 171 286.896C206.727 286.866 251.759 294.151 264.059 298.381C276.36 302.611 278.121 291.596 278.121 291.596L293.973 227.737C287.545 213.34 277.881 200.623 265.733 190.579L258.041 207.292C258.041 207.292 286.781 218.161 282.319 240.514C278.69 257.114 274.212 273.516 268.903 289.657C237.134 280.686 204.274 276.178 171.264 276.262L170.912 276.527L170.56 276.262C137.55 276.178 104.69 280.686 72.9209 289.657C67.6135 273.518 63.1453 257.116 59.5345 240.514C55.043 218.161 83.7828 207.292 83.7828 207.292L76.1794 190.813C64.1371 200.816 54.5465 213.447 48.1443 227.737Z" fill="#252525"/>
<path d="M171 161.322C168.064 161.146 80.3187 156.622 48.1443 227.737L49.2305 232.172C53.1935 228.295 75.1227 208.115 112.933 196.248L114.665 195.719L116.427 195.19C152.311 184.969 190.334 184.969 226.219 195.19L227.981 195.719L229.712 196.248C253.047 203.241 274.562 215.273 292.74 231.497L293.68 227.707C261.681 156.622 174.053 161.146 171 161.322Z" fill="black"/>
<path d="M54.6906 222.625C83.5478 169.135 146.781 164.817 166.068 164.817C168.798 164.817 170.472 164.817 170.794 164.817H171.205C171.499 164.817 173.172 164.817 175.903 164.817C195.043 164.817 257.513 169.077 286.664 221.45C269.903 208.691 251.02 198.995 230.887 192.811L229.39 192.341H229.037H228.656L227.217 191.9C190.672 181.482 151.945 181.482 115.399 191.9L113.931 192.341H113.55H113.139L111.788 192.752C91.0682 199.152 71.6818 209.264 54.5732 222.596L54.6906 222.625Z" fill="url(#paint22_linear_5191_5384)"/>
<defs>
<linearGradient id="paint0_linear_5191_5384" x1="170.853" y1="692.58" x2="170.853" y2="710.469" gradientUnits="userSpaceOnUse">
<stop stop-color="#004D40"/>
<stop offset="1" stop-color="#126A55"/>
</linearGradient>
<linearGradient id="paint1_linear_5191_5384" x1="171.323" y1="689.173" x2="171.323" y2="696.839" gradientUnits="userSpaceOnUse">
<stop stop-color="#004D40"/>
<stop offset="1" stop-color="#126A55"/>
</linearGradient>
<linearGradient id="paint2_linear_5191_5384" x1="47.7919" y1="73.2001" x2="47.7919" y2="174.1" gradientUnits="userSpaceOnUse">
<stop stop-color="#126A55"/>
<stop offset="0.46" stop-color="#126A55"/>
<stop offset="1" stop-color="#126A55"/>
</linearGradient>
<linearGradient id="paint3_linear_5191_5384" x1="294.854" y1="73.1997" x2="294.854" y2="174.099" gradientUnits="userSpaceOnUse">
<stop stop-color="#126A55"/>
<stop offset="0.46" stop-color="#126A55"/>
<stop offset="1" stop-color="#199675"/>
</linearGradient>
<linearGradient id="paint4_linear_5191_5384" x1="41.7738" y1="616.237" x2="67.9637" y2="606.025" gradientUnits="userSpaceOnUse">
<stop stop-color="#004D40"/>
<stop offset="1" stop-color="#126A55"/>
</linearGradient>
<linearGradient id="paint5_linear_5191_5384" x1="300.109" y1="616.237" x2="273.948" y2="606.025" gradientUnits="userSpaceOnUse">
<stop stop-color="#004D40"/>
<stop offset="1" stop-color="#126A55"/>
</linearGradient>
<linearGradient id="paint6_linear_5191_5384" x1="63.2627" y1="711.027" x2="63.2627" y2="394.904" gradientUnits="userSpaceOnUse">
<stop stop-color="#126A55"/>
<stop offset="1" stop-color="#199675"/>
</linearGradient>
<linearGradient id="paint7_linear_5191_5384" x1="279.06" y1="711.027" x2="279.06" y2="394.904" gradientUnits="userSpaceOnUse">
<stop stop-color="#126A55"/>
<stop offset="1" stop-color="#126A55" stop-opacity="0.0705882"/>
</linearGradient>
<linearGradient id="paint8_linear_5191_5384" x1="171.558" y1="727.418" x2="171.558" y2="359.655" gradientUnits="userSpaceOnUse">
<stop stop-color="#004D40"/>
<stop offset="1" stop-color="#126A55"/>
</linearGradient>
<linearGradient id="paint9_linear_5191_5384" x1="78.2343" y1="619.145" x2="78.2343" y2="545.71" gradientUnits="userSpaceOnUse">
<stop stop-color="#004D40"/>
<stop offset="1" stop-color="#126A55"/>
</linearGradient>
<linearGradient id="paint10_linear_5191_5384" x1="105.8" y1="525.383" x2="95.2483" y2="444.93" gradientUnits="userSpaceOnUse">
<stop stop-color="#004D40"/>
<stop offset="1" stop-color="#126A55"/>
</linearGradient>
<linearGradient id="paint11_linear_5191_5384" x1="264.147" y1="619.145" x2="264.147" y2="545.71" gradientUnits="userSpaceOnUse">
<stop stop-color="#004D40"/>
<stop offset="1" stop-color="#126A55"/>
</linearGradient>
<linearGradient id="paint12_linear_5191_5384" x1="236.553" y1="525.383" x2="247.104" y2="444.959" gradientUnits="userSpaceOnUse">
<stop stop-color="#004D40"/>
<stop offset="1" stop-color="#126A55"/>
</linearGradient>
<linearGradient id="paint13_linear_5191_5384" x1="171.235" y1="400.661" x2="171.235" y2="530.935" gradientUnits="userSpaceOnUse">
<stop stop-color="#004D40"/>
<stop offset="1" stop-color="#126A55"/>
</linearGradient>
<linearGradient id="paint14_linear_5191_5384" x1="171.235" y1="742.398" x2="171.235" y2="630.013" gradientUnits="userSpaceOnUse">
<stop stop-color="#004D40"/>
<stop offset="1" stop-color="#126A55"/>
</linearGradient>
<linearGradient id="paint15_linear_5191_5384" x1="171.235" y1="352.87" x2="171.235" y2="253.909" gradientUnits="userSpaceOnUse">
<stop stop-color="#004D40"/>
<stop offset="1" stop-color="#126A55"/>
</linearGradient>
<linearGradient id="paint16_linear_5191_5384" x1="171.558" y1="217.896" x2="171.558" y2="168.107" gradientUnits="userSpaceOnUse">
<stop stop-color="#004D40"/>
<stop offset="1" stop-color="#126A55"/>
</linearGradient>
<linearGradient id="paint17_linear_5191_5384" x1="170.883" y1="14.8926" x2="170.883" y2="214.959" gradientUnits="userSpaceOnUse">
<stop stop-color="#004D40"/>
<stop offset="1" stop-color="#126A55"/>
</linearGradient>
<linearGradient id="paint18_linear_5191_5384" x1="170.883" y1="14.8926" x2="170.883" y2="214.959" gradientUnits="userSpaceOnUse">
<stop stop-color="#004D40"/>
<stop offset="1" stop-color="#126A55"/>
</linearGradient>
<linearGradient id="paint19_linear_5191_5384" x1="171.411" y1="99.3721" x2="171.411" y2="168.342" gradientUnits="userSpaceOnUse">
<stop stop-color="#004D40"/>
<stop offset="1" stop-color="#126A55"/>
</linearGradient>
<linearGradient id="paint20_linear_5191_5384" x1="171" y1="547.649" x2="171" y2="593.531" gradientUnits="userSpaceOnUse">
<stop stop-color="#666666"/>
<stop offset="1" stop-color="#888888"/>
</linearGradient>
<linearGradient id="paint21_linear_5191_5384" x1="171" y1="226.444" x2="171" y2="281.99" gradientUnits="userSpaceOnUse">
<stop stop-color="#666666"/>
<stop offset="1" stop-color="#888888"/>
</linearGradient>
<linearGradient id="paint22_linear_5191_5384" x1="170.677" y1="184.322" x2="170.677" y2="162.614" gradientUnits="userSpaceOnUse">
<stop/>
<stop offset="1" stop-color="#606060"/>
</linearGradient>
</defs>
</svg>
