<svg width="56" height="71" viewBox="0 0 56 71" fill="none" xmlns="http://www.w3.org/2000/svg">
<path d="M36.2502 63.7371L48.6613 50.6904H36.2502V63.7371ZM30.3219 15.7104C30.5299 15.5024 30.8073 15.3984 31.0789 15.3984C31.3504 15.3984 31.622 15.5024 31.8358 15.7104L31.8416 15.7161C32.0496 15.9242 32.1536 16.1957 32.1536 16.4731C32.1536 16.7446 32.0496 17.0162 31.8473 17.23L29.2992 19.7781L31.8416 22.3204C32.0496 22.5284 32.1536 22.8057 32.1536 23.0773C32.1536 23.3489 32.0496 23.6204 31.8473 23.8342L31.8416 23.84C31.6335 24.048 31.362 24.152 31.0846 24.152C30.8131 24.152 30.5415 24.048 30.3277 23.8458L27.7796 21.2977L25.2373 23.84C25.0293 24.048 24.752 24.152 24.4804 24.152C24.2088 24.152 23.9373 24.048 23.7235 23.8458L23.7177 23.84C23.5097 23.632 23.4057 23.3547 23.4057 23.0831C23.4057 22.8115 23.5097 22.54 23.7177 22.3262L26.2658 19.7781L23.7235 17.2358C23.5155 17.0278 23.4115 16.7504 23.4115 16.4788C23.4115 16.2073 23.5155 15.9357 23.7235 15.7219L23.7292 15.7161C23.9373 15.5081 24.2088 15.4041 24.4862 15.4041C24.7577 15.4041 25.0293 15.5081 25.2431 15.7161L27.7912 18.2642L30.3219 15.7104ZM27.7796 8.26831C28.5308 8.26831 29.2646 8.34342 29.9753 8.4821C30.7033 8.62655 31.4082 8.84033 32.0842 9.11768C32.7718 9.4008 33.4247 9.75326 34.0372 10.1577C34.6497 10.568 35.2217 11.036 35.7417 11.5618C36.2617 12.0818 36.7355 12.6538 37.1458 13.2721C37.5502 13.8787 37.9027 14.5317 38.1858 15.2192C38.4631 15.8953 38.6827 16.6002 38.8271 17.3282C38.9658 18.0389 39.0409 18.7727 39.0409 19.5238C39.0409 20.275 38.9658 21.0088 38.8271 21.7195C38.6827 22.4475 38.4689 23.1524 38.1858 23.8285L38.18 23.8342C37.8969 24.516 37.5502 25.1689 37.14 25.7756C36.7297 26.3939 36.2559 26.9659 35.7359 27.4859C35.2159 28.0059 34.6439 28.474 34.0314 28.8842C33.4189 29.2887 32.766 29.6411 32.0842 29.9242H32.0785C31.4082 30.2016 30.7033 30.4154 29.981 30.5598C29.2703 30.6985 28.5365 30.7736 27.7854 30.7736C27.0343 30.7736 26.3005 30.6985 25.5898 30.5598C24.8617 30.4154 24.1568 30.2016 23.4808 29.9185C22.7932 29.6353 22.1403 29.2829 21.5278 28.8784C20.9154 28.4682 20.3376 28.0002 19.8233 27.4801C19.3033 26.9601 18.8353 26.3881 18.4193 25.7699C18.0148 25.1632 17.6624 24.5103 17.3792 23.8227C17.1019 23.1524 16.8823 22.4417 16.7379 21.7137C16.5992 21.003 16.5241 20.2692 16.5241 19.5181C16.5241 18.7669 16.5992 18.0331 16.7379 17.3224C16.8823 16.5944 17.0961 15.8895 17.3792 15.2135C17.6624 14.5259 18.0148 13.873 18.4193 13.2663C18.8295 12.6538 19.3033 12.0818 19.8233 11.556C20.3433 11.036 20.9154 10.5622 21.5278 10.1519C22.1403 9.7417 22.7932 9.39502 23.475 9.1119H23.4808C24.151 8.83455 24.856 8.62077 25.5782 8.47632C26.3005 8.34342 27.0343 8.26831 27.7796 8.26831ZM34.0083 13.3009C33.5981 12.8907 33.1532 12.5267 32.6678 12.2031C32.194 11.8853 31.6798 11.608 31.1482 11.3884C30.6224 11.1746 30.0735 11.0013 29.5015 10.8915C28.9468 10.7817 28.369 10.724 27.7796 10.724C27.1903 10.724 26.6125 10.7817 26.0578 10.8915C25.4858 11.0071 24.9368 11.1746 24.4111 11.3884C23.8795 11.608 23.371 11.8796 22.8914 12.2031C22.4119 12.5267 21.9612 12.8965 21.5509 13.3009C21.1465 13.7112 20.7767 14.1561 20.4531 14.6414C20.1353 15.1152 19.858 15.6295 19.6384 16.1611C19.4246 16.6868 19.2513 17.2358 19.1415 17.8078C19.0317 18.3625 18.974 18.9403 18.974 19.5296C18.974 20.119 19.0317 20.6968 19.1415 21.2515C19.2571 21.8235 19.4246 22.3782 19.6384 22.8982C19.858 23.4298 20.1296 23.9382 20.4473 24.4178C20.7709 24.8974 21.1407 25.3481 21.5452 25.7583C21.9554 26.1685 22.4003 26.5326 22.8857 26.8561C23.3595 27.1739 23.8737 27.4513 24.4053 27.6708C24.9311 27.8904 25.48 28.0579 26.052 28.1677C26.6067 28.2775 27.1845 28.3353 27.7738 28.3353C28.3632 28.3353 28.941 28.2775 29.4957 28.1677C30.0677 28.0579 30.6166 27.8846 31.1424 27.6708H31.1482C31.6798 27.4513 32.1825 27.1797 32.662 26.8619C33.1416 26.5383 33.5923 26.1685 34.0025 25.7641C34.4128 25.3538 34.7826 24.9089 35.1003 24.4236C35.4181 23.9498 35.6897 23.4413 35.9093 22.904C36.1231 22.3782 36.2964 21.8293 36.4062 21.2572C36.5159 20.7026 36.5737 20.1248 36.5737 19.5354C36.5737 18.946 36.5159 18.3682 36.4062 17.8136C36.2906 17.2415 36.1231 16.6868 35.9093 16.1668C35.6897 15.6353 35.4181 15.1268 35.0946 14.6472C34.7826 14.1561 34.4128 13.7112 34.0083 13.3009ZM10.9368 52.0193H22.0479V55.2145H10.9368V52.0193ZM10.9368 43.9012H26.7049V47.0964H10.9368V43.9012ZM10.9368 35.7889H44.6225V38.9841H10.9368V35.7889ZM55.566 49.0263C55.566 49.9681 54.9304 50.7828 54.0637 51.0197L35.7821 70.2431C35.4008 70.7111 34.823 71.0058 34.1874 71.0058H3.71427C2.68001 71.0058 1.75553 70.5898 1.08529 69.9195C0.415039 69.2435 -0.000976562 68.319 -0.000976562 67.2848V3.71525C-0.000976562 2.68099 0.415039 1.75651 1.08529 1.08626C1.75553 0.416016 2.69735 0 3.71427 0H51.8507C52.8677 0 53.8095 0.416016 54.4797 1.08626C55.15 1.75651 55.566 2.68099 55.566 3.71525V49.0263ZM51.4174 46.5418V4.1486H4.14762V66.8687H32.1016V48.6276C32.1016 47.4836 33.026 46.5418 34.1874 46.5418H51.4174Z" fill="#051A1A" fill-opacity="0.31"/>
</svg>
