<svg width="271" height="202" viewBox="0 0 271 202" fill="none" xmlns="http://www.w3.org/2000/svg">
<path d="M270.256 176.989H0V177.124H270.256V176.989Z" fill="#EBEBEB"/>
<path d="M232.263 180.67H179.511V180.805H232.263V180.67Z" fill="#EBEBEB"/>
<path d="M181.432 183.793H156.208V183.928H181.432V183.793Z" fill="#EBEBEB"/>
<path d="M243.177 185.689H232.804V185.824H243.177V185.689Z" fill="#EBEBEB"/>
<path d="M118.372 183.86H68.3604V183.995H118.372V183.86Z" fill="#EBEBEB"/>
<path d="M63.5488 183.86H52.791V183.995H63.5488V183.86Z" fill="#EBEBEB"/>
<path d="M48.9996 181.578H31.2373V181.713H48.9996V181.578Z" fill="#EBEBEB"/>
<path d="M128.11 152.883H23.7376C22.0366 152.883 20.6523 151.499 20.6523 149.798V3.08525C20.6523 1.38425 22.0366 0 23.7376 0H128.11C129.811 0 131.195 1.38425 131.195 3.08525V149.798C131.195 151.499 129.811 152.883 128.11 152.883ZM23.7376 0.135668C22.1106 0.135668 20.7875 1.45884 20.7875 3.08579V149.798C20.7875 151.425 22.1106 152.748 23.7376 152.748H128.11C129.736 152.748 131.06 151.425 131.06 149.798V3.08525C131.06 1.45884 129.736 0.135128 128.11 0.135128L23.7376 0.135668Z" fill="#EBEBEB"/>
<path d="M245.02 152.883H140.648C138.947 152.883 137.563 151.499 137.563 149.798V3.08525C137.563 1.38425 138.948 0 140.648 0H245.02C246.722 0 248.105 1.38425 248.105 3.08525V149.798C248.106 151.499 246.722 152.883 245.02 152.883ZM140.648 0.135668C139.022 0.135668 137.699 1.45884 137.699 3.08579V149.798C137.699 151.425 139.022 152.748 140.648 152.748H245.02C246.647 152.748 247.97 151.425 247.97 149.798V3.08525C247.97 1.45884 246.647 0.135128 245.02 0.135128L140.648 0.135668Z" fill="#EBEBEB"/>
<path d="M211.38 172.014H48.1238L38.3887 61.2715H201.645L211.38 172.014Z" fill="#F0F0F0"/>
<path d="M45.2391 175.542L48.1238 172.014L38.3886 61.2715L35.5088 64.8535L45.2391 175.542Z" fill="#E0E0E0"/>
<path d="M50.2815 167.81L41.3139 65.7982C41.2193 64.7232 42.0663 63.7983 43.1457 63.7983H197.656C198.609 63.7983 199.404 64.5264 199.488 65.4761L208.456 167.488C208.55 168.563 207.703 169.487 206.624 169.487H52.1133C51.1604 169.487 50.3653 168.759 50.2815 167.81Z" fill="#FAFAFA"/>
<path d="M71.0709 172.014H46.4737L44.7344 176.989H69.3315L71.0709 172.014Z" fill="#E0E0E0"/>
<path d="M71.0694 172.014H232.803L231.063 176.989H69.3301L71.0694 172.014Z" fill="#F5F5F5"/>
<path d="M137.669 172.014H168.672L168.339 175.272H137.336L137.669 172.014Z" fill="#E0E0E0"/>
<path d="M184.647 54.0037H223.818C227.064 75.4923 212.053 93.1746 190.564 93.1746C183.689 93.1746 176.66 91.3644 170.187 87.9268L184.647 54.0037Z" fill="#E0E0E0"/>
<path d="M184.648 54.0036L205.294 23.9971C210.231 27.6736 214.449 32.2658 217.648 37.4494C220.849 42.6329 222.955 48.2839 223.819 54.0036H184.648Z" fill="#EBEBEB"/>
<path d="M184.648 54.0037L178.731 14.8328C183.301 14.8328 187.956 15.6322 192.485 17.1948C197.015 18.7574 201.35 21.0595 205.294 23.9966L184.648 54.0037Z" fill="#E6E6E6"/>
<path d="M184.649 54.0037L170.187 87.9263C157.027 80.938 147.589 67.9803 145.478 54.0037C142.232 32.5151 157.243 14.8328 178.732 14.8328L184.649 54.0037Z" fill="#F0F0F0"/>
<path d="M136.294 123.906H171.041C171.5 126.943 171.558 129.966 171.215 132.899C170.873 135.832 170.131 138.65 169.01 141.279L136.294 123.906Z" fill="#EBEBEB"/>
<path d="M136.294 123.906L137.159 89.6873C145.416 91.1056 153.343 95.3151 159.538 101.572C165.732 107.828 169.807 115.739 171.041 123.907H136.294V123.906Z" fill="#E0E0E0"/>
<path d="M136.294 123.906L105.437 135.79C103.476 131.981 102.159 127.959 101.547 123.906C98.6676 104.844 111.984 89.1592 131.045 89.1592C133.068 89.1592 135.114 89.3359 137.159 89.6873L136.294 123.906Z" fill="#F0F0F0"/>
<path d="M136.293 123.906L169.009 141.28C164.432 152.017 153.94 158.653 141.542 158.653C126.969 158.653 112.49 149.485 105.438 135.79L136.293 123.906Z" fill="white"/>
<path d="M135.128 201.4C193.007 201.4 239.927 198.66 239.927 195.28C239.927 191.9 193.007 189.159 135.128 189.159C77.2485 189.159 30.3281 191.9 30.3281 195.28C30.3281 198.66 77.2485 201.4 135.128 201.4Z" fill="#F5F5F5"/>
<path d="M130.04 99.6893H81.3534C78.2639 99.6893 75.5299 97.1613 75.2781 94.0717L72.8409 64.1349C72.5896 61.0453 74.9116 58.5173 78.0012 58.5173H126.688C129.777 58.5173 132.511 61.0453 132.763 64.1349L135.2 94.0717C135.452 97.1613 133.13 99.6893 130.04 99.6893Z" fill="white"/>
<path d="M130.04 99.9229H81.3529C78.1363 99.9229 75.3062 97.3068 75.0446 94.0907L72.6074 64.1539C72.4804 62.5896 72.9755 61.1157 74.002 60.0017C75.0241 58.8931 76.4445 58.2828 78.0012 58.2828H126.688C129.904 58.2828 132.734 60.8995 132.996 64.1155L135.433 94.0523C135.56 95.6161 135.065 97.09 134.039 98.204C133.017 99.3126 131.597 99.9229 130.04 99.9229ZM78.0012 58.7515C76.5764 58.7515 75.2781 59.3087 74.3463 60.3195C73.4096 61.3362 72.9577 62.6842 73.0739 64.116L75.5111 94.0529C75.7538 97.0317 78.3742 99.4553 81.3529 99.4553H130.04C131.464 99.4553 132.763 98.898 133.695 97.8873C134.631 96.8706 135.083 95.5225 134.967 94.0913L132.53 64.1544C132.287 61.1751 129.667 58.7515 126.688 58.7515H78.0012Z" fill="#199675"/>
<path d="M116.829 90.9488C114.919 93.0276 112.452 94.5205 109.672 95.2837L108.866 92.9757C114.86 91.3374 118.919 85.7474 118.378 79.1045C118.055 75.1393 116.157 71.5487 113.347 68.9504L114.899 67.2603C121.927 73.7588 122.797 84.4513 116.829 90.9488Z" fill="#E0E0E0"/>
<path d="M114.898 67.2607L113.346 68.9509C110.536 66.3527 106.815 64.7468 102.849 64.7468C98.8842 64.7468 95.4249 66.357 93.0428 68.9552L91.21 67.2607C94.0958 64.1193 98.2166 62.3545 102.655 62.3545C107.097 62.3545 111.501 64.1193 114.898 67.2607Z" fill="#263238"/>
<path d="M109.672 95.2836C104.025 96.8284 97.7107 95.1712 93.1396 90.9487C86.1173 84.4507 85.2471 73.7588 91.2111 67.2607L93.044 68.9552C90.6571 71.5535 89.3436 75.1392 89.6663 79.1045C90.3117 87.03 97.2621 93.4578 105.188 93.4578C106.471 93.4578 107.707 93.2891 108.866 92.9756L109.672 95.2836Z" fill="#199675"/>
<path d="M63.72 10.127H59.8164V10.5945H63.72V10.127Z" fill="#199675"/>
<path d="M56.0327 10.127H47.1445V10.5945H56.0327V10.127Z" fill="#199675"/>
<path d="M97.3702 53.1551H48.6835C45.5939 53.1551 42.86 50.6271 42.6081 47.5375L40.171 17.6007C39.9196 14.5111 42.2417 11.9832 45.3312 11.9832H94.0179C97.1075 11.9832 99.8414 14.5111 100.093 17.6007L102.53 47.5375C102.782 50.6271 100.46 53.1551 97.3702 53.1551Z" fill="white"/>
<path d="M97.3718 53.3891H48.6846C45.468 53.3891 42.6379 50.7725 42.3763 47.5564L39.9396 17.6196C39.8121 16.0559 40.3072 14.5814 41.3341 13.4679C42.3563 12.3588 43.7767 11.7485 45.3334 11.7485H94.0201C97.2367 11.7485 100.067 14.3652 100.328 17.5812L102.766 47.5181C102.893 49.0823 102.397 50.5563 101.371 51.6703C100.349 52.7789 98.9285 53.3891 97.3718 53.3891ZM45.3329 12.2166C43.9081 12.2166 42.6103 12.7739 41.6779 13.7852C40.7412 14.8014 40.2893 16.1494 40.4061 17.5812L42.8433 47.5181C43.0859 50.4974 45.7064 52.921 48.6851 52.921H97.3723C98.7966 52.921 100.095 52.3643 101.027 51.353C101.964 50.3363 102.416 48.9882 102.299 47.5559L99.8619 17.619C99.6193 14.6397 96.9983 12.2161 94.0201 12.2161L45.3329 12.2166Z" fill="#199675"/>
<path d="M44.5747 20.5729H70.3745L70.1669 18.0244H44.3672L44.5747 20.5729Z" fill="#E0E0E0"/>
<path d="M96.1743 20.5729H70.3746L70.167 18.0244H95.9667L96.1743 20.5729Z" fill="#199675"/>
<path d="M45.1148 27.2082H52.4749L52.2674 24.6592H44.9072L45.1148 27.2082Z" fill="#E0E0E0"/>
<path d="M96.7155 27.2082H52.4761L52.2686 24.6592H96.5079L96.7155 27.2082Z" fill="#199675"/>
<path d="M45.6548 33.8431H68.6201L68.4126 31.2946H45.4473L45.6548 33.8431Z" fill="#E0E0E0"/>
<path d="M97.2554 33.8431H68.6206L68.4131 31.2946H97.0478L97.2554 33.8431Z" fill="#199675"/>
<path d="M46.1949 40.4784H85.3885L85.181 37.9293H45.9873L46.1949 40.4784Z" fill="#E0E0E0"/>
<path d="M97.7941 40.4784H85.3882L85.1807 37.9293H97.5865L97.7941 40.4784Z" fill="#199675"/>
<path d="M46.7349 47.1131H64.8626L64.6551 44.5646H46.5273L46.7349 47.1131Z" fill="#E0E0E0"/>
<path d="M98.3346 47.1131H64.8628L64.6553 44.5646H98.1271L98.3346 47.1131Z" fill="#199675"/>
<path d="M163.928 53.155H115.242C112.152 53.155 109.418 50.627 109.167 47.5374L106.73 17.6006C106.478 14.511 108.8 11.983 111.89 11.983H160.577C163.666 11.983 166.4 14.511 166.652 17.6006L169.089 47.5374C169.34 50.627 167.018 53.155 163.928 53.155Z" fill="white"/>
<path d="M163.928 53.3891H115.242C112.025 53.3891 109.195 50.7725 108.933 47.5564L106.496 17.6196C106.369 16.0559 106.864 14.5814 107.891 13.4674C108.913 12.3588 110.333 11.7485 111.889 11.7485H160.577C163.793 11.7485 166.623 14.3652 166.885 17.5812L169.322 47.5181C169.45 49.0818 168.955 50.5563 167.928 51.6697C166.906 52.7789 165.486 53.3891 163.928 53.3891ZM111.889 12.2166C110.465 12.2166 109.167 12.7733 108.234 13.7846C107.298 14.8014 106.846 16.1494 106.962 17.5812L109.399 47.5181C109.642 50.4974 112.263 52.921 115.241 52.921H163.928C165.353 52.921 166.65 52.3638 167.583 51.3525C168.519 50.3363 168.971 48.9883 168.855 47.5564L166.417 17.6196C166.175 14.6403 163.554 12.2166 160.576 12.2166H111.889Z" fill="#199675"/>
<path d="M139.522 47.1132H138.662L136.294 18.0244H137.153L139.522 47.1132Z" fill="#E0E0E0"/>
<path d="M140.818 35.0258H135.396L134.471 23.6604H139.893L140.818 35.0258Z" fill="#199675"/>
<path d="M128.848 47.1132H127.989L125.621 18.0244H126.481L128.848 47.1132Z" fill="#E0E0E0"/>
<path d="M130.352 37.55H124.929L124.118 27.5878H129.541L130.352 37.55Z" fill="#199675"/>
<path d="M118.179 47.1132H117.319L114.951 18.0244H115.81L118.179 47.1132Z" fill="#E0E0E0"/>
<path d="M119.013 29.3536H113.591L113.034 22.5139H118.457L119.013 29.3536Z" fill="#263238"/>
<path d="M150.192 47.1132H149.333L146.965 18.0244H147.824L150.192 47.1132Z" fill="#E0E0E0"/>
<path d="M152.014 41.4773H146.592L145.142 23.6604H150.563L152.014 41.4773Z" fill="#263238"/>
<path d="M160.863 47.1132H160.004L157.636 18.0244H158.495L160.863 47.1132Z" fill="#E0E0E0"/>
<path d="M162.86 43.6123H157.438L156.276 29.3433H161.699L162.86 43.6123Z" fill="#199675"/>
<path d="M111.827 145.841H63.14C60.0504 145.841 57.3165 143.313 57.0652 140.224L54.628 110.287C54.3767 107.197 56.6987 104.669 59.7883 104.669H108.475C111.565 104.669 114.298 107.197 114.55 110.287L116.987 140.224C117.239 143.313 114.916 145.841 111.827 145.841Z" fill="white"/>
<path d="M111.826 146.075H63.1391C59.9225 146.075 57.0923 143.459 56.8307 140.242L54.3936 110.306C54.2666 108.742 54.7617 107.267 55.7881 106.153C56.8102 105.045 58.2307 104.435 59.7873 104.435H108.474C111.691 104.435 114.52 107.051 114.782 110.267L117.22 140.204C117.347 141.767 116.852 143.242 115.826 144.356C114.803 145.464 113.383 146.075 111.826 146.075ZM59.7873 104.903C58.3626 104.903 57.0642 105.46 56.1324 106.471C55.1957 107.487 54.7438 108.835 54.86 110.267L57.2972 140.204C57.5399 143.183 60.1608 145.607 63.1391 145.607H111.826C113.251 145.607 114.549 145.049 115.481 144.038C116.417 143.022 116.869 141.674 116.753 140.242L114.315 110.306C114.073 107.326 111.452 104.903 108.473 104.903H59.7873Z" fill="#199675"/>
<path d="M66.3751 124.541L76.8686 136.664L88.902 118.103L96.3438 127.694L98.1594 124.894L110.323 139.472L63.6055 139.454L66.3751 124.541Z" fill="#199675"/>
<path d="M101.406 125.293L96.5285 135.736L80.9731 111.038L73.6481 126.723L71.3012 122.996L63.6064 139.472L110.321 139.449L101.406 125.293Z" fill="#E0E0E0"/>
<path d="M181.539 90.4011L180.063 89.1464L178.131 89.3033L147.621 91.7822L142.958 92.161L143.337 96.8239L147.911 153.119L148.29 157.782L152.953 157.403L195.355 153.958L200.018 153.579L199.639 148.916L196.032 104.514L195.875 102.582L194.398 101.327L181.539 90.4011Z" fill="#DDEFEB" stroke="white" stroke-width="9.35653"/>
<path d="M179.477 105.859L191.369 104.892L178.511 93.9661L179.477 105.859Z" fill="#7CD1BB"/>
<path d="M164.708 117.194C164.7 117.124 164.683 117.055 164.666 116.986C164.656 116.867 164.642 116.747 164.633 116.627C164.601 116.262 164.417 115.897 164.137 115.659C163.871 115.433 163.453 115.281 163.101 115.325C162.736 115.371 162.365 115.523 162.133 115.822C161.902 116.118 161.765 116.475 161.799 116.858C161.807 116.952 161.812 117.046 161.819 117.14C161.807 117.235 161.806 117.331 161.817 117.429C161.845 118.04 161.883 118.644 161.95 119.252C161.963 119.379 161.997 119.503 162.041 119.623C162.046 119.655 162.047 119.687 162.052 119.719C162.114 120.092 162.245 120.421 162.542 120.674C162.804 120.897 163.216 121.047 163.563 121.003C163.923 120.958 164.288 120.808 164.518 120.513C164.735 120.234 164.907 119.856 164.846 119.492C164.847 119.467 164.844 119.443 164.843 119.418C164.872 119.287 164.888 119.153 164.873 119.015C164.838 118.404 164.778 117.801 164.708 117.194Z" fill="#263238"/>
<path d="M179.476 115.994C179.468 115.924 179.451 115.855 179.434 115.786C179.424 115.667 179.41 115.547 179.402 115.427C179.369 115.062 179.185 114.697 178.905 114.459C178.639 114.233 178.221 114.081 177.869 114.125C177.504 114.171 177.133 114.323 176.901 114.622C176.67 114.918 176.533 115.275 176.567 115.658C176.575 115.752 176.58 115.846 176.587 115.94C176.575 116.035 176.574 116.131 176.585 116.229C176.614 116.84 176.652 117.444 176.718 118.052C176.731 118.179 176.766 118.303 176.81 118.423C176.814 118.455 176.815 118.487 176.821 118.519C176.882 118.892 177.013 119.222 177.31 119.474C177.572 119.697 177.985 119.847 178.331 119.803C178.691 119.758 179.056 119.608 179.286 119.313C179.503 119.034 179.675 118.656 179.615 118.292C179.615 118.268 179.612 118.243 179.611 118.218C179.64 118.087 179.656 117.953 179.641 117.815C179.606 117.204 179.546 116.601 179.476 115.994Z" fill="#263238"/>
<path d="M177.801 127.487C177.655 126.824 176.891 126.418 176.349 126.1C175.834 125.798 175.284 125.574 174.716 125.393C173.526 125.016 172.228 124.909 171 125.153C169.821 125.388 168.703 125.876 167.745 126.607C166.962 127.205 165.709 128.245 165.798 129.344C165.816 129.572 166.063 129.743 166.282 129.654C166.701 129.484 167.03 129.103 167.333 128.778C167.676 128.409 168.061 128.086 168.48 127.805C169.295 127.258 170.239 126.887 171.216 126.772C172.184 126.657 173.183 126.744 174.107 127.061C174.573 127.221 175.032 127.44 175.449 127.702C175.919 127.995 176.322 128.485 176.898 128.549C177.557 128.623 177.934 128.098 177.801 127.487Z" fill="#263238"/>
<path d="M173.042 106.572C172.67 106.255 172.297 105.938 171.924 105.622C171.922 105.62 171.921 105.618 171.918 105.616C171.575 105.324 171.232 105.033 170.889 104.741C171.181 104.398 171.472 104.055 171.764 103.712C171.766 103.71 171.767 103.707 171.768 103.705C172.085 103.332 172.401 102.96 172.718 102.587C172.991 102.265 172.95 101.76 172.628 101.487C172.306 101.213 171.803 101.254 171.529 101.576C171.212 101.949 170.895 102.321 170.579 102.694C170.577 102.696 170.575 102.697 170.573 102.7C170.281 103.043 169.99 103.386 169.698 103.729C169.673 103.707 169.647 103.685 169.621 103.663L169.621 103.663C169.433 103.482 169.219 103.322 169.02 103.153C169.018 103.151 169.017 103.151 169.015 103.149C168.666 102.853 168.318 102.556 167.969 102.261C167.966 102.258 167.963 102.257 167.96 102.255C167.821 102.136 167.682 102.018 167.542 101.899C167.222 101.627 166.716 101.668 166.444 101.989C166.17 102.31 166.211 102.814 166.533 103.087C166.672 103.206 166.812 103.324 166.951 103.443C166.953 103.445 166.956 103.448 166.958 103.45C167.306 103.746 167.655 104.043 168.004 104.339C168.006 104.34 168.006 104.342 168.008 104.343C168.206 104.512 168.399 104.697 168.609 104.853L168.609 104.854C168.635 104.875 168.661 104.897 168.686 104.919C168.664 104.944 168.642 104.97 168.621 104.996L168.62 104.996C168.439 105.184 168.279 105.398 168.11 105.597C168.108 105.599 168.108 105.6 168.106 105.602C167.81 105.95 167.514 106.299 167.218 106.647C167.215 106.65 167.214 106.653 167.212 106.656C167.094 106.795 166.975 106.935 166.857 107.074C166.584 107.395 166.625 107.901 166.946 108.173C167.268 108.446 167.771 108.406 168.045 108.084C168.163 107.944 168.282 107.805 168.4 107.666C168.403 107.663 168.405 107.661 168.408 107.658C168.704 107.31 169 106.961 169.296 106.613C169.298 106.611 169.299 106.61 169.3 106.608C169.469 106.409 169.654 106.217 169.811 106.008L169.811 106.007C169.833 105.982 169.855 105.956 169.876 105.931C170.219 106.222 170.563 106.514 170.906 106.805C170.908 106.807 170.91 106.808 170.913 106.809C171.285 107.126 171.658 107.442 172.031 107.759C172.352 108.032 172.858 107.991 173.131 107.669C173.405 107.349 173.365 106.845 173.042 106.572Z" fill="#263238"/>
<path d="M144.024 143.78C144.109 143.085 144.406 142.537 144.917 142.138C145.43 141.712 146.035 141.542 146.731 141.627C147.827 141.761 148.837 141.721 149.759 141.508C150.685 141.268 151.447 140.805 152.047 140.118C152.674 139.434 153.062 138.477 153.213 137.246C153.324 136.336 153.194 135.506 152.825 134.755C152.482 134.007 151.947 133.385 151.22 132.889C150.52 132.396 149.688 132.091 148.725 131.973C147.976 131.881 147.25 131.928 146.549 132.114C145.874 132.303 145.241 132.593 144.651 132.982C144.177 133.304 143.621 133.521 142.983 133.633C142.374 133.722 141.79 133.501 141.231 132.971C140.647 132.411 140.37 131.794 140.398 131.118C140.426 130.443 140.756 129.859 141.386 129.365C142.47 128.493 143.687 127.868 145.037 127.49C146.416 127.088 147.842 126.977 149.313 127.157C151.159 127.383 152.766 128.013 154.133 129.049C155.53 130.062 156.583 131.331 157.292 132.857C158.002 134.383 158.247 136.042 158.028 137.834C157.865 139.172 157.519 140.338 156.99 141.333C156.464 142.3 155.781 143.113 154.941 143.77C154.13 144.404 153.202 144.888 152.156 145.222C151.141 145.533 150.047 145.711 148.873 145.758C148.816 145.778 148.76 145.798 148.703 145.819C148.673 145.842 148.655 145.881 148.648 145.934L148.467 147.419C148.382 148.114 148.082 148.675 147.569 149.101C147.058 149.501 146.455 149.658 145.76 149.573C145.064 149.488 144.517 149.19 144.117 148.68C143.721 148.142 143.566 147.526 143.651 146.83L144.024 143.78ZM144.681 156.732C143.905 156.637 143.328 156.363 142.949 155.909C142.6 155.432 142.473 154.805 142.567 154.03L142.651 153.347C142.746 152.571 143.018 152.007 143.469 151.655C143.949 151.279 144.577 151.139 145.353 151.234L145.875 151.297C146.651 151.392 147.213 151.678 147.562 152.155C147.941 152.609 148.083 153.224 147.988 154L147.905 154.682C147.81 155.458 147.523 156.033 147.042 156.409C146.592 156.761 145.979 156.89 145.203 156.795L144.681 156.732Z" fill="#199675"/>
</svg>
