<svg width="750" height="500" viewBox="0 0 750 500" fill="none" xmlns="http://www.w3.org/2000/svg">
<path d="M68.5917 271.342L71.0948 269.701L81.5317 273.732L84.8056 278.717C84.8056 278.717 88.8291 276.419 84.0844 270.189C79.3397 263.959 80.9307 265.296 80.9307 265.296C80.9307 265.296 89.1472 259.908 89.3311 258.72C89.4796 257.878 84.3814 249.527 81.5529 245.101C80.9046 244.001 79.908 243.148 78.7208 242.678C77.5336 242.208 76.2236 242.148 74.998 242.506C74.6616 242.618 74.3409 242.772 74.0434 242.965C71.9999 244.302 62.659 252.794 62.659 252.794L58.381 255.658L68.5917 271.342Z" fill="#EBEBEB"/>
<path d="M62.3387 277.409L52.6655 259.307L56.9435 256.5L67.932 273.258L62.3387 277.409Z" fill="#EBEBEB"/>
<path d="M713.15 187.77L710.33 188.23L702.77 180.64L701.86 175C701.86 175 697.45 175.44 699.16 182.74C700.87 190.04 700.01 188.25 700.01 188.25C700.01 188.25 690.74 189.78 690.1 190.71C689.64 191.39 690.87 200.64 691.58 205.65C691.715 206.865 692.253 208.001 693.109 208.874C693.964 209.748 695.088 210.31 696.3 210.47C696.632 210.513 696.968 210.513 697.3 210.47C699.61 210.09 711.12 206.3 711.12 206.3L716 205.51L713.15 187.77Z" fill="#EBEBEB"/>
<path d="M720.99 184.92L722.38 204.52L717.54 205.3L714.48 186.37L720.99 184.92Z" fill="#EBEBEB"/>
<path d="M708.189 57.9842L700.219 58.0273L700.433 97.6868L708.403 97.6436L708.189 57.9842Z" fill="#E0E0E0"/>
<path d="M651.81 58.0895L631.17 58.2012L631.288 80.1009L651.928 79.9892L651.81 58.0895Z" fill="#EBEBEB"/>
<path d="M672.358 57.9782L651.719 58.0898L651.837 79.9895L672.477 79.8778L672.358 57.9782Z" fill="#F5F5F5"/>
<path d="M631.2 64.2688C644.91 64.3788 658.67 64.2688 672.38 64.0788C672.438 64.0788 672.494 64.0556 672.536 64.0143C672.577 63.9731 672.6 63.9171 672.6 63.8588C672.6 63.8004 672.577 63.7445 672.536 63.7032C672.494 63.6619 672.438 63.6388 672.38 63.6388C658.66 63.5588 644.93 63.6421 631.19 63.8888C631.14 63.8888 631.091 63.9088 631.056 63.9444C631.02 63.98 631 64.0284 631 64.0788C631 64.1292 631.02 64.1775 631.056 64.2131C631.091 64.2487 631.14 64.2688 631.19 64.2688H631.2Z" fill="#E0E0E0"/>
<path d="M655.796 79.6174L618.297 79.8203L618.393 97.6601L655.893 97.4572L655.796 79.6174Z" fill="#EBEBEB"/>
<path d="M693.124 79.4143L655.625 79.6172L655.722 97.4569L693.221 97.254L693.124 79.4143Z" fill="#F5F5F5"/>
<path d="M618.321 84.8084C643.231 85.0884 668.241 84.8084 693.151 84.4384C693.209 84.4384 693.265 84.4152 693.306 84.3739C693.348 84.3327 693.371 84.2767 693.371 84.2184C693.371 84.16 693.348 84.1041 693.306 84.0628C693.265 84.0216 693.209 83.9984 693.151 83.9984C668.231 83.8684 643.231 83.8784 618.321 84.4284C618.27 84.4284 618.222 84.4484 618.186 84.484C618.151 84.5197 618.131 84.568 618.131 84.6184C618.131 84.6688 618.151 84.7171 618.186 84.7527C618.222 84.7884 618.27 84.8084 618.321 84.8084Z" fill="#E0E0E0"/>
<path d="M749.601 97.6895H604.301V104.079H749.601V97.6895Z" fill="#E0E0E0"/>
<path d="M633.98 100.76H628.08V122.57H633.98V100.76Z" fill="#E0E0E0"/>
<path d="M722.031 100.76H716.131V122.57H722.031V100.76Z" fill="#E0E0E0"/>
<path d="M715.968 43.1913L707.998 43.2344L708.293 97.7836L716.263 97.7405L715.968 43.1913Z" fill="#EBEBEB"/>
<path d="M728.423 53.3431L716.033 53.4102L716.272 97.6195L728.662 97.5525L728.423 53.3431Z" fill="#F5F5F5"/>
<path d="M728.339 61.8899C726.283 62.102 724.215 62.1722 722.149 62.0999C720.08 62.1719 718.009 62.1018 715.949 61.8899C720.074 61.5966 724.214 61.5966 728.339 61.8899Z" fill="#E0E0E0"/>
<path d="M728.339 59.9991C726.284 60.2177 724.215 60.2912 722.149 60.2191C720.08 60.291 718.008 60.2175 715.949 59.9991C720.074 59.7191 724.214 59.7191 728.339 59.9991Z" fill="#E0E0E0"/>
<path d="M728.339 90.929C724.214 91.209 720.074 91.209 715.949 90.929C720.074 90.6356 724.214 90.6356 728.339 90.929Z" fill="#E0E0E0"/>
<path d="M728.339 89.0694C724.214 89.3494 720.074 89.3494 715.949 89.0694C720.074 88.7894 724.214 88.7894 728.339 89.0694Z" fill="#E0E0E0"/>
<path d="M722.351 85C722.231 85 722.131 80.54 722.131 75C722.131 69.46 722.231 65 722.351 65C722.471 65 722.561 69.46 722.561 75C722.561 80.54 722.461 85 722.351 85Z" fill="#E0E0E0"/>
<path d="M741.951 64.2285H728.471V97.5985H741.951V64.2285Z" fill="#EBEBEB"/>
<path d="M714.161 52.5303C714.163 52.9856 714.029 53.4312 713.778 53.8108C713.526 54.1903 713.168 54.4867 712.748 54.6623C712.328 54.8379 711.865 54.8849 711.418 54.7973C710.971 54.7097 710.56 54.4914 710.238 54.1701C709.915 53.8489 709.695 53.4391 709.605 52.9927C709.516 52.5462 709.561 52.0833 709.735 51.6624C709.908 51.2416 710.203 50.8818 710.582 50.6286C710.96 50.3754 711.405 50.2403 711.861 50.2403C712.162 50.2389 712.461 50.2972 712.74 50.4117C713.019 50.5262 713.273 50.6947 713.486 50.9074C713.7 51.1202 713.87 51.3731 713.985 51.6516C714.101 51.9301 714.161 52.2287 714.161 52.5303Z" fill="#E0E0E0"/>
<path d="M712.58 58.8301H711.16V91.2801H712.58V58.8301Z" fill="#E0E0E0"/>
<path d="M685.46 432.84C685.46 432.99 547.88 433.1 378.19 433.1C208.5 433.1 70.9004 433 70.9004 432.84C70.9004 432.68 208.45 432.58 378.19 432.58C547.93 432.58 685.46 432.7 685.46 432.84Z" fill="#222222"/>
<path d="M620.777 6.75568e-06H133.248C131.25 -0.00187706 129.272 0.390234 127.426 1.15388C125.579 1.91753 123.902 3.03773 122.489 4.45038C121.077 5.86303 119.957 7.5404 119.193 9.38648C118.429 11.2326 118.037 13.2111 118.039 15.2089V359.571C118.037 361.57 118.429 363.549 119.193 365.396C119.956 367.243 121.076 368.921 122.489 370.335C123.901 371.749 125.578 372.87 127.424 373.635C129.271 374.401 131.25 374.794 133.248 374.794H320.366C320.366 374.794 332.267 411.599 295.361 430.646H470.321C470.321 430.646 428.675 416.325 439.373 374.794H620.777C624.812 374.794 628.682 373.192 631.537 370.341C634.391 367.489 635.997 363.62 636 359.586V15.2232C636.002 13.2235 635.61 11.2431 634.845 9.39531C634.081 7.5475 632.96 5.86856 631.546 4.45458C630.132 3.0406 628.453 1.91935 626.605 1.15498C624.757 0.390606 622.777 -0.00187706 620.777 6.75568e-06Z" fill="#222222"/>
<path d="M383.52 338.577C390.151 348.058 379.768 358.44 370.288 351.81C369.975 351.586 369.704 351.31 369.486 350.993C362.869 341.513 373.238 331.145 382.704 337.761C383.021 337.984 383.297 338.26 383.52 338.577Z" fill="#455A64"/>
<path d="M619.302 20.6504H133.72C131.134 20.6504 129.037 22.747 129.037 25.3334V309.548C129.037 312.134 131.134 314.231 133.72 314.231H619.302C621.888 314.231 623.985 312.134 623.985 309.548V25.3334C623.985 22.747 621.888 20.6504 619.302 20.6504Z" fill="#E6E6E6"/>
<path d="M623.947 42H129V314.07H623.947V42Z" fill="white"/>
<path d="M169.624 31.9936C169.624 32.7753 169.392 33.5395 168.958 34.1895C168.523 34.8395 167.906 35.3462 167.184 35.6453C166.462 35.9445 165.667 36.0228 164.9 35.8702C164.134 35.7177 163.429 35.3413 162.876 34.7885C162.324 34.2357 161.947 33.5314 161.795 32.7647C161.642 31.998 161.72 31.2033 162.02 30.481C162.319 29.7588 162.825 29.1415 163.475 28.7072C164.125 28.2728 164.89 28.041 165.671 28.041C166.72 28.041 167.725 28.4574 168.466 29.1987C169.208 29.9399 169.624 30.9453 169.624 31.9936Z" fill="#455A64"/>
<path d="M145.665 31.9936C145.665 32.7753 145.433 33.5395 144.999 34.1895C144.564 34.8395 143.947 35.3462 143.225 35.6453C142.503 35.9445 141.708 36.0228 140.941 35.8702C140.175 35.7177 139.47 35.3413 138.917 34.7885C138.365 34.2357 137.988 33.5314 137.836 32.7647C137.683 31.998 137.761 31.2033 138.061 30.481C138.36 29.7588 138.866 29.1415 139.516 28.7072C140.166 28.2728 140.931 28.041 141.712 28.041C142.761 28.041 143.766 28.4574 144.507 29.1987C145.249 29.9399 145.665 30.9453 145.665 31.9936Z" fill="#455A64"/>
<path d="M157.165 31.9936C157.165 32.7753 156.933 33.5395 156.499 34.1895C156.064 34.8395 155.447 35.3462 154.725 35.6453C154.003 35.9445 153.208 36.0228 152.441 35.8702C151.675 35.7177 150.97 35.3413 150.417 34.7885C149.865 34.2357 149.488 33.5314 149.336 32.7647C149.183 31.998 149.261 31.2033 149.561 30.481C149.86 29.7588 150.366 29.1415 151.016 28.7072C151.666 28.2728 152.431 28.041 153.212 28.041C154.261 28.041 155.266 28.4574 156.007 29.1987C156.749 29.9399 157.165 30.9453 157.165 31.9936Z" fill="#455A64"/>
<rect x="181.295" y="67.2955" width="388.818" height="25.4091" rx="5.70455" fill="white" stroke="#EEEEEE" stroke-width="0.590909"/>
<path d="M181.295 73C181.295 69.8495 183.849 67.2955 187 67.2955H286.477V92.7045H187C183.849 92.7045 181.295 90.1505 181.295 87V73Z" fill="#FAFAFA" stroke="#EEEEEE" stroke-width="0.590909"/>
<g clip-path="url(#clip0_6347_8826)">
<path d="M267.437 78.7969L264.869 81.3654C264.565 81.6687 264.069 81.6687 263.766 81.3654L261.197 78.7969" stroke="#888888" stroke-width="0.886364" stroke-miterlimit="10" stroke-linecap="round" stroke-linejoin="round"/>
</g>
<path d="M199.029 83.0898L201.591 76.2826H202.461L200.012 83.0898H199.029ZM204.295 83.0898L201.847 76.2826H202.764L205.335 83.0898H204.295ZM200.324 80.3764H203.974V81.2084H200.324V80.3764ZM206.332 83.0898V76.2826H207.315V83.0898H206.332ZM208.696 83.0898V76.2826H209.679V83.0898H208.696ZM215.931 83.1844C215.458 83.1844 215.02 83.0993 214.617 82.9291C214.214 82.7526 213.864 82.51 213.567 82.2011C213.278 81.886 213.051 81.5141 212.887 81.0855C212.723 80.6569 212.641 80.1873 212.641 79.6768C212.641 79.1662 212.72 78.6998 212.877 78.2775C213.041 77.8489 213.268 77.4801 213.558 77.1713C213.854 76.8561 214.204 76.6135 214.607 76.4433C215.011 76.2731 215.449 76.188 215.922 76.188C216.451 76.188 216.927 76.2952 217.349 76.5095C217.772 76.7175 218.115 77.0137 218.38 77.3982C218.651 77.7827 218.818 78.2302 218.881 78.7408H217.898C217.816 78.205 217.598 77.789 217.245 77.4928C216.899 77.1902 216.461 77.0389 215.931 77.0389C215.484 77.0389 215.086 77.1492 214.74 77.3698C214.399 77.5841 214.135 77.8898 213.946 78.2869C213.757 78.6777 213.662 79.141 213.662 79.6768C213.662 80.2062 213.757 80.6726 213.946 81.076C214.141 81.4731 214.409 81.782 214.749 82.0026C215.09 82.2232 215.484 82.3335 215.931 82.3335C216.461 82.3335 216.902 82.1854 217.255 81.8891C217.614 81.5866 217.831 81.1674 217.907 80.6317H218.9C218.83 81.1485 218.66 81.5992 218.389 81.9837C218.118 82.3618 217.772 82.6581 217.349 82.8724C216.933 83.0804 216.461 83.1844 215.931 83.1844ZM222.8 83.0898C222.768 82.9701 222.746 82.8377 222.734 82.6928C222.727 82.5478 222.724 82.3713 222.724 82.1633H222.677V79.8658C222.677 79.557 222.598 79.3269 222.441 79.1757C222.289 79.0181 222.047 78.9393 221.713 78.9393C221.391 78.9393 221.133 79.0023 220.937 79.1284C220.748 79.2544 220.638 79.4341 220.607 79.6673H219.671C219.715 79.2135 219.919 78.8511 220.285 78.58C220.651 78.309 221.139 78.1735 221.751 78.1735C222.381 78.1735 222.854 78.3216 223.169 78.6178C223.484 78.9078 223.641 79.3364 223.641 79.9037V82.1633C223.641 82.3083 223.651 82.4564 223.67 82.6077C223.689 82.7589 223.717 82.9197 223.755 83.0898H222.8ZM221.136 83.1844C220.644 83.1844 220.254 83.0646 219.964 82.8251C219.674 82.5793 219.529 82.2484 219.529 81.8324C219.529 81.4038 219.68 81.0666 219.983 80.8208C220.291 80.5686 220.733 80.3984 221.306 80.3102L222.895 80.0549V80.7451L221.457 80.972C221.136 81.0224 220.893 81.1075 220.729 81.2273C220.572 81.3471 220.493 81.5204 220.493 81.7473C220.493 81.9679 220.566 82.1349 220.711 82.2484C220.862 82.3555 221.079 82.4091 221.363 82.4091C221.741 82.4091 222.053 82.3177 222.299 82.1349C222.551 81.9521 222.677 81.7221 222.677 81.4448L222.8 82.1444C222.687 82.4784 222.485 82.7369 222.195 82.9197C221.905 83.0961 221.552 83.1844 221.136 83.1844ZM226.831 83.1844C226.27 83.1844 225.857 83.0552 225.593 82.7968C225.334 82.532 225.205 82.1444 225.205 81.6338V77.1618L226.179 76.7931V81.6433C226.179 81.8954 226.245 82.0814 226.377 82.2011C226.51 82.3209 226.724 82.3808 227.02 82.3808C227.134 82.3808 227.235 82.3713 227.323 82.3524C227.411 82.3335 227.487 82.3114 227.55 82.2862V83.0804C227.481 83.1119 227.383 83.1371 227.257 83.156C227.131 83.1749 226.989 83.1844 226.831 83.1844ZM224.241 79.0528V78.268H227.55V79.0528H224.241ZM230.442 83.1844C229.957 83.1844 229.528 83.0772 229.156 82.8629C228.791 82.6486 228.504 82.3524 228.296 81.9742C228.088 81.596 227.984 81.1611 227.984 80.6695C227.984 80.1715 228.085 79.7366 228.286 79.3648C228.494 78.9866 228.784 78.6935 229.156 78.4855C229.528 78.2775 229.954 78.1735 230.433 78.1735C230.899 78.1735 231.302 78.2743 231.643 78.476C231.989 78.6714 232.254 78.9456 232.437 79.2986C232.626 79.6515 232.721 80.0707 232.721 80.556C232.721 80.6317 232.717 80.7041 232.711 80.7735C232.711 80.8365 232.705 80.9027 232.692 80.972H228.646V80.2346H232.002L231.756 80.5277C231.756 80.0108 231.64 79.6169 231.406 79.3458C231.173 79.0748 230.849 78.9393 230.433 78.9393C229.985 78.9393 229.629 79.0937 229.364 79.4026C229.106 79.7051 228.977 80.1274 228.977 80.6695C228.977 81.2178 229.106 81.6464 229.364 81.9553C229.629 82.2641 229.995 82.4186 230.461 82.4186C230.745 82.4186 230.99 82.3618 231.198 82.2484C231.406 82.1286 231.561 81.9553 231.662 81.7284H232.588C232.431 82.1822 232.163 82.5383 231.785 82.7968C231.413 83.0552 230.965 83.1844 230.442 83.1844ZM235.768 85.1226C235.163 85.1226 234.662 84.9839 234.265 84.7066C233.874 84.4355 233.638 84.0731 233.556 83.6193H234.482C234.545 83.8273 234.684 83.9912 234.898 84.1109C235.119 84.2307 235.412 84.2906 235.778 84.2906C236.25 84.2906 236.603 84.174 236.837 83.9408C237.07 83.7075 237.186 83.3609 237.186 82.9008V81.8608L237.271 81.8797C237.177 82.2452 236.972 82.5352 236.657 82.7495C236.342 82.9575 235.964 83.0615 235.522 83.0615C235.1 83.0615 234.728 82.9606 234.407 82.7589C234.085 82.5572 233.836 82.2768 233.66 81.9175C233.483 81.5519 233.395 81.1264 233.395 80.6411C233.395 80.1495 233.486 79.7177 233.669 79.3458C233.852 78.974 234.107 78.6872 234.435 78.4855C234.769 78.2838 235.157 78.1829 235.598 78.1829C236.052 78.1829 236.427 78.2932 236.723 78.5138C237.026 78.7281 237.218 79.0338 237.3 79.4309L237.224 79.4404V78.268H238.16V82.8913C238.16 83.5846 237.946 84.1298 237.517 84.5269C237.095 84.924 236.512 85.1226 235.768 85.1226ZM235.815 82.2673C236.238 82.2673 236.575 82.1192 236.827 81.8229C237.085 81.5267 237.215 81.1201 237.215 80.6033C237.215 80.0991 237.085 79.702 236.827 79.412C236.575 79.1221 236.235 78.9771 235.806 78.9771C235.377 78.9771 235.037 79.1252 234.785 79.4215C234.533 79.7114 234.407 80.1148 234.407 80.6317C234.407 81.1359 234.533 81.5361 234.785 81.8324C235.043 82.1223 235.387 82.2673 235.815 82.2673ZM241.642 83.1844C241.15 83.1844 240.719 83.0772 240.347 82.8629C239.975 82.6423 239.685 82.3429 239.477 81.9648C239.269 81.5803 239.165 81.1454 239.165 80.66C239.165 80.1684 239.269 79.7366 239.477 79.3648C239.691 78.9929 239.981 78.7029 240.347 78.4949C240.719 78.2806 241.15 78.1735 241.642 78.1735C242.14 78.1735 242.575 78.2806 242.947 78.4949C243.319 78.7029 243.605 78.9929 243.807 79.3648C244.015 79.7366 244.119 80.1684 244.119 80.66C244.119 81.1454 244.015 81.5803 243.807 81.9648C243.605 82.3429 243.319 82.6423 242.947 82.8629C242.575 83.0772 242.14 83.1844 241.642 83.1844ZM241.642 82.3808C241.938 82.3808 242.194 82.3083 242.408 82.1633C242.628 82.0183 242.802 81.8166 242.928 81.5582C243.054 81.2998 243.117 80.9972 243.117 80.6506C243.117 80.1337 242.978 79.7272 242.701 79.4309C242.43 79.1284 242.077 78.9771 241.642 78.9771C241.213 78.9771 240.86 79.1284 240.583 79.4309C240.312 79.7335 240.177 80.14 240.177 80.6506C240.177 80.9972 240.236 81.2998 240.356 81.5582C240.482 81.8166 240.656 82.0183 240.876 82.1633C241.103 82.3083 241.358 82.3808 241.642 82.3808ZM245.129 83.0898V78.268H246.065V79.4688H246.112V83.0898H245.129ZM246.112 80.5749L245.989 79.4309C246.103 79.0212 246.298 78.7092 246.576 78.4949C246.853 78.2806 247.184 78.1735 247.568 78.1735C247.713 78.1735 247.814 78.1861 247.871 78.2113V79.1378C247.839 79.1252 247.795 79.1189 247.739 79.1189C247.682 79.1126 247.612 79.1095 247.531 79.1095C247.058 79.1095 246.702 79.2324 246.462 79.4782C246.229 79.724 246.112 80.0896 246.112 80.5749ZM249.163 85.028L250.326 82.3713L250.525 82.0593L251.99 78.268H253.011L250.175 85.028H249.163ZM250.279 83.0898L248.218 78.268H249.286L251.035 82.6077L250.279 83.0898Z" fill="#888888"/>
<rect x="546.182" y="68.7715" width="22.4545" height="22.4545" rx="6" fill="#199675"/>
<g clip-path="url(#clip1_6347_8826)">
<path d="M557.167 84.35C559.704 84.35 561.76 82.2937 561.76 79.757C561.76 77.2204 559.704 75.1641 557.167 75.1641C554.631 75.1641 552.574 77.2204 552.574 79.757C552.574 82.2937 554.631 84.35 557.167 84.35Z" stroke="white" stroke-width="0.886364" stroke-linecap="round" stroke-linejoin="round"/>
<path d="M562.242 84.8322L561.275 83.8652" stroke="white" stroke-width="0.886364" stroke-linecap="round" stroke-linejoin="round"/>
</g>
<path d="M307.62 83.1769C306.826 83.1769 306.192 82.9815 305.72 82.5907C305.253 82.1999 304.979 81.6421 304.897 80.9173H305.653C305.723 81.4404 305.921 81.8343 306.249 82.0991C306.577 82.3638 307.031 82.4962 307.611 82.4962C308.102 82.4962 308.471 82.4048 308.717 82.222C308.969 82.0329 309.095 81.7587 309.095 81.3994C309.095 81.0906 309.01 80.8448 308.84 80.662C308.669 80.4792 308.405 80.3279 308.045 80.2082L306.901 79.8111C306.322 79.6094 305.893 79.3667 305.616 79.0831C305.338 78.7931 305.2 78.4276 305.2 77.9863C305.2 77.6208 305.291 77.3056 305.474 77.0409C305.657 76.7699 305.915 76.5587 306.249 76.4074C306.583 76.2562 306.971 76.1805 307.412 76.1805C308.093 76.1805 308.638 76.3602 309.048 76.7194C309.457 77.0724 309.694 77.5766 309.757 78.2322H309C308.918 77.7594 308.748 77.4128 308.49 77.1922C308.238 76.9716 307.872 76.8613 307.393 76.8613C306.939 76.8613 306.586 76.9526 306.334 77.1354C306.082 77.3182 305.956 77.5766 305.956 77.9107C305.956 78.1943 306.044 78.4213 306.221 78.5914C306.397 78.7616 306.671 78.9097 307.043 79.0358L308.263 79.4613C308.792 79.644 309.189 79.893 309.454 80.2082C309.719 80.517 309.851 80.9109 309.851 81.39C309.851 81.9573 309.656 82.3985 309.265 82.7136C308.881 83.0225 308.332 83.1769 307.62 83.1769ZM312.966 83.1863C312.506 83.1863 312.099 83.0792 311.746 82.8649C311.393 82.6443 311.116 82.3449 310.914 81.9667C310.713 81.5885 310.612 81.1536 310.612 80.662C310.612 80.1703 310.71 79.7386 310.905 79.3667C311.107 78.9885 311.387 78.6954 311.746 78.4874C312.106 78.2794 312.519 78.1754 312.985 78.1754C313.432 78.1754 313.82 78.2731 314.148 78.4685C314.482 78.6639 314.737 78.9381 314.914 79.2911C315.096 79.644 315.188 80.06 315.188 80.5391C315.188 80.6021 315.185 80.662 315.178 80.7187C315.178 80.7754 315.172 80.8385 315.159 80.9078H311.179V80.2743H314.696L314.45 80.6242C314.45 80.0443 314.321 79.5999 314.063 79.2911C313.811 78.9759 313.451 78.8183 312.985 78.8183C312.506 78.8183 312.118 78.9854 311.822 79.3194C311.532 79.6472 311.387 80.0916 311.387 80.6525C311.387 81.2261 311.532 81.6862 311.822 82.0329C312.118 82.3733 312.512 82.5434 313.004 82.5434C313.313 82.5434 313.584 82.4773 313.817 82.3449C314.05 82.2062 314.22 82.0108 314.327 81.7587H315.046C314.888 82.1999 314.624 82.5497 314.252 82.8082C313.886 83.0603 313.458 83.1863 312.966 83.1863ZM319.258 83.0918C319.233 82.9846 319.214 82.8617 319.202 82.7231C319.195 82.5844 319.192 82.4079 319.192 82.1936H319.145V79.8867C319.145 79.5211 319.06 79.2533 318.89 79.0831C318.726 78.9066 318.458 78.8183 318.086 78.8183C317.72 78.8183 317.427 78.894 317.207 79.0453C316.992 79.1902 316.873 79.3982 316.847 79.6693H316.119C316.151 79.2028 316.346 78.8373 316.706 78.5725C317.065 78.3078 317.534 78.1754 318.114 78.1754C318.713 78.1754 319.157 78.3173 319.447 78.6009C319.737 78.8845 319.882 79.31 319.882 79.8773V82.1936C319.882 82.3323 319.892 82.4773 319.911 82.6285C319.93 82.7735 319.955 82.9279 319.986 83.0918H319.258ZM317.604 83.1863C317.106 83.1863 316.709 83.0666 316.412 82.8271C316.122 82.5813 315.978 82.2472 315.978 81.8249C315.978 81.4026 316.122 81.0748 316.412 80.8416C316.702 80.6084 317.125 80.4445 317.679 80.35L319.362 80.0663V80.6903L317.793 80.9362C317.44 80.9929 317.172 81.0874 316.989 81.2198C316.806 81.3522 316.715 81.5444 316.715 81.7965C316.715 82.0423 316.797 82.2283 316.961 82.3543C317.131 82.4804 317.38 82.5434 317.708 82.5434C318.13 82.5434 318.474 82.4489 318.738 82.2598C319.009 82.0644 319.145 81.8123 319.145 81.5034L319.268 82.1747C319.167 82.4962 318.968 82.7451 318.672 82.9216C318.382 83.0981 318.026 83.1863 317.604 83.1863ZM321.34 83.0918V78.27H322.049V79.4991H322.097V83.0918H321.34ZM322.097 80.5769L321.974 79.4329C322.087 79.0232 322.289 78.7112 322.579 78.4969C322.869 78.2826 323.203 78.1754 323.581 78.1754C323.738 78.1754 323.846 78.188 323.902 78.2133V78.9413C323.871 78.9286 323.827 78.9223 323.77 78.9223C323.713 78.916 323.644 78.9129 323.562 78.9129C323.083 78.9129 322.717 79.0579 322.465 79.3478C322.219 79.6314 322.097 80.0411 322.097 80.5769ZM326.629 83.1863C326.188 83.1863 325.794 83.0792 325.447 82.8649C325.107 82.6443 324.836 82.3449 324.634 81.9667C324.439 81.5822 324.341 81.1473 324.341 80.662C324.341 80.1766 324.439 79.748 324.634 79.3762C324.836 79.0043 325.107 78.7112 325.447 78.4969C325.794 78.2826 326.185 78.1754 326.62 78.1754C326.979 78.1754 327.301 78.2448 327.584 78.3834C327.874 78.5221 328.11 78.7206 328.293 78.9791C328.482 79.2312 328.602 79.5274 328.653 79.8678H327.953C327.89 79.5589 327.745 79.3068 327.518 79.1114C327.291 78.916 326.998 78.8183 326.639 78.8183C326.33 78.8183 326.062 78.894 325.835 79.0453C325.608 79.1965 325.432 79.4108 325.306 79.6882C325.18 79.9655 325.117 80.2901 325.117 80.662C325.117 81.0339 325.18 81.3616 325.306 81.6453C325.432 81.9289 325.608 82.1495 325.835 82.3071C326.068 82.4646 326.339 82.5434 326.648 82.5434C326.995 82.5434 327.285 82.4489 327.518 82.2598C327.751 82.0644 327.899 81.8123 327.962 81.5034H328.662C328.605 81.8375 328.479 82.1337 328.284 82.3922C328.095 82.6443 327.858 82.8397 327.575 82.9783C327.291 83.117 326.976 83.1863 326.629 83.1863ZM329.761 83.0918V76.2845H330.517V83.0918H329.761ZM333.212 83.0918V79.934C333.212 79.5684 333.12 79.2942 332.937 79.1114C332.755 78.9286 332.484 78.8373 332.124 78.8373C331.809 78.8373 331.529 78.9066 331.283 79.0453C331.043 79.1839 330.854 79.3762 330.716 79.622C330.583 79.8678 330.517 80.1546 330.517 80.4823L330.394 79.3383C330.558 78.9791 330.807 78.6954 331.141 78.4874C331.481 78.2794 331.866 78.1754 332.294 78.1754C332.799 78.1754 333.202 78.3204 333.505 78.6103C333.813 78.894 333.968 79.269 333.968 79.7354V83.0918H333.212ZM337.313 83.0918V76.2845H338.07V83.0918H337.313ZM340.764 83.0918V79.934C340.764 79.5684 340.673 79.2942 340.49 79.1114C340.307 78.9286 340.036 78.8373 339.677 78.8373C339.362 78.8373 339.081 78.9066 338.835 79.0453C338.596 79.1839 338.407 79.3762 338.268 79.622C338.136 79.8678 338.07 80.1546 338.07 80.4823L337.947 79.3383C338.111 78.9791 338.359 78.6954 338.694 78.4874C339.034 78.2794 339.418 78.1754 339.847 78.1754C340.351 78.1754 340.755 78.3204 341.057 78.6103C341.366 78.894 341.52 79.269 341.52 79.7354V83.0918H340.764ZM344.949 83.1863C344.489 83.1863 344.082 83.0792 343.729 82.8649C343.376 82.6443 343.099 82.3449 342.897 81.9667C342.696 81.5885 342.595 81.1536 342.595 80.662C342.595 80.1703 342.692 79.7386 342.888 79.3667C343.09 78.9885 343.37 78.6954 343.729 78.4874C344.089 78.2794 344.501 78.1754 344.968 78.1754C345.415 78.1754 345.803 78.2731 346.131 78.4685C346.465 78.6639 346.72 78.9381 346.897 79.2911C347.079 79.644 347.171 80.06 347.171 80.5391C347.171 80.6021 347.168 80.662 347.161 80.7187C347.161 80.7754 347.155 80.8385 347.142 80.9078H343.162V80.2743H346.679L346.433 80.6242C346.433 80.0443 346.304 79.5999 346.046 79.2911C345.794 78.9759 345.434 78.8183 344.968 78.8183C344.489 78.8183 344.101 78.9854 343.805 79.3194C343.515 79.6472 343.37 80.0916 343.37 80.6525C343.37 81.2261 343.515 81.6862 343.805 82.0329C344.101 82.3733 344.495 82.5434 344.987 82.5434C345.296 82.5434 345.567 82.4773 345.8 82.3449C346.033 82.2062 346.203 82.0108 346.31 81.7587H347.029C346.871 82.1999 346.607 82.5497 346.235 82.8082C345.869 83.0603 345.441 83.1863 344.949 83.1863ZM348.31 83.0918V78.27H349.019V79.4991H349.066V83.0918H348.31ZM349.066 80.5769L348.943 79.4329C349.057 79.0232 349.258 78.7112 349.548 78.4969C349.838 78.2826 350.172 78.1754 350.55 78.1754C350.708 78.1754 350.815 78.188 350.872 78.2133V78.9413C350.84 78.9286 350.796 78.9223 350.739 78.9223C350.683 78.916 350.613 78.9129 350.531 78.9129C350.052 78.9129 349.687 79.0579 349.435 79.3478C349.189 79.6314 349.066 80.0411 349.066 80.5769ZM353.665 83.1863C353.205 83.1863 352.798 83.0792 352.445 82.8649C352.092 82.6443 351.815 82.3449 351.613 81.9667C351.412 81.5885 351.311 81.1536 351.311 80.662C351.311 80.1703 351.408 79.7386 351.604 79.3667C351.805 78.9885 352.086 78.6954 352.445 78.4874C352.805 78.2794 353.217 78.1754 353.684 78.1754C354.131 78.1754 354.519 78.2731 354.847 78.4685C355.181 78.6639 355.436 78.9381 355.613 79.2911C355.795 79.644 355.887 80.06 355.887 80.5391C355.887 80.6021 355.884 80.662 355.877 80.7187C355.877 80.7754 355.871 80.8385 355.858 80.9078H351.878V80.2743H355.395L355.149 80.6242C355.149 80.0443 355.02 79.5999 354.762 79.2911C354.509 78.9759 354.15 78.8183 353.684 78.8183C353.205 78.8183 352.817 78.9854 352.521 79.3194C352.231 79.6472 352.086 80.0916 352.086 80.6525C352.086 81.2261 352.231 81.6862 352.521 82.0329C352.817 82.3733 353.211 82.5434 353.703 82.5434C354.012 82.5434 354.283 82.4773 354.516 82.3449C354.749 82.2062 354.919 82.0108 355.026 81.7587H355.745C355.587 82.1999 355.323 82.5497 354.951 82.8082C354.585 83.0603 354.157 83.1863 353.665 83.1863ZM356.563 83.0918V82.118H357.537V83.0918H356.563ZM358.594 83.0918V82.118H359.568V83.0918H358.594ZM360.626 83.0918V82.118H361.599V83.0918H360.626Z" fill="#888888"/>
<rect x="181" y="97" width="388" height="193" rx="6" fill="#FAFAFA"/>
<rect x="195" y="103" width="54" height="6" fill="#EEEEEE"/>
<rect x="195" y="140" width="54" height="6" fill="#EEEEEE"/>
<rect x="195" y="154" width="27" height="23" fill="#EEEEEE"/>
<rect x="195" y="186" width="27" height="23" fill="#EEEEEE"/>
<rect x="195" y="220" width="27" height="23" fill="#EEEEEE"/>
<rect x="195" y="253" width="27" height="23" fill="#EEEEEE"/>
<rect x="225" y="158" width="53" height="5" fill="#EEEEEE"/>
<rect x="225" y="190" width="78" height="5" fill="#EEEEEE"/>
<rect x="225" y="224" width="78" height="5" fill="#EEEEEE"/>
<rect x="225" y="257" width="78" height="5" fill="#EEEEEE"/>
<rect x="225" y="169" width="57" height="5" fill="#EEEEEE"/>
<rect x="225" y="201" width="57" height="5" fill="#EEEEEE"/>
<rect x="225" y="235" width="57" height="5" fill="#EEEEEE"/>
<rect x="225" y="268" width="57" height="5" fill="#EEEEEE"/>
<rect x="195" y="115" width="24" height="12" fill="#199675"/>
<rect x="229" y="115" width="38" height="12" fill="#199675"/>
<rect x="277" y="115" width="29" height="12" fill="#199675"/>
<rect x="316" y="115" width="29" height="12" fill="#199675"/>
<rect x="355" y="115" width="46" height="12" fill="#199675"/>
<path d="M561.334 455.641L563.194 463.471C563.194 463.471 576.004 480.101 579.954 479.291C582.544 478.761 579.364 474.421 574.494 461.781L573.494 456.571L561.334 455.641Z" fill="#199675"/>
<path d="M580.475 476.829C580.322 477.114 580.085 477.345 579.795 477.489C579.394 477.661 578.954 477.72 578.522 477.66C578.09 477.601 577.683 477.424 577.345 477.149C575.099 475.279 572.969 473.276 570.965 471.149C568.595 468.659 566.605 466.269 565.205 464.499L563.565 462.399C563.415 462.189 563.265 461.999 563.125 461.819C563.077 461.748 563.02 461.684 562.955 461.629C562.955 461.629 562.955 461.709 563.085 461.849C563.215 461.989 563.355 462.229 563.495 462.449C563.855 462.969 564.395 463.709 565.075 464.599C566.863 466.937 568.776 469.177 570.805 471.309C572.811 473.458 574.967 475.463 577.255 477.309C577.68 477.611 578.176 477.797 578.695 477.849C579.09 477.873 579.485 477.786 579.835 477.599C580.054 477.481 580.24 477.309 580.375 477.099C580.427 477.017 580.461 476.925 580.475 476.829Z" fill="#222222"/>
<path d="M578.664 471.49C578.327 471.358 577.962 471.317 577.604 471.37C576.746 471.457 575.92 471.745 575.194 472.21C574.441 472.64 573.832 473.284 573.444 474.06C573.276 474.368 573.18 474.71 573.164 475.06C573.164 475.06 573.284 474.67 573.584 474.11C573.996 473.39 574.594 472.793 575.314 472.38C576.017 471.934 576.803 471.634 577.624 471.5C578.254 471.44 578.654 471.53 578.664 471.49Z" fill="#222222"/>
<path d="M566.533 467.579C566.533 467.579 566.613 467.459 566.693 467.209C566.805 466.86 566.889 466.502 566.943 466.139C567.127 464.919 566.916 463.672 566.343 462.579C565.792 461.469 564.878 460.58 563.753 460.059C563.435 459.909 563.099 459.798 562.753 459.729C562.618 459.705 562.479 459.705 562.343 459.729C562.821 459.853 563.286 460.021 563.733 460.229C564.793 460.772 565.654 461.637 566.193 462.699C566.738 463.759 566.961 464.954 566.833 466.139C566.673 466.999 566.493 467.569 566.533 467.579Z" fill="#222222"/>
<path d="M562.155 457C562.095 457 562.385 458.11 562.625 459.5C562.719 460.349 562.941 461.178 563.285 461.96C563.335 461.96 563.085 460.84 562.845 459.45C562.737 458.604 562.505 457.778 562.155 457Z" fill="#222222"/>
<path d="M574.715 462.891C574.179 462.734 573.61 462.734 573.075 462.891C572.523 462.974 572.009 463.217 571.595 463.591C571.595 463.651 572.265 463.31 573.125 463.11C573.985 462.91 574.715 463.001 574.715 462.891Z" fill="#222222"/>
<path d="M574.984 464.229C574.542 464.047 574.049 464.029 573.594 464.179C573.124 464.251 572.695 464.489 572.384 464.849C572.384 464.849 572.934 464.569 573.654 464.399C574.374 464.229 574.974 464.299 574.984 464.229Z" fill="#222222"/>
<path d="M576.004 465.91C575.792 465.779 575.555 465.695 575.309 465.664C575.062 465.633 574.811 465.655 574.574 465.73C574.327 465.767 574.091 465.855 573.88 465.989C573.67 466.124 573.491 466.301 573.354 466.51C573.748 466.304 574.16 466.133 574.584 466C575.053 465.92 575.529 465.89 576.004 465.91Z" fill="#222222"/>
<path d="M573.834 462.33C573.834 462.33 573.244 462.17 572.334 461.81C571.8 461.601 571.282 461.354 570.784 461.07C570.504 460.91 570.224 460.73 569.934 460.53C569.644 460.33 569.394 460.05 569.404 459.75C569.414 459.45 569.784 459.28 570.084 459.35C570.39 459.453 570.663 459.636 570.874 459.88C571.344 460.32 571.744 460.75 572.074 461.11C572.724 461.85 573.074 462.34 573.074 462.31C573.012 462.18 572.938 462.056 572.854 461.94C572.694 461.71 572.464 461.39 572.144 461.01C571.783 460.557 571.392 460.13 570.974 459.73C570.738 459.453 570.43 459.245 570.084 459.13C569.979 459.093 569.867 459.08 569.757 459.092C569.646 459.103 569.539 459.139 569.444 459.196C569.348 459.253 569.267 459.331 569.205 459.423C569.142 459.515 569.101 459.62 569.084 459.73C569.104 459.935 569.173 460.133 569.284 460.307C569.395 460.48 569.546 460.625 569.724 460.73C570.007 460.929 570.301 461.112 570.604 461.28C571.113 461.56 571.645 461.798 572.194 461.99C572.564 462.115 572.942 462.218 573.324 462.3C573.492 462.335 573.663 462.345 573.834 462.33Z" fill="#222222"/>
<path d="M573.164 462.17C573.265 461.698 573.342 461.22 573.394 460.74C573.479 460.227 573.626 459.727 573.834 459.25C573.958 458.979 574.12 458.726 574.314 458.5C574.504 458.28 574.804 458.09 575.044 458.23C575.284 458.37 575.314 458.72 575.284 459.01C575.234 459.305 575.15 459.594 575.034 459.87C574.822 460.341 574.539 460.776 574.194 461.16C573.604 461.82 573.134 462.16 573.194 462.16C573.316 462.109 573.43 462.042 573.534 461.96C573.821 461.746 574.091 461.512 574.344 461.26C574.72 460.875 575.027 460.428 575.254 459.94C575.392 459.652 575.486 459.346 575.534 459.03C575.575 458.847 575.564 458.657 575.502 458.48C575.441 458.303 575.33 458.147 575.184 458.03C575.006 457.962 574.81 457.956 574.628 458.015C574.446 458.073 574.29 458.191 574.184 458.35C573.975 458.595 573.806 458.872 573.684 459.17C573.472 459.66 573.333 460.179 573.274 460.71C573.224 461.16 573.204 461.52 573.194 461.77C573.162 461.901 573.151 462.036 573.164 462.17Z" fill="#222222"/>
<g opacity="0.4">
<path d="M563.194 463.469L562.294 459.709C562.294 459.709 565.434 460.289 566.244 462.639C566.725 463.915 566.936 465.277 566.864 466.639L573.684 473.999C573.684 473.999 575.394 470.659 578.494 471.459C578.494 471.459 580.934 476.829 580.854 478.169C580.774 479.509 579.214 479.349 578.664 479.099C576.408 477.791 574.35 476.168 572.554 474.279C568.944 470.529 564.944 465.779 563.194 463.469Z" fill="black"/>
</g>
<path d="M500.004 460.67L499.944 450.23L519.504 450L519.754 465.27L518.544 465.36C513.144 465.73 491.094 466.84 487.464 465.79C483.434 464.62 500.004 460.67 500.004 460.67Z" fill="#199675"/>
<g opacity="0.4">
<path d="M512.655 465.199C512.928 463.546 513.8 462.051 515.105 460.999C516.383 459.955 518.007 459.431 519.655 459.529L519.725 464.989L512.655 465.199Z" fill="black"/>
</g>
<g opacity="0.4">
<path d="M491.904 462.891C491.904 462.891 486.104 464.641 486.844 465.591C487.584 466.541 509.914 466.261 519.754 465.271V464.841L493.754 465.391C493.754 465.391 493.044 462.931 491.904 462.891Z" fill="black"/>
</g>
<path d="M520.023 464.82H519.683L518.683 464.89L515.123 465.09C512.123 465.23 507.973 465.38 503.393 465.44C498.813 465.5 494.653 465.44 491.653 465.44L488.093 465.33H487.093C486.984 465.337 486.873 465.337 486.763 465.33C486.876 465.315 486.991 465.315 487.103 465.33H488.103H491.663C494.663 465.33 498.813 465.33 503.403 465.33C507.993 465.33 512.133 465.14 515.133 465.04L518.683 464.92H519.683L520.023 464.82Z" fill="#222222"/>
<path d="M493.674 465.69C493.517 465.101 493.289 464.534 492.994 464C492.639 463.506 492.226 463.056 491.764 462.66C492.348 462.91 492.842 463.329 493.183 463.865C493.524 464.4 493.695 465.026 493.674 465.66V465.69Z" fill="#222222"/>
<path d="M499.414 462.69C499.354 462.69 499.074 462.39 498.784 461.95C498.579 461.695 498.432 461.398 498.354 461.08C498.414 461.08 498.694 461.37 498.984 461.82C499.191 462.074 499.338 462.371 499.414 462.69Z" fill="#222222"/>
<path d="M500.984 461.83C500.984 461.88 500.634 461.68 500.294 461.38C499.954 461.08 499.704 460.8 499.754 460.75C499.804 460.7 500.104 460.91 500.444 461.2C500.784 461.49 501.024 461.78 500.984 461.83Z" fill="#222222"/>
<path d="M501.965 460C501.647 460.123 501.305 460.174 500.965 460.15C500.628 460.194 500.286 460.159 499.965 460.05C500.284 459.929 500.625 459.882 500.965 459.91C501.301 459.873 501.641 459.903 501.965 460Z" fill="#222222"/>
<path d="M502.295 458.671C501.958 458.897 501.561 459.016 501.155 459.011C500.756 459.085 500.345 459.036 499.975 458.871C500.358 458.806 500.746 458.776 501.135 458.781C501.516 458.701 501.905 458.664 502.295 458.671Z" fill="#222222"/>
<path d="M498.725 461C498.311 461.074 497.888 461.074 497.475 461C497.017 460.948 496.565 460.855 496.125 460.72C495.857 460.65 495.599 460.549 495.355 460.42C495.206 460.333 495.096 460.194 495.045 460.03C495.021 459.938 495.025 459.841 495.057 459.752C495.089 459.662 495.148 459.585 495.225 459.53C495.701 459.288 496.246 459.219 496.767 459.333C497.289 459.448 497.754 459.74 498.085 460.16C498.282 460.407 498.426 460.693 498.505 461C498.533 461.111 498.533 461.228 498.505 461.34C498.372 460.951 498.172 460.589 497.915 460.27C497.629 459.942 497.254 459.705 496.835 459.59C496.589 459.507 496.33 459.475 496.072 459.496C495.814 459.516 495.563 459.589 495.335 459.71C495.145 459.86 495.225 460.09 495.445 460.22C495.67 460.341 495.908 460.438 496.155 460.51C496.58 460.65 497.014 460.76 497.455 460.84C498.245 461 498.725 461 498.725 461Z" fill="#222222"/>
<path d="M498.403 461.059C498.245 460.799 498.188 460.489 498.243 460.189C498.281 459.861 498.394 459.546 498.573 459.269C498.673 459.086 498.816 458.929 498.991 458.814C499.165 458.699 499.365 458.629 499.573 458.609C499.701 458.638 499.812 458.714 499.887 458.821C499.961 458.929 499.992 459.06 499.973 459.189C499.946 459.389 499.875 459.581 499.763 459.749C499.603 460.029 499.408 460.288 499.183 460.519C498.99 460.749 498.742 460.928 498.463 461.039C498.463 461.039 498.713 460.809 499.053 460.409C499.253 460.175 499.427 459.92 499.573 459.649C499.743 459.379 499.853 458.899 499.573 458.849C499.293 458.799 498.943 459.139 498.753 459.389C498.58 459.634 498.464 459.914 498.413 460.209C498.383 460.492 498.379 460.776 498.403 461.059Z" fill="#222222"/>
<path d="M519.584 459.469C519.584 459.469 519.024 459.469 518.144 459.539C516.992 459.678 515.904 460.142 515.006 460.877C514.108 461.612 513.438 462.587 513.074 463.689C512.784 464.529 512.764 465.099 512.714 465.089C512.695 464.96 512.695 464.828 512.714 464.699C512.738 464.339 512.805 463.983 512.914 463.639C513.252 462.487 513.928 461.463 514.854 460.699C515.785 459.938 516.925 459.477 518.124 459.379C518.483 459.342 518.845 459.342 519.204 459.379C519.335 459.388 519.463 459.419 519.584 459.469Z" fill="#222222"/>
<path d="M517.424 451.359C517.577 452.687 517.65 454.023 517.644 455.359C517.728 456.691 517.728 458.027 517.644 459.359C517.499 458.031 517.426 456.696 517.424 455.359C517.346 454.027 517.346 452.692 517.424 451.359Z" fill="#222222"/>
<path d="M510.174 463.329C509.242 463.56 508.284 463.667 507.324 463.649C506.363 463.709 505.398 463.645 504.454 463.459C504.454 463.389 505.744 463.459 507.314 463.459C508.884 463.459 510.164 463.259 510.174 463.329Z" fill="#222222"/>
<path d="M514.004 463.269C514.054 463.319 513.904 463.549 513.774 463.839C513.644 464.129 513.584 464.399 513.514 464.389C513.444 464.379 513.414 464.089 513.514 463.749C513.614 463.409 513.964 463.229 514.004 463.269Z" fill="#222222"/>
<path d="M515.424 461.46C515.424 461.46 515.354 461.71 515.154 461.92C514.954 462.13 514.754 462.26 514.704 462.21C514.654 462.16 514.784 461.96 514.984 461.75C515.184 461.54 515.384 461.41 515.424 461.46Z" fill="#222222"/>
<path d="M517.483 460.61C517.483 460.68 517.213 460.68 516.923 460.78C516.633 460.88 516.433 461.04 516.383 461C516.333 460.96 516.493 460.68 516.843 460.56C517.193 460.44 517.503 460.55 517.483 460.61Z" fill="#222222"/>
<path d="M518.955 460.199C518.955 460.259 518.865 460.369 518.705 460.429C518.545 460.489 518.395 460.499 518.365 460.429C518.335 460.359 518.455 460.269 518.615 460.199C518.775 460.129 518.925 460.139 518.955 460.199Z" fill="#222222"/>
<path d="M486.774 259.289L494.284 455.319L524.744 455.959L519.684 286.099L553.944 457.259H582.904L545.594 259.679L486.774 259.289Z" fill="#222222"/>
<path d="M512.665 266.42C512.696 267.504 512.813 268.584 513.015 269.65C513.305 271.65 513.725 274.37 514.235 277.39C514.428 278.825 514.719 280.245 515.105 281.64C515.448 282.821 516.147 283.869 517.105 284.64C517.742 285.161 518.504 285.506 519.315 285.64C519.607 285.715 519.913 285.715 520.205 285.64C519.109 285.499 518.082 285.03 517.258 284.295C516.433 283.559 515.85 282.592 515.585 281.52C515.237 280.139 514.967 278.741 514.775 277.33C514.265 274.33 513.775 271.58 513.405 269.62C513.249 268.534 513.001 267.464 512.665 266.42Z" fill="#455A64"/>
<path d="M519.004 267.36C518.934 267.41 519.184 267.72 519.004 268.24C518.97 268.379 518.907 268.508 518.819 268.62C518.731 268.732 518.62 268.824 518.494 268.89C518.342 268.956 518.173 268.973 518.011 268.941C517.848 268.909 517.699 268.828 517.584 268.71C517.455 268.609 517.359 268.474 517.306 268.319C517.253 268.165 517.245 267.999 517.284 267.84C517.334 267.705 517.412 267.582 517.514 267.481C517.616 267.379 517.739 267.3 517.874 267.25C518.364 267.04 518.714 267.25 518.754 267.17C518.794 267.09 518.474 266.73 517.754 266.89C517.548 266.938 517.357 267.033 517.195 267.169C517.034 267.304 516.906 267.476 516.824 267.67C516.745 267.925 516.741 268.198 516.814 268.455C516.887 268.712 517.033 268.942 517.234 269.118C517.435 269.294 517.683 269.407 517.947 269.445C518.212 269.483 518.481 269.443 518.724 269.33C518.901 269.224 519.052 269.078 519.164 268.905C519.277 268.732 519.348 268.535 519.374 268.33C519.484 267.58 519.024 267.29 519.004 267.36Z" fill="#455A64"/>
<path d="M535.365 270.149C535.728 269.266 535.866 268.305 535.765 267.355C535.663 266.405 535.326 265.496 534.785 264.709C534.635 264.779 535.075 265.929 535.225 267.419C535.375 268.909 535.205 270.119 535.365 270.149Z" fill="#455A64"/>
<path d="M531.695 269.92C532.142 269.031 532.296 268.022 532.135 267.04C532.156 266.046 531.866 265.071 531.305 264.25C531.351 265.198 531.451 266.143 531.605 267.08C531.583 268.028 531.613 268.976 531.695 269.92Z" fill="#455A64"/>
<path d="M500.214 270.72C500.241 269.737 500.184 268.754 500.044 267.78C500.079 266.795 500.035 265.808 499.914 264.83C499.501 265.772 499.359 266.811 499.504 267.83C499.482 268.839 499.727 269.836 500.214 270.72Z" fill="#455A64"/>
<path d="M496.234 270.5C496.384 270.44 495.914 269.16 495.804 267.5C495.694 265.84 495.974 264.5 495.804 264.5C495.284 265.43 495.087 266.506 495.244 267.56C495.244 268.622 495.592 269.654 496.234 270.5Z" fill="#455A64"/>
<path d="M529.214 177.73L510.414 176.23C510.294 174.03 510.414 165.54 510.414 165.54C510.414 165.54 502.584 164.32 502.494 156.54C502.404 148.76 503.754 130.75 503.754 130.75C508.202 128.838 513.079 128.149 517.882 128.754C522.685 129.359 527.24 131.235 531.074 134.19L532.234 135.08L529.214 177.73Z" fill="#FFBE9D"/>
<path d="M510.435 165.419C514.047 165.493 517.598 164.487 520.635 162.529C520.635 162.529 518.225 168.159 510.425 167.449L510.435 165.419Z" fill="#EB996E"/>
<path d="M531.304 143.14C531.434 143.08 536.684 141.55 536.514 146.9C536.344 152.25 531.004 150.97 531.004 150.82C531.004 150.67 531.304 143.14 531.304 143.14Z" fill="#FFBE9D"/>
<path d="M532.694 148.85C532.694 148.85 532.794 148.91 532.944 148.99C533.169 149.08 533.419 149.08 533.644 148.99C533.99 148.783 534.276 148.49 534.474 148.14C534.672 147.789 534.776 147.393 534.774 146.99C534.801 146.533 534.726 146.075 534.554 145.65C534.511 145.48 534.426 145.323 534.307 145.194C534.189 145.065 534.04 144.968 533.874 144.91C533.769 144.88 533.656 144.887 533.556 144.931C533.455 144.975 533.373 145.052 533.324 145.15C533.244 145.3 533.274 145.41 533.244 145.41C533.214 145.41 533.134 145.32 533.184 145.1C533.216 144.968 533.294 144.851 533.404 144.77C533.556 144.667 533.742 144.624 533.924 144.65C534.141 144.703 534.342 144.81 534.508 144.96C534.673 145.11 534.799 145.299 534.874 145.51C535.084 145.981 535.177 146.496 535.144 147.01C535.156 147.487 535.027 147.957 534.772 148.361C534.518 148.765 534.15 149.085 533.714 149.28C533.569 149.317 533.417 149.321 533.27 149.292C533.123 149.263 532.984 149.2 532.864 149.11C532.704 149 532.684 148.85 532.694 148.85Z" fill="#EB996E"/>
<path d="M506.354 142.749C506.351 143.041 506.462 143.323 506.664 143.534C506.866 143.745 507.142 143.869 507.434 143.879C507.575 143.89 507.717 143.873 507.852 143.828C507.987 143.784 508.111 143.713 508.218 143.62C508.325 143.527 508.413 143.413 508.475 143.286C508.538 143.159 508.575 143.021 508.584 142.879C508.587 142.587 508.475 142.306 508.274 142.095C508.072 141.884 507.796 141.76 507.504 141.749C507.363 141.738 507.22 141.756 507.086 141.8C506.951 141.845 506.827 141.916 506.72 142.009C506.613 142.102 506.525 142.215 506.462 142.342C506.4 142.469 506.363 142.608 506.354 142.749Z" fill="#222222"/>
<path d="M505.274 141.719C505.414 141.859 506.274 141.239 507.454 141.239C508.634 141.239 509.544 141.839 509.674 141.699C509.804 141.559 509.594 141.369 509.214 141.089C508.691 140.728 508.07 140.536 507.434 140.539C506.81 140.54 506.202 140.736 505.694 141.099C505.324 141.389 505.204 141.649 505.274 141.719Z" fill="#222222"/>
<path d="M518.405 142.84C518.398 142.988 518.421 143.135 518.472 143.274C518.523 143.412 518.601 143.539 518.701 143.647C518.802 143.755 518.923 143.842 519.057 143.903C519.192 143.963 519.337 143.997 519.485 144C519.626 144.011 519.768 143.994 519.903 143.949C520.038 143.905 520.162 143.834 520.269 143.741C520.376 143.648 520.463 143.535 520.526 143.407C520.589 143.28 520.626 143.142 520.635 143C520.635 142.71 520.522 142.431 520.321 142.222C520.12 142.013 519.845 141.891 519.555 141.88C519.276 141.858 518.999 141.946 518.784 142.126C518.569 142.305 518.433 142.562 518.405 142.84Z" fill="#222222"/>
<path d="M517.084 141.94C517.224 142.09 518.084 141.46 519.274 141.46C520.464 141.46 521.354 142.07 521.484 141.92C521.614 141.77 521.414 141.59 521.024 141.31C520.506 140.948 519.886 140.759 519.254 140.77C518.629 140.766 518.019 140.962 517.514 141.33C517.144 141.61 517.024 141.88 517.084 141.94Z" fill="#222222"/>
<path d="M512.724 150.86C512.092 150.657 511.437 150.537 510.774 150.5C510.464 150.5 510.174 150.41 510.124 150.2C510.102 149.884 510.172 149.568 510.324 149.29L511.234 146.95C512.067 144.971 512.736 142.928 513.234 140.84C512.239 142.752 511.394 144.738 510.704 146.78L509.834 149.13C509.646 149.5 509.593 149.925 509.684 150.33C509.726 150.439 509.793 150.537 509.88 150.615C509.967 150.693 510.071 150.75 510.184 150.78C510.354 150.825 510.529 150.848 510.704 150.85C511.375 150.935 512.053 150.938 512.724 150.86Z" fill="#222222"/>
<path d="M516.265 151.69C516.065 151.69 516.065 152.98 514.945 153.91C513.825 154.84 512.445 154.69 512.435 154.91C512.425 155.13 512.745 155.17 513.325 155.18C514.092 155.193 514.84 154.935 515.435 154.45C515.997 153.983 516.356 153.316 516.435 152.59C516.495 152 516.355 151.68 516.265 151.69Z" fill="#222222"/>
<path d="M516.774 137.229C516.894 137.559 518.094 137.399 519.504 137.569C520.914 137.739 522.054 138.129 522.244 137.829C522.324 137.689 522.134 137.389 521.674 137.069C521.073 136.677 520.388 136.434 519.674 136.359C518.951 136.272 518.217 136.358 517.534 136.609C516.984 136.819 516.724 137.069 516.774 137.229Z" fill="#222222"/>
<path d="M505.714 138.239C505.924 138.509 506.714 138.239 507.714 138.239C508.714 138.239 509.554 138.429 509.714 138.139C509.874 137.849 509.714 137.729 509.294 137.469C508.8 137.158 508.223 137.001 507.639 137.019C507.055 137.037 506.489 137.228 506.014 137.569C505.734 137.819 505.584 138.099 505.714 138.239Z" fill="#222222"/>
<path d="M499.985 125.77C499.928 125.285 499.995 124.794 500.181 124.342C500.366 123.891 500.664 123.494 501.045 123.19C501.44 122.902 501.925 122.764 502.412 122.801C502.899 122.838 503.358 123.046 503.705 123.39C503.631 123.067 503.625 122.732 503.688 122.407C503.75 122.081 503.879 121.773 504.067 121.5C504.256 121.227 504.498 120.997 504.78 120.823C505.062 120.649 505.377 120.535 505.705 120.49C506.985 120.41 508.065 121.38 509.305 121.71C510.535 121.97 511.817 121.823 512.955 121.29C514.115 120.83 515.195 120.18 516.365 119.75C518.843 118.843 521.579 118.952 523.976 120.054C526.374 121.155 528.239 123.159 529.165 125.63C530.038 125.413 530.956 125.468 531.798 125.785C532.639 126.103 533.364 126.67 533.875 127.41C534.868 128.923 535.264 130.751 534.985 132.54C534.82 133.739 534.521 134.916 534.095 136.05C534.095 136.15 534.095 136.25 534.095 136.35C534.005 140.66 533.525 145.71 531.685 145.74C528.485 145.74 529.255 139.74 529.255 139.74C525.325 138.22 526.785 132.34 525.805 131.45C524.825 130.56 522.805 128.45 514.555 132.68C511.496 134.045 508.086 134.416 504.805 133.74H504.595H504.525C503.779 133.553 503.066 133.249 502.415 132.84C501.644 132.398 501.035 131.722 500.675 130.91C500.508 130.501 500.462 130.053 500.542 129.619C500.621 129.185 500.824 128.782 501.125 128.46C500.483 127.698 500.085 126.761 499.985 125.77Z" fill="#222222"/>
<path d="M514.585 142.79C514.635 142.79 514.585 142.36 514.835 141.63C515.128 140.606 515.754 139.708 516.615 139.08C517.303 138.566 518.121 138.254 518.977 138.178C519.832 138.103 520.692 138.266 521.46 138.651C522.228 139.036 522.874 139.627 523.325 140.358C523.776 141.089 524.015 141.931 524.015 142.79C524.015 143.649 523.776 144.491 523.325 145.222C522.874 145.953 522.228 146.544 521.46 146.929C520.692 147.314 519.832 147.478 518.977 147.402C518.121 147.327 517.303 147.014 516.615 146.5C515.758 145.869 515.132 144.973 514.835 143.95C514.625 143.22 514.635 142.79 514.585 142.79C514.535 142.79 514.585 142.89 514.585 143.1C514.578 143.403 514.609 143.705 514.675 144C514.914 145.107 515.533 146.094 516.425 146.79C517.092 147.316 517.881 147.664 518.719 147.801C519.557 147.937 520.416 147.858 521.215 147.57C521.908 147.326 522.539 146.935 523.065 146.423C523.591 145.911 524 145.291 524.263 144.605C524.526 143.92 524.637 143.186 524.588 142.453C524.54 141.721 524.333 141.007 523.981 140.363C523.63 139.718 523.143 139.157 522.554 138.72C521.965 138.282 521.287 137.977 520.569 137.826C519.85 137.676 519.108 137.683 518.392 137.848C517.677 138.013 517.006 138.331 516.425 138.78C515.532 139.48 514.913 140.471 514.675 141.58C514.608 141.876 514.578 142.178 514.585 142.48C514.585 142.68 514.585 142.79 514.585 142.79Z" fill="#222222"/>
<path d="M501.584 142.791C501.584 142.791 501.584 142.361 501.834 141.631C502.126 140.608 502.749 139.712 503.604 139.081C504.292 138.567 505.11 138.254 505.966 138.179C506.821 138.103 507.681 138.267 508.449 138.652C509.217 139.037 509.863 139.628 510.314 140.359C510.765 141.09 511.004 141.932 511.004 142.791C511.004 143.65 510.765 144.492 510.314 145.223C509.863 145.954 509.217 146.545 508.449 146.93C507.681 147.315 506.821 147.478 505.966 147.403C505.11 147.327 504.292 147.015 503.604 146.501C502.752 145.866 502.131 144.971 501.834 143.951C501.624 143.221 501.634 142.791 501.584 142.791C501.534 142.791 501.584 142.891 501.584 143.101C501.577 143.403 501.608 143.705 501.674 144.001C501.913 145.107 502.532 146.094 503.424 146.791C504.09 147.315 504.877 147.662 505.713 147.798C506.549 147.934 507.407 147.856 508.204 147.571C509.193 147.221 510.048 146.574 510.654 145.718C511.259 144.862 511.584 143.839 511.584 142.791C511.584 141.742 511.259 140.72 510.654 139.864C510.048 139.007 509.193 138.36 508.204 138.011C507.407 137.724 506.551 137.644 505.715 137.778C504.879 137.913 504.09 138.258 503.424 138.781C502.531 139.481 501.912 140.471 501.674 141.581C501.607 141.876 501.577 142.178 501.584 142.481C501.584 142.681 501.584 142.791 501.584 142.791Z" fill="#222222"/>
<path d="M510.935 142.49C510.995 142.63 511.805 142.39 512.815 142.44C513.825 142.49 514.615 142.77 514.685 142.64C514.755 142.51 513.975 141.96 512.835 141.92C511.695 141.88 510.865 142.37 510.935 142.49Z" fill="#222222"/>
<path d="M524.365 142.44C525.473 142.757 526.622 142.909 527.775 142.89C528.919 143.034 530.078 143.011 531.215 142.82C530.108 142.496 528.958 142.344 527.805 142.37C526.661 142.226 525.502 142.25 524.365 142.44Z" fill="#222222"/>
<path d="M476.794 204.809L470.584 215.999L466.794 185.569C466.626 183.364 467.062 181.155 468.054 179.179C468.47 178.296 468.987 177.463 469.594 176.699C470.36 175.753 471.252 174.915 472.244 174.209C472.454 174.113 472.63 173.954 472.746 173.754C472.861 173.554 472.912 173.323 472.89 173.092C472.868 172.862 472.774 172.645 472.623 172.47C472.471 172.296 472.269 172.173 472.044 172.119C471.044 172.009 468.344 173.459 466.214 176.379C464.084 179.299 463.864 173.679 463.744 171.639C463.624 169.599 462.964 163.319 462.314 162.869C461.314 162.219 460.454 163.149 460.614 165.189C460.774 167.229 460.854 173.359 459.774 173.399C458.694 173.439 458.254 163.039 458.254 163.039C458.254 163.039 458.514 160.789 457.254 160.799C455.014 160.799 456.314 171.799 456.464 172.799C456.564 173.519 455.394 173.609 455.324 172.799C455.254 171.989 455.104 162.419 452.824 162.399C451.064 162.399 453.824 171.459 452.744 173.489C451.664 175.519 451.364 166.379 449.684 166.439C449.064 166.439 448.594 166.559 449.524 171.759C450.024 174.559 451.874 178.589 452.434 184.049L452.584 185.459C452.694 192.259 454.194 212.749 460.374 228.349C461.238 230.48 462.667 232.335 464.507 233.714C466.347 235.094 468.528 235.945 470.816 236.176C473.104 236.408 475.411 236.011 477.49 235.028C479.569 234.045 481.341 232.514 482.614 230.599C486.414 224.869 492.424 209.889 492.424 209.889L476.794 204.809Z" fill="#FFBE9D"/>
<path d="M455.825 181.28C455.825 181.33 456.175 181.28 456.715 181.51C457.444 181.764 458.058 182.272 458.445 182.94L458.655 183.32L458.775 182.9C458.952 182.302 459.233 181.74 459.605 181.24C460.328 180.261 461.328 179.523 462.475 179.12C463.355 178.81 463.955 178.83 463.955 178.75C463.435 178.644 462.896 178.682 462.395 178.86C461.145 179.199 460.049 179.954 459.285 181C458.885 181.535 458.593 182.143 458.425 182.79H458.755C458.538 182.423 458.249 182.105 457.905 181.854C457.561 181.603 457.17 181.425 456.755 181.33C456.458 181.215 456.133 181.198 455.825 181.28Z" fill="#EB996E"/>
<path d="M488.235 182.6L470.585 216L467.585 186.47H451.775L457.585 228.56C457.863 230.88 458.793 233.073 460.267 234.886C461.742 236.698 463.7 238.056 465.915 238.8C471.655 240.73 479.285 238.48 482.115 233.13L492.455 215.53L488.235 182.6Z" fill="#199675"/>
<path d="M469.485 229.82C469.987 229.269 470.387 228.632 470.665 227.94C472.214 224.657 472.568 220.936 471.665 217.42C471.511 216.688 471.234 215.988 470.845 215.35C472.282 220.165 471.802 225.35 469.505 229.82H469.485Z" fill="#222222"/>
<g opacity="0.3">
<path d="M471.085 214.879C472.701 216.004 473.808 217.722 474.165 219.659C474.521 221.58 474.558 223.546 474.275 225.479C474.261 226.04 474.11 226.59 473.835 227.079C473.692 227.319 473.471 227.504 473.209 227.602C472.948 227.7 472.66 227.706 472.395 227.619C472.189 227.501 472.021 227.328 471.908 227.12C471.795 226.911 471.742 226.676 471.755 226.439C471.789 225.969 471.893 225.507 472.065 225.069C472.563 223.423 472.692 221.688 472.441 219.987C472.191 218.285 471.567 216.661 470.615 215.229" fill="black"/>
</g>
<path d="M538.265 174.779C535.625 174.279 533.065 173.319 529.965 173.189C523.457 175.244 516.473 175.244 509.965 173.189C509.145 173.299 507.965 173.399 506.595 173.569C497.885 174.569 494.545 176.439 488.285 182.569L488.975 217.819C488.975 217.819 486.875 257.939 486.975 264.419H546.495L546.585 237.239V229.839L566.125 236.999L564.345 226.719C564.345 226.719 555.585 192.599 554.205 187.999C552.585 182.419 546.585 176.369 538.265 174.779Z" fill="#199675"/>
<path d="M557.155 227.26L528.585 219.83L520.415 233.12L549.515 245.37C551.039 246.044 552.689 246.385 554.355 246.37C556.689 246.368 558.97 245.673 560.908 244.373C562.847 243.074 564.356 241.228 565.245 239.07L566.125 236.91L557.155 227.26Z" fill="#199675"/>
<path d="M542.263 224.36C542.403 224.36 542.523 219.11 542.523 212.64C542.523 206.17 542.403 200.93 542.263 200.93C542.123 200.93 541.993 206.17 541.993 212.64C541.993 219.11 542.113 224.36 542.263 224.36Z" fill="#222222"/>
<g opacity="0.3">
<path d="M546.795 244.319C545.863 245.821 544.548 247.046 542.985 247.869C539.415 249.799 534.985 249.749 531.155 248.489C527.343 247.078 523.817 244.991 520.745 242.329C516.546 238.941 512.669 235.172 509.165 231.069C509.03 230.951 508.922 230.805 508.85 230.641C508.777 230.477 508.741 230.299 508.745 230.119C508.845 229.499 509.745 229.419 510.325 229.509C516.245 230.449 521.645 233.319 527.045 235.929C533.465 239.036 540.032 241.829 546.745 244.309" fill="black"/>
</g>
<path d="M490.585 204.41C490.612 204.504 490.649 204.595 490.695 204.68L491.065 205.45C491.235 205.78 491.485 206.17 491.765 206.64C492.119 207.165 492.503 207.67 492.915 208.15C494.041 209.477 495.363 210.623 496.835 211.55C498.783 212.79 500.953 213.639 503.225 214.05C505.993 214.544 508.841 214.348 511.515 213.48C514.587 212.484 517.366 210.746 519.605 208.42C522.127 205.87 523.862 202.649 524.605 199.14C524.987 197.285 525.004 195.373 524.655 193.51C524.275 191.587 523.446 189.782 522.235 188.24C521.023 186.68 519.383 185.506 517.515 184.86C516.591 184.542 515.606 184.439 514.635 184.56C513.662 184.693 512.755 185.131 512.045 185.81C511.693 186.147 511.411 186.55 511.215 186.996C511.02 187.443 510.914 187.923 510.905 188.41C510.909 189.354 511.191 190.276 511.715 191.06C512.781 192.509 514.357 193.499 516.125 193.83C519.277 194.543 522.554 194.477 525.675 193.64C528.984 192.767 532.009 191.051 534.457 188.661C536.906 186.271 538.693 183.287 539.645 180C540.096 178.593 540.339 177.128 540.365 175.65C540.34 175.742 540.323 175.836 540.315 175.93L540.195 176.77C540.026 177.845 539.775 178.904 539.445 179.94C538.235 183.754 535.925 187.125 532.805 189.63C530.642 191.328 528.149 192.557 525.485 193.24C522.436 194.038 519.239 194.089 516.165 193.39C514.521 193.075 513.054 192.154 512.055 190.81C511.586 190.109 511.335 189.284 511.335 188.44C511.341 188.019 511.433 187.603 511.605 187.218C511.777 186.833 512.025 186.486 512.335 186.2C512.968 185.594 513.777 185.205 514.645 185.09C515.538 184.98 516.445 185.075 517.295 185.37C519.062 185.991 520.613 187.105 521.765 188.58C522.923 190.059 523.718 191.789 524.085 193.63C524.436 195.423 524.436 197.267 524.085 199.06C523.379 202.472 521.714 205.612 519.285 208.11C517.103 210.392 514.399 212.108 511.405 213.11C508.796 213.973 506.015 214.186 503.305 213.73C501.072 213.343 498.934 212.531 497.005 211.34C495.546 210.444 494.225 209.339 493.085 208.06C492.118 206.941 491.279 205.717 490.585 204.41Z" fill="#E0E0E0"/>
<path d="M488.085 243.369C488.493 242.106 489.04 240.892 489.715 239.749C490.652 238.209 491.913 236.891 493.41 235.886C494.907 234.881 496.604 234.213 498.385 233.929C500.837 233.504 503.352 233.62 505.755 234.269C507.093 234.617 508.393 235.099 509.635 235.709C510.957 236.331 512.178 237.151 513.255 238.139C514.374 239.163 515.108 240.539 515.335 242.039C515.466 242.8 515.374 243.582 515.071 244.292C514.767 245.001 514.265 245.608 513.625 246.039C512.984 246.509 512.183 246.705 511.397 246.585C510.612 246.466 509.906 246.039 509.435 245.399C508.422 244.029 507.738 242.445 507.435 240.769C506.729 237.455 506.957 234.01 508.095 230.819C509.127 227.836 510.903 225.165 513.255 223.059C515.385 221.152 517.878 219.693 520.585 218.769C523.472 217.759 526.542 217.374 529.59 217.639C532.638 217.905 535.595 218.815 538.265 220.309C539.395 220.919 540.215 221.479 540.785 221.849L541.415 222.279L541.645 222.419C540.633 221.545 539.534 220.778 538.365 220.129C535.192 218.269 531.592 217.26 527.915 217.199C525.376 217.153 522.849 217.546 520.445 218.359C517.673 219.281 515.118 220.758 512.935 222.699C510.515 224.856 508.682 227.591 507.605 230.649C506.435 233.934 506.199 237.478 506.925 240.889C507.238 242.643 507.95 244.302 509.005 245.739C509.563 246.466 510.381 246.949 511.287 247.085C512.194 247.221 513.118 247 513.865 246.469C514.61 245.994 515.185 245.293 515.505 244.469C515.811 243.677 515.911 242.82 515.795 241.979C515.565 240.371 514.784 238.894 513.585 237.799C512.471 236.782 511.21 235.939 509.845 235.299C508.564 234.681 507.224 234.196 505.845 233.849C503.378 233.21 500.803 233.111 498.295 233.559C496.476 233.87 494.748 234.576 493.231 235.626C491.714 236.676 490.446 238.046 489.515 239.639C489.014 240.498 488.611 241.41 488.315 242.359C488.235 242.605 488.168 242.856 488.115 243.109C488.093 243.194 488.083 243.281 488.085 243.369Z" fill="#E0E0E0"/>
<path d="M542.525 209.861C542.525 209.861 542.675 210.111 543.025 210.491C543.499 211.039 544.021 211.545 544.585 212.001C545.429 212.676 546.344 213.256 547.315 213.731C548.511 214.31 549.774 214.74 551.075 215.011C553.442 215.443 555.868 215.443 558.235 215.011C558.95 214.887 559.657 214.727 560.355 214.531C560.845 214.381 561.115 214.291 561.105 214.251C561.095 214.211 559.985 214.421 558.185 214.641C555.857 214.95 553.495 214.893 551.185 214.471C549.928 214.207 548.704 213.804 547.535 213.271C546.579 212.826 545.668 212.291 544.815 211.671C543.375 210.621 542.585 209.801 542.525 209.861Z" fill="#E0E0E0"/>
<path d="M547.854 244.549C548.125 243.481 548.493 242.44 548.954 241.439C549.529 240.255 550.336 239.2 551.328 238.335C552.32 237.471 553.476 236.816 554.727 236.409C555.978 236.002 557.298 235.851 558.609 235.966C559.919 236.081 561.193 236.46 562.354 237.079C563.315 237.616 564.225 238.238 565.074 238.939C564.93 238.672 564.736 238.434 564.504 238.239C563.912 237.65 563.238 237.148 562.504 236.749C561.309 236.058 559.982 235.626 558.608 235.482C557.235 235.337 555.847 235.483 554.534 235.911C553.221 236.338 552.013 237.037 550.988 237.962C549.963 238.886 549.144 240.017 548.584 241.279C548.237 242.029 547.995 242.823 547.864 243.639C547.807 243.939 547.803 244.247 547.854 244.549Z" fill="#E0E0E0"/>
<path d="M484.825 228.001C484.964 227.683 485.055 227.345 485.094 227.001C485.289 226.102 485.412 225.189 485.465 224.271C485.557 222.904 485.524 221.531 485.364 220.171C485.155 218.501 484.77 216.859 484.215 215.271C483.639 213.692 482.894 212.18 481.995 210.761C481.26 209.603 480.416 208.518 479.474 207.521C478.854 206.846 478.186 206.218 477.474 205.641C477.228 205.412 476.952 205.217 476.655 205.061C476.585 205.141 477.714 206.061 479.224 207.771C480.108 208.784 480.907 209.868 481.614 211.011C483.344 213.82 484.465 216.961 484.905 220.231C485.084 221.556 485.155 222.894 485.114 224.231C485.024 226.611 484.725 228.001 484.825 228.001Z" fill="#E0E0E0"/>
<path d="M454.924 208.43C454.924 208.43 455.084 208.68 455.474 209.02C456.049 209.494 456.697 209.869 457.394 210.13C458.551 210.554 459.786 210.724 461.014 210.629C462.242 210.534 463.436 210.177 464.514 209.58C465.711 208.913 466.696 207.922 467.354 206.72C467.882 205.755 468.253 204.712 468.454 203.63C468.604 202.916 468.695 202.19 468.724 201.46C468.779 201.193 468.779 200.918 468.724 200.65C468.634 200.65 468.564 201.79 468.134 203.55C467.881 204.575 467.491 205.561 466.974 206.48C466.336 207.589 465.41 208.505 464.294 209.13C463.272 209.691 462.146 210.038 460.986 210.15C459.826 210.261 458.655 210.136 457.544 209.78C456.619 209.438 455.74 208.985 454.924 208.43Z" fill="#E0E0E0"/>
<path d="M486.965 185.12C487.174 185.318 487.418 185.474 487.685 185.58C488.382 185.927 489.127 186.166 489.895 186.29C491.038 186.475 492.206 186.438 493.335 186.18C494.718 185.857 496.023 185.262 497.175 184.43C499.278 182.897 500.711 180.612 501.175 178.05C501.315 177.289 501.356 176.512 501.295 175.74C501.289 175.453 501.235 175.17 501.135 174.9C501.102 175.93 500.995 176.956 500.815 177.97C500.259 180.373 498.866 182.5 496.885 183.97C495.786 184.762 494.548 185.339 493.235 185.67C492.163 185.936 491.052 186.007 489.955 185.88C488.937 185.718 487.936 185.464 486.965 185.12Z" fill="#E0E0E0"/>
<path d="M518.344 264C519.137 262.55 520.005 261.141 520.944 259.78C523.293 256.558 526.356 253.922 529.894 252.08C531.838 251.074 533.896 250.305 536.024 249.79C537.764 249.384 539.546 249.179 541.334 249.18C542.984 249.243 544.629 249.394 546.264 249.63C545.85 249.455 545.417 249.331 544.974 249.26C543.776 249 542.558 248.85 541.334 248.81C539.513 248.757 537.693 248.928 535.914 249.32C533.738 249.819 531.635 250.592 529.654 251.62C526.045 253.489 522.953 256.22 520.654 259.57C519.962 260.576 519.354 261.636 518.834 262.74C518.618 263.138 518.453 263.561 518.344 264Z" fill="#E0E0E0"/>
<path d="M489.734 197.92C489.594 197.92 488.734 212.66 487.824 230.86C486.914 249.06 486.284 263.81 486.434 263.86C486.584 263.91 487.434 249.12 488.344 230.92C489.254 212.72 489.884 197.93 489.734 197.92Z" fill="#222222"/>
<path d="M528.584 219.83C526.582 218.843 524.888 217.329 523.684 215.45C523.133 214.634 522.677 213.759 522.324 212.84C521.904 211.69 521.639 210.49 521.534 209.27C521.534 208.14 520.224 207.55 519.614 208.36C519.004 209.17 518.884 212.26 520.314 215.6C521.744 218.94 516.764 216.26 514.934 215.31C513.104 214.36 507.314 211.7 506.594 212.04C505.534 212.54 505.884 213.8 507.734 214.7C509.584 215.6 514.934 218.7 514.414 219.7C513.894 220.7 504.654 215.7 504.654 215.7C504.654 215.7 502.834 214.32 502.204 215.4C501.054 217.4 511.204 221.87 512.204 222.28C512.884 222.56 512.354 223.62 511.634 223.28C510.914 222.94 502.524 218.12 501.334 220.1C500.414 221.61 509.684 223.9 510.904 225.87C512.124 227.84 504.034 223.41 503.214 224.87C502.914 225.43 502.764 225.87 507.754 227.75C510.434 228.75 514.874 229.23 519.894 231.55L521.204 232.14" fill="#FFBE9D"/>
<path d="M548.394 244.899C548.224 244.787 548.043 244.693 547.854 244.619L546.284 243.909L540.404 241.349L520.514 232.879L520.634 233.259L523.294 228.999L528.954 219.999L528.664 220.099L545.584 225.459L550.484 226.979L551.804 227.359L552.264 227.469C552.127 227.384 551.979 227.32 551.824 227.279L550.534 226.819L545.684 225.169L528.844 219.599L528.654 219.539L528.554 219.699L522.874 228.699L520.214 232.959L520.054 233.209L520.334 233.329L540.334 241.639L546.274 244.049L547.884 244.679C548.047 244.767 548.218 244.84 548.394 244.899Z" fill="#222222"/>
<path d="M549.064 222.14C547.887 221.754 546.622 221.719 545.425 222.04C544.227 222.362 543.15 223.026 542.324 223.95C543.366 223.397 544.449 222.925 545.564 222.54C546.72 222.32 547.889 222.186 549.064 222.14Z" fill="#222222"/>
<defs>
<clipPath id="clip0_6347_8826">
<rect width="9.45455" height="9.45455" fill="white" transform="translate(259.59 75.2715)"/>
</clipPath>
<clipPath id="clip1_6347_8826">
<rect width="10.6364" height="10.6364" fill="white" transform="translate(552.09 74.6797)"/>
</clipPath>
</defs>
</svg>
