<svg width="233" height="685" viewBox="0 0 233 685" fill="none" xmlns="http://www.w3.org/2000/svg">
<g clip-path="url(#clip0_5195_5531)">
<path d="M0.353025 643.536L0.353027 589.043C0.353027 585.922 2.89476 583.391 6.03014 583.391L20.2575 583.391C23.3929 583.391 25.9346 585.922 25.9346 589.043L25.9346 643.536C25.9346 646.658 23.3929 649.189 20.2575 649.189L6.03014 649.189C2.89475 649.189 0.353025 646.658 0.353025 643.536Z" fill="url(#paint0_linear_5195_5531)"/>
<path d="M0.353025 564.331L0.353027 509.838C0.353027 506.716 2.89476 504.186 6.03014 504.186L20.2575 504.186C23.3929 504.186 25.9346 506.716 25.9346 509.838L25.9346 564.331C25.9346 567.453 23.3929 569.983 20.2575 569.983L6.03014 569.983C2.89475 569.983 0.353025 567.453 0.353025 564.331Z" fill="url(#paint1_linear_5195_5531)"/>
<path d="M0.353025 391.995L0.353027 337.502C0.353027 334.38 2.89476 331.85 6.03014 331.85L20.2575 331.85C23.3929 331.85 25.9346 334.38 25.9346 337.502L25.9346 391.995C25.9346 395.117 23.3929 397.647 20.2575 397.647L6.03014 397.647C2.89475 397.647 0.353025 395.117 0.353025 391.995Z" fill="url(#paint2_linear_5195_5531)"/>
<path d="M0.353025 312.789L0.353027 258.297C0.353027 255.175 2.89476 252.644 6.03014 252.644L20.2575 252.644C23.3929 252.644 25.9346 255.175 25.9346 258.297L25.9346 312.789C25.9346 315.911 23.3929 318.442 20.2575 318.442L6.03014 318.442C2.89475 318.442 0.353025 315.911 0.353025 312.789Z" fill="url(#paint3_linear_5195_5531)"/>
<path d="M206.771 643.536L206.771 589.043C206.771 585.922 209.313 583.391 212.449 583.391L226.676 583.391C229.811 583.391 232.353 585.922 232.353 589.043L232.353 643.536C232.353 646.658 229.811 649.189 226.676 649.189L212.449 649.189C209.313 649.189 206.771 646.658 206.771 643.536Z" fill="url(#paint4_linear_5195_5531)"/>
<path d="M206.771 564.331L206.771 509.838C206.771 506.716 209.313 504.186 212.449 504.186L226.676 504.186C229.811 504.186 232.353 506.716 232.353 509.838L232.353 564.331C232.353 567.453 229.811 569.983 226.676 569.983L212.449 569.983C209.313 569.983 206.771 567.453 206.771 564.331Z" fill="url(#paint5_linear_5195_5531)"/>
<path d="M206.771 391.995L206.771 337.502C206.771 334.38 209.313 331.85 212.449 331.85L226.676 331.85C229.811 331.85 232.353 334.38 232.353 337.502L232.353 391.995C232.353 395.117 229.811 397.647 226.676 397.647L212.449 397.647C209.313 397.647 206.771 395.117 206.771 391.995Z" fill="url(#paint6_linear_5195_5531)"/>
<path d="M206.771 312.789L206.771 258.297C206.771 255.175 209.313 252.644 212.449 252.644L226.676 252.644C229.811 252.644 232.353 255.175 232.353 258.297L232.353 312.789C232.353 315.911 229.811 318.442 226.676 318.442L212.449 318.442C209.313 318.442 206.771 315.911 206.771 312.789Z" fill="url(#paint7_linear_5195_5531)"/>
<path d="M6.06468 671.523L6.0647 213.283C6.0647 205.859 12.1091 199.84 19.5651 199.84L211.445 199.84C218.901 199.84 224.945 205.859 224.945 213.283L224.945 671.523C224.945 678.947 218.901 684.965 211.445 684.965L19.5651 684.965C12.109 684.965 6.06468 678.947 6.06468 671.523Z" fill="url(#paint8_linear_5195_5531)"/>
<path d="M19.5652 671.558L19.5652 213.283L211.445 213.283L211.445 671.558L19.5652 671.558Z" fill="url(#paint9_linear_5195_5531)"/>
<path style="mix-blend-mode:multiply" d="M194.725 671.558L194.725 213.283L207.221 213.283L207.221 671.558L194.725 671.558Z" fill="url(#paint10_linear_5195_5531)"/>
<path style="mix-blend-mode:multiply" d="M175.063 671.558L175.063 213.283L187.559 213.283L187.559 671.558L175.063 671.558Z" fill="url(#paint11_linear_5195_5531)"/>
<path style="mix-blend-mode:multiply" d="M155.435 671.558L155.435 213.283L167.932 213.283L167.932 671.558L155.435 671.558Z" fill="url(#paint12_linear_5195_5531)"/>
<path style="mix-blend-mode:multiply" d="M135.808 671.558L135.808 213.283L148.304 213.283L148.304 671.558L135.808 671.558Z" fill="url(#paint13_linear_5195_5531)"/>
<path style="mix-blend-mode:multiply" d="M116.145 671.558L116.145 213.283L128.642 213.283L128.642 671.558L116.145 671.558Z" fill="url(#paint14_linear_5195_5531)"/>
<path style="mix-blend-mode:multiply" d="M96.5178 671.558L96.5178 213.283L109.014 213.283L109.014 671.558L96.5178 671.558Z" fill="url(#paint15_linear_5195_5531)"/>
<path style="mix-blend-mode:multiply" d="M76.8554 671.558L76.8555 213.283L89.352 213.283L89.352 671.558L76.8554 671.558Z" fill="url(#paint16_linear_5195_5531)"/>
<path style="mix-blend-mode:multiply" d="M57.228 671.558L57.228 213.283L69.7246 213.283L69.7246 671.558L57.228 671.558Z" fill="url(#paint17_linear_5195_5531)"/>
<path style="mix-blend-mode:multiply" d="M37.6003 671.558L37.6003 213.283L50.0969 213.283L50.0969 671.558L37.6003 671.558Z" fill="url(#paint18_linear_5195_5531)"/>
<path style="mix-blend-mode:multiply" d="M17.9382 671.558L17.9382 213.283L30.4348 213.283L30.4348 671.558L17.9382 671.558Z" fill="url(#paint19_linear_5195_5531)"/>
<path d="M205.525 82.7212L205.525 42.1533C205.525 13.2354 181.986 6.83938e-06 152.943 5.56986e-06L78.0672 2.29694e-06C49.0585 1.02893e-06 25.5193 13.2354 25.5193 42.1533L25.5193 82.7211L37.185 119.084L192.959 120.532L205.525 82.7212Z" fill="url(#paint20_linear_5195_5531)"/>
<path d="M192.994 37.2934C192.612 37.2142 192.27 37.0064 192.024 36.7051C191.778 36.4038 191.644 36.0273 191.644 35.639C191.602 32.4491 190.368 29.3891 188.182 27.0567C187.918 26.7778 187.757 26.4178 187.725 26.0357C187.694 25.6536 187.794 25.2722 188.009 24.9542C188.152 24.7985 188.326 24.6741 188.519 24.589C188.713 24.5039 188.923 24.46 189.134 24.46C189.346 24.46 189.555 24.5039 189.749 24.589C189.943 24.6741 190.116 24.7985 190.259 24.9542C192.92 27.8177 194.413 31.5658 194.448 35.4667C194.472 35.6753 194.452 35.8867 194.388 36.0869C194.325 36.2871 194.219 36.4715 194.078 36.628C193.937 36.7844 193.765 36.9093 193.572 36.9943C193.379 37.0793 193.17 37.1225 192.959 37.1211L192.994 37.2934Z" fill="#F7941E"/>
<path d="M38.0504 37.2934C38.4352 37.2204 38.7817 37.0143 39.0287 36.7116C39.2757 36.4089 39.4074 36.029 39.4005 35.639C39.4418 32.4491 40.6761 29.3891 42.8621 27.0567C43.1384 26.7846 43.3077 26.423 43.3394 26.0373C43.3711 25.6517 43.2632 25.2675 43.0352 24.9542C42.8924 24.7985 42.7187 24.6741 42.525 24.589C42.3313 24.5039 42.1218 24.46 41.9101 24.46C41.6983 24.46 41.489 24.5039 41.2952 24.589C41.1015 24.6741 40.9278 24.7985 40.7851 24.9542C38.1243 27.8177 36.631 31.5658 36.5965 35.4667C36.572 35.6753 36.5923 35.8867 36.656 36.0869C36.7197 36.2871 36.8254 36.4715 36.9662 36.628C37.1069 36.7844 37.2795 36.9093 37.4724 36.9943C37.6653 37.0793 37.8741 37.1225 38.085 37.1211L38.0504 37.2934Z" fill="#F7941E"/>
<path d="M78.0672 2.29951e-06L152.943 5.57243e-06C181.986 6.84195e-06 205.525 13.2354 205.525 42.1533L205.525 46.1515C205.78 42.0707 205.206 37.9807 203.838 34.1255C202.47 30.2704 200.336 26.7292 197.564 23.7134C188.286 11.8912 171.809 6.27303 152.943 6.27303L78.0672 6.27303C59.2358 6.27303 42.7583 11.8912 33.4811 23.7134C30.7083 26.7292 28.5742 30.2704 27.2063 34.1255C25.8383 37.9806 25.2646 42.0707 25.5193 46.1515L25.5193 42.1533C25.5193 13.2354 49.0585 1.0315e-06 78.0672 2.29951e-06Z" fill="url(#paint21_linear_5195_5531)"/>
<path d="M200.298 82.0661L193.375 42.1532C193.375 14.8897 164.989 11.96 152.804 11.96L78.0672 11.96C65.8821 11.96 37.5312 14.8897 37.5312 42.1532L30.6079 82.0661L46.0123 107.193L184.478 108.502L200.298 82.0661Z" fill="url(#paint22_radial_5195_5531)"/>
<path d="M43.0352 118.257C90.8069 107.963 140.237 107.963 188.009 118.257L189.498 118.601L189.705 117.085C190.512 111.018 190.883 104.902 190.813 98.7826C190.813 93.9917 190.813 89.0284 191.506 83.7549L191.506 82.5831L190.398 82.2384C165.365 74.2047 139.227 70.1113 112.926 70.106C88.63 70.3514 64.4315 73.2057 40.7505 78.6193L39.6427 78.8606L39.6427 79.998C39.3259 92.3741 39.9043 104.757 41.3735 117.05L41.5813 118.601L43.0352 118.257Z" fill="black"/>
<path d="M42.7583 116.878C90.6673 106.558 140.239 106.558 188.148 116.878C189.948 104.78 188.632 95.3362 189.948 83.5829C141.9 68.4173 96.4832 67.9348 40.889 80.1362C40.6222 92.4123 41.2469 104.692 42.7583 116.878Z" fill="url(#paint23_linear_5195_5531)"/>
<path d="M197.148 195.153L34.1041 195.153C34.1041 195.153 25.5884 189.19 25.5884 186.329L25.5884 140.281C25.5884 130.114 37.2542 119.084 37.2542 119.084C37.2542 119.084 47.6391 109.295 115.591 109.571C161.389 109.364 181.709 116.154 193.098 120.532C198.498 122.634 205.56 132.354 205.56 140.281L205.56 186.467C205.421 192.844 197.148 195.153 197.148 195.153Z" fill="url(#paint24_linear_5195_5531)"/>
<path d="M188.875 195.153C192.872 182.67 194.767 169.614 194.482 156.515C194.058 144.015 192.247 131.601 189.082 119.497C183.89 117.74 149.827 111.673 115.695 111.639C81.5633 111.604 47.5006 117.154 42.2735 118.946C38.9564 131.21 37.0974 143.819 36.7349 156.515C36.7349 181.779 42.3082 195.153 42.3082 195.153L188.875 195.153Z" fill="url(#paint25_linear_5195_5531)"/>
<path d="M32.5811 92.6821C32.5811 92.6821 24.7232 97.5075 27.1809 104.573C29.6387 111.639 43.7968 122.496 40.5429 113.466C37.2889 104.435 34.3812 95.0604 32.5811 92.6821Z" fill="url(#paint26_linear_5195_5531)"/>
<path d="M5.6146 109.812C7.62236 107.227 25.9345 101.747 25.9345 101.747C29.3961 100.609 30.8154 103.711 31.2308 106.296L5.09537 114.086C4.83551 113.384 4.74701 112.63 4.83729 111.887C4.92757 111.144 5.19403 110.433 5.6146 109.812Z" fill="url(#paint27_radial_5195_5531)"/>
<path d="M31.3695 106.297C31.5165 107.359 31.5859 108.43 31.5772 109.502L5.61475 115.672C5.33653 115.134 5.11607 114.567 4.95703 113.983L31.3695 106.297Z" fill="url(#paint28_linear_5195_5531)"/>
<path d="M198.533 92.6821C198.533 92.6821 206.425 97.5075 203.933 104.573C201.44 111.639 187.351 122.496 190.571 113.466C193.79 104.435 196.733 95.0604 198.533 92.6821Z" fill="url(#paint29_linear_5195_5531)"/>
<path d="M225.36 109.812C223.353 107.227 205.04 101.747 205.04 101.747C201.579 100.609 200.194 103.711 199.779 106.296L226.018 114.086C226.258 113.373 226.324 112.613 226.21 111.87C226.095 111.126 225.804 110.421 225.36 109.812Z" fill="url(#paint30_radial_5195_5531)"/>
<path d="M199.779 106.297C199.611 107.357 199.542 108.43 199.571 109.502L225.361 115.672C225.657 115.142 225.878 114.573 226.018 113.983L199.779 106.297Z" fill="url(#paint31_linear_5195_5531)"/>
<path style="mix-blend-mode:screen" d="M159.831 111.984C129.627 108.089 99.0366 108.193 68.8592 112.294L62.8013 76.5171C97.0177 71.9896 131.678 71.8738 165.924 76.1724L159.831 111.984Z" fill="url(#paint32_linear_5195_5531)"/>
<path d="M82.4634 6.23855L148.581 6.23855L144.531 2.71305e-06L86.5481 1.7855e-07L82.4634 6.23855Z" fill="url(#paint33_linear_5195_5531)"/>
<path style="mix-blend-mode:multiply" d="M41.2006 24.4718C42.5825 24.4944 43.9204 23.9886 44.9391 23.0586C50.1316 18.0609 56.2242 16.4064 63.3206 14.5108C65.086 14.0282 66.7822 13.5457 68.7553 12.9942C73.0477 11.7189 75.1247 9.75428 74.917 7.16925C74.6747 3.9638 70.5208 1.6545 68.4784 1.37877C67.1936 1.20126 65.8984 1.10915 64.6014 1.10303C51.724 1.10303 40.889 9.47855 36.9081 13.0287C35.8444 13.7911 35.0459 14.8649 34.624 16.1005C34.202 17.3361 34.1776 18.672 34.5541 19.9221C35.1021 21.2387 36.0215 22.3691 37.201 23.1765C38.3805 23.9839 39.7697 24.4338 41.2006 24.4718Z" fill="url(#paint34_linear_5195_5531)"/>
<path d="M68.2361 3.41248C70.3823 3.72268 77.6518 8.34128 68.2361 11.1676C58.8204 13.9939 50.5124 15.0279 43.6238 21.5077C40.6467 24.3685 32.3734 19.5776 38.2236 14.6143C44.0738 9.65103 55.5318 1.72359 68.2361 3.41248Z" fill="url(#paint35_linear_5195_5531)"/>
<path style="mix-blend-mode:screen" d="M50.0623 12.8561C50.0623 13.3387 51.2046 13.7178 52.5893 13.7178C53.974 13.7178 55.1162 13.3387 55.1162 12.8561C55.1162 12.3736 54.0086 11.96 52.5893 11.96C51.17 11.96 50.0623 12.3736 50.0623 12.8561Z" fill="url(#paint36_linear_5195_5531)"/>
<path style="mix-blend-mode:screen" d="M46.5315 13.7181C46.5315 14.2007 47.6392 14.6143 49.0239 14.6143C50.4086 14.6143 51.5508 14.2007 51.5508 13.7181C51.5508 13.2356 50.4432 12.8564 49.0239 12.8564C47.6046 12.8564 46.5315 13.2356 46.5315 13.7181Z" fill="url(#paint37_linear_5195_5531)"/>
<path style="mix-blend-mode:screen" d="M44.0044 15.4759C44.0044 15.9585 45.1468 16.3376 46.5314 16.3376C47.9161 16.3376 49.0238 15.9585 49.0238 15.4759C49.0238 14.9934 47.9161 14.6143 46.5314 14.6143C45.1468 14.6143 44.0044 14.9934 44.0044 15.4759Z" fill="url(#paint38_linear_5195_5531)"/>
<path style="mix-blend-mode:screen" d="M54.0779 11.9603C54.0779 12.4429 55.1856 12.8565 56.6049 12.8565C58.0242 12.8565 59.1319 12.4429 59.1319 11.9603C59.1319 11.4778 57.9896 11.0986 56.6049 11.0986C55.2203 11.0986 54.0779 11.4778 54.0779 11.9603Z" fill="url(#paint39_linear_5195_5531)"/>
<path style="mix-blend-mode:screen" d="M57.1934 11.0985C57.1934 11.581 58.3011 11.9602 59.7204 11.9602C61.1397 11.9602 62.2473 11.581 62.2473 11.0985C62.2473 10.616 61.1051 10.2368 59.7204 10.2368C58.3357 10.2368 57.1934 10.6849 57.1934 11.0985Z" fill="url(#paint40_linear_5195_5531)"/>
<path style="mix-blend-mode:multiply" d="M188.286 24.4718C186.904 24.4944 185.566 23.9886 184.548 23.0586C179.355 18.0609 173.228 16.4064 166.166 14.5108C164.401 14.0282 162.705 13.5457 160.732 12.9942C156.439 11.7189 154.362 9.75428 154.57 7.16925C154.812 3.9638 158.932 1.6545 161.009 1.37876C162.293 1.20126 163.589 1.10915 164.886 1.10303C177.763 1.10303 188.598 9.47855 192.579 13.0287C193.643 13.7911 194.441 14.8649 194.863 16.1005C195.285 17.3362 195.309 18.672 194.933 19.9221C194.34 21.2495 193.367 22.373 192.135 23.1517C190.903 23.9304 189.468 24.3297 188.009 24.2994L188.286 24.4718Z" fill="url(#paint41_linear_5195_5531)"/>
<path d="M161.389 3.41248C159.243 3.72268 151.973 8.34128 161.389 11.1676C170.805 13.9939 179.147 15.0279 186.036 21.5077C189.013 24.3685 197.286 19.5776 191.436 14.6143C185.586 9.65103 173.955 1.72359 161.389 3.41248Z" fill="url(#paint42_linear_5195_5531)"/>
<path style="mix-blend-mode:screen" d="M179.39 12.8561C179.39 13.3387 178.282 13.7178 176.897 13.7178C175.513 13.7178 174.37 13.3387 174.37 12.8561C174.37 12.3736 175.478 11.96 176.897 11.96C178.317 11.96 179.39 12.3736 179.39 12.8561Z" fill="url(#paint43_linear_5195_5531)"/>
<path style="mix-blend-mode:screen" d="M182.955 13.7181C182.955 14.2007 181.847 14.6143 180.428 14.6143C179.009 14.6143 177.901 14.2007 177.901 13.7181C177.901 13.2356 179.044 12.8564 180.428 12.8564C181.813 12.8564 182.955 13.2356 182.955 13.7181Z" fill="url(#paint44_linear_5195_5531)"/>
<path style="mix-blend-mode:screen" d="M185.621 15.4759C185.621 15.9585 184.513 16.3376 183.094 16.3376C181.674 16.3376 180.567 15.9585 180.567 15.4759C180.567 14.9934 181.709 14.6143 183.094 14.6143C184.478 14.6143 185.621 14.9934 185.621 15.4759Z" fill="url(#paint45_linear_5195_5531)"/>
<path style="mix-blend-mode:screen" d="M175.513 11.9603C175.513 12.4429 174.37 12.8565 172.986 12.8565C171.601 12.8565 170.459 12.4429 170.459 11.9603C170.459 11.4778 171.601 11.0986 172.986 11.0986C174.37 11.0986 175.513 11.4778 175.513 11.9603Z" fill="url(#paint46_linear_5195_5531)"/>
<path style="mix-blend-mode:screen" d="M172.293 11.0985C172.293 11.581 171.186 11.9602 169.766 11.9602C168.347 11.9602 167.239 11.581 167.239 11.0985C167.239 10.616 168.382 10.2368 169.766 10.2368C171.151 10.2368 172.293 10.6849 172.293 11.0985Z" fill="url(#paint47_linear_5195_5531)"/>
<path d="M29.0155 129.493L33.8618 136.973C31.3684 153.331 31.3684 169.971 33.8618 186.329L25.5884 178.333L25.5884 140.419C25.766 136.544 26.9466 132.78 29.0155 129.493Z" fill="url(#paint48_linear_5195_5531)"/>
<path style="mix-blend-mode:screen" d="M25.5884 178.333L25.5884 147.726C27.8038 149.277 30.054 150.932 32.2695 152.62C31.6281 163.882 32.1734 175.18 33.8964 186.329L25.5884 178.333Z" fill="url(#paint49_linear_5195_5531)"/>
<path d="M201.994 129.493L197.148 136.973C199.641 153.331 199.641 169.971 197.148 186.329L205.456 178.333L205.456 140.419C205.284 136.538 204.09 132.77 201.994 129.493Z" fill="url(#paint50_linear_5195_5531)"/>
<path style="mix-blend-mode:screen" d="M205.456 178.333L205.456 147.726C203.241 149.277 200.956 150.932 198.741 152.62C199.399 163.882 198.854 175.182 197.114 186.329L205.456 178.333Z" fill="url(#paint51_linear_5195_5531)"/>
<path style="mix-blend-mode:multiply" d="M160.558 184.985C160.558 185.497 160.763 185.988 161.126 186.35C161.49 186.712 161.983 186.915 162.497 186.915C162.754 186.92 163.01 186.873 163.249 186.779C163.489 186.684 163.706 186.542 163.89 186.362C164.074 186.183 164.22 185.968 164.319 185.732C164.419 185.496 164.47 185.242 164.47 184.985L164.47 125.254C164.47 124.997 164.419 124.743 164.319 124.507C164.22 124.271 164.074 124.056 163.89 123.877C163.706 123.697 163.489 123.555 163.249 123.46C163.01 123.366 162.754 123.319 162.497 123.324C161.983 123.324 161.49 123.527 161.126 123.889C160.763 124.251 160.558 124.742 160.558 125.254L160.558 184.985ZM151.004 125.254C151.013 124.739 151.225 124.248 151.594 123.887C151.963 123.526 152.46 123.323 152.977 123.324C153.495 123.323 153.991 123.526 154.36 123.887C154.729 124.248 154.941 124.739 154.951 125.254L154.951 184.985C154.941 185.5 154.729 185.991 154.36 186.352C153.991 186.713 153.495 186.916 152.977 186.915C152.46 186.916 151.963 186.713 151.594 186.352C151.225 185.991 151.013 185.5 151.004 184.985L151.004 125.254ZM141.623 125.254C141.623 124.742 141.827 124.251 142.191 123.889C142.554 123.527 143.048 123.324 143.562 123.324C143.819 123.319 144.075 123.366 144.314 123.46C144.553 123.555 144.771 123.697 144.955 123.877C145.139 124.056 145.284 124.271 145.384 124.507C145.484 124.743 145.535 124.997 145.535 125.254L145.535 184.985C145.535 185.242 145.484 185.496 145.384 185.732C145.284 185.968 145.139 186.183 144.955 186.362C144.771 186.542 144.553 186.684 144.314 186.779C144.075 186.873 143.819 186.92 143.562 186.915C143.048 186.915 142.554 186.712 142.191 186.35C141.827 185.988 141.623 185.497 141.623 184.985L141.623 125.254ZM132.207 125.254C132.217 124.739 132.428 124.248 132.797 123.887C133.167 123.526 133.663 123.323 134.181 123.324C134.698 123.323 135.195 123.526 135.564 123.887C135.933 124.248 136.145 124.739 136.154 125.254L136.154 184.985C136.145 185.5 135.933 185.991 135.564 186.352C135.195 186.713 134.698 186.916 134.181 186.915C133.663 186.916 133.167 186.713 132.797 186.352C132.428 185.991 132.217 185.5 132.207 184.985L132.207 125.254ZM122.826 125.254C122.826 124.742 123.031 124.251 123.394 123.889C123.758 123.527 124.251 123.324 124.765 123.324C125.022 123.319 125.278 123.366 125.517 123.46C125.757 123.555 125.974 123.697 126.158 123.877C126.342 124.056 126.488 124.271 126.587 124.507C126.687 124.743 126.738 124.997 126.738 125.254L126.738 184.985C126.738 185.242 126.687 185.496 126.587 185.732C126.488 185.968 126.342 186.183 126.158 186.362C125.974 186.542 125.757 186.684 125.517 186.779C125.278 186.873 125.022 186.92 124.765 186.915C124.251 186.915 123.758 186.712 123.394 186.35C123.031 185.988 122.826 185.497 122.826 184.985L122.826 125.254ZM113.411 125.254C113.42 124.739 113.632 124.248 114.001 123.887C114.37 123.526 114.866 123.323 115.384 123.324C115.901 123.323 116.398 123.526 116.767 123.887C117.136 124.248 117.348 124.739 117.357 125.254L117.357 184.985C117.348 185.5 117.136 185.991 116.767 186.352C116.398 186.713 115.901 186.916 115.384 186.915C114.866 186.916 114.37 186.713 114.001 186.352C113.632 185.991 113.42 185.5 113.411 184.985L113.411 125.254ZM104.03 125.254C104.03 124.742 104.234 124.251 104.597 123.889C104.961 123.527 105.454 123.324 105.968 123.324C106.226 123.319 106.481 123.366 106.721 123.46C106.96 123.555 107.178 123.697 107.361 123.877C107.545 124.056 107.691 124.271 107.79 124.507C107.89 124.743 107.941 124.997 107.941 125.254L107.941 184.985C107.941 185.242 107.89 185.496 107.79 185.732C107.691 185.968 107.545 186.183 107.361 186.362C107.178 186.542 106.96 186.684 106.721 186.779C106.481 186.873 106.226 186.92 105.968 186.915C105.454 186.915 104.961 186.712 104.597 186.35C104.234 185.988 104.03 185.497 104.03 184.985L104.03 125.254ZM94.6138 125.254C94.6138 124.997 94.6651 124.743 94.7647 124.507C94.8643 124.271 95.0101 124.056 95.1938 123.877C95.3775 123.697 95.5953 123.555 95.8345 123.46C96.0737 123.366 96.3295 123.319 96.587 123.324C97.1011 123.324 97.5943 123.527 97.9578 123.889C98.3214 124.251 98.5255 124.742 98.5255 125.254L98.5255 184.985C98.5255 185.497 98.3214 185.988 97.9578 186.35C97.5943 186.712 97.1011 186.915 96.587 186.915C96.3295 186.92 96.0737 186.873 95.8345 186.779C95.5953 186.684 95.3775 186.542 95.1938 186.362C95.0101 186.183 94.8643 185.968 94.7647 185.732C94.6651 185.496 94.6138 185.242 94.6138 184.985L94.6138 125.254ZM85.2328 125.254C85.2328 124.742 85.4371 124.251 85.8006 123.889C86.1642 123.527 86.6572 123.324 87.1713 123.324C87.4288 123.319 87.6846 123.366 87.9238 123.46C88.163 123.555 88.3808 123.697 88.5645 123.877C88.7482 124.056 88.894 124.271 88.9936 124.507C89.0932 124.743 89.1445 124.997 89.1445 125.254L89.1445 184.985C89.1445 185.242 89.0932 185.496 88.9936 185.732C88.894 185.968 88.7482 186.183 88.5645 186.362C88.3808 186.542 88.163 186.684 87.9238 186.779C87.6846 186.873 87.4288 186.92 87.1713 186.915C86.6572 186.915 86.1642 186.712 85.8006 186.35C85.4371 185.988 85.2328 185.497 85.2328 184.985L85.2328 125.254ZM75.8171 125.254C75.8262 124.739 76.038 124.248 76.4071 123.887C76.7762 123.526 77.2729 123.323 77.7903 123.324C78.3044 123.324 78.7974 123.527 79.161 123.889C79.5245 124.251 79.7288 124.742 79.7288 125.254L79.7288 184.985C79.7288 185.497 79.5245 185.988 79.1609 186.35C78.7974 186.712 78.3044 186.915 77.7903 186.915C77.2729 186.916 76.7761 186.713 76.4071 186.352C76.038 185.991 75.8262 185.5 75.8171 184.985L75.8171 125.254ZM66.436 125.254C66.436 124.742 66.6402 124.251 67.0038 123.889C67.3673 123.527 67.8604 123.324 68.3746 123.324C68.8919 123.323 69.3886 123.526 69.7576 123.887C70.1267 124.248 70.3386 124.739 70.3477 125.254L70.3477 184.985C70.3386 185.5 70.1267 185.991 69.7576 186.352C69.3885 186.713 68.8919 186.916 68.3746 186.915C67.8604 186.915 67.3673 186.712 67.0037 186.35C66.6402 185.988 66.436 185.497 66.436 184.985L66.436 125.254Z" fill="url(#paint52_linear_5195_5531)"/>
<g style="mix-blend-mode:screen">
<path d="M39.6082 30.7104C38.6015 33.0471 37.7346 35.441 37.012 37.8796C36.3196 40.051 35.6273 42.6361 34.935 45.359C34.2426 48.0819 33.6541 51.0805 33.0656 54.0447C32.4771 57.0089 32.0272 59.973 31.681 62.7994C31.3348 65.6257 31.0579 68.2107 30.9194 70.52C30.71 73.0534 30.6523 75.597 30.7464 78.1372C31.7334 75.785 32.5885 73.3801 33.308 70.9336C34.0003 68.7622 34.7273 66.2116 35.385 63.4887C36.0427 60.7658 36.6658 57.7671 37.2543 54.803C37.8428 51.8388 38.2928 48.8746 38.6389 46.0483C38.9851 43.222 39.2621 40.6025 39.4005 38.3277C39.6087 35.7942 39.678 33.2514 39.6082 30.7104Z" fill="#199675"/>
</g>
<g style="mix-blend-mode:screen">
<path d="M191.679 30.7104C191.585 33.2507 191.642 35.7943 191.852 38.3277C191.852 40.6025 192.267 43.2565 192.648 46.0483C193.029 48.8402 193.513 51.8388 193.998 54.803C194.483 57.7671 195.175 60.7313 195.867 63.4887C196.56 66.2461 197.252 68.7622 197.944 70.9336C198.683 73.3782 199.55 75.7827 200.541 78.1372C200.635 75.597 200.577 73.0534 200.368 70.52C200.368 68.2107 199.952 65.5912 199.571 62.7994C199.191 60.0075 198.706 57.0089 198.221 54.0447C197.737 51.0805 197.01 48.1164 196.317 45.359C195.625 42.6016 194.933 40.051 194.24 37.8796C193.518 35.4453 192.663 33.052 191.679 30.7104Z" fill="#199675"/>
</g>
<path d="M33.8618 199.841L33.8618 195.119L197.148 195.119L197.148 199.841L33.8618 199.841Z" fill="url(#paint53_linear_5195_5531)"/>
<path d="M53.2817 86.237C76.1488 76.8675 100.74 72.3932 125.457 73.1051L125.457 70.1064C100.36 69.4207 75.3961 73.9763 52.1741 83.4797L53.2817 86.237Z" fill="black"/>
<path d="M99.0793 73.277C99.0793 75.0693 107.007 76.7237 116.838 76.7237C126.669 76.7237 134.561 75.2416 134.561 73.277C134.561 71.3124 126.6 70.0371 116.838 70.0371C107.076 70.0371 99.0793 71.4847 99.0793 73.277Z" fill="black"/>
<path d="M25.5192 173.197C25.2981 173.202 25.0783 173.162 24.8726 173.081C24.667 173 24.4798 172.879 24.3218 172.725C24.1639 172.571 24.0384 172.387 23.9527 172.184C23.8671 171.981 23.8229 171.763 23.823 171.543L23.823 157.756C23.8321 157.314 24.0147 156.893 24.3319 156.584C24.649 156.275 25.0752 156.101 25.5192 156.102L25.5192 173.197Z" fill="#199675"/>
<path d="M205.49 173.198C205.714 173.207 205.938 173.171 206.148 173.092C206.357 173.013 206.549 172.893 206.71 172.738C206.872 172.584 207.001 172.398 207.089 172.193C207.176 171.987 207.221 171.766 207.221 171.543L207.221 157.756C207.217 157.535 207.169 157.316 207.079 157.113C206.99 156.909 206.861 156.726 206.7 156.572C206.539 156.418 206.35 156.298 206.142 156.217C205.935 156.137 205.713 156.097 205.49 156.102L205.49 173.198Z" fill="#199675"/>
</g>
<defs>
<linearGradient id="paint0_linear_5195_5531" x1="25.9346" y1="616.273" x2="0.353026" y2="616.273" gradientUnits="userSpaceOnUse">
<stop stop-color="#363B39"/>
<stop offset="1" stop-color="#1B1C1C"/>
</linearGradient>
<linearGradient id="paint1_linear_5195_5531" x1="25.9346" y1="537.067" x2="0.353026" y2="537.067" gradientUnits="userSpaceOnUse">
<stop stop-color="#363B39"/>
<stop offset="1" stop-color="#1B1C1C"/>
</linearGradient>
<linearGradient id="paint2_linear_5195_5531" x1="25.9346" y1="364.731" x2="0.353026" y2="364.731" gradientUnits="userSpaceOnUse">
<stop stop-color="#363B39"/>
<stop offset="1" stop-color="#1B1C1C"/>
</linearGradient>
<linearGradient id="paint3_linear_5195_5531" x1="25.9346" y1="285.526" x2="0.353026" y2="285.526" gradientUnits="userSpaceOnUse">
<stop stop-color="#363B39"/>
<stop offset="1" stop-color="#1B1C1C"/>
</linearGradient>
<linearGradient id="paint4_linear_5195_5531" x1="232.353" y1="616.273" x2="206.771" y2="616.273" gradientUnits="userSpaceOnUse">
<stop stop-color="#363B39"/>
<stop offset="1" stop-color="#1B1C1C"/>
</linearGradient>
<linearGradient id="paint5_linear_5195_5531" x1="232.353" y1="537.067" x2="206.771" y2="537.067" gradientUnits="userSpaceOnUse">
<stop stop-color="#363B39"/>
<stop offset="1" stop-color="#1B1C1C"/>
</linearGradient>
<linearGradient id="paint6_linear_5195_5531" x1="232.353" y1="364.731" x2="206.771" y2="364.731" gradientUnits="userSpaceOnUse">
<stop stop-color="#363B39"/>
<stop offset="1" stop-color="#1B1C1C"/>
</linearGradient>
<linearGradient id="paint7_linear_5195_5531" x1="232.353" y1="285.526" x2="206.771" y2="285.526" gradientUnits="userSpaceOnUse">
<stop stop-color="#363B39"/>
<stop offset="1" stop-color="#1B1C1C"/>
</linearGradient>
<linearGradient id="paint8_linear_5195_5531" x1="232.353" y1="442.42" x2="2.9492" y2="442.42" gradientUnits="userSpaceOnUse">
<stop stop-color="#115444"/>
<stop offset="0.08" stop-color="#126A55"/>
<stop offset="0.9" stop-color="#199675"/>
<stop offset="1" stop-color="#24A580"/>
</linearGradient>
<linearGradient id="paint9_linear_5195_5531" x1="278.566" y1="280.08" x2="-91.7109" y2="651.962" gradientUnits="userSpaceOnUse">
<stop stop-color="#47C09A"/>
<stop offset="0.17" stop-color="#24A580"/>
<stop offset="0.51" stop-color="#199675"/>
<stop offset="0.85" stop-color="#126A55"/>
<stop offset="1" stop-color="#115444"/>
</linearGradient>
<linearGradient id="paint10_linear_5195_5531" x1="208.433" y1="442.42" x2="193.375" y2="442.42" gradientUnits="userSpaceOnUse">
<stop stop-color="white"/>
<stop offset="0.23" stop-color="#F5F5F5"/>
<stop offset="0.61" stop-color="#DADADA"/>
<stop offset="1" stop-color="#B8B8B8"/>
</linearGradient>
<linearGradient id="paint11_linear_5195_5531" x1="188.771" y1="442.42" x2="173.747" y2="442.42" gradientUnits="userSpaceOnUse">
<stop stop-color="white"/>
<stop offset="0.23" stop-color="#F5F5F5"/>
<stop offset="0.61" stop-color="#DADADA"/>
<stop offset="1" stop-color="#B8B8B8"/>
</linearGradient>
<linearGradient id="paint12_linear_5195_5531" x1="169.143" y1="442.42" x2="154.085" y2="442.42" gradientUnits="userSpaceOnUse">
<stop stop-color="white"/>
<stop offset="0.23" stop-color="#F5F5F5"/>
<stop offset="0.61" stop-color="#DADADA"/>
<stop offset="1" stop-color="#B8B8B8"/>
</linearGradient>
<linearGradient id="paint13_linear_5195_5531" x1="149.481" y1="442.42" x2="134.458" y2="442.42" gradientUnits="userSpaceOnUse">
<stop stop-color="#EEFBF6"/>
<stop offset="0.23" stop-color="#D6F5E6"/>
<stop offset="0.61" stop-color="#B0EAD2"/>
<stop offset="1" stop-color="#7CD9B8"/>
</linearGradient>
<linearGradient id="paint14_linear_5195_5531" x1="129.853" y1="442.42" x2="114.83" y2="442.42" gradientUnits="userSpaceOnUse">
<stop stop-color="white"/>
<stop offset="0.23" stop-color="#F5F5F5"/>
<stop offset="0.61" stop-color="#DADADA"/>
<stop offset="1" stop-color="#B8B8B8"/>
</linearGradient>
<linearGradient id="paint15_linear_5195_5531" x1="110.226" y1="442.42" x2="95.1678" y2="442.42" gradientUnits="userSpaceOnUse">
<stop stop-color="white"/>
<stop offset="0.23" stop-color="#F5F5F5"/>
<stop offset="0.61" stop-color="#DADADA"/>
<stop offset="1" stop-color="#B8B8B8"/>
</linearGradient>
<linearGradient id="paint16_linear_5195_5531" x1="90.5636" y1="442.42" x2="75.54" y2="442.42" gradientUnits="userSpaceOnUse">
<stop stop-color="white"/>
<stop offset="0.23" stop-color="#F5F5F5"/>
<stop offset="0.61" stop-color="#DADADA"/>
<stop offset="1" stop-color="#B8B8B8"/>
</linearGradient>
<linearGradient id="paint17_linear_5195_5531" x1="70.9362" y1="442.42" x2="55.878" y2="442.42" gradientUnits="userSpaceOnUse">
<stop stop-color="white"/>
<stop offset="0.23" stop-color="#F5F5F5"/>
<stop offset="0.61" stop-color="#DADADA"/>
<stop offset="1" stop-color="#B8B8B8"/>
</linearGradient>
<linearGradient id="paint18_linear_5195_5531" x1="51.2739" y1="442.42" x2="36.2503" y2="442.42" gradientUnits="userSpaceOnUse">
<stop stop-color="#EEFBF6"/>
<stop offset="0.23" stop-color="#D6F5E6"/>
<stop offset="0.61" stop-color="#B0EAD2"/>
<stop offset="1" stop-color="#7CD9B8"/>
</linearGradient>
<linearGradient id="paint19_linear_5195_5531" x1="31.6464" y1="442.42" x2="16.5882" y2="442.42" gradientUnits="userSpaceOnUse">
<stop stop-color="white"/>
<stop offset="0.23" stop-color="#F5F5F5"/>
<stop offset="0.61" stop-color="#DADADA"/>
<stop offset="1" stop-color="#B8B8B8"/>
</linearGradient>
<linearGradient id="paint20_linear_5195_5531" x1="205.525" y1="60.283" x2="25.5193" y2="60.283" gradientUnits="userSpaceOnUse">
<stop stop-color="#199675"/>
<stop offset="1" stop-color="#24A580"/>
</linearGradient>
<linearGradient id="paint21_linear_5195_5531" x1="205.525" y1="23.093" x2="25.5193" y2="23.093" gradientUnits="userSpaceOnUse">
<stop stop-color="#363B39"/>
<stop offset="1" stop-color="#0C0D0D"/>
</linearGradient>
<radialGradient id="paint22_radial_5195_5531" cx="0" cy="0" r="1" gradientUnits="userSpaceOnUse" gradientTransform="translate(115.522 60.2484) rotate(-180) scale(69.06 68.7619)">
<stop stop-color="#126A55"/>
<stop offset="1" stop-color="#199675"/>
</radialGradient>
<linearGradient id="paint23_linear_5195_5531" x1="190.121" y1="94.2332" x2="41.0275" y2="94.2332" gradientUnits="userSpaceOnUse">
<stop stop-color="#363B39"/>
<stop offset="1" stop-color="#0C0D0D"/>
</linearGradient>
<linearGradient id="paint24_linear_5195_5531" x1="115.522" y1="109.571" x2="115.522" y2="177.54" gradientUnits="userSpaceOnUse">
<stop stop-color="#199675"/>
<stop offset="1" stop-color="#24A580"/>
</linearGradient>
<linearGradient id="paint25_linear_5195_5531" x1="115.522" y1="111.673" x2="115.522" y2="177.954" gradientUnits="userSpaceOnUse">
<stop stop-color="#126A55"/>
<stop offset="1" stop-color="#199675"/>
</linearGradient>
<linearGradient id="paint26_linear_5195_5531" x1="35.4187" y1="94.7242" x2="30.6838" y2="136.668" gradientUnits="userSpaceOnUse">
<stop stop-color="#363B39"/>
<stop offset="1" stop-color="#1B1C1C"/>
</linearGradient>
<radialGradient id="paint27_radial_5195_5531" cx="0" cy="0" r="1" gradientUnits="userSpaceOnUse" gradientTransform="translate(16.2349 107.744) rotate(-180) scale(10.4404 9.99547)">
<stop stop-color="#126A55"/>
<stop offset="1" stop-color="#199675"/>
</radialGradient>
<linearGradient id="paint28_linear_5195_5531" x1="31.5772" y1="111.019" x2="4.8878" y2="111.019" gradientUnits="userSpaceOnUse">
<stop stop-color="#363B39"/>
<stop offset="1" stop-color="#1B1C1C"/>
</linearGradient>
<linearGradient id="paint29_linear_5195_5531" x1="194.292" y1="94.4682" x2="198.788" y2="136.321" gradientUnits="userSpaceOnUse">
<stop stop-color="#363B39"/>
<stop offset="1" stop-color="#1B1C1C"/>
</linearGradient>
<radialGradient id="paint30_radial_5195_5531" cx="0" cy="0" r="1" gradientUnits="userSpaceOnUse" gradientTransform="translate(213.535 107.779) scale(10.4404 9.99547)">
<stop stop-color="#126A55"/>
<stop offset="1" stop-color="#199675"/>
</radialGradient>
<linearGradient id="paint31_linear_5195_5531" x1="199.571" y1="111.019" x2="226.261" y2="111.019" gradientUnits="userSpaceOnUse">
<stop stop-color="#363B39"/>
<stop offset="1" stop-color="#1B1C1C"/>
</linearGradient>
<linearGradient id="paint32_linear_5195_5531" x1="165.924" y1="92.6822" x2="62.8013" y2="92.6822" gradientUnits="userSpaceOnUse">
<stop stop-color="#3B3B3B"/>
<stop offset="1"/>
</linearGradient>
<linearGradient id="paint33_linear_5195_5531" x1="148.581" y1="3.10205" x2="82.4634" y2="3.10204" gradientUnits="userSpaceOnUse">
<stop stop-color="#199675"/>
<stop offset="1" stop-color="#115444"/>
</linearGradient>
<linearGradient id="paint34_linear_5195_5531" x1="57.9549" y1="16.1996" x2="46.5066" y2="5.87921" gradientUnits="userSpaceOnUse">
<stop stop-color="white"/>
<stop offset="1" stop-color="#363B39"/>
</linearGradient>
<linearGradient id="paint35_linear_5195_5531" x1="72.9439" y1="12.8909" x2="36.112" y2="12.8909" gradientUnits="userSpaceOnUse">
<stop stop-color="#126A55"/>
<stop offset="1" stop-color="#199675"/>
</linearGradient>
<linearGradient id="paint36_linear_5195_5531" x1="53.1777" y1="13.3731" x2="51.4191" y2="11.7801" gradientUnits="userSpaceOnUse">
<stop stop-color="white"/>
</linearGradient>
<linearGradient id="paint37_linear_5195_5531" x1="49.6123" y1="14.2351" x2="47.8536" y2="12.6766" gradientUnits="userSpaceOnUse">
<stop stop-color="white"/>
<stop offset="1" stop-color="#363B39"/>
</linearGradient>
<linearGradient id="paint38_linear_5195_5531" x1="47.0853" y1="15.9929" x2="45.3612" y2="14.4345" gradientUnits="userSpaceOnUse">
<stop stop-color="white"/>
<stop offset="1" stop-color="#363B39"/>
</linearGradient>
<linearGradient id="paint39_linear_5195_5531" x1="57.0549" y1="12.4773" x2="55.3308" y2="10.9189" gradientUnits="userSpaceOnUse">
<stop stop-color="white"/>
<stop offset="1" stop-color="#363B39"/>
</linearGradient>
<linearGradient id="paint40_linear_5195_5531" x1="60.2742" y1="11.6155" x2="58.5155" y2="10.0569" gradientUnits="userSpaceOnUse">
<stop stop-color="white"/>
<stop offset="1" stop-color="#363B39"/>
</linearGradient>
<linearGradient id="paint41_linear_5195_5531" x1="171.532" y1="16.1996" x2="182.98" y2="5.8792" gradientUnits="userSpaceOnUse">
<stop stop-color="white"/>
<stop offset="1" stop-color="#363B39"/>
</linearGradient>
<linearGradient id="paint42_linear_5195_5531" x1="156.543" y1="12.8909" x2="193.375" y2="12.8909" gradientUnits="userSpaceOnUse">
<stop stop-color="#126A55"/>
<stop offset="1" stop-color="#199675"/>
</linearGradient>
<linearGradient id="paint43_linear_5195_5531" x1="176.309" y1="13.3731" x2="178.068" y2="11.7801" gradientUnits="userSpaceOnUse">
<stop stop-color="white"/>
<stop offset="1" stop-color="#363B39"/>
</linearGradient>
<linearGradient id="paint44_linear_5195_5531" x1="179.874" y1="14.2351" x2="181.633" y2="12.6765" gradientUnits="userSpaceOnUse">
<stop stop-color="white"/>
<stop offset="1" stop-color="#363B39"/>
</linearGradient>
<linearGradient id="paint45_linear_5195_5531" x1="182.401" y1="15.9929" x2="184.125" y2="14.4345" gradientUnits="userSpaceOnUse">
<stop stop-color="white"/>
<stop offset="1" stop-color="#363B39"/>
</linearGradient>
<linearGradient id="paint46_linear_5195_5531" x1="172.397" y1="12.4773" x2="174.156" y2="10.9188" gradientUnits="userSpaceOnUse">
<stop stop-color="white"/>
<stop offset="1" stop-color="#363B39"/>
</linearGradient>
<linearGradient id="paint47_linear_5195_5531" x1="169.212" y1="11.6155" x2="170.937" y2="10.0571" gradientUnits="userSpaceOnUse">
<stop stop-color="white"/>
<stop offset="1" stop-color="#363B39"/>
</linearGradient>
<linearGradient id="paint48_linear_5195_5531" x1="40.8544" y1="139.73" x2="0.697777" y2="217.802" gradientUnits="userSpaceOnUse">
<stop stop-color="#363B39"/>
<stop offset="1" stop-color="#1B1C1C"/>
</linearGradient>
<linearGradient id="paint49_linear_5195_5531" x1="35.6619" y1="155.585" x2="10.3234" y2="204.859" gradientUnits="userSpaceOnUse">
<stop stop-color="#3B3B3B"/>
<stop offset="1"/>
</linearGradient>
<linearGradient id="paint50_linear_5195_5531" x1="190.19" y1="139.73" x2="230.346" y2="217.802" gradientUnits="userSpaceOnUse">
<stop stop-color="#363B39"/>
<stop offset="1" stop-color="#1B1C1C"/>
</linearGradient>
<linearGradient id="paint51_linear_5195_5531" x1="218.541" y1="153.999" x2="191.28" y2="174.689" gradientUnits="userSpaceOnUse">
<stop/>
<stop offset="1" stop-color="#3B3B3B"/>
</linearGradient>
<linearGradient id="paint52_linear_5195_5531" x1="115.522" y1="122.634" x2="115.522" y2="192.396" gradientUnits="userSpaceOnUse">
<stop stop-color="white"/>
<stop offset="1" stop-color="#8F8F8F"/>
</linearGradient>
<linearGradient id="paint53_linear_5195_5531" x1="197.183" y1="197.497" x2="33.8618" y2="197.497" gradientUnits="userSpaceOnUse">
<stop stop-color="#363B39"/>
<stop offset="1" stop-color="#0C0D0D"/>
</linearGradient>
<clipPath id="clip0_5195_5531">
<rect width="685" height="232" fill="white" transform="matrix(-4.37114e-08 1 1 4.37114e-08 0.353027 0)"/>
</clipPath>
</defs>
</svg>
