<svg width="328" height="678" viewBox="0 0 328 678" fill="none" xmlns="http://www.w3.org/2000/svg">
<g clip-path="url(#clip0_5202_6117)">
<path d="M53.0559 515.328H33.4954C27.3686 515.328 22.4019 520.297 22.4019 526.427V601.072C22.4019 607.202 27.3686 612.171 33.4954 612.171H53.0559C59.1827 612.171 64.1495 607.202 64.1495 601.072V526.427C64.1495 520.297 59.1827 515.328 53.0559 515.328Z" fill="#0F453A"/>
<path d="M293.45 515.328H273.89C267.763 515.328 262.796 520.297 262.796 526.427V601.072C262.796 607.202 267.763 612.171 273.89 612.171H293.45C299.577 612.171 304.544 607.202 304.544 601.072V526.427C304.544 520.297 299.577 515.328 293.45 515.328Z" fill="#0F453A"/>
<path d="M40.9946 38.654C28.3805 155.065 27.7239 156.483 27.7239 177.124V636.096C27.6597 639.156 28.1988 642.2 29.3104 645.051C30.4221 647.903 32.0845 650.508 34.2026 652.717C36.3208 654.926 38.8532 656.696 41.6552 657.925C44.4572 659.155 47.4739 659.82 50.533 659.883H276.413C279.472 659.82 282.488 659.155 285.29 657.925C288.092 656.696 290.625 654.926 292.743 652.717C294.861 650.508 296.523 647.903 297.635 645.051C298.747 642.2 299.286 639.156 299.222 636.096C299.222 138.228 299.982 167.962 297.286 144.451L285.225 38.412C284.628 32.7881 281.998 27.5762 277.829 23.756C273.661 19.9359 268.241 17.7707 262.589 17.6675H63.631C57.9412 17.7774 52.4905 19.9766 48.3164 23.8464C44.1423 27.7163 41.5364 32.9866 40.9946 38.654Z" fill="#199675" stroke="#0F453A" stroke-width="0.39" stroke-miterlimit="10"/>
<path d="M43.6904 102.478C49.1508 97.2571 70.5775 43.7017 71.3378 37.8241C71.5631 34.3157 70.5205 30.8431 68.4003 28.0396C63.2855 34.2629 43.4139 59.1563 36.3984 69.5286C34.9815 76.4434 25.8232 119.661 43.6904 102.478Z" fill="#D0D2D3" stroke="#0F453A" stroke-width="0.15" stroke-miterlimit="10"/>
<path d="M282.668 102.72C277.242 97.4992 255.815 43.9438 255.02 38.0316C254.808 34.4327 255.941 30.8834 258.2 28.0742L260.412 30.8402L260.965 31.5662L262.934 34.0901L263.487 34.8162L269.535 42.8374L271.816 45.8108C272.196 46.2948 272.542 46.7789 272.922 47.2283L275.099 50.0288C275.514 50.582 275.929 51.1006 276.378 51.6193C276.827 52.1379 277.968 53.6246 278.797 54.6618L279.972 56.1485C281.216 57.6697 282.495 59.2256 283.843 60.816L284.361 61.4729L284.603 61.7841L284.983 62.2681L285.363 62.7867L285.674 63.2362L286.193 63.8931L286.469 64.308L287.057 65.1378L287.333 65.5181L288.025 66.5207L288.232 66.8319L289.061 68.042V68.2494C289.407 68.6989 289.718 69.1829 290.063 69.667C291.411 76.6164 300.57 119.869 282.668 102.72Z" fill="#D0D2D3" stroke="#0F453A" stroke-width="0.15" stroke-miterlimit="10"/>
<path d="M283.29 146.283L287.333 228.985C287.404 230.354 287.195 231.722 286.719 233.008C286.244 234.293 285.512 235.468 284.567 236.461C283.623 237.454 282.487 238.245 281.227 238.784C279.968 239.324 278.612 239.601 277.242 239.599H48.8052C47.4337 239.601 46.0762 239.324 44.815 238.784C43.5539 238.245 42.4153 237.456 41.4684 236.463C40.5216 235.47 39.7861 234.296 39.3066 233.01C38.8272 231.725 38.6138 230.355 38.6793 228.985L42.7918 146.249C42.9331 143.656 44.0609 141.215 45.9439 139.428C47.8268 137.641 50.3221 136.642 52.9177 136.637H273.199C275.799 136.635 278.3 137.636 280.18 139.434C282.06 141.231 283.174 143.685 283.29 146.283Z" fill="#9AD7F1" stroke="#0F453A" stroke-width="0.39" stroke-miterlimit="10"/>
<path d="M38.6792 42.388V60.0208L40.9947 38.654C41.5364 32.9865 44.1423 27.7162 48.3164 23.8464C52.4905 19.9765 57.9412 17.7773 63.631 17.6674H262.589C268.241 17.7706 273.661 19.9358 277.829 23.756C281.998 27.5761 284.628 32.7881 285.225 38.4119L287.368 57.1857V42.388C287.368 31.146 282.904 20.3644 274.958 12.4151C267.012 4.46586 256.235 0 244.998 0H81.0489C69.8117 0 59.0348 4.46586 51.089 12.4151C43.1431 20.3644 38.6792 31.146 38.6792 42.388Z" fill="#0F453A" fill-opacity="0.2"/>
<path d="M171.11 37.859C171.11 51.0663 151.101 51.1009 151.101 37.859C151.101 24.617 171.11 24.5825 171.11 37.859Z" fill="#D0D2D3" stroke="#0F453A" stroke-width="0.11" stroke-miterlimit="10"/>
<path d="M276.413 659.883H50.533C47.4739 659.82 44.4572 659.155 41.6552 657.926C38.8532 656.696 36.3208 654.926 34.2026 652.717C32.0845 650.508 30.4221 647.903 29.3104 645.051C28.1988 642.2 27.6597 639.157 27.7239 636.096V645.327C27.7239 653.929 31.1392 662.178 37.2185 668.259C43.2978 674.341 51.5431 677.758 60.1405 677.758H266.805C275.402 677.758 283.648 674.341 289.727 668.259C295.806 662.178 299.222 653.929 299.222 645.327V636.096C299.286 639.157 298.747 642.2 297.635 645.051C296.523 647.903 294.861 650.508 292.743 652.717C290.625 654.926 288.092 656.696 285.29 657.926C282.488 659.155 279.472 659.82 276.413 659.883Z" fill="#0F453A" stroke="#0F453A" stroke-width="0.16" stroke-miterlimit="10"/>
<path d="M27.7239 641.04V644.048C27.7239 648.908 29.6536 653.569 33.0886 657.005C36.5236 660.442 41.1825 662.372 46.0403 662.372H281.043C290.374 662.372 299.36 655.976 299.36 641.04H27.7239Z" fill="#126A55" stroke="#0F453A" stroke-width="0.15" stroke-miterlimit="10"/>
<path d="M284.983 180.443L221.014 136.637H94.1123L244.998 239.599C296.492 239.599 288.266 247.966 284.983 180.443Z" fill="#BFE7FA"/>
<path d="M48.8052 239.599H139.834L41.5132 172.283L38.6793 228.985C38.6138 230.355 38.8272 231.725 39.3066 233.01C39.7861 234.296 40.5216 235.47 41.4684 236.463C42.4153 237.456 43.5539 238.245 44.815 238.784C46.0762 239.324 47.4337 239.601 48.8052 239.599Z" fill="#BFE7FA"/>
<path d="M283.29 146.283L287.333 228.985C287.404 230.354 287.195 231.722 286.719 233.008C286.244 234.293 285.512 235.468 284.567 236.461C283.623 237.454 282.487 238.245 281.227 238.784C279.968 239.324 278.612 239.601 277.242 239.599H48.8052C47.4337 239.601 46.0762 239.324 44.815 238.784C43.5539 238.245 42.4153 237.456 41.4684 236.463C40.5216 235.47 39.7861 234.296 39.3066 233.01C38.8272 231.725 38.6138 230.355 38.6793 228.985L42.7918 146.249C42.9331 143.656 44.0609 141.215 45.9439 139.428C47.8268 137.641 50.3221 136.642 52.9177 136.637H273.199C275.799 136.635 278.3 137.636 280.18 139.434C282.06 141.231 283.174 143.685 283.29 146.283Z" stroke="#0F453A" stroke-width="0.15" stroke-miterlimit="10"/>
<path d="M265.699 131.278C266.272 131.274 266.841 131.383 267.371 131.601C267.901 131.818 268.383 132.139 268.789 132.544C269.194 132.95 269.514 133.432 269.732 133.962C269.949 134.493 270.058 135.061 270.054 135.635C270.054 136.205 269.941 136.77 269.722 137.297C269.502 137.823 269.181 138.301 268.776 138.703C268.371 139.105 267.891 139.422 267.363 139.638C266.835 139.853 266.269 139.961 265.699 139.957C43.7249 139.957 52.1229 141.962 52.1229 135.635C52.1229 134.479 52.5816 133.371 53.3982 132.554C54.2149 131.737 55.3224 131.278 56.4773 131.278H265.699Z" fill="#0F453A"/>
<path d="M48.6325 260.067C55.3715 260.067 53.298 238.7 53.298 617.564C53.3026 618.179 53.185 618.788 52.9522 619.356C52.7194 619.924 52.3759 620.441 51.9417 620.875C51.5076 621.309 50.9914 621.653 50.4233 621.886C49.8552 622.119 49.2464 622.236 48.6325 622.232C48.0185 622.236 47.4097 622.119 46.8416 621.886C46.2735 621.653 45.7574 621.309 45.3232 620.875C44.889 620.441 44.5456 619.924 44.3127 619.356C44.0799 618.788 43.9624 618.179 43.967 617.564C43.967 238.873 41.8243 260.067 48.6325 260.067Z" stroke="#5F6A99" stroke-width="0.39" stroke-miterlimit="10"/>
<path d="M81.4982 260.067C88.41 260.067 86.1637 238.7 86.1637 617.564C86.1683 618.179 86.0507 618.788 85.8179 619.356C85.5851 619.924 85.2416 620.441 84.8074 620.875C84.3733 621.309 83.8571 621.653 83.289 621.886C82.7209 622.119 82.1121 622.236 81.4982 622.232C80.2608 622.232 79.0741 621.74 78.1992 620.865C77.3242 619.989 76.8327 618.802 76.8327 617.564C76.8327 238.873 74.69 260.067 81.4982 260.067Z" stroke="#5F6A99" stroke-width="0.39" stroke-miterlimit="10"/>
<path d="M114.364 260.067C114.978 260.062 115.587 260.18 116.155 260.413C116.723 260.646 117.239 260.99 117.673 261.424C118.108 261.858 118.451 262.375 118.684 262.943C118.917 263.511 119.034 264.12 119.03 264.735C119.03 643.426 121.172 622.232 114.364 622.232C107.625 622.232 109.699 643.599 109.699 264.735C109.699 263.497 110.19 262.309 111.065 261.434C111.94 260.559 113.127 260.067 114.364 260.067Z" stroke="#5F6A99" stroke-width="0.39" stroke-miterlimit="10"/>
<path d="M147.265 260.067C147.876 260.067 148.481 260.188 149.045 260.423C149.609 260.658 150.121 261.002 150.551 261.436C150.982 261.87 151.322 262.385 151.553 262.951C151.784 263.517 151.9 264.123 151.896 264.735C151.896 643.426 154.073 622.232 147.265 622.232C140.353 622.232 142.599 643.599 142.599 264.735C142.594 264.12 142.712 263.511 142.945 262.943C143.178 262.375 143.521 261.858 143.955 261.424C144.389 260.99 144.906 260.646 145.474 260.413C146.042 260.18 146.651 260.062 147.265 260.067Z" stroke="#5F6A99" stroke-width="0.39" stroke-miterlimit="10"/>
<path d="M180.13 260.067C181.368 260.067 182.554 260.559 183.429 261.434C184.304 262.309 184.796 263.497 184.796 264.735C184.796 643.426 186.938 622.232 180.13 622.232C173.218 622.232 175.465 643.599 175.465 264.735C175.46 264.12 175.578 263.511 175.811 262.943C176.043 262.375 176.387 261.858 176.821 261.424C177.255 260.99 177.771 260.646 178.339 260.413C178.908 260.18 179.516 260.062 180.13 260.067Z" stroke="#5F6A99" stroke-width="0.39" stroke-miterlimit="10"/>
<path d="M212.996 260.067C214.234 260.067 215.42 260.559 216.295 261.434C217.17 262.309 217.662 263.497 217.662 264.735C217.662 643.426 219.804 622.232 212.996 622.232C206.084 622.232 208.331 643.599 208.331 264.735C208.326 264.12 208.444 263.511 208.677 262.943C208.909 262.375 209.253 261.858 209.687 261.424C210.121 260.99 210.637 260.646 211.205 260.413C211.774 260.18 212.382 260.062 212.996 260.067Z" stroke="#5F6A99" stroke-width="0.39" stroke-miterlimit="10"/>
<path d="M245.862 260.067C252.774 260.067 250.528 238.7 250.528 617.564C250.532 618.179 250.415 618.788 250.182 619.356C249.949 619.924 249.606 620.441 249.171 620.875C248.737 621.309 248.221 621.653 247.653 621.886C247.085 622.119 246.476 622.236 245.862 622.232C244.625 622.232 243.438 621.74 242.563 620.865C241.688 619.989 241.197 618.802 241.197 617.564C241.197 238.873 239.054 260.067 245.862 260.067Z" stroke="#5F6A99" stroke-width="0.39" stroke-miterlimit="10"/>
<path d="M278.728 260.067C285.64 260.067 283.394 238.7 283.394 617.564C283.398 618.179 283.281 618.788 283.048 619.356C282.815 619.924 282.472 620.441 282.037 620.875C281.603 621.309 281.087 621.653 280.519 621.886C279.951 622.119 279.342 622.236 278.728 622.232C277.491 622.232 276.304 621.74 275.429 620.865C274.554 619.989 274.063 618.802 274.063 617.564C274.063 238.873 271.92 260.067 278.728 260.067Z" stroke="#5F6A99" stroke-width="0.39" stroke-miterlimit="10"/>
<path d="M38.6794 165.127C38.6794 165.929 38.5209 166.723 38.2131 167.463C37.9053 168.204 37.4541 168.876 36.8857 169.442C36.3172 170.007 35.6426 170.455 34.9007 170.758C34.1587 171.062 33.3641 171.216 32.5624 171.212C7.88706 171.212 0.353126 173.009 0.353126 165.127C0.348571 164.325 0.502539 163.53 0.80617 162.787C1.1098 162.045 1.55711 161.37 2.12237 160.801C2.68763 160.233 3.35969 159.781 4.09991 159.473C4.84012 159.165 5.63389 159.007 6.43556 159.007C31.1455 159.007 38.6794 157.209 38.6794 165.127Z" fill="#0F453A"/>
<path d="M327.353 165.127C327.344 166.744 326.695 168.291 325.549 169.431C324.403 170.572 322.852 171.212 321.236 171.212C296.526 171.212 288.992 173.009 288.992 165.127C288.992 163.504 289.637 161.947 290.784 160.799C291.931 159.652 293.487 159.007 295.109 159.007C319.819 159.007 327.353 157.209 327.353 165.127Z" fill="#0F453A"/>
<path d="M27.7239 254.916H299.222" stroke="#5F6A99" stroke-width="0.39" stroke-miterlimit="10"/>
</g>
<defs>
<clipPath id="clip0_5202_6117">
<rect width="327" height="678" fill="white" transform="translate(0.353027)"/>
</clipPath>
</defs>
</svg>
