<svg width="24" height="24" viewBox="0 0 24 24" fill="none" xmlns="http://www.w3.org/2000/svg">
<rect width="24" height="24" rx="12" fill="black"/>
<path d="M13.5863 10.7326C13.5863 11.6107 12.8744 12.3226 11.9963 12.3226C11.1181 12.3226 10.4062 11.6107 10.4062 10.7326C10.4062 9.85445 11.1181 9.14258 11.9963 9.14258C12.8744 9.14258 13.5863 9.85445 13.5863 10.7326Z" stroke="white" stroke-width="1.5"/>
<path d="M17.5518 9.54056L17.5518 9.5406C18.3215 12.9404 16.2183 15.9056 14.1788 17.864L14.1775 17.8654C12.9615 19.039 11.0365 19.041 9.81099 17.8647C7.77892 15.9062 5.67521 12.9337 6.44472 9.5335C7.09166 6.69035 9.50855 5.24832 12.0006 5.25C14.4929 5.25169 16.9083 6.69721 17.5518 9.54056Z" stroke="white" stroke-width="1.5"/>
</svg>
