<svg width="24" height="24" viewBox="0 0 24 24" fill="none" xmlns="http://www.w3.org/2000/svg">
<rect width="24" height="24" rx="12" fill="black"/>
<g clip-path="url(#clip0_251_2482)">
<path d="M15.5463 15.2129L15.5462 15.2133C15.206 16.2358 14.8292 16.9438 14.4678 17.3815C14.1044 17.8216 13.8257 17.912 13.6628 17.912C13.4999 17.912 13.2213 17.8216 12.8578 17.3815C12.4965 16.9438 12.1197 16.2358 11.7794 15.2133L11.7793 15.2129L11.1493 13.3229L11.0307 12.9672L10.675 12.8486L8.78498 12.2186L8.78461 12.2185C7.76194 11.8782 7.05376 11.5018 6.61607 11.1408C6.1759 10.7778 6.08594 10.4999 6.08594 10.3379C6.08594 10.1757 6.17614 9.89719 6.61668 9.53313C7.05457 9.17125 7.76288 8.79355 8.78546 8.45147C8.78555 8.45144 8.78564 8.45141 8.78573 8.45138L15.1525 6.32913C16.4656 5.89143 17.2102 6.11802 17.543 6.4513C17.8767 6.78547 18.1026 7.5331 17.6685 8.84636C17.6684 8.84662 17.6683 8.84687 17.6682 8.84713L15.5463 15.2129Z" stroke="white" stroke-width="1.5"/>
<mask id="path-4-inside-1_251_2482" fill="white">
<path d="M10.5859 13.2374L13.2709 10.5449Z"/>
</mask>
<path d="M11.6481 14.2966L14.3331 11.6041L12.2088 9.48574L9.5238 12.1782L11.6481 14.2966Z" fill="white" mask="url(#path-4-inside-1_251_2482)"/>
</g>
<defs>
<clipPath id="clip0_251_2482">
<rect x="3" y="3" width="18" height="18" rx="9" fill="white"/>
</clipPath>
</defs>
</svg>
