<svg width="71" height="71" viewBox="0 0 71 71" fill="none" xmlns="http://www.w3.org/2000/svg">
<path fill-rule="evenodd" clip-rule="evenodd" d="M25.8747 15.7482C25.5215 15.8462 24.8101 15.73 24.4062 15.7912C29.9278 15.834 38.9787 16.3288 44.4087 15.7849L43.0087 15.7728C42.445 14.4657 41.5914 10.1036 41.1358 9.45616L40.9541 9.19979C40.5781 8.7599 39.7183 8.89435 39.0925 8.89435C36.2972 8.88823 33.3714 8.92465 30.5935 8.89435C29.8993 8.88182 29.165 8.92465 28.4762 8.89435C27.5139 8.91867 27.5084 10.0976 27.2975 10.5193C27.1498 10.8185 27.3319 10.5068 27.161 10.9894C26.9734 11.521 26.899 12.1316 26.7171 12.7001C26.6772 12.8282 26.6374 12.9261 26.6147 13.0724C26.5803 13.1948 25.8747 15.7424 25.8747 15.7482Z" fill="white"/>
<path fill-rule="evenodd" clip-rule="evenodd" d="M26.9303 13.0669H27.3231V13.9647H26.6801L26.9247 13.0729L26.9303 13.0669ZM43.0059 14.8447C42.9202 14.5759 42.8404 14.2706 42.7549 13.9526H42.4418V14.8447H43.0059ZM26.4862 14.6552L26.4353 14.8447H26.4862V14.6552ZM40.763 13.9526H41.6V14.8447H40.763V13.9526ZM39.0838 13.9526H39.9205V14.8447H39.0838V13.9526ZM37.4044 13.9526H38.2411V14.8447H37.4044V13.9526ZM35.7249 13.9526H36.5621V14.8447H35.7249V13.9526ZM34.0459 13.9526H34.8825V14.8447H34.0459V13.9526ZM32.3665 13.9526H33.2036V14.8447H32.3665V13.9526ZM30.6873 13.9526H31.5241V14.8447H30.6873V13.9526ZM29.0082 13.9526H29.8449V14.8447H29.0082V13.9526ZM27.3345 13.9526H28.1655V14.8447H27.3345V13.9526ZM41.6 13.0669H42.4361V13.9647H41.6V13.0669ZM39.9205 13.0669H40.7569V13.9647H39.9205V13.0669ZM38.2411 13.0669H39.0778V13.9647H38.2411V13.0669ZM36.5621 13.0669H37.3985V13.9647H36.5621V13.0669ZM34.8825 13.0669H35.7201V13.9647H34.8825V13.0669ZM33.2036 13.0669H34.0399V13.9647H33.2036V13.0669ZM31.5241 13.0669H32.3607V13.9647H31.5241V13.0669ZM29.8449 13.0669H30.6818V13.9647H29.8449V13.0669ZM28.1712 13.0669H29.0023V13.9647H28.1712V13.0669Z" fill="#1F1F1F"/>
<path fill-rule="evenodd" clip-rule="evenodd" d="M6.38095 24.2582C5.07741 24.1599 3.07924 24.7712 2.46476 25.7424C-0.13676 29.8108 6.46068 29.2367 8.32207 29.3346C7.11524 30.4281 2.53308 35.5837 2.25368 36.8119C1.9463 38.1805 1.9463 49.0907 1.91764 51.4362C1.87241 54.8267 1.13826 62.8233 3.8991 63.9106C4.69587 64.2225 9.10743 64.2532 10.0641 64.0267C12.3407 63.4888 11.8512 61.2589 11.9537 58.6143C19.9631 58.0155 49.4951 58.0155 57.4704 58.6143C57.5672 61.0758 57.1111 63.2879 59.0981 63.9596C60.0601 64.2836 64.671 64.2467 65.5246 63.9106C68.9459 62.5663 67.1701 49.2005 67.2439 44.6434C67.3627 36.6773 67.1298 34.4295 61.1069 29.3346C63.077 29.2307 68.9969 30.0001 67.107 25.9868C66.5379 24.7833 62.9178 23.2686 61.5797 24.9361C58.8706 28.3387 59.1606 24.6856 56.6902 20.8616C53.8097 14.6795 53.0871 14.7834 44.0531 14.881C41.0816 14.74 37.8652 14.6182 34.8884 14.6121C31.8029 14.5999 19.9059 14.9971 17.3386 15.6384C14.8284 15.6936 11.5326 22.6574 10.3655 25.1255C8.53844 28.9862 8.87421 24.4534 6.38095 24.2582ZM10.3655 29.3346C17.9646 29.4749 26.4441 28.6806 34.3906 28.6749C42.622 28.6627 51.0707 29.2673 59.1538 29.3346L54.7093 19.5971C53.9062 18.192 53.8898 17.6485 52.1594 17.3429C45.8006 16.2248 24.1751 16.3778 17.5949 17.3001C15.187 17.6424 15.2041 18.6563 13.3199 22.2545C12.1815 24.4228 11.1909 27.1047 10.3655 29.3346ZM22.291 47.1174C22.291 49.5119 24.1185 51.4667 26.3501 51.4667H43.0913C45.323 51.4667 47.1439 49.5119 47.1439 47.1174V44.118C47.1439 41.7292 45.3172 39.7683 43.0913 39.7683H26.3501C24.1185 39.7683 22.291 41.7292 22.291 44.118V47.1174ZM17.1338 47.1296C18.0616 46.6595 19.0066 45.5109 19.3542 44.5576C16.8494 42.9756 7.5594 42.2729 4.70728 42.8777C3.42098 50.9845 14.5156 48.4678 17.1338 47.1296ZM50.0866 44.5575C50.4288 45.5108 51.3731 46.6593 52.3008 47.1295C54.9202 48.4678 66.0141 50.9844 64.7279 42.8776C61.8817 42.2728 52.5863 42.9754 50.0866 44.5575Z" fill="white"/>
<path d="M20.7843 26.3588V21.4242H19.0803V20.1462H23.9261V21.4242H22.2132V26.3588H20.7843Z" fill="#1F1F1F"/>
<path d="M27.5161 26.3588L27.3031 25.6044H25.1021L24.8891 26.3588H23.3715L25.4749 20.1462H26.9215L29.0338 26.3588H27.5161ZM25.4216 24.4773H26.9836L26.2026 21.7171L25.4216 24.4773Z" fill="#1F1F1F"/>
<path d="M29.4042 26.3588L31.3922 23.2525L29.4042 20.1462H30.9839L32.2175 22.1786L33.4512 20.1462H35.0309L33.0429 23.2525L35.0309 26.3588H33.4512L32.2175 24.3352L30.9839 26.3588H29.4042Z" fill="#1F1F1F"/>
<path d="M35.7427 26.3588V20.1462H37.1805V26.3588H35.7427Z" fill="#1F1F1F"/>
<path d="M38.3862 26.3588V20.1462H40.7292C41.6936 20.1462 42.4627 20.445 43.0367 21.0426C43.6106 21.6402 43.8975 22.3768 43.8975 23.2525C43.8975 24.1282 43.6106 24.8648 43.0367 25.4624C42.4687 26.06 41.6995 26.3588 40.7292 26.3588H38.3862ZM39.8239 25.1518H40.596C41.1759 25.1518 41.6226 24.9683 41.9362 24.6015C42.2557 24.2288 42.4154 23.7791 42.4154 23.2525C42.4154 22.7259 42.2557 22.2792 41.9362 21.9124C41.6226 21.5396 41.1759 21.3533 40.596 21.3533H39.8239V25.1518Z" fill="#1F1F1F"/>
<path d="M50.1258 25.5866C49.5223 26.2197 48.7176 26.5363 47.7118 26.5363C46.7059 26.5363 45.9013 26.2197 45.2978 25.5866C44.6943 24.9476 44.3925 24.1696 44.3925 23.2525C44.3925 22.3354 44.6943 21.5603 45.2978 20.9272C45.9013 20.2882 46.7059 19.9688 47.7118 19.9688C48.7176 19.9688 49.5223 20.2882 50.1258 20.9272C50.7293 21.5603 51.031 22.3354 51.031 23.2525C51.031 24.1696 50.7293 24.9476 50.1258 25.5866ZM47.7118 25.2494C48.2798 25.2494 48.7235 25.06 49.043 24.6814C49.3684 24.2968 49.5311 23.8205 49.5311 23.2525C49.5311 22.6845 49.3684 22.2112 49.043 21.8325C48.7235 21.4479 48.2798 21.2556 47.7118 21.2556C47.1379 21.2556 46.6882 21.4479 46.3628 21.8325C46.0433 22.2112 45.8865 22.6845 45.8924 23.2525C45.8865 23.8205 46.0433 24.2968 46.3628 24.6814C46.6882 25.06 47.1379 25.2494 47.7118 25.2494Z" fill="#1F1F1F"/>
</svg>
