<svg width="46" height="46" viewBox="0 0 46 46" fill="none" xmlns="http://www.w3.org/2000/svg">
<path d="M22.5857 0C15.4141 0 9.57422 5.80203 9.57422 12.9357C9.57422 14.8875 9.99512 16.7549 10.8142 18.454C14.6716 27.2944 21.9275 35.9437 22.0042 36.0278L22.5858 36.7242L23.1673 36.0278C23.2439 35.9437 30.4769 27.2946 34.3269 18.4771C35.1687 16.7166 35.5972 14.8493 35.5972 12.9281C35.5972 5.8024 29.7573 0.000739411 22.5857 0.000739411V0ZM22.5857 18.1477C19.6235 18.1477 17.228 15.7522 17.228 12.79C17.228 9.82773 19.6235 7.43225 22.5857 7.43225C25.5479 7.43225 27.9434 9.82773 27.9434 12.79C27.9434 15.7522 25.5479 18.1477 22.5857 18.1477Z" fill="white"/>
<path d="M39.2955 23.8957L34.2435 22.2117C30.1717 30.0876 24.4082 36.9457 24.3472 37.0141L23.7653 37.7104L22.5943 39.1034L21.4233 37.7184L20.8417 37.0217C20.7728 36.9451 15.0018 30.0645 10.9297 22.2193L5.8937 23.8957L0 45.7703L11.1134 40.6422L22.5945 45.9999L34.0756 40.6422L45.189 45.7703L39.2955 23.8957Z" fill="white"/>
</svg>
