<svg width="36" height="53" viewBox="0 0 36 53" fill="none" xmlns="http://www.w3.org/2000/svg">
<path d="M15.2779 29.461V27.4523C15.2779 24.7182 17.5095 22.5421 20.1881 22.5421C21.5273 22.5421 22.7549 23.0442 23.7033 23.9927C24.1498 24.4391 24.5401 24.9969 24.7636 25.6106C27.6651 22.9325 29.5065 19.0268 29.5065 14.7303C29.5065 6.58379 22.9227 0 14.7762 0C6.62969 0 0.0458984 6.58379 0.0458984 14.7303C0.0458984 22.8768 6.62969 29.4606 14.7762 29.4606C14.9428 29.461 15.1101 29.461 15.2779 29.461ZM13.2692 20.0313C12.8228 20.0313 12.3207 19.8639 11.986 19.5292L8.0803 15.6235C7.35483 14.898 7.35483 13.7822 8.0803 13.0567C8.80578 12.3311 9.92159 12.3312 10.6471 13.0567L13.214 15.6235L18.8493 9.98817C19.5748 9.26269 20.6906 9.26269 21.4162 9.98817C22.1417 10.7136 22.1417 11.8295 21.4162 12.555L14.4965 19.5292C14.1618 19.8639 13.7154 20.0313 13.2694 20.0313H13.2692Z" fill="white"/>
<path d="M35.3083 39.0024C35.3083 37.7192 34.248 36.7146 33.0205 36.7146C32.1837 36.7146 31.4582 37.161 31.0674 37.7749V37.7192C31.0674 36.436 30.0072 35.4314 28.7797 35.4314C27.9429 35.4314 27.2174 35.8779 26.8266 36.4917V36.436C26.8266 35.1528 25.7663 34.1483 24.5388 34.1483C23.702 34.1483 22.9765 34.5947 22.5857 35.2085L22.5865 27.4524C22.5865 26.8386 22.3635 26.2249 21.9171 25.8345C21.4707 25.3881 20.9129 25.165 20.2992 25.165C19.016 25.165 18.0114 26.2253 18.0114 27.4528V41.7367C18.0114 41.8484 17.9558 41.9597 17.7884 42.0158C17.6767 42.0714 17.5093 42.0158 17.4537 41.9601L15.1102 39.6167C14.3291 38.8355 13.0459 38.7238 12.153 39.3376C11.5949 39.7284 11.2602 40.2861 11.1489 40.9555C11.0372 41.6249 11.2606 42.2947 11.651 42.7968L17.5097 49.8271C19.1837 51.8357 21.5827 52.9516 24.2052 52.9516H27.7197C29.7283 52.9516 31.6814 52.1704 33.1319 50.7199C34.5825 49.2693 35.3636 47.3719 35.3636 45.3076L35.3083 39.0024Z" fill="white"/>
</svg>
