<svg width="59" height="37" viewBox="0 0 59 37" fill="none" xmlns="http://www.w3.org/2000/svg">
<path d="M0.0437012 18.6247C0.0437012 17.6683 0.44795 16.9137 1.25747 16.3627L15.7735 6.86891C15.9572 6.72205 16.2327 6.64836 16.6017 6.64836C17.2265 6.64836 17.8248 6.9239 18.3956 7.47657C18.9649 8.02923 19.2513 8.67218 19.2513 9.40801C19.2513 10.1075 18.9742 10.6415 18.4205 11.0089L6.77837 18.6252L18.4205 26.2426C18.9742 26.5378 19.2513 27.0708 19.2513 27.8435C19.2513 28.5798 18.9664 29.2144 18.3956 29.7474C17.8248 30.2814 17.2265 30.5481 16.6017 30.5481C16.2327 30.5481 15.9572 30.4744 15.7735 30.3276L1.25747 20.8322C0.447937 20.2795 0.0437012 19.5447 0.0437012 18.6247ZM22.3019 35.31C22.2531 35.0199 22.2615 34.7392 22.3268 34.4662L32.4506 1.48208C32.6301 0.779969 33.1184 0.361201 33.9176 0.226283C34.4977 0.127687 35.0577 0.238218 35.5974 0.556842C36.1366 0.877026 36.4557 1.32693 36.5528 1.90708C36.6078 2.234 36.5844 2.53706 36.4832 2.8152L26.3859 35.6253C26.1758 36.3695 25.6356 36.8157 24.7653 36.9636C24.1473 37.0684 23.6055 36.9454 23.1353 36.5962C22.6657 36.2459 22.3886 35.8168 22.3019 35.3093L22.3019 35.31ZM39.7498 29.7461C39.179 29.2131 38.8941 28.578 38.8941 27.8421C38.8941 27.1058 39.1515 26.5733 39.6668 26.2412L51.3126 18.6239L39.6668 11.0076C39.151 10.6023 38.8941 10.0693 38.8941 9.40665C38.8941 8.67029 39.179 8.02732 39.7498 7.47521C40.3207 6.92255 40.9179 6.647 41.5438 6.647C41.8743 6.647 42.1317 6.72173 42.3165 6.86755L56.8325 16.3613C57.6409 16.914 58.0462 17.6685 58.0462 18.6233C58.0462 19.5812 57.6409 20.316 56.8325 20.8318L42.3165 30.3262C42.1312 30.473 41.8743 30.5467 41.5438 30.5467C40.9174 30.5467 40.3207 30.28 39.7498 29.7461Z" fill="white"/>
</svg>
