<svg width="47" height="34" viewBox="0 0 47 34" fill="none" xmlns="http://www.w3.org/2000/svg">
<path d="M46.3159 10.796L45.4369 16.9654L44.3267 24.677L43.2315 32.3886C43.2315 32.7974 43.069 33.1901 42.7796 33.479C42.4902 33.7684 42.0981 33.9308 41.6887 33.9308H4.67305C3.82099 33.9308 3.13032 33.2401 3.13032 32.3887L2.03512 24.677L0.924855 16.9654L0.0458984 10.796C0.0458984 9.94397 0.736583 9.25385 1.58808 9.25385H30.8922V23.4432C30.8922 23.5454 30.933 23.6433 31.0051 23.7159C31.0772 23.788 31.1756 23.8289 31.2779 23.8289C31.3801 23.8257 31.478 23.788 31.5554 23.7208L34.3934 19.6956L34.4703 19.5724V19.5719C34.543 19.4966 34.643 19.4541 34.7479 19.4541C34.8528 19.4541 34.9529 19.4966 35.0255 19.5719L35.1024 19.695L37.863 23.5971L37.9399 23.7203L37.9405 23.7208C38.0179 23.7881 38.1158 23.8257 38.218 23.829C38.3202 23.829 38.4187 23.7881 38.4908 23.716C38.5628 23.6434 38.6037 23.5455 38.6037 23.4433V9.25392H44.7731C45.182 9.25392 45.5746 9.41637 45.8635 9.70576C46.1529 9.99463 46.3153 10.3873 46.3153 10.7961L46.3159 10.796Z" fill="white"/>
<path d="M43.2307 4.62668V7.71105L38.6035 7.71159V6.94021C38.6035 6.73579 38.5223 6.53945 38.3776 6.39476C38.2329 6.25006 38.0371 6.16884 37.8321 6.16884H31.6633C31.2372 6.16884 30.8919 6.51418 30.8919 6.94022V7.7116H3.13013V1.54218C3.13013 0.69012 3.82081 0 4.67286 0H15.4688L16.3941 0.308229H16.4403C17.4893 0.987084 18.3682 2.52931 19.4941 2.9456C19.6845 3.02844 19.8884 3.07577 20.096 3.08438H41.6885H41.688C42.0973 3.08438 42.4895 3.24683 42.7789 3.53622C43.0683 3.82509 43.2307 4.21786 43.2307 4.62668Z" fill="white"/>
</svg>
