<svg width="46" height="46" viewBox="0 0 46 46" fill="none" xmlns="http://www.w3.org/2000/svg">
<path d="M45.9997 2.72448V2.33538C45.9997 1.05088 44.7911 0 43.3137 0H2.68629C1.20887 0 0 1.05088 0 2.33538V2.72448C0 4.00898 1.20871 5.05986 2.68629 5.05986H3.72424C4.25739 5.05986 4.21519 5.49253 4.21519 5.7137C4.21519 8.30786 5.43853 11.3066 6.3761 13.2226C8.25643 17.0648 12.5373 20.2169 16.0513 22.4426C16.6927 22.849 16.5389 23.2261 16.1665 23.4856C12.7581 25.8594 8.27699 28.8932 6.37625 32.7773C5.45331 34.6631 4.25373 37.598 4.21626 40.1635C4.21245 40.4267 4.3337 40.9399 3.61015 40.9399H2.68644C1.20902 40.9399 0.000152534 41.9909 0.000152534 43.2753V43.6646C0.000152534 44.949 1.20887 46 2.68644 46H43.314C44.7914 46 46 44.949 46 43.6646V43.2753C46 41.9909 44.7914 40.9399 43.314 40.9399H42.7327C41.6664 40.9399 41.7691 40.2458 41.7801 39.8859C41.8544 37.4896 41.044 34.7642 39.8582 32.7165C37.2202 28.1622 33.06 25.2655 30.4978 23.5897C29.9418 23.2261 29.8858 22.7761 30.4978 22.4102C33.1395 20.8304 37.2202 17.8377 39.8582 13.2832C41.1208 11.1028 41.958 8.1537 41.7542 5.65211C41.7382 5.4516 41.722 5.05986 42.3266 5.05986H43.314C44.7913 5.05986 45.9997 4.00911 45.9997 2.72448ZM37.7151 12.3452C35.2606 16.5829 31.3224 19.6134 27.8969 21.4396C27.6906 21.5496 27.2973 21.8211 27.2973 22.5788V23.4844C27.2973 24.2877 27.7165 24.464 27.9369 24.5818C31.3621 26.4102 35.2704 29.4337 37.7149 33.6547C38.8443 35.6051 39.431 37.9631 39.373 39.8397C39.3611 40.23 39.5334 40.94 38.3657 40.94H7.60858C6.58037 40.94 6.62226 40.4937 6.6247 40.2496C6.64252 38.5419 7.31977 36.1763 8.58347 33.594C10.7776 29.1105 15.3817 26.3116 18.4466 24.6444C18.5831 24.5701 18.8471 24.4369 18.8471 23.7277V22.3721C18.8471 21.6392 18.4425 21.3539 18.2291 21.2371C15.1677 19.5567 10.7261 16.7848 8.58347 12.4061C7.30651 9.79684 6.62851 7.40901 6.62439 5.69727C6.62409 5.47293 6.65654 5.05999 7.22776 5.05999H38.6958C39.3307 5.05999 39.3244 5.47716 39.3453 5.69952C39.5255 7.63905 38.9392 10.2316 37.7151 12.3452Z" fill="#FBFBFB"/>
<path d="M22.372 25.9839L11.8998 37.3774C11.554 37.7538 11.7243 38.0616 12.2782 38.0616H33.7229C34.2769 38.0616 34.4474 37.7538 34.1013 37.3774L23.6294 25.9839C23.2835 25.6076 22.7178 25.6076 22.372 25.9839Z" fill="#FBFBFB"/>
<path d="M22.2857 20.689C22.6781 21.0291 23.3198 21.0291 23.7119 20.689L28.9788 16.1214C29.3708 15.7813 29.2388 15.5029 28.6845 15.5029H17.3128C16.7588 15.5029 16.6264 15.7813 17.0185 16.1214L22.2857 20.689Z" fill="#FBFBFB"/>
</svg>
