<svg width="32" height="31" viewBox="0 0 32 31" fill="none" xmlns="http://www.w3.org/2000/svg">
<g clip-path="url(#clip0_200_7826)">
<path fill-rule="evenodd" clip-rule="evenodd" d="M22.1066 19.5124L20.2105 17.6163C19.6053 18.4011 18.9009 19.1055 18.1161 19.7107L20.0122 21.6068C19.7119 22.1267 19.7835 22.8063 20.2268 23.2494L27.5812 30.6037C28.1098 31.1324 28.9747 31.1324 29.5033 30.6037L31.1035 29.0035C31.6322 28.4748 31.6322 27.61 31.1035 27.0814L23.7492 19.727C23.3059 19.2837 22.6263 19.2121 22.1066 19.5124ZM8.01192 10.8556L10.6692 8.04635C10.4698 7.74175 10.3533 7.37758 10.3533 6.9863C10.3533 5.91626 11.2208 5.04907 12.2905 5.04907C13.3605 5.04907 14.2277 5.91657 14.2277 6.9863C14.2277 7.07869 14.2211 7.16943 14.2086 7.25829L18.916 9.11827C19.2665 8.61965 19.8462 8.29354 20.5024 8.29354C20.8807 8.29354 21.2335 8.40224 21.5322 8.58963L25.7843 4.41948C25.609 4.12811 25.5081 3.78664 25.5081 3.42155C25.5081 2.35152 26.3756 1.48433 27.4453 1.48433C28.5154 1.48433 29.3825 2.35182 29.3825 3.42155C29.3825 4.49159 28.5151 5.35878 27.4453 5.35878C27.067 5.35878 26.7142 5.25008 26.4155 5.06269L22.1641 9.23351C22.3395 9.52487 22.4404 9.86634 22.4404 10.2314C22.4404 11.3015 21.5729 12.1686 20.5031 12.1686C19.4331 12.1686 18.5659 11.3012 18.5659 10.2314C18.5659 10.139 18.5725 10.0483 18.585 9.95944L13.8776 8.09946C13.5271 8.59808 12.9475 8.92419 12.2912 8.92419C11.9384 8.92419 11.6076 8.8299 11.3226 8.6652L8.66528 11.4745C8.86472 11.7791 8.98123 12.1432 8.98123 12.5345C8.98123 13.6045 8.11373 14.4717 7.044 14.4717C5.97396 14.4717 5.10677 13.6042 5.10677 12.5345C5.10677 11.4645 5.97427 10.5973 7.044 10.5973C7.39633 10.5966 7.72717 10.6911 8.01192 10.8556ZM11.0984 0.000411463C15.8675 0.000411463 19.901 3.15086 21.2313 7.48423C20.9952 7.42185 20.7511 7.38994 20.5037 7.38994C19.8271 7.38994 19.1846 7.62956 18.6792 8.05254L18.2592 7.88666C17.1646 4.9973 14.3715 2.94259 11.0985 2.94259C6.87041 2.94259 3.44283 6.37023 3.44283 10.5982C3.44283 14.8263 6.87047 18.2538 11.0985 18.2538C14.7393 18.2538 17.7862 15.7123 18.5623 12.3066C19.0704 12.7821 19.7531 13.0732 20.5031 13.0732C20.8321 13.0732 21.1477 13.0172 21.4415 12.9144C20.385 17.6536 16.1555 21.1962 11.0981 21.1962C5.24522 21.1962 0.5 16.4513 0.5 10.5981C0.500473 4.74473 5.24522 0.000411463 11.0984 0.000411463Z" fill="white"/>
</g>
<defs>
<clipPath id="clip0_200_7826">
<rect width="31" height="31" fill="white" transform="translate(0.5)"/>
</clipPath>
</defs>
</svg>
