<svg width="43" height="40" viewBox="0 0 43 40" fill="none" xmlns="http://www.w3.org/2000/svg">
<g clip-path="url(#clip0_163_5346)">
<path d="M25.409 39.8732C23.2568 40.3848 21.9582 39.2797 20.9788 37.7876C19.928 36.2313 18.6079 35.3669 16.6444 35.0777C14.169 34.7421 13.3117 33.8542 12.8608 32.0278C10.7868 20.8975 18.5332 10.7653 26.1924 15.0066C27.9364 16.2338 28.6007 17.9589 29.6044 18.7037C31.3955 19.3544 33.5182 19.3326 35.1241 20.5125C37.0379 21.9436 38.0315 23.7379 38.0785 25.8787C32.2486 25.8897 29.599 32.2681 32.4067 36.2718C30.3158 37.8971 28.0063 39.3661 25.3867 39.8789L25.409 39.8732ZM30.2322 17.4149C32.0063 14.1645 36.0571 13.0999 38.9991 14.5873C37.1023 18.4454 31.8837 18.9362 30.2322 17.4149Z" fill="white"/>
<path d="M28.7733 3.72766L30.5547 0.530704C30.5775 0.489739 30.592 0.444711 30.5973 0.398191C30.6025 0.351671 30.5986 0.30457 30.5856 0.259578C30.5726 0.214585 30.5508 0.172582 30.5214 0.135966C30.4921 0.0993508 30.4558 0.06884 30.4146 0.046176C30.3734 0.0235119 30.3282 0.00913835 30.2814 0.00387611C30.2346 -0.00138613 30.1873 0.00256599 30.142 0.0155067C30.0968 0.0284474 30.0546 0.0501233 30.0178 0.0792969C29.981 0.10847 29.9503 0.14457 29.9275 0.185535L28.1275 3.41572C26.5909 2.74559 24.9313 2.39961 23.2534 2.39961C21.5756 2.39961 19.916 2.74559 18.3794 3.41572L16.5794 0.185535C16.5334 0.102313 16.456 0.0406826 16.3643 0.0142015C16.2726 -0.0122796 16.1741 -0.00144213 16.0904 0.0443301C16.0067 0.0901022 15.9448 0.16706 15.9182 0.258272C15.8915 0.349485 15.9024 0.447481 15.9485 0.530704L17.7299 3.72766C16.0349 4.55919 14.6028 5.83891 13.5907 7.42651C12.5785 9.01412 12.0255 10.8483 11.9921 12.7279H34.5148C34.4811 10.8479 33.9274 9.01346 32.9146 7.42582C31.9018 5.83818 30.469 4.55868 28.7733 3.72766ZM18.0565 8.62831C17.8704 8.62831 17.6884 8.57338 17.5336 8.47047C17.3789 8.36756 17.2583 8.22129 17.1871 8.05018C17.116 7.87908 17.0975 7.69082 17.1339 7.50923C17.1704 7.32765 17.2602 7.1609 17.3919 7.0301C17.5237 6.89929 17.6915 6.81031 17.8741 6.77441C18.0568 6.73851 18.246 6.75731 18.4179 6.82842C18.5898 6.89953 18.7366 7.01977 18.8397 7.17391C18.9429 7.32805 18.9977 7.50916 18.9974 7.69433C18.9969 7.94221 18.8975 8.17977 18.7212 8.35487C18.5448 8.52997 18.3057 8.62831 18.0565 8.62831ZM28.4522 8.62831C28.2661 8.62831 28.0841 8.57338 27.9293 8.47047C27.7746 8.36756 27.654 8.22129 27.5828 8.05018C27.5117 7.87908 27.4931 7.69082 27.5296 7.50923C27.566 7.32765 27.6558 7.1609 27.7876 7.0301C27.9194 6.89929 28.0872 6.81031 28.2698 6.77441C28.4524 6.73851 28.6417 6.75731 28.8135 6.82842C28.9854 6.89953 29.1322 7.01977 29.2354 7.17391C29.3386 7.32805 29.3934 7.50916 29.3931 7.69433C29.3926 7.94221 29.2932 8.17977 29.1168 8.35487C28.9404 8.52997 28.7014 8.62831 28.4522 8.62831ZM8.52376 13.182C7.8544 13.1829 7.21276 13.448 6.73962 13.9189C6.26648 14.3899 6.00049 15.0283 6 15.6941V26.1581C6 26.4877 6.06528 26.8142 6.19211 27.1187C6.31894 27.4233 6.50484 27.7 6.73919 27.9331C6.97355 28.1662 7.25176 28.3511 7.55796 28.4773C7.86416 28.6035 8.19234 28.6684 8.52376 28.6684C8.85519 28.6684 9.18337 28.6035 9.48957 28.4773C9.79576 28.3511 10.074 28.1662 10.3083 27.9331C10.5427 27.7 10.7286 27.4233 10.8554 27.1187C10.9822 26.8142 11.0475 26.4877 11.0475 26.1581V15.6941C11.0465 15.0286 10.7803 14.3907 10.3072 13.9201C9.83416 13.4496 9.19281 13.1848 8.52376 13.1838V13.182Z" fill="white"/>
<path d="M33.8347 13.8435H12.4941V26.7643L33.8347 13.8435Z" fill="white"/>
<path d="M1.49219 33.3324L42.4346 9.13916" stroke="#199675" stroke-width="2"/>
</g>
<defs>
<clipPath id="clip0_163_5346">
<rect width="43" height="40" fill="white"/>
</clipPath>
</defs>
</svg>
