<svg width="32" height="33" viewBox="0 0 32 33" fill="none" xmlns="http://www.w3.org/2000/svg">
<g clip-path="url(#clip0_200_7818)">
<path d="M16.8958 11.174C16.8958 14.0972 14.526 16.4671 11.6027 16.4671C8.67941 16.4671 6.30957 14.0972 6.30957 11.174C6.30957 8.25069 8.67941 5.88086 11.6027 5.88086C14.526 5.88086 16.8958 8.25069 16.8958 11.174Z" fill="white"/>
<path d="M26.306 25.2883C26.306 26.9125 24.9896 28.229 23.3654 28.229C21.7413 28.229 20.4248 26.9125 20.4248 25.2883C20.4248 23.6642 21.7413 22.3477 23.3654 22.3477C24.9896 22.3477 26.306 23.6642 26.306 25.2883Z" fill="white"/>
<path d="M15.182 20.9918C15.1087 20.8731 15.0809 20.7319 15.1042 20.5943L14.8795 19.448C14.8333 19.2114 14.9362 18.9706 15.1389 18.8404L17.0939 17.5848C17.2968 17.4544 17.5589 17.4612 17.755 17.6019L19.307 18.7128L20.2375 17.6436L18.9147 16.2616C18.748 16.0878 18.7041 15.8297 18.8042 15.6105L19.7698 13.4961C19.8699 13.2766 20.0936 13.1406 20.3343 13.1527L22.2433 13.2485L22.445 11.8452L20.5858 11.3999C20.3516 11.3437 20.1757 11.1504 20.1416 10.912L19.8105 8.61129C19.7761 8.37263 19.8906 8.13738 20.0999 8.0174L21.7579 7.06645L21.1698 5.77601L19.3657 6.40719C19.1381 6.48622 18.8853 6.41874 18.7277 6.23653L17.2057 4.47975C17.0479 4.29754 17.0169 4.03735 17.128 3.82337L18.0101 2.12729L16.8168 1.36273L15.6406 2.86819C15.4922 3.05827 15.2431 3.13835 15.0118 3.07061L12.7787 2.41134C12.5471 2.34334 12.3807 2.14065 12.3589 1.90014L12.1806 0H10.7625L10.5861 1.90323C10.564 2.14321 10.3976 2.34564 10.1663 2.41364L7.9361 3.0682C7.70452 3.1362 7.4551 3.05612 7.30675 2.86603L6.1305 1.36057L4.93718 2.12513L5.81937 3.82121C5.93043 4.03519 5.89971 4.29512 5.74166 4.47733L4.21724 6.23411C4.05971 6.41632 3.80687 6.48379 3.57923 6.40477L1.77494 5.77595L1.18681 7.06639L2.84485 8.01734C3.05384 8.13733 3.16832 8.37258 3.13392 8.61123L2.80337 10.912C2.76923 11.1506 2.59254 11.3439 2.35833 11.4001L0.5 11.8454L0.701118 13.2487L2.61013 13.1529C2.85089 13.1408 3.07433 13.2765 3.17462 13.4955L4.14083 15.6128C4.24086 15.832 4.19701 16.0901 4.03029 16.2639L2.70597 17.6436L3.6346 18.7151L5.18839 17.6023C5.38426 17.4616 5.64629 17.4548 5.84924 17.5853L7.80423 18.8426C8.00692 18.9729 8.10984 19.2136 8.06363 19.4502L7.69658 21.3256L9.0574 21.7255L9.76315 19.9487C9.85189 19.7247 10.0688 19.578 10.3095 19.5777H12.6345C12.8755 19.578 13.0921 19.725 13.1808 19.949L13.8866 21.7257L15.2474 21.3259L15.182 20.9918ZM11.6025 17.6437C9.88676 17.6437 8.24129 16.9621 7.02801 15.7489C5.81473 14.5356 5.13318 12.8902 5.13318 11.1744C5.13318 9.45854 5.8148 7.81314 7.02801 6.59986C8.24129 5.38658 9.8867 4.70503 11.6025 4.70503C13.3184 4.70503 14.9638 5.38664 16.1771 6.59986C17.3903 7.81314 18.0719 9.45854 18.0719 11.1744C18.0698 12.8897 17.3877 14.5337 16.1749 15.7468C14.9619 16.9595 13.3178 17.6416 11.6025 17.6437Z" fill="white"/>
<path d="M29.6464 25.3145C29.4629 25.2447 29.3261 25.0874 29.2825 24.8958L28.7655 22.632C28.7217 22.4403 28.7768 22.2397 28.9118 22.0969L30.2757 20.657L29.1911 19.2973L27.4821 20.306C27.3128 20.4061 27.1046 20.415 26.9276 20.3297L24.8356 19.3228C24.6583 19.2375 24.5355 19.0694 24.5079 18.8746L24.2327 16.9102H22.4954L22.2202 18.8746C22.1926 19.0694 22.0698 19.2375 21.8925 19.3228L19.8013 20.3297C19.6241 20.415 19.4159 20.4061 19.2465 20.306L17.541 19.2973L16.4548 20.6573L17.8188 22.0972C17.9537 22.24 18.0089 22.4403 17.965 22.632L17.448 24.8958C17.4045 25.0874 17.2677 25.2447 17.0841 25.3145L15.2305 26.0203L15.618 27.7177L17.594 27.5489C17.7901 27.5305 17.9818 27.6132 18.1034 27.7681L19.5514 29.5832C19.674 29.7368 19.7115 29.9416 19.6519 30.129L19.0472 32.0176L20.6152 32.7727L21.715 31.1225C21.824 30.959 22.0075 30.8605 22.2042 30.8605H24.5262C24.7229 30.8605 24.9064 30.9587 25.0154 31.1222L26.1152 32.7724L27.6832 32.0173L27.0785 30.1288C27.0189 29.9414 27.0564 29.7368 27.179 29.5832L28.627 27.7676C28.7489 27.6132 28.9405 27.5308 29.1364 27.5483L31.1124 27.7172L31.4999 26.0197L29.6464 25.3145ZM23.3653 29.4067C22.2733 29.4067 21.2263 28.973 20.4543 28.2008C19.6822 27.4289 19.2484 26.3819 19.2484 25.2899C19.2484 24.1978 19.6822 23.1508 20.4543 22.3789C21.2262 21.6067 22.2733 21.173 23.3653 21.173C24.4573 21.173 25.5043 21.6067 26.2763 22.3789C27.0484 23.1508 27.4822 24.1978 27.4822 25.2899C27.4808 26.3813 27.0468 27.4279 26.2749 28.1995C25.5033 28.9714 24.4567 29.4054 23.3653 29.4067Z" fill="white"/>
</g>
<defs>
<clipPath id="clip0_200_7818">
<rect width="31" height="33" fill="white" transform="translate(0.5)"/>
</clipPath>
</defs>
</svg>
