<svg width="40" height="60" viewBox="0 0 40 60" fill="none" xmlns="http://www.w3.org/2000/svg">
<path d="M3.96831 19.7122C3.96831 14.1856 5.22012 8.73552 7.62154 3.80494C8.07287 2.87672 7.74076 1.76117 6.84661 1.25023L6.80404 1.22468C5.81622 0.654131 4.55589 1.03734 4.05347 2.06773C2.95494 4.32439 2.06931 6.67472 1.4136 9.08466C0.476879 12.5335 0 16.1101 0 19.7122C0 25.1623 1.06446 30.4505 3.17635 35.4237C5.2116 40.2265 8.11545 44.544 11.8283 48.2568C15.5326 51.9612 19.8501 54.8735 24.6614 56.9088C28.7575 58.6375 33.0664 59.6679 37.4946 59.9829C38.6357 60.0596 39.598 59.1654 39.598 58.0243V57.9818C39.598 56.9428 38.7975 56.0998 37.7586 56.0231C18.8963 54.6692 3.96831 38.8981 3.96831 19.7122Z" fill="#ECB238"/>
</svg>
