<svg width="33" height="33" viewBox="0 0 33 33" fill="none" xmlns="http://www.w3.org/2000/svg">
<g clip-path="url(#clip0_7012_8566)">
<path fill-rule="evenodd" clip-rule="evenodd" d="M16.5 33C13.2366 33 10.0465 32.0323 7.33304 30.2193C4.61963 28.4062 2.50483 25.8293 1.25599 22.8143C0.00714143 19.7993 -0.319603 16.4817 0.317053 13.281C0.953709 10.0803 2.52515 7.14031 4.83272 4.83275C7.14028 2.52518 10.0803 0.953706 13.281 0.31705C16.4817 -0.319606 19.7993 0.00714922 22.8143 1.256C25.8293 2.50484 28.4062 4.61969 30.2193 7.3331C32.0323 10.0465 33 13.2366 33 16.5C33 20.8761 31.2616 25.0729 28.1673 28.1673C25.0729 31.2616 20.8761 33 16.5 33ZM16.5 2.75001C13.7805 2.75001 11.122 3.55643 8.86087 5.0673C6.59969 6.57817 4.83739 8.72563 3.79668 11.2381C2.75598 13.7506 2.48363 16.5153 3.01418 19.1825C3.54473 21.8497 4.85433 24.2998 6.7773 26.2227C8.70028 28.1457 11.1502 29.4553 13.8175 29.9858C16.4847 30.5164 19.2494 30.2441 21.7619 29.2033C24.2744 28.1626 26.4218 26.4003 27.9327 24.1391C29.4436 21.8779 30.25 19.2195 30.25 16.5C30.25 12.8533 28.8013 9.35592 26.2227 6.77729C23.6441 4.19867 20.1467 2.75001 16.5 2.75001ZM22.9707 22.9708C22.8493 23.0922 22.7052 23.1885 22.5465 23.2543C22.3878 23.32 22.2178 23.3538 22.0461 23.3538C21.8743 23.3538 21.7043 23.32 21.5456 23.2543C21.387 23.1885 21.2428 23.0922 21.1214 22.9708L16.4793 18.3288L11.8374 22.9708C11.7176 23.0978 11.5735 23.1995 11.4136 23.2698C11.2538 23.3401 11.0815 23.3777 10.9069 23.3802C10.7323 23.3827 10.559 23.3502 10.3973 23.2845C10.2355 23.2188 10.0885 23.1213 9.96505 22.9978C9.84163 22.8743 9.74427 22.7272 9.6787 22.5654C9.61314 22.4036 9.58071 22.2302 9.58336 22.0556C9.58602 21.881 9.6237 21.7088 9.69414 21.549C9.76459 21.3892 9.86638 21.2452 9.9935 21.1255L14.6355 16.4835L9.9935 11.8415C9.86638 11.7218 9.76459 11.5778 9.69414 11.418C9.6237 11.2583 9.58602 11.086 9.58336 10.9114C9.58071 10.7368 9.61314 10.5634 9.6787 10.4016C9.74427 10.2398 9.84163 10.0927 9.96505 9.96923C10.0885 9.84572 10.2355 9.74822 10.3973 9.68254C10.559 9.61685 10.7323 9.58431 10.9069 9.58683C11.0815 9.58936 11.2538 9.62689 11.4136 9.69722C11.5735 9.76754 11.7176 9.86923 11.8374 9.99625L16.4793 14.6383L21.1214 9.99625C21.242 9.8728 21.386 9.77451 21.5449 9.70708C21.7038 9.63964 21.8745 9.60441 22.0471 9.60342C22.2197 9.60243 22.3908 9.63569 22.5504 9.7013C22.7101 9.7669 22.8552 9.86353 22.9773 9.9856C23.0993 10.1077 23.196 10.2527 23.2616 10.4124C23.3272 10.5721 23.3605 10.7432 23.3595 10.9158C23.3585 11.0884 23.3232 11.2591 23.2558 11.418C23.1884 11.5769 23.0901 11.7209 22.9666 11.8415L18.3247 16.4835L22.9666 21.1255C23.2115 21.3698 23.3495 21.7013 23.3502 22.0473C23.351 22.3932 23.2145 22.7253 22.9707 22.9708Z" fill="#86909C"/>
</g>
<defs>
<clipPath id="clip0_7012_8566">
<rect width="33" height="33" fill="white"/>
</clipPath>
</defs>
</svg>
