<svg width="24" height="30" viewBox="0 0 24 30" fill="none" xmlns="http://www.w3.org/2000/svg">
<path d="M23.1364 7.98431C23.1362 6.57354 22.0623 5.4309 20.6775 5.38168C20.3001 5.36932 19.9956 5.43659 19.6111 5.57745V5.43149C19.6111 5.32877 19.5872 5.23086 19.5506 5.14127C19.3954 3.88777 18.3642 2.91611 17.0904 2.87082C16.7126 2.85851 16.3817 2.92572 15.9973 3.06664V2.56203C15.9973 2.45931 15.9869 2.3614 15.9503 2.27187C15.7951 1.01837 14.7809 0.0467122 13.5071 0.00141912C12.8051 -0.0219012 12.1368 0.230931 11.632 0.718256C11.127 1.20558 10.8457 1.86037 10.8457 2.56203V3.08105C10.5381 2.92971 10.1442 2.85793 9.75339 2.87082C8.36859 2.9201 7.30874 4.06379 7.30874 5.4745V14.2388L6.38184 12.6712C5.95757 11.9364 5.26253 11.4119 4.44227 11.1941C3.62377 10.9768 2.76391 11.0907 2.02949 11.5148C1.49705 11.8222 1.11033 12.3176 0.945037 12.9098C0.777575 13.5098 0.854334 14.1349 1.16265 14.6689L5.13696 21.5812C5.50118 22.2148 5.69413 22.936 5.69413 23.667C5.69413 23.6674 5.69413 23.6679 5.69413 23.6684C5.69413 23.6988 5.69342 23.7302 5.69389 23.7614C5.71768 25.4378 6.39304 27.0094 7.59679 28.1868C8.79638 29.3601 10.3812 29.9983 12.0596 29.9999L16.775 29.9956C16.7772 29.9956 16.7792 29.9956 16.7814 29.9956C18.4435 29.9956 20.0174 29.369 21.2135 28.2147C22.4131 27.0568 23.09 25.5079 23.1404 23.8444C23.1427 23.7653 23.1364 7.98431 23.1364 7.98431ZM21.6031 23.7941C21.5236 26.4154 19.4126 28.4579 16.7813 28.4579C16.7797 28.4579 16.7779 28.4579 16.7763 28.4579L12.0607 28.4622C9.43417 28.4596 7.26831 26.3415 7.23145 23.7343C7.23104 23.709 7.23187 23.6887 7.23187 23.6648C7.23187 23.6643 7.23187 23.6638 7.23187 23.6634C7.23187 22.6651 6.96696 21.68 6.46944 20.8147L2.49414 13.9012C2.39348 13.727 2.3684 13.5218 2.42389 13.3233C2.48031 13.1209 2.61156 12.9516 2.79356 12.8466C3.17342 12.6272 3.61528 12.5684 4.03803 12.6804C4.46002 12.7925 4.81264 13.0623 5.0312 13.441L7.37372 17.4864C7.5481 17.7875 7.92187 17.9341 8.2579 17.8437C8.59376 17.7535 8.84648 17.4489 8.84648 17.1011V5.47455C8.84648 4.90567 9.26976 4.42707 9.81369 4.40779C10.0932 4.39748 10.3516 4.49944 10.5534 4.69426C10.7554 4.8892 10.8687 5.151 10.8687 5.43166C10.8687 5.51252 10.9076 14.4704 10.9076 14.4704C10.9076 14.895 11.2513 15.2393 11.676 15.2393C12.1007 15.2393 12.4447 14.895 12.4447 14.4704C12.4447 14.4704 12.4303 2.44484 12.4174 2.38912C12.4536 2.17519 12.5519 1.97896 12.7116 1.82492C12.9135 1.63021 13.1869 1.52914 13.4671 1.53839C14.0109 1.55767 14.4595 2.03627 14.4595 2.60515V15.1159C14.4595 15.5405 14.8038 15.8848 15.2284 15.8848C15.653 15.8848 15.9973 15.5405 15.9973 15.1159V5.1653C16.0742 4.98782 16.1486 4.82557 16.2847 4.6942C16.4866 4.49944 16.7803 4.39742 17.0605 4.40768C17.6044 4.42695 18.0733 4.90555 18.0733 5.47444V16.0485C18.0733 16.473 18.4175 16.8174 18.8422 16.8174C19.2668 16.8174 19.6111 16.4731 19.6111 16.0485V7.67599C19.688 7.4985 19.7488 7.33637 19.885 7.20495C20.0868 7.01024 20.3408 6.90905 20.6211 6.91854C21.1651 6.93782 21.5963 7.4143 21.5963 7.98319C21.5963 7.98319 21.6048 23.7313 21.6031 23.7941Z" fill="#199675"/>
</svg>
