<svg width="26" height="24" viewBox="0 0 26 24" fill="none" xmlns="http://www.w3.org/2000/svg">
<path d="M1.75 8.25H24.25M13 8.25V22M5.75 22H20.25C21.6501 22 22.3503 22 22.885 21.7275C23.3554 21.4879 23.7379 21.1054 23.9775 20.635C24.25 20.1003 24.25 19.4001 24.25 18V6C24.25 4.59987 24.25 3.8998 23.9775 3.36503C23.7379 2.89461 23.3554 2.51216 22.885 2.27249C22.3503 2 21.6501 2 20.25 2H5.75C4.34987 2 3.6498 2 3.11503 2.27249C2.64461 2.51216 2.26216 2.89461 2.02249 3.36503C1.75 3.8998 1.75 4.59986 1.75 6V18C1.75 19.4001 1.75 20.1003 2.02249 20.635C2.26216 21.1054 2.64461 21.4879 3.11503 21.7275C3.6498 22 4.34986 22 5.75 22Z" stroke="#ECB238" stroke-width="2.5" stroke-linecap="round" stroke-linejoin="round"/>
</svg>
