<svg width="30" height="30" viewBox="0 0 30 30" fill="none" xmlns="http://www.w3.org/2000/svg">
<g clip-path="url(#clip0_7012_8571)">
<path d="M16.3974 27.6197C17.2379 27.5083 17.902 28.3301 17.6171 29.129C17.4683 29.534 17.1224 29.8183 16.6934 29.8752C15.7059 30.0022 14.7085 30.0324 13.7152 29.9654C10.0506 29.7187 6.75355 28.1308 4.31109 25.6883C1.64765 23.0249 0 19.3451 0 15.2814C0 11.2171 1.64765 7.53783 4.31109 4.87439C6.97452 2.21096 10.6537 0.563305 14.7181 0.563305C16.1272 0.563305 17.5005 0.766111 18.8093 1.14417C19.8831 1.454 20.9178 1.88609 21.893 2.43193L21.6029 1.67229C21.3608 1.03574 21.6803 0.323573 22.3162 0.0809092C22.9528 -0.161168 23.665 0.15828 23.9076 0.794832L25.1338 4.00338C25.1801 4.12546 25.207 4.254 25.2136 4.38438C25.3097 4.98224 24.9515 5.57483 24.356 5.75536L21.0719 6.76002C20.4218 6.95696 19.7355 6.59003 19.5385 5.94059C19.3416 5.29114 19.7085 4.60418 20.3579 4.40724L20.6281 4.32459C19.8498 3.90327 19.0284 3.56685 18.1781 3.32111C17.0896 3.00694 15.929 2.83813 14.7181 2.83813C11.2821 2.83813 8.17084 4.23081 5.91946 6.48277C3.6675 8.73415 2.27482 11.8448 2.27482 15.2814C2.27482 18.7173 3.6675 21.828 5.91946 24.08C7.95983 26.1203 10.7059 27.4556 13.7603 27.6877C14.6337 27.7539 15.5322 27.7322 16.3974 27.6197ZM12.4649 9.29509C12.4649 8.66733 12.9743 8.15797 13.6026 8.15797C14.2304 8.15797 14.7398 8.66733 14.7398 9.29509V16.2186L19.4787 18.3018C20.0531 18.5544 20.3134 19.2249 20.0608 19.7994C19.8081 20.3732 19.1376 20.634 18.5632 20.3814L13.2023 18.0251C12.7715 17.8627 12.4649 17.4472 12.4649 16.9601V9.29509ZM20.3603 26.404C19.4447 26.8724 19.5666 28.2152 20.5531 28.51C20.8386 28.5909 21.1229 28.5663 21.389 28.4333C22.1228 28.0646 22.8274 27.6302 23.4879 27.1426C23.8103 26.9023 23.978 26.5236 23.9434 26.1233C23.8555 25.2388 22.8485 24.7904 22.1328 25.3156C21.574 25.7282 20.981 26.0923 20.3603 26.404ZM25.0002 22.3274C24.482 23.0999 25.0641 24.1386 25.9949 24.0976C26.3589 24.0782 26.6848 23.9 26.8887 23.5952C27.3495 22.9118 27.7474 22.1961 28.0886 21.4458C28.4174 20.705 27.9051 19.875 27.0945 19.8404C26.6297 19.8252 26.2088 20.0848 26.0154 20.5086C25.7264 21.1446 25.3906 21.7483 25.0002 22.3274ZM27.0904 16.4941C27.0494 16.9407 27.2662 17.3592 27.6525 17.5861C28.377 17.9976 29.2703 17.5368 29.3552 16.7086C29.4332 15.8869 29.4455 15.0733 29.3892 14.2498C29.3611 13.8541 29.1325 13.5054 28.7808 13.3207C27.9919 12.9116 27.057 13.5235 27.1197 14.4092C27.1678 15.1079 27.1566 15.7966 27.0904 16.4941ZM26.1479 10.3759C26.4028 10.9638 27.0869 11.2282 27.6689 10.9597C28.2298 10.7018 28.4813 10.0448 28.2381 9.47738C27.9157 8.72184 27.5276 7.99561 27.0839 7.30396C26.5265 6.44701 25.2147 6.69671 25.0119 7.6996C24.9562 7.99443 25.009 8.28223 25.1713 8.53603C25.5477 9.12335 25.8747 9.73411 26.1479 10.3759Z" fill="#ECB238"/>
</g>
<defs>
<clipPath id="clip0_7012_8571">
<rect width="29.4244" height="30" fill="white"/>
</clipPath>
</defs>
</svg>
