<svg width="26" height="20" viewBox="0 0 26 20" fill="none" xmlns="http://www.w3.org/2000/svg">
<path d="M8 2.50084L24.25 2.50174M8 10.0009L24.25 10.0019M8 17.5009L24.25 17.5019M2.375 2.5H2.3875M2.375 10H2.3875M2.375 17.5H2.3875M3 2.5C3 2.84518 2.72018 3.125 2.375 3.125C2.02982 3.125 1.75 2.84518 1.75 2.5C1.75 2.15482 2.02982 1.875 2.375 1.875C2.72018 1.875 3 2.15482 3 2.5ZM3 10C3 10.3451 2.72018 10.625 2.375 10.625C2.02982 10.625 1.75 10.3451 1.75 10C1.75 9.65487 2.02982 9.375 2.375 9.375C2.72018 9.375 3 9.65487 3 10ZM3 17.5C3 17.8451 2.72018 18.125 2.375 18.125C2.02982 18.125 1.75 17.8451 1.75 17.5C1.75 17.1549 2.02982 16.875 2.375 16.875C2.72018 16.875 3 17.1549 3 17.5Z" stroke="#F39159" stroke-width="2.5" stroke-linecap="round" stroke-linejoin="round"/>
</svg>
