<svg width="24" height="30" viewBox="0 0 24 30" fill="none" xmlns="http://www.w3.org/2000/svg">
<path d="M12.0001 0C7.91481 -1.5e-06 4.58299 3.3318 4.58299 7.41709C4.58299 11.5024 7.91481 14.8343 12.0001 14.8343C16.0854 14.8343 19.4173 11.5024 19.4173 7.41709C19.4173 3.3318 16.0854 3.75e-06 12.0001 0ZM12.0001 1.875C15.072 1.875 17.5423 4.34512 17.5423 7.41709C17.5423 10.4891 15.072 12.9593 12.0001 12.9593C8.92814 12.9593 6.45799 10.4891 6.45799 7.41709C6.45799 4.34512 8.92814 1.875 12.0001 1.875ZM11.9993 16.0225C5.41795 16.0241 0.157175 21.9127 0.128825 29.0587L0.125 30H23.875L23.8711 29.0587C23.8428 21.9123 18.5814 16.0235 11.9996 16.0225H11.9993ZM11.9993 17.8975H12.0001C17.1802 17.8985 21.5012 22.3413 21.9505 28.125H2.04998C2.49918 22.3417 6.81967 17.8992 11.9993 17.8975Z" fill="#199675"/>
</svg>
