<svg width="174" height="56" viewBox="0 0 174 56" fill="none" xmlns="http://www.w3.org/2000/svg">
<rect width="174" height="56" rx="10" fill="white"/>
<path d="M59.783 14.3836C59.783 15.4463 59.5168 16.3761 58.8513 17.0403C58.0527 17.8373 57.121 18.2358 55.9231 18.2358C54.7251 18.2358 53.7934 17.8373 52.9948 17.0403C52.1962 16.2433 51.7969 15.3134 51.7969 14.1179C51.7969 12.9224 52.1962 11.9925 52.9948 11.1955C53.7934 10.3985 54.7251 10 55.9231 10C56.4555 10 56.9879 10.1328 57.5203 10.3985C58.0527 10.6642 58.452 10.9298 58.7182 11.3284L58.0527 11.9925C57.5203 11.3284 56.8548 11.0627 55.9231 11.0627C55.1244 11.0627 54.3258 11.3284 53.7934 11.9925C53.1279 12.5239 52.8617 13.3209 52.8617 14.2507C52.8617 15.1806 53.1279 15.9776 53.7934 16.5089C54.4589 17.0403 55.1244 17.4388 55.9231 17.4388C56.8548 17.4388 57.5203 17.1731 58.1858 16.5089C58.5851 16.1104 58.8513 15.5791 58.8513 14.9149H55.9231V13.8522H59.783V14.3836ZM65.9058 11.0627H62.312V13.5866H65.6396V14.5164H62.312V17.0403H65.9058V18.103H61.2472V10.1328H65.9058V11.0627ZM70.2981 18.103H69.2333V11.0627H66.9706V10.1328H72.5609V11.0627H70.2981V18.103ZM76.4209 18.103V10.1328H77.4857V18.103H76.4209ZM82.0112 18.103H80.9464V11.0627H78.6836V10.1328H84.1408V11.0627H81.8781V18.103H82.0112ZM94.6559 17.0403C93.8573 17.8373 92.9256 18.2358 91.7277 18.2358C90.5298 18.2358 89.598 17.8373 88.7994 17.0403C88.0008 16.2433 87.6015 15.3134 87.6015 14.1179C87.6015 12.9224 88.0008 11.9925 88.7994 11.1955C89.598 10.3985 90.5298 10 91.7277 10C92.9256 10 93.8573 10.3985 94.6559 11.1955C95.4546 11.9925 95.8539 12.9224 95.8539 14.1179C95.8539 15.3134 95.4546 16.2433 94.6559 17.0403ZM89.598 16.3761C90.1305 16.9075 90.9291 17.306 91.7277 17.306C92.5263 17.306 93.3249 17.0403 93.8573 16.3761C94.3897 15.8448 94.789 15.0478 94.789 14.1179C94.789 13.1881 94.5228 12.391 93.8573 11.8597C93.3249 11.3284 92.5263 10.9298 91.7277 10.9298C90.9291 10.9298 90.1305 11.1955 89.598 11.8597C89.0656 12.391 88.6663 13.1881 88.6663 14.1179C88.6663 15.0478 88.9325 15.8448 89.598 16.3761ZM97.318 18.103V10.1328H98.5159L102.376 16.3761V10.1328H103.441V18.103H102.376L98.2497 11.594V18.103H97.318Z" fill="#1F1F1F"/>
<path d="M87.3323 29.7941C84.1378 29.7941 81.6089 32.1851 81.6089 35.506C81.6089 38.694 84.1378 41.2179 87.3323 41.2179C90.5267 41.2179 93.0557 38.8269 93.0557 35.506C93.0557 32.0523 90.5267 29.7941 87.3323 29.7941ZM87.3323 38.8269C85.6019 38.8269 84.1378 37.3657 84.1378 35.3731C84.1378 33.3806 85.6019 31.9194 87.3323 31.9194C89.0626 31.9194 90.5267 33.2478 90.5267 35.3731C90.5267 37.3657 89.0626 38.8269 87.3323 38.8269ZM74.9537 29.7941C71.7593 29.7941 69.2303 32.1851 69.2303 35.506C69.2303 38.694 71.7593 41.2179 74.9537 41.2179C78.1482 41.2179 80.6771 38.8269 80.6771 35.506C80.6771 32.0523 78.1482 29.7941 74.9537 29.7941ZM74.9537 38.8269C73.2234 38.8269 71.7593 37.3657 71.7593 35.3731C71.7593 33.3806 73.2234 31.9194 74.9537 31.9194C76.6841 31.9194 78.1482 33.2478 78.1482 35.3731C78.1482 37.3657 76.6841 38.8269 74.9537 38.8269ZM60.1793 31.5209V33.912H65.9027C65.7696 35.2403 65.2372 36.303 64.5717 36.9672C63.7731 37.7642 62.4421 38.694 60.1793 38.694C56.5855 38.694 53.9235 35.9045 53.9235 32.3179C53.9235 28.7314 56.7186 25.9418 60.1793 25.9418C62.0428 25.9418 63.5069 26.7388 64.5717 27.6687L66.302 25.9418C64.8379 24.6135 62.9745 23.5508 60.3124 23.5508C55.5207 23.5508 51.3945 27.5358 51.3945 32.3179C51.3945 37.1 55.5207 41.0851 60.3124 41.0851C62.9745 41.0851 64.8379 40.2881 66.4351 38.5612C68.0324 36.9672 68.5648 34.709 68.5648 32.9821C68.5648 32.4508 68.5648 31.9194 68.4317 31.5209H60.1793ZM120.608 33.3806C120.076 32.0523 118.745 29.7941 115.816 29.7941C112.888 29.7941 110.492 32.0523 110.492 35.506C110.492 38.694 112.888 41.2179 116.082 41.2179C118.611 41.2179 120.209 39.6239 120.741 38.694L118.878 37.3657C118.212 38.2955 117.413 38.9597 116.082 38.9597C114.751 38.9597 113.953 38.4284 113.287 37.2328L120.874 34.0448L120.608 33.3806ZM112.888 35.2403C112.888 33.1149 114.618 31.9194 115.816 31.9194C116.748 31.9194 117.68 32.4508 117.946 33.1149L112.888 35.2403ZM106.632 40.6866H109.161V24.0821H106.632V40.6866ZM102.639 30.9896C101.974 30.3254 100.909 29.6612 99.5777 29.6612C96.7826 29.6612 94.1205 32.1851 94.1205 35.3731C94.1205 38.5612 96.6495 40.9522 99.5777 40.9522C100.909 40.9522 101.974 40.2881 102.506 39.6239H102.639V40.4209C102.639 42.5463 101.441 43.7418 99.5777 43.7418C98.1136 43.7418 97.0488 42.6791 96.7826 41.7493L94.6529 42.6791C95.3184 44.1403 96.9157 46 99.7108 46C102.639 46 105.035 44.2731 105.035 40.1552V30.0597H102.639V30.9896ZM99.7108 38.8269C97.9805 38.8269 96.5164 37.3657 96.5164 35.3731C96.5164 33.3806 97.9805 31.9194 99.7108 31.9194C101.441 31.9194 102.772 33.3806 102.772 35.3731C102.772 37.3657 101.441 38.8269 99.7108 38.8269ZM132.188 24.0821H126.198V40.6866H128.727V34.4433H132.188C134.983 34.4433 137.645 32.4508 137.645 29.2627C137.645 26.0747 134.983 24.0821 132.188 24.0821ZM132.321 32.0523H128.727V26.3403H132.321C134.184 26.3403 135.249 27.9344 135.249 29.1299C135.116 30.5911 134.051 32.0523 132.321 32.0523ZM147.628 29.6612C145.764 29.6612 143.901 30.4582 143.235 32.1851L145.498 33.1149C146.031 32.1851 146.829 31.9194 147.761 31.9194C149.092 31.9194 150.29 32.7164 150.423 34.0448V34.1776C150.024 33.912 148.959 33.5135 147.894 33.5135C145.498 33.5135 143.102 34.8418 143.102 37.2328C143.102 39.4911 145.099 40.9522 147.229 40.9522C148.959 40.9522 149.757 40.1552 150.423 39.3582H150.556V40.6866H152.952V34.3105C152.686 31.3881 150.423 29.6612 147.628 29.6612ZM147.362 38.8269C146.563 38.8269 145.365 38.4284 145.365 37.3657C145.365 36.0373 146.829 35.6388 148.027 35.6388C149.092 35.6388 149.624 35.9045 150.29 36.1702C150.024 37.7642 148.693 38.8269 147.362 38.8269ZM161.337 30.0597L158.542 37.2328H158.409L155.481 30.0597H152.819L157.211 40.1552L154.682 45.7343H157.211L163.999 30.0597H161.337ZM138.976 40.6866H141.505V24.0821H138.976V40.6866Z" fill="#1F1F1F"/>
<path d="M10.5324 10.7998C10.1331 11.1983 10 11.8625 10 12.6595V42.0162C10 42.8132 10.2662 43.4774 10.6655 43.8759L10.7986 44.0087L27.3034 27.5371V27.2714L10.5324 10.7998Z" fill="url(#paint0_linear_7042_6471)"/>
<path d="M32.6291 33.1113L27.1719 27.6651V27.2666L32.6291 21.8203L32.7622 21.9531L39.2842 25.6725C41.1477 26.7352 41.1477 28.4621 39.2842 29.5248L32.6291 33.1113Z" fill="url(#paint1_linear_7042_6471)"/>
<path d="M32.7633 32.9814L27.173 27.4023L10.5352 44.0068C11.2007 44.671 12.1324 44.671 13.3303 44.1396L32.7633 32.9814Z" fill="url(#paint2_linear_7042_6471)"/>
<path d="M32.7633 21.8233L13.3303 10.798C12.1324 10.1338 11.2007 10.2666 10.5352 10.9308L27.173 27.4024L32.7633 21.8233Z" fill="url(#paint3_linear_7042_6471)"/>
<path opacity="0.2" d="M32.6302 32.8481L13.3303 43.7407C12.2655 44.4048 11.3338 44.272 10.6683 43.7407L10.5352 43.8735L10.6683 44.0063C11.3338 44.5377 12.2655 44.6705 13.3303 44.0063L32.6302 32.8481Z" fill="#1F1F1F"/>
<path opacity="0.12" d="M10.5324 43.7411C10.1331 43.3426 10 42.6784 10 41.8814V42.0143C10 42.8113 10.2662 43.4755 10.6655 43.874V43.7411H10.5324ZM39.2826 29.1292L32.6275 32.8486L32.7606 32.9814L39.2826 29.262C40.2143 28.7307 40.6136 28.0665 40.6136 27.4023C40.6136 28.0665 40.0812 28.5979 39.2826 29.1292Z" fill="#1F1F1F"/>
<path opacity="0.25" d="M13.3276 10.9301L39.2826 25.6749C40.0812 26.2062 40.6136 26.7375 40.6136 27.4017C40.6136 26.7375 40.2143 26.0734 39.2826 25.542L13.3276 10.7973C11.4641 9.73459 10 10.5316 10 12.657V12.7898C10 10.7973 11.4641 9.86742 13.3276 10.9301Z" fill="white"/>
<defs>
<linearGradient id="paint0_linear_7042_6471" x1="25.7061" y1="12.4071" x2="3.41236" y2="34.7444" gradientUnits="userSpaceOnUse">
<stop stop-color="#00A0FF"/>
<stop offset="0.007" stop-color="#00A1FF"/>
<stop offset="0.26" stop-color="#00BEFF"/>
<stop offset="0.512" stop-color="#00D2FF"/>
<stop offset="0.76" stop-color="#00DFFF"/>
<stop offset="1" stop-color="#00E3FF"/>
</linearGradient>
<linearGradient id="paint1_linear_7042_6471" x1="41.7253" y1="27.4007" x2="9.51846" y2="27.4007" gradientUnits="userSpaceOnUse">
<stop stop-color="#FFE000"/>
<stop offset="0.409" stop-color="#FFBD00"/>
<stop offset="0.775" stop-color="#FFA500"/>
<stop offset="1" stop-color="#FF9C00"/>
</linearGradient>
<linearGradient id="paint2_linear_7042_6471" x1="29.7379" y1="30.4522" x2="-0.492771" y2="60.7437" gradientUnits="userSpaceOnUse">
<stop stop-color="#FF3A44"/>
<stop offset="1" stop-color="#C31162"/>
</linearGradient>
<linearGradient id="paint3_linear_7042_6471" x1="6.40498" y1="1.06911" x2="19.905" y2="14.5963" gradientUnits="userSpaceOnUse">
<stop stop-color="#32A071"/>
<stop offset="0.069" stop-color="#2DA771"/>
<stop offset="0.476" stop-color="#15CF74"/>
<stop offset="0.801" stop-color="#06E775"/>
<stop offset="1" stop-color="#00F076"/>
</linearGradient>
</defs>
</svg>
