<svg width="174" height="56" viewBox="0 0 174 56" fill="none" xmlns="http://www.w3.org/2000/svg">
<rect x="0.5" y="0.5" width="173" height="55" rx="9.5" fill="#06221B" stroke="#199675"/>
<path d="M41.9236 26.7408C41.8886 22.7638 45.1087 20.829 45.256 20.7389C43.4323 18.0206 40.6056 17.6491 39.6123 17.6195C37.2383 17.3641 34.9354 19.0719 33.7261 19.0719C32.4926 19.0719 30.6303 17.6442 28.6231 17.6862C26.0403 17.7269 23.624 19.2557 22.2988 21.6298C19.5639 26.4705 21.6036 33.5841 24.2239 37.4969C25.5346 39.4145 27.0662 41.5529 29.0709 41.4776C31.0322 41.3962 31.7648 40.2005 34.1316 40.2005C36.4767 40.2005 37.1646 41.4776 39.2092 41.4295C41.3141 41.3962 42.6393 39.5045 43.9042 37.571C45.4189 35.3758 46.0272 33.2115 46.0513 33.1004C46.0031 33.0832 41.9646 31.5062 41.9236 26.7408ZM38.0614 15.0455C39.1163 13.6969 39.838 11.862 39.6377 10C38.1109 10.0691 36.2015 11.0797 35.102 12.3988C34.1292 13.5611 33.2602 15.4663 33.4847 17.258C35.1998 17.3888 36.9607 16.3733 38.0614 15.0455Z" fill="white"/>
<path d="M70.3334 41.1984H67.5924L66.091 36.375H60.8722L59.442 41.1984H56.7734L61.9452 24.7773H65.1387L70.3334 41.1984ZM65.6384 34.3513L64.2806 30.0634C64.137 29.6254 63.8666 28.5938 63.4707 26.97H63.4225C63.2631 27.6684 63.0085 28.6999 62.6597 30.0634L61.3248 34.3513H65.6384ZM83.6073 35.1324C83.6073 37.1462 83.0726 38.738 82.0021 39.9065C81.0438 40.9467 79.8525 41.4662 78.432 41.4662C76.8979 41.4662 75.7948 40.9072 75.1249 39.7868V45.9997H72.5518V33.2494C72.5518 31.9847 72.5192 30.6878 72.4564 29.3576H74.7194L74.863 31.2344H74.9113C75.7695 29.8203 77.0717 29.1133 78.8194 29.1133C80.1856 29.1133 81.3262 29.6649 82.2386 30.7692C83.1499 31.8761 83.6073 33.3296 83.6073 35.1324ZM80.9858 35.2287C80.9858 34.0762 80.7324 33.126 80.2231 32.377C79.6667 31.5984 78.9196 31.2085 77.983 31.2085C77.3481 31.2085 76.7712 31.4257 76.2558 31.8539C75.7393 32.2857 75.4013 32.8496 75.2432 33.5481C75.1726 33.8092 75.1325 34.078 75.1237 34.3489V36.3244C75.1237 37.1844 75.382 37.9112 75.8986 38.506C76.4152 39.0983 77.0862 39.3957 77.9118 39.3957C78.8809 39.3957 79.6353 39.0119 80.1748 38.2506C80.7155 37.4868 80.9858 36.4799 80.9858 35.2287ZM96.9283 35.1324C96.9283 37.1462 96.3936 38.738 95.3231 39.9065C94.3636 40.9467 93.1735 41.4662 91.7517 41.4662C90.2177 41.4662 89.1146 40.9072 88.4447 39.7868V45.9997H85.8715V33.2494C85.8715 31.9847 85.8389 30.6878 85.7762 29.3576H88.0392L88.1828 31.2344H88.2311C89.088 29.8203 90.3903 29.1133 92.1392 29.1133C93.5042 29.1133 94.6448 29.6649 95.5596 30.7692C96.4697 31.8761 96.9283 33.3296 96.9283 35.1324ZM94.3056 35.2287C94.3056 34.0762 94.051 33.126 93.5416 32.377C92.9852 31.5984 92.2406 31.2085 91.304 31.2085C90.6691 31.2085 90.0922 31.4257 89.5744 31.8539C89.0579 32.2857 88.7211 32.8496 88.563 33.5481C88.4846 33.8738 88.4423 34.1391 88.4423 34.3489V36.3244C88.4423 37.1844 88.7018 37.9112 89.216 38.506C89.7325 39.097 90.4036 39.3957 91.2316 39.3957C92.2019 39.3957 92.9563 39.0119 93.4946 38.2506C94.0353 37.4868 94.3056 36.4799 94.3056 35.2287ZM111.822 36.5922C111.822 37.9902 111.344 39.1267 110.394 40.004C109.349 40.9615 107.89 41.4415 106.019 41.4415C104.291 41.4415 102.905 41.1009 101.86 40.4186L102.455 38.2259C103.583 38.9095 104.823 39.25 106.172 39.25C107.143 39.25 107.897 39.0255 108.435 38.58C108.975 38.1333 109.248 37.5361 109.248 36.7908C109.248 36.1233 109.022 35.5643 108.579 35.109C108.134 34.6549 107.397 34.2316 106.363 33.843C103.551 32.7707 102.143 31.2023 102.143 29.1392C102.143 27.7918 102.641 26.6886 103.633 25.8261C104.625 24.9648 105.941 24.5342 107.577 24.5342C109.039 24.5342 110.257 24.7945 111.223 25.314L110.578 27.4586C109.668 26.9552 108.64 26.7034 107.491 26.7034C106.584 26.7034 105.872 26.9317 105.362 27.3858C104.934 27.7918 104.717 28.2866 104.717 28.8739C104.717 29.5217 104.964 30.0597 105.457 30.4817C105.884 30.8704 106.663 31.2937 107.791 31.7477C109.174 32.3178 110.19 32.9817 110.841 33.7442C111.496 34.5068 111.822 35.4582 111.822 36.5922ZM120.351 31.3319H117.515V37.0808C117.515 38.543 118.015 39.2723 119.016 39.2723C119.476 39.2723 119.858 39.2328 120.159 39.1501L120.231 41.1478C119.724 41.3416 119.056 41.439 118.23 41.439C117.213 41.439 116.419 41.1219 115.846 40.4877C115.275 39.8534 114.988 38.791 114.988 37.2955V31.327H113.298V29.3527H114.988V27.1847L117.515 26.4048V29.3527H120.351V31.3319ZM133.123 35.1805C133.123 37.0006 132.614 38.4949 131.598 39.6634C130.534 40.8665 129.12 41.4662 127.356 41.4662C125.655 41.4662 124.302 40.8899 123.293 39.7387C122.284 38.585 121.779 37.1314 121.779 35.378C121.779 33.5431 122.301 32.0402 123.34 30.8717C124.381 29.7019 125.784 29.117 127.547 29.117C129.247 29.117 130.612 29.6945 131.645 30.847C132.632 31.9649 133.123 33.4086 133.123 35.1805ZM130.456 35.241C130.456 34.1564 130.227 33.226 129.767 32.4474C129.227 31.5071 128.455 31.037 127.454 31.037C126.423 31.037 125.633 31.5071 125.095 32.4474C124.634 33.226 124.404 34.1724 124.404 35.2904C124.404 36.3762 124.634 37.3091 125.095 38.0852C125.651 39.0255 126.427 39.4956 127.432 39.4956C128.416 39.4956 129.187 39.0156 129.745 38.0618C130.218 37.2647 130.456 36.3281 130.456 35.241ZM141.491 31.6712C141.223 31.6218 140.952 31.5975 140.68 31.5984C139.775 31.5984 139.075 31.9464 138.582 32.6473C138.155 33.2642 137.94 34.0441 137.94 34.9856V41.1984H135.367V33.0866C135.369 31.8436 135.344 30.6007 135.292 29.3589H137.533L137.627 31.6244H137.699C137.971 30.8457 138.399 30.2177 138.985 29.7475C139.522 29.3367 140.175 29.1143 140.845 29.1133C141.083 29.1133 141.298 29.1306 141.488 29.1614L141.491 31.6712ZM152.999 34.7178C153.006 35.1177 152.974 35.5174 152.905 35.911H145.185C145.214 37.0808 145.588 37.9766 146.305 38.5936C146.956 39.1439 147.797 39.4203 148.83 39.4203C149.973 39.4203 151.016 39.2352 151.954 38.8614L152.357 40.6863C151.261 41.175 149.967 41.4181 148.474 41.4181C146.678 41.4181 145.269 40.8776 144.243 39.7991C143.219 38.7195 142.706 37.2684 142.706 35.4508C142.706 33.6665 143.183 32.1796 144.138 30.9938C145.137 29.7278 146.488 29.0948 148.187 29.0948C149.856 29.0948 151.12 29.7278 151.978 30.9938C152.658 31.997 152.999 33.2408 152.999 34.7178ZM150.545 34.0355C150.563 33.2544 150.394 32.5819 150.046 32.013C149.6 31.2801 148.915 30.9148 147.996 30.9148C147.155 30.9148 146.47 31.2714 145.948 31.9871C145.52 32.556 145.265 33.2396 145.187 34.033L150.545 34.0355Z" fill="white"/>
<path d="M60.1276 18.9731C59.4119 18.9731 58.7927 18.9373 58.2773 18.8769V10.9378C58.9981 10.8239 59.7265 10.7678 60.4559 10.7699C63.4068 10.7699 64.7658 12.2544 64.7658 14.6741C64.7658 17.4653 63.1606 18.9731 60.1276 18.9731ZM60.5597 11.7879C60.1614 11.7879 59.8222 11.8126 59.541 11.8719V17.907C59.6931 17.9317 59.9852 17.9428 60.3955 17.9428C62.329 17.9428 63.4298 16.8174 63.4298 14.7099C63.4298 12.8306 62.434 11.7879 60.5597 11.7879ZM69.001 19.0336C67.3378 19.0336 66.26 17.7639 66.26 16.0401C66.26 14.2435 67.3608 12.9626 69.0951 12.9626C70.7342 12.9626 71.8361 14.1719 71.8361 15.9451C71.8361 17.7639 70.7004 19.0336 69.001 19.0336ZM69.0493 13.9078C68.1356 13.9078 67.5503 14.7815 67.5503 16.0031C67.5503 17.2012 68.1477 18.0748 69.0372 18.0748C69.9267 18.0748 70.5242 17.1407 70.5242 15.9784C70.5242 14.7938 69.9388 13.9078 69.0493 13.9078ZM81.3202 13.0823L79.54 18.9016H78.3801L77.6427 16.3745C77.4593 15.7563 77.3066 15.1291 77.1852 14.4952H77.1611C77.0682 15.1294 76.892 15.7649 76.7049 16.3745L75.9204 18.9016H74.7484L73.0732 13.0823H74.3731L75.0176 15.8488C75.1697 16.5077 75.2976 17.1296 75.4038 17.717H75.4279C75.5209 17.2271 75.673 16.6151 75.8962 15.8612L76.7049 13.0836H77.7356L78.5093 15.8019C78.6963 16.4608 78.8484 17.1074 78.9667 17.7182H79.0005C79.0826 17.1198 79.2117 16.4843 79.3867 15.8019L80.0783 13.0836L81.3202 13.0823ZM87.8739 18.9016H86.609V15.5601C86.609 14.531 86.2228 14.0152 85.4612 14.0152C84.7117 14.0152 84.1964 14.6741 84.1964 15.4404V18.9016H82.9315V14.7457C82.9315 14.2311 82.9194 13.6796 82.8844 13.0811H83.9972L84.0564 13.9794H84.0914C84.4317 13.3575 85.1221 12.9626 85.8957 12.9626C87.0906 12.9626 87.8751 13.8967 87.8751 15.4169L87.8739 18.9016ZM91.3619 18.9016H90.0959V10.4121H91.3619V18.9016ZM95.9737 19.0336C94.3117 19.0336 93.2327 17.7639 93.2327 16.0401C93.2327 14.2435 94.3334 12.9626 96.0666 12.9626C97.7068 12.9626 98.8076 14.1719 98.8076 15.9451C98.8088 17.7639 97.6718 19.0336 95.9737 19.0336ZM96.0207 13.9078C95.1071 13.9078 94.5217 14.7815 94.5217 16.0031C94.5217 17.2012 95.1204 18.0748 96.0075 18.0748C96.8982 18.0748 97.4944 17.1407 97.4944 15.9784C97.4956 14.7938 96.9115 13.9078 96.0207 13.9078ZM103.795 18.9016L103.703 18.2315H103.669C103.283 18.7708 102.719 19.0336 102.005 19.0336C100.985 19.0336 100.261 18.3031 100.261 17.3209C100.261 15.8846 101.479 15.1418 103.587 15.1418V15.0344C103.587 14.2681 103.19 13.8844 102.405 13.8844C101.844 13.8844 101.352 14.0288 100.918 14.3163L100.661 13.4661C101.188 13.1305 101.844 12.9626 102.615 12.9626C104.102 12.9626 104.853 13.7647 104.853 15.37V17.5134C104.853 18.1007 104.878 18.5561 104.935 18.9028L103.795 18.9016ZM103.621 16.0031C102.216 16.0031 101.511 16.351 101.511 17.1765C101.511 17.7873 101.874 18.0859 102.379 18.0859C103.022 18.0859 103.621 17.5837 103.621 16.9014V16.0031ZM110.995 18.9016L110.936 17.9675H110.901C110.538 18.6733 109.927 19.0336 109.074 19.0336C107.701 19.0336 106.685 17.7997 106.685 16.0635C106.685 14.2435 107.739 12.9614 109.178 12.9614C109.939 12.9614 110.479 13.2242 110.783 13.7524H110.808V10.4121H112.074V17.3332C112.074 17.8959 112.088 18.4228 112.121 18.9016H110.995ZM110.808 15.4774C110.808 14.663 110.281 13.9683 109.476 13.9683C108.538 13.9683 107.965 14.8185 107.965 16.0154C107.965 17.1889 108.56 17.9922 109.45 17.9922C110.246 17.9922 110.808 17.2851 110.808 16.4473V15.4774ZM120.102 19.0336C118.44 19.0336 117.362 17.7639 117.362 16.0401C117.362 14.2435 118.463 12.9626 120.196 12.9626C121.836 12.9626 122.937 14.1719 122.937 15.9451C122.938 17.7639 121.802 19.0336 120.102 19.0336ZM120.149 13.9078C119.236 13.9078 118.651 14.7815 118.651 16.0031C118.651 17.2012 119.248 18.0748 120.137 18.0748C121.027 18.0748 121.624 17.1407 121.624 15.9784C121.626 14.7938 121.041 13.9078 120.149 13.9078ZM129.739 18.9016H128.473V15.5601C128.473 14.531 128.087 14.0152 127.325 14.0152C126.576 14.0152 126.061 14.6741 126.061 15.4404V18.9016H124.795V14.7457C124.795 14.2311 124.783 13.6796 124.748 13.0811H125.861L125.92 13.9794H125.955C126.294 13.3575 126.986 12.9614 127.758 12.9614C128.953 12.9614 129.739 13.8955 129.739 15.4157V18.9016ZM138.249 14.0522H136.858V16.8779C136.858 17.5973 137.101 17.9564 137.594 17.9564C137.817 17.9564 138.004 17.9317 138.155 17.8959L138.19 18.8781C137.945 18.9744 137.617 19.0225 137.209 19.0225C136.212 19.0225 135.616 18.4598 135.616 16.9865V14.0522H134.785V13.0823H135.616V12.0162L136.858 11.6325V13.0811H138.249V14.0522ZM144.945 18.9016H143.682V15.5848C143.682 14.5433 143.297 14.0164 142.534 14.0164C141.878 14.0164 141.268 14.4717 141.268 15.3935V18.9016H140.004V10.4121H141.268V13.9078H141.293C141.691 13.2736 142.268 12.9614 143.004 12.9614C144.209 12.9614 144.945 13.9189 144.945 15.4404V18.9016ZM151.805 16.3029H148.01C148.034 17.4048 148.747 18.0267 149.803 18.0267C150.364 18.0267 150.881 17.9305 151.337 17.7515L151.534 18.6498C150.996 18.8892 150.362 19.0089 149.625 19.0089C147.844 19.0089 146.791 17.8589 146.791 16.0759C146.791 14.2916 147.87 12.9503 149.482 12.9503C150.936 12.9503 151.849 14.0522 151.849 15.7168C151.857 15.9132 151.842 16.11 151.805 16.3029ZM150.646 15.3812C150.646 14.4829 150.203 13.8486 149.394 13.8486C148.667 13.8486 148.093 14.4952 148.011 15.3812H150.646Z" fill="white"/>
</svg>
