<svg width="24" height="24" viewBox="0 0 24 24" fill="none" xmlns="http://www.w3.org/2000/svg">
<path d="M20.21 7.81994L12.51 12.2799C12.2 12.4599 11.81 12.4599 11.49 12.2799L3.78997 7.81994C3.23997 7.49994 3.09997 6.74994 3.51997 6.27994C3.80997 5.94994 4.13997 5.67994 4.48997 5.48994L9.90997 2.48994C11.07 1.83994 12.95 1.83994 14.11 2.48994L19.53 5.48994C19.88 5.67994 20.21 5.95994 20.5 6.27994C20.9 6.74994 20.76 7.49994 20.21 7.81994Z" fill="white"/>
<path d="M11.43 14.14V20.96C11.43 21.72 10.66 22.22 9.97998 21.89C7.91998 20.88 4.44998 18.99 4.44998 18.99C3.22998 18.3 2.22998 16.56 2.22998 15.13V9.97C2.22998 9.18 3.05998 8.68 3.73998 9.07L10.93 13.24C11.23 13.43 11.43 13.77 11.43 14.14Z" fill="white"/>
<path d="M12.5699 14.14V20.96C12.5699 21.72 13.3399 22.22 14.0199 21.89C16.0799 20.88 19.5499 18.99 19.5499 18.99C20.7699 18.3 21.7699 16.56 21.7699 15.13V9.97C21.7699 9.18 20.9399 8.68 20.2599 9.07L13.0699 13.24C12.7699 13.43 12.5699 13.77 12.5699 14.14Z" fill="white"/>
</svg>
