<svg width="20" height="20" viewBox="0 0 20 20" fill="none" xmlns="http://www.w3.org/2000/svg">
<rect x="20" y="20" width="20" height="20" rx="10" transform="rotate(180 20 20)" fill="black"/>
<path d="M11.0697 9.01409C11.0697 9.60504 10.5906 10.0841 9.99969 10.0841C9.40874 10.0841 8.92969 9.60504 8.92969 9.01409C8.92969 8.42315 9.40874 7.94409 9.99969 7.94409C10.5906 7.94409 11.0697 8.42315 11.0697 9.01409Z" stroke="white" stroke-width="1.5"/>
<path d="M14.1555 8.12397L14.1555 8.12401C14.7335 10.6772 13.157 12.9257 11.5792 14.4408L11.5778 14.4421C10.6968 15.2925 9.30161 15.2944 8.41278 14.4412C6.84079 12.926 5.26393 10.6719 5.84177 8.11854C6.32456 5.99708 8.12477 4.91548 10.0004 4.91675C11.8762 4.91802 13.6753 6.00229 14.1555 8.12397Z" stroke="white" stroke-width="1.5"/>
</svg>
