<svg width="109" height="109" viewBox="0 0 109 109" fill="none" xmlns="http://www.w3.org/2000/svg">
<path d="M95.6926 23.7528C88.3805 23.0262 81.0684 22.4812 73.7109 22.0724V22.027L72.7117 16.1228C72.0305 11.9445 71.0313 5.677 60.4038 5.677H48.5046C37.9226 5.677 36.9234 11.672 36.1967 16.0774L35.243 21.8908C31.0192 22.1633 26.7955 22.4358 22.5717 22.8445L13.3067 23.7528C11.3992 23.9345 10.0367 25.6149 10.2184 27.477C10.4001 29.3391 12.0351 30.7016 13.9426 30.5199L23.2076 29.6116C47.0059 27.2499 70.9859 28.1583 95.0567 30.5653C95.193 30.5653 95.2838 30.5653 95.4201 30.5653C97.1459 30.5653 98.6446 29.2483 98.8263 27.477C98.9626 25.6149 97.6001 23.9345 95.6926 23.7528Z" fill="#00162E" fill-opacity="0.1"/>
<path d="M87.3362 36.9692C86.2462 35.8338 84.7474 35.198 83.2033 35.198H25.7966C24.2524 35.198 22.7083 35.8338 21.6637 36.9692C20.6191 38.1047 20.0287 39.6488 20.1195 41.2384L22.9353 87.8359C23.4349 94.7392 24.0708 103.368 39.9212 103.368H69.0787C84.9291 103.368 85.5649 94.7847 86.0645 87.8359L88.8803 41.2838C88.9712 39.6488 88.3808 38.1047 87.3362 36.9692ZM62.0391 80.6147H46.9153C45.0533 80.6147 43.5091 79.0705 43.5091 77.2084C43.5091 75.3463 45.0533 73.8022 46.9153 73.8022H62.0391C63.9012 73.8022 65.4453 75.3463 65.4453 77.2084C65.4453 79.0705 63.9012 80.6147 62.0391 80.6147ZM65.8541 62.448H43.1458C41.2837 62.448 39.7395 60.9038 39.7395 59.0417C39.7395 57.1797 41.2837 55.6355 43.1458 55.6355H65.8541C67.7162 55.6355 69.2603 57.1797 69.2603 59.0417C69.2603 60.9038 67.7162 62.448 65.8541 62.448Z" fill="#00162E" fill-opacity="0.1"/>
</svg>
