<svg width="81" height="81" viewBox="0 0 81 81" fill="none" xmlns="http://www.w3.org/2000/svg">
<path d="M70.875 22.7137C70.8075 22.7137 70.7062 22.7137 70.605 22.7137C52.7512 20.925 34.9312 20.25 17.28 22.0387L10.395 22.7137C8.97749 22.8487 7.72874 21.8362 7.59374 20.4187C7.45874 19.0012 8.47124 17.7862 9.85499 17.6512L16.74 16.9762C34.695 15.1537 52.8862 15.8625 71.1112 17.6512C72.495 17.7862 73.5075 19.035 73.3725 20.4187C73.2712 21.735 72.1575 22.7137 70.875 22.7137Z" fill="#2E8EFF"/>
<path d="M28.6875 19.305C28.5525 19.305 28.4175 19.305 28.2488 19.2713C26.8988 19.035 25.9538 17.7187 26.19 16.3687L26.9325 11.9475C27.4725 8.7075 28.215 4.21875 36.0788 4.21875H44.9213C52.8188 4.21875 53.5613 8.87625 54.0675 11.9812L54.81 16.3687C55.0463 17.7525 54.1013 19.0688 52.7513 19.2713C51.3675 19.5075 50.0513 18.5625 49.8488 17.2125L49.1063 12.825C48.6338 9.88875 48.5325 9.315 44.955 9.315H36.1125C32.535 9.315 32.4675 9.7875 31.9613 12.7912L31.185 17.1788C30.9825 18.4275 29.9025 19.305 28.6875 19.305Z" fill="#2E8EFF"/>
<path d="M51.3338 76.7813H29.6663C17.8875 76.7813 17.415 70.2675 17.0438 65.0025L14.85 31.0163C14.7488 29.6325 15.8288 28.4175 17.2125 28.3163C18.63 28.2488 19.8113 29.295 19.9125 30.6788L22.1063 64.665C22.4775 69.795 22.6125 71.7188 29.6663 71.7188H51.3338C58.4213 71.7188 58.5563 69.795 58.8938 64.665L61.0875 30.6788C61.1888 29.295 62.4038 28.2488 63.7875 28.3163C65.1713 28.4175 66.2513 29.5988 66.15 31.0163L63.9563 65.0025C63.585 70.2675 63.1125 76.7813 51.3338 76.7813Z" fill="#2E8EFF"/>
<path d="M46.1025 58.2188H34.8638C33.48 58.2188 32.3325 57.0712 32.3325 55.6875C32.3325 54.3038 33.48 53.1562 34.8638 53.1562H46.1025C47.4863 53.1562 48.6338 54.3038 48.6338 55.6875C48.6338 57.0712 47.4863 58.2188 46.1025 58.2188Z" fill="#2E8EFF"/>
<path d="M48.9375 44.7188H32.0625C30.6788 44.7188 29.5312 43.5712 29.5312 42.1875C29.5312 40.8038 30.6788 39.6562 32.0625 39.6562H48.9375C50.3212 39.6562 51.4688 40.8038 51.4688 42.1875C51.4688 43.5712 50.3212 44.7188 48.9375 44.7188Z" fill="#2E8EFF"/>
</svg>
