<svg width="53" height="81" viewBox="0 0 53 81" fill="none" xmlns="http://www.w3.org/2000/svg">
<path d="M2.875 28.6875V25.3125C2.875 19.0468 5.36406 13.0376 9.7946 8.6071C14.2251 4.17656 20.2343 1.6875 26.5 1.6875C32.7657 1.6875 38.7748 4.17656 43.2054 8.6071C47.6359 13.0376 50.125 19.0468 50.125 25.3125C50.1244 29.634 48.4079 33.7784 45.3528 36.8347L37.2055 44.982C35.9514 46.2357 34.9566 47.7242 34.2779 49.3624C33.5992 51.0007 33.2499 52.7566 33.25 54.5299V55.6875H19.75V51.732C19.75 45.6232 22.18 39.7609 26.5 35.4375L30.8639 31.0736C31.6204 30.3171 32.2205 29.4189 32.6299 28.4304C33.0393 27.4419 33.25 26.3824 33.25 25.3125C33.25 23.5223 32.5388 21.8054 31.273 20.5395C30.0071 19.2737 28.2902 18.5625 26.5 18.5625C24.7098 18.5625 22.9929 19.2737 21.727 20.5395C20.4612 21.8054 19.75 23.5223 19.75 25.3125V28.6875H2.875ZM26.5 65.8125C28.2902 65.8125 30.0071 66.5237 31.273 67.7895C32.5388 69.0554 33.25 70.7723 33.25 72.5625C33.25 74.3527 32.5388 76.0696 31.273 77.3355C30.0071 78.6013 28.2902 79.3125 26.5 79.3125C24.7098 79.3125 22.9929 78.6013 21.727 77.3355C20.4612 76.0696 19.75 74.3527 19.75 72.5625C19.75 70.7723 20.4612 69.0554 21.727 67.7895C22.9929 66.5237 24.7098 65.8125 26.5 65.8125Z" stroke="#2E8EFF" stroke-width="4"/>
</svg>
