<svg width="30" height="30" viewBox="0 0 30 30" fill="none" xmlns="http://www.w3.org/2000/svg">
<g clip-path="url(#clip0_202_7889)">
<mask id="mask0_202_7889" style="mask-type:luminance" maskUnits="userSpaceOnUse" x="0" y="0" width="30" height="30">
<path d="M30 0.318359H0V29.6801H30V0.318359Z" fill="white"/>
</mask>
<g mask="url(#mask0_202_7889)">
<mask id="mask1_202_7889" style="mask-type:luminance" maskUnits="userSpaceOnUse" x="0" y="0" width="30" height="30">
<path d="M30 0.318359H0V29.6801H30V0.318359Z" fill="white"/>
</mask>
<g mask="url(#mask1_202_7889)">
<path d="M2.68587 3.77313C2.68587 3.2926 3.09082 2.90287 3.59026 2.90287H15.7481C16.2475 2.90287 16.6525 3.29258 16.6525 3.77313V18.4467C16.6525 18.4682 16.6516 18.4894 16.6501 18.5106L18.5206 19.6607L19.3383 18.8657V0.964579C19.3383 0.607746 19.0378 0.318359 18.6669 0.318359H0.671465C0.300748 0.318359 0 0.607752 0 0.964579V21.2556C0 21.6127 0.300759 21.9018 0.671465 21.9018H11.6995L10.0687 19.3171H3.59048C3.09105 19.3171 2.68608 18.9274 2.68608 18.4467L2.68587 3.77313Z" fill="white"/>
<path d="M13.2923 16.4454L11.9749 15.6354C10.8578 14.9484 9.61027 15.526 9.18401 16.4736H6.41102C5.91158 16.4736 5.50684 16.084 5.50684 15.6033V14.7591C5.50684 14.2784 5.91158 13.8887 6.41102 13.8887H13.0629C13.5624 13.8887 13.9673 14.2784 13.9673 14.7591V15.6033C13.9673 16.0077 13.6808 16.3478 13.2923 16.4454Z" fill="white"/>
<path d="M6.41102 9.75195C5.91158 9.75195 5.50684 10.1416 5.50684 10.6222V11.4666C5.50684 11.9471 5.91158 12.3369 6.41102 12.3369H13.0629C13.5624 12.3369 13.9673 11.9471 13.9673 11.4666V10.6222C13.9673 10.1417 13.5624 9.75195 13.0629 9.75195H6.41102Z" fill="white"/>
<path d="M6.41102 5.74609C5.91158 5.74609 5.50684 6.13561 5.50684 6.61634V7.46055C5.50684 7.94125 5.91158 8.3308 6.41102 8.3308H13.0629C13.5624 8.3308 13.9673 7.94131 13.9673 7.46055V6.61634C13.9673 6.13563 13.5624 5.74609 13.0629 5.74609H6.41102Z" fill="white"/>
<path fill-rule="evenodd" clip-rule="evenodd" d="M29.8343 11.1378C29.9138 11.0605 30.0425 11.1554 29.9856 11.2493L18.8591 29.6334C18.8223 29.694 18.7317 29.6947 18.6938 29.6349L10.8662 17.2279C10.8133 17.1441 10.9144 17.0492 11.0002 17.1019L18.712 21.8439C18.7503 21.8673 18.8004 21.8619 18.8321 21.8309L29.8343 11.1378Z" fill="white"/>
</g>
</g>
</g>
<defs>
<clipPath id="clip0_202_7889">
<rect width="30" height="30" fill="white"/>
</clipPath>
</defs>
</svg>
