<svg width="36" height="46" viewBox="0 0 36 46" fill="none" xmlns="http://www.w3.org/2000/svg">
<path d="M35.4892 8.7757C35.4892 8.74221 35.4838 8.71417 35.4779 8.68068C35.4725 8.64719 35.4666 8.6137 35.4612 8.58021C35.4557 8.54672 35.4445 8.51324 35.4332 8.4743C35.4219 8.4521 35.411 8.42406 35.3997 8.39602C35.3884 8.36254 35.3716 8.3236 35.3494 8.28426C35.344 8.27297 35.3327 8.25623 35.3214 8.24532C35.2992 8.20054 35.2712 8.1616 35.2431 8.12266L28.9857 0.413157C28.8798 0.278807 28.7458 0.178342 28.606 0.111371C28.6006 0.105919 28.5947 0.105919 28.5893 0.105919C28.5223 0.07243 28.4499 0.0502341 28.377 0.0334894C28.3716 0.0280377 28.3603 0.0280377 28.349 0.0280377C28.2766 0.0112931 28.2096 0.00584112 28.1368 0.00584112C28.1313 0.00584112 28.1255 0.000389408 28.12 0.000389408L1.16231 0C0.548207 0 0.0458984 0.50234 0.0458984 1.11641V44.8836C0.0458984 45.5031 0.548237 46 1.16231 46H34.3785C34.9926 46 35.4949 45.5031 35.4949 44.8836L35.4953 8.82631C35.4953 8.80956 35.4894 8.79282 35.4894 8.77607L35.4892 8.7757ZM12.7015 27.0865L20.7793 8.07788C21.025 7.50857 21.6781 7.2461 22.2474 7.48598C22.8113 7.72585 23.0792 8.38473 22.8393 8.95409L14.756 27.9627C14.5773 28.3871 14.1641 28.6437 13.7287 28.6437C13.5835 28.6437 13.4386 28.6157 13.2934 28.5546C12.7295 28.3089 12.4612 27.6554 12.7015 27.0862L12.7015 27.0865ZM5.82916 17.2333L10.2673 12.7951C10.7026 12.3598 11.4117 12.3598 11.8471 12.7951C12.2825 13.2305 12.2825 13.9396 11.8471 14.375L8.19606 18.0202L11.8471 21.6654C12.2825 22.1008 12.2825 22.8098 11.8471 23.2453C11.6295 23.4629 11.3448 23.5689 11.0543 23.5689C10.7696 23.5689 10.485 23.4629 10.2673 23.2453L5.82919 18.8071C5.62281 18.6008 5.5056 18.3157 5.5056 18.0201C5.5056 17.7242 5.62281 17.4395 5.82919 17.2332L5.82916 17.2333ZM17.1677 41.942H13.8909V38.6652H10.614V41.942H7.33714V38.6652H4.06028V35.3883H7.33714V38.6652H10.614V35.3883H13.8909V38.6652H17.1677V35.3883H20.4446V38.6652H17.1677V41.942ZM25.1673 41.942H20.4446L25.1673 35.3883C26.9761 35.3883 28.4442 36.8564 28.4442 38.6652C28.4442 40.4739 26.976 41.942 25.1673 41.942ZM29.7117 18.8083L25.2736 23.2465C25.0559 23.4641 24.7712 23.5759 24.4866 23.5759C24.1965 23.5759 23.9114 23.4641 23.6938 23.2465C23.2584 22.8111 23.2584 22.102 23.6938 21.6666L27.339 18.0214L23.6938 14.3762C23.2584 13.9408 23.2584 13.2318 23.6938 12.7963C24.135 12.361 24.8382 12.361 25.2736 12.7963L29.7117 17.2345C30.1471 17.6694 30.1471 18.3727 29.7117 18.8084L29.7117 18.8083Z" fill="white"/>
</svg>
