<svg width="47" height="46" viewBox="0 0 47 46" fill="none" xmlns="http://www.w3.org/2000/svg">
<path d="M41.0655 19.2399V17.8239C41.0655 8.00855 33.0569 0 23.2416 0C13.4262 0 5.41766 8.00855 5.41766 17.8239V19.2399C2.29237 20.412 0.0458984 23.4395 0.0458984 26.9554C0.0458984 31.4967 3.75709 35.2082 8.2987 35.2082H11.2775C12.0589 35.2082 12.6935 34.5733 12.6935 33.7923V20.1191C12.6935 19.3377 12.0585 18.7032 11.2775 18.7032H9.91018V17.8244C9.91018 10.4507 15.8678 4.49304 23.2415 4.49304C30.6152 4.49304 36.5728 10.4506 36.5728 17.8244V18.7032H35.2055C34.4241 18.7032 33.7895 19.3381 33.7895 20.1191V33.7923C33.7895 34.5737 34.4244 35.2082 35.2055 35.2082H35.8404C34.4244 38.48 31.2992 40.7752 27.5876 41.0681C27.3924 40.1402 26.562 39.4079 25.5366 39.4079H20.8976C19.7256 39.4079 18.798 40.3358 18.798 41.5075V43.9004C18.798 45.0724 19.7259 46 20.8976 46H25.5366C26.5623 46 27.4411 45.2677 27.5876 44.242C33.1058 43.9491 37.696 40.1889 39.2586 35.1103C43.2631 34.5731 46.3884 31.1059 46.3884 26.9553C46.4371 23.3909 44.1906 20.4121 41.0653 19.24L41.0655 19.2399Z" fill="white"/>
<path d="M20.5075 18.7515C20.5075 17.9701 20.8494 17.1887 21.484 16.6519C22.1189 16.1147 22.9 15.9195 23.7305 16.066C24.8048 16.2612 25.7327 17.1403 25.8792 18.2147C26.1722 19.7775 25.1469 20.9493 24.0235 21.2913C22.4607 21.7797 21.4354 23.2444 21.4354 24.9537V26.4674C21.4354 27.444 22.2168 28.2254 23.1933 28.2254C24.1699 28.2254 24.9513 27.444 24.9513 26.4674V24.9537C24.9513 24.8072 25.0491 24.6608 25.0978 24.6608C28.0766 23.6842 29.8833 20.7054 29.3461 17.5801C28.9067 15.0407 26.8558 12.9898 24.3164 12.5503C22.4606 12.2084 20.6052 12.6968 19.1889 13.9177C17.7729 15.0897 16.9424 16.8478 16.9424 18.7032C16.9424 19.6797 17.7238 20.4612 18.7004 20.4612C19.726 20.5095 20.5075 19.728 20.5075 18.7515Z" fill="white"/>
<path d="M25.1461 31.6434C25.1461 32.6952 24.2935 33.5478 23.2416 33.5478C22.1897 33.5478 21.3372 32.6952 21.3372 31.6434C21.3372 30.5915 22.1897 29.7389 23.2416 29.7389C24.2935 29.7389 25.1461 30.5915 25.1461 31.6434Z" fill="white"/>
</svg>
