<svg width="59" height="46" viewBox="0 0 59 46" fill="none" xmlns="http://www.w3.org/2000/svg">
<path d="M55.6911 12.9435H49.284V3.35472C49.284 1.50451 47.7795 0 45.9365 0H6.96894C5.11873 0 3.61422 1.50451 3.61422 3.35472V30.6451C3.61422 32.4953 5.11873 33.9998 6.96894 33.9998H34.8783V34.7197H2.70671C1.21666 34.7197 0 35.9291 0 37.4191C0 38.9092 1.21666 40.1185 2.70671 40.1185H34.8783V43.207C34.8783 44.726 36.0876 45.9571 37.5921 45.9928C37.6138 46 37.6427 46 37.664 46H55.6894C57.23 46 58.4824 44.7472 58.4824 43.207L58.4829 15.7292C58.4829 14.1886 57.2306 12.943 55.6898 12.943L55.6911 12.9435ZM28.9179 38.1397H23.9796V36.6999H28.9179V38.1397ZM34.8786 15.7294V29.5076H7.75371V4.48379H45.1443V12.9422H37.6648C36.1314 12.9422 34.8786 14.1878 34.8786 15.7284V15.7294ZM57.0436 43.2072C57.0436 43.9561 56.4317 44.5607 55.6901 44.5607H37.6647C36.923 44.5607 36.3183 43.956 36.3183 43.2072V15.7294C36.3183 14.9878 36.923 14.3831 37.6647 14.3831H55.6901C56.4317 14.3831 57.0436 14.9878 57.0436 15.7294V43.2072Z" fill="white"/>
</svg>
