<svg width="30" height="20" viewBox="0 0 30 20" fill="none" xmlns="http://www.w3.org/2000/svg">
<g clip-path="url(#clip0_7011_7183)">
<path d="M0 0H30V20H0V0Z" fill="white"/>
<path d="M0 0H30V1.53801H0V0ZM0 3.07602H30V4.61404H0V3.07602ZM0 6.15205H30V7.69006H0V6.15205ZM0 9.22807H30V10.7661H0V9.22807ZM0 12.3099H30V13.848H0V12.3099ZM0 15.386H30V16.924H0V15.386ZM0 18.462H30V20H0V18.462Z" fill="#D80027"/>
<path d="M0 0H15V10.7661H0V0Z" fill="#2E52B2"/>
<path d="M2.79441 8.1227L2.56049 7.37416L2.30318 8.1227H1.53125L2.15698 8.57299L1.92306 9.32153L2.56049 8.85954L3.18037 9.32153L2.94061 8.57299L3.57803 8.1227H2.79441ZM6.08681 8.1227L5.84704 7.37416L5.60143 8.1227H4.8295L5.45523 8.57299L5.22131 9.32153L5.84704 8.85954L6.47862 9.32153L6.2447 8.57299L6.87043 8.1227H6.08681ZM9.3909 8.1227L9.13944 7.37416L8.90552 8.1227H8.11605L8.75932 8.57299L8.51371 9.32153L9.13944 8.85954L9.78271 9.32153L9.5371 8.57299L10.1628 8.1227H9.3909ZM12.6774 8.1227L12.4435 7.37416L12.1979 8.1227H11.4201L12.0517 8.57299L11.8178 9.32153L12.4435 8.85954L13.0751 9.32153L12.8236 8.57299L13.4669 8.1227H12.6774ZM5.84704 4.4034L5.60143 5.15194H4.8295L5.45523 5.61393L5.22131 6.35077L5.84704 5.89463L6.47862 6.35077L6.2447 5.61393L6.87043 5.15194H6.08681L5.84704 4.4034ZM2.56049 4.4034L2.30318 5.15194H1.53125L2.15698 5.61393L1.92306 6.35077L2.56049 5.89463L3.18037 6.35077L2.94061 5.61393L3.57803 5.15194H2.79441L2.56049 4.4034ZM9.13944 4.4034L8.90552 5.15194H8.11605L8.75932 5.61393L8.51371 6.35077L9.13944 5.89463L9.78271 6.35077L9.5371 5.61393L10.1628 5.15194H9.3909L9.13944 4.4034ZM12.4435 4.4034L12.1979 5.15194H11.4201L12.0517 5.61393L11.8178 6.35077L12.4435 5.89463L13.0751 6.35077L12.8236 5.61393L13.4669 5.15194H12.6774L12.4435 4.4034ZM2.56049 1.44434L2.30318 2.18118H1.53125L2.15698 2.64317L1.92306 3.38586L2.56049 2.92387L3.18037 3.38586L2.94061 2.64317L3.57803 2.18118H2.79441L2.56049 1.44434ZM5.84704 1.44434L5.60143 2.18118H4.8295L5.45523 2.64317L5.22131 3.38586L5.84704 2.92387L6.47862 3.38586L6.2447 2.64317L6.87043 2.18118H6.08681L5.84704 1.44434ZM9.13944 1.44434L8.90552 2.18118H8.11605L8.75932 2.64317L8.51371 3.38586L9.13944 2.92387L9.78271 3.38586L9.5371 2.64317L10.1628 2.18118H9.3909L9.13944 1.44434ZM12.4435 1.44434L12.1979 2.18118H11.4201L12.0517 2.64317L11.8178 3.38586L12.4435 2.92387L13.0751 3.38586L12.8236 2.64317L13.4669 2.18118H12.6774L12.4435 1.44434Z" fill="white"/>
</g>
<defs>
<clipPath id="clip0_7011_7183">
<rect width="30" height="20" fill="white"/>
</clipPath>
</defs>
</svg>
