<svg width="142" height="36" viewBox="0 0 142 36" fill="none" xmlns="http://www.w3.org/2000/svg">
<path d="M130.953 22.9497H122.384C121.176 22.9497 120.197 21.9759 120.197 20.7747C120.197 19.5735 121.176 18.5997 122.384 18.5997H122.05C123.258 18.5997 124.237 17.6259 124.237 16.4247C124.237 15.2235 123.258 14.2498 122.05 14.2498H104.374C103.166 14.2498 102.941 15.2235 102.941 16.4247C102.941 17.6259 105.429 18.5997 106.636 18.5997H106.274C105.067 18.5997 110.12 19.5735 110.12 20.7747C110.12 21.9759 111.099 22.9497 112.307 22.9497H112.669C111.461 22.9497 110.482 23.9235 110.482 25.1247C110.482 26.3259 111.461 27.2997 112.669 27.2997C111.461 27.2997 110.482 28.2735 110.482 29.4747C110.482 30.6759 111.461 31.6497 112.669 31.6497H103.984C102.776 31.6497 101.797 32.6234 101.797 33.8246C101.797 35.0258 102.776 35.9996 103.984 35.9996H120.879C122.087 35.9996 123.066 35.0258 123.066 33.8246C123.066 32.6234 122.087 31.6497 120.879 31.6497H116.591C115.383 31.6497 114.404 30.6759 114.404 29.4747C114.404 28.2735 115.383 27.2997 116.591 27.2997H130.953C132.161 27.2997 133.14 26.3259 133.14 25.1247C133.14 23.9235 132.161 22.9497 130.953 22.9497Z" fill="white"/>
<path d="M129.925 31.6497H128.667C127.46 31.6497 126.48 32.6234 126.48 33.8246C126.48 35.0258 127.46 35.9996 128.667 35.9996H129.925C131.133 35.9996 132.112 35.0258 132.112 33.8246C132.112 32.6238 131.133 31.6497 129.925 31.6497Z" fill="white"/>
<path d="M139.812 22.9495H138.554C137.346 22.9495 136.367 23.9232 136.367 25.1244C136.367 26.3257 137.346 27.2994 138.554 27.2994H139.812C141.02 27.2994 141.999 26.3257 141.999 25.1244C141.999 23.9232 141.02 22.9495 139.812 22.9495Z" fill="white"/>
<path d="M14.654 19.6298V35.6756H8.29939V19.6298H3.76953V14.575H19.1839V19.6298H14.654Z" fill="#199675"/>
<path d="M31.9731 35.6756L30.7406 31.5173H24.8822L23.5697 35.6756H18.1274L24.8822 14.575H31.9731L38.8079 35.6756H31.9731ZM26.0187 26.9107H29.5721L27.7954 20.7892L26.0187 26.9107Z" fill="#199675"/>
<path d="M59.5204 14.575L53.1818 24.3755L60.5288 35.6756H52.7336L48.7 29.0439L44.6343 35.6756H38.4878L45.5307 24.7465L38.7759 14.575H46.5871L49.9805 20.2482L53.5019 14.575H59.5204Z" fill="#199675"/>
<path d="M68.6922 14.575V35.6756H61.9854V14.575H68.6922Z" fill="#199675"/>
<path d="M72.5195 35.6748V14.5741H80.971C84.6418 14.5741 87.3896 15.6253 89.2144 17.7276C91.0391 19.83 91.9515 22.2621 91.9515 25.024C91.9515 28.1775 90.9698 30.7435 89.0063 32.7222C87.0535 34.6906 84.5138 35.6748 81.3872 35.6748H72.5195ZM79.2263 30.8208H80.971C82.0808 30.8208 83.0145 30.3004 83.7722 29.2595C84.5405 28.2187 84.9246 26.8017 84.9246 25.0085C84.9246 23.473 84.5831 22.1487 83.9002 21.0357C83.2279 19.9227 82.2515 19.3662 80.971 19.3662H79.2263V30.8208Z" fill="white"/>
<path d="M104.245 35.9994C101.171 35.9994 98.6636 35.0152 96.7215 33.0468C94.79 31.0785 93.8243 28.4454 93.8243 25.1476C93.8243 21.9941 94.7473 19.392 96.5934 17.3412C98.4502 15.2801 101.022 14.2495 104.309 14.2495C107.35 14.2495 109.826 15.2182 111.736 17.1557C113.656 19.0931 114.617 21.6798 114.617 24.9158C114.617 28.2651 113.651 30.9497 111.72 32.9695C109.788 34.9894 107.296 35.9994 104.245 35.9994ZM104.213 31.2073C105.344 31.2073 106.155 30.7332 106.646 29.7851C107.147 28.8267 107.398 27.0799 107.398 24.5448C107.398 20.876 106.379 19.0416 104.341 19.0416C102.142 19.0416 101.043 21.1336 101.043 25.3177C101.043 29.2441 102.1 31.2073 104.213 31.2073Z" fill="white"/>
<mask id="mask0_7011_7164" style="mask-type:luminance" maskUnits="userSpaceOnUse" x="0" y="0" width="63" height="14">
<path d="M1.16274 13.7946L1.89499 10.1749L30.8608 9.28572L21.9917 8.08555C21.9917 8.08555 21.9314 6.43257 23.9443 5.4697C25.9573 4.50951 35.2734 2.40377 39.6476 1.94278C44.0219 1.48178 47.0934 1.48996 47.0934 1.48996L62.0837 6.98082C62.0837 6.98082 57.608 4.25586 54.1114 2.60287C50.612 0.952633 47.4581 0.047001 47.4581 0.047001C47.4581 0.047001 36.3512 -0.449445 27.4821 1.78456C18.613 4.01856 13.5696 6.99448 10.2321 7.62731C6.89726 8.26287 4.94461 8.28197 4.94461 8.28197L4.06978 7.20451L0 7.32728L0.814521 8.672L1.16274 13.7946Z" fill="white"/>
</mask>
<g mask="url(#mask0_7011_7164)">
<path fill-rule="evenodd" clip-rule="evenodd" d="M-0.23649 6.13306L-0.324219 6.14667L1.80119 17.8267L1.88892 17.8104" fill="white"/>
</g>
<path d="M1.16274 13.7946L1.89499 10.1749L30.8608 9.28572L21.9917 8.08555C21.9917 8.08555 21.9314 6.43257 23.9443 5.4697C25.9573 4.50951 35.2734 2.40377 39.6476 1.94278C44.0219 1.48178 47.0934 1.48996 47.0934 1.48996L62.0837 6.98082C62.0837 6.98082 57.608 4.25586 54.1114 2.60287C50.612 0.952633 47.4581 0.047001 47.4581 0.047001C47.4581 0.047001 36.3512 -0.449445 27.4821 1.78456C18.613 4.01856 13.5696 6.99448 10.2321 7.62731C6.89726 8.26287 4.94461 8.28197 4.94461 8.28197L4.06978 7.20451L0 7.32728L0.814521 8.672L1.16274 13.7946Z" fill="white"/>
<path fill-rule="evenodd" clip-rule="evenodd" d="M39.9336 9.20382C39.9336 9.20382 73.131 8.92289 80.4534 9.84213C87.7785 10.7641 89.5638 12.3336 90.3102 13.0759C90.8531 13.6159 92.5493 17.53 92.5493 17.53C92.5493 17.53 92.999 15.4324 92.5493 12.7047C91.4297 9.84213 87.8992 9.1248 81.0238 8.06644C74.1484 7.01076 44.0418 7.93275 39.9336 9.20382Z" fill="#199675"/>
</svg>
