<svg id="quotes-right" viewBox="0 0 38 28" xmlns="http://www.w3.org/2000/svg">
<path d="M7.25 18.0501C6.425 20.1251 5.125 22.1751 3.3875 24.1501C2.8375 24.7751 2.7625 25.6751 3.2125 26.3751C3.5625 26.9251 4.1375 27.2251 4.7625 27.2251C4.9375 27.2251 5.1125 27.2126 5.2875 27.1501C8.9625 26.0751 17.55 22.2626 17.7875 10.0376C17.875 5.32506 14.425 1.27506 9.9375 0.812557C7.45 0.562557 4.975 1.37506 3.1375 3.02506C2.2287 3.84924 1.50234 4.8544 1.00506 5.97596C0.507785 7.09752 0.250591 8.3107 0.25 9.53756C0.25 13.6626 3.175 17.2751 7.25 18.0501ZM29.8875 0.812557C27.4125 0.562557 24.9375 1.37506 23.1 3.02506C22.1911 3.84919 21.4647 4.85434 20.9675 5.97591C20.4702 7.09749 20.213 8.31068 20.2125 9.53756C20.2125 13.6626 23.1375 17.2751 27.2125 18.0501C26.3875 20.1251 25.0875 22.1751 23.35 24.1501C22.8 24.7751 22.725 25.6751 23.175 26.3751C23.525 26.9251 24.1 27.2251 24.725 27.2251C24.9 27.2251 25.075 27.2126 25.25 27.1501C28.925 26.0751 37.5125 22.2626 37.75 10.0376V9.86256C37.75 5.22506 34.3375 1.27506 29.8875 0.812557Z"/>
</svg>
