<svg id="star" viewBox="0 0 18 18" xmlns="http://www.w3.org/2000/svg">
<path d="M10.2967 2.64075L11.6167 5.30227C11.7967 5.67277 12.2767 6.02814 12.6817 6.09619L15.0742 6.49693C16.6042 6.75401 16.9642 7.87306 15.8617 8.97699L14.0017 10.8522C13.6867 11.1697 13.5142 11.7822 13.6117 12.2207L14.1442 14.542C14.5642 16.3794 13.5967 17.0901 11.9842 16.1298L9.7417 14.7915C9.3367 14.5496 8.6692 14.5496 8.2567 14.7915L6.0142 16.1298C4.4092 17.0901 3.4342 16.3718 3.8542 14.542L4.3867 12.2207C4.4842 11.7822 4.3117 11.1697 3.9967 10.8522L2.1367 8.97699C1.0417 7.87306 1.3942 6.75401 2.9242 6.49693L5.3167 6.09619C5.7142 6.02814 6.1942 5.67277 6.3742 5.30227L7.6942 2.64075C8.4142 1.19657 9.5842 1.19657 10.2967 2.64075Z"/>
</svg>
