<svg width="28" height="28" viewBox="0 0 28 28" fill="none" xmlns="http://www.w3.org/2000/svg">
<path d="M19.8759 0H8.13805C3.03951 0 0 3.038 0 8.134V19.852C0 24.962 3.03951 28 8.13805 28H19.8619C24.9604 28 28 24.962 28 19.866V8.134C28.014 3.038 24.9744 0 19.8759 0ZM7.88593 22.61C7.88593 23.184 7.40969 23.66 6.83541 23.66C6.26112 23.66 5.78488 23.184 5.78488 22.61V19.712C5.78488 19.138 6.26112 18.662 6.83541 18.662C7.40969 18.662 7.88593 19.138 7.88593 19.712V22.61ZM15.0575 22.61C15.0575 23.184 14.5813 23.66 14.007 23.66C13.4327 23.66 12.9565 23.184 12.9565 22.61V16.8C12.9565 16.226 13.4327 15.75 14.007 15.75C14.5813 15.75 15.0575 16.226 15.0575 16.8V22.61ZM22.2291 22.61C22.2291 23.184 21.7528 23.66 21.1786 23.66C20.6043 23.66 20.128 23.184 20.128 22.61V13.902C20.128 13.328 20.6043 12.852 21.1786 12.852C21.7528 12.852 22.2291 13.328 22.2291 13.902V22.61ZM22.2291 9.478C22.2291 10.052 21.7528 10.528 21.1786 10.528C20.6043 10.528 20.128 10.052 20.128 9.478V8.12C16.5563 11.788 12.088 14.378 7.08753 15.624C7.00349 15.652 6.91945 15.652 6.83541 15.652C6.35917 15.652 5.93896 15.33 5.8129 14.854C5.67283 14.294 6.00899 13.72 6.58328 13.58C11.3036 12.404 15.5057 9.926 18.8394 6.426H17.0885C16.5142 6.426 16.038 5.95 16.038 5.376C16.038 4.802 16.5142 4.326 17.0885 4.326H21.1926C21.2486 4.326 21.2906 4.354 21.3466 4.354C21.4167 4.368 21.4867 4.368 21.5567 4.396C21.6268 4.424 21.6828 4.466 21.7528 4.508C21.7949 4.536 21.8369 4.55 21.8789 4.578C21.8929 4.592 21.8929 4.606 21.9069 4.606C21.9629 4.662 22.005 4.718 22.047 4.774C22.089 4.83 22.131 4.872 22.145 4.928C22.173 4.984 22.173 5.04 22.1871 5.11C22.2011 5.18 22.2291 5.25 22.2291 5.334C22.2291 5.348 22.2431 5.362 22.2431 5.376V9.478H22.2291Z" fill="white"/>
</svg>
