<svg width="28" height="28" viewBox="0 0 28 28" fill="none" xmlns="http://www.w3.org/2000/svg">
<path fill-rule="evenodd" clip-rule="evenodd" d="M14.8236 2.6752C14.3681 2.21959 13.6293 2.21959 13.1737 2.6752L9.67374 6.1752C9.21813 6.63082 9.21813 7.36951 9.67374 7.82512L13.1737 11.3251C13.6293 11.7807 14.3681 11.7807 14.8236 11.3251L18.3236 7.82512C18.7792 7.36951 18.7792 6.63082 18.3236 6.1752L14.8236 2.6752ZM13.1737 16.6752C13.6293 16.2196 14.3681 16.2196 14.8236 16.6752L18.3236 20.1752C18.7792 20.6308 18.7792 21.3695 18.3236 21.8251L14.8236 25.3251C14.3681 25.7807 13.6293 25.7807 13.1737 25.3251L9.67374 21.8251C9.21813 21.3695 9.21813 20.6308 9.67374 20.1752L13.1737 16.6752ZM20.1737 9.6752C20.6293 9.21959 21.3681 9.21959 21.8236 9.6752L25.3236 13.1752C25.7792 13.6308 25.7792 14.3695 25.3236 14.8251L21.8236 18.3251C21.3681 18.7807 20.6293 18.7807 20.1737 18.3251L16.6737 14.8251C16.2182 14.3695 16.2182 13.6308 16.6737 13.1752L20.1737 9.6752ZM6.17374 9.6752C6.62935 9.21959 7.36804 9.21959 7.82366 9.6752L11.3237 13.1752C11.7792 13.6308 11.7792 14.3695 11.3237 14.8251L7.82366 18.3251C7.36804 18.7807 6.62935 18.7807 6.17374 18.3251L2.67374 14.8251C2.21813 14.3695 2.21813 13.6308 2.67374 13.1752L6.17374 9.6752Z" fill="white"/>
</svg>
