<svg width="30" height="37" viewBox="0 0 30 37" fill="none" xmlns="http://www.w3.org/2000/svg">
<g clip-path="url(#clip0_200_7851)">
<path d="M18.649 28.0694V35.928L11.3629 33.8344L11.3626 27.4964C12.4967 28.6312 13.3078 29.3519 13.4284 29.4541L15.2913 31.0483L17.1606 29.4541C17.2552 29.3746 17.8257 28.881 18.6489 28.0697L18.649 28.0694ZM0.90834 20.1656C0.361089 20.3247 -0.00601976 20.785 0.00228844 21.3004V34.7134C-0.0233176 35.0952 0.167241 35.4627 0.509638 35.6914C0.851744 35.9201 1.29953 35.9791 1.7003 35.8484L8.6701 33.8569V24.4883C7.23235 22.7666 5.96032 20.9388 4.86824 19.0238L0.90834 20.1656ZM28.6988 20.4264H24.897C23.8411 22.0819 22.6532 23.6671 21.3428 25.1698L21.3425 36.3132H28.6986C29.406 36.2977 29.9696 35.778 29.9657 35.1445V21.5943C29.9696 20.9608 29.4063 20.4406 28.6986 20.4251L28.6988 20.4264ZM25.8096 9.41882C25.8096 18.713 15.2917 27.7069 15.2917 27.7069C15.2917 27.7066 4.77386 18.7247 4.77386 9.41882C4.77386 6.05329 6.77857 2.9441 10.0328 1.26184C13.2872 -0.420614 17.2966 -0.420614 20.5507 1.26184C23.8047 2.9441 25.8094 6.0536 25.8094 9.41882H25.8096ZM19.8411 9.92386V9.9236C19.8398 8.84345 19.359 7.80809 18.5051 7.04549C17.6512 6.28234 16.4941 5.85445 15.288 5.85573C14.0816 5.85655 12.9251 6.28633 12.0733 7.05056C11.2208 7.81526 10.7424 8.85118 10.743 9.93159C10.7433 11.0117 11.2229 12.0476 12.0759 12.811C12.9292 13.5744 14.086 14.0037 15.2921 14.0037C16.5001 14.0037 17.658 13.5739 18.5113 12.8084C19.3643 12.0434 19.8431 11.0056 19.8413 9.92386H19.8411Z" fill="white"/>
</g>
<defs>
<clipPath id="clip0_200_7851">
<rect width="30" height="36.3481" fill="white"/>
</clipPath>
</defs>
</svg>
