<svg width="39" height="38" viewBox="0 0 39 38" fill="none" xmlns="http://www.w3.org/2000/svg">
<g clip-path="url(#clip0_200_7872)">
<path d="M15.5455 27.637C15.0874 27.637 14.6482 27.4548 14.3244 27.131C14.0002 26.8071 13.8184 26.3679 13.8184 25.9096V1.72914C13.8184 1.11209 14.1477 0.541879 14.6821 0.23335C15.2164 -0.0751792 15.8748 -0.0751792 16.4092 0.23335C16.9435 0.541879 17.2729 1.11208 17.2729 1.72914V25.9096C17.2729 26.3679 17.0907 26.8071 16.7669 27.131C16.443 27.4548 16.0037 27.637 15.5455 27.637Z" fill="white"/>
<path d="M24.1822 27.637C23.7242 27.637 23.2847 27.4548 22.9608 27.131C22.637 26.8071 22.4551 26.3679 22.4551 25.9096V1.72914C22.4551 1.11209 22.7841 0.541879 23.3185 0.23335C23.8528 -0.0751792 24.5115 -0.0751792 25.0459 0.23335C25.5803 0.541879 25.9093 1.11208 25.9093 1.72914V25.9096C25.9093 26.3679 25.7274 26.8071 25.4036 27.131C25.0797 27.4548 24.6402 27.637 24.1822 27.637Z" fill="white"/>
<path d="M13.9221 15.5449H12.955C10.1782 15.5449 7.61225 14.0635 6.22401 11.6587C4.83548 9.2541 4.83548 6.29109 6.22401 3.88622C7.61225 1.48165 10.1782 0 12.955 0H31.0907C31.7077 0 32.2779 0.329345 32.5865 0.863704C32.895 1.39806 32.895 2.05644 32.5865 2.59081C32.2779 3.12517 31.7077 3.45452 31.0907 3.45452H12.955C11.4123 3.45452 9.98677 4.27744 9.21559 5.61363C8.44412 6.94953 8.44412 8.59566 9.21559 9.93156C9.98677 11.2674 11.4123 12.0907 12.955 12.0907H13.9221C14.5392 12.0907 15.1094 12.4197 15.4179 12.9541C15.7265 13.4884 15.7265 14.1471 15.4179 14.6815C15.1094 15.2159 14.5392 15.5449 13.9221 15.5449Z" fill="white"/>
<path d="M31.0907 38.0007C30.6318 38.0033 30.1906 37.8231 29.8644 37.4996C29.5374 37.1754 29.3535 36.7339 29.3535 36.2733C29.3535 35.8129 29.5374 35.3714 29.8644 35.047L33.8371 31.0916L29.8644 27.1363C29.4264 26.6982 29.2552 26.0598 29.4157 25.4612C29.5762 24.8627 30.0434 24.3954 30.642 24.2349C31.2405 24.0745 31.879 24.2456 32.317 24.6837L37.4987 29.8653C37.8257 30.1898 38.0096 30.6313 38.0096 31.0916C38.0096 31.5522 37.8257 31.9938 37.4987 32.3179L32.317 37.4995C31.9912 37.8231 31.5499 38.0033 31.0907 38.0007Z" fill="white"/>
<path d="M36.2719 32.8178H1.72816C1.11111 32.8178 0.540903 32.4885 0.232374 31.9541C-0.0761559 31.4197 -0.0761559 30.7614 0.232374 30.227C0.540903 29.6926 1.1111 29.3633 1.72816 29.3633H36.2719C36.8889 29.3633 37.4591 29.6926 37.7677 30.227C38.0762 30.7614 38.0762 31.4197 37.7677 31.9541C37.4591 32.4885 36.889 32.8178 36.2719 32.8178Z" fill="white"/>
</g>
<defs>
<clipPath id="clip0_200_7872">
<rect width="39" height="38" fill="white"/>
</clipPath>
</defs>
</svg>
