<svg width="30" height="33" viewBox="0 0 30 33" fill="none" xmlns="http://www.w3.org/2000/svg">
<g clip-path="url(#clip0_200_7863)">
<path d="M29.2812 22.6237L26.7156 21.2285L15.5804 27.3067H15.5801C15.1947 27.5294 14.7201 27.5294 14.3345 27.3067L3.24911 21.2285L0.68349 22.6237C0.418529 22.7666 0.214464 23.0007 0.108536 23.2826C0.00288399 23.5642 0.00288399 23.8751 0.108536 24.1567C0.214464 24.4386 0.418536 24.6727 0.68349 24.8156L14.3846 32.2889C14.5739 32.3984 14.7885 32.456 15.0073 32.456C15.2259 32.456 15.4408 32.3984 15.6301 32.2889L29.3312 24.8156C29.5959 24.6727 29.8002 24.4386 29.9058 24.1567C30.0115 23.875 30.0115 23.5642 29.9058 23.2826C29.8002 23.0007 29.5959 22.7666 29.3312 22.6237H29.2812Z" fill="white"/>
<path d="M0.683488 9.86751L14.3846 17.3408C14.5739 17.4504 14.7886 17.5079 15.0073 17.5079C15.2258 17.5079 15.4408 17.4504 15.6301 17.3408L29.3312 9.86751C29.5958 9.72461 29.8002 9.49048 29.9058 9.20857C30.0115 8.92694 30.0115 8.6161 29.9058 8.33446C29.8002 8.05256 29.5958 7.81848 29.3312 7.67558L15.6301 0.202253C15.4408 0.0927079 15.2258 0.0351562 15.0073 0.0351562C14.7886 0.0351562 14.5739 0.0927074 14.3846 0.202253L0.683488 7.67558C0.418529 7.81848 0.214464 8.05256 0.108535 8.33446C0.00288409 8.6161 0.00288409 8.92694 0.108535 9.20857C0.214464 9.49048 0.418536 9.72461 0.683488 9.86751Z" fill="white"/>
<path d="M29.2811 15.1491L26.7154 13.7539L15.5802 19.8321H15.5799C15.1946 20.0548 14.72 20.0548 14.3344 19.8321L5.85251 15.1738L3.24911 13.7539L0.68349 15.1491C0.418528 15.292 0.214464 15.5261 0.108535 15.808C0.00288409 16.0896 0.00288409 16.4005 0.108535 16.6821C0.214464 16.964 0.418535 17.1981 0.68349 17.341L14.3846 24.8143C14.5739 24.9238 14.7885 24.9814 15.0073 24.9814C15.2259 24.9814 15.4408 24.9238 15.6301 24.8143L29.3312 17.341C29.5959 17.1981 29.8002 16.964 29.9058 16.6821C30.0115 16.4004 30.0115 16.0896 29.9058 15.808C29.8002 15.5261 29.5959 15.292 29.3312 15.1491H29.2811Z" fill="white"/>
</g>
<defs>
<clipPath id="clip0_200_7863">
<rect width="30" height="32.4555" fill="white"/>
</clipPath>
</defs>
</svg>
