<svg width="20" height="20" viewBox="0 0 20 20" fill="none" xmlns="http://www.w3.org/2000/svg">
<g clip-path="url(#clip0_4807_6489)">
<path d="M1.72537 3.83438C2.39204 0.951042 6.73371 0.951042 7.39204 3.83438C7.78371 5.52604 6.70871 6.95938 5.77537 7.85104C5.09204 8.50104 4.01704 8.49271 3.33371 7.85104C2.40871 6.95938 1.33371 5.52604 1.72537 3.83438Z" stroke="#1F1F1F" stroke-width="1.2"/>
<path d="M12.5583 13.8324C13.225 10.9491 17.5917 10.9491 18.2583 13.8324C18.65 15.5241 17.575 16.9574 16.6333 17.8491C15.95 18.4991 14.8667 18.4908 14.1833 17.8491C13.2417 16.9574 12.1667 15.5241 12.5583 13.8324Z" stroke="#1F1F1F" stroke-width="1.2"/>
<path d="M10.0004 4.16797H12.2337C13.7754 4.16797 14.4921 6.0763 13.3337 7.09297L6.6754 12.918C5.51707 13.9263 6.23373 15.8346 7.76707 15.8346H10.0004" stroke="#1F1F1F" stroke-width="1.2" stroke-linecap="round" stroke-linejoin="round"/>
<path d="M4.57209 4.58464H4.58172" stroke="#1F1F1F" stroke-width="1.2" stroke-linecap="round" stroke-linejoin="round"/>
<path d="M15.4051 14.5846H15.4147" stroke="#1F1F1F" stroke-width="1.2" stroke-linecap="round" stroke-linejoin="round"/>
</g>
<defs>
<clipPath id="clip0_4807_6489">
<rect width="20" height="20" fill="white"/>
</clipPath>
</defs>
</svg>
