<svg width="20" height="20" viewBox="0 0 20 20" fill="none" xmlns="http://www.w3.org/2000/svg">
<g clip-path="url(#clip0_4807_6567)">
<path d="M12.5001 1.66699V10.0003C12.5001 10.917 11.7501 11.667 10.8334 11.667H1.66675V5.00033C1.66675 3.15866 3.15841 1.66699 5.00008 1.66699H12.5001Z" stroke="#1F1F1F" stroke-width="1.2" stroke-linecap="round" stroke-linejoin="round"/>
<path d="M18.3334 11.667V14.167C18.3334 15.5503 17.2167 16.667 15.8334 16.667H15.0001C15.0001 15.7503 14.2501 15.0003 13.3334 15.0003C12.4167 15.0003 11.6667 15.7503 11.6667 16.667H8.33341C8.33341 15.7503 7.58341 15.0003 6.66675 15.0003C5.75008 15.0003 5.00008 15.7503 5.00008 16.667H4.16675C2.78341 16.667 1.66675 15.5503 1.66675 14.167V11.667H10.8334C11.7501 11.667 12.5001 10.917 12.5001 10.0003V4.16699H14.0334C14.6334 4.16699 15.1834 4.492 15.4834 5.00867L16.9084 7.50033H15.8334C15.3751 7.50033 15.0001 7.87533 15.0001 8.33366V10.8337C15.0001 11.292 15.3751 11.667 15.8334 11.667H18.3334Z" stroke="#1F1F1F" stroke-width="1.2" stroke-linecap="round" stroke-linejoin="round"/>
<path d="M6.66667 18.3333C7.58714 18.3333 8.33333 17.5871 8.33333 16.6667C8.33333 15.7462 7.58714 15 6.66667 15C5.74619 15 5 15.7462 5 16.6667C5 17.5871 5.74619 18.3333 6.66667 18.3333Z" stroke="#1F1F1F" stroke-width="1.2" stroke-linecap="round" stroke-linejoin="round"/>
<path d="M13.3334 18.3333C14.2539 18.3333 15.0001 17.5871 15.0001 16.6667C15.0001 15.7462 14.2539 15 13.3334 15C12.4129 15 11.6667 15.7462 11.6667 16.6667C11.6667 17.5871 12.4129 18.3333 13.3334 18.3333Z" stroke="#1F1F1F" stroke-width="1.2" stroke-linecap="round" stroke-linejoin="round"/>
<path d="M18.3333 10V11.6667H15.8333C15.375 11.6667 15 11.2917 15 10.8333V8.33333C15 7.875 15.375 7.5 15.8333 7.5H16.9083L18.3333 10Z" stroke="#1F1F1F" stroke-width="1.2" stroke-linecap="round" stroke-linejoin="round"/>
</g>
<defs>
<clipPath id="clip0_4807_6567">
<rect width="20" height="20" fill="white"/>
</clipPath>
</defs>
</svg>
