<svg width="64" height="28" viewBox="0 0 64 28" fill="none" xmlns="http://www.w3.org/2000/svg">
<ellipse cx="31.5" cy="26.5" rx="31.5" ry="1.5" fill="#D9D9D9"/>
<path d="M44.3685 20.1641H2.76953V21.3633H44.3685V20.1641Z" fill="#476B9E"/>
<path d="M29.5697 22.8196H18.3079C17.9567 22.8196 17.6719 22.5348 17.6719 22.1836V19.4786C17.6719 19.1273 17.9567 18.8425 18.3079 18.8425H29.5697C29.921 18.8425 30.2058 19.1273 30.2058 19.4786V22.1836C30.2058 22.535 29.921 22.8196 29.5697 22.8196Z" fill="#162E4C"/>
<path d="M17.6734 21.9518H16.8717C16.4669 21.9518 16.1377 21.6226 16.1377 21.2178V20.4641H16.3099V21.2178C16.3099 21.5275 16.562 21.7796 16.8717 21.7796H17.6734V21.9518Z" fill="#162E4C"/>
<path d="M30.207 21.9793V21.8071C30.452 21.8071 30.6514 21.6078 30.6514 21.3627V20.4641H30.8236V21.3627C30.8236 21.7026 30.5469 21.9793 30.207 21.9793Z" fill="#162E4C"/>
<path d="M45.2388 20.4641H1.6667C1.30339 20.4641 1.00879 20.1694 1.00879 19.8061V0.845165C1.00879 0.481858 1.30339 0.187256 1.6667 0.187256H45.2388C45.6022 0.187256 45.8968 0.481858 45.8968 0.845165V19.8063C45.8968 20.1695 45.6022 20.4641 45.2388 20.4641Z" fill="#2F4A7F"/>
<path d="M45.3911 17.7251H1.57629V17.8973H45.3911V17.7251Z" fill="#486C9E"/>
<path d="M1.66059 0.753906H1.4884V17.8109H1.66059V0.753906Z" fill="#486C9E"/>
<path d="M2.81195 0.753906H2.63977V17.8109H2.81195V0.753906Z" fill="#486C9E"/>
<path d="M3.96625 0.753906H3.79407V17.8109H3.96625V0.753906Z" fill="#486C9E"/>
<path d="M5.11859 0.753906H4.94641V17.8109H5.11859V0.753906Z" fill="#486C9E"/>
<path d="M6.27118 0.753906H6.099V17.8109H6.27118V0.753906Z" fill="#486C9E"/>
<path d="M7.42621 0.753906H7.25403V17.8109H7.42621V0.753906Z" fill="#486C9E"/>
<path d="M8.57856 0.753906H8.40637V17.8109H8.57856V0.753906Z" fill="#486C9E"/>
<path d="M9.73102 0.753906H9.55884V17.8109H9.73102V0.753906Z" fill="#486C9E"/>
<path d="M10.8843 0.753906H10.7122V17.8109H10.8843V0.753906Z" fill="#486C9E"/>
<path d="M12.0366 0.753906H11.8644V17.8109H12.0366V0.753906Z" fill="#486C9E"/>
<path d="M13.191 0.753906H13.0188V17.8109H13.191V0.753906Z" fill="#486C9E"/>
<path d="M14.3442 0.753906H14.172V17.8109H14.3442V0.753906Z" fill="#486C9E"/>
<path d="M15.4955 0.753906H15.3234V17.8109H15.4955V0.753906Z" fill="#486C9E"/>
<path d="M16.6498 0.753906H16.4777V17.8109H16.6498V0.753906Z" fill="#486C9E"/>
<path d="M17.8022 0.753906H17.63V17.8109H17.8022V0.753906Z" fill="#486C9E"/>
<path d="M18.9547 0.753906H18.7825V17.8109H18.9547V0.753906Z" fill="#486C9E"/>
<path d="M20.108 0.753906H19.9358V17.8109H20.108V0.753906Z" fill="#486C9E"/>
<path d="M21.2612 0.753906H21.089V17.8109H21.2612V0.753906Z" fill="#486C9E"/>
<path d="M22.4146 0.753906H22.2424V17.8109H22.4146V0.753906Z" fill="#486C9E"/>
<path d="M23.5678 0.753906H23.3956V17.8109H23.5678V0.753906Z" fill="#486C9E"/>
<path d="M24.7194 0.753906H24.5472V17.8109H24.7194V0.753906Z" fill="#486C9E"/>
<path d="M25.8735 0.753906H25.7013V17.8109H25.8735V0.753906Z" fill="#486C9E"/>
<path d="M27.0278 0.753906H26.8556V17.8109H27.0278V0.753906Z" fill="#486C9E"/>
<path d="M28.1783 0.753906H28.0061V17.8109H28.1783V0.753906Z" fill="#486C9E"/>
<path d="M29.3333 0.753906H29.1611V17.8109H29.3333V0.753906Z" fill="#486C9E"/>
<path d="M30.4848 0.753906H30.3126V17.8109H30.4848V0.753906Z" fill="#486C9E"/>
<path d="M31.6392 0.753906H31.467V17.8109H31.6392V0.753906Z" fill="#486C9E"/>
<path d="M32.7914 0.753906H32.6193V17.8109H32.7914V0.753906Z" fill="#486C9E"/>
<path d="M33.9438 0.753906H33.7716V17.8109H33.9438V0.753906Z" fill="#486C9E"/>
<path d="M35.0981 0.753906H34.9259V17.8109H35.0981V0.753906Z" fill="#486C9E"/>
<path d="M36.2514 0.753906H36.0792V17.8109H36.2514V0.753906Z" fill="#486C9E"/>
<path d="M37.4038 0.753906H37.2316V17.8109H37.4038V0.753906Z" fill="#486C9E"/>
<path d="M38.5569 0.753906H38.3848V17.8109H38.5569V0.753906Z" fill="#486C9E"/>
<path d="M39.7084 0.753906H39.5363V17.8109H39.7084V0.753906Z" fill="#486C9E"/>
<path d="M40.8629 0.753906H40.6907V17.8109H40.8629V0.753906Z" fill="#486C9E"/>
<path d="M42.0161 0.753906H41.8439V17.8109H42.0161V0.753906Z" fill="#486C9E"/>
<path d="M43.1684 0.753906H42.9962V17.8109H43.1684V0.753906Z" fill="#486C9E"/>
<path d="M44.3217 0.753906H44.1495V17.8109H44.3217V0.753906Z" fill="#486C9E"/>
<path d="M45.475 0.753906H45.3029V17.8109H45.475V0.753906Z" fill="#486C9E"/>
<path d="M44.2451 0.667725H2.71594V0.839908H44.2451V0.667725Z" fill="#486C9E"/>
<path d="M44.2451 19.8616H2.71594V20.0338H44.2451V19.8616Z" fill="#486C9E"/>
<path d="M1.66071 1.896H1.48853V18.8082H1.66071V1.896Z" fill="#486C9E"/>
<path d="M45.475 1.896H45.3029V18.8082H45.475V1.896Z" fill="#486C9E"/>
<path d="M0.908569 0.653625V1.89627H1.57647V0.844404C1.57647 0.794643 1.6171 0.754009 1.66686 0.754009H2.71873V0.0859375H1.47608C1.16306 0.0861097 0.908569 0.340596 0.908569 0.653625Z" fill="#EFAC37"/>
<path d="M1.66264 1.98234H0.822388V0.653605C0.822388 0.293226 1.11562 0 1.47599 0H2.8049V0.840081H1.66695L1.66264 1.98234ZM0.994571 1.81016H1.49046V0.844558C1.49046 0.747275 1.56966 0.668071 1.66677 0.668071H2.63255V0.172357H1.47582C1.21032 0.172357 0.994399 0.388272 0.994399 0.653779L0.994571 1.81016Z" fill="#EEAC42"/>
<path d="M45.4907 0.0861816H44.248V0.754253H45.2999C45.3498 0.754253 45.3903 0.794887 45.3903 0.844648V1.89652H46.0582V0.653869C46.0582 0.340668 45.8036 0.0861816 45.4907 0.0861816Z" fill="#EFAC37"/>
<path d="M46.1443 1.98242H45.3043V0.844629L44.162 0.840325V0.000244141H45.4907C45.8511 0.000244141 46.1443 0.29347 46.1443 0.65385V1.98242ZM45.4764 1.81023H45.9721V0.653676C45.9721 0.38817 45.7562 0.172254 45.4907 0.172254H44.3342V0.667969H45.2998C45.3971 0.667969 45.4763 0.747172 45.4763 0.844455L45.4764 1.81023Z" fill="#EEAC42"/>
<path d="M1.57635 19.8605V18.8086H0.908447V20.0512C0.908447 20.3643 1.16311 20.6188 1.47596 20.6188H2.71861V19.9509H1.66674C1.61698 19.9509 1.57635 19.9102 1.57635 19.8605Z" fill="#EFAC37"/>
<path d="M2.80381 20.7048H1.4749C1.11452 20.7048 0.821289 20.4115 0.821289 20.0511V18.7224H1.66154V19.8604C1.66154 19.8626 1.66361 19.8647 1.66568 19.8647H2.80363L2.80381 20.7048ZM0.993644 18.8946V20.0511C0.993644 20.3167 1.20956 20.5326 1.47507 20.5326H2.63179V20.0367H1.66602C1.56874 20.0367 1.4897 19.9575 1.4897 19.8602V18.8944H0.993644V18.8946Z" fill="#EEAC42"/>
<path d="M45.3903 19.8602C45.3903 19.91 45.3498 19.9506 45.2999 19.9506H44.248V20.6185H45.4907C45.8036 20.6185 46.0582 20.3638 46.0582 20.051V18.8083H45.3903V19.8602Z" fill="#EFAC37"/>
<path d="M45.4907 20.7047H44.162V19.8644L45.3043 19.8601V18.7222H46.1443V20.0509C46.1443 20.4115 45.8509 20.7047 45.4907 20.7047ZM44.3342 20.5325H45.4907C45.7562 20.5325 45.9721 20.3166 45.9721 20.0511V18.8945H45.4764V19.8603C45.4764 19.9576 45.3972 20.0368 45.2999 20.0368H44.3343V20.5325H44.3342Z" fill="#EEAC42"/>
<path d="M3.11233 19.2856H1.9043V19.609H3.11233V19.2856Z" fill="#E8615B"/>
<path d="M4.49319 19.2856H3.28516V19.609H4.49319V19.2856Z" fill="#E8615B"/>
<path d="M3.28483 19.2856H3.1123V19.609H3.28483V19.2856Z" fill="white"/>
<path d="M13.2481 19.2856H12.04V19.609H13.2481V19.2856Z" fill="#E8615B"/>
<path d="M14.6288 19.2856H13.4208V19.609H14.6288V19.2856Z" fill="#E8615B"/>
<path d="M13.4216 19.2856H13.249V19.609H13.4216V19.2856Z" fill="white"/>
<path d="M23.3838 19.2856H22.1758V19.609H23.3838V19.2856Z" fill="#E8615B"/>
<path d="M24.7657 19.2856H23.5576V19.609H24.7657V19.2856Z" fill="#E8615B"/>
<path d="M23.5573 19.2856H23.3848V19.609H23.5573V19.2856Z" fill="white"/>
<path d="M33.5168 19.2856H32.3087V19.609H33.5168V19.2856Z" fill="#E8615B"/>
<path d="M34.8976 19.2856H33.6896V19.609H34.8976V19.2856Z" fill="#E8615B"/>
<path d="M33.6902 19.2856H33.5177V19.609H33.6902V19.2856Z" fill="white"/>
<path d="M43.6486 19.2856H42.4406V19.609H43.6486V19.2856Z" fill="#E8615B"/>
<path d="M45.0284 19.2856H43.8203V19.609H45.0284V19.2856Z" fill="#E8615B"/>
<path d="M43.8221 19.2856H43.6495V19.609H43.8221V19.2856Z" fill="white"/>
<path d="M60.5053 10.3618H54.5257C54.1538 10.3618 53.8523 10.6633 53.8523 11.0352V14.0889C53.8523 14.4608 54.1538 14.7623 54.5257 14.7623H58.4947C58.6733 14.7623 58.8446 14.8332 58.971 14.9596L59.3668 15.3555C59.4932 15.4819 59.6643 15.5528 59.8431 15.5528H61.423C61.8583 15.5528 62.1792 15.1463 62.0782 14.7229L61.1604 10.8789C61.0879 10.5757 60.8169 10.3618 60.5053 10.3618Z" fill="white"/>
<path d="M55.8369 9.7334L58.5509 15.7934H60.5628L57.8487 9.7334H55.8369Z" fill="#D9EBFF"/>
<path d="M59.476 9.7334H58.9355L61.6497 15.7934H62.19L59.476 9.7334Z" fill="#D9EBFF"/>
<path d="M62.9019 14.2865L61.5765 9.23915C61.2621 8.05367 60.4089 7.55072 59.1156 7.50578L47.9175 7.11613C47.5487 7.10322 47.2429 7.39868 47.2429 7.76767V24.2012H62.6542V18.5028H63.0044V15.081C63.0044 14.8129 62.97 14.5458 62.9019 14.2865ZM61.4238 15.5528H59.8438C59.6652 15.5528 59.4939 15.4818 59.3675 15.3554L58.9717 14.9596C58.8455 14.8332 58.6742 14.7623 58.4954 14.7623H54.5264C54.1545 14.7623 53.853 14.4608 53.853 14.0889V11.0352C53.853 10.6633 54.1545 10.3618 54.5264 10.3618H60.506C60.8177 10.3618 61.0887 10.5756 61.1612 10.8788L62.0789 14.7228C62.18 15.1462 61.859 15.5528 61.4238 15.5528Z" fill="#EFAC37"/>
<path d="M47.2436 8.55103H45.8965V19.0554H47.2436V8.55103Z" fill="#162E4C"/>
<path d="M61.4246 16.0207H59.8445C59.5396 16.0207 59.2531 15.9019 59.0375 15.6865L58.6416 15.2906C58.6029 15.2517 58.5512 15.2303 58.4961 15.2303H54.527C53.8978 15.2303 53.3857 14.7184 53.3857 14.0891V11.0354C53.3857 10.4061 53.8978 9.89404 54.527 9.89404H60.5065C61.0369 9.89404 61.4933 10.2544 61.6164 10.7703L62.5342 14.6143C62.616 14.9562 62.5378 15.3106 62.32 15.5864C62.1025 15.8624 61.7761 16.0207 61.4246 16.0207ZM54.5271 10.0664C53.9927 10.0664 53.5581 10.5012 53.5581 11.0356V14.0893C53.5581 14.6236 53.9927 15.0583 54.5271 15.0583H58.4963C58.5972 15.0583 58.6921 15.0976 58.7635 15.169L59.1594 15.5649C59.3426 15.7479 59.5859 15.8487 59.8447 15.8487H61.4248C61.7232 15.8487 62.0006 15.7143 62.1853 15.48C62.3703 15.2458 62.4365 14.9449 62.3673 14.6546L61.4496 10.8106C61.3451 10.3725 60.9575 10.0666 60.5071 10.0666L54.5271 10.0664Z" fill="#CE7602"/>
<path d="M56.146 10.3618H55.531V14.7625H56.146V10.3618Z" fill="#162E4C"/>
<path d="M48.9861 7.15363V6.55168C48.9861 6.33473 49.1619 6.15894 49.3788 6.15894H56.6686C57.3907 6.15894 57.9759 6.74436 57.9759 7.46632L48.9861 7.15363Z" fill="#EFAC37"/>
<path d="M48.9911 7.0684L48.9851 7.24048L57.9751 7.55352L57.9811 7.38144L48.9911 7.0684Z" fill="#CE7602"/>
<path d="M62.8118 24.2013H59.1337V20.3669H62.8118C62.9628 20.3669 63.0853 20.4894 63.0853 20.6404V23.9277C63.0853 24.0789 62.9628 24.2013 62.8118 24.2013Z" fill="#162E4C"/>
<path d="M62.6548 18.417H58.0701V18.5892H62.6548V18.417Z" fill="#CE7602"/>
<path d="M48.0042 7.11646H47.832V24.2017H48.0042V7.11646Z" fill="#CE7602"/>
<path d="M62.3419 19.8773C62.2797 19.8773 62.2292 19.8268 62.2292 19.7646V19.168C62.2292 19.1059 62.2797 19.0554 62.3419 19.0554C62.404 19.0554 62.4545 19.1059 62.4545 19.168V19.7646C62.4545 19.8268 62.404 19.8773 62.3419 19.8773Z" fill="white"/>
<path d="M50.8326 6.33325H49.7683V6.50544H50.8326V6.33325Z" fill="#CE7602"/>
<path d="M50.8326 6.58569H49.7683V6.75788H50.8326V6.58569Z" fill="#CE7602"/>
<path d="M50.8326 6.83838H49.7683V7.01056H50.8326V6.83838Z" fill="#CE7602"/>
<path d="M52.839 11.5332H47.9178V11.7054H52.839V11.5332Z" fill="#CE7602"/>
<path d="M52.839 13.4192H47.9178V13.5914H52.839V13.4192Z" fill="#CE7602"/>
<path d="M61.6355 9.37793H47.9178V9.55011H61.6355V9.37793Z" fill="#CE7602"/>
<path d="M52.3632 18.5676H49.2323C48.9222 18.5676 48.6699 18.3153 48.6699 18.0052V16.3963C48.6699 16.0862 48.9222 15.834 49.2323 15.834H52.3632C52.6733 15.834 52.9256 16.0862 52.9256 16.3963V18.0052C52.9254 18.3153 52.6732 18.5676 52.3632 18.5676ZM49.2323 16.0063C49.0172 16.0063 48.8421 16.1814 48.8421 16.3965V18.0054C48.8421 18.2204 49.0172 18.3956 49.2323 18.3956H52.3632C52.5783 18.3956 52.7534 18.2204 52.7534 18.0054V16.3965C52.7534 16.1814 52.5783 16.0063 52.3632 16.0063H49.2323Z" fill="#CE7602"/>
<path d="M49.1804 18.3389C49.027 18.3389 48.9023 18.214 48.9023 18.0608C48.9023 17.9074 49.0272 17.7827 49.1804 17.7827C49.3337 17.7827 49.4585 17.9075 49.4585 18.0608C49.4585 18.2142 49.3338 18.3389 49.1804 18.3389ZM49.1804 17.9549C49.122 17.9549 49.0745 18.0024 49.0745 18.0608C49.0745 18.1192 49.122 18.1667 49.1804 18.1667C49.2388 18.1667 49.2863 18.1192 49.2863 18.0608C49.2863 18.0024 49.2388 17.9549 49.1804 17.9549Z" fill="#CE7602"/>
<path d="M56.8658 18.2347H56.6874C56.6235 18.2347 56.5715 18.1829 56.5715 18.1188V17.5849C56.5715 17.521 56.6234 17.469 56.6874 17.469H56.8658C56.9298 17.469 56.9817 17.5208 56.9817 17.5849V18.1188C56.9817 18.1829 56.9297 18.2347 56.8658 18.2347Z" fill="#162E4C"/>
<path d="M56.8862 18.5891H56.6662C56.4366 18.5891 56.25 18.4023 56.25 18.173V17.5309C56.25 17.3014 56.4366 17.1147 56.6662 17.1147H56.8862C57.1157 17.1147 57.3024 17.3014 57.3024 17.5309V18.173C57.3024 18.4025 57.1157 18.5891 56.8862 18.5891ZM56.6662 17.2869C56.5317 17.2869 56.4222 17.3964 56.4222 17.5309V18.173C56.4222 18.3075 56.5317 18.417 56.6662 18.417H56.8862C57.0207 18.417 57.1302 18.3075 57.1302 18.173V17.5309C57.1302 17.3964 57.0207 17.2869 56.8862 17.2869H56.6662Z" fill="#CE7602"/>
<path d="M56.6239 24.2014C56.679 23.9693 56.7091 23.7276 56.7091 23.4786C56.7091 21.748 55.3061 20.3452 53.5757 20.3452C51.8451 20.3452 50.4421 21.7482 50.4421 23.4786C50.4421 23.7276 50.4723 23.9693 50.5274 24.2014H56.6239Z" fill="#CE7602"/>
<path d="M57.3122 24.2193L57.1437 24.1842C57.1946 23.94 57.2205 23.6909 57.2205 23.4438C57.2205 21.4346 55.5857 19.7999 53.5765 19.7999C51.5673 19.7999 49.9326 21.4346 49.9326 23.4438C49.9326 23.686 49.9578 23.9309 50.007 24.1716L49.8383 24.206C49.7868 23.954 49.7606 23.6976 49.7606 23.4438C49.7606 21.3395 51.4725 19.6277 53.5767 19.6277C55.681 19.6277 57.3928 21.3395 57.3928 23.4438C57.3926 23.7026 57.3656 23.9634 57.3122 24.2193Z" fill="#CE7602"/>
<path d="M55.9249 15.144H55.7527V20.4776H55.9249V15.144Z" fill="#CE7602"/>
<path d="M55.5117 25.4811C56.582 24.4108 56.582 22.6756 55.5117 21.6053C54.4414 20.535 52.7062 20.535 51.6359 21.6053C50.5656 22.6756 50.5656 24.4108 51.6359 25.4811C52.7062 26.5514 54.4414 26.5514 55.5117 25.4811Z" fill="#162E4C"/>
<path d="M53.5769 26.3637L53.5706 26.3635C53.5699 26.3635 53.569 26.3635 53.5683 26.3635C53.4914 26.3635 53.4106 26.3601 53.3314 26.3534L53.345 26.1946C53.4206 26.2012 53.4976 26.2044 53.574 26.2044L53.5769 26.3637ZM53.8227 26.3528L53.8089 26.1941C53.8857 26.1874 53.9632 26.1772 54.0389 26.1638L54.0666 26.3206C53.9861 26.3351 53.9039 26.3458 53.8227 26.3528ZM53.0876 26.3218C53.0069 26.3077 52.9259 26.29 52.8472 26.2692L52.8884 26.1152C52.9624 26.135 53.0387 26.1517 53.1148 26.165L53.0876 26.3218ZM54.3065 26.2676L54.2652 26.1137C54.3397 26.0937 54.4141 26.0701 54.4864 26.0438L54.541 26.1934C54.4644 26.2215 54.3855 26.2464 54.3065 26.2676ZM52.6126 26.1956C52.5358 26.1679 52.4591 26.1362 52.3851 26.1016L52.4523 25.9572C52.5222 25.9897 52.5943 26.0195 52.6668 26.0458L52.6126 26.1956ZM54.7679 26.0992L54.7004 25.9549C54.7703 25.9222 54.8394 25.8861 54.906 25.8475L54.9859 25.9854C54.9153 26.0262 54.842 26.0646 54.7679 26.0992ZM52.1669 25.9882C52.0962 25.9474 52.0263 25.9029 51.9595 25.8561L52.0507 25.7256C52.1137 25.7697 52.1797 25.8115 52.2465 25.8502L52.1669 25.9882ZM55.1929 25.853L55.1015 25.7227C55.1643 25.6784 55.2263 25.6309 55.2854 25.5811L55.3878 25.703C55.3253 25.7557 55.2597 25.8062 55.1929 25.853ZM51.7642 25.7066C51.7014 25.654 51.6402 25.5982 51.5827 25.5407L51.6952 25.4279C51.7496 25.4821 51.8073 25.5348 51.8665 25.5844L51.7642 25.7066ZM55.5689 25.5369L55.4563 25.4241C55.5104 25.37 55.5633 25.3123 55.6132 25.2529L55.7351 25.3554C55.6822 25.4184 55.6264 25.4794 55.5689 25.5369ZM51.4162 25.3597C51.3635 25.2972 51.3131 25.2318 51.2661 25.165L51.3963 25.0732C51.4407 25.1362 51.4884 25.198 51.538 25.2571L51.4162 25.3597ZM55.8849 25.1605L55.7544 25.069C55.7988 25.0057 55.8408 24.9399 55.8794 24.8733L56.0173 24.953C55.9765 25.0236 55.9319 25.0933 55.8849 25.1605ZM51.1337 24.958C51.0925 24.887 51.0541 24.8139 51.0195 24.7402L51.1638 24.6725C51.1963 24.7419 51.2325 24.8111 51.2714 24.8779L51.1337 24.958ZM56.1309 24.7348L55.9865 24.6675C56.0192 24.5974 56.049 24.5253 56.0753 24.453L56.225 24.5076C56.1972 24.584 56.1656 24.6605 56.1309 24.7348ZM50.9248 24.5132C50.8967 24.4368 50.8716 24.3579 50.8504 24.2787L51.0044 24.2372C51.0245 24.312 51.0481 24.3863 51.0744 24.4583L50.9248 24.5132ZM56.299 24.2729L56.1451 24.2319C56.1649 24.1575 56.1816 24.0812 56.195 24.0053L56.352 24.0328C56.3377 24.1133 56.32 24.194 56.299 24.2729ZM50.7971 24.0387C50.7828 23.9585 50.7719 23.8763 50.7647 23.7949L50.9234 23.7809C50.9302 23.8577 50.9405 23.9352 50.9539 24.011L50.7971 24.0387ZM56.3837 23.789L56.225 23.7754C56.2315 23.6985 56.2349 23.6205 56.2349 23.5435V23.5318H56.3942V23.542C56.3942 23.6249 56.3906 23.7074 56.3837 23.789ZM50.7537 23.5492L50.7538 23.5402C50.7538 23.4634 50.7571 23.3829 50.7638 23.3038L50.9226 23.3173C50.9164 23.3918 50.9131 23.4679 50.9131 23.5435L50.7537 23.5492ZM56.2239 23.3002C56.2169 23.2231 56.2065 23.1458 56.1929 23.0703L56.3498 23.0421C56.3643 23.1222 56.3753 23.2041 56.3827 23.2857L56.2239 23.3002ZM50.952 23.0872L50.795 23.06C50.8089 22.9793 50.8267 22.8983 50.8475 22.8198L51.0016 22.8606C50.9818 22.9347 50.9651 23.0109 50.952 23.0872ZM56.1421 22.8439C56.1218 22.7694 56.0981 22.695 56.0715 22.623L56.221 22.5679C56.2491 22.6442 56.2744 22.7231 56.2959 22.8023L56.1421 22.8439ZM51.0705 22.6392L50.9207 22.585C50.9484 22.5082 50.9801 22.4315 51.0143 22.3575L51.1588 22.4245C51.1264 22.4946 51.0967 22.5667 51.0705 22.6392ZM55.9818 22.4092C55.9491 22.3398 55.9128 22.2707 55.8739 22.2039L56.0114 22.1235C56.0528 22.1943 56.0913 22.2675 56.126 22.3412L55.9818 22.4092ZM51.2657 22.2186L51.1276 22.1392C51.1683 22.0686 51.2127 21.9987 51.2595 21.9315L51.3902 22.0226C51.346 22.086 51.304 22.1519 51.2657 22.2186ZM55.7482 22.0088C55.7038 21.946 55.6561 21.8843 55.606 21.8253L55.7277 21.7223C55.7805 21.7848 55.8312 21.8503 55.8782 21.9167L55.7482 22.0088ZM51.5312 21.838L51.409 21.7359C51.4615 21.6732 51.5171 21.6121 51.5748 21.5543L51.6878 21.6667C51.6332 21.7213 51.5807 21.779 51.5312 21.838ZM55.4488 21.655C55.3938 21.6006 55.336 21.5479 55.2771 21.4987L55.3792 21.3762C55.4417 21.4284 55.5028 21.484 55.561 21.5417L55.4488 21.655ZM51.858 21.5093L51.7554 21.3876C51.8179 21.3347 51.8835 21.2841 51.95 21.2373L52.0418 21.3675C51.9789 21.4119 51.9171 21.4596 51.858 21.5093ZM55.0925 21.358C55.0291 21.3139 54.963 21.2721 54.8964 21.2338L54.9758 21.0957C55.0464 21.1364 55.1163 21.1806 55.1836 21.2273L55.0925 21.358ZM52.237 21.2421L52.157 21.1044C52.2274 21.0634 52.3007 21.0248 52.3746 20.99L52.4424 21.1341C52.3725 21.1672 52.3035 21.2035 52.237 21.2421ZM54.6903 21.1273C54.62 21.0947 54.5477 21.0651 54.4756 21.0391L54.5295 20.8891C54.6059 20.9167 54.6825 20.948 54.7571 20.9826L54.6903 21.1273ZM52.6563 21.0448L52.6014 20.8953C52.678 20.8671 52.7568 20.8421 52.8357 20.8208L52.8774 20.9745C52.8028 20.9947 52.7286 21.0183 52.6563 21.0448ZM54.2541 20.9702C54.1796 20.9506 54.1033 20.9341 54.0276 20.921L54.0544 20.764C54.1348 20.7777 54.2158 20.7953 54.2948 20.8161L54.2541 20.9702ZM53.1036 20.9239L53.0756 20.7671C53.1558 20.7528 53.2378 20.7417 53.3192 20.7345L53.3333 20.8933C53.2567 20.9 53.1792 20.9103 53.1036 20.9239ZM53.7972 20.8917C53.7233 20.8855 53.6482 20.8824 53.5738 20.8824H53.5651V20.7231H53.5738C53.6525 20.7231 53.7321 20.7264 53.8103 20.733L53.7972 20.8917Z" fill="#162E4C"/>
<path d="M53.5733 24.7096C54.2174 24.7096 54.7395 24.1875 54.7395 23.5434C54.7395 22.8993 54.2174 22.3772 53.5733 22.3772C52.9292 22.3772 52.4071 22.8993 52.4071 23.5434C52.4071 24.1875 52.9292 24.7096 53.5733 24.7096Z" fill="white"/>
<path d="M53.5732 24.6833C52.9447 24.6833 52.4333 24.1719 52.4333 23.5434C52.4333 22.9149 52.9447 22.4036 53.5732 22.4036C54.2017 22.4036 54.7131 22.9149 54.7131 23.5434C54.7132 24.1721 54.2018 24.6833 53.5732 24.6833ZM53.5732 22.5757C53.0396 22.5757 52.6055 23.0098 52.6055 23.5434C52.6055 24.077 53.0396 24.5111 53.5732 24.5111C54.1068 24.5111 54.5409 24.077 54.5409 23.5434C54.541 23.0098 54.1068 22.5757 53.5732 22.5757Z" fill="#486C9E"/>
<path d="M53.5736 26.2052C52.106 26.2052 50.9119 25.0111 50.9119 23.5434C50.9119 22.0757 52.106 20.8816 53.5736 20.8816C55.0413 20.8816 56.2354 22.0757 56.2354 23.5434C56.2354 25.0111 55.0415 26.2052 53.5736 26.2052ZM53.5736 21.0538C52.2008 21.0538 51.084 22.1706 51.084 23.5434C51.084 24.9162 52.2008 26.033 53.5736 26.033C54.9465 26.033 56.0632 24.9162 56.0632 23.5434C56.0632 22.1707 54.9465 21.0538 53.5736 21.0538Z" fill="#486C9E"/>
<path d="M53.8953 23.5435C53.8953 23.7208 53.7515 23.8648 53.574 23.8648C53.3966 23.8648 53.2527 23.721 53.2527 23.5435C53.2527 23.3659 53.3965 23.2222 53.574 23.2222C53.7515 23.2223 53.8953 23.3661 53.8953 23.5435Z" fill="#162E4C"/>
<path d="M53.5741 22.9921C53.6567 22.9921 53.7237 22.9251 53.7237 22.8425C53.7237 22.7599 53.6567 22.6929 53.5741 22.6929C53.4914 22.6929 53.4244 22.7599 53.4244 22.8425C53.4244 22.9251 53.4914 22.9921 53.5741 22.9921Z" fill="#476B9E"/>
<path d="M53.5741 24.3945C53.6567 24.3945 53.7237 24.3275 53.7237 24.2448C53.7237 24.1622 53.6567 24.0952 53.5741 24.0952C53.4914 24.0952 53.4244 24.1622 53.4244 24.2448C53.4244 24.3275 53.4914 24.3945 53.5741 24.3945Z" fill="#476B9E"/>
<path d="M54.2744 23.6933C54.1917 23.6933 54.1248 23.6263 54.1248 23.5437C54.1248 23.461 54.1917 23.394 54.2744 23.394C54.357 23.394 54.424 23.461 54.424 23.5437C54.424 23.6263 54.357 23.6933 54.2744 23.6933Z" fill="#476B9E"/>
<path d="M52.873 23.6933C52.7904 23.6933 52.7234 23.6263 52.7234 23.5437C52.7234 23.461 52.7904 23.394 52.873 23.394C52.9557 23.394 53.0226 23.461 53.0226 23.5437C53.0226 23.6263 52.9558 23.6933 52.873 23.6933Z" fill="#476B9E"/>
<path d="M54.0685 23.1974C54.1511 23.1974 54.2181 23.1305 54.2181 23.0478C54.2181 22.9652 54.1511 22.8982 54.0685 22.8982C53.9858 22.8982 53.9188 22.9652 53.9188 23.0478C53.9188 23.1305 53.9858 23.1974 54.0685 23.1974Z" fill="#476B9E"/>
<path d="M53.183 24.1449C53.1245 24.2035 53.0298 24.2035 52.9714 24.1449C52.913 24.0865 52.913 23.9917 52.9714 23.9333C53.0299 23.8748 53.1246 23.8748 53.183 23.9333C53.2415 23.9917 53.2415 24.0864 53.183 24.1449Z" fill="#476B9E"/>
<path d="M53.9629 24.1452C53.9043 24.0868 53.9043 23.9919 53.9629 23.9336C54.0212 23.875 54.1161 23.875 54.1745 23.9336C54.2328 23.9919 54.2328 24.0868 54.1745 24.1452C54.1159 24.2035 54.0212 24.2035 53.9629 24.1452Z" fill="#476B9E"/>
<path d="M52.9713 23.1536C52.9129 23.0952 52.9129 23.0003 52.9713 22.942C53.0298 22.8836 53.1245 22.8836 53.1829 22.942C53.2414 23.0005 53.2414 23.0952 53.1829 23.1536C53.1245 23.2121 53.0298 23.2121 52.9713 23.1536Z" fill="#476B9E"/>
<path d="M62.0587 13.2454C61.9796 13.2454 61.9158 13.1813 61.9158 13.1023V10.7752C61.9158 10.6962 61.9798 10.6323 62.0587 10.6323H62.0888C62.3443 10.6323 62.5515 10.8395 62.5515 11.095V12.7528C62.5513 13.0246 62.3307 13.2454 62.0587 13.2454Z" fill="#162E4C"/>
<path d="M62.1846 10.7282H62.0124V10.4519C62.0124 10.2396 61.8395 10.0667 61.6272 10.0667H61.2341V9.89453H61.6272C61.9346 9.89453 62.1846 10.1445 62.1846 10.4519V10.7282Z" fill="#162E4C"/>
<path d="M61.3186 10.0535H61.2432C61.2096 10.0535 61.1824 10.0263 61.1824 9.99273V9.96777C61.1824 9.93419 61.2096 9.90698 61.2432 9.90698H61.3186C61.3521 9.90698 61.3793 9.93419 61.3793 9.96777V9.99273C61.3793 10.0263 61.3521 10.0535 61.3186 10.0535Z" fill="#162E4C"/>
<path d="M13.9985 25.4806C15.0688 24.4104 15.0688 22.6751 13.9985 21.6048C12.9283 20.5345 11.193 20.5345 10.1227 21.6048C9.05244 22.6751 9.05244 24.4104 10.1227 25.4806C11.193 26.5509 12.9283 26.5509 13.9985 25.4806Z" fill="#162E4C"/>
<path d="M12.0638 26.3634L12.0574 26.3633C12.0567 26.3633 12.0558 26.3633 12.0552 26.3633C11.9782 26.3633 11.8974 26.3598 11.8182 26.3531L11.8318 26.1944C11.9074 26.2009 11.9844 26.2042 12.0608 26.2042L12.0638 26.3634ZM12.3095 26.3526L12.2957 26.1938C12.3725 26.1871 12.45 26.177 12.5256 26.1635L12.5533 26.3204C12.473 26.3349 12.3909 26.3455 12.3095 26.3526ZM11.5746 26.3216C11.4938 26.3075 11.4129 26.2898 11.3342 26.2689L11.3754 26.115C11.4494 26.1348 11.5257 26.1515 11.6018 26.1648L11.5746 26.3216ZM12.7935 26.2674L12.7522 26.1134C12.8267 26.0935 12.9011 26.0699 12.9734 26.0435L13.028 26.1932C12.9512 26.2212 12.8723 26.2462 12.7935 26.2674ZM11.0995 26.1954C11.0227 26.1677 10.9461 26.136 10.8721 26.1014L10.9392 25.9569C11.0091 25.9895 11.0813 26.0193 11.1538 26.0456L11.0995 26.1954ZM13.2549 26.099L13.1874 25.9547C13.2573 25.922 13.3264 25.8858 13.393 25.8472L13.4729 25.9852C13.4021 26.026 13.329 26.0644 13.2549 26.099ZM10.6538 25.9879C10.583 25.9471 10.5131 25.9027 10.4463 25.8559L10.5375 25.7253C10.6006 25.7694 10.6665 25.8113 10.7333 25.85L10.6538 25.9879ZM13.6799 25.8528L13.5884 25.7224C13.6515 25.6782 13.7133 25.6306 13.7723 25.5809L13.8748 25.7028C13.8121 25.7555 13.7465 25.8059 13.6799 25.8528ZM10.2512 25.7064C10.1883 25.6537 10.1272 25.5979 10.0695 25.5404L10.182 25.4276C10.2364 25.4819 10.2941 25.5346 10.3533 25.5841L10.2512 25.7064ZM14.0559 25.5366L13.9433 25.4238C13.9974 25.3698 14.0502 25.3121 14.1002 25.2527L14.2221 25.3551C14.1692 25.4182 14.1133 25.4791 14.0559 25.5366ZM9.90304 25.3594C9.85035 25.2969 9.7999 25.2315 9.7529 25.1647L9.88307 25.0729C9.92732 25.136 9.97501 25.1978 10.0248 25.2568L9.90304 25.3594ZM14.3719 25.1602L14.2414 25.0688C14.2858 25.0054 14.3278 24.9397 14.3664 24.873L14.5043 24.9528C14.4633 25.0233 14.4189 25.0931 14.3719 25.1602ZM9.62049 24.9577C9.57934 24.8868 9.54094 24.8136 9.50633 24.7399L9.65062 24.6723C9.68316 24.7417 9.71932 24.8109 9.75823 24.8777L9.62049 24.9577ZM14.6179 24.7346L14.4735 24.6673C14.5062 24.5972 14.536 24.525 14.5623 24.4527L14.7119 24.5073C14.6842 24.5838 14.6525 24.6602 14.6179 24.7346ZM9.4118 24.513C9.38374 24.4365 9.3586 24.3577 9.33742 24.2785L9.49135 24.237C9.51149 24.3117 9.53508 24.3861 9.56143 24.4581L9.4118 24.513ZM14.7858 24.2726L14.6319 24.2316C14.6517 24.1573 14.6684 24.081 14.6818 24.0051L14.8388 24.0326C14.8247 24.113 14.8068 24.1938 14.7858 24.2726ZM9.28404 24.0385C9.26975 23.9582 9.2589 23.8761 9.25167 23.7946L9.41042 23.7807C9.41714 23.8575 9.42747 23.935 9.4409 24.0107L9.28404 24.0385ZM14.8705 23.7888L14.7118 23.7752C14.7183 23.6982 14.7218 23.6202 14.7218 23.5433V23.5316H14.881L14.8812 23.5417C14.8812 23.6247 14.8776 23.7072 14.8705 23.7888ZM9.24048 23.5489L9.24065 23.54C9.24048 23.4632 9.24392 23.3826 9.25064 23.3036L9.40939 23.317C9.40319 23.3916 9.39992 23.4677 9.39992 23.5433L9.24048 23.5489ZM14.7109 23.3C14.7039 23.2228 14.6935 23.1455 14.6799 23.0701L14.8368 23.0419C14.8512 23.1219 14.8623 23.2039 14.8697 23.2855L14.7109 23.3ZM9.43883 23.087L9.2818 23.0598C9.29575 22.979 9.31349 22.8981 9.33432 22.8196L9.48825 22.8604C9.46879 22.9344 9.45209 23.0107 9.43883 23.087ZM14.6291 22.8437C14.6088 22.7691 14.585 22.6947 14.5585 22.6228L14.708 22.5677C14.7362 22.6439 14.7614 22.7228 14.7829 22.802L14.6291 22.8437ZM9.55747 22.639L9.40767 22.5847C9.43539 22.5079 9.46707 22.4313 9.50134 22.3573L9.6458 22.4242C9.61326 22.4943 9.58364 22.5665 9.55747 22.639ZM14.4688 22.4089C14.4361 22.3395 14.3998 22.2705 14.3607 22.2037L14.4983 22.1233C14.5396 22.194 14.5782 22.2672 14.6128 22.3409L14.4688 22.4089ZM9.75272 22.2183L9.61463 22.1389C9.65527 22.0683 9.69969 21.9984 9.74653 21.9313L9.87721 22.0224C9.83279 22.0857 9.79095 22.1517 9.75272 22.2183ZM14.2352 22.0086C14.1907 21.9457 14.1431 21.8841 14.0931 21.825L14.2149 21.7221C14.2677 21.7846 14.3183 21.85 14.3653 21.9165L14.2352 22.0086ZM10.0181 21.8378L9.89581 21.7357C9.94815 21.673 10.0041 21.6119 10.0616 21.554L10.1746 21.6665C10.1202 21.721 10.0675 21.7787 10.0181 21.8378ZM13.9357 21.6548C13.8808 21.6003 13.823 21.5477 13.7639 21.4984L13.866 21.376C13.9285 21.4282 13.9896 21.4838 14.0478 21.5415L13.9357 21.6548ZM10.3449 21.5091L10.2422 21.3874C10.3047 21.3345 10.3703 21.2839 10.4368 21.237L10.5286 21.3672C10.4659 21.4116 10.4041 21.4593 10.3449 21.5091ZM13.5793 21.3577C13.516 21.3137 13.4498 21.2718 13.3832 21.2336L13.4626 21.0955C13.5332 21.1361 13.6031 21.1804 13.6704 21.2271L13.5793 21.3577ZM10.7238 21.2419L10.6438 21.1041C10.7142 21.0631 10.7874 21.0246 10.8614 20.9898L10.9293 21.1339C10.8595 21.167 10.7903 21.2033 10.7238 21.2419ZM13.1771 21.127C13.1067 21.0945 13.0345 21.0649 12.9624 21.0389L13.0165 20.8889C13.0929 20.9164 13.1695 20.9478 13.2441 20.9824L13.1771 21.127ZM11.1431 21.0445L11.0882 20.8951C11.1648 20.8668 11.2437 20.8419 11.3225 20.8205L11.3642 20.9743C11.2898 20.9944 11.2154 21.018 11.1431 21.0445ZM12.741 20.97C12.6664 20.9504 12.5901 20.9338 12.5144 20.9207L12.5412 20.7637C12.6216 20.7775 12.7026 20.795 12.7816 20.8159L12.741 20.97ZM11.5906 20.9237L11.5625 20.7668C11.6428 20.7525 11.7247 20.7415 11.8064 20.7343L11.8205 20.893C11.7435 20.8997 11.6662 20.9101 11.5906 20.9237ZM12.2842 20.8915C12.2103 20.8853 12.1352 20.8822 12.0608 20.8822H12.0521V20.7229H12.0608C12.1395 20.7229 12.2191 20.7262 12.2972 20.7327L12.2842 20.8915Z" fill="#162E4C"/>
<path d="M12.0619 24.7093C12.706 24.7093 13.2281 24.1872 13.2281 23.5432C13.2281 22.8991 12.706 22.377 12.0619 22.377C11.4179 22.377 10.8958 22.8991 10.8958 23.5432C10.8958 24.1872 11.4179 24.7093 12.0619 24.7093Z" fill="white"/>
<path d="M12.0621 24.683C11.4336 24.683 10.9222 24.1716 10.9222 23.5432C10.9222 22.9147 11.4336 22.4033 12.0621 22.4033C12.6906 22.4033 13.2019 22.9147 13.2019 23.5432C13.2019 24.1718 12.6906 24.683 12.0621 24.683ZM12.0621 22.5755C11.5285 22.5755 11.0944 23.0096 11.0944 23.5432C11.0944 24.0768 11.5285 24.5108 12.0621 24.5108C12.5957 24.5108 13.0298 24.0768 13.0298 23.5432C13.0298 23.0096 12.5957 22.5755 12.0621 22.5755Z" fill="#486C9E"/>
<path d="M12.0616 26.2047C10.5939 26.2047 9.39978 25.0106 9.39978 23.5429C9.39978 22.0752 10.5939 20.8811 12.0616 20.8811C13.5292 20.8811 14.7233 22.0752 14.7233 23.5429C14.7233 25.0106 13.5294 26.2047 12.0616 26.2047ZM12.0616 21.0533C10.6887 21.0533 9.57196 22.1701 9.57196 23.5429C9.57196 24.9157 10.6887 26.0325 12.0616 26.0325C13.4344 26.0325 14.5512 24.9157 14.5512 23.5429C14.5512 22.1702 13.4344 21.0533 12.0616 21.0533Z" fill="#486C9E"/>
<path d="M12.0619 23.8645C12.2393 23.8645 12.3832 23.7207 12.3832 23.5432C12.3832 23.3658 12.2393 23.2219 12.0619 23.2219C11.8844 23.2219 11.7406 23.3658 11.7406 23.5432C11.7406 23.7207 11.8844 23.8645 12.0619 23.8645Z" fill="#162E4C"/>
<path d="M12.061 22.9919C12.1436 22.9919 12.2106 22.9249 12.2106 22.8423C12.2106 22.7596 12.1436 22.6926 12.061 22.6926C11.9784 22.6926 11.9114 22.7596 11.9114 22.8423C11.9114 22.9249 11.9784 22.9919 12.061 22.9919Z" fill="#476B9E"/>
<path d="M12.0611 24.3937C12.1438 24.3937 12.2108 24.3267 12.2108 24.2441C12.2108 24.1615 12.1438 24.0945 12.0611 24.0945C11.9785 24.0945 11.9115 24.1615 11.9115 24.2441C11.9115 24.3267 11.9785 24.3937 12.0611 24.3937Z" fill="#476B9E"/>
<path d="M12.7602 23.6926C12.8429 23.6926 12.9098 23.6256 12.9098 23.5429C12.9098 23.4603 12.8429 23.3933 12.7602 23.3933C12.6776 23.3933 12.6106 23.4603 12.6106 23.5429C12.6106 23.6256 12.6776 23.6926 12.7602 23.6926Z" fill="#476B9E"/>
<path d="M11.3589 23.6926C11.4415 23.6926 11.5085 23.6256 11.5085 23.5429C11.5085 23.4603 11.4415 23.3933 11.3589 23.3933C11.2762 23.3933 11.2092 23.4603 11.2092 23.5429C11.2092 23.6256 11.2762 23.6926 11.3589 23.6926Z" fill="#476B9E"/>
<path d="M12.5572 23.1972C12.6399 23.1972 12.7068 23.1302 12.7068 23.0476C12.7068 22.9649 12.6399 22.8979 12.5572 22.8979C12.4746 22.8979 12.4076 22.9649 12.4076 23.0476C12.4076 23.1302 12.4746 23.1972 12.5572 23.1972Z" fill="#476B9E"/>
<path d="M11.6719 24.1447C11.6134 24.2032 11.5187 24.2032 11.4603 24.1447C11.4017 24.0863 11.4017 23.9914 11.4603 23.9331C11.5187 23.8745 11.6135 23.8745 11.6719 23.9331C11.7303 23.9914 11.7303 24.0861 11.6719 24.1447Z" fill="#476B9E"/>
<path d="M12.4514 24.1447C12.393 24.0863 12.393 23.9914 12.4514 23.9331C12.5099 23.8745 12.6046 23.8745 12.663 23.9331C12.7215 23.9914 12.7215 24.0863 12.663 24.1447C12.6046 24.203 12.5099 24.203 12.4514 24.1447Z" fill="#476B9E"/>
<path d="M11.4603 23.1531C11.4017 23.0947 11.4017 22.9999 11.4603 22.9415C11.5187 22.8831 11.6135 22.8831 11.6719 22.9415C11.7303 23 11.7303 23.0947 11.6719 23.1531C11.6134 23.2116 11.5187 23.2116 11.4603 23.1531Z" fill="#476B9E"/>
<path d="M8.57941 24.1692C8.92482 22.6956 8.0102 21.2209 6.53654 20.8755C5.06289 20.5301 3.58825 21.4447 3.24285 22.9184C2.89744 24.392 3.81206 25.8667 5.28572 26.2121C6.75937 26.5575 8.23401 25.6429 8.57941 24.1692Z" fill="#162E4C"/>
<path d="M5.91423 26.3634L5.90786 26.3633C5.90717 26.3633 5.90631 26.3633 5.90562 26.3633C5.82865 26.3633 5.7479 26.3598 5.6687 26.3531L5.6823 26.1944C5.75789 26.2009 5.83485 26.2042 5.9113 26.2042L5.91423 26.3634ZM6.15993 26.3526L6.14616 26.1938C6.22295 26.1871 6.30044 26.177 6.37602 26.1635L6.40375 26.3204C6.32351 26.3349 6.24138 26.3455 6.15993 26.3526ZM5.42506 26.3216C5.3443 26.3075 5.26338 26.2898 5.18469 26.2689L5.22584 26.115C5.30005 26.1348 5.37616 26.1515 5.45226 26.1648L5.42506 26.3216ZM6.64394 26.2674L6.60262 26.1134C6.67717 26.0935 6.75156 26.0699 6.82387 26.0435L6.87846 26.1932C6.80166 26.2212 6.7228 26.2462 6.64394 26.2674ZM4.95 26.1954C4.87321 26.1677 4.79676 26.136 4.72255 26.1014L4.7897 25.9569C4.85961 25.9895 4.93175 26.0193 5.00424 26.0456L4.95 26.1954ZM7.10539 26.099L7.0379 25.9547C7.1078 25.922 7.17685 25.8858 7.24348 25.8472L7.3232 25.9852C7.25261 26.026 7.17943 26.0644 7.10539 26.099ZM4.50422 25.9879C4.43345 25.9471 4.36355 25.9027 4.29674 25.8559L4.388 25.7253C4.45102 25.7694 4.51696 25.8113 4.58377 25.85L4.50422 25.9879ZM7.53034 25.8528L7.43891 25.7224C7.50193 25.6782 7.56374 25.6306 7.6228 25.5809L7.72542 25.7028C7.66258 25.7555 7.59697 25.8059 7.53034 25.8528ZM4.10166 25.7064C4.03881 25.6537 3.97769 25.5979 3.92018 25.5404L4.03261 25.4276C4.08702 25.4819 4.1447 25.5346 4.20393 25.5841L4.10166 25.7064ZM7.90639 25.5366L7.79378 25.4238C7.84785 25.3698 7.90071 25.3121 7.95064 25.2527L8.07255 25.3551C8.01968 25.4182 7.96373 25.4791 7.90639 25.5366ZM3.7535 25.3594C3.70082 25.2969 3.65037 25.2315 3.60336 25.1647L3.73353 25.0729C3.77778 25.136 3.82548 25.1978 3.87524 25.2568L3.7535 25.3594ZM8.22234 25.1602L8.09183 25.0688C8.13625 25.0054 8.17827 24.9397 8.21683 24.873L8.35475 24.9528C8.31377 25.0233 8.26935 25.0931 8.22234 25.1602ZM3.47095 24.9577C3.4298 24.8868 3.3914 24.8136 3.35679 24.7399L3.50108 24.6723C3.53362 24.7417 3.56978 24.8109 3.6087 24.8777L3.47095 24.9577ZM8.46839 24.7346L8.32393 24.6673C8.35665 24.5972 8.38643 24.525 8.41278 24.4527L8.56241 24.5073C8.53468 24.5838 8.503 24.6602 8.46839 24.7346ZM3.26227 24.513C3.2342 24.4365 3.20923 24.3577 3.18788 24.2785L3.34181 24.237C3.36196 24.3117 3.38555 24.3861 3.41189 24.4581L3.26227 24.513ZM8.63627 24.2726L8.48234 24.2316C8.50214 24.1573 8.51884 24.081 8.53227 24.0051L8.6893 24.0326C8.67519 24.113 8.65728 24.1938 8.63627 24.2726ZM3.1345 24.0385C3.12021 23.9582 3.10937 23.8761 3.10213 23.7946L3.26089 23.7807C3.2676 23.8575 3.27793 23.935 3.29136 24.0107L3.1345 24.0385ZM8.72099 23.7888L8.56223 23.7752C8.56878 23.6982 8.57222 23.6202 8.57222 23.5433V23.5316H8.73149V23.5417C8.73166 23.6247 8.72805 23.7072 8.72099 23.7888ZM3.09094 23.5489L3.09111 23.54C3.09111 23.4632 3.09439 23.3826 3.1011 23.3036L3.25985 23.317C3.25366 23.3916 3.25038 23.4677 3.25038 23.5433L3.09094 23.5489ZM8.56137 23.3C8.55431 23.2228 8.54398 23.1455 8.53038 23.0701L8.68724 23.0419C8.70153 23.1219 8.71272 23.2039 8.72013 23.2855L8.56137 23.3ZM3.2893 23.087L3.13227 23.0598C3.14621 22.979 3.16395 22.8981 3.18478 22.8196L3.33889 22.8604C3.31926 22.9344 3.30256 23.0107 3.2893 23.087ZM8.47959 22.8437C8.45927 22.7691 8.43551 22.6947 8.40899 22.6228L8.55845 22.5677C8.58668 22.6439 8.61182 22.7228 8.63334 22.802L8.47959 22.8437ZM3.40793 22.639L3.25813 22.5847C3.28585 22.5079 3.31754 22.4313 3.3518 22.3573L3.49643 22.4242C3.46389 22.4943 3.4341 22.5665 3.40793 22.639ZM8.31928 22.4089C8.28657 22.3395 8.25024 22.2705 8.21115 22.2037L8.34873 22.1233C8.39005 22.194 8.42862 22.2672 8.4634 22.3409L8.31928 22.4089ZM3.60319 22.2183L3.4651 22.1389C3.50573 22.0683 3.55015 21.9984 3.59699 21.9313L3.72768 22.0224C3.68342 22.0857 3.64141 22.1517 3.60319 22.2183ZM8.08563 22.0086C8.04121 21.9457 7.99351 21.8841 7.94358 21.825L8.06531 21.7221C8.11817 21.7846 8.1688 21.85 8.2158 21.9165L8.08563 22.0086ZM3.86852 21.8378L3.74627 21.7357C3.79862 21.673 3.8544 21.6119 3.91208 21.554L4.02504 21.6665C3.97063 21.721 3.91811 21.7787 3.86852 21.8378ZM7.7862 21.6548C7.73128 21.6003 7.67342 21.5477 7.61437 21.4984L7.71647 21.376C7.77897 21.4282 7.8401 21.4838 7.8983 21.5415L7.7862 21.6548ZM4.1955 21.5091L4.09288 21.3874C4.15538 21.3345 4.22098 21.2839 4.28744 21.237L4.37922 21.3672C4.31637 21.4116 4.25456 21.4593 4.1955 21.5091ZM7.42996 21.3577C7.36659 21.3137 7.30048 21.2718 7.23384 21.2336L7.31322 21.0955C7.38381 21.1361 7.45372 21.1804 7.52104 21.2271L7.42996 21.3577ZM4.5743 21.2419L4.49424 21.1041C4.56466 21.0631 4.63801 21.0246 4.71187 20.9898L4.77971 21.1339C4.70998 21.167 4.64093 21.2033 4.5743 21.2419ZM7.02757 21.127C6.95731 21.0945 6.885 21.0649 6.81285 21.0389L6.86692 20.8889C6.94337 20.9164 7.01999 20.9478 7.09454 20.9824L7.02757 21.127ZM4.99357 21.0445L4.93864 20.8951C5.01526 20.8668 5.09412 20.8419 5.17298 20.8205L5.21465 20.9743C5.14027 20.9944 5.06588 21.018 4.99357 21.0445ZM6.59143 20.97C6.51687 20.9504 6.44077 20.9338 6.36483 20.9207L6.39169 20.7637C6.4721 20.7775 6.55303 20.795 6.63206 20.8159L6.59143 20.97ZM5.44107 20.9237L5.413 20.7668C5.49324 20.7525 5.5752 20.7415 5.65664 20.7343L5.67076 20.893C5.59397 20.8997 5.51666 20.9101 5.44107 20.9237ZM6.13462 20.8915C6.06076 20.8853 5.98568 20.8822 5.9113 20.8822H5.90252V20.7229H5.9113C5.98999 20.7229 6.06954 20.7262 6.14788 20.7327L6.13462 20.8915Z" fill="#162E4C"/>
<path d="M5.91351 24.7093C6.55758 24.7093 7.07971 24.1872 7.07971 23.5432C7.07971 22.8991 6.55758 22.377 5.91351 22.377C5.26944 22.377 4.74731 22.8991 4.74731 23.5432C4.74731 24.1872 5.26944 24.7093 5.91351 24.7093Z" fill="white"/>
<path d="M5.91256 24.683C5.28409 24.683 4.77271 24.1716 4.77271 23.5432C4.77271 22.9147 5.28409 22.4033 5.91256 22.4033C6.54103 22.4033 7.05241 22.9147 7.05241 23.5432C7.05241 24.1718 6.5412 24.683 5.91256 24.683ZM5.91256 22.5755C5.37896 22.5755 4.94489 23.0096 4.94489 23.5432C4.94489 24.0768 5.37896 24.5108 5.91256 24.5108C6.44615 24.5108 6.88023 24.0768 6.88023 23.5432C6.88023 23.0096 6.44615 22.5755 5.91256 22.5755Z" fill="#486C9E"/>
<path d="M5.91202 26.2047C4.44433 26.2047 3.25024 25.0106 3.25024 23.5429C3.25024 22.0752 4.44433 20.8811 5.91202 20.8811C7.37971 20.8811 8.5738 22.0752 8.5738 23.5429C8.5738 25.0106 7.37988 26.2047 5.91202 26.2047ZM5.91202 21.0533C4.53921 21.0533 3.42243 22.1701 3.42243 23.5429C3.42243 24.9157 4.53921 26.0325 5.91202 26.0325C7.28484 26.0325 8.40162 24.9157 8.40162 23.5429C8.40162 22.1702 7.28484 21.0533 5.91202 21.0533Z" fill="#486C9E"/>
<path d="M6.2336 23.543C6.2336 23.7203 6.08983 23.8643 5.91231 23.8643C5.73496 23.8643 5.59119 23.7205 5.59119 23.543C5.59119 23.3655 5.73496 23.2217 5.91231 23.2217C6.08983 23.2219 6.2336 23.3656 6.2336 23.543Z" fill="#162E4C"/>
<path d="M5.91257 22.9919C5.9952 22.9919 6.06219 22.9249 6.06219 22.8423C6.06219 22.7596 5.9952 22.6926 5.91257 22.6926C5.82993 22.6926 5.76294 22.7596 5.76294 22.8423C5.76294 22.9249 5.82993 22.9919 5.91257 22.9919Z" fill="#476B9E"/>
<path d="M5.91281 24.394C5.99545 24.394 6.06244 24.327 6.06244 24.2444C6.06244 24.1617 5.99545 24.0947 5.91281 24.0947C5.83017 24.0947 5.76318 24.1617 5.76318 24.2444C5.76318 24.327 5.83017 24.394 5.91281 24.394Z" fill="#476B9E"/>
<path d="M6.61288 23.6926C6.69552 23.6926 6.76251 23.6256 6.76251 23.5429C6.76251 23.4603 6.69552 23.3933 6.61288 23.3933C6.53025 23.3933 6.46326 23.4603 6.46326 23.5429C6.46326 23.6256 6.53025 23.6926 6.61288 23.6926Z" fill="#476B9E"/>
<path d="M5.21152 23.6926C5.29415 23.6926 5.36114 23.6256 5.36114 23.5429C5.36114 23.4603 5.29415 23.3933 5.21152 23.3933C5.12888 23.3933 5.06189 23.4603 5.06189 23.5429C5.06189 23.6256 5.12888 23.6926 5.21152 23.6926Z" fill="#476B9E"/>
<path d="M6.51358 23.1531C6.45503 23.2116 6.36033 23.2116 6.30196 23.1531C6.24342 23.0947 6.24342 22.9999 6.30196 22.9415C6.36051 22.8831 6.45521 22.8831 6.51358 22.9415C6.57195 22.9999 6.57195 23.0947 6.51358 23.1531Z" fill="#476B9E"/>
<path d="M5.52236 24.1444C5.46399 24.203 5.36912 24.203 5.31075 24.1444C5.25221 24.0861 5.25221 23.9912 5.31075 23.9328C5.36929 23.8743 5.46399 23.8743 5.52236 23.9328C5.58091 23.9912 5.58091 24.0859 5.52236 24.1444Z" fill="#476B9E"/>
<path d="M6.30196 24.1444C6.24342 24.0861 6.24342 23.9912 6.30196 23.9328C6.36051 23.8743 6.45521 23.8743 6.51358 23.9328C6.57195 23.9912 6.57195 24.0861 6.51358 24.1444C6.45521 24.2028 6.36051 24.2028 6.30196 24.1444Z" fill="#476B9E"/>
<path d="M5.31075 23.1531C5.25221 23.0947 5.25221 22.9999 5.31075 22.9415C5.36929 22.8831 5.46399 22.8831 5.52236 22.9415C5.58091 23 5.58091 23.0947 5.52236 23.1531C5.46399 23.2116 5.36912 23.2116 5.31075 23.1531Z" fill="#476B9E"/>
<path d="M15.1435 23.484H14.9713C14.9713 21.9085 13.6896 20.6268 12.1141 20.6268H5.82773C4.25243 20.6268 2.97052 21.9085 2.97052 23.484H2.79834C2.79834 21.8135 4.15738 20.4546 5.82773 20.4546H12.1143C13.7847 20.4546 15.1435 21.8135 15.1435 23.484Z" fill="#162E4C"/>
<path d="M43.2366 25.4809C44.3068 24.4106 44.3068 22.6753 43.2366 21.6051C42.1663 20.5348 40.431 20.5348 39.3608 21.6051C38.2905 22.6753 38.2905 24.4106 39.3608 25.4809C40.431 26.5511 42.1663 26.5511 43.2366 25.4809Z" fill="#162E4C"/>
<path d="M41.3018 26.3634L41.2956 26.3633C41.2949 26.3633 41.2941 26.3633 41.2934 26.3633C41.2164 26.3633 41.1356 26.3598 41.0564 26.3531L41.07 26.1944C41.1456 26.2009 41.2226 26.2042 41.299 26.2042L41.3018 26.3634ZM41.5475 26.3526L41.5337 26.1938C41.6105 26.1871 41.688 26.177 41.7638 26.1635L41.7915 26.3204C41.7109 26.3349 41.6289 26.3455 41.5475 26.3526ZM40.8125 26.3216C40.7317 26.3075 40.6508 26.2898 40.5721 26.2689L40.6132 26.115C40.6873 26.1348 40.7636 26.1515 40.8397 26.1648L40.8125 26.3216ZM42.0313 26.2674L41.99 26.1134C42.0646 26.0935 42.139 26.0699 42.2113 26.0435L42.2659 26.1932C42.1892 26.2212 42.1104 26.2462 42.0313 26.2674ZM40.3376 26.1954C40.2608 26.1677 40.1842 26.136 40.1101 26.1014L40.1773 25.9569C40.2472 25.9895 40.3193 26.0193 40.3918 26.0456L40.3376 26.1954ZM42.4928 26.099L42.4253 25.9547C42.4952 25.922 42.5642 25.8858 42.6309 25.8472L42.7108 25.9852C42.6402 26.026 42.5668 26.0644 42.4928 26.099ZM39.8918 25.9879C39.821 25.9471 39.7511 25.9027 39.6843 25.8559L39.7756 25.7253C39.8386 25.7694 39.9045 25.8113 39.9713 25.85L39.8918 25.9879ZM42.9177 25.8528L42.8263 25.7224C42.8893 25.6782 42.9511 25.6306 43.0102 25.5809L43.1128 25.7028C43.0501 25.7555 42.9845 25.8059 42.9177 25.8528ZM39.4891 25.7064C39.4262 25.6537 39.3651 25.5979 39.3074 25.5404L39.4198 25.4276C39.4742 25.4819 39.5319 25.5346 39.5912 25.5841L39.4891 25.7064ZM43.2938 25.5366L43.1812 25.4238C43.2352 25.3698 43.2881 25.3121 43.338 25.2527L43.4599 25.3551C43.4073 25.4182 43.3513 25.4791 43.2938 25.5366ZM39.1411 25.3594C39.0884 25.2969 39.0379 25.2315 38.9909 25.1647L39.1211 25.0729C39.1655 25.136 39.213 25.1978 39.2628 25.2568L39.1411 25.3594ZM43.6099 25.1602L43.4794 25.0688C43.5238 25.0054 43.5658 24.9397 43.6044 24.873L43.7423 24.9528C43.7013 25.0233 43.6569 25.0931 43.6099 25.1602ZM38.8585 24.9577C38.8174 24.8868 38.779 24.8136 38.7444 24.7399L38.8887 24.6723C38.9212 24.7417 38.9574 24.8109 38.9963 24.8777L38.8585 24.9577ZM43.856 24.7346L43.7115 24.6673C43.7442 24.5972 43.774 24.525 43.8004 24.4527L43.95 24.5073C43.9221 24.5838 43.8906 24.6602 43.856 24.7346ZM38.6498 24.513C38.6218 24.4365 38.5966 24.3577 38.5755 24.2785L38.7294 24.237C38.7495 24.3117 38.7731 24.3861 38.7995 24.4581L38.6498 24.513ZM44.0238 24.2726L43.8699 24.2316C43.8897 24.1573 43.9064 24.081 43.9198 24.0051L44.0769 24.0326C44.0628 24.113 44.0449 24.1938 44.0238 24.2726ZM38.5219 24.0385C38.5076 23.9582 38.4968 23.8761 38.4895 23.7946L38.6483 23.7807C38.655 23.8575 38.6653 23.935 38.6788 24.0107L38.5219 24.0385ZM44.1086 23.7888L43.9498 23.7752C43.9564 23.6982 43.9598 23.6202 43.9598 23.5433V23.5316H44.1191L44.1192 23.5417C44.1192 23.6247 44.1156 23.7072 44.1086 23.7888ZM38.4785 23.5489L38.4787 23.54C38.4787 23.4632 38.482 23.3826 38.4887 23.3036L38.6474 23.317C38.6412 23.3916 38.638 23.4677 38.638 23.5433L38.4785 23.5489ZM43.9488 23.3C43.9417 23.2228 43.9314 23.1455 43.9178 23.0701L44.0746 23.0419C44.0891 23.1219 44.1001 23.2039 44.1075 23.2855L43.9488 23.3ZM38.6769 23.087L38.5198 23.0598C38.5338 22.979 38.5515 22.8981 38.5724 22.8196L38.7265 22.8604C38.7067 22.9344 38.6901 23.0107 38.6769 23.087ZM43.8672 22.8437C43.8468 22.7691 43.8231 22.6947 43.7966 22.6228L43.946 22.5677C43.9741 22.6439 43.9994 22.7228 44.0209 22.802L43.8672 22.8437ZM38.7953 22.639L38.6455 22.5847C38.6733 22.5079 38.7049 22.4313 38.7392 22.3573L38.8837 22.4242C38.8513 22.4943 38.8217 22.5665 38.7953 22.639ZM43.7067 22.4089C43.674 22.3395 43.6376 22.2705 43.5986 22.2037L43.7361 22.1233C43.7774 22.194 43.816 22.2672 43.8508 22.3409L43.7067 22.4089ZM38.9906 22.2183L38.8525 22.1389C38.8931 22.0683 38.9376 21.9984 38.9844 21.9313L39.1151 22.0224C39.0708 22.0857 39.029 22.1517 38.9906 22.2183ZM43.473 22.0086C43.4286 21.9457 43.3809 21.8841 43.3308 21.825L43.4525 21.7221C43.5054 21.7846 43.556 21.85 43.603 21.9165L43.473 22.0086ZM39.2561 21.8378L39.1338 21.7357C39.1862 21.673 39.242 21.6119 39.2997 21.554L39.4126 21.6665C39.3582 21.721 39.3055 21.7787 39.2561 21.8378ZM43.1736 21.6548C43.1187 21.6003 43.0608 21.5477 43.0019 21.4984L43.104 21.376C43.1665 21.4282 43.2277 21.4838 43.2859 21.5415L43.1736 21.6548ZM39.5829 21.5091L39.4803 21.3874C39.5428 21.3345 39.6084 21.2839 39.6748 21.237L39.7666 21.3672C39.7038 21.4116 39.6421 21.4593 39.5829 21.5091ZM42.8174 21.3577C42.754 21.3137 42.6879 21.2718 42.6212 21.2336L42.7006 21.0955C42.7712 21.1361 42.8411 21.1804 42.9084 21.2271L42.8174 21.3577ZM39.9619 21.2419L39.8818 21.1041C39.9522 21.0631 40.0256 21.0246 40.0994 20.9898L40.1673 21.1339C40.0974 21.167 40.0283 21.2033 39.9619 21.2419ZM42.4151 21.127C42.3449 21.0945 42.2726 21.0649 42.2004 21.0389L42.2543 20.8889C42.3308 20.9164 42.4074 20.9478 42.4819 20.9824L42.4151 21.127ZM40.3811 21.0445L40.3262 20.8951C40.4028 20.8668 40.4817 20.8419 40.5606 20.8205L40.6022 20.9743C40.5278 20.9944 40.4535 21.018 40.3811 21.0445ZM41.979 20.97C41.9044 20.9504 41.8282 20.9338 41.7524 20.9207L41.7793 20.7637C41.8597 20.7775 41.9406 20.795 42.0196 20.8159L41.979 20.97ZM40.8285 20.9237L40.8004 20.7668C40.8806 20.7525 40.9626 20.7415 41.044 20.7343L41.0582 20.893C40.9815 20.8997 40.9042 20.9101 40.8285 20.9237ZM41.522 20.8915C41.4482 20.8853 41.3731 20.8822 41.2987 20.8822H41.2899V20.7229H41.2987C41.3774 20.7229 41.4569 20.7262 41.5351 20.7327L41.522 20.8915Z" fill="#162E4C"/>
<path d="M41.2992 24.7093C41.9433 24.7093 42.4654 24.1872 42.4654 23.5432C42.4654 22.8991 41.9433 22.377 41.2992 22.377C40.6552 22.377 40.1331 22.8991 40.1331 23.5432C40.1331 24.1872 40.6552 24.7093 41.2992 24.7093Z" fill="white"/>
<path d="M41.2981 24.683C40.6696 24.683 40.1582 24.1716 40.1582 23.5432C40.1582 22.9147 40.6696 22.4033 41.2981 22.4033C41.9265 22.4033 42.4379 22.9147 42.4379 23.5432C42.4379 24.1718 41.9265 24.683 41.2981 24.683ZM41.2981 22.5755C40.7645 22.5755 40.3304 23.0096 40.3304 23.5432C40.3304 24.0768 40.7645 24.5108 41.2981 24.5108C41.8317 24.5108 42.2657 24.0768 42.2657 23.5432C42.2657 23.0096 41.8315 22.5755 41.2981 22.5755Z" fill="#486C9E"/>
<path d="M41.2985 26.2049C39.8306 26.2049 38.6367 25.0108 38.6367 23.5431C38.6367 22.0754 39.8308 20.8813 41.2985 20.8813C42.7662 20.8813 43.9603 22.0754 43.9603 23.5431C43.9603 25.0108 42.7662 26.2049 41.2985 26.2049ZM41.2985 21.0535C39.9257 21.0535 38.8089 22.1703 38.8089 23.5431C38.8089 24.9159 39.9257 26.0327 41.2985 26.0327C42.6713 26.0327 43.7881 24.9159 43.7881 23.5431C43.7881 22.1705 42.6711 21.0535 41.2985 21.0535Z" fill="#486C9E"/>
<path d="M41.6201 23.5432C41.6201 23.7206 41.4764 23.8645 41.2988 23.8645C41.1215 23.8645 40.9775 23.7207 40.9775 23.5432C40.9775 23.3657 41.1213 23.2219 41.2988 23.2219C41.4764 23.2221 41.6201 23.3659 41.6201 23.5432Z" fill="#162E4C"/>
<path d="M41.3012 22.9919C41.3839 22.9919 41.4509 22.9249 41.4509 22.8423C41.4509 22.7596 41.3839 22.6926 41.3012 22.6926C41.2186 22.6926 41.1516 22.7596 41.1516 22.8423C41.1516 22.9249 41.2186 22.9919 41.3012 22.9919Z" fill="#476B9E"/>
<path d="M41.3014 24.394C41.384 24.394 41.451 24.327 41.451 24.2444C41.451 24.1617 41.384 24.0947 41.3014 24.0947C41.2187 24.0947 41.1517 24.1617 41.1517 24.2444C41.1517 24.327 41.2187 24.394 41.3014 24.394Z" fill="#476B9E"/>
<path d="M41.9963 23.6928C41.9137 23.6928 41.8467 23.6258 41.8467 23.5432C41.8467 23.4605 41.9137 23.3936 41.9963 23.3936C42.079 23.3936 42.1459 23.4605 42.1459 23.5432C42.1459 23.6258 42.079 23.6928 41.9963 23.6928Z" fill="#476B9E"/>
<path d="M40.5959 23.6928C40.5133 23.6928 40.4463 23.6258 40.4463 23.5432C40.4463 23.4605 40.5133 23.3936 40.5959 23.3936C40.6786 23.3936 40.7455 23.4605 40.7455 23.5432C40.7455 23.6258 40.6786 23.6928 40.5959 23.6928Z" fill="#476B9E"/>
<path d="M41.7943 23.1972C41.8769 23.1972 41.9439 23.1302 41.9439 23.0476C41.9439 22.9649 41.8769 22.8979 41.7943 22.8979C41.7116 22.8979 41.6447 22.9649 41.6447 23.0476C41.6447 23.1302 41.7116 23.1972 41.7943 23.1972Z" fill="#476B9E"/>
<path d="M40.9088 24.1447C40.8503 24.2032 40.7556 24.2032 40.6972 24.1447C40.6388 24.0863 40.6388 23.9914 40.6972 23.9331C40.7558 23.8745 40.8505 23.8745 40.9088 23.9331C40.9672 23.9914 40.9672 24.0861 40.9088 24.1447Z" fill="#476B9E"/>
<path d="M41.6886 24.1447C41.63 24.0863 41.63 23.9914 41.6886 23.9331C41.7469 23.8745 41.8418 23.8745 41.9002 23.9331C41.9585 23.9914 41.9585 24.0863 41.9002 24.1447C41.8418 24.203 41.7469 24.203 41.6886 24.1447Z" fill="#476B9E"/>
<path d="M40.6972 23.1533C40.6388 23.095 40.6388 23.0001 40.6972 22.9417C40.7558 22.8834 40.8505 22.8834 40.9088 22.9417C40.9674 23.0003 40.9674 23.095 40.9088 23.1533C40.8505 23.2119 40.7558 23.2119 40.6972 23.1533Z" fill="#476B9E"/>
<path d="M37.8175 24.1697C38.1629 22.696 37.2482 21.2214 35.7746 20.876C34.3009 20.5306 32.8263 21.4452 32.4809 22.9189C32.1355 24.3925 33.0501 25.8672 34.5238 26.2126C35.9974 26.558 37.472 25.6434 37.8175 24.1697Z" fill="#162E4C"/>
<path d="M35.1523 26.3634L35.1459 26.3633C35.1452 26.3633 35.1443 26.3633 35.1437 26.3633C35.0667 26.3633 34.9859 26.3598 34.9067 26.3531L34.9203 26.1944C34.9959 26.2009 35.0729 26.2042 35.1493 26.2042L35.1523 26.3634ZM35.398 26.3526L35.3842 26.1938C35.461 26.1871 35.5385 26.177 35.6142 26.1635L35.642 26.3204C35.5615 26.3349 35.4794 26.3455 35.398 26.3526ZM34.6629 26.3216C34.5822 26.3075 34.5012 26.2898 34.4227 26.2689L34.4637 26.115C34.5379 26.1348 34.614 26.1515 34.6901 26.1648L34.6629 26.3216ZM35.8818 26.2674L35.8405 26.1134C35.915 26.0935 35.9894 26.0699 36.0617 26.0435L36.1163 26.1932C36.0397 26.2212 35.9608 26.2462 35.8818 26.2674ZM34.188 26.1954C34.1112 26.1677 34.0346 26.136 33.9606 26.1014L34.0277 25.9569C34.0976 25.9895 34.17 26.0193 34.2423 26.0456L34.188 26.1954ZM36.3434 26.099L36.2759 25.9547C36.3458 25.922 36.4149 25.8858 36.4815 25.8472L36.5614 25.9852C36.4906 26.026 36.4175 26.0644 36.3434 26.099ZM33.7423 25.9879C33.6715 25.9471 33.6016 25.9027 33.5348 25.8559L33.626 25.7253C33.6891 25.7694 33.755 25.8113 33.8218 25.85L33.7423 25.9879ZM36.7684 25.8528L36.677 25.7224C36.7398 25.6782 36.8018 25.6306 36.8608 25.5809L36.9633 25.7028C36.9006 25.7555 36.835 25.8059 36.7684 25.8528ZM33.3397 25.7064C33.2768 25.6537 33.2157 25.5979 33.158 25.5404L33.2705 25.4276C33.3249 25.4819 33.3826 25.5346 33.4418 25.5841L33.3397 25.7064ZM37.1444 25.5366L37.0318 25.4238C37.0859 25.3698 37.1387 25.3121 37.1887 25.2527L37.3106 25.3551C37.2577 25.4182 37.2018 25.4791 37.1444 25.5366ZM32.9915 25.3594C32.9389 25.2969 32.8884 25.2315 32.8414 25.1647L32.9716 25.0729C33.0158 25.136 33.0635 25.1978 33.1133 25.2568L32.9915 25.3594ZM37.4604 25.1602L37.3299 25.0688C37.3743 25.0054 37.4163 24.9397 37.4547 24.873L37.5926 24.9528C37.5518 25.0233 37.5074 25.0931 37.4604 25.1602ZM32.709 24.9577C32.6677 24.8868 32.6294 24.8136 32.5948 24.7399L32.7391 24.6723C32.7717 24.7417 32.8078 24.8109 32.8467 24.8777L32.709 24.9577ZM37.7064 24.7346L37.562 24.6673C37.5947 24.5972 37.6245 24.525 37.6508 24.4527L37.8004 24.5073C37.7727 24.5838 37.741 24.6602 37.7064 24.7346ZM32.5003 24.513C32.4722 24.4365 32.4471 24.3577 32.4259 24.2785L32.5799 24.237C32.6 24.3117 32.6236 24.3861 32.6499 24.4581L32.5003 24.513ZM37.8743 24.2726L37.7204 24.2316C37.7402 24.1573 37.7569 24.081 37.7703 24.0051L37.9273 24.0326C37.9132 24.113 37.8953 24.1938 37.8743 24.2726ZM32.3724 24.0385C32.3581 23.9582 32.3474 23.8761 32.34 23.7946L32.4988 23.7807C32.5055 23.8575 32.5158 23.935 32.5292 24.0107L32.3724 24.0385ZM37.959 23.7888L37.8003 23.7752C37.8068 23.6982 37.8103 23.6202 37.8103 23.5433L37.8101 23.5316H37.9694V23.5417C37.9697 23.6247 37.9661 23.7072 37.959 23.7888ZM32.329 23.5489L32.3292 23.54C32.329 23.4632 32.3324 23.3826 32.3391 23.3036L32.4979 23.317C32.4917 23.3916 32.4884 23.4677 32.4884 23.5433L32.329 23.5489ZM37.7994 23.3C37.7923 23.2228 37.782 23.1455 37.7684 23.0701L37.9253 23.0419C37.9397 23.1219 37.9508 23.2039 37.9582 23.2855L37.7994 23.3ZM32.5273 23.087L32.3703 23.0598C32.3843 22.979 32.402 22.8981 32.4228 22.8196L32.5769 22.8604C32.5571 22.9344 32.5406 23.0107 32.5273 23.087ZM37.7176 22.8437C37.6973 22.7691 37.6735 22.6947 37.647 22.6228L37.7965 22.5677C37.8247 22.6439 37.8499 22.7228 37.8714 22.802L37.7176 22.8437ZM32.646 22.639L32.4962 22.5847C32.5239 22.5079 32.5556 22.4313 32.5898 22.3573L32.7343 22.4242C32.7018 22.4943 32.6721 22.5665 32.646 22.639ZM37.5573 22.4089C37.5246 22.3395 37.4883 22.2705 37.4492 22.2037L37.5868 22.1233C37.6281 22.194 37.6667 22.2672 37.7013 22.3409L37.5573 22.4089ZM32.8412 22.2183L32.7031 22.1389C32.7438 22.0683 32.7882 21.9984 32.835 21.9313L32.9657 22.0224C32.9213 22.0857 32.8795 22.1517 32.8412 22.2183ZM37.3235 22.0086C37.2791 21.9457 37.2314 21.8841 37.1814 21.825L37.3032 21.7221C37.356 21.7846 37.4067 21.85 37.4537 21.9165L37.3235 22.0086ZM33.1066 21.8378L32.9843 21.7357C33.0368 21.673 33.0926 21.6119 33.1501 21.554L33.2631 21.6665C33.2087 21.721 33.156 21.7787 33.1066 21.8378ZM37.0242 21.6548C36.9693 21.6003 36.9115 21.5477 36.8524 21.4984L36.9545 21.376C37.017 21.4282 37.0781 21.4838 37.1363 21.5415L37.0242 21.6548ZM33.4334 21.5091L33.3307 21.3874C33.3932 21.3345 33.4588 21.2839 33.5253 21.237L33.6171 21.3672C33.5544 21.4116 33.4926 21.4593 33.4334 21.5091ZM36.6678 21.3577C36.6045 21.3137 36.5383 21.2718 36.4717 21.2336L36.5511 21.0955C36.6217 21.1361 36.6916 21.1804 36.7589 21.2271L36.6678 21.3577ZM33.8123 21.2419L33.7323 21.1041C33.8027 21.0631 33.8759 21.0246 33.9499 20.9898L34.0178 21.1339C33.948 21.167 33.8788 21.2033 33.8123 21.2419ZM36.2656 21.127C36.1954 21.0945 36.123 21.0649 36.0509 21.0389L36.105 20.8889C36.1814 20.9164 36.258 20.9478 36.3326 20.9824L36.2656 21.127ZM34.2316 21.0445L34.1767 20.8951C34.2533 20.8668 34.3322 20.8419 34.411 20.8205L34.4527 20.9743C34.3783 20.9944 34.3039 21.018 34.2316 21.0445ZM35.8295 20.97C35.7549 20.9504 35.6786 20.9338 35.6029 20.9207L35.6297 20.7637C35.7101 20.7775 35.7911 20.795 35.8701 20.8159L35.8295 20.97ZM34.6789 20.9237L34.6509 20.7668C34.7311 20.7525 34.8131 20.7415 34.8945 20.7343L34.9086 20.893C34.832 20.8997 34.7547 20.9101 34.6789 20.9237ZM35.3727 20.8915C35.2988 20.8853 35.2237 20.8822 35.1493 20.8822H35.1406V20.7229H35.1493C35.228 20.7229 35.3076 20.7262 35.3859 20.7327L35.3727 20.8915Z" fill="#162E4C"/>
<path d="M35.1506 24.7096C35.7946 24.7096 36.3168 24.1875 36.3168 23.5434C36.3168 22.8993 35.7946 22.3772 35.1506 22.3772C34.5065 22.3772 33.9844 22.8993 33.9844 23.5434C33.9844 24.1875 34.5065 24.7096 35.1506 24.7096Z" fill="white"/>
<path d="M35.1496 24.683C34.5211 24.683 34.0098 24.1716 34.0098 23.5432C34.0098 22.9147 34.5211 22.4033 35.1496 22.4033C35.7781 22.4033 36.2895 22.9147 36.2895 23.5432C36.2895 24.1718 35.7781 24.683 35.1496 24.683ZM35.1496 22.5755C34.616 22.5755 34.1819 23.0096 34.1819 23.5432C34.1819 24.0768 34.6162 24.5108 35.1496 24.5108C35.683 24.5108 36.1173 24.0768 36.1173 23.5432C36.1173 23.0096 35.6832 22.5755 35.1496 22.5755Z" fill="#486C9E"/>
<path d="M35.1501 26.2049C33.6824 26.2049 32.4883 25.0108 32.4883 23.5431C32.4883 22.0754 33.6824 20.8813 35.1501 20.8813C36.6177 20.8813 37.8118 22.0754 37.8118 23.5431C37.8118 25.0108 36.6177 26.2049 35.1501 26.2049ZM35.1501 21.0535C33.7772 21.0535 32.6605 22.1703 32.6605 23.5431C32.6605 24.9159 33.7772 26.0327 35.1501 26.0327C36.5229 26.0327 37.6397 24.9159 37.6397 23.5431C37.6397 22.1705 36.5229 21.0535 35.1501 21.0535Z" fill="#486C9E"/>
<path d="M35.1505 23.8645C35.328 23.8645 35.4718 23.7207 35.4718 23.5432C35.4718 23.3658 35.328 23.2219 35.1505 23.2219C34.9731 23.2219 34.8292 23.3658 34.8292 23.5432C34.8292 23.7207 34.9731 23.8645 35.1505 23.8645Z" fill="#162E4C"/>
<path d="M35.3002 22.842C35.3002 22.9247 35.2332 22.9916 35.1506 22.9916C35.068 22.9916 35.001 22.9247 35.001 22.842C35.001 22.7594 35.068 22.6924 35.1506 22.6924C35.2332 22.6924 35.3002 22.7594 35.3002 22.842Z" fill="#476B9E"/>
<path d="M35.3002 24.2441C35.3002 24.3268 35.2332 24.3937 35.1506 24.3937C35.068 24.3937 35.001 24.3268 35.001 24.2441C35.001 24.1615 35.068 24.0945 35.1506 24.0945C35.2332 24.0945 35.3002 24.1613 35.3002 24.2441Z" fill="#476B9E"/>
<path d="M35.8519 23.6928C35.9345 23.6928 36.0015 23.6258 36.0015 23.5432C36.0015 23.4605 35.9345 23.3936 35.8519 23.3936C35.7693 23.3936 35.7023 23.4605 35.7023 23.5432C35.7023 23.6258 35.7693 23.6928 35.8519 23.6928Z" fill="#476B9E"/>
<path d="M34.4496 23.6928C34.5322 23.6928 34.5992 23.6258 34.5992 23.5432C34.5992 23.4605 34.5322 23.3936 34.4496 23.3936C34.3669 23.3936 34.2999 23.4605 34.2999 23.5432C34.2999 23.6258 34.3669 23.6928 34.4496 23.6928Z" fill="#476B9E"/>
<path d="M35.7509 23.1531C35.6925 23.2116 35.5976 23.2116 35.5393 23.1531C35.4807 23.0947 35.4807 22.9999 35.5393 22.9415C35.5976 22.8831 35.6925 22.8831 35.7509 22.9415C35.8094 22.9999 35.8094 23.0947 35.7509 23.1531Z" fill="#476B9E"/>
<path d="M34.7606 24.1447C34.7021 24.2032 34.6074 24.2032 34.549 24.1447C34.4905 24.0863 34.4905 23.9914 34.549 23.9331C34.6076 23.8745 34.7023 23.8745 34.7606 23.9331C34.819 23.9914 34.819 24.0861 34.7606 24.1447Z" fill="#476B9E"/>
<path d="M35.5393 24.1447C35.4807 24.0863 35.4807 23.9914 35.5393 23.9331C35.5976 23.8745 35.6925 23.8745 35.7509 23.9331C35.8093 23.9914 35.8093 24.0863 35.7509 24.1447C35.6925 24.203 35.5976 24.203 35.5393 24.1447Z" fill="#476B9E"/>
<path d="M34.5489 23.1531C34.4904 23.0947 34.4904 22.9999 34.5489 22.9415C34.6075 22.8831 34.7022 22.8831 34.7605 22.9415C34.8189 23 34.8189 23.0947 34.7605 23.1531C34.702 23.2116 34.6073 23.2116 34.5489 23.1531Z" fill="#476B9E"/>
<path d="M44.3826 23.4842H44.2105C44.2105 21.9087 42.9287 20.627 41.3531 20.627H35.0665C33.4912 20.627 32.2093 21.9087 32.2093 23.4842H32.0371C32.0371 21.8137 33.3961 20.4548 35.0665 20.4548H41.3531C43.0236 20.4548 44.3826 21.8137 44.3826 23.4842Z" fill="#162E4C"/>
</svg>
