<svg width="33" height="33" viewBox="0 0 33 33" fill="none" xmlns="http://www.w3.org/2000/svg">
<path d="M27.4417 2.06252H11.0758C10.8676 2.06498 10.6602 2.08917 10.457 2.13471C10.1393 2.08977 9.8189 2.06565 9.49798 2.06252C7.79853 2.05858 6.15871 2.68864 4.89914 3.82953C3.63956 4.97041 2.85079 6.54007 2.68705 8.23162C2.52331 9.92316 2.99637 11.615 4.01374 12.9763C5.03111 14.3375 6.51964 15.2704 8.1883 15.5925V28.05C8.19101 28.815 8.4961 29.5479 9.03703 30.0888C9.57795 30.6297 10.3108 30.9348 11.0758 30.9375H27.4417C27.8209 30.9375 28.1964 30.8628 28.5467 30.7177C28.8971 30.5726 29.2154 30.3599 29.4835 30.0918C29.7516 29.8237 29.9643 29.5053 30.1094 29.155C30.2545 28.8047 30.3292 28.4292 30.3292 28.05V4.95002C30.3292 4.18421 30.025 3.44976 29.4835 2.90825C28.942 2.36674 28.2075 2.06252 27.4417 2.06252ZM4.59955 8.88939C4.59955 7.9181 4.8877 6.96863 5.42754 6.16117C5.96738 5.35371 6.73463 4.72455 7.63219 4.35332C8.52975 3.9821 9.51726 3.88549 10.4697 4.07573C11.4222 4.26597 12.2969 4.73451 12.983 5.42205C13.669 6.10958 14.1357 6.9852 14.324 7.93808C14.5122 8.89096 14.4135 9.87827 14.0404 10.775C13.6673 11.6718 13.0365 12.4377 12.2279 12.9759C11.4193 13.514 10.4693 13.8002 9.49798 13.7981C8.85384 13.7981 8.21603 13.6711 7.62105 13.4243C7.02607 13.1775 6.48561 12.8157 6.03061 12.3598C5.57562 11.9038 5.21502 11.3626 4.96945 10.7671C4.72389 10.1716 4.59819 9.53353 4.59955 8.88939ZM28.4008 28.05C28.4008 28.3044 28.2998 28.5483 28.1199 28.7282C27.94 28.908 27.6961 29.0091 27.4417 29.0091H11.0758C10.8214 29.0091 10.5775 28.908 10.3976 28.7282C10.2178 28.5483 10.1167 28.3044 10.1167 28.05V15.675C11.7421 15.5251 13.2584 14.7926 14.3861 13.6125C14.4683 13.6225 14.5514 13.6225 14.6336 13.6125H23.9149C24.1528 13.6125 24.381 13.518 24.5493 13.3497C24.7175 13.1815 24.812 12.9533 24.812 12.7153C24.812 12.4774 24.7175 12.2492 24.5493 12.0809C24.381 11.9127 24.1528 11.8181 23.9149 11.8181H15.6649C16.3029 10.5235 16.5129 9.0596 16.2645 7.63782C16.0162 6.21604 15.3222 4.91003 14.283 3.90846H27.483C27.7373 3.90846 27.9813 4.0095 28.1611 4.18936C28.341 4.36922 28.442 4.61316 28.442 4.86752L28.4008 28.05Z" fill="#199675"/>
<path d="M12.5812 6.61029C12.4928 6.51923 12.387 6.44685 12.2701 6.39741C12.1532 6.34798 12.0275 6.32251 11.9006 6.32251C11.7737 6.32251 11.648 6.34798 11.5311 6.39741C11.4142 6.44685 11.3084 6.51923 11.22 6.61029L8.70373 9.13686L7.77561 8.24998C7.69548 8.1374 7.59198 8.04346 7.47218 7.97459C7.35238 7.90573 7.21911 7.86356 7.0815 7.85099C6.94389 7.83841 6.80519 7.85572 6.67489 7.90173C6.54459 7.94774 6.42577 8.02136 6.32657 8.11756C6.22737 8.21375 6.15013 8.33025 6.10013 8.45907C6.05013 8.58789 6.02857 8.726 6.0369 8.86393C6.04524 9.00186 6.08328 9.13636 6.14843 9.25823C6.21358 9.38009 6.30429 9.48643 6.41436 9.56998L8.02311 11.1787C8.11266 11.2676 8.21888 11.338 8.33567 11.3858C8.45247 11.4336 8.57754 11.4578 8.70373 11.4572C8.95711 11.4511 9.19941 11.352 9.38436 11.1787L12.5812 7.97154C12.6723 7.88311 12.7447 7.77731 12.7941 7.6604C12.8435 7.54349 12.869 7.41785 12.869 7.29092C12.869 7.16399 12.8435 7.03835 12.7941 6.92144C12.7447 6.80453 12.6723 6.69872 12.5812 6.61029Z" fill="#199675"/>
<path d="M23.8835 15.6028H14.6023C14.3643 15.6028 14.1361 15.6973 13.9679 15.8656C13.7996 16.0338 13.7051 16.262 13.7051 16.5C13.7051 16.7379 13.7996 16.9661 13.9679 17.1344C14.1361 17.3026 14.3643 17.3972 14.6023 17.3972H23.8835C24.1215 17.3972 24.3497 17.3026 24.5179 17.1344C24.6862 16.9661 24.7807 16.7379 24.7807 16.5C24.7807 16.262 24.6862 16.0338 24.5179 15.8656C24.3497 15.6973 24.1215 15.6028 23.8835 15.6028Z" fill="#199675"/>
<path d="M23.8835 19.305H14.6023C14.3643 19.305 14.1361 19.3995 13.9679 19.5678C13.7996 19.736 13.7051 19.9642 13.7051 20.2022C13.7051 20.4401 13.7996 20.6683 13.9679 20.8366C14.1361 21.0048 14.3643 21.0994 14.6023 21.0994H23.8835C24.1215 21.0994 24.3497 21.0048 24.5179 20.8366C24.6862 20.6683 24.7807 20.4401 24.7807 20.2022C24.7807 19.9642 24.6862 19.736 24.5179 19.5678C24.3497 19.3995 24.1215 19.305 23.8835 19.305Z" fill="#199675"/>
</svg>
