<svg width="33" height="33" viewBox="0 0 33 33" fill="none" xmlns="http://www.w3.org/2000/svg">
<path d="M27.8438 23.7188H5.15625C4.02187 23.7188 3.09375 22.7906 3.09375 21.6562V17.5312C3.09375 15.2625 4.95 13.4062 7.21875 13.4062H25.7812C28.05 13.4062 29.9062 15.2625 29.9062 17.5312V21.6562C29.9062 22.7906 28.9781 23.7188 27.8438 23.7188Z" stroke="#199675" stroke-width="2" stroke-miterlimit="10" stroke-linecap="round" stroke-linejoin="round"/>
<path d="M26.8125 13.4062H6.1875L8.25 8.6625C8.86875 7.21875 10.3125 6.1875 11.9625 6.1875H20.9344C22.5844 6.1875 24.0281 7.21875 24.75 8.6625L26.8125 13.4062Z" stroke="#199675" stroke-width="2" stroke-miterlimit="10" stroke-linecap="round" stroke-linejoin="round"/>
<path d="M10.3125 23.7188H4.125V25.7812C4.125 26.9156 5.05312 27.8438 6.1875 27.8438H8.25C9.38438 27.8438 10.3125 26.9156 10.3125 25.7812V23.7188Z" stroke="#199675" stroke-width="2" stroke-miterlimit="10" stroke-linecap="round" stroke-linejoin="round"/>
<path d="M28.875 23.7188H22.6875V25.7812C22.6875 26.9156 23.6156 27.8438 24.75 27.8438H26.8125C27.9469 27.8438 28.875 26.9156 28.875 25.7812V23.7188Z" stroke="#199675" stroke-width="2" stroke-miterlimit="10" stroke-linecap="round" stroke-linejoin="round"/>
<path d="M3.09375 12.375H6.6" stroke="#199675" stroke-width="2" stroke-miterlimit="10" stroke-linecap="round" stroke-linejoin="round"/>
<path d="M26.8125 12.375H29.9062" stroke="#199675" stroke-width="2" stroke-miterlimit="10" stroke-linecap="round" stroke-linejoin="round"/>
<path d="M21.6562 23.7188H11.3438L12.7875 20.7281C13.0969 20.0063 13.8187 19.5938 14.6437 19.5938H18.2531C19.0781 19.5938 19.8 20.0063 20.1094 20.7281L21.6562 23.7188Z" stroke="#199675" stroke-width="2" stroke-miterlimit="10" stroke-linecap="round" stroke-linejoin="round"/>
<path d="M6.1875 18.5625H9.28125" stroke="#199675" stroke-width="2" stroke-miterlimit="10" stroke-linecap="round" stroke-linejoin="round"/>
<path d="M23.7188 18.5625H26.8125" stroke="#199675" stroke-width="2" stroke-miterlimit="10" stroke-linecap="round" stroke-linejoin="round"/>
</svg>
