<svg width="33" height="33" viewBox="0 0 33 33" fill="none" xmlns="http://www.w3.org/2000/svg">
<g clip-path="url(#clip0_6834_7505)">
<path d="M21.6563 30.9375C20.0246 30.9375 18.4295 30.4536 17.0728 29.5471C15.7161 28.6406 14.6587 27.3521 14.0342 25.8446C13.4098 24.3372 13.2464 22.6784 13.5648 21.078C13.8831 19.4777 14.6688 18.0077 15.8226 16.8539C16.9764 15.7001 18.4464 14.9144 20.0468 14.596C21.6471 14.2777 23.3059 14.4411 24.8134 15.0655C26.3209 15.6899 27.6094 16.7473 28.5159 18.104C29.4224 19.4608 29.9063 21.0558 29.9063 22.6875C29.9063 24.8755 29.0371 26.974 27.4899 28.5211C25.9427 30.0683 23.8443 30.9375 21.6563 30.9375ZM21.6563 16.5C20.4325 16.5 19.2362 16.8629 18.2187 17.5428C17.2011 18.2227 16.4081 19.189 15.9397 20.3196C15.4714 21.4503 15.3489 22.6944 15.5876 23.8946C15.8264 25.0949 16.4157 26.1974 17.281 27.0627C18.1464 27.9281 19.2489 28.5174 20.4491 28.7561C21.6494 28.9949 22.8935 28.8723 24.0241 28.404C25.1547 27.9357 26.1211 27.1426 26.801 26.1251C27.4809 25.1076 27.8438 23.9113 27.8438 22.6875C27.8438 21.0465 27.1919 19.4727 26.0315 18.3123C24.8711 17.1519 23.2973 16.5 21.6563 16.5Z" fill="#199675"/>
<path d="M23.2959 25.7812L20.625 23.1103V18.5625H22.6875V22.2647L24.75 24.3272L23.2959 25.7812Z" fill="#199675"/>
<path d="M28.875 6.1875C28.875 5.64049 28.6577 5.11589 28.2709 4.72909C27.8841 4.3423 27.3595 4.125 26.8125 4.125H22.6875V2.0625H20.625V4.125H12.375V2.0625H10.3125V4.125H6.1875C5.64049 4.125 5.11589 4.3423 4.72909 4.72909C4.3423 5.11589 4.125 5.64049 4.125 6.1875V26.8125C4.125 27.3595 4.3423 27.8841 4.72909 28.2709C5.11589 28.6577 5.64049 28.875 6.1875 28.875H10.3125V26.8125H6.1875V6.1875H10.3125V8.25H12.375V6.1875H20.625V8.25H22.6875V6.1875H26.8125V12.375H28.875V6.1875Z" fill="#199675"/>
</g>
<defs>
<clipPath id="clip0_6834_7505">
<rect width="33" height="33" fill="white"/>
</clipPath>
</defs>
</svg>
