<svg width="33" height="33" viewBox="0 0 33 33" fill="none" xmlns="http://www.w3.org/2000/svg">
<g clip-path="url(#clip0_6834_7497)">
<path d="M10.3125 22.6875C11.4065 22.6875 12.4557 22.2529 13.2293 21.4793C14.0029 20.7057 14.4375 19.6565 14.4375 18.5625C14.4375 17.4685 14.0029 16.4193 13.2293 15.6457C12.4557 14.8721 11.4065 14.4375 10.3125 14.4375C9.21848 14.4375 8.16927 14.8721 7.39569 15.6457C6.6221 16.4193 6.1875 17.4685 6.1875 18.5625C6.1875 19.6565 6.6221 20.7057 7.39569 21.4793C8.16927 22.2529 9.21848 22.6875 10.3125 22.6875ZM10.3125 16.5C10.8595 16.5 11.3841 16.7173 11.7709 17.1041C12.1577 17.4909 12.375 18.0155 12.375 18.5625C12.375 19.1095 12.1577 19.6341 11.7709 20.0209C11.3841 20.4077 10.8595 20.625 10.3125 20.625C9.76549 20.625 9.24088 20.4077 8.85409 20.0209C8.4673 19.6341 8.25 19.1095 8.25 18.5625C8.25 18.0155 8.4673 17.4909 8.85409 17.1041C9.24088 16.7173 9.76549 16.5 10.3125 16.5ZM15.4688 24.75H5.15625C3.78873 24.75 2.47722 25.2932 1.51023 26.2602C0.543246 27.2272 0 28.5387 0 29.9062C0 30.7268 0.325949 31.5137 0.90614 32.0939C1.48633 32.6741 2.27324 33 3.09375 33H17.5312C18.3518 33 19.1387 32.6741 19.7189 32.0939C20.2991 31.5137 20.625 30.7268 20.625 29.9062C20.625 28.5387 20.0818 27.2272 19.1148 26.2602C18.1478 25.2932 16.8363 24.75 15.4688 24.75ZM17.5312 30.9375H3.09375C2.82025 30.9375 2.55794 30.8289 2.36455 30.6355C2.17115 30.4421 2.0625 30.1798 2.0625 29.9062C2.0625 29.0857 2.38845 28.2988 2.96864 27.7186C3.54883 27.1384 4.33574 26.8125 5.15625 26.8125H15.4688C16.2893 26.8125 17.0762 27.1384 17.6564 27.7186C18.2366 28.2988 18.5625 29.0857 18.5625 29.9062C18.5625 30.1798 18.4539 30.4421 18.2605 30.6355C18.0671 30.8289 17.8048 30.9375 17.5312 30.9375ZM33 5.15625V15.4688C33 16.8363 32.4568 18.1478 31.4898 19.1148C30.5228 20.0818 29.2113 20.625 27.8438 20.625H22.0832L18.2614 24.4489C18.1654 24.5446 18.0516 24.6204 17.9263 24.6721C17.801 24.7238 17.6668 24.7502 17.5312 24.75C17.396 24.7503 17.2621 24.7237 17.1373 24.6716C16.9487 24.5937 16.7875 24.4615 16.6741 24.2919C16.5606 24.1223 16.5 23.9228 16.5 23.7188V19.5938C16.5 19.3202 16.6086 19.0579 16.802 18.8645C16.9954 18.6711 17.2577 18.5625 17.5312 18.5625C17.8048 18.5625 18.0671 18.6711 18.2605 18.8645C18.4539 19.0579 18.5625 19.3202 18.5625 19.5938V21.2293L20.9261 18.8636C21.0221 18.7679 21.1359 18.6921 21.2612 18.6404C21.3865 18.5887 21.5207 18.5623 21.6562 18.5625H27.8438C28.6643 18.5625 29.4512 18.2366 30.0314 17.6564C30.6116 17.0762 30.9375 16.2893 30.9375 15.4688V5.15625C30.9375 4.33574 30.6116 3.54883 30.0314 2.96864C29.4512 2.38845 28.6643 2.0625 27.8438 2.0625H13.4062C12.5857 2.0625 11.7988 2.38845 11.2186 2.96864C10.6384 3.54883 10.3125 4.33574 10.3125 5.15625V11.3438C10.3125 11.6173 10.2039 11.8796 10.0105 12.073C9.81706 12.2664 9.55475 12.375 9.28125 12.375C9.00775 12.375 8.74544 12.2664 8.55205 12.073C8.35865 11.8796 8.25 11.6173 8.25 11.3438V5.15625C8.25 3.78873 8.79325 2.47722 9.76023 1.51023C10.7272 0.543246 12.0387 0 13.4062 0L27.8438 0C29.2113 0 30.5228 0.543246 31.4898 1.51023C32.4568 2.47722 33 3.78873 33 5.15625ZM16.8011 12.6761L21.2293 8.25H17.5312C17.2577 8.25 16.9954 8.14135 16.802 7.94795C16.6086 7.75456 16.5 7.49225 16.5 7.21875C16.5 6.94525 16.6086 6.68294 16.802 6.48955C16.9954 6.29615 17.2577 6.1875 17.5312 6.1875H23.7188C23.8539 6.18755 23.9878 6.21418 24.1127 6.26588C24.3651 6.37169 24.5658 6.57242 24.6716 6.82481C24.7233 6.94972 24.7499 7.08357 24.75 7.21875V13.4062C24.75 13.6798 24.6414 13.9421 24.448 14.1355C24.2546 14.3289 23.9923 14.4375 23.7188 14.4375C23.4452 14.4375 23.1829 14.3289 22.9895 14.1355C22.7961 13.9421 22.6875 13.6798 22.6875 13.4062V9.70819L18.2614 14.1364C18.1654 14.2321 18.0516 14.3079 17.9263 14.3596C17.801 14.4113 17.6668 14.4377 17.5312 14.4375C17.3957 14.4377 17.2615 14.4113 17.1362 14.3596C17.0109 14.3079 16.8971 14.2321 16.8011 14.1364C16.7051 14.0406 16.6289 13.9268 16.5769 13.8015C16.5249 13.6762 16.4982 13.5419 16.4982 13.4062C16.4982 13.2706 16.5249 13.1363 16.5769 13.011C16.6289 12.8857 16.7051 12.7719 16.8011 12.6761Z" fill="#199675"/>
</g>
<defs>
<clipPath id="clip0_6834_7497">
<rect width="33" height="33" fill="white"/>
</clipPath>
</defs>
</svg>
