<svg width="32" height="32" viewBox="0 0 32 32" fill="none" xmlns="http://www.w3.org/2000/svg">
<g clip-path="url(#clip0_37_1208)">
<path d="M15.6649 0.0582837C15.0964 0.0582837 14.5851 0.580774 14.6422 1.16162V1.21953V5.22611C14.5855 5.80693 14.9831 6.32945 15.5515 6.44568C16.12 6.5036 16.6314 6.09736 16.7452 5.51655V5.22614V1.21957C16.8018 0.638755 16.3472 0.0583759 15.7791 0C15.7217 0.058324 15.6649 0.0582837 15.6649 0.0582837ZM15.6649 8.41969C11.5732 8.41969 8.22039 11.7875 8.22039 16.0261C8.22039 20.2648 11.5732 23.6325 15.6649 23.6325C19.7566 23.6325 23.1094 20.2067 23.1094 16.0261C23.0528 11.8454 19.7566 8.47757 15.6649 8.41969ZM15.6649 10.8584C18.4496 10.8584 20.7227 13.1808 20.7227 16.0262C20.7227 18.8716 18.4498 21.1939 15.6649 21.1939V10.8584ZM1.23024 14.9812C0.661789 14.9233 0.150386 15.3296 0.0366259 15.9104C-0.0200604 16.4912 0.377541 17.0137 0.945988 17.1299H1.23022H5.15154C5.72 17.1879 6.2314 16.7816 6.34516 16.2008C6.40185 15.62 6.00425 15.0975 5.43581 14.9812H5.15158H1.23024ZM26.2352 14.9812C25.6667 14.9233 25.1553 15.3296 25.0416 15.9104C24.9849 16.4912 25.3825 17.0137 25.9509 17.1299H26.2352H30.1565C30.7249 17.1879 31.2364 16.7816 31.3501 16.2008C31.4068 15.62 31.0092 15.0975 30.4407 14.9812H30.1565H26.2352ZM15.6649 25.6071C15.0964 25.6071 14.5851 26.1296 14.6422 26.7105V26.7683V30.775C14.5855 31.3558 14.9831 31.8783 15.5515 31.9945C16.12 32.0525 16.6314 31.6462 16.7452 31.0654V30.775V26.7684C16.8018 26.1875 16.3472 25.6072 15.7791 25.5488C15.7217 25.6072 15.6649 25.6071 15.6649 25.6071ZM26.6898 4.70378C26.2351 4.23921 25.4962 4.23921 25.042 4.70378L22.2572 7.54908C21.8026 8.01363 21.8026 8.76863 22.2572 9.23277C22.7119 9.69732 23.4508 9.69732 23.9051 9.23277L26.6898 6.38745C27.2012 5.9812 27.2012 5.22626 26.6898 4.70378C26.7465 4.7617 26.7465 4.7617 26.6898 4.70378ZM6.23123 4.70378C5.77654 4.23921 5.03761 4.23921 4.58338 4.70378C4.12869 5.16835 4.12869 5.92335 4.58338 6.38745L7.3681 9.23277C7.82284 9.69732 8.56177 9.69732 9.01597 9.23277C9.47064 8.76814 9.47064 8.01315 9.01597 7.54908L6.23123 4.70378ZM23.962 22.82C23.5073 22.3554 22.7684 22.3554 22.3141 22.82C21.8595 23.2846 21.8595 24.0396 22.3141 24.5037L25.0989 27.3489C25.5536 27.8135 26.2925 27.8135 26.7468 27.3489C27.2014 26.8844 27.2014 26.1294 26.7468 25.6653L23.962 22.82ZM9.0159 22.82C8.56116 22.3554 7.82223 22.3554 7.36803 22.82L4.58328 25.6653C4.12859 26.1299 4.12859 26.8849 4.58328 27.3489C5.03796 27.8135 5.7769 27.8135 6.23113 27.3489L9.0159 24.5037C9.47057 24.0395 9.47057 23.2845 9.0159 22.82Z" fill="white"/>
</g>
<defs>
<clipPath id="clip0_37_1208">
<rect width="32" height="32" fill="white"/>
</clipPath>
</defs>
</svg>
