<svg width="58" height="50" viewBox="0 0 58 50" fill="none" xmlns="http://www.w3.org/2000/svg">
<g filter="url(#filter0_d_32_14)">
<path d="M34.0829 22.6016C34.203 23.3744 34.2662 24.1653 34.2662 24.972C34.2662 30.4768 31.9907 35.3032 27.6303 38.0012C25.2928 39.4479 22.5366 40.2821 19.5856 40.2821C11.1298 40.2827 4.2749 33.4278 4.2749 24.972C4.2749 16.5162 11.1298 9.66138 19.5856 9.66138C23.4718 9.66138 27.0172 11.1119 29.7175 13.4977L25.677 17.7478C24.0316 16.3587 21.9077 15.5179 19.5856 15.5179C14.3646 15.5179 10.132 19.7505 10.132 24.9715C10.132 30.1925 14.3646 34.4251 19.5856 34.4251C22.5223 34.4251 25.1463 33.0859 26.88 30.985C27.4997 30.2342 27.8531 29.4324 27.8696 28.4648H19.596V22.6099L34.0829 22.6016Z" fill="white"/>
<path d="M53.6694 22.2333H47.5006V16.0645H43.346V22.2333H37.1826V26.3824H43.346V32.5513H47.5006V26.3824H53.6694V22.2333Z" fill="white"/>
</g>
<defs>
<filter id="filter0_d_32_14" x="0" y="0" width="58" height="58" filterUnits="userSpaceOnUse" color-interpolation-filters="sRGB">
<feFlood flood-opacity="0" result="BackgroundImageFix"/>
<feColorMatrix in="SourceAlpha" type="matrix" values="0 0 0 0 0 0 0 0 0 0 0 0 0 0 0 0 0 0 127 0" result="hardAlpha"/>
<feOffset dy="4"/>
<feGaussianBlur stdDeviation="2"/>
<feComposite in2="hardAlpha" operator="out"/>
<feColorMatrix type="matrix" values="0 0 0 0 0 0 0 0 0 0 0 0 0 0 0 0 0 0 0.25 0"/>
<feBlend mode="normal" in2="BackgroundImageFix" result="effect1_dropShadow_32_14"/>
<feBlend mode="normal" in="SourceGraphic" in2="effect1_dropShadow_32_14" result="shape"/>
</filter>
</defs>
</svg>
