<svg width="58" height="58" viewBox="0 0 58 58" fill="none" xmlns="http://www.w3.org/2000/svg">
<g clip-path="url(#clip0_34_5)" filter="url(#filter0_d_34_5)">
<path fill-rule="evenodd" clip-rule="evenodd" d="M46.3889 7.45278C41.7678 2.82616 35.622 0.277402 29.0745 0.274658C15.5832 0.274658 4.60333 11.254 4.59784 24.7491C4.59619 29.0629 5.72294 33.2735 7.86501 36.9858L4.39258 49.6692L17.368 46.2654C20.943 48.2153 24.9681 49.2433 29.0646 49.2444H29.0745C29.075 49.2444 29.0739 49.2444 29.0745 49.2444C42.5641 49.2444 53.5451 38.264 53.5506 24.7683C53.5533 18.2285 51.01 12.0794 46.3889 7.45278ZM19.1347 25.6398C18.829 25.2315 16.6375 22.3238 16.6375 19.3135C16.6375 16.3032 18.2176 14.8235 18.7779 14.2116C19.3383 13.5997 20.0013 13.4465 20.409 13.4465C20.8168 13.4465 21.2251 13.4504 21.5813 13.4679C21.9567 13.4871 22.4611 13.3252 22.9572 14.5178C23.4671 15.7423 24.6899 18.7532 24.843 19.0589C24.9961 19.3651 25.0977 19.7218 24.8941 20.1302C24.6904 20.5379 24.5884 20.7931 24.2827 21.1504C23.977 21.5077 23.6405 21.9479 23.365 22.2217C23.0588 22.5269 22.7399 22.8578 23.0966 23.4698C23.4534 24.0823 24.6806 26.0849 26.4988 27.7067C28.8346 29.7906 30.8055 30.4361 31.4169 30.7423C32.0283 31.0485 32.385 30.9975 32.7417 30.5892C33.0985 30.1809 34.2708 28.8033 34.6786 28.1914C35.0863 27.5794 35.4941 27.6815 36.0545 27.8851C36.6154 28.0893 39.6219 29.5689 40.2333 29.8746C40.8446 30.1809 41.2524 30.334 41.4055 30.5892C41.5587 30.8444 41.5587 32.0688 41.0488 33.4974C40.5389 34.926 38.0956 36.23 36.9205 36.4051C35.8668 36.5626 34.5337 36.6285 33.0683 36.1625C32.1803 35.881 31.0409 35.5045 29.5816 34.8744C23.4473 32.2252 19.4409 26.0482 19.1347 25.6398Z" fill="white"/>
</g>
<defs>
<filter id="filter0_d_34_5" x="0" y="0" width="58" height="58" filterUnits="userSpaceOnUse" color-interpolation-filters="sRGB">
<feFlood flood-opacity="0" result="BackgroundImageFix"/>
<feColorMatrix in="SourceAlpha" type="matrix" values="0 0 0 0 0 0 0 0 0 0 0 0 0 0 0 0 0 0 127 0" result="hardAlpha"/>
<feOffset dy="4"/>
<feGaussianBlur stdDeviation="2"/>
<feComposite in2="hardAlpha" operator="out"/>
<feColorMatrix type="matrix" values="0 0 0 0 0 0 0 0 0 0 0 0 0 0 0 0 0 0 0.25 0"/>
<feBlend mode="normal" in2="BackgroundImageFix" result="effect1_dropShadow_34_5"/>
<feBlend mode="normal" in="SourceGraphic" in2="effect1_dropShadow_34_5" result="shape"/>
</filter>
<clipPath id="clip0_34_5">
<rect width="50" height="50" fill="white" transform="translate(4)"/>
</clipPath>
</defs>
</svg>
