<svg width="16" height="16" viewBox="0 0 16 16" fill="none" xmlns="http://www.w3.org/2000/svg">
<path opacity="0.4" d="M0.5 4.937V11.063C0.5 13.7173 2.207 15.5 4.74875 15.5H11.2513C13.793 15.5 15.5 13.7173 15.5 11.063V4.937C15.5 2.2835 13.7923 0.5 11.2505 0.5H4.74875C2.207 0.5 0.5 2.2835 0.5 4.937" fill="#E44141"/>
<path d="M4.79074 8.64123L7.60174 11.465C7.81324 11.6772 8.18749 11.6772 8.39974 11.465L11.2107 8.64123C11.4297 8.42073 11.429 8.06448 11.2085 7.84548C10.988 7.62648 10.6325 7.62648 10.4127 7.84698L8.56249 9.70473V4.93848C8.56249 4.62723 8.31049 4.37598 7.99999 4.37598C7.68949 4.37598 7.43749 4.62723 7.43749 4.93848V9.70473L5.58799 7.84698C5.47774 7.73673 5.33374 7.68198 5.18899 7.68198C5.04574 7.68198 4.90174 7.73673 4.79224 7.84548C4.57249 8.06448 4.57174 8.42073 4.79074 8.64123" fill="#E44141"/>
</svg>
