<svg width="16" height="16" viewBox="0 0 16 16" fill="none" xmlns="http://www.w3.org/2000/svg">
<path opacity="0.4" d="M0.5 11.063V4.937C0.5 2.28275 2.207 0.499999 4.74875 0.499999H11.2513C13.793 0.499999 15.5 2.28275 15.5 4.937V11.063C15.5 13.7165 13.7923 15.5 11.2505 15.5H4.74875C2.207 15.5 0.5 13.7165 0.5 11.063" fill="#199675"/>
<path d="M4.79074 7.35877L7.60174 4.53502C7.81324 4.32277 8.18749 4.32277 8.39974 4.53502L11.2107 7.35877C11.4297 7.57927 11.429 7.93552 11.2085 8.15452C10.988 8.37352 10.6325 8.37352 10.4127 8.15302L8.56249 6.29527V11.0615C8.56249 11.3728 8.31049 11.624 7.99999 11.624C7.68949 11.624 7.43749 11.3728 7.43749 11.0615V6.29527L5.58799 8.15302C5.47774 8.26327 5.33374 8.31802 5.18899 8.31802C5.04574 8.31802 4.90174 8.26327 4.79224 8.15452C4.57249 7.93552 4.57174 7.57927 4.79074 7.35877" fill="#199675"/>
</svg>
