<svg width="28" height="25" viewBox="0 0 28 25" fill="none" xmlns="http://www.w3.org/2000/svg">
<path fill-rule="evenodd" clip-rule="evenodd" d="M0.666751 14.7373V23.3333C0.666751 23.8853 1.11475 24.3333 1.66675 24.3333H3.81875C4.05557 24.3334 4.28472 24.2494 4.46541 24.0963C4.64609 23.9432 4.76658 23.7309 4.80542 23.4973L5.33342 20.3333H22.6667L23.1934 23.4973C23.2323 23.7309 23.3527 23.9432 23.5334 24.0963C23.7141 24.2494 23.9433 24.3334 24.1801 24.3333H26.3334C26.5986 24.3333 26.853 24.228 27.0405 24.0404C27.2281 23.8529 27.3334 23.5985 27.3334 23.3333V14.7373C27.3335 13.1699 26.8695 11.6375 26.0001 10.3333L24.9601 8.77331C24.8673 8.63443 24.7879 8.48711 24.7227 8.33331H26.0481C26.2339 8.33331 26.416 8.28153 26.5741 8.18379C26.7321 8.08606 26.8598 7.94622 26.9427 7.77998L27.2761 7.11331C27.3521 6.96096 27.388 6.7917 27.3804 6.62158C27.3727 6.45146 27.3217 6.28613 27.2322 6.14124C27.1428 5.99635 27.0178 5.8767 26.8691 5.79365C26.7204 5.71059 26.553 5.66688 26.3827 5.66665H24.1334L23.7201 3.60531C23.5943 2.97752 23.2904 2.39923 22.8447 1.93957C22.399 1.47991 21.8304 1.15835 21.2067 1.01331C19.2574 0.55998 16.8547 0.333313 14.0001 0.333313C11.1441 0.333313 8.74275 0.55998 6.79342 1.01331C6.16955 1.15812 5.60061 1.47959 5.15465 1.93926C4.70869 2.39893 4.4046 2.97735 4.27875 3.60531L3.86542 5.66665H1.61875C1.44846 5.66688 1.28105 5.71059 1.13239 5.79365C0.983729 5.8767 0.858739 5.99635 0.769268 6.14124C0.679796 6.28613 0.628807 6.45146 0.621133 6.62158C0.613459 6.7917 0.649355 6.96096 0.725417 7.11331L1.05875 7.77998C1.14164 7.94602 1.26911 8.08572 1.42688 8.18344C1.58465 8.28117 1.7665 8.33306 1.95208 8.33331H3.27875C3.2136 8.48709 3.13414 8.63441 3.04142 8.77331L2.00008 10.3333C1.13075 11.6373 0.666751 13.1693 0.666751 14.7373ZM21.9481 8.33865C22.0399 8.7998 22.1924 9.24679 22.4014 9.66798H5.59875C5.80808 9.24798 5.96008 8.80131 6.05208 8.33865L6.89475 4.12931C6.91962 4.00346 6.98028 3.88746 7.06944 3.79522C7.1586 3.70299 7.27248 3.63844 7.39742 3.60931C9.12808 3.20931 11.3334 2.99998 14.0001 2.99998C16.6667 2.99998 18.8721 3.20798 20.6027 3.61065C20.7278 3.63945 20.8418 3.7037 20.9312 3.7957C21.0206 3.8877 21.0815 4.00353 21.1067 4.12931L21.9481 8.33865ZM5.33342 16.3333C5.86385 16.3333 6.37256 16.1226 6.74763 15.7475C7.1227 15.3725 7.33342 14.8637 7.33342 14.3333C7.33342 13.8029 7.1227 13.2942 6.74763 12.9191C6.37256 12.544 5.86385 12.3333 5.33342 12.3333C4.80298 12.3333 4.29428 12.544 3.9192 12.9191C3.54413 13.2942 3.33342 13.8029 3.33342 14.3333C3.33342 14.8637 3.54413 15.3725 3.9192 15.7475C4.29428 16.1226 4.80298 16.3333 5.33342 16.3333ZM24.6667 14.3333C24.6667 14.8637 24.456 15.3725 24.081 15.7475C23.7059 16.1226 23.1972 16.3333 22.6667 16.3333C22.1363 16.3333 21.6276 16.1226 21.2525 15.7475C20.8775 15.3725 20.6667 14.8637 20.6667 14.3333C20.6667 13.8029 20.8775 13.2942 21.2525 12.9191C21.6276 12.544 22.1363 12.3333 22.6667 12.3333C23.1972 12.3333 23.7059 12.544 24.081 12.9191C24.456 13.2942 24.6667 13.8029 24.6667 14.3333Z" fill="white"/>
</svg>
