<svg width="36" height="36" viewBox="0 0 36 36" fill="none" xmlns="http://www.w3.org/2000/svg">
<g clip-path="url(#clip0_7383_10972)">
<path d="M23.3516 0.85498V2.91893V4.98296V9.72961H28.0983H30.1623H32.2265L23.3516 0.85498Z" fill="white"/>
<path d="M31.6221 12.6484H30.1626H21.8923C21.0863 12.6484 20.4328 11.995 20.4328 11.189V2.91888V1.45948V0H9.24366C8.43766 0 7.78418 0.653484 7.78418 1.45948V29.6757C7.78418 30.4817 8.43766 31.1351 9.24366 31.1351H31.622C32.428 31.1351 33.0815 30.4817 33.0815 29.6757V12.6484H31.6221ZM25.7843 25.2973H15.0816C14.2756 25.2973 13.6221 24.6438 13.6221 23.8378C13.6221 23.0318 14.2756 22.3784 15.0816 22.3784H25.7843C26.5902 22.3784 27.2437 23.0318 27.2437 23.8378C27.2437 24.6438 26.5902 25.2973 25.7843 25.2973ZM25.7843 19.4595H15.0816C14.2756 19.4595 13.6221 18.806 13.6221 18C13.6221 17.194 14.2756 16.5405 15.0816 16.5405H25.7843C26.5902 16.5405 27.2437 17.194 27.2437 18C27.2437 18.806 26.5902 19.4595 25.7843 19.4595Z" fill="white"/>
<path d="M26.7569 33.081H5.8379V6.32422C5.8379 5.51823 5.18441 4.86475 4.37842 4.86475C3.57243 4.86475 2.91895 5.51816 2.91895 6.32422V34.5404C2.91895 35.3464 3.57243 35.9999 4.37842 35.9999H26.7568C27.5628 35.9999 28.2163 35.3465 28.2163 34.5404C28.2163 33.7344 27.5628 33.081 26.7569 33.081Z" fill="white"/>
</g>
<defs>
<clipPath id="clip0_7383_10972">
<rect width="36" height="36" fill="white"/>
</clipPath>
</defs>
</svg>
