<svg width="40" height="24" viewBox="0 0 40 24" fill="none" xmlns="http://www.w3.org/2000/svg">
<path d="M11.2526 11.9959C11.2526 15.7984 14.337 18.8829 18.1395 18.8829C21.9421 18.8829 25.0265 15.7984 25.0265 11.9959C25.0265 8.19336 21.9421 5.10891 18.1395 5.10891C14.337 5.10891 11.2526 8.19336 11.2526 11.9959ZM18.7434 7.87513C18.7434 8.29128 18.7434 8.29128 19.1595 8.35656C19.4778 8.40552 19.7797 8.50344 20.0816 8.634C20.2448 8.70744 20.3019 8.82168 20.253 8.99304C20.1795 9.24599 20.1061 9.50711 20.0245 9.76007C19.951 9.99671 19.8694 10.0375 19.641 9.92327C19.1758 9.70295 18.6944 9.60503 18.1803 9.63767C18.0498 9.64583 17.9192 9.66215 17.7887 9.71927C17.348 9.91511 17.2746 10.3965 17.6499 10.6985C17.8376 10.8535 18.0579 10.9596 18.2783 11.0575C18.6699 11.2207 19.0616 11.3757 19.4288 11.5797C20.612 12.2325 20.9302 13.7176 20.0979 14.7295C19.796 15.0967 19.4043 15.3415 18.9474 15.4639C18.7515 15.521 18.6618 15.6189 18.6699 15.8311C18.6781 16.0351 18.6699 16.2391 18.6699 16.4431C18.6699 16.6226 18.5802 16.7205 18.4007 16.7287C18.1803 16.7368 17.96 16.7368 17.7479 16.7287C17.552 16.7287 17.4623 16.6144 17.4623 16.4267C17.4623 16.2799 17.4623 16.133 17.4623 15.9779C17.4623 15.6515 17.4459 15.6352 17.1359 15.5863C16.736 15.521 16.3362 15.4312 15.969 15.2517C15.6752 15.113 15.6508 15.0395 15.7324 14.7376C15.7976 14.5092 15.8548 14.2888 15.9282 14.0604C16.0098 13.7992 16.0832 13.7666 16.3199 13.889C16.7279 14.1012 17.1603 14.2236 17.6173 14.2807C17.9111 14.3133 18.1967 14.2888 18.4659 14.1664C18.9718 13.9461 19.0534 13.3586 18.621 13.0077C18.4741 12.8853 18.3109 12.7956 18.1395 12.7221C17.6989 12.5263 17.2338 12.3794 16.8095 12.1265C16.1322 11.7185 15.6997 11.1636 15.7487 10.3313C15.8058 9.39287 16.3362 8.81352 17.193 8.50344C17.5439 8.37288 17.552 8.38104 17.552 8.01384C17.552 7.89145 17.552 7.76089 17.552 7.63849C17.5602 7.36105 17.6091 7.31209 17.8866 7.30393C17.9763 7.30393 18.0579 7.30393 18.1477 7.30393C18.7352 7.27945 18.7352 7.27945 18.7434 7.87513ZM30.0612 11.9959C30.0612 13.0485 29.2044 13.9053 28.1518 13.9053C27.0991 13.9053 26.2424 13.0485 26.2424 11.9959C26.2424 10.9433 27.0991 10.0865 28.1518 10.0865C29.2044 10.0865 30.0612 10.9433 30.0612 11.9959ZM8.11914 10.0865C9.17177 10.0865 10.0286 10.9433 10.0286 11.9959C10.0286 13.0485 9.17177 13.9053 8.11914 13.9053C7.0665 13.9053 6.20971 13.0485 6.20971 11.9959C6.20971 10.9433 7.0665 10.0865 8.11914 10.0865ZM0 20.0824V3.9094C0 2.17949 1.41167 0.767822 3.14158 0.767822H33.1293C34.8592 0.767822 36.2709 2.17949 36.2709 3.9094V13.8237H33.5863V7.30393C33.3333 7.36921 33.0722 7.40185 32.8029 7.40185C31.0486 7.40185 29.6206 5.97386 29.6206 4.21947C29.6206 3.9502 29.6532 3.68908 29.7185 3.44428H6.37291C6.40555 3.63196 6.43003 3.8278 6.43003 4.0318C6.43003 5.78618 5.00204 7.21417 3.24765 7.21417C3.05998 7.21417 2.8723 7.19785 2.69278 7.16521V16.8266C2.8723 16.7939 3.05998 16.7776 3.24765 16.7776C5.00204 16.7776 6.43003 18.2056 6.43003 19.96C6.43003 20.164 6.41371 20.3517 6.37291 20.5475H25.0184V23.2321H3.14973C1.41167 23.224 0 21.8123 0 20.0824ZM35.8711 20.9718C36.0914 20.9718 36.2709 21.1513 36.2709 21.3717V22.8241C36.2709 23.0444 36.0914 23.224 35.8711 23.224H26.2424C26.022 23.224 25.8425 23.0444 25.8425 22.8241V21.3717C25.8425 21.1513 26.022 20.9718 26.2424 20.9718H35.8711ZM37.7397 20.0661H28.111C27.8907 20.0661 27.7111 19.8865 27.7111 19.6662V18.2138C27.7111 17.9934 27.8907 17.8139 28.111 17.8139H37.7397C37.96 17.8139 38.1395 17.9934 38.1395 18.2138V19.6662C38.1395 19.8865 37.96 20.0661 37.7397 20.0661ZM40 15.0559V16.5083C40 16.7287 39.8205 16.9082 39.6002 16.9082H29.9714C29.7511 16.9082 29.5716 16.7287 29.5716 16.5083V15.0559C29.5716 14.8355 29.7511 14.656 29.9714 14.656H39.6002C39.8205 14.656 40 14.8355 40 15.0559Z" fill="white"/>
</svg>
