<svg width="39" height="32" viewBox="0 0 39 32" fill="none" xmlns="http://www.w3.org/2000/svg">
<path fill-rule="evenodd" clip-rule="evenodd" d="M9.36171 27.9244V16.1782H14.5745C16.7839 16.579 18.9933 17.7944 21.2027 19.2038H25.2512C27.084 19.3152 28.0443 21.1986 26.2618 22.4363C24.8432 23.4925 22.9696 23.4321 21.0489 23.2571C19.7246 23.1903 19.6681 24.9942 21.0489 25.0006C21.5291 25.0388 22.0501 24.9242 22.5051 24.9242C24.8997 24.9211 26.8737 24.4566 28.082 22.5381L28.6877 21.1032L34.7102 18.0775C37.723 17.0722 39.8665 20.2665 37.6446 22.4904C33.2822 25.7069 28.8101 28.3539 24.2344 30.4919C20.9109 32.5409 17.5873 32.4709 14.267 30.4919L9.36171 27.9244ZM13.3098 0L35.7208 6.0863L32.5981 17.8994L10.1871 11.8131L13.3098 0ZM23.8766 5.47862C25.7722 5.99403 26.8957 7.96341 26.3873 9.88507C25.8789 11.8067 23.9362 12.9457 22.0407 12.4303C20.1451 11.9149 19.0216 9.94552 19.53 8.02386C20.0353 6.10221 21.9779 4.96321 23.8766 5.47862ZM16.5799 2.81567L31.4808 6.8626C31.2266 7.82342 31.7915 8.81925 32.7425 9.07377L31.5091 13.7443C30.5613 13.4866 29.579 14.0593 29.3279 15.0233L14.4239 10.9763C14.6781 10.0155 14.1132 9.02287 13.1623 8.76516L14.3956 4.09465C15.3434 4.35236 16.3257 3.77968 16.5799 2.81567ZM0 15.0487H7.79253V29.1048H0V15.0487Z" fill="white"/>
</svg>
