<svg width="33" height="37" viewBox="0 0 33 37" fill="none" xmlns="http://www.w3.org/2000/svg">
<g clip-path="url(#clip0_7273_3307)">
<path fill-rule="evenodd" clip-rule="evenodd" d="M3.44914 0H13.4549C14.4056 0 15.273 0.39445 15.894 1.02376C16.5238 1.66211 16.904 2.53231 16.904 3.49585V5.34465C16.9694 5.26636 17.0377 5.18807 17.109 5.1158C17.7388 4.47746 18.5974 4.09204 19.5481 4.09204H29.5538C30.5045 4.09204 31.372 4.48649 31.9929 5.1158C32.6227 5.75415 33.003 6.62435 33.003 7.58789V33.5072C33.003 34.4707 32.6138 35.3499 31.9929 35.9792C31.3631 36.6176 30.5045 37.003 29.5538 37.003H19.5451C18.5944 37.003 17.727 36.6086 17.1061 35.9792C16.4762 35.3409 16.096 34.4707 16.096 33.5072V31.6584C16.0306 31.7367 15.9623 31.8149 15.891 31.8872C15.2612 32.5256 14.4026 32.911 13.4519 32.911H3.44914C2.49847 32.911 1.63099 32.5165 1.01008 31.8872C0.380267 31.2489 0 30.3787 0 29.4151V3.49585C0 2.53231 0.389179 1.65308 1.01008 1.02376C1.6399 0.385417 2.49847 0 3.44914 0ZM2.38558 17.5605L9.01053 22.0681L8.45202 19.2618C8.7996 19.1112 9.14125 18.9818 9.47695 18.8674C9.83642 22.1283 12.5666 24.6637 15.8791 24.6637C15.9534 24.6637 16.0247 24.6637 16.0989 24.6606V27.5212H0.772416V3.4266H16.1197V7.18742C16.1049 7.31991 16.096 7.45239 16.096 7.58789V11.6047C16.0217 11.6016 15.9504 11.6016 15.8761 11.6016C13.9718 11.6016 12.2636 12.4387 11.0842 13.7666C9.88396 13.4836 8.60947 13.4595 7.33201 13.6642L6.76161 10.8037L2.38558 17.5605ZM16.9011 24.5793C18.1904 24.3716 19.355 23.7724 20.27 22.9112C21.6663 23.3719 23.1963 23.4592 24.7262 23.2123L25.2966 26.0728L29.6756 19.313L23.0507 14.8084L23.6092 17.6147C23.1725 17.8044 22.7447 17.964 22.3228 18.0935C22.305 14.8566 19.964 12.1768 16.9011 11.6829V7.70833H32.2157V31.6132H16.8684V29.8969C16.8892 29.7403 16.9011 29.5807 16.9011 29.4181V24.5793ZM16.4287 12.9386L16.3693 12.9325L16.3158 12.9265H16.3039C16.2802 12.9235 16.2534 12.9235 16.2297 12.9205H16.2267H16.2148H16.2029H16.191C16.1613 12.9175 16.1316 12.9175 16.1019 12.9145C16.0306 12.9115 15.9563 12.9084 15.8821 12.9084C14.5749 12.9084 13.3806 13.4053 12.4775 14.2243C12.424 14.2725 12.3705 14.3237 12.3171 14.3748L12.3052 14.3869C12.2755 14.414 12.2487 14.4441 12.222 14.4712L12.2012 14.4923C12.1864 14.5073 12.1745 14.5194 12.1596 14.5344C12.1418 14.5525 12.1269 14.5706 12.1091 14.5886L12.0735 14.6278C12.0586 14.6458 12.0408 14.6639 12.0259 14.682L12.0051 14.7061C11.9843 14.7332 11.9606 14.7572 11.9398 14.7843L11.9249 14.8024C11.9012 14.8295 11.8804 14.8596 11.8566 14.8897L11.8506 14.8958C11.8269 14.9259 11.8031 14.956 11.7823 14.9861L11.7793 14.9891C11.7556 15.0222 11.7318 15.0553 11.708 15.0885V15.0915C11.6367 15.1908 11.5714 15.2962 11.506 15.4016L11.5031 15.4076C11.4407 15.51 11.3842 15.6154 11.3308 15.7208L11.3189 15.7449C11.304 15.775 11.2892 15.8051 11.2743 15.8352L11.2595 15.8653C11.2476 15.8894 11.2387 15.9135 11.2268 15.9346L11.203 15.9858C11.1941 16.0068 11.1852 16.0249 11.1763 16.046L11.1555 16.0942C11.1466 16.1182 11.1347 16.1423 11.1258 16.1664C11.1169 16.1875 11.1109 16.2056 11.102 16.2266L11.0931 16.2537C11.0782 16.2929 11.0663 16.329 11.0515 16.3682L11.0485 16.3772C10.9535 16.6542 10.8792 16.9433 10.8317 17.2354V17.2384C10.8227 17.2865 10.8168 17.3317 10.8109 17.3799V17.3859C10.8019 17.4552 10.793 17.5274 10.7871 17.5967L10.7841 17.6418C10.7811 17.672 10.7782 17.7051 10.7782 17.7352L10.7752 17.7834C10.7722 17.8105 10.7722 17.8376 10.7722 17.8647C10.7722 17.8857 10.7693 17.9068 10.7693 17.9279V17.9791C10.7693 18.0092 10.7693 18.0363 10.7693 18.0664V18.1206C10.7693 18.1447 10.7693 18.1688 10.7693 18.1899C10.7693 18.2139 10.7693 18.238 10.7722 18.2621L10.7752 18.3133C10.7752 18.3434 10.7782 18.3765 10.7811 18.4067L10.7841 18.4518L10.7901 18.5151C11.004 21.1799 13.2024 23.2756 15.888 23.2756C15.9623 23.2756 16.0336 23.2725 16.1079 23.2695C16.301 23.2605 16.4911 23.2424 16.6783 23.2123L16.6901 23.2093L16.702 23.2063L16.7258 23.2033L16.7377 23.2003L16.7496 23.1973L16.7703 23.1943H16.7733L16.7852 23.1912L16.7971 23.1882L16.8149 23.1852H16.8506H16.8535L16.9011 23.1762H16.904C17.6289 23.0256 18.2974 22.7215 18.8767 22.297C19.046 22.1735 19.2064 22.038 19.3609 21.8935C19.4797 21.7821 19.5926 21.6646 19.6996 21.5412C20.5344 20.5897 20.9949 19.3672 20.9949 18.0935C20.9949 15.5461 19.1827 13.4264 16.7911 12.9928L16.7763 12.9897C16.7406 12.9837 16.705 12.9777 16.6693 12.9717L16.6456 12.9687C16.6129 12.9626 16.5802 12.9596 16.5475 12.9536L16.5089 12.9476C16.4822 12.9446 16.4554 12.9416 16.4287 12.9386ZM8.44608 28.6142C9.22443 28.6142 9.86613 29.2525 9.86613 30.0535C9.86613 30.8424 9.23632 31.4928 8.44608 31.4928C7.66772 31.4928 7.02602 30.8544 7.02602 30.0535C7.02602 29.2616 7.65583 28.6142 8.44608 28.6142ZM18.033 16.5007L16.6634 16.7205C16.5951 16.5458 16.5327 16.4254 16.4792 16.3561C16.4228 16.2899 16.3336 16.2206 16.2059 16.1514V17.2263C16.9486 17.4281 17.4447 17.6418 17.6972 17.8617C18.027 18.1628 18.1934 18.5422 18.1934 19.0059C18.1934 19.2738 18.134 19.5238 18.0151 19.7496C17.8963 19.9754 17.7448 20.1651 17.5606 20.3157C17.3764 20.4662 17.1803 20.5746 16.9724 20.6439C16.7644 20.7131 16.5089 20.7523 16.2089 20.7643V21.4659H15.6741V20.7643C15.3146 20.7312 15.0235 20.674 14.7977 20.5897C14.5749 20.5054 14.3818 20.3879 14.2184 20.2344C14.058 20.0838 13.9302 19.9212 13.8411 19.7466C13.752 19.5719 13.6866 19.3612 13.6421 19.1143L15.1245 18.9396C15.1691 19.1835 15.2285 19.3612 15.3028 19.4666C15.377 19.575 15.5018 19.6713 15.6711 19.7556V18.4398C15.175 18.3013 14.8245 18.1808 14.6165 18.0785C14.4085 17.9761 14.2303 17.8135 14.0788 17.5876C13.9273 17.3618 13.85 17.0908 13.85 16.7656C13.85 16.323 14.0015 15.9526 14.3075 15.6576C14.6135 15.3595 15.0681 15.1938 15.6711 15.1637V14.7994H16.2059V15.1637C16.7555 15.1969 17.1744 15.3293 17.4655 15.5582C17.7537 15.793 17.9438 16.1032 18.033 16.5007ZM15.6711 16.1303C15.5137 16.1815 15.4038 16.2477 15.3414 16.323C15.279 16.3983 15.2493 16.4916 15.2493 16.594C15.2493 16.7024 15.282 16.7957 15.3443 16.877C15.4067 16.9583 15.5167 17.0246 15.6711 17.0788V16.1303ZM16.2059 19.7978C16.4138 19.7496 16.5654 19.6713 16.6634 19.5629C16.7585 19.4545 16.809 19.3341 16.809 19.1986C16.809 19.0811 16.7674 18.9727 16.6872 18.8734C16.607 18.777 16.4465 18.6837 16.2089 18.5994V19.7978H16.2059Z" fill="white"/>
</g>
<defs>
<clipPath id="clip0_7273_3307">
<rect width="33" height="37" fill="white"/>
</clipPath>
</defs>
</svg>
