<svg width="32" height="28" viewBox="0 0 32 28" fill="none" xmlns="http://www.w3.org/2000/svg">
<path d="M31.0484 11.232L17.1918 0.861756C16.4819 0.329936 15.5062 0.329936 14.7957 0.861756L9.19164 5.05551V4.04368C9.19164 2.93999 8.29647 2.0442 7.19215 2.0442H5.34393C4.23945 2.0442 3.34444 2.93999 3.34444 4.04368V9.43101L0.80168 11.3345C0.111897 11.8503 -0.169412 12.7495 0.102486 13.5666C0.374383 14.3838 1.13888 14.9349 2.00001 14.9349H3.34512V25.5376C3.34512 26.6421 4.24029 27.5371 5.34461 27.5371H26.6428C27.7472 27.5371 28.6422 26.642 28.6422 25.5376V14.9349H29.9872C29.9919 14.9349 29.9959 14.9349 30.0006 14.9349C31.105 14.9349 32 14.0398 32 12.9355C31.9995 12.2151 31.619 11.5839 31.0484 11.232ZM21.0789 18.191C21.0789 20.4724 19.53 21.8601 17.2318 22.146V23.0625C17.2318 23.7431 16.6807 24.2948 15.9995 24.2948C15.3183 24.2948 14.7664 23.7423 14.7664 23.0625V22.044C13.5979 21.824 12.4603 21.3688 11.4571 20.651C11.1418 20.4298 10.9206 20.0218 10.9206 19.578C10.9206 18.8381 11.5118 18.2656 12.2523 18.2656C12.6222 18.2656 12.8801 18.3936 13.0654 18.5235C14.0478 19.2447 15.1196 19.6885 16.378 19.6885C17.5437 19.6885 18.2475 19.2267 18.2475 18.4675V18.4302C18.2475 17.7097 17.8037 17.3405 15.6381 16.7839C13.0307 16.1187 11.3459 15.3962 11.3459 12.8235V12.7862C11.3459 10.7833 12.7248 9.36832 14.767 8.9918V8.02667C14.767 7.34551 15.3189 6.79298 16.0001 6.79298C16.6813 6.79298 17.2326 7.34488 17.2326 8.02667V9.00048C18.2484 9.16712 19.1721 9.51096 19.9873 10.0302C20.3032 10.2129 20.6178 10.6035 20.6178 11.1587C20.6178 11.8979 20.0253 12.4724 19.2855 12.4724C19.0068 12.4724 18.7862 12.3984 18.5649 12.2678C17.6199 11.714 16.732 11.3981 15.8422 11.3981C14.7511 11.3981 14.178 11.898 14.178 12.5265V12.5645C14.178 13.4149 14.7325 13.693 16.972 14.2668C19.5981 14.9513 21.0797 15.8957 21.0797 18.1518V18.1912L21.0789 18.191Z" fill="white"/>
</svg>
