<svg width="38" height="37" viewBox="0 0 38 37" fill="none" xmlns="http://www.w3.org/2000/svg">
<g clip-path="url(#clip0_7383_11187)">
<path fill-rule="evenodd" clip-rule="evenodd" d="M15.4539 14.5219C16.5751 14.5219 17.6963 14.5219 18.8152 14.5219C19.9364 14.5219 21.0552 14.5219 22.179 14.5219C24.0386 14.5219 25.8044 15.3765 27.211 16.7169C28.6456 18.0841 29.7245 19.9386 30.0178 21.9929C30.1663 23.033 30.3147 24.0714 30.4644 25.1099L30.5064 25.4016C30.4781 25.4514 30.452 25.5032 30.4285 25.5568L29.4422 27.7956L27.041 28.0499L27.0121 28.0517C26.9701 28.055 26.929 28.061 26.889 28.0698C26.7776 28.0877 26.6686 28.1162 26.5636 28.1551C26.5199 27.8265 26.384 27.5232 26.1804 27.275C25.8965 26.9291 25.4806 26.6913 25.0004 26.6441L21.7605 26.3166L20.4445 23.367C20.3628 23.1635 20.245 22.9768 20.0952 22.8182C19.937 22.6507 19.7459 22.5124 19.5267 22.4159C19.0853 22.2217 18.6059 22.2251 18.1879 22.3876C17.7679 22.5508 17.4108 22.8726 17.2165 23.314L15.9019 26.2982L12.6337 26.6443L12.6339 26.6455L12.5894 26.6511C12.388 26.6768 12.1941 26.7352 12.0174 26.8252C11.8341 26.9187 11.6615 27.0504 11.5097 27.2202C11.2656 27.493 11.1225 27.8203 11.0781 28.1563C10.9414 28.1051 10.796 28.0706 10.6439 28.0556L8.21422 27.81L7.23169 25.6078C7.2036 25.5381 7.17112 25.4703 7.13466 25.4052L7.17829 25.1013C7.32674 24.066 7.47279 23.0298 7.62004 21.9933C7.91195 19.9384 8.99271 18.0851 10.4269 16.7173C11.8315 15.3771 13.5943 14.5219 15.4539 14.5219ZM18.8211 0C22.4567 0 25.4039 2.94717 25.4039 6.58277C25.4039 10.2184 22.4567 13.1655 18.8211 13.1655C15.1855 13.1655 12.2384 10.2184 12.2384 6.58277C12.2384 2.94717 15.1855 0 18.8211 0ZM6.39622 25.9667L7.59852 28.6616L10.5549 28.9605C10.9978 29.0041 11.3214 29.3984 11.2778 29.8414C11.2572 30.0498 11.1592 30.2315 11.0149 30.3614L11.0157 30.3624L8.78847 32.3709L9.41811 35.2768C9.51216 35.7126 9.2352 36.1424 8.79923 36.2366C8.57228 36.2857 8.34692 36.2341 8.16978 36.1117L5.62749 34.6466L3.05532 36.1452C2.66996 36.3683 2.17661 36.2368 1.95344 35.8517C1.84943 35.672 1.82233 35.4687 1.86238 35.2804L1.86178 35.2802L2.48386 32.3426L0.267149 30.3626C-0.0640124 30.0661 -0.0923065 29.5574 0.203985 29.2261C0.343264 29.0704 0.529368 28.9818 0.721848 28.9621L0.721648 28.9609L3.7021 28.6452L4.90081 25.924C5.08034 25.5159 5.55676 25.3308 5.96463 25.5104C6.17285 25.6016 6.32269 25.7698 6.39622 25.9667ZM19.6086 23.7254L21.1448 27.1686L24.9114 27.5493C25.3728 27.5948 25.7102 28.0056 25.6647 28.4671C25.6434 28.6841 25.5412 28.8738 25.3908 29.0091L25.3916 29.0101L22.5544 31.5687L23.3566 35.2707C23.4546 35.725 23.1659 36.1727 22.7118 36.2707C22.4753 36.3219 22.2405 36.2679 22.0558 36.1404L18.8044 34.2666L15.5285 36.1753C15.127 36.4078 14.6129 36.2709 14.3803 35.8692C14.272 35.6819 14.2439 35.4701 14.2855 35.2738L14.2849 35.2736L15.0771 31.5324L12.2531 29.0097C11.908 28.7008 11.8785 28.1706 12.1874 27.8253C12.3324 27.6631 12.5263 27.5707 12.7269 27.5501L12.7267 27.5489L16.5239 27.1468L18.051 23.6802C18.2381 23.255 18.7345 23.0621 19.1597 23.2492C19.3759 23.3449 19.5321 23.5202 19.6086 23.7254ZM32.7574 25.9667L33.9599 28.6616L36.9162 28.9605C37.3592 29.0041 37.6828 29.3984 37.6391 29.8414C37.6186 30.0498 37.5206 30.2315 37.3763 30.3614L37.3771 30.3624L35.1498 32.3711L35.7795 35.277C35.8735 35.7128 35.5966 36.1426 35.1608 36.2368C34.9339 36.2859 34.7085 36.2342 34.5314 36.1119L31.9891 34.6468L29.4169 36.1454C29.0315 36.3685 28.5382 36.237 28.315 35.8519C28.2108 35.6722 28.1839 35.4689 28.224 35.2806L28.2234 35.2804L28.8454 32.3428L26.6287 30.3628C26.2974 30.0663 26.2693 29.5576 26.5656 29.2263C26.7048 29.0707 26.8909 28.982 27.0834 28.9623V28.9611L30.0639 28.6454L31.2626 25.9242C31.4421 25.5161 31.9185 25.331 32.3264 25.5106C32.534 25.6016 32.6839 25.7698 32.7574 25.9667Z" fill="white"/>
</g>
<defs>
<clipPath id="clip0_7383_11187">
<rect width="37.6436" height="36.29" fill="white"/>
</clipPath>
</defs>
</svg>
