<svg width="38" height="20" viewBox="0 0 38 20" fill="none" xmlns="http://www.w3.org/2000/svg">
<path d="M25.667 0L30.667 6.66667H34.0003C35.8503 6.66667 37.3337 8.15 37.3337 10V15H34.0003C34.0003 17.7667 31.767 20 29.0003 20C26.2337 20 24.0003 17.7667 24.0003 15H14.0003C14.0003 17.7667 11.767 20 9.00033 20C6.23366 20 4.00033 17.7667 4.00033 15H0.666992V10C0.666992 8.15 2.15033 6.66667 4.00033 6.66667L9.00033 0H25.667ZM16.5003 2.5H10.2503L7.10033 6.66667H16.5003V2.5ZM19.0003 2.5V6.66667H27.567L24.417 2.5H19.0003ZM9.00033 12.5C7.61699 12.5 6.50033 13.6167 6.50033 15C6.50033 16.3833 7.61699 17.5 9.00033 17.5C10.3837 17.5 11.5003 16.3833 11.5003 15C11.5003 13.6167 10.3837 12.5 9.00033 12.5ZM29.0003 12.5C27.617 12.5 26.5003 13.6167 26.5003 15C26.5003 16.3833 27.617 17.5 29.0003 17.5C30.3837 17.5 31.5003 16.3833 31.5003 15C31.5003 13.6167 30.3837 12.5 29.0003 12.5Z" fill="white"/>
</svg>
