<svg width="35" height="35" viewBox="0 0 35 35" fill="none" xmlns="http://www.w3.org/2000/svg">
<g clip-path="url(#clip0_6814_434)">
<path fill-rule="evenodd" clip-rule="evenodd" d="M13.7334 21.2249C13.3663 21.7615 13.0074 22.303 12.6 22.8136C12.7846 23.2743 13.5769 23.6729 14.6508 23.9326V25.4659C14.3418 25.4721 14.0499 25.4851 13.7901 25.5097C13.1633 25.5705 12.6868 25.8228 12.3642 26.2514C12.0634 26.6506 11.9219 27.1811 11.9383 27.8284V34.6029H1.91611C0.712988 34.5113 0.101172 33.8905 0 32.8125L0.416309 30.9518C0.533203 29.4287 0.959766 27.3759 1.65566 26.4572C2.11504 25.8508 2.68379 25.403 3.31543 25.0517C5.19531 24.0024 10.0632 23.6517 12.1365 22.2517L13.1701 20.7826C13.0368 20.6692 12.9062 20.5523 12.7798 20.4306C11.5309 19.2357 10.6224 17.6832 10.461 16.1527C9.53613 15.8532 9.02822 14.8538 8.85596 13.8148C8.74248 13.1298 8.77529 12.4161 8.92979 11.8952C9.1417 11.1823 9.5751 10.7571 10.2095 10.9232C10.0529 10.7687 9.90117 10.608 9.75488 10.4406L9.84648 7.85452C9.44863 7.35071 9.11367 6.73684 8.85732 6.15237C8.45195 5.22952 8.51894 5.10784 9.29551 4.73528C10.7885 4.01819 12.1215 3.38996 13.3055 2.53274C14.9898 1.31252 15.5969 -0.316481 18.0407 0.0533437C19.3409 0.250219 20.5051 1.77873 21.5325 2.64348C22.6919 3.61829 23.96 4.29436 25.2226 4.75989C26.762 5.25823 26.5337 5.72102 25.7886 7.04377C25.6059 7.36989 25.3859 7.67363 25.133 7.94885L25.2246 10.3783C25.0667 10.5574 24.902 10.729 24.7317 10.8938C24.716 11.0216 24.6976 11.1542 24.6777 11.2889C25.0195 11.1153 25.3148 11.1447 25.5609 11.3162C25.9581 11.5924 26.1092 12.2951 26.0572 13.0792C26.0114 13.7642 25.8207 14.5537 25.5192 15.1416C25.2246 15.7165 24.8274 16.1233 24.34 16.1773C24.2539 17.6641 23.4179 19.1721 22.253 20.3492C22.0855 20.5188 21.9112 20.6815 21.7308 20.836C22.0021 21.2338 22.2708 21.6317 22.5572 22.0186C24.4098 23.6161 29.7049 23.947 31.6846 25.0517C32.3148 25.403 32.8856 25.8515 33.3443 26.4572C34.0402 27.3752 34.4668 29.4287 34.5837 30.9518L35 32.8125C34.8988 33.8905 34.287 34.5113 33.0832 34.6029H13.2542L13.2521 27.8079C13.2398 27.4586 13.2938 27.2009 13.4128 27.043C13.5023 26.924 13.6548 26.8489 13.8688 26.8208L17.5868 26.8181C18.1986 26.8051 18.5958 26.6055 18.8569 26.2186C19.0764 25.8932 19.144 25.4803 19.1427 24.9567V24.1363C20.4271 23.9538 21.605 23.5389 22.3501 22.8136L21.1894 21.2659C20.1715 22.0117 19.0217 22.5108 17.9348 22.6017C17.8154 22.6119 17.6957 22.6171 17.5759 22.6174C16.2764 22.6167 14.9133 22.0767 13.7334 21.2249ZM23.6428 11.8023C20.1865 14.2687 15.1621 14.3965 11.6177 12.0634L11.6594 12.6089C11.6659 12.7004 11.6457 12.7919 11.6011 12.8721C11.5566 12.9524 11.4896 13.0179 11.4085 13.0608C11.1788 13.1818 10.8938 13.0929 10.7728 12.8632C10.4159 12.1858 10.1534 11.8822 9.975 11.8337C9.94697 11.8262 9.89229 11.9622 9.8335 12.1605C9.71592 12.5556 9.69473 13.1141 9.78564 13.6637C9.91895 14.4683 10.2895 15.2319 10.9423 15.2968C11.1802 15.3146 11.3709 15.5108 11.3771 15.7548C11.4099 17.1439 12.2445 18.6156 13.4292 19.7484C14.6234 20.8906 16.1595 21.6754 17.5759 21.6747C17.6709 21.6727 17.7652 21.6686 17.8568 21.6611C19.1201 21.5551 20.5071 20.7751 21.5852 19.6855C22.6563 18.6027 23.4076 17.2266 23.4069 15.9216C23.4049 15.8286 23.4015 15.7377 23.3946 15.6516C23.3892 15.5668 23.4049 15.48 23.4459 15.3993C23.5635 15.1683 23.8472 15.076 24.0782 15.1943C24.2826 15.2989 24.5007 15.0664 24.6818 14.7137C24.9238 14.242 25.0783 13.5912 25.1166 13.0163C25.1487 12.5406 25.1234 12.1605 25.0223 12.0907C24.9895 12.0675 24.8001 12.2876 24.3646 12.9131C24.3134 12.9865 24.2424 13.0438 24.1599 13.0785C24.0774 13.1131 23.9867 13.1235 23.8984 13.1086C23.7752 13.0875 23.6654 13.0183 23.5931 12.9163C23.5208 12.8143 23.492 12.6877 23.5129 12.5645L23.5396 12.4093L23.6428 11.8023ZM23.4001 30.4473H27.8687C28.0123 30.4473 28.1299 30.5649 28.1299 30.7084V31.6655C28.1299 31.809 28.0123 31.9266 27.8687 31.9266H23.4001C23.2565 31.9266 23.139 31.809 23.139 31.6655V30.7084C23.139 30.5649 23.2559 30.4473 23.4001 30.4473ZM15.7363 28.9482C16.1458 28.9482 16.478 29.2797 16.478 29.6899C16.478 30.0993 16.1458 30.4309 15.7363 30.4309C15.3269 30.4309 14.9953 30.0993 14.9953 29.6899C14.9953 29.2797 15.3269 28.9482 15.7363 28.9482ZM18.8084 31.7564C19.2179 31.7564 19.5494 32.0879 19.5494 32.4974C19.5494 32.9069 19.2179 33.2391 18.8084 33.2391C18.3989 33.2391 18.0667 32.9069 18.0667 32.4974C18.0667 32.0879 18.3989 31.7564 18.8084 31.7564ZM15.7363 31.7564C16.1458 31.7564 16.478 32.0879 16.478 32.4974C16.478 32.9069 16.1458 33.2391 15.7363 33.2391C15.3269 33.2391 14.9953 32.9069 14.9953 32.4974C14.9953 32.0879 15.3269 31.7564 15.7363 31.7564ZM18.8084 28.9482C19.2179 28.9482 19.5494 29.2797 19.5494 29.6899C19.5494 30.0993 19.2179 30.4309 18.8084 30.4309C18.3989 30.4309 18.0667 30.0993 18.0667 29.6899C18.0667 29.2797 18.3989 28.9482 18.8084 28.9482Z" fill="white"/>
</g>
<defs>
<clipPath id="clip0_6814_434">
<rect width="35" height="34.6028" fill="white"/>
</clipPath>
</defs>
</svg>
