<svg width="32" height="32" viewBox="0 0 32 32" fill="none" xmlns="http://www.w3.org/2000/svg">
<path d="M21.3569 2.43162C21.4447 2.3672 21.534 2.35353 21.5938 2.35353C21.6557 2.35353 21.8111 2.37022 21.9202 2.51891L24.9581 6.66273H27.5988L23.638 1.25971C22.8436 0.176476 21.1846 -0.0816621 20.0971 0.714839L18.6641 1.76507L19.9233 3.48291L21.3569 2.43162Z" fill="white"/>
<path d="M14.0319 2.43261C14.1197 2.36819 14.2095 2.35353 14.2694 2.35353C14.3312 2.35353 14.4866 2.37022 14.5957 2.51891L17.6336 6.66273H20.2744L16.3136 1.25971C15.5186 0.176476 13.8611 -0.081662 12.7726 0.714839L4.65625 6.66273H8.25908L14.0319 2.43261Z" fill="white"/>
<path d="M17.1852 20.2709C17.1852 17.6641 19.3059 15.5429 21.9126 15.5429H29.9129V10.7409C29.9129 9.66584 29.0406 8.79224 27.9648 8.79224H1.94816C0.872293 8.79217 0 9.66571 0 10.7409V29.8008C0 30.8771 0.872293 31.7494 1.94816 31.7494H27.9648C29.0406 31.7494 29.9129 30.8771 29.9129 29.8008V24.9987H21.9126C19.3058 24.9988 17.1852 22.8776 17.1852 20.2709Z" fill="white"/>
<path d="M30.9655 17.1399H21.9125C20.1839 17.1399 18.7822 18.5416 18.7822 20.2708C18.7822 22.0002 20.1839 23.4017 21.9125 23.4017H30.9657C31.5368 23.4017 31.9999 22.9378 31.9999 22.3681V18.1744C31.9999 17.6036 31.5366 17.1399 30.9655 17.1399Z" fill="white"/>
</svg>
